<?xml version="1.0" encoding="UTF-8"?>
<svg width="300px" height="300px" viewBox="0 0 300 300" version="1.1" xmlns="http://www.w3.org/2000/svg" xmlns:xlink="http://www.w3.org/1999/xlink">
    <title>img/M6s/img_add_m6ssfp_03</title>
    <defs>
        <filter x="-100.0%" y="-47.3%" width="300.0%" height="194.6%" filterUnits="objectBoundingBox" id="filter-1">
            <feGaussianBlur stdDeviation="6" in="SourceGraphic"></feGaussianBlur>
        </filter>
    </defs>
    <g id="img/M6s/img_add_m6ssfp_03" stroke="none" stroke-width="1" fill="none" fill-rule="evenodd">
        <path d="M115.002814,106.651317 C115.188276,95.2157036 124.518777,86 135.998523,86 C147.596684,86 157,95.4023233 157,106.998523 C157,118.59718 147.59718,128 135.998523,128 C124.518285,128 115.188266,118.78381 115.002813,107.345802 L115,106.998523 L115.002814,106.651317 Z M117,106.998548 C117,117.492624 125.507376,126 135.998548,126 C146.492624,126 155,117.492624 155,106.998548 C155,96.507376 146.492624,88 135.998548,88 C125.507376,88 117,96.507376 117,106.998548 Z" id="Fill-20" fill-opacity="0.9" fill="#F84343" fill-rule="nonzero"></path>
        <g id="编组" transform="translate(181.9995, 37.9995)">
            <path d="M1.25003667,32.876829 C-4.42090116,56.0143037 9.73865803,79.3677356 32.8767273,85.0400291 L33.5856636,85.2074449 C37.3698879,86.0680646 41.2041539,86.4126196 45.0092694,86.249289 L45.641459,86.2164407 L45.6261565,86.6575101 C45.5491495,88.4680045 45.3416195,90.4545973 45.0400582,92.2044162 L44.3691896,96.0971524 L48.0297099,94.2696705 L48.3208874,94.113623 L48.661947,93.9202914 L49.0496235,93.6896165 L49.4806519,93.4215391 L49.9517671,93.1160003 C51.4320311,92.1364799 52.9102451,90.9657631 54.2948637,89.5986304 L54.685905,89.2045884 C56.3593595,87.4832876 57.7568969,85.5826333 58.7941499,83.4970883 L58.885459,83.3054407 L59.0525533,83.2408727 C71.9173323,78.1288758 81.6725644,67.1501971 85.0400365,53.4121539 C90.7110999,30.2753768 76.5509944,6.92104395 53.4132603,1.25004254 C30.2754919,-4.42096724 6.92106978,9.73896552 1.25003667,32.876829 Z M52.9371571,3.19254756 C75.0021571,8.60062449 88.5056186,30.8721629 83.0975417,52.9360091 C79.7213878,66.7094706 69.775234,77.1460091 57.4106186,81.729086 C56.193519,84.5500696 54.3243068,86.8253935 52.5045233,88.5477491 L52.0510132,88.9668136 C51.9004571,89.1026589 51.7506502,89.2346599 51.6019985,89.3628124 L51.1599152,89.7357201 L50.7271991,90.0855113 C50.6559957,90.141882 50.5852841,90.1972885 50.515115,90.2517303 L50.1010171,90.5667992 C50.0332212,90.6173797 49.9660694,90.6669944 49.8996123,90.7156428 L49.5096134,90.9959323 L49.1387254,91.2530039 L48.6235548,91.595022 L48.1650856,91.8846569 L47.7715391,92.121823 L47.1519216,92.470684 L47.0110032,92.544086 C47.4667725,89.8994706 47.7413878,86.5821629 47.6375417,84.0437014 C42.9840802,84.5560091 38.1633109,84.2756245 33.3529263,83.0975476 C11.2879263,77.6883168 -2.21553523,55.4179322 3.19254169,33.3529322 C8.60061861,11.2879322 30.8721571,-2.21552936 52.9371571,3.19254756 Z" id="Stroke-47" fill-opacity="0.5" fill="#999999" fill-rule="nonzero"></path>
            <g id="编组-2" transform="translate(19.3936, 3.1539)">
                <path d="M14.0821427,1.10134124e-13 L14.0672755,0.565434129 L14.0242224,2.09189205 L13.9776206,3.63246395 L13.9274702,5.18715009 L13.8737713,6.75595078 C13.8319769,7.94322845 13.6992408,9.23346742 13.4802691,10.715356 L13.4283492,11.0602782 L13.3455165,11.5867127 L13.2546542,12.1375541 L13.1169572,12.9363138 L12.6217029,15.700345 L12.3997642,16.9805337 L12.3046474,17.5601931 L12.2563047,17.869966 L12.1890871,18.3319095 L12.146341,18.660053 L12.1201367,18.8863785 L12.0922989,19.1671162 L12.0762651,19.3655425 L12.0606399,19.6192881 L12.049117,19.9284502 L12.0451206,20.1797407 L12.0451206,23.874963 L12.05393,37.8104501 L12.0762462,51.5302317 L12.1118623,64.1157803 C12.1126896,64.3127453 12.2726761,64.4709188 12.469202,64.4709188 L14.0447385,64.3765625 L15.9067494,64.258184 L17.3300507,64.1625093 L18.694391,64.0659747 L20.3168724,63.9441029 L21.8471584,63.8209009 L23.0049808,63.7213864 L23.8345976,63.6461971 L24.8890711,63.5452101 L25.8844612,63.4433867 L26.8207484,63.3407309 L27.4841657,63.2631949 L28.1143183,63.1851944 L28.5159356,63.1329367 L29.0906288,63.0541655 L29.6320353,62.9749339 L30.6648361,62.8129576 L31.0906787,62.744201 L31.9340796,62.6047098 L32.7661167,62.4626766 L33.586408,62.3182156 L34.3945716,62.1714413 C34.5282337,62.1467925 34.6613746,62.122052 34.7939862,62.0972223 L35.5832421,61.9471922 C35.7137052,61.9220151 35.8436231,61.8967534 35.972988,61.8714097 L36.7424768,61.7183812 C36.8695976,61.6927185 36.9961494,61.6669786 37.1221243,61.6411637 L37.8709866,61.4853939 C37.9946219,61.4592887 38.1176643,61.4331133 38.240106,61.4068701 L38.9674824,61.2486163 L39.6800576,61.0888493 L40.3774494,60.9276836 L41.059276,60.7652334 C41.1715955,60.7380577 41.2832505,60.7108332 41.394233,60.6835624 L42.0519956,60.5193999 L42.6932381,60.3542387 L43.3175786,60.1881933 L43.9246351,60.0213779 L44.5140256,59.8539068 L45.0853682,59.6858944 C45.2727654,59.6298127 45.4570909,59.5736599 45.638281,59.517455 L46.1188844,59.3658356 C46.1974104,59.340633 46.2751434,59.3154668 46.3520747,59.290341 L46.8039727,59.1401029 L47.2362143,58.9910269 L47.6483837,58.8433058 C48.5193722,58.5248505 49.2460915,58.2172948 49.8095136,57.9294685 C50.2506643,57.704105 50.5781401,57.4972992 50.7797738,57.3227904 C50.8268957,57.2820076 50.8641031,57.2455761 50.8914699,57.2149728 L50.9221064,57.176965 L52.2260235,40.2487029 L52.2269482,10.2962052 C52.6956262,10.7464773 53.1530389,11.2073076 53.5988877,11.6782039 L53.5990144,40.2718995 L53.5969788,40.324836 L52.2896181,57.2957261 L52.2887674,57.3202442 C52.2487872,57.9599297 51.5897742,58.5749611 50.3526597,59.2027855 L50.1060104,59.3244697 C50.0637027,59.3447803 50.0207962,59.3651068 49.9772923,59.3854504 L49.7091104,59.507727 C49.6632222,59.5281439 49.6167394,59.5485805 49.5696632,59.5690379 L49.2800971,59.6920426 L48.9763573,59.8156081 L48.6585098,59.9397948 L48.3266205,60.0646629 L47.9807554,60.190273 L47.6209803,60.3166852 L47.2473613,60.4439599 L46.8599644,60.5721574 L46.4588553,60.7013382 L46.0441002,60.8315624 C45.9519278,60.8601542 45.8589742,60.8887291 45.7652473,60.9172848 L45.1936703,61.0883701 L44.6039153,61.2588822 L43.9963622,61.4287084 L43.3713914,61.597736 C43.2657992,61.6258344 43.1594971,61.6538949 43.052493,61.6819151 L42.4021082,61.8495335 C42.2923279,61.877383 42.1818614,61.9051875 42.0707167,61.9329446 L41.3957732,62.0989002 L40.7049325,62.2636065 L39.9985746,62.4269507 L39.2770798,62.5888202 C39.1555904,62.6156693 39.0334861,62.6424522 38.9107748,62.6691667 L38.1672873,62.8286127 L37.4096132,62.9863022 L36.6381327,63.1421226 C36.5084232,63.1679306 36.3781542,63.1936561 36.2473338,63.2192966 L35.4558563,63.3721019 L34.6515227,63.5227562 L33.8347132,63.671147 L33.0058078,63.8171614 L32.1651868,63.9606869 C32.0241281,63.9843941 31.8825971,64.0079929 31.7406017,64.031481 L30.88312,64.1710617 C30.5954774,64.217133 30.3060406,64.2627426 30.0148729,64.3078716 L29.4767857,64.3884447 L28.9056557,64.4684858 L28.3014751,64.5479967 L27.8803225,64.6007101 L27.2072406,64.6809398 L26.7393889,64.7341218 L26.0089095,64.8134393 L25.2439803,64.8922119 L24.1704716,64.9963969 L23.0356837,65.0996199 L21.8395968,65.2018847 L20.2582558,65.3283743 L18.9241727,65.4284977 L17.1702731,65.5523229 L15.6980925,65.6503248 L13.7715077,65.7715107 L12.5222524,65.8465605 L12.4749802,65.8465605 C11.8202816,65.8492908 11.249071,65.4868548 10.953508,64.9500511 L6.90711496,64.631671 C6.78137718,64.774147 6.59760152,64.8639781 6.39289144,64.8639781 C6.03616892,64.8639781 5.74301513,64.5912 5.70976079,64.2424131 L5.70661923,64.1761729 L5.70661923,20.3094843 C5.70661923,19.6776069 5.67481785,19.0218482 5.61289459,18.3312538 L5.58572627,18.042459 L5.54036215,17.612975 L5.50656815,17.3255775 L5.44973279,16.8867883 L5.40726948,16.5855864 L5.33589746,16.1146892 L5.25433204,15.6135821 L5.16146967,15.074056 L5.05620679,14.487902 L4.85021467,13.3850652 L4.59379291,12.0307596 L4.41555248,11.0576321 L4.32306539,10.5320681 L4.2408385,10.0449069 L4.19148526,9.73931337 L4.12529927,9.30646275 L4.08619853,9.03303717 L4.0509516,8.77021684 L4.01941721,8.51670923 L3.99145411,8.27122182 L3.95589664,7.91520119 L3.93624376,7.68410947 L3.91966778,7.45651412 L3.90026398,7.11884935 L3.89076223,6.89434008 L3.88384297,6.66880333 L3.87799725,6.32574426 L3.8771869,6.20947726 L3.87864345,3.97488326 C4.33162457,3.72479031 4.78936013,3.48315734 5.25159688,3.25013793 L5.2518743,3.37693938 L5.249724,6.2063033 L5.25366412,6.52984466 L5.2627823,6.84839375 L5.27754812,7.1661208 L5.29076147,7.37954152 L5.30683272,7.59568594 L5.33660249,7.92771243 L5.36042718,8.15607196 L5.40247931,8.5122131 L5.43492703,8.76051038 L5.47106744,9.01894509 L5.53250621,9.42830779 L5.60303617,9.8674301 L5.71202956,10.5064271 L5.80559841,11.031206 L6.02517496,12.2159153 L6.28790019,13.6009686 L6.44616157,14.4594164 L6.54922842,15.0412371 L6.64014436,15.5792716 L6.7200304,16.0819528 L6.79000753,16.5577135 L6.85119675,17.0149866 L6.88766097,17.3137287 L6.92104981,17.6105006 L6.9491869,17.8875758 L7.05058797,2.39693049 C7.39677767,2.24284501 7.74520129,2.0934719 8.09575979,1.94887124 L7.6931869,63.6455758 L8.7461869,63.7285758 L8.74665514,54.7761682 C8.74665514,54.4877527 8.97994099,54.2539457 9.26771367,54.2539457 C9.53630151,54.2539457 9.75742526,54.4576175 9.7857147,54.7192663 L9.7887722,54.7761682 L9.7881869,63.8105758 L10.7381869,63.8855758 L10.7147703,56.1089879 L10.6813866,37.8121123 L10.6722213,20.3094843 L10.6747321,19.9886504 L10.6781453,19.8326028 L10.6850317,19.6332854 L10.6909696,19.5073125 L10.7070045,19.2508231 L10.7292326,18.9832802 L10.7669107,18.6241751 L10.8059144,18.3098441 L10.8619998,17.9034143 C10.7057616,17.8241052 10.5951285,17.6683292 10.578313,17.4859573 L10.5761524,17.4290141 L10.8349393,0.93099284 C11.1827043,0.815625648 11.5322158,0.704833899 11.8833854,0.598671352 L11.6851869,13.1455758 L11.8352753,12.2955679 L11.9901268,11.3698431 L12.071577,10.852319 L12.1699699,10.1860607 C12.3537161,8.88842077 12.4653681,7.75035257 12.5020803,6.70744871 L12.5293148,5.92297622 L12.6057067,3.59074616 L12.6522086,2.05358266 L12.6951698,0.530544732 L12.6987636,0.361339413 C13.1572826,0.233003582 13.6184734,0.112518063 14.0821427,1.09912079e-13 Z M38.7969289,1.70129423 L38.7342793,2.06615541 C38.6042022,2.89522776 38.538631,3.73416582 38.538631,4.57541506 L38.538631,41.1131606 C38.538631,41.6814831 38.6932029,42.2391044 38.9857969,42.7263202 L41.6748007,47.2039422 L38.651779,43.9679181 C38.2894584,43.5800683 37.6938648,43.5256292 37.2672342,43.8413662 L23.9031723,53.7317232 L35.2400598,43.5377472 C36.3415085,42.5473395 36.9705461,41.135776 36.9705461,39.6545277 L36.9705461,4.87542654 C36.9705461,3.43204666 36.6382037,2.01147239 36.0034042,0.722478456 C36.9523114,1.01679854 37.883873,1.34384345 38.7969289,1.70129423 Z M9.99491618,1.21975698 L9.78874899,23.186637 C9.7862139,23.4558128 9.58091796,23.6754983 9.31959701,23.7013801 L9.26279561,23.7039072 C8.99421974,23.7013664 8.77502393,23.4956119 8.74919984,23.2337072 L8.74667835,23.1767789 L8.94924579,1.60789165 C9.29586291,1.47387115 9.64445072,1.34447412 9.99491618,1.21975698 Z" id="形状结合" fill="#999999" fill-rule="nonzero" opacity="0.902563186"></path>
                <path d="M9.26771367,25.0094866 C9.53630151,25.0094866 9.75742526,25.2131585 9.7857147,25.4748072 L9.7887722,25.5317091 L9.7887722,52.6872782 C9.7887722,52.9756938 9.55548635,53.2095007 9.26771367,53.2095007 C8.99912584,53.2095007 8.77800209,53.0058289 8.74971264,52.7441801 L8.74665514,52.6872782 L8.74665514,25.5317091 C8.74665514,25.2432936 8.97994099,25.0094866 9.26771367,25.0094866 Z" id="路径" fill="#2A75FF" fill-rule="nonzero"></path>
                <path d="M3.87643454,6.20947726 C3.89621897,10.5063377 5.70586687,15.4614743 5.70586687,20.3094843 C5.70586687,41.0338282 5.70586687,54.6116128 5.70586687,61.042838 C5.70586687,62.068888 5.70586687,63.0949381 5.70586687,64.1209882 C5.70586687,64.3243779 5.78236153,64.5203285 5.92015939,64.6699251 L5.92015939,64.6699251 L5.92015939,64.6699251 L5.0477275,64.3852402 C4.18833128,64.1048091 3.6068402,63.3033951 3.6068402,62.399402 L3.6068402,4.22402958 L3.6068402,4.22402958 L3.87643454,4.00149063 L3.87643454,6.20947726 Z" id="路径-5备份-2" fill="#AAAAAA" fill-rule="nonzero" opacity="0.440957932"></path>
                <path d="M0,37.9362229 C0,48.4464699 4.02980968,56.9669552 8.99931208,56.9669552 C13.9701903,56.9669552 18,48.4464699 18,37.9362229 C18,27.4288849 13.9701903,18.9083996 8.99931208,18.9083996 C4.02980968,18.9083996 0,27.4288849 0,37.9362229" id="Fill-20" fill="#367DFF" opacity="0.5" filter="url(#filter-1)"></path>
            </g>
        </g>
        <g id="编组-3" transform="translate(91, 7)">
            <path d="M40.9845712,93.3599146 L49.0233298,93.3599146 C50.9700702,93.3599146 52.5482151,94.9414936 52.5482151,96.8924703 L52.5482151,104.932148 C52.5482151,106.883125 50.9700702,108.464704 49.0233298,108.464704 L40.9845712,108.464704 C39.0378308,108.464704 37.4596859,106.883125 37.4596859,104.932148 L37.4596859,96.8924703 C37.4596859,94.9414936 39.0378308,93.3599146 40.9845712,93.3599146 Z" id="路径" fill-opacity="0.5" fill="#999999" fill-rule="nonzero"></path>
            <path d="M37.0737151,89.1649634 C37.3832073,89.1649634 37.6484863,89.0764358 37.8695522,88.8993806 C38.1066956,88.7102534 38.2554126,88.4486945 38.3197227,88.11068 L37.8615134,88.11068 C37.8052421,88.3279751 37.708777,88.4929583 37.5721181,88.6016059 C37.443498,88.6981814 37.2746841,88.7504932 37.0696957,88.7504932 C36.7561841,88.7504932 36.5230601,88.6498937 36.3743431,88.4567425 C36.2376842,88.2756633 36.1693548,88.0141044 36.1693548,87.6760899 C36.1693548,87.3461234 36.2376842,87.0885885 36.3783625,86.9034853 C36.5310989,86.6942382 36.7561841,86.5936387 37.0576376,86.5936387 C37.2586065,86.5936387 37.4234011,86.6338785 37.5520212,86.7224061 C37.6846608,86.8109337 37.7730871,86.9477491 37.8213197,87.1368763 L38.2795289,87.1368763 C38.2353157,86.8471496 38.110715,86.6137586 37.9017072,86.4447513 C37.6846608,86.2676961 37.4033042,86.1791685 37.0656763,86.1791685 C36.6074671,86.1791685 36.2577811,86.3280558 36.0166183,86.6338785 C35.8035912,86.8994613 35.6990874,87.2495478 35.6990874,87.6760899 C35.6990874,88.11068 35.7995719,88.4567425 36.0045602,88.7142774 C36.2376842,89.0120521 36.595409,89.1649634 37.0737151,89.1649634 Z M40.0359976,89.1649634 C40.47411,89.1649634 40.8197766,89.024124 41.0729975,88.7424452 C41.3141603,88.4728384 41.4347416,88.118728 41.4347416,87.6760899 C41.4347416,87.2334519 41.3141603,86.8753174 41.0729975,86.6057106 C40.8197766,86.3200079 40.47411,86.1791685 40.0359976,86.1791685 C39.5938659,86.1791685 39.2481993,86.3200079 38.9989978,86.6097346 C38.757835,86.8833654 38.641273,87.2374759 38.641273,87.6760899 C38.641273,88.11068 38.757835,88.4647905 38.9989978,88.7384213 C39.2481993,89.0201 39.5938659,89.1649634 40.0359976,89.1649634 Z M40.0359976,88.7504932 C39.7385636,88.7504932 39.5054396,88.6498937 39.3446644,88.4527185 C39.1879086,88.2595674 39.1115404,88.0020325 39.1115404,87.6760899 C39.1115404,87.3461234 39.1879086,87.0885885 39.3446644,86.8954374 C39.509459,86.6942382 39.7385636,86.5936387 40.0359976,86.5936387 C40.3334317,86.5936387 40.5625363,86.6861903 40.7233115,86.8793414 C40.8800673,87.0724926 40.9604549,87.3380754 40.9604549,87.6760899 C40.9604549,88.0141044 40.8800673,88.2756633 40.7233115,88.4647905 C40.5625363,88.6539176 40.3334317,88.7504932 40.0359976,88.7504932 Z M42.3471408,89.1086276 L42.3471408,87.0081089 L42.3632183,87.0081089 L43.7981367,89.1086276 L44.2563459,89.1086276 L44.2563459,86.2355043 L43.7820592,86.2355043 L43.7820592,88.3078552 L43.7659816,88.3078552 L42.3471408,86.2355043 L41.8768734,86.2355043 L41.8768734,89.1086276 L42.3471408,89.1086276 Z M45.2893264,89.1086276 L45.2893264,87.0081089 L45.3054039,87.0081089 L46.7403223,89.1086276 L47.1985316,89.1086276 L47.1985316,86.2355043 L46.7242448,86.2355043 L46.7242448,88.3078552 L46.7081673,88.3078552 L45.2893264,86.2355043 L44.819059,86.2355043 L44.819059,89.1086276 L45.2893264,89.1086276 Z M49.8995545,89.1086276 L49.8995545,88.7062294 L48.2315121,88.7062294 L48.2315121,87.8370492 L49.7347599,87.8370492 L49.7347599,87.434651 L48.2315121,87.434651 L48.2315121,86.6379025 L49.831225,86.6379025 L49.831225,86.2355043 L47.7612447,86.2355043 L47.7612447,89.1086276 L49.8995545,89.1086276 Z M51.5957325,89.1649634 C51.9052247,89.1649634 52.1705038,89.0764358 52.3915696,88.8993806 C52.628713,88.7102534 52.7774301,88.4486945 52.8417401,88.11068 L52.3835309,88.11068 C52.3272596,88.3279751 52.2307945,88.4929583 52.0941356,88.6016059 C51.9655154,88.6981814 51.7967015,88.7504932 51.5917132,88.7504932 C51.2782016,88.7504932 51.0450776,88.6498937 50.8963605,88.4567425 C50.7597016,88.2756633 50.6913722,88.0141044 50.6913722,87.6760899 C50.6913722,87.3461234 50.7597016,87.0885885 50.9003799,86.9034853 C51.0531163,86.6942382 51.2782016,86.5936387 51.579655,86.5936387 C51.780624,86.5936387 51.9454185,86.6338785 52.0740387,86.7224061 C52.2066782,86.8109337 52.2951045,86.9477491 52.3433371,87.1368763 L52.8015463,87.1368763 C52.7573332,86.8471496 52.6327324,86.6137586 52.4237247,86.4447513 C52.2066782,86.2676961 51.9253216,86.1791685 51.5876938,86.1791685 C51.1294845,86.1791685 50.7797985,86.3280558 50.5386358,86.6338785 C50.3256087,86.8994613 50.2211048,87.2495478 50.2211048,87.6760899 C50.2211048,88.11068 50.3215893,88.4567425 50.5265776,88.7142774 C50.7597016,89.0120521 51.1174264,89.1649634 51.5957325,89.1649634 Z M54.4736081,89.1086276 L54.4736081,86.6379025 L55.4141429,86.6379025 L55.4141429,86.2355043 L53.062806,86.2355043 L53.062806,86.6379025 L54.0033407,86.6379025 L54.0033407,89.1086276 L54.4736081,89.1086276 Z" id="CONNECT" fill="#999999" fill-rule="nonzero"></path>
            <path d="M52.6263952,187.43904 L53.1891083,185.278161 L53.2051858,185.278161 L53.7638795,187.43904 L54.2622826,187.43904 L55.0902747,184.565916 L54.5597166,184.565916 L54.0211198,186.750939 L54.0050423,186.750939 L53.4383098,184.565916 L52.9519649,184.565916 L52.3852324,186.750939 L52.3691549,186.750939 L51.8305581,184.565916 L51.3,184.565916 L52.1239728,187.43904 L52.6263952,187.43904 Z M55.612794,187.43904 L55.8740537,186.718747 L57.0758481,186.718747 L57.3371077,187.43904 L57.8395301,187.43904 L56.7422396,184.565916 L56.2076621,184.565916 L55.1103716,187.43904 L55.612794,187.43904 Z M56.9351698,186.332445 L56.0147319,186.332445 L56.4689218,185.072938 L56.4849993,185.072938 L56.9351698,186.332445 Z M58.5911541,187.43904 L58.5911541,185.338521 L58.6072316,185.338521 L60.04215,187.43904 L60.5003592,187.43904 L60.5003592,184.565916 L60.0260725,184.565916 L60.0260725,186.638267 L60.009995,186.638267 L58.5911541,184.565916 L58.1208867,184.565916 L58.1208867,187.43904 L58.5911541,187.43904 Z" id="形状结合" fill="#999999" fill-rule="nonzero" transform="translate(55.9002, 186.0025) rotate(-270) translate(-55.9002, -186.0025)"></path>
            <path d="M54.2177284,149.625535 L54.2177284,149.223137 L52.666248,149.223137 L52.666248,146.752412 L52.2,146.752412 L52.2,149.625535 L54.2177284,149.625535 Z M54.8005384,149.625535 L55.0617981,148.905242 L56.2635925,148.905242 L56.5248521,149.625535 L57.0272745,149.625535 L55.929984,146.752412 L55.3954066,146.752412 L54.298116,149.625535 L54.8005384,149.625535 Z M56.1229142,148.51894 L55.2024763,148.51894 L55.6566662,147.259433 L55.6727437,147.259433 L56.1229142,148.51894 Z M57.7788985,149.625535 L57.7788985,147.525016 L57.794976,147.525016 L59.2298944,149.625535 L59.6881037,149.625535 L59.6881037,146.752412 L59.2138169,146.752412 L59.2138169,148.824762 L59.1977394,148.824762 L57.7788985,146.752412 L57.3086311,146.752412 L57.3086311,149.625535 L57.7788985,149.625535 Z" id="LAN" fill="#999999" fill-rule="nonzero" transform="translate(55.9441, 148.189) rotate(-270) translate(-55.9441, -148.189)"></path>
            <path d="M38.2913663,257.646421 L38.2913663,256.54385 L39.0027964,256.54385 C39.7021684,256.54385 40.0518544,256.246075 40.0518544,255.65455 C40.0518544,255.067048 39.7021684,254.773298 39.0108352,254.773298 L37.8210989,254.773298 L37.8210989,257.646421 L38.2913663,257.646421 Z M38.9746608,256.141452 L38.2913663,256.141452 L38.2913663,255.175696 L38.9746608,255.175696 C39.1796491,255.175696 39.3323855,255.211912 39.4288507,255.288367 C39.5253158,255.360799 39.5775677,255.481518 39.5775677,255.65455 C39.5775677,255.827581 39.5293351,255.952324 39.43287,256.02878 C39.3364049,256.101212 39.1836685,256.141452 38.9746608,256.141452 Z M41.7279356,257.702757 C42.166048,257.702757 42.5117146,257.561917 42.7649355,257.280239 C43.0060982,257.010632 43.1266796,256.656521 43.1266796,256.213883 C43.1266796,255.771245 43.0060982,255.413111 42.7649355,255.143504 C42.5117146,254.857801 42.166048,254.716962 41.7279356,254.716962 C41.2858039,254.716962 40.9401373,254.857801 40.6909358,255.147528 C40.449773,255.421159 40.333211,255.775269 40.333211,256.213883 C40.333211,256.648473 40.449773,257.002584 40.6909358,257.276215 C40.9401373,257.557893 41.2858039,257.702757 41.7279356,257.702757 Z M41.7279356,257.288286 C41.4305015,257.288286 41.1973775,257.187687 41.0366024,256.990512 C40.8798466,256.797361 40.8034784,256.539826 40.8034784,256.213883 C40.8034784,255.883917 40.8798466,255.626382 41.0366024,255.433231 C41.2013969,255.232032 41.4305015,255.131432 41.7279356,255.131432 C42.0253697,255.131432 42.2544743,255.223984 42.4152495,255.417135 C42.5720053,255.610286 42.6523929,255.875869 42.6523929,256.213883 C42.6523929,256.551898 42.5720053,256.813457 42.4152495,257.002584 C42.2544743,257.191711 42.0253697,257.288286 41.7279356,257.288286 Z M44.6339469,257.646421 L45.19666,255.485542 L45.2127375,255.485542 L45.7714312,257.646421 L46.2698342,257.646421 L47.0978264,254.773298 L46.5672683,254.773298 L46.0286715,256.95832 L46.012594,256.95832 L45.4458615,254.773298 L44.9595166,254.773298 L44.3927841,256.95832 L44.3767066,256.95832 L43.8381098,254.773298 L43.3075517,254.773298 L44.1315244,257.646421 L44.6339469,257.646421 Z M49.5375896,257.646421 L49.5375896,257.244023 L47.8695472,257.244023 L47.8695472,256.374842 L49.3727951,256.374842 L49.3727951,255.972444 L47.8695472,255.972444 L47.8695472,255.175696 L49.4692602,255.175696 L49.4692602,254.773298 L47.3992798,254.773298 L47.3992798,257.646421 L49.5375896,257.646421 Z M50.4499887,257.646421 L50.4499887,256.475442 L51.1935739,256.475442 C51.3543491,256.475442 51.4789498,256.507634 51.5633568,256.580066 C51.6437444,256.648473 51.6919769,256.761145 51.7080544,256.91808 L51.7442289,257.272191 C51.7603064,257.43315 51.8005002,257.557893 51.8688296,257.646421 L52.3792908,257.646421 C52.2828257,257.541797 52.222535,257.400958 52.2064575,257.223903 L52.1582249,256.761145 C52.1260699,256.479466 51.9853916,256.314483 51.7361901,256.258147 L51.7361901,256.250099 C51.8889265,256.209859 52.0135273,256.125356 52.1019536,255.996588 C52.1823412,255.879893 52.222535,255.747101 52.222535,255.598214 C52.222535,255.324583 52.1300893,255.115336 51.9532366,254.970473 C51.7844226,254.837681 51.5512986,254.773298 51.257884,254.773298 L49.9797213,254.773298 L49.9797213,257.646421 L50.4499887,257.646421 Z M51.1935739,256.073044 L50.4499887,256.073044 L50.4499887,255.175696 L51.1935739,255.175696 C51.3865041,255.175696 51.5271824,255.207888 51.6156087,255.280319 C51.7040351,255.348727 51.7482482,255.461399 51.7482482,255.618334 C51.7482482,255.763197 51.7040351,255.875869 51.6156087,255.956348 C51.5191436,256.032804 51.3784653,256.073044 51.1935739,256.073044 Z" id="POWER" fill="#999999" fill-rule="nonzero"></path>
            <path d="M39.2301121,69.9947116 L39.2301121,68.8237327 L39.9736973,68.8237327 C40.1344724,68.8237327 40.2590732,68.8559246 40.3434802,68.9283562 C40.4238678,68.9967639 40.4721003,69.1094355 40.4881778,69.2663708 L40.5243522,69.6204812 C40.5404298,69.7814405 40.5806235,69.906184 40.648953,69.9947116 L41.1594142,69.9947116 C41.0629491,69.890088 41.0026584,69.7492486 40.9865809,69.5721934 L40.9383483,69.1094355 C40.9061933,68.8277567 40.765515,68.6627734 40.5163135,68.6064377 L40.5163135,68.5983897 C40.6690499,68.5581499 40.7936506,68.4736462 40.882077,68.3448788 C40.9624646,68.2281833 41.0026584,68.0953919 41.0026584,67.9465046 C41.0026584,67.6728738 40.9102126,67.4636267 40.73336,67.3187633 C40.564546,67.1859719 40.331422,67.1215882 40.0380073,67.1215882 L38.7598447,67.1215882 L38.7598447,69.9947116 L39.2301121,69.9947116 Z M39.9736973,68.4213345 L39.2301121,68.4213345 L39.2301121,67.5239864 L39.9736973,67.5239864 C40.1666275,67.5239864 40.3073058,67.5561783 40.3957321,67.62861 C40.4841584,67.6970177 40.5283716,67.8096892 40.5283716,67.9666245 C40.5283716,68.1114878 40.4841584,68.2241593 40.3957321,68.304639 C40.299267,68.3810947 40.1585887,68.4213345 39.9736973,68.4213345 Z M43.6996619,69.9947116 L43.6996619,69.5923133 L42.0316195,69.5923133 L42.0316195,68.7231332 L43.5348673,68.7231332 L43.5348673,68.3207349 L42.0316195,68.3207349 L42.0316195,67.5239864 L43.6313324,67.5239864 L43.6313324,67.1215882 L41.5613521,67.1215882 L41.5613521,69.9947116 L43.6996619,69.9947116 Z M45.2029098,70.0510473 C45.5686733,70.0510473 45.8540492,69.9745917 46.0550182,69.8297283 C46.2559871,69.6808409 46.3564716,69.4756178 46.3564716,69.218083 C46.3564716,68.9525001 46.2318709,68.747277 45.9826693,68.5983897 C45.8701267,68.534006 45.6209252,68.4374304 45.2310454,68.3167109 C44.9657664,68.2322073 44.8009718,68.1718476 44.7406811,68.1396557 C44.6040222,68.067224 44.5397122,67.9666245 44.5397122,67.845905 C44.5397122,67.7090896 44.5959835,67.60849 44.7165649,67.5481303 C44.81303,67.4958185 44.9496889,67.4716746 45.1305609,67.4716746 C45.3395686,67.4716746 45.5003438,67.5078905 45.6048477,67.5883701 C45.7093515,67.6648258 45.7857197,67.7935932 45.8259135,67.9706485 L46.2921615,67.9706485 C46.2640259,67.6567778 46.1474639,67.4233869 45.9464949,67.2744995 C45.7575841,67.1336601 45.4923051,67.0652524 45.1546772,67.0652524 C44.845185,67.0652524 44.5919641,67.1336601 44.3909951,67.2744995 C44.1739486,67.4193629 44.0694448,67.620562 44.0694448,67.8740729 C44.0694448,68.1275838 44.177968,68.3207349 44.3990339,68.4535263 C44.4834409,68.5018141 44.7045067,68.5822938 45.0582121,68.6949653 C45.3757431,68.7915408 45.5606345,68.8559246 45.6169058,68.8840924 C45.7937585,68.9726201 45.8862042,69.0933395 45.8862042,69.2462509 C45.8862042,69.3669703 45.8218942,69.4595219 45.7013128,69.5319536 C45.5807314,69.6003613 45.4119175,69.6365771 45.2029098,69.6365771 C44.9657664,69.6365771 44.7929331,69.5923133 44.6803904,69.5118337 C44.5557897,69.4192821 44.4794215,69.2623468 44.4472664,69.0450517 L43.9810184,69.0450517 C44.0011153,69.4112341 44.1337549,69.676817 44.3749176,69.8458242 C44.5718672,69.9826396 44.8492044,70.0510473 45.2029098,70.0510473 Z M48.8967193,69.9947116 L48.8967193,69.5923133 L47.2286769,69.5923133 L47.2286769,68.7231332 L48.7319248,68.7231332 L48.7319248,68.3207349 L47.2286769,68.3207349 L47.2286769,67.5239864 L48.8283899,67.5239864 L48.8283899,67.1215882 L46.7584095,67.1215882 L46.7584095,69.9947116 L48.8967193,69.9947116 Z M50.5285873,69.9947116 L50.5285873,67.5239864 L51.4691221,67.5239864 L51.4691221,67.1215882 L49.1177852,67.1215882 L49.1177852,67.5239864 L50.05832,67.5239864 L50.05832,69.9947116 L50.5285873,69.9947116 Z" id="RESET" fill="#999999" fill-rule="nonzero"></path>
            <ellipse id="椭圆形备份-2" fill-opacity="0.5" fill="#999999" fill-rule="nonzero" cx="45.5063729" cy="74.2534262" rx="1.50726724" ry="1.50899337"></ellipse>
            <ellipse id="椭圆形备份-3" fill-opacity="0.5" fill="#999999" fill-rule="nonzero" cx="42.9942608" cy="246.312204" rx="5.02422414" ry="5.02997791"></ellipse>
            <path d="M47.1857143,178.263666 L47.186,182.314666 L49.2428571,182.315113 L49.243,183.327666 L51.3,183.327974 L51.3,189.405145 L49.243,189.404666 L49.2428571,190.418006 L47.186,190.417666 L47.1857143,194.469453 L36.9,194.469453 L36.9,178.263666 L47.1857143,178.263666 Z M43.62,191.102017 L38.82,191.102017 L38.82,192.154341 L43.62,192.154341 L43.62,191.102017 Z M43.62,188.997369 L38.82,188.997369 L38.82,190.049693 L43.62,190.049693 L43.62,188.997369 Z M43.62,186.892721 L38.82,186.892721 L38.82,187.945045 L43.62,187.945045 L43.62,186.892721 Z M43.62,184.788074 L38.82,184.788074 L38.82,185.840398 L43.62,185.840398 L43.62,184.788074 Z M43.62,182.683426 L38.82,182.683426 L38.82,183.73575 L43.62,183.73575 L43.62,182.683426 Z M43.62,180.578778 L38.82,180.578778 L38.82,181.631102 L43.62,181.631102 L43.62,180.578778 Z" id="形状结合备份-2" fill-opacity="0.5" fill="#D98080"></path>
            <path d="M47.1857143,159.356913 L47.186,163.407913 L49.2428571,163.40836 L49.243,164.420913 L51.3,164.421222 L51.3,170.498392 L49.243,170.497913 L49.2428571,171.511254 L47.186,171.510913 L47.1857143,175.562701 L36.9,175.562701 L36.9,159.356913 L47.1857143,159.356913 Z M43.62,172.195265 L38.82,172.195265 L38.82,173.247588 L43.62,173.247588 L43.62,172.195265 Z M43.62,170.090617 L38.82,170.090617 L38.82,171.142941 L43.62,171.142941 L43.62,170.090617 Z M43.62,167.985969 L38.82,167.985969 L38.82,169.038293 L43.62,169.038293 L43.62,167.985969 Z M43.62,165.881321 L38.82,165.881321 L38.82,166.933645 L43.62,166.933645 L43.62,165.881321 Z M43.62,163.776673 L38.82,163.776673 L38.82,164.828997 L43.62,164.828997 L43.62,163.776673 Z M43.62,161.672026 L38.82,161.672026 L38.82,162.72435 L43.62,162.72435 L43.62,161.672026 Z" id="形状结合备份" fill-opacity="0.5" fill="#999999"></path>
            <path d="M47.1857143,140.450161 L47.186,144.501161 L49.2428571,144.501608 L49.243,145.514161 L51.3,145.514469 L51.3,151.59164 L49.243,151.591161 L49.2428571,152.604502 L47.186,152.604161 L47.1857143,156.655949 L36.9,156.655949 L36.9,140.450161 L47.1857143,140.450161 Z M43.62,153.288512 L38.82,153.288512 L38.82,154.340836 L43.62,154.340836 L43.62,153.288512 Z M43.62,151.183864 L38.82,151.183864 L38.82,152.236188 L43.62,152.236188 L43.62,151.183864 Z M43.62,149.079217 L38.82,149.079217 L38.82,150.13154 L43.62,150.13154 L43.62,149.079217 Z M43.62,146.974569 L38.82,146.974569 L38.82,148.026893 L43.62,148.026893 L43.62,146.974569 Z M43.62,144.869921 L38.82,144.869921 L38.82,145.922245 L43.62,145.922245 L43.62,144.869921 Z M43.62,142.765273 L38.82,142.765273 L38.82,143.817597 L43.62,143.817597 L43.62,142.765273 Z" id="形状结合" fill-opacity="0.5" fill="#999999"></path>
            <path d="M47.1857143,121.543408 L47.186,125.594408 L49.2428571,125.594855 L49.243,126.607408 L51.3,126.607717 L51.3,132.684887 L49.243,132.684408 L49.2428571,133.697749 L47.186,133.697408 L47.1857143,137.749196 L36.9,137.749196 L36.9,121.543408 L47.1857143,121.543408 Z M43.62,134.38176 L38.82,134.38176 L38.82,135.434084 L43.62,135.434084 L43.62,134.38176 Z M43.62,132.277112 L38.82,132.277112 L38.82,133.329436 L43.62,133.329436 L43.62,132.277112 Z M43.62,130.172464 L38.82,130.172464 L38.82,131.224788 L43.62,131.224788 L43.62,130.172464 Z M43.62,128.067816 L38.82,128.067816 L38.82,129.12014 L43.62,129.12014 L43.62,128.067816 Z M43.62,125.963169 L38.82,125.963169 L38.82,127.015493 L43.62,127.015493 L43.62,125.963169 Z M43.62,123.858521 L38.82,123.858521 L38.82,124.910845 L43.62,124.910845 L43.62,123.858521 Z" id="形状结合" fill-opacity="0.5" fill="#999999"></path>
            <path d="M35.1,203.472669 L47.7,203.472669 L47.7,223.279743 L35.1,223.279743 L35.1,216.977492 L36.9,216.977492 L36.9,210.675241 L35.1,210.675241 L35.1,203.472669 Z" id="形状结合" fill-opacity="0.5" fill="#999999"></path>
            <path d="M49.5535453,201.672026 L49.5535453,225.080386 L33.3535453,225.080386 L33.3535453,201.672026 L49.5535453,201.672026 Z M48.6535453,202.572347 L34.2535453,202.572347 L34.2535453,224.180064 L48.6535453,224.180064 L48.6535453,202.572347 Z" id="Fill-1" fill-opacity="0.5" fill="#999899" fill-rule="nonzero"></path>
            <polygon id="路径" fill-opacity="0.5" fill="#999999" points="56.7 191.768489 56.7 194.469453 54 194.469453 54 193.569132 55.8 193.569132 55.8 191.768489"></polygon>
            <polygon id="路径备份-3" fill-opacity="0.5" fill="#999999" points="56.7 218.778135 56.7 225.080386 54 225.080386 54 224.180064 55.8 224.180064 55.8 218.778135"></polygon>
            <polygon id="路径备份" fill-opacity="0.5" fill="#999999" points="56.6482299 153.954588 56.7 175.562701 54 175.562701 54 174.662379 55.8 174.662379 55.8 153.954984"></polygon>
            <polygon id="路径" fill-opacity="0.5" fill="#999999" points="56.7 178.263666 56.7 180.96463 55.8 180.96463 55.8 179.163987 54 179.163987 54 178.263666"></polygon>
            <polygon id="路径备份-4" fill-opacity="0.5" fill="#999999" points="56.7 201.672026 56.7 207.974277 55.8 207.974277 55.8 202.572347 54 202.572347 54 201.672026"></polygon>
            <polygon id="路径备份-2" fill-opacity="0.5" fill="#999999" points="56.7 121.543408 56.7 143.151125 55.8 143.151125 55.8 122.44373 54 122.44373 54 121.543408"></polygon>
            <path d="M60.7707326,1.09138392 L68.0710481,27.3076492 L83.4884401,82.2432806 L88.8256635,101.188057 C89.6047788,103.946046 90,106.800985 90,109.671228 L90,214.722887 C90,216.357932 89.8718379,217.99045 89.6166963,219.605377 L81.2549087,272.531589 C80.7558036,275.690691 78.2962628,278.175678 75.148176,278.701501 L67.4971582,279.979445 C66.6193069,280.126072 65.8110872,279.47047 65.7712781,278.579466 L65.745,278.017 L24.254,278.017 L24.2287219,278.579466 C24.191008,279.423575 23.4636403,280.056409 22.6407693,279.996013 L22.5028418,279.979445 L14.851824,278.701501 C11.7037372,278.175678 9.24419641,275.690691 8.7450913,272.531589 L0.383303705,219.605377 C0.128162125,217.99045 0,216.357932 0,214.722887 L0,109.671228 C0,106.800985 0.395221198,103.946046 1.17433649,101.188057 L6.51155993,82.2432806 L21.9289519,27.3076492 L29.2292674,1.09138392 C29.718615,-0.674100713 32.3401201,-0.162377978 32.1325168,1.65810366 C31.1641705,10.1495725 30.2749152,18.7303659 29.4647536,27.4004834 L28.3690369,27.2702766 C29.9297726,27.4645788 31.516891,27.6299989 33.1303906,27.766522 L33.131099,11.9891837 L37.0870512,11.9891837 L37.0866037,28.0404918 C39.0280494,28.1458752 41.0057503,28.2115275 43.0197039,28.2374249 L43.0209794,11.9891837 L46.9769315,11.9891837 L46.9772076,28.2374377 C48.9916882,28.2115469 50.9698975,28.1458808 52.911833,28.0404633 L52.9108597,11.9891837 L56.8668118,11.9891837 L56.8675203,27.766522 C58.105452,27.6617769 59.3278546,27.5400215 60.5347273,27.4012627 C59.7250165,18.7297066 58.8357923,10.1492463 57.8674832,1.65810366 C57.6598799,-0.162377978 60.281385,-0.674100713 60.7707326,1.09138392 Z M27.2782679,19.1811444 L21.5283911,39.7528369 L4.0293149,101.997263 C3.32445918,104.492381 2.96696409,107.0748 2.96696409,109.671303 L2.96696409,214.722887 C2.96696409,216.202213 3.0829203,217.679254 3.31376268,219.140378 L11.6755503,272.06659 C11.9750133,273.962051 13.4507378,275.453043 15.3395899,275.768537 L21.3413727,276.770539 L21.4530303,274.527115 C21.4758028,274.084838 21.4989853,273.644848 21.5225764,273.207087 L21.6690173,270.606805 C21.6942381,270.177729 21.7198651,269.750766 21.745897,269.32586 L21.9069368,266.800631 C21.9622296,265.966805 22.0191318,265.140741 22.0776334,264.321979 L22.2579263,261.887134 C22.3196165,261.082513 22.382896,260.284732 22.4477547,259.493329 L22.647058,257.137797 C22.7150649,256.358691 22.7846408,255.585502 22.8557757,254.817769 L23.073847,252.530477 L23.3012113,250.273155 L23.4129845,249.205555 L23.5584844,247.91078 L24.89311,236.93297 L25.3409669,233.18827 L25.7700694,229.435374 L26.0333481,226.911925 L26.1330577,225.807579 L26.1620418,225.43621 L26.1994527,224.8269 L26.2071986,224.593611 L26.2081828,141.475932 C26.2081828,138.770498 25.9652575,136.070552 25.4823456,133.408758 L22.1134608,114.839571 C21.5409858,111.68376 21.3137064,108.475026 21.4357142,105.270336 C22.5491143,76.0081586 24.4630311,47.6471314 27.1775505,20.1872227 L27.2782679,19.1811444 Z M62.7217321,19.1811444 L62.8224495,20.1872227 C65.5369689,47.6471314 67.4508857,76.0081586 68.5642858,105.270336 C68.6862936,108.475026 68.4590142,111.68376 67.8865392,114.839571 L64.5176544,133.408758 C64.0347425,136.070552 63.7918172,138.770498 63.7918172,141.475932 L63.7928014,224.593611 L63.8005473,224.8269 L63.8379582,225.43621 L63.8669423,225.807579 L63.9666519,226.911925 L64.2299306,229.435374 L64.6590331,233.18827 L65.10689,236.93297 L66.4415156,247.91078 L66.5870155,249.205555 L66.6987887,250.273155 L66.926153,252.530477 L67.1442243,254.817769 C67.2153592,255.585502 67.2849351,256.358691 67.352942,257.137797 L67.5522453,259.493329 C67.617104,260.284732 67.6803835,261.082513 67.7420737,261.887134 L67.9223666,264.321979 C67.9808682,265.140741 68.0377704,265.966805 68.0930632,266.800631 L68.254103,269.32586 C68.2801349,269.750766 68.3057619,270.177729 68.3309827,270.606805 L68.4774236,273.207087 C68.5010147,273.644848 68.5241972,274.084838 68.5469697,274.527115 L68.6586273,276.770539 L74.6604101,275.768537 C76.5492622,275.453043 78.0249867,273.962051 78.3244497,272.06659 L86.6862373,219.140378 C86.9170797,217.679254 87.0330359,216.202213 87.0330359,214.722887 L87.0330359,109.671303 C87.0330359,107.0748 86.6755408,104.492381 85.9706851,101.997263 L68.4716089,39.7528369 L62.7217321,19.1811444 Z M60.8085901,30.3620392 L59.6752019,30.4870401 C55.0001727,30.9781296 50.108103,31.2234971 44.9989554,31.2234971 C39.4761161,31.2234971 34.2069319,30.9367857 29.1913555,30.3629152 C26.9755539,54.6710678 25.3786024,79.6779477 24.4005223,105.383669 C24.2867411,108.372279 24.498696,111.364663 25.0325726,114.307697 L28.4014523,132.876856 C28.9162045,135.714154 29.1751469,138.592118 29.1751469,141.475932 L29.1751469,224.495825 C29.1751469,224.538141 29.1745998,224.583991 29.1735206,224.633272 L29.1607818,224.969315 L29.1359983,225.382779 L29.0778236,226.137355 L28.9966224,227.038389 L28.8567601,228.438822 L28.7313367,229.616862 L28.3850472,232.690646 L27.8707675,237.030159 L26.9578289,244.5061 L26.433495,248.883334 L26.2523292,250.580055 L26.0365433,252.719853 L25.8291563,254.886807 L25.6302203,257.083324 L25.4397877,259.31181 L25.2579107,261.574674 L25.0846416,263.874321 L24.9200328,266.213159 L24.7641365,268.593596 C24.7388827,268.993935 24.7139941,269.396109 24.6894718,269.800165 L24.5467423,272.247513 L24.412856,274.742476 C24.4077102,274.842633 24.4025855,274.942909 24.397482,275.043304 L65.602518,275.043304 C65.5974145,274.942909 65.5922898,274.842633 65.587144,274.742476 L65.4532577,272.247513 L65.3105282,269.800165 C65.2860059,269.396109 65.2611173,268.993935 65.2358635,268.593596 L65.0799672,266.213159 L64.9153584,263.874321 L64.7420893,261.574674 L64.5602123,259.31181 L64.3697797,257.083324 L64.1708437,254.886807 L63.9634567,252.719853 L63.7476708,250.580055 L63.566505,248.883334 L63.0421711,244.5061 L62.1292325,237.030159 L61.6149528,232.690646 L61.2686633,229.616862 L61.1432399,228.438822 L61.0033776,227.038389 L60.9221764,226.137355 L60.8640017,225.382779 L60.8392182,224.969315 L60.8264794,224.633272 C60.8254002,224.583991 60.8248531,224.538141 60.8248531,224.495825 L60.8248531,141.475932 C60.8248531,138.592118 61.0837955,135.714154 61.5985477,132.876856 L64.9674274,114.307697 C65.501304,111.364663 65.7132589,108.372279 65.5994777,105.383669 C64.6213842,79.6775955 63.0244023,54.6703826 60.8085901,30.3620392 Z" id="形状结合" fill-opacity="0.5" fill="#999999" fill-rule="nonzero"></path>
            <path d="M52.605,211.575563 C52.263,211.575563 51.9795,211.65209 51.7545,211.805145 C51.516,211.967203 51.399,212.187781 51.399,212.471383 C51.399,212.750482 51.5205,212.966559 51.768,213.115113 C51.867,213.169132 52.11,213.254662 52.506,213.380707 C52.8615,213.488746 53.073,213.560772 53.145,213.596785 C53.3475,213.700322 53.451,213.839871 53.451,214.019936 C53.451,214.163987 53.379,214.276527 53.235,214.357556 C53.091,214.438585 52.8975,214.483601 52.6545,214.483601 C52.3845,214.483601 52.1865,214.434084 52.056,214.335048 C51.912,214.22701 51.822,214.042444 51.786,213.790354 L51.3,213.790354 C51.327,214.195498 51.471,214.492605 51.7365,214.681672 C51.957,214.834727 52.263,214.915756 52.6545,214.915756 C53.0595,214.915756 53.3745,214.834727 53.5995,214.672669 C53.8245,214.506109 53.937,214.281029 53.937,213.992926 C53.937,213.69582 53.7975,213.466238 53.523,213.299678 C53.397,213.223151 53.1135,213.119614 52.6815,212.984566 C52.38,212.894534 52.1955,212.82701 52.1235,212.786495 C51.9615,212.700965 51.885,212.588424 51.885,212.444373 C51.885,212.282315 51.9525,212.165273 52.092,212.093248 C52.2045,212.030225 52.3665,211.998714 52.578,211.998714 C52.821,211.998714 53.001,212.04373 53.127,212.138264 C53.253,212.228296 53.334,212.38135 53.379,212.588424 L53.865,212.588424 C53.8335,212.237299 53.7075,211.980707 53.4825,211.814148 C53.271,211.65209 52.9785,211.575563 52.605,211.575563 Z M54.3915,211.638585 L54.3915,214.852733 L54.882,214.852733 L54.882,213.412219 L56.4795,213.412219 L56.4795,212.993569 L54.882,212.993569 L54.882,212.057235 L56.574,212.057235 L56.574,211.638585 L54.3915,211.638585 Z M57.006,211.638585 L57.006,214.852733 L57.4965,214.852733 L57.4965,213.601286 L58.329,213.601286 C59.0985,213.601286 59.4855,213.272669 59.4855,212.615434 C59.4855,211.962701 59.103,211.638585 58.338,211.638585 L57.006,211.638585 Z M57.4965,212.057235 L58.2975,212.057235 C58.536,212.057235 58.7115,212.102251 58.824,212.192283 C58.9365,212.273312 58.995,212.417363 58.995,212.615434 C58.995,212.813505 58.9365,212.957556 58.8285,213.047588 C58.716,213.137621 58.5405,213.182637 58.2975,213.182637 L57.4965,213.182637 L57.4965,212.057235 Z" id="SFP" fill-opacity="0.85" fill="#999999" fill-rule="nonzero" transform="translate(55.3928, 213.2457) rotate(-270) translate(-55.3928, -213.2457)"></path>
        </g>
    </g>
</svg>