<?xml version="1.0" encoding="UTF-8"?>
<svg width="300px" height="300px" viewBox="0 0 300 300" version="1.1" xmlns="http://www.w3.org/2000/svg" xmlns:xlink="http://www.w3.org/1999/xlink">
    <title>img/M6s/img_add_m6ssfp_01</title>
    <defs>
        <linearGradient x1="50%" y1="0%" x2="50%" y2="31.8163033%" id="linearGradient-1">
            <stop stop-color="#C9C9C9" stop-opacity="0" offset="0%"></stop>
            <stop stop-color="#999999" stop-opacity="0.5" offset="100%"></stop>
        </linearGradient>
    </defs>
    <g id="img/M6s/img_add_m6ssfp_01" stroke="none" stroke-width="1" fill="none" fill-rule="evenodd">
        <g id="编组" transform="translate(114, 13.9982)">
            <path d="M45.5384124,62.6980209 L54.4703664,62.6980209 C56.6334113,62.6980209 58.3869056,64.4547034 58.3869056,66.621681 L58.3869056,75.551466 C58.3869056,77.7184436 56.6334113,79.4751261 54.4703664,79.4751261 L45.5384124,79.4751261 C43.3753675,79.4751261 41.6218732,77.7184436 41.6218732,75.551466 L41.6218732,66.621681 C41.6218732,64.4547034 43.3753675,62.6980209 45.5384124,62.6980209 Z" id="路径" fill-opacity="0.5" fill="#999999" fill-rule="nonzero"></path>
            <path d="M41.1930168,58.0386288 C41.536897,58.0386288 41.8316515,57.9402999 42.0772802,57.7436421 C42.3407729,57.5335759 42.506014,57.2430587 42.5774696,56.8676212 L42.0683483,56.8676212 C42.0058246,57.1089739 41.8986411,57.2922231 41.7467979,57.4128995 C41.6038867,57.5201674 41.4163156,57.5782708 41.1885508,57.5782708 C40.8402046,57.5782708 40.5811779,57.4665334 40.4159368,57.2519977 C40.2640936,57.0508704 40.1881719,56.7603533 40.1881719,56.3849157 C40.1881719,56.0184172 40.2640936,55.7323695 40.4204028,55.5267728 C40.5901099,55.294359 40.8402046,55.1826217 41.1751529,55.1826217 C41.3984517,55.1826217 41.5815568,55.2273166 41.724468,55.3256455 C41.8718453,55.4239744 41.9700968,55.5759372 42.0236885,55.7860034 L42.5328099,55.7860034 C42.4836841,55.4641998 42.3452388,55.2049691 42.113008,55.0172504 C41.8718453,54.8205926 41.5592269,54.7222637 41.1840848,54.7222637 C40.6749634,54.7222637 40.2864234,54.887635 40.0184648,55.2273166 C39.781768,55.5223033 39.6656526,55.9111493 39.6656526,56.3849157 C39.6656526,56.8676212 39.7773021,57.2519977 40.0050669,57.5380454 C40.2640936,57.868788 40.6615655,58.0386288 41.1930168,58.0386288 Z M44.4844418,58.0386288 C44.9712333,58.0386288 45.3553073,57.8821964 45.6366639,57.5693318 C45.9046225,57.2698757 46.0386018,56.8765601 46.0386018,56.3849157 C46.0386018,55.8932713 45.9046225,55.4954863 45.6366639,55.1960302 C45.3553073,54.878696 44.9712333,54.7222637 44.4844418,54.7222637 C43.9931844,54.7222637 43.6091103,54.878696 43.3322198,55.2004996 C43.0642611,55.5044253 42.9347478,55.8977408 42.9347478,56.3849157 C42.9347478,56.8676212 43.0642611,57.2609367 43.3322198,57.5648623 C43.6091103,57.8777269 43.9931844,58.0386288 44.4844418,58.0386288 Z M44.4844418,57.5782708 C44.1539595,57.5782708 43.8949329,57.4665334 43.7162938,57.2475282 C43.5421207,57.0329925 43.4572671,56.7469448 43.4572671,56.3849157 C43.4572671,56.0184172 43.5421207,55.7323695 43.7162938,55.5178338 C43.8993988,55.294359 44.1539595,55.1826217 44.4844418,55.1826217 C44.8149241,55.1826217 45.0694848,55.28542 45.2481239,55.4999558 C45.422297,55.7144915 45.5116165,56.0094782 45.5116165,56.3849157 C45.5116165,56.7603533 45.422297,57.0508704 45.2481239,57.2609367 C45.0694848,57.4710029 44.8149241,57.5782708 44.4844418,57.5782708 Z M47.0523786,57.9760558 L47.0523786,55.6429796 L47.0702425,55.6429796 L48.6645963,57.9760558 L49.1737177,57.9760558 L49.1737177,54.7848366 L48.6467324,54.7848366 L48.6467324,57.0866264 L48.6288685,57.0866264 L47.0523786,54.7848366 L46.5298593,54.7848366 L46.5298593,57.9760558 L47.0523786,57.9760558 Z M50.3214738,57.9760558 L50.3214738,55.6429796 L50.3393377,55.6429796 L51.9336915,57.9760558 L52.4428129,57.9760558 L52.4428129,54.7848366 L51.9158276,54.7848366 L51.9158276,57.0866264 L51.8979637,57.0866264 L50.3214738,54.7848366 L49.7989545,54.7848366 L49.7989545,57.9760558 L50.3214738,57.9760558 Z M55.4439494,57.9760558 L55.4439494,57.5291064 L53.590569,57.5291064 L53.590569,56.5636955 L55.2608444,56.5636955 L55.2608444,56.1167461 L53.590569,56.1167461 L53.590569,55.2317861 L55.3680278,55.2317861 L55.3680278,54.7848366 L53.0680496,54.7848366 L53.0680496,57.9760558 L55.4439494,57.9760558 Z M57.3285917,58.0386288 C57.6724719,58.0386288 57.9672264,57.9402999 58.2128552,57.7436421 C58.4763478,57.5335759 58.641589,57.2430587 58.7130446,56.8676212 L58.2039232,56.8676212 C58.1413995,57.1089739 58.0342161,57.2922231 57.8823729,57.4128995 C57.7394616,57.5201674 57.5518906,57.5782708 57.3241257,57.5782708 C56.9757795,57.5782708 56.7167529,57.4665334 56.5515117,57.2519977 C56.3996685,57.0508704 56.3237469,56.7603533 56.3237469,56.3849157 C56.3237469,56.0184172 56.3996685,55.7323695 56.5559777,55.5267728 C56.7256848,55.294359 56.9757795,55.1826217 57.3107278,55.1826217 C57.5340267,55.1826217 57.7171317,55.2273166 57.860043,55.3256455 C58.0074202,55.4239744 58.1056717,55.5759372 58.1592634,55.7860034 L58.6683848,55.7860034 C58.6192591,55.4641998 58.4808138,55.2049691 58.248583,55.0172504 C58.0074202,54.8205926 57.6948018,54.7222637 57.3196598,54.7222637 C56.8105384,54.7222637 56.4219984,54.887635 56.1540398,55.2273166 C55.917343,55.5223033 55.8012276,55.9111493 55.8012276,56.3849157 C55.8012276,56.8676212 55.912877,57.2519977 56.1406418,57.5380454 C56.3996685,57.868788 56.7971404,58.0386288 57.3285917,58.0386288 Z M60.5262312,57.9760558 L60.5262312,55.2317861 L61.5712699,55.2317861 L61.5712699,54.7848366 L58.9586733,54.7848366 L58.9586733,55.2317861 L60.0037119,55.2317861 L60.0037119,57.9760558 L60.5262312,57.9760558 Z" id="CONNECT" fill="#999999" fill-rule="nonzero"></path>
            <path d="M58.4737724,167.193049 L59.0990092,164.792931 L59.1168731,164.792931 L59.7376439,167.193049 L60.2914251,167.193049 L61.2114163,164.00183 L60.6219074,164.00183 L60.0234664,166.428766 L60.0056025,166.428766 L59.3758998,164.00183 L58.8355166,164.00183 L58.2058138,166.428766 L58.1879499,166.428766 L57.589509,164.00183 L57,164.00183 L57.9155253,167.193049 L58.4737724,167.193049 Z M61.7919933,167.193049 L62.0822818,166.39301 L63.417609,166.39301 L63.7078975,167.193049 L64.2661446,167.193049 L63.0469329,164.00183 L62.4529579,164.00183 L61.2337462,167.193049 L61.7919933,167.193049 Z M63.2612998,165.963938 L62.238591,165.963938 L62.7432464,164.564986 L62.7611103,164.564986 L63.2612998,165.963938 Z M65.1012823,167.193049 L65.1012823,164.859973 L65.1191462,164.859973 L66.7135,167.193049 L67.2226214,167.193049 L67.2226214,164.00183 L66.6956361,164.00183 L66.6956361,166.30362 L66.6777722,166.30362 L65.1012823,164.00183 L64.578763,164.00183 L64.578763,167.193049 L65.1012823,167.193049 Z" id="形状结合" fill="#999999" fill-rule="nonzero" transform="translate(62.1113, 165.5974) rotate(-270) translate(-62.1113, -165.5974)"></path>
            <path d="M60.2419205,125.193049 L60.2419205,124.7461 L58.5180533,124.7461 L58.5180533,122.00183 L58,122.00183 L58,125.193049 L60.2419205,125.193049 Z M60.8894871,125.193049 L61.1797756,124.39301 L62.5151028,124.39301 L62.8053913,125.193049 L63.3636384,125.193049 L62.1444267,122.00183 L61.5504517,122.00183 L60.33124,125.193049 L60.8894871,125.193049 Z M62.3587936,123.963938 L61.3360848,123.963938 L61.8407402,122.564986 L61.8586041,122.564986 L62.3587936,123.963938 Z M64.1987761,125.193049 L64.1987761,122.859973 L64.21664,122.859973 L65.8109938,125.193049 L66.3201152,125.193049 L66.3201152,122.00183 L65.7931299,122.00183 L65.7931299,124.30362 L65.775266,124.30362 L64.1987761,122.00183 L63.6762568,122.00183 L63.6762568,125.193049 L64.1987761,125.193049 Z" id="LAN" fill="#999999" fill-rule="nonzero" transform="translate(62.1601, 123.5974) rotate(-270) translate(-62.1601, -123.5974)"></path>
            <path d="M42.5459626,245.173391 L42.5459626,243.948749 L43.3364405,243.948749 C44.1135205,243.948749 44.5020605,243.618006 44.5020605,242.960991 C44.5020605,242.308444 44.1135205,241.982171 43.3453724,241.982171 L42.0234433,241.982171 L42.0234433,245.173391 L42.5459626,245.173391 Z M43.3051787,243.501799 L42.5459626,243.501799 L42.5459626,242.429121 L43.3051787,242.429121 C43.5329435,242.429121 43.7026506,242.469346 43.8098341,242.554267 C43.9170175,242.634718 43.9750752,242.768802 43.9750752,242.960991 C43.9750752,243.153179 43.9214835,243.291733 43.8143,243.376654 C43.7071166,243.457105 43.5374095,243.501799 43.3051787,243.501799 Z M46.3643729,245.235963 C46.8511644,245.235963 47.2352384,245.079531 47.516595,244.766666 C47.7845536,244.46721 47.9185329,244.073895 47.9185329,243.58225 C47.9185329,243.090606 47.7845536,242.692821 47.516595,242.393365 C47.2352384,242.076031 46.8511644,241.919598 46.3643729,241.919598 C45.8731154,241.919598 45.4890414,242.076031 45.2121508,242.397834 C44.9441922,242.70176 44.8146789,243.095075 44.8146789,243.58225 C44.8146789,244.064956 44.9441922,244.458271 45.2121508,244.762197 C45.4890414,245.075062 45.8731154,245.235963 46.3643729,245.235963 Z M46.3643729,244.775605 C46.0338906,244.775605 45.7748639,244.663868 45.5962249,244.444863 C45.4220518,244.230327 45.3371982,243.944279 45.3371982,243.58225 C45.3371982,243.215752 45.4220518,242.929704 45.5962249,242.715168 C45.7793299,242.491694 46.0338906,242.379956 46.3643729,242.379956 C46.6948552,242.379956 46.9494159,242.482755 47.128055,242.69729 C47.3022281,242.911826 47.3915476,243.206813 47.3915476,243.58225 C47.3915476,243.957688 47.3022281,244.248205 47.128055,244.458271 C46.9494159,244.668338 46.6948552,244.775605 46.3643729,244.775605 Z M49.5932743,245.173391 L50.2185111,242.773272 L50.236375,242.773272 L50.8571458,245.173391 L51.4109269,245.173391 L52.3309182,241.982171 L51.7414092,241.982171 L51.1429683,244.409107 L51.1251044,244.409107 L50.4954016,241.982171 L49.9550184,241.982171 L49.3253157,244.409107 L49.3074518,244.409107 L48.7090108,241.982171 L48.1195019,241.982171 L49.0350272,245.173391 L49.5932743,245.173391 Z M55.0417662,245.173391 L55.0417662,244.726441 L53.1883858,244.726441 L53.1883858,243.76103 L54.8586612,243.76103 L54.8586612,243.314081 L53.1883858,243.314081 L53.1883858,242.429121 L54.9658446,242.429121 L54.9658446,241.982171 L52.6658665,241.982171 L52.6658665,245.173391 L55.0417662,245.173391 Z M56.055543,245.173391 L56.055543,243.872768 L56.8817488,243.872768 C57.0603878,243.872768 57.1988331,243.908524 57.2926186,243.988974 C57.3819382,244.064956 57.4355299,244.190102 57.4533938,244.364412 L57.4935876,244.757727 C57.5114515,244.936507 57.5561113,245.075062 57.6320329,245.173391 L58.199212,245.173391 C58.0920285,245.057184 58.0250389,244.900751 58.007175,244.704094 L57.9535832,244.190102 C57.9178554,243.877237 57.7615462,243.693988 57.4846557,243.631415 L57.4846557,243.622476 C57.6543628,243.577781 57.7928081,243.483922 57.8910596,243.340898 C57.9803791,243.211282 58.0250389,243.063789 58.0250389,242.898418 C58.0250389,242.594492 57.9223214,242.362078 57.7258184,242.201177 C57.5382474,242.053683 57.2792207,241.982171 56.9532044,241.982171 L55.5330237,241.982171 L55.5330237,245.173391 L56.055543,245.173391 Z M56.8817488,243.425818 L56.055543,243.425818 L56.055543,242.429121 L56.8817488,242.429121 C57.0961157,242.429121 57.2524249,242.464877 57.3506764,242.545328 C57.4489278,242.621309 57.4980536,242.746455 57.4980536,242.920765 C57.4980536,243.081667 57.4489278,243.206813 57.3506764,243.296203 C57.2434929,243.381123 57.0871837,243.425818 56.8817488,243.425818 Z" id="POWER" fill="#999999" fill-rule="nonzero"></path>
            <path d="M43.5890134,36.7459562 L43.5890134,35.4453333 L44.4152192,35.4453333 C44.5938583,35.4453333 44.7323036,35.4810892 44.8260891,35.5615401 C44.9154086,35.6375215 44.9690003,35.7626674 44.9868642,35.9369777 L45.027058,36.3302932 C45.0449219,36.509073 45.0895817,36.6476273 45.1655033,36.7459562 L45.7326824,36.7459562 C45.625499,36.6297493 45.5585093,36.473317 45.5406454,36.2766593 L45.4870537,35.7626674 C45.4513259,35.4498027 45.2950167,35.2665535 45.0181261,35.2039805 L45.0181261,35.1950415 C45.1878332,35.1503466 45.3262785,35.0564872 45.42453,34.9134634 C45.5138495,34.783848 45.5585093,34.6363547 45.5585093,34.4709834 C45.5585093,34.1670578 45.4557918,33.9346441 45.2592888,33.7737422 C45.0717178,33.6262489 44.8126911,33.554737 44.4866748,33.554737 L43.0664941,33.554737 L43.0664941,36.7459562 L43.5890134,36.7459562 Z M44.4152192,34.9983838 L43.5890134,34.9983838 L43.5890134,34.0016865 L44.4152192,34.0016865 C44.6295861,34.0016865 44.7858953,34.0374424 44.8841468,34.1178933 C44.9823983,34.1938747 45.031524,34.3190206 45.031524,34.4933309 C45.031524,34.6542327 44.9823983,34.7793785 44.8841468,34.8687684 C44.7769633,34.9536888 44.6206541,34.9983838 44.4152192,34.9983838 Z M48.5551799,36.7459562 L48.5551799,36.2990067 L46.7017994,36.2990067 L46.7017994,35.3335959 L48.3720748,35.3335959 L48.3720748,34.8866464 L46.7017994,34.8866464 L46.7017994,34.0016865 L48.4792583,34.0016865 L48.4792583,33.554737 L46.1792801,33.554737 L46.1792801,36.7459562 L48.5551799,36.7459562 Z M50.2254553,36.8085291 C50.6318592,36.8085291 50.9489436,36.7236087 51.1722424,36.5627069 C51.3955413,36.3973356 51.5071907,36.1693914 51.5071907,35.8833437 C51.5071907,35.5883571 51.3687454,35.3604129 51.0918548,35.1950415 C50.9668075,35.1235296 50.6899169,35.0162618 50.2567171,34.8821769 C49.9619626,34.7883175 49.7788576,34.7212751 49.7118679,34.6855192 C49.5600247,34.6050683 49.4885691,34.4933309 49.4885691,34.359246 C49.4885691,34.2072832 49.5510927,34.0955459 49.6850721,34.0285034 C49.7922555,33.9704 49.9440987,33.943583 50.1450677,33.943583 C50.3772985,33.943583 50.5559376,33.9838085 50.672053,34.0731984 C50.7881684,34.1581188 50.8730219,34.3011426 50.9176817,34.4978004 L51.435735,34.4978004 C51.4044732,34.1491798 51.2749599,33.8899491 51.051661,33.7245778 C50.8417601,33.5681455 50.5470056,33.4921641 50.1718636,33.4921641 C49.8279833,33.4921641 49.5466268,33.5681455 49.3233279,33.7245778 C49.0821652,33.8854796 48.9660498,34.1089543 48.9660498,34.3905325 C48.9660498,34.6721107 49.0866311,34.8866464 49.3322599,35.0341397 C49.4260454,35.0877737 49.6716741,35.1771636 50.0646801,35.3023094 C50.4174923,35.4095773 50.6229272,35.4810892 50.6854509,35.5123757 C50.8819539,35.6107046 50.9846714,35.7447894 50.9846714,35.9146302 C50.9846714,36.048715 50.9132157,36.1515134 50.7792364,36.2319643 C50.6452571,36.3079457 50.4576861,36.3481712 50.2254553,36.3481712 C49.9619626,36.3481712 49.7699256,36.2990067 49.6448783,36.2096168 C49.506433,36.1068185 49.4215794,35.9325082 49.3858516,35.6911555 L48.8677983,35.6911555 C48.8901282,36.0978795 49.0375054,36.3928661 49.305464,36.5805849 C49.5242969,36.7325477 49.8324493,36.8085291 50.2254553,36.8085291 Z M54.3296881,36.7459562 L54.3296881,36.2990067 L52.4763077,36.2990067 L52.4763077,35.3335959 L54.1465831,35.3335959 L54.1465831,34.8866464 L52.4763077,34.8866464 L52.4763077,34.0016865 L54.2537665,34.0016865 L54.2537665,33.554737 L51.9537884,33.554737 L51.9537884,36.7459562 L54.3296881,36.7459562 Z M56.1428748,36.7459562 L56.1428748,34.0016865 L57.1879134,34.0016865 L57.1879134,33.554737 L54.5753169,33.554737 L54.5753169,34.0016865 L55.6203555,34.0016865 L55.6203555,36.7459562 L56.1428748,36.7459562 Z" id="RESET" fill="#999999" fill-rule="nonzero"></path>
            <ellipse id="椭圆形备份-2" fill-opacity="0.7" fill="#999999" fill-rule="nonzero" cx="50.5626365" cy="41.4761714" rx="1.67474138" ry="1.6760605"></ellipse>
            <ellipse id="椭圆形备份-3" fill-opacity="0.7" fill="#999999" fill-rule="nonzero" cx="47.7714009" cy="232.584314" rx="5.58247126" ry="5.58686832"></ellipse>
            <path d="M52.4285714,157.00183 L52.429,161.50083 L54.7142857,161.50183 L54.715,162.62583 L57,162.62683 L57,169.37683 L54.715,169.37583 L54.7142857,170.50183 L52.429,170.50083 L52.4285714,175.00183 L41,175.00183 L41,157.00183 L52.4285714,157.00183 Z M48.4666667,171.26157 L43.1333333,171.26157 L43.1333333,172.430402 L48.4666667,172.430402 L48.4666667,171.26157 Z M48.4666667,168.923908 L43.1333333,168.923908 L43.1333333,170.092739 L48.4666667,170.092739 L48.4666667,168.923908 Z M48.4666667,166.586246 L43.1333333,166.586246 L43.1333333,167.755077 L48.4666667,167.755077 L48.4666667,166.586246 Z M48.4666667,164.248583 L43.1333333,164.248583 L43.1333333,165.417415 L48.4666667,165.417415 L48.4666667,164.248583 Z M48.4666667,161.910921 L43.1333333,161.910921 L43.1333333,163.079752 L48.4666667,163.079752 L48.4666667,161.910921 Z M48.4666667,159.573259 L43.1333333,159.573259 L43.1333333,160.74209 L48.4666667,160.74209 L48.4666667,159.573259 Z" id="形状结合备份-2" fill-opacity="0.5" fill="#FF5B5B"></path>
            <path d="M52.4285714,136.00183 L52.429,140.50083 L54.7142857,140.50183 L54.715,141.62583 L57,141.62683 L57,148.37683 L54.715,148.37583 L54.7142857,149.50183 L52.429,149.50083 L52.4285714,154.00183 L41,154.00183 L41,136.00183 L52.4285714,136.00183 Z M48.4666667,150.26157 L43.1333333,150.26157 L43.1333333,151.430402 L48.4666667,151.430402 L48.4666667,150.26157 Z M48.4666667,147.923908 L43.1333333,147.923908 L43.1333333,149.092739 L48.4666667,149.092739 L48.4666667,147.923908 Z M48.4666667,145.586246 L43.1333333,145.586246 L43.1333333,146.755077 L48.4666667,146.755077 L48.4666667,145.586246 Z M48.4666667,143.248583 L43.1333333,143.248583 L43.1333333,144.417415 L48.4666667,144.417415 L48.4666667,143.248583 Z M48.4666667,140.910921 L43.1333333,140.910921 L43.1333333,142.079752 L48.4666667,142.079752 L48.4666667,140.910921 Z M48.4666667,138.573259 L43.1333333,138.573259 L43.1333333,139.74209 L48.4666667,139.74209 L48.4666667,138.573259 Z" id="形状结合备份" fill-opacity="0.5" fill="#999999"></path>
            <path d="M52.4285714,115.00183 L52.429,119.50083 L54.7142857,119.50183 L54.715,120.62583 L57,120.62683 L57,127.37683 L54.715,127.37583 L54.7142857,128.50183 L52.429,128.50083 L52.4285714,133.00183 L41,133.00183 L41,115.00183 L52.4285714,115.00183 Z M48.4666667,129.26157 L43.1333333,129.26157 L43.1333333,130.430402 L48.4666667,130.430402 L48.4666667,129.26157 Z M48.4666667,126.923908 L43.1333333,126.923908 L43.1333333,128.092739 L48.4666667,128.092739 L48.4666667,126.923908 Z M48.4666667,124.586246 L43.1333333,124.586246 L43.1333333,125.755077 L48.4666667,125.755077 L48.4666667,124.586246 Z M48.4666667,122.248583 L43.1333333,122.248583 L43.1333333,123.417415 L48.4666667,123.417415 L48.4666667,122.248583 Z M48.4666667,119.910921 L43.1333333,119.910921 L43.1333333,121.079752 L48.4666667,121.079752 L48.4666667,119.910921 Z M48.4666667,117.573259 L43.1333333,117.573259 L43.1333333,118.74209 L48.4666667,118.74209 L48.4666667,117.573259 Z" id="形状结合" fill-opacity="0.5" fill="#999999"></path>
            <path d="M52.4285714,94.0018301 L52.429,98.5008301 L54.7142857,98.5018301 L54.715,99.6258301 L57,99.6268301 L57,106.37683 L54.715,106.37583 L54.7142857,107.50183 L52.429,107.50083 L52.4285714,112.00183 L41,112.00183 L41,94.0018301 L52.4285714,94.0018301 Z M48.4666667,108.26157 L43.1333333,108.26157 L43.1333333,109.430402 L48.4666667,109.430402 L48.4666667,108.26157 Z M48.4666667,105.923908 L43.1333333,105.923908 L43.1333333,107.092739 L48.4666667,107.092739 L48.4666667,105.923908 Z M48.4666667,103.586246 L43.1333333,103.586246 L43.1333333,104.755077 L48.4666667,104.755077 L48.4666667,103.586246 Z M48.4666667,101.248583 L43.1333333,101.248583 L43.1333333,102.417415 L48.4666667,102.417415 L48.4666667,101.248583 Z M48.4666667,98.910921 L43.1333333,98.910921 L43.1333333,100.079752 L48.4666667,100.079752 L48.4666667,98.910921 Z M48.4666667,96.5732587 L43.1333333,96.5732587 L43.1333333,97.7420899 L48.4666667,97.7420899 L48.4666667,96.5732587 Z" id="形状结合" fill-opacity="0.5" fill="#999999"></path>
            <path d="M39,185.00183 L53,185.00183 L53,207.00183 L39,207.00183 L39,200.00183 L41,200.00183 L41,193.00183 L39,193.00183 L39,185.00183 Z" id="形状结合" fill-opacity="0.5" fill="#999999"></path>
            <path d="M54.5594948,183.50183 L54.5594948,208.50183 L37.5594948,208.50183 L37.5594948,183.50183 L54.5594948,183.50183 Z" id="Fill-1" stroke-opacity="0.5" stroke="#999899"></path>
            <polygon id="路径" fill-opacity="0.5" fill="#999999" points="63 172.00183 63 175.00183 60 175.00183 60 174.00183 62 174.00183 62 172.00183"></polygon>
            <polygon id="路径备份-3" fill-opacity="0.5" fill="#999999" points="63 202.00183 63 209.00183 60 209.00183 60 208.00183 62 208.00183 62 202.00183"></polygon>
            <polygon id="路径备份" fill-opacity="0.5" fill="#999999" points="62.9424776 130.001391 63 154.00183 60 154.00183 60 153.00183 62 153.00183 62 130.00183"></polygon>
            <polygon id="路径" fill-opacity="0.5" fill="#999999" points="63 157.00183 63 160.00183 62 160.00183 62 158.00183 60 158.00183 60 157.00183"></polygon>
            <polygon id="路径备份-4" fill-opacity="0.5" fill="#999999" points="63 183.00183 63 190.00183 62 190.00183 62 184.00183 60 184.00183 60 183.00183"></polygon>
            <polygon id="路径备份-2" fill-opacity="0.5" fill="#999999" points="63 94.0018301 63 118.00183 62 118.00183 62 95.0018301 60 95.0018301 60 94.0018301"></polygon>
            <path d="M78.629,0.001 L92.7649334,50.3506168 L98.6951817,71.392851 C99.5608653,74.4561884 100,77.6272095 100,80.8152301 L100,197.497609 C100,199.313676 99.8575976,201.126937 99.574107,202.92066 L90.2832319,261.706559 C89.7286707,265.215419 86.9958475,267.975529 83.4979733,268.559568 L74.9968425,269.979 C74.0214521,270.14186 73.1234302,269.413673 73.0791979,268.424022 L73.05,267.79883 L26.949,267.79883 L26.9208021,268.424022 C26.8786761,269.366547 26.0621378,270.071916 25.1418889,269.996272 L25.0031575,269.979 L16.5020267,268.559568 C13.0041525,267.975529 10.2713293,265.215419 9.71676811,261.706559 L0.425893006,202.92066 C0.142402361,201.126937 0,199.313676 0,197.497609 L0,80.8152301 C0,77.6272095 0.439134664,74.4561884 1.30481832,71.392851 L7.23506659,50.3506168 L21.37,0.001 L24.802,0.001 L23.9204345,3.15587395 L4.47701656,72.2916475 C3.69384353,75.0630108 3.29662677,77.9313398 3.29662677,80.8153136 L3.29662677,197.497609 C3.29662677,199.140717 3.425467,200.781287 3.68195854,202.404179 L12.9728336,261.190078 C13.3055704,263.295394 14.9452643,264.95146 17.0439888,265.301884 L23.7126364,266.414822 L23.8367004,263.923019 C23.8620032,263.431776 23.8877614,262.943072 23.9139738,262.456844 L24.0766859,259.568674 C24.104709,259.092093 24.1331834,258.61786 24.1621077,258.14591 L24.3410409,255.341103 C24.4024773,254.41496 24.465702,253.497439 24.5307038,252.588028 L24.7310292,249.883611 C24.7995739,248.989907 24.8698845,248.1038 24.9419497,247.224778 L25.1633978,244.608455 C25.238961,243.74309 25.3162676,242.884298 25.3953063,242.031566 L25.6376077,239.491039 L25.8902347,236.983798 L26.0144272,235.798 L26.1760938,234.359875 L27.6590111,222.166665 L28.1566299,218.007373 L28.6334104,213.838978 L28.9259423,211.036146 L29.0367308,209.809534 L29.0689353,209.397049 L29.1105029,208.720279 L29.1191096,208.461162 L29.1202031,116.141169 C29.1202031,113.136205 28.8502861,110.137337 28.3137174,107.180843 L24.570512,86.5557818 C23.9344287,83.0505778 23.6818961,79.4865911 23.8174602,75.9270958 C24.8050698,49.9801923 26.3595461,24.6711886 28.4809377,6.69513593e-05 L31.7899953,-6.88338275e-14 C29.6605235,24.7071546 28.101117,50.058364 27.1116914,76.0529767 C26.9852679,79.372469 27.2207734,82.6961525 27.8139696,85.9650225 L31.5571693,106.590052 C32.1291161,109.74148 32.4168299,112.938075 32.4168299,116.141169 L32.4163761,208.425981 L32.4150229,208.505215 L32.4008687,208.878462 L32.3733314,209.337703 L32.3086928,210.175821 L32.2184693,211.176612 L32.0630668,212.732093 L31.9237075,214.040559 L31.5389414,217.454654 L30.9675195,222.274614 L29.9531432,230.578249 L29.37055,235.440105 L29.1692546,237.324677 L28.9294926,239.701382 L28.6990625,242.108248 L28.4780225,244.547951 L28.2664307,247.023162 L28.0643452,249.536557 L27.871824,252.090808 L27.6889253,254.688589 L27.5157072,257.332574 C27.4876474,257.777237 27.4599935,258.223936 27.4327465,258.672728 L27.2741581,261.391032 L27.1253955,264.162223 C27.1196676,264.273671 27.1139632,264.385252 27.1082823,264.496966 L72.8917177,264.496966 C72.8860368,264.385252 72.8803324,264.273671 72.8746045,264.162223 L72.7258419,261.391032 L72.5672535,258.672728 C72.5400065,258.223936 72.5123526,257.777237 72.4842928,257.332574 L72.3110747,254.688589 L72.128176,252.090808 L71.9356548,249.536557 L71.7335693,247.023162 L71.5219775,244.547951 L71.3009375,242.108248 L71.0705074,239.701382 L70.8307454,237.324677 L70.62945,235.440105 L70.0468568,230.578249 L69.0324805,222.274614 L68.4610586,217.454654 L68.0762925,214.040559 L67.9369332,212.732093 L67.7815307,211.176612 L67.6913072,210.175821 L67.6266686,209.337703 L67.5991313,208.878462 L67.5849771,208.505215 L67.5836239,208.425981 L67.5831701,116.141169 C67.5831701,112.938075 67.8708839,109.74148 68.4428307,106.590052 L72.1860304,85.9650225 C72.7792266,82.6961525 73.0147321,79.372469 72.8883086,76.0529767 C71.8988967,50.0587226 70.3395196,24.707854 68.210226,0.000378731846 L71.5190623,6.69513594e-05 C73.6404539,24.6711886 75.1949302,49.9801923 76.1825398,75.9270958 C76.3181039,79.4865911 76.0655713,83.0505778 75.429488,86.5557818 L71.6862826,107.180843 C71.1497139,110.137337 70.8797969,113.136205 70.8797969,116.141169 L70.8808904,208.461162 L70.8894971,208.720279 L70.9310647,209.397049 L70.9632692,209.809534 L71.0740577,211.036146 L71.3665896,213.838978 L71.8433701,218.007373 L72.3409889,222.166665 L73.8239062,234.359875 L73.9855728,235.798 L74.1097653,236.983798 L74.3623923,239.491039 L74.6046937,242.031566 C74.6837324,242.884298 74.761039,243.74309 74.8366022,244.608455 L75.0580503,247.224778 C75.1301155,248.1038 75.2004261,248.989907 75.2689708,249.883611 L75.4692962,252.588028 C75.534298,253.497439 75.5975227,254.41496 75.6589591,255.341103 L75.8378923,258.14591 C75.8668166,258.61786 75.895291,259.092093 75.9233141,259.568674 L76.0860262,262.456844 C76.1122386,262.943072 76.1379968,263.431776 76.1632996,263.923019 L76.2873636,266.414822 L82.9560112,265.301884 C85.0547357,264.95146 86.6944296,263.295394 87.0271664,261.190078 L96.3180415,202.404179 C96.574533,200.781287 96.7033732,199.140717 96.7033732,197.497609 L96.7033732,80.8153136 C96.7033732,77.9313398 96.3061565,75.0630108 95.5229834,72.2916475 L76.0795655,3.15587395 L75.197,0.001 L78.629,0.001 Z" id="形状结合" fill="url(#linearGradient-1)" fill-rule="nonzero"></path>
            <path d="M58.45,194.00183 C58.07,194.00183 57.755,194.08683 57.505,194.25683 C57.24,194.43683 57.11,194.68183 57.11,194.99683 C57.11,195.30683 57.245,195.54683 57.52,195.71183 C57.63,195.77183 57.9,195.86683 58.34,196.00683 C58.735,196.12683 58.97,196.20683 59.05,196.24683 C59.275,196.36183 59.39,196.51683 59.39,196.71683 C59.39,196.87683 59.31,197.00183 59.15,197.09183 C58.99,197.18183 58.775,197.23183 58.505,197.23183 C58.205,197.23183 57.985,197.17683 57.84,197.06683 C57.68,196.94683 57.58,196.74183 57.54,196.46183 L57,196.46183 C57.03,196.91183 57.19,197.24183 57.485,197.45183 C57.73,197.62183 58.07,197.71183 58.505,197.71183 C58.955,197.71183 59.305,197.62183 59.555,197.44183 C59.805,197.25683 59.93,197.00683 59.93,196.68683 C59.93,196.35683 59.775,196.10183 59.47,195.91683 C59.33,195.83183 59.015,195.71683 58.535,195.56683 C58.2,195.46683 57.995,195.39183 57.915,195.34683 C57.735,195.25183 57.65,195.12683 57.65,194.96683 C57.65,194.78683 57.725,194.65683 57.88,194.57683 C58.005,194.50683 58.185,194.47183 58.42,194.47183 C58.69,194.47183 58.89,194.52183 59.03,194.62683 C59.17,194.72683 59.26,194.89683 59.31,195.12683 L59.85,195.12683 C59.815,194.73683 59.675,194.45183 59.425,194.26683 C59.19,194.08683 58.865,194.00183 58.45,194.00183 Z M60.435,194.07183 L60.435,197.64183 L60.98,197.64183 L60.98,196.04183 L62.755,196.04183 L62.755,195.57683 L60.98,195.57683 L60.98,194.53683 L62.86,194.53683 L62.86,194.07183 L60.435,194.07183 Z M63.34,194.07183 L63.34,197.64183 L63.885,197.64183 L63.885,196.25183 L64.81,196.25183 C65.665,196.25183 66.095,195.88683 66.095,195.15683 C66.095,194.43183 65.67,194.07183 64.82,194.07183 L63.34,194.07183 Z M63.885,194.53683 L64.775,194.53683 C65.04,194.53683 65.235,194.58683 65.36,194.68683 C65.485,194.77683 65.55,194.93683 65.55,195.15683 C65.55,195.37683 65.485,195.53683 65.365,195.63683 C65.24,195.73683 65.045,195.78683 64.775,195.78683 L63.885,195.78683 L63.885,194.53683 Z" id="SFP" fill-opacity="0.85" fill="#999999" fill-rule="nonzero" transform="translate(61.5475, 195.8568) rotate(-270) translate(-61.5475, -195.8568)"></path>
        </g>
        <g id="编组-3" transform="translate(41, 27)" fill="#999999">
            <g id="编组-2" transform="translate(15, 20.1216)">
                <text id="RESET备份" font-family="PingFangSC-Semibold, PingFang SC" font-size="11.4285714" font-weight="500">
                    <tspan x="1.44571429" y="12">RESET</tspan>
                </text>
                <ellipse id="椭圆形备份-2" fill-opacity="0.5" cx="17.4285714" cy="24.5286995" rx="4.28571429" ry="4.34970302"></ellipse>
            </g>
            <path d="M34,0 C48.5527032,0 60.9699664,9.14290505 65.8210043,21.9979297 L83.5,24 L67.9394756,31.9543706 C67.9796349,32.6311099 68,33.3131767 68,34 C68,52.7776815 52.7776815,68 34,68 C15.2223185,68 0,52.7776815 0,34 C0,15.2223185 15.2223185,0 34,0 Z M34,2 C16.326888,2 2,16.326888 2,34 C2,51.673112 16.326888,66 34,66 C51.673112,66 66,51.673112 66,34 C66,33.5700243 65.9915311,33.1411169 65.9746386,32.7134338 L65.9429878,32.0728469 L65.8655765,30.7683602 L76.679,25.24 L64.3813695,23.8476809 L63.949805,22.704055 C59.2869689,10.3477566 47.4282538,2 34,2 Z" id="形状结合" fill-rule="nonzero" opacity="0.6"></path>
        </g>
        <path d="M146,248.498739 C146,257.612016 153.387984,265 162.498739,265 C171.612016,265 179,257.612016 179,248.498739 C179,239.387984 171.612016,232 162.498739,232 C153.387984,232 146,239.387984 146,248.498739" id="Fill-20备份-2" stroke="#F84343" stroke-width="2" stroke-linejoin="round"></path>
        <path d="M148,51.4987388 C148,60.6120156 155.387984,68 164.498739,68 C173.612016,68 181,60.6120156 181,51.4987388 C181,42.3879844 173.612016,35 164.498739,35 C155.387984,35 148,42.3879844 148,51.4987388" id="Fill-20备份-3" stroke="#F84343" stroke-width="2" stroke-linejoin="round"></path>
        <path d="M84.5,140.596923 L84.5,175.286024 L78.5357464,175.499361 L78.5357133,175.477751 C77.3146605,177.351521 75.0590573,178.596923 72.5,178.596923 C69.9513878,178.596923 67.7037577,177.361667 66.4792901,175.500663 L60.5,175.5 L60.5,140.596923 L84.5,140.596923 Z M72.5,159.596923 C69.713541,159.596923 67.5,161.564522 67.5,163.930276 L67.5,172.26357 C67.5,174.629324 69.713541,176.596923 72.5,176.596923 C75.286459,176.596923 77.5,174.629324 77.5,172.26357 L77.5,163.930276 C77.5,161.564522 75.286459,159.596923 72.5,159.596923 Z M82.499,142.596 L62.499,142.596 L62.499,173.5 L65.6326558,173.500659 C65.545652,173.101111 65.5,172.687538 65.5,172.26357 L65.5,163.930276 C65.5,160.404052 68.658008,157.596923 72.5,157.596923 C76.341992,157.596923 79.5,160.404052 79.5,163.930276 L79.5,172.26357 C79.5,172.676213 79.4567543,173.079009 79.3742275,173.468612 L82.499,173.356 L82.499,142.596 Z M77.67,147.773462 L77.67,151.424231 L76.2819231,151.424231 L76.2819231,147.773462 L77.67,147.773462 Z M69.3426923,147.773462 L69.3426923,151.424231 L67.9546154,151.424231 L67.9546154,147.773462 L69.3426923,147.773462 Z" id="形状结合" fill="#999999" fill-rule="nonzero"></path>
        <path d="M72.5,178.5 L72.5,225.5 C72.5,237.650264 82.3497355,247.5 94.5,247.5 L106,247.5 L106,247.5" id="直线" stroke="#979797" stroke-width="2" stroke-linecap="square"></path>
        <path d="M127.597346,224 C128.544423,224 129.320719,224.728942 129.395981,225.656573 L129.401962,225.804615 L129.400308,235.775 L129.997462,235.775115 C130.918231,235.775115 131.673426,236.485313 131.746644,237.386338 L131.752462,237.530115 L131.752462,252.077808 C131.752462,253.048192 130.966692,253.833962 129.997462,253.833962 L129.780308,253.833 L129.780654,263.003462 C129.780654,263.709615 129.208346,264.281923 128.502192,264.281923 L127.961308,264.281 L127.961846,271.001229 C127.961846,271.18581 127.690692,271.335385 127.354923,271.335385 L123.109923,271.335385 C122.775308,271.335385 122.504154,271.18581 122.504154,271.001229 L122.503308,264.281 L122.405269,264.281923 C121.699115,264.281923 121.126808,263.709615 121.126808,263.003462 L121.126308,253.833 L120.862462,253.833962 C119.892077,253.833962 119.106308,253.048192 119.106308,252.077808 L119.106308,237.530115 C119.106308,236.562038 119.892077,235.775115 120.862462,235.775115 L121.510308,235.775 L121.511962,225.804615 C121.511962,224.857538 122.240904,224.081242 123.169524,224.00598 L123.317731,224 L127.597346,224 Z M128.473308,253.833 L122.404308,253.833 L122.407308,254.803 L124.273115,254.803769 C124.584654,254.803769 124.836192,255.054154 124.836192,255.365692 C124.836192,255.677231 124.584654,255.927615 124.273115,255.927615 L122.411308,255.927 L122.416191,257.36266 C122.432737,257.361205 122.449492,257.360462 122.466423,257.360462 L124.357577,257.360462 C124.667962,257.360462 124.9195,257.612 124.9195,257.923538 C124.9195,258.233923 124.667962,258.485462 124.357577,258.485462 L122.466423,258.485462 L122.419308,258.481 L122.424149,259.919855 C122.438103,259.91883 122.452201,259.918308 122.466423,259.918308 L124.357577,259.918308 C124.667962,259.918308 124.9195,260.168692 124.9195,260.480231 C124.9195,260.791769 124.667962,261.043308 124.357577,261.043308 L122.466423,261.043308 L122.428308,261.04 L122.435269,263.003462 L128.502192,262.973462 L128.495308,261.043 L126.615885,261.043308 C126.304346,261.043308 126.052808,260.791769 126.052808,260.480231 C126.052808,260.168692 126.304346,259.918308 126.615885,259.918308 L128.491308,259.918 L128.487308,258.485 L126.615885,258.485462 C126.304346,258.485462 126.052808,258.233923 126.052808,257.923538 C126.052808,257.612 126.304346,257.360462 126.615885,257.360462 L128.484308,257.36 L128.480308,255.927 L126.760115,255.927615 C126.448577,255.927615 126.197038,255.677231 126.197038,255.365692 C126.197038,255.054154 126.448577,254.803769 126.760115,254.803769 L128.476308,254.803 L128.473308,253.833 Z M129.997462,237.410115 L120.862462,237.410115 C120.795538,237.410115 120.741308,237.464346 120.741308,237.530115 L120.741308,252.077808 C120.741308,252.144731 120.795538,252.197808 120.862462,252.197808 L129.997462,252.197808 C130.064385,252.197808 130.117462,252.144731 130.117462,252.077808 L130.117462,237.530115 C130.117462,237.464346 130.064385,237.410115 129.997462,237.410115 Z M127.597346,225.635 L123.317731,225.635 C123.242038,225.635 123.178162,225.683738 123.155638,225.751086 L123.146962,225.804615 L123.145308,235.775 L127.765308,235.775 L127.766962,225.804615 C127.766962,225.729846 127.718223,225.666154 127.650875,225.643668 L127.597346,225.635 Z" id="形状结合" fill="#999999" fill-rule="nonzero" transform="translate(125.4294, 247.6677) rotate(-270) translate(-125.4294, -247.6677)"></path>
    </g>
</svg>