<svg xmlns="http://www.w3.org/2000/svg" width="60" height="60"><g fill="none" fill-rule="evenodd" stroke="#979797" stroke-linejoin="round" stroke-width="2"><path d="m35.748 7.296 16.971 16.97a117.032 117.032 0 0 1-10.607 10.607c-4.036 3.546-8.514 6.61-13.435 9.192L15.95 31.337c2.582-4.92 5.646-9.399 9.193-13.435A117.032 117.032 0 0 1 35.748 7.296Z"/><path d="M30.799 29.216a6 6 0 1 0 8.485-8.485 6 6 0 0 0-8.485 8.485Z"/><path stroke-linecap="round" d="m33.627 19.316 5.657 9.9"/><path d="m17.364 32.751 9.9 9.9-3.536 2.121-8.486-8.485z"/><path stroke-linecap="round" d="M15.242 30.63H11l-4.95 6.364-3.182-3.182L8.17 23.559l13.435-2.121M29.384 44.772v4.243l-6.364 4.95 3.182 3.182 10.254-5.304 2.12-13.435"/><path d="M54.84 5.174c2.357 6.128 1.65 12.492-2.121 19.092l-16.97-16.97c6.6-3.772 12.963-4.479 19.091-2.122ZM16.657 43.358a4.062 4.062 0 0 1-1.273 6.606l-9.334 4 4-9.334a4.062 4.062 0 0 1 6.607-1.272Z"/><path stroke-linecap="round" d="M53 10c.333 1.667.167 3.833-.5 6.5"/></g></svg>