<svg xmlns="http://www.w3.org/2000/svg" width="60" height="60"><g fill="none" fill-rule="evenodd" stroke="#979797" stroke-linejoin="round" stroke-width="2"><path d="M31.158 5.008C44.938 5.358 56 16.637 56 30.5a25.387 25.387 0 0 1-5.071 15.264 5.922 5.922 0 0 0-1.93-.68L49 45a6 6 0 1 0-11.86 1.29 8 8 0 0 0-10.016 6.31 2.5 2.5 0 0 0-4.093 2.29C12.79 51.755 5.29 42.352 5.007 31.156A18.449 18.449 0 0 0 18.5 37C28.717 37 37 28.717 37 18.5c0-5.277-2.21-10.038-5.754-13.408l-.088-.084Z"/><path stroke-linecap="round" d="m18 21.5 4 .5-4 4h4M11 9.5l6 1-6 4.5 5 .5"/><path d="M43 39a6 6 0 0 1 6 6v.085a6.001 6.001 0 0 1 4.92 4.936c.19-.014.384-.021.58-.021 3.038 0 4.5 2.067 4.5 4 0 2-1.462 3-4.5 3h-29a2.5 2.5 0 1 1 1.623-4.401 8 8 0 0 1 10.016-6.31A6 6 0 0 1 43 39Z"/></g></svg>