<?xml version="1.0" standalone="no"?><!DOCTYPE svg PUBLIC "-//W3C//DTD SVG 1.1//EN" "http://www.w3.org/Graphics/SVG/1.1/DTD/svg11.dtd"><svg t="1669968001453" class="icon" viewBox="0 0 1024 1024" version="1.1" xmlns="http://www.w3.org/2000/svg" p-id="3258" xmlns:xlink="http://www.w3.org/1999/xlink" width="200" height="200"><path d="M542.208 695.68512a42.10688 42.10688 0 0 1 0 59.904 43.008 43.008 0 0 1-60.416 0 42.10688 42.10688 0 0 1 0-59.904 43.008 43.008 0 0 1 60.416 0z m-247.1936-448.75776l2.19136 2.00704L740.94592 692.6336a34.14016 34.14016 0 0 1-46.10048 50.2784l-2.19136-1.98656-443.71968-443.74016a34.14016 34.14016 0 0 1 46.08-50.2784z m170.94656 303.5136l62.93504 62.91456a103.0144 103.0144 0 0 0-89.41568 28.40576 34.4064 34.4064 0 0 1-48.3328 0 33.6896 33.6896 0 0 1 0-47.9232 170.496 170.496 0 0 1 74.81344-43.4176z m263.59808-52.46976a33.6896 33.6896 0 0 1 0 47.9232 34.4064 34.4064 0 0 1-48.3328 0 238.75584 238.75584 0 0 0-113.93024-63.0784l-73.6256-73.64608c84.72576-4.97664 171.15136 24.61696 235.88864 88.80128zM362.496 446.976l50.60608 50.5856a238.83776 238.83776 0 0 0-70.30784 48.3328 34.4064 34.4064 0 0 1-48.35328 0 33.6896 33.6896 0 0 1 0-47.9232 307.65056 307.65056 0 0 1 68.05504-50.9952z m463.74912-44.8512a33.6896 33.6896 0 0 1 0 47.9232 34.4064 34.4064 0 0 1-48.3328 0c-93.51168-92.71296-224.01024-126.38208-344.41216-101.02784l-55.54176-55.52128c153.02656-47.84128 327.00416-11.63264 448.3072 108.60544z m-562.54464-53.98528l49.152 49.19296a376.68864 376.68864 0 0 0-66.7648 52.71552 34.4064 34.4064 0 0 1-48.3328 0 33.6896 33.6896 0 0 1 0-47.9232 445.89056 445.89056 0 0 1 65.9456-53.98528z" fill="#A3A3A3" fill-opacity=".7" p-id="3259"></path></svg>