<svg xmlns="http://www.w3.org/2000/svg" xmlns:xlink="http://www.w3.org/1999/xlink" width="660" height="660"><defs><linearGradient id="q" x1="49.587%" x2="50%" y1="-65.19%" y2="100%"><stop offset="0%" stop-color="#FFEAD1"/><stop offset="100%" stop-color="#FFC185"/></linearGradient><linearGradient id="a" x1="57.168%" x2="50%" y1="118.339%" y2="18.24%"><stop offset="0%" stop-color="#8FDBFF"/><stop offset="100%" stop-color="#5087E9"/></linearGradient><linearGradient id="c" x1="58.117%" x2="50%" y1="61.926%" y2="49.674%"><stop offset="0%" stop-color="#8FDBFF"/><stop offset="100%" stop-color="#1B56BC"/></linearGradient><linearGradient id="d" x1="50%" x2="50%" y1="0%" y2="97.531%"><stop offset="0%" stop-color="#052367"/><stop offset="100%" stop-color="#2861DD"/></linearGradient><linearGradient id="e" x1="50%" x2="50%" y1="0%" y2="100%"><stop offset="0%" stop-color="#437ED8"/><stop offset="98.393%" stop-color="#4F7DEB"/></linearGradient><linearGradient id="f" x1="49.969%" x2="41.684%" y1="72.275%" y2="26.093%"><stop offset="0%" stop-color="#96A2C5"/><stop offset="100%" stop-color="#4E6991"/></linearGradient><linearGradient id="i" x1="50%" x2="50%" y1="0%" y2="100%"><stop offset="0%" stop-color="#FF952C"/><stop offset="97.069%" stop-color="#F9B624"/></linearGradient><linearGradient id="l" x1="50%" x2="50%" y1="0%" y2="100%"><stop offset="0%" stop-color="#FF952C"/><stop offset="97.069%" stop-color="#F9B624"/></linearGradient><linearGradient id="m" x1="50%" x2="94.098%" y1="4.003%" y2="50%"><stop offset="0%" stop-color="#E6B585"/><stop offset="100%" stop-color="#F9C99B"/></linearGradient><linearGradient id="n" x1="50%" x2="82.571%" y1="0%" y2="34.12%"><stop offset="0%" stop-color="#E6B585"/><stop offset="100%" stop-color="#F6C79A"/></linearGradient><linearGradient id="o" x1="47.25%" x2="59.856%" y1="2.766%" y2="23.556%"><stop offset="0%" stop-color="#E6B585"/><stop offset="100%" stop-color="#FFCFA1"/></linearGradient><linearGradient id="p" x1="28.794%" x2="61.383%" y1="34.068%" y2="93.419%"><stop offset="0%" stop-color="#FBDCB5"/><stop offset="100%" stop-color="#F9B06B"/></linearGradient><linearGradient id="b" x1="58.117%" x2="50%" y1="67.125%" y2="42.041%"><stop offset="0%" stop-color="#8FDBFF"/><stop offset="100%" stop-color="#1B56BC"/></linearGradient><linearGradient id="r" x1="49.923%" x2="50%" y1="-65.19%" y2="100%"><stop offset="0%" stop-color="#FFEAD1"/><stop offset="100%" stop-color="#FFC185"/></linearGradient><linearGradient id="s" x1="46.608%" x2="52.058%" y1="39.637%" y2="72.856%"><stop offset="0%" stop-color="#FDD2A9"/><stop offset="100%" stop-color="#F6B06E"/></linearGradient><linearGradient id="t" x1="49.542%" x2="50%" y1="-65.19%" y2="100%"><stop offset="0%" stop-color="#FFEAD1"/><stop offset="100%" stop-color="#FFC185"/></linearGradient><linearGradient id="u" x1="47.496%" x2="50%" y1="-65.19%" y2="100%"><stop offset="0%" stop-color="#FFEAD1"/><stop offset="100%" stop-color="#FFC185"/></linearGradient><linearGradient id="v" x1="91.856%" x2="0%" y1="57.919%" y2="41.801%"><stop offset="0%" stop-color="#4DD8D9"/><stop offset="100%" stop-color="#34BCE2"/></linearGradient><linearGradient id="w" x1="-61.059%" x2="100%" y1="50%" y2="-121.133%"><stop offset="0%" stop-color="#FFAF18"/><stop offset="100%" stop-color="#F57E25"/></linearGradient><linearGradient id="x" x1="93.697%" x2="9.293%" y1="96.125%" y2="18.848%"><stop offset=".034%" stop-color="#F05CE3"/><stop offset="100%" stop-color="#7394FD"/></linearGradient><linearGradient id="y" x1="18.024%" x2="56.073%" y1="42.251%" y2="68.206%"><stop offset="0%" stop-color="#BBDCFF"/><stop offset="100%" stop-color="#52C0F9"/></linearGradient><filter id="g" width="129%" height="129%" x="-14.5%" y="-7.2%" filterUnits="objectBoundingBox"><feOffset dy="5" in="SourceAlpha" result="shadowOffsetOuter1"/><feGaussianBlur in="shadowOffsetOuter1" result="shadowBlurOuter1" stdDeviation="2.5"/><feColorMatrix in="shadowBlurOuter1" values="0 0 0 0 1 0 0 0 0 0.661592137 0 0 0 0 0.25859375 0 0 0 0.3 0"/></filter><filter id="j" width="148%" height="151.1%" x="-24%" y="-12.8%" filterUnits="objectBoundingBox"><feOffset dy="6" in="SourceAlpha" result="shadowOffsetOuter1"/><feGaussianBlur in="shadowOffsetOuter1" result="shadowBlurOuter1" stdDeviation="3"/><feColorMatrix in="shadowBlurOuter1" values="0 0 0 0 1 0 0 0 0 0.661592137 0 0 0 0 0.25859375 0 0 0 0.3 0"/></filter><path id="h" d="m225.956 166.589 4.255 8.322a26.94 26.94 0 0 1 4.327 1.134l7.823-5.065a34.633 34.633 0 0 1 7.854 6.035l-2.79 8.625a27.139 27.139 0 0 1 2.528 4.205l8.76 1.874a34.527 34.527 0 0 1 1.284 9.823l-7.61 3.891a26.968 26.968 0 0 1-1.35 5.454l4.57 7.059a34.633 34.633 0 0 1-6.036 7.855l-7.701-2.49a27.13 27.13 0 0 1-5.325 3.147l-1.678 7.841a34.527 34.527 0 0 1-9.823 1.284l-3.624-7.088a26.955 26.955 0 0 1-6.06-1.653l-6.72 4.35a34.633 34.633 0 0 1-7.855-6.035l2.538-7.844a27.1 27.1 0 0 1-2.843-5.107l-8.193-1.754a34.527 34.527 0 0 1-1.284-9.822l7.812-3.994a26.945 26.945 0 0 1 1.419-4.935l-4.84-7.476a34.633 34.633 0 0 1 6.035-7.854l8.786 2.841a27.107 27.107 0 0 1 3.974-2.247l1.944-9.092a34.527 34.527 0 0 1 9.823-1.284zm-.456 23.751c-6.247 0-11.311 5.064-11.311 11.311 0 6.248 5.064 11.312 11.311 11.312s11.311-5.064 11.311-11.312c0-6.247-5.064-11.311-11.311-11.311z"/><path id="k" d="M281.53 210.586a24.975 24.975 0 0 1 7.56 4.371l-1.47 6.38a19.656 19.656 0 0 1 3.902 6.518l6.098 1.865c.25 1.418.38 2.877.38 4.366 0 1.489-.13 2.947-.38 4.365l-5.795 1.773a19.633 19.633 0 0 1-4.055 7.262l1.32 5.728a24.975 24.975 0 0 1-7.56 4.372l-4.19-3.904c-1.396.314-2.849.48-4.34.48a19.77 19.77 0 0 1-4.34-.48l-4.19 3.904a24.975 24.975 0 0 1-7.56-4.372l1.32-5.728a19.633 19.633 0 0 1-4.055-7.262l-5.795-1.773a25.141 25.141 0 0 1-.38-4.365c0-1.49.13-2.948.38-4.366l6.098-1.865a19.656 19.656 0 0 1 3.902-6.519l-1.47-6.379a24.975 24.975 0 0 1 7.56-4.371l4.91 4.575a19.788 19.788 0 0 1 3.62-.332c1.237 0 2.447.114 3.62.333l4.91-4.576zM273 226.31a8.332 8.332 0 1 0 0 16.662 8.332 8.332 0 1 0 0-16.662z"/></defs><g fill="none" fill-rule="evenodd"><path fill="url(#a)" d="M333 546.682c141.385 0 214.815-126.711 214.815-268.096 0-79.81-118.13-92.852-182.815-133C315.093 114.61 297.5 51 227.922 51 123 51 82 149.201 82 290.586c0 141.385 109.615 256.096 251 256.096z" opacity=".3"/><path fill="url(#b)" d="M290 491.813c207.587 0 348.003-162.84 348.003-238.227 0-29.102-34.88-65.425-76.699-59-75.304 11.57-156.091 97.89-241.304 71-147.135-46.43-277.247 1.105-277.247 90.105 0 79.5 63.083 136.122 247.247 136.122z"/><path fill="url(#c)" d="M290 491.813c207.587 0 348.003-162.84 348.003-238.227 0-29.102-36.894 66.147-90.188 59.324C502.944 307.164 407.058 421.586 360 421.586c-32.184 0-38.073-38.407-62-37-38.81 2.281-105.453 25-129 25-53.132 0-48.5-25-81.5-38.5-29.526-12.079-39.801 27.332-28.636 45.264 28.709 46.11 98.539 75.463 231.136 75.463z"/><g fill="#FFF" opacity=".539" transform="translate(70 224.586)"><circle cx="2.5" cy="103.5" r="2.5"/><circle cx="17.5" cy="110.5" r="2.5"/><circle cx="500.5" cy="3.5" r="2.5"/><circle cx="522.5" cy="25.5" r="2.5" opacity=".418"/><circle cx="522.5" cy="2.5" r="2.5" opacity=".418"/><circle cx="495.5" cy="38.5" r="2.5"/><circle cx="55.5" cy="157.5" r="2.5" opacity=".418"/><circle cx="50.5" cy="84.5" r="2.5"/><circle cx="19.5" cy="187.5" r="2.5"/><circle cx="55" cy="202" r="5" opacity=".418"/><circle cx="10.5" cy="129.5" r="2.5" opacity=".418"/><circle cx="227.5" cy="172.5" r="2.5" opacity=".418"/><circle cx="315.5" cy="233.5" r="2.5"/><circle cx="297.5" cy="182.5" r="2.5" opacity=".418"/></g><path fill="url(#d)" d="M173.356 379.586H277c2.525 35 3.788 72.409 3.788 112.227a623.337 623.337 0 0 1-58.097-3.06c-19.303-1.925-35.747-4.18-49.335-6.77-2.166-35.959 0-84.897 0-102.397z"/><path fill="url(#e)" d="m503.767 501.247 114.188.028 4.42 83.578a10 10 0 0 1-10.328 10.522l-102.282-3.494c-5.52-.19-9.84-4.817-9.652-10.336l.004-.113 3.65-80.185z" transform="rotate(-13 561.304 548.498)"/><rect width="394" height="264" x="136" y="115.586" fill="url(#f)" rx="20"/><circle cx="333" cy="124.586" r="5" fill="#366DAC"/><circle cx="333" cy="124.586" r="3" fill="#5B93C5"/><rect width="358" height="228" x="154" y="133.586" fill="#FFF" rx="5"/><circle cx="497" cy="145.586" r="5" fill="#D8D8D8"/><circle cx="481" cy="145.586" r="5" fill="#D8D8D8"/><rect width="314" height="56" x="169" y="290.586" fill="#EAEAEA" rx="5"/><rect width="113" height="14" x="373" y="173.586" fill="#59C4FB" rx="2"/><rect width="26" height="14" x="339" y="174" fill="#59C4FB" rx="7"/><circle cx="346" cy="181" r="5" fill="#FFF"/><rect width="126" height="14" x="360" y="221" fill="#59C4FB" rx="2"/><rect width="14" height="14" x="339" y="221" fill="#59C4FB" rx="2"/><rect width="97" height="14" x="339" y="197" fill="#59C4FB" rx="2"/><rect width="97" height="14" x="339" y="245" fill="#59C4FB" rx="2"/><use xlink:href="#h" fill="#000" filter="url(#g)"/><use xlink:href="#h" fill="url(#i)"/><use xlink:href="#k" fill="#000" filter="url(#j)"/><use xlink:href="#k" fill="url(#l)"/><path fill="#111" fill-rule="nonzero" d="M405.884 332.733c8.284 0 14.115 6.81 15 15a367.437 367.437 0 0 0 1.945 14.866l.192 1.265c.097.633.195 1.264.295 1.893l.2 1.256.17 1.05c.66 4.045 1.358 7.963 2.052 11.523h-32.494l-.21-1.447a230.34 230.34 0 0 1-.112-.803l-.216-1.596-.102-.794-.196-1.577-.183-1.566c-.03-.26-.058-.52-.086-.779l-.164-1.55-.152-1.54-.139-1.53-.127-1.523-.116-1.514-.104-1.508-.093-1.502-.042-.75-.076-1.493-.034-.746-.06-1.488c-.01-.247-.018-.495-.026-.743l-.045-1.483-.034-1.481-.024-1.48a225.97 225.97 0 0 1-.014-1.48l-.005-1.48c0-8.284 6.716-15 15-15zm14.947-108.544c16.254 12.026 25.118 18.774 26.592 20.242 7.578 6.984 14.203 13.482 19.874 19.494 5.865-2.665 13.066-1.334 17.548 3.848l1.678 1.946 1.655 1.934 1.634 1.921 1.534 1.817c5.636-3.032 13.033-2.36 17.994 2.827a328.846 328.846 0 0 1 13.925 15.488l.553.454c.344.282.687.564 1.028.846l2.032 1.683 2.002 1.671 1.12.942v60.284c0 11.046-8.954 20-20 20h-43.742l9.74-27.57c0-2.202-.222-4.59-.624-7.099-7.29-3.195-10.823-11.555-8.01-19.02l.118-.303 1.22-3.039a150.568 150.568 0 0 0-1.53-3.621l.003-.052c-.552 8.266-7.7 14.519-15.966 13.967-8.266-.552-14.519-7.7-13.967-15.966.674-10.1 3.885-19.913 9.486-29.424-5.923-6.932-11.872-13.33-17.848-19.195l-24.884-19.246c-8.884-7.432-11-19.328-6.273-26.131 4.662-6.708 16.33-3.185 23.108 1.302z" opacity=".2"/><path fill="url(#m)" fill-rule="nonzero" d="M505.637 281.608c5.234-6.421 14.683-7.383 21.104-2.148l2.077 1.7c.344.282.687.564 1.028.846l2.032 1.683 2.002 1.671c.662.556 1.32 1.109 1.971 1.66l1.942 1.649.96.82 1.895 1.631 1.866 1.62.922.806 1.82 1.603 1.79 1.591.884.792 1.745 1.574c.577.523 1.148 1.044 1.715 1.564l1.685 1.552.83.771 1.64 1.536 1.61 1.524 1.578 1.512.779.753 1.533 1.496c.507.496 1.008.991 1.504 1.485l1.474 1.473a280.8 280.8 0 0 1 7.568 7.909l1.278 1.402c.843.931 1.665 1.855 2.467 2.772 5.456 6.234 4.825 15.71-1.409 21.166-6.234 5.456-15.71 4.825-21.166-1.409-1.06-1.21-2.163-2.44-3.31-3.688l-1.163-1.254-1.191-1.267a245.11 245.11 0 0 0-.607-.639l-1.236-1.285c-.208-.216-.418-.432-.629-.648l-1.28-1.305a230.69 230.69 0 0 0-1.309-1.317l-1.338-1.33-1.368-1.341-1.397-1.354-.71-.682-1.44-1.373-1.47-1.385-.747-.697-1.514-1.404-.768-.706-1.558-1.423-.79-.715-1.602-1.44-.812-.725-1.646-1.46-1.675-1.47-1.704-1.483-1.734-1.495-1.762-1.508-1.792-1.52-.907-.764-1.836-1.537-1.864-1.55-1.894-1.561-1.923-1.574c-6.421-5.234-7.383-14.683-2.148-21.104z"/><path fill="url(#n)" fill-rule="nonzero" d="M489.58 269.998c4.062-10.12 17.223-12.66 24.76-4.78 20.915 21.869 36.62 43.843 47.045 65.977 3.53 7.494.315 16.431-7.18 19.961-7.494 3.53-16.431.316-19.96-7.179-6.167-13.092-14.647-26.347-25.465-39.748l-.411-.506-8.047 20.046c-3.045 7.587-11.59 11.32-19.204 8.451l-.304-.118c-7.587-3.045-11.32-11.591-8.45-19.204l.118-.304 17.098-42.596z"/><path fill="url(#o)" fill-rule="nonzero" d="M467.876 253.996c6.157-6.176 16.265-5.818 21.97.777l1.677 1.946 1.655 1.934 1.634 1.921 1.612 1.91 1.59 1.896 1.568 1.885 1.546 1.873 1.525 1.86 1.503 1.849 1.481 1.836 1.46 1.825 1.437 1.812c.238.3.475.601.71.901l1.405 1.795 1.383 1.782 1.362 1.77 1.34 1.759.661.874 1.307 1.74.645.866 1.274 1.723.63.857 1.241 1.704 1.22 1.693 1.198 1.681 1.176 1.67 1.155 1.657.57.824 1.121 1.64 1.1 1.627c.182.27.363.54.542.81l1.068 1.61.526.8 1.035 1.594 1.013 1.58c.334.526.664 1.049.991 1.57l.97 1.557.948 1.546c.313.514.621 1.025.927 1.535l.904 1.522.883 1.512c.436.752.864 1.5 1.284 2.245l.828 1.482c.545.984 1.076 1.96 1.592 2.93l.764 1.448c.25.48.498.959.741 1.436l.72 1.425c.237.473.47.944.699 1.413l.676 1.402.33.696c12.06 25.606 6.762 59.592-13.99 102.163-3.63 7.446-12.61 10.54-20.056 6.91-7.446-3.63-10.54-12.61-6.91-20.056 17.165-35.212 21.136-60.691 13.816-76.234-.203-.431-.41-.865-.621-1.3l-.646-1.317a154.148 154.148 0 0 0-1.721-3.357l-.732-1.37a184.509 184.509 0 0 0-2.341-4.203l-.83-1.431-.854-1.447-.879-1.462-.448-.737-.915-1.485c-.464-.747-.937-1.499-1.42-2.256l-.976-1.523-1-1.539-1.026-1.553-1.05-1.569-1.075-1.584-1.099-1.598-1.123-1.614-1.148-1.63-1.173-1.643-1.197-1.66-1.221-1.673-1.246-1.69-1.27-1.703a434.81 434.81 0 0 0-.645-.858l-1.307-1.726-1.331-1.741-1.356-1.756-1.38-1.771-1.406-1.786-1.429-1.8-1.454-1.816-.736-.913-1.49-1.838-1.178-1.44-.108.17c-3.79 5.99-5.839 11.743-6.293 17.274l-.034.448c-.552 8.266-7.7 14.519-15.966 13.967-8.266-.552-14.519-7.7-13.967-15.966 1.17-17.517 9.97-34.171 25.634-49.887z"/><path fill="url(#p)" fill-rule="nonzero" d="M425.83 211.189c16.255 12.026 25.12 18.774 26.593 20.242 13.713 12.637 24.303 23.684 31.77 33.141 3.36 4.256 7.177 9.583 10.987 15.047l.762 1.095.76 1.096 1.137 1.645c4.28 6.199 8.412 12.294 11.724 16.93l-.437-.35c6.719 5.4 13.115 8.58 22.314 9.55 3.62.383 9.505 3.42 13.579 4.803 5.575 1.893 7.892 1.324 12.23 2.699 2.475.784 7.014 4.7 9.028 5.532 5.166 2.134 8.26 2.47 11.847 7.235 3.936 5.23 6.125 13.395 7.611 22.698 4.16 26.038-2.034 62.58 0 101.213.344 6.522 1.568 15.702 3.673 27.54l-80.282 22.013-18.94-22.47a15.05 15.05 0 0 1-2.923-1.614l-5.448-3.838-4.43-3.1-3.52-2.451-4.67-3.228-2.532-1.738-3.61-2.461-3.388-2.286-2.65-1.772-2.496-1.65-1.422-.93-1.808-1.173-1.708-1.095-.41-.262c-.385-.244-.768-.49-1.151-.738l-1.148-.754a142.126 142.126 0 0 1-5.682-3.974l-1.12-.833c-.373-.28-.744-.561-1.114-.845l-1.105-.855a128.64 128.64 0 0 1-1.643-1.304l-1.084-.881-.538-.444-1.07-.896c-.354-.3-.706-.601-1.057-.904l-1.047-.913c-.347-.305-.692-.612-1.034-.92l-1.022-.928-1.008-.934c-10.348-9.692-18.444-20.408-21.069-29.803l-.584-2.108-.285-1.043-.557-2.063-.54-2.035-.522-2.006-.505-1.978-.488-1.952-.237-.966-.463-1.913-.446-1.889-.43-1.864-.413-1.84-.397-1.818-.382-1.796-.366-1.775-.177-.88-.343-1.744c-.056-.289-.112-.577-.166-.865l-.321-1.715-.306-1.697-.292-1.68-.14-.833-.27-1.655-.256-1.64-.123-.813-.236-1.617a230.34 230.34 0 0 1-.112-.803l-.216-1.596-.102-.794-.196-1.577-.183-1.566c-.03-.26-.058-.52-.086-.779l-.164-1.55-.152-1.54-.139-1.53-.127-1.523-.116-1.514-.104-1.508-.093-1.502-.042-.75-.076-1.493-.034-.746-.06-1.488c-.01-.247-.018-.495-.026-.743l-.045-1.483-.034-1.481-.024-1.48a225.97 225.97 0 0 1-.014-1.48l-.005-1.48c0-8.284 6.716-15 15-15 8.284 0 14.115 6.81 15 15a367.437 367.437 0 0 0 1.945 14.866l.192 1.265c.097.633.195 1.264.295 1.893l.2 1.256c2.171 13.508 4.803 25.847 6.32 28.46 7.728 6.36 13.7 9.64 17.918 9.84 5.868.28 10.506-3.963 13.912-12.727l14.332-40.57c0-16.676-12.716-44.01-20.142-53.43-8.932-11.33-17.924-21.437-26.976-30.322l-24.884-19.246c-8.884-7.432-11-19.328-6.273-26.131 4.662-6.708 16.33-3.185 23.108 1.302z"/><path stroke="#010101" stroke-linecap="round" stroke-width="30" d="m178 115.586-.5 21.5m32.5-38.5-.5 50.5m34.5-50.5-3.683 38.5m36.683-19.5-3.559 15.902" opacity=".2"/><path stroke="url(#q)" stroke-linecap="round" stroke-width="30" d="m178 107.586-.5 21.5"/><path stroke="url(#r)" stroke-linecap="round" stroke-width="30" d="m210 90.586-.5 50.5"/><path fill="url(#s)" fill-rule="nonzero" d="M131.088 165.823c4.975-6.624 13.04-9.236 19.664-4.26 6.624 4.975 6.37 12.669 3.913 23.023-1.938 8.165-15.23 29.79-18.921 33.822 1.188 5.245 4.505 57.734 0 56.282-2.824-.91-13.417-9.614-16.407-15.002-4.308-7.763-15.992-32.682-13.024-47.097 2.969-14.416 19.8-40.144 24.775-46.768z"/><path fill="#111" fill-rule="nonzero" d="M161.172 187.586c1.46-10.324-3.46-23.695-10.42-26.023 6.624 4.975 6.37 12.669 3.913 23.023-1.938 8.165-15.23 29.79-18.921 33.822 1.188 5.245 4.505 57.734 0 56.282 6.183-6.475 4.643-38.383 4.643-51.451 9.959-11.623 19.37-25.653 20.785-35.653z" opacity=".2"/><path stroke="url(#t)" stroke-linecap="round" stroke-width="30" d="m244 90.586-3.683 38.5"/><path stroke="url(#u)" stroke-linecap="round" stroke-width="30" d="m277 109.586-3.559 15.902"/><path fill="url(#v)" d="m497.58 480.615 105.737.111a10 10 0 0 1 9.972 9.41l1.9 32.116c.326 5.513-3.879 10.247-9.392 10.573a10 10 0 0 1-.59.017H496.994c-5.523 0-10-4.477-10-10 0-.06 0-.119.002-.178l.574-32.227a10 10 0 0 1 10.009-9.822z" transform="rotate(-13 551.315 506.724)"/><g stroke="url(#w)" stroke-linecap="round" stroke-width="10" transform="rotate(90 260.707 320.293)"><path d="M60 40c-11.046 0-20 8.954-20 20m20-40c-22.091 0-40 17.909-40 40"/><path d="M60 0C26.863 0 0 26.863 0 60"/></g><g transform="translate(37 187.586)"><path fill="url(#x)" d="M29 0c16.016 0 29 12.984 29 29 0 7.504-2.85 14.341-7.526 19.49l8.173 3.788A3 3 0 0 1 57.387 58H29C12.984 58 0 45.016 0 29S12.984 0 29 0z"/><circle cx="18" cy="29" r="3" fill="#FFF"/><circle cx="29" cy="29" r="3" fill="#FFF"/><circle cx="40" cy="29" r="3" fill="#FFF"/></g><g transform="translate(588 486.586)"><circle cx="9" cy="9" r="9" fill="#FDFDFD"/><circle cx="9" cy="9" r="7" fill="#F0F0F0"/><circle cx="9" cy="7" r="1" fill="#4CD7D9"/><circle cx="9" cy="11" r="1" fill="#4CD7D9"/><circle cx="7" cy="9" r="1" fill="#4CD7D9"/><circle cx="11" cy="9" r="1" fill="#4CD7D9"/></g><path fill="url(#y)" d="M230.76 523.863c-6.602-36.175-105.713 14.015-179.36-88.277 45.673 135.227 184.468 116.274 179.36 88.277z"/></g></svg>