<?xml version="1.0" encoding="UTF-8"?>
<svg width="300px" height="300px" viewBox="0 0 300 300" version="1.1" xmlns="http://www.w3.org/2000/svg" xmlns:xlink="http://www.w3.org/1999/xlink">
    <title>img/常见问题/img_m6aplus_networking</title>
    <defs>
        <filter x="-112.5%" y="-51.4%" width="325.0%" height="202.9%" filterUnits="objectBoundingBox" id="filter-1">
            <feGaussianBlur stdDeviation="6" in="SourceGraphic"></feGaussianBlur>
        </filter>
    </defs>
    <g id="img/常见问题/img_m6aplus_networking" stroke="none" stroke-width="1" fill="none" fill-rule="evenodd">
        <g id="编组-2备份-3" transform="translate(27.468750, 20.596434)">
            <path d="M44.1044871,0 L46.8471627,0.113611542 L47.2747711,2.73692238 C54.1885246,45.3893955 57.6469294,93.4900876 57.6469294,117.059816 C57.6469294,122.275119 57.4285827,125.986641 56.9260331,130.326862 L56.7375566,131.877188 L55.9083014,138.332367 L55.7143562,140.004518 L55.5743459,141.302742 L55.4847681,142.181408 C54.6627489,150.435395 54.2338143,160.220017 54.1931011,175.197719 L54.1898982,177.597975 L54.1973501,180.611722 L54.2138772,182.919775 C54.3598915,198.545662 55.1688221,208.553229 56.5330699,215.734752 L56.667494,216.418341 L56.8448712,217.248393 C57.4019254,219.780885 58.3704841,223.656209 58.4341985,223.954872 C58.8567974,225.935816 59.0531794,227.698479 59.0531794,229.901157 L59.0531794,252.882268 C59.0531794,256.62211 56.0642284,258.826179 50.6853611,259.547344 L49.0922419,258.153566 L9.9609375,258.153566 L8.36781836,259.547344 C3.09872387,258.840897 0.122993386,256.711454 0.00372954103,253.109319 L0,252.882268 L0,229.901157 C0,227.910802 0.139783496,226.283525 0.439009345,224.524522 L0.551136881,223.904151 L1.52653792,219.233787 C1.7153293,218.305139 1.89508709,217.395238 2.02807747,216.666642 L2.12899788,216.094697 L2.29007711,215.105167 L2.45221945,214.030361 L2.61024273,212.894689 C3.5374813,205.947834 4.08735414,196.575718 4.19797707,182.916869 L4.21227929,180.613475 L4.21875,177.597975 L4.21611286,175.183406 L4.20410341,172.04633 C4.12820671,158.276095 3.75718759,149.103556 3.0873793,141.229827 L2.97496252,139.950866 L2.78007765,137.909078 L2.28438652,133.171278 L1.98610925,130.2413 L1.8767885,129.0257 L1.7742926,127.762924 C1.53483146,124.626771 1.42019133,121.606065 1.40745045,117.790262 L1.40742443,116.335083 C1.48109269,93.5117043 5.0204672,46.9043261 12.0223519,6.49285253 L12.6819472,2.7180696 L13.1467993,0.0944177231 L15.8955129,0 L19.49625,14.4028125 L21.5625,14.4028125 L21.5625,0.341065723 L25.3125,0.341065723 L25.3125,14.4028125 L28.125,14.4028125 L28.125,0.341065723 L31.875,0.341065723 L31.875,14.4028125 L34.6875,14.4028125 L34.6875,0.341065723 L38.4375,0.341065723 L38.4375,14.4028125 L40.5028125,14.4028125 L44.1044871,0 Z M8.6646207,63.1908098 L8.83166452,60.3140897 L8.7144974,61.1844945 C5.76961484,83.2442011 4.27178258,101.610391 4.22013346,116.27761 L4.22004217,117.812853 C4.23554059,122.253598 4.39117663,125.582494 4.72579716,129.318967 L4.78671372,129.982885 L4.91249401,131.270646 L5.65849229,138.44048 L5.78115246,139.754076 C6.51285654,147.840745 6.92139617,157.126143 7.01191282,171.253945 L7.02666458,174.430421 L7.03125,177.597975 L7.02450575,180.679369 L7.01007857,182.973656 C6.88725827,198.011461 6.2328916,207.941025 5.12108484,215.202286 L5.06684718,215.5521 L4.90225212,216.562903 L4.74422016,217.445812 L4.56818994,218.365468 C4.37934161,219.331728 4.15756567,220.414002 3.95260266,221.398131 L3.3144122,224.427914 L3.21251021,224.991277 C2.9660313,226.438819 2.83920616,227.775547 2.81630592,229.362434 L2.8125,229.901157 L2.8125,252.882268 C2.8125,254.528717 4.003812,255.705438 6.71534729,256.383401 L6.99158041,256.449533 L7.1484375,256.483878 L7.14853809,227.654859 C7.10002915,223.59947 7.72790532,220.130669 9.13462171,215.385393 L9.31452513,214.785451 L10.5538946,210.7367 L10.8131301,209.861529 C11.474431,207.595565 11.6592494,206.645726 11.7050785,205.525938 L11.7179199,204.95216 L11.71875,137.216066 L11.7144657,136.68158 C11.6684826,133.826367 11.2478291,130.855378 10.2347265,125.762092 L9.93399077,124.271992 L8.88445319,119.199148 L8.41866911,116.854547 L8.23360168,115.883012 C7.43766048,111.635814 7.13486367,109.030231 7.14314228,106.36602 L7.14866322,105.844522 L7.18027426,104.137953 L7.25206913,100.619539 L7.33202766,97.1433299 C7.61216288,85.6263042 8.02836899,74.8126606 8.58074329,64.702118 L8.6646207,63.1908098 Z M50.2781794,57.8013782 L50.4708098,61.5654336 L50.6111039,64.4721452 C51.1835164,76.6655092 51.6041053,89.8847072 51.8729795,104.130144 L51.9045162,105.844522 C51.9766033,109.867432 51.4742778,113.222106 49.9139609,120.505193 L49.2658447,123.499368 C47.9439237,129.632719 47.3686113,133.285658 47.3359129,136.888596 L47.3370927,205.141853 L47.3469472,205.516436 L47.3587399,205.750265 C47.4303106,206.911991 47.7025114,208.012148 48.6937006,211.288978 L49.7387177,214.712291 C51.2661669,219.785429 51.9552064,223.42758 51.9046413,227.654859 L51.9047419,256.483878 L52.061599,256.449533 C54.9686229,255.783364 56.2406794,254.583599 56.2406794,252.882268 L56.2406794,229.901157 C56.2406794,228.083309 56.0964224,226.623245 55.7827893,225.025586 L55.652194,224.407905 L54.7186948,220.549528 L54.2911284,218.714206 C54.1288893,218.001721 53.9831434,217.337426 53.875305,216.801297 L53.707451,215.926482 L53.5814367,215.229969 C52.1512626,207.124984 51.3773982,195.706861 51.3773982,177.597975 L51.3805712,175.206917 L51.3953236,172.052816 L51.4151075,169.706055 C51.5504461,156.403589 52.0504418,147.485802 52.9209007,139.677405 L53.1568621,137.662022 L53.9836742,131.238642 L54.1315894,130.008661 C54.5731642,126.196466 54.7890029,122.895884 54.8279364,118.556048 L54.8344294,117.059816 L54.8293784,115.494218 L54.8142252,113.900547 C54.6357537,99.699125 53.2748854,82.2120085 50.7310055,61.443384 L50.2781794,57.8013782 Z M45.7221354,17.2146085 L13.8945336,17.2146085 L13.6821363,19.3138431 C11.8653242,37.625195 10.6715941,74.1811871 10.1019079,98.9790395 L10.0378096,101.909252 L9.96071178,105.894912 L9.95567821,106.352726 C9.94615939,109.327541 10.3705574,112.330699 11.5394317,118.137789 L11.8225288,119.528925 L12.5006394,122.790586 L12.8909274,124.70134 L13.0950702,125.727279 C14.077251,130.720828 14.486019,133.716282 14.5276677,136.699746 L14.53125,137.216066 L14.5299733,205.056059 L14.5250795,205.397079 C14.4907766,207.003387 14.2883024,208.064082 13.319256,211.308078 L13.0070055,212.342738 L12.1823248,215.025667 C10.6599021,219.952277 9.96486355,223.332746 9.95861019,227.190661 L9.9609375,227.638039 L9.9609375,255.340313 L49.0921875,255.340313 L49.0922419,227.638039 C49.1388294,223.73519 48.4956929,220.337375 47.0414849,215.509378 L45.726219,211.18849 L45.4479304,210.244168 L45.1920135,209.342056 C44.6067161,207.21939 44.5292132,206.412924 44.5224733,204.973393 L44.5219294,137.216066 C44.5219294,133.364202 45.0801223,129.637501 46.3948664,123.473908 L47.2503365,119.511069 L47.7358089,117.183981 L47.9329207,116.200088 C48.8433433,111.582062 49.1464042,108.904906 49.0924676,105.894912 L49.0155938,101.859727 L48.9282605,97.7771894 L48.8245462,93.4425917 C48.2327834,70.0271212 47.1984646,34.6171178 45.7221354,17.2146085 Z M14.9549807,7.83462998 C14.6909348,9.97230467 14.4368535,12.1618966 14.1927389,14.4034002 L16.5965625,14.4028125 L14.9549807,7.83462998 Z M44.9087151,8.37726939 L43.4025,14.4028125 L45.4774256,14.4029142 C45.3400347,12.8639272 45.1990537,11.3493714 45.0544827,9.85924826 L44.9087151,8.37726939 Z" id="形状" fill-opacity="0.7" fill="#999999" fill-rule="nonzero"></path>
            <path d="M33.28125,84.6535657 L25.78125,84.6535657 C23.4340398,84.6535657 21.53125,86.5563555 21.53125,88.9035657 L21.53125,96.4035657 C21.53125,98.7507759 23.4340398,100.653566 25.78125,100.653566 L33.28125,100.653566 C35.6284602,100.653566 37.53125,98.7507759 37.53125,96.4035657 L37.53125,88.9035657 C37.53125,86.5563555 35.6284602,84.6535657 33.28125,84.6535657 Z M25.78125,85.6535657 L33.28125,85.6535657 C35.0761754,85.6535657 36.53125,87.1086403 36.53125,88.9035657 L36.53125,96.4035657 C36.53125,98.1984912 35.0761754,99.6535657 33.28125,99.6535657 L25.78125,99.6535657 C23.9863246,99.6535657 22.53125,98.1984912 22.53125,96.4035657 L22.53125,88.9035657 C22.53125,87.1086403 23.9863246,85.6535657 25.78125,85.6535657 Z" id="矩形备份-9" fill-opacity="0.7" fill="#999999" fill-rule="nonzero"></path>
            <path d="M22.1325,81.7060657 C22.42125,81.7060657 22.66875,81.6235657 22.875,81.4585657 C23.09625,81.2823157 23.235,81.0385657 23.295,80.7235657 L22.8675,80.7235657 C22.815,80.9260657 22.725,81.0798157 22.5975,81.1810657 C22.4775,81.2710657 22.32,81.3198157 22.12875,81.3198157 C21.83625,81.3198157 21.61875,81.2260657 21.48,81.0460657 C21.3525,80.8773157 21.28875,80.6335657 21.28875,80.3185657 C21.28875,80.0110657 21.3525,79.7710657 21.48375,79.5985657 C21.62625,79.4035657 21.83625,79.3098157 22.1175,79.3098157 C22.305,79.3098157 22.45875,79.3473157 22.57875,79.4298157 C22.7025,79.5123157 22.785,79.6398157 22.83,79.8160657 L23.2575,79.8160657 C23.21625,79.5460657 23.1,79.3285657 22.905,79.1710657 C22.7025,79.0060657 22.44,78.9235657 22.125,78.9235657 C21.6975,78.9235657 21.37125,79.0623157 21.14625,79.3473157 C20.9475,79.5948157 20.85,79.9210657 20.85,80.3185657 C20.85,80.7235657 20.94375,81.0460657 21.135,81.2860657 C21.3525,81.5635657 21.68625,81.7060657 22.1325,81.7060657 Z M24.89625,81.7060657 C25.305,81.7060657 25.6275,81.5748157 25.86375,81.3123157 C26.08875,81.0610657 26.20125,80.7310657 26.20125,80.3185657 C26.20125,79.9060657 26.08875,79.5723157 25.86375,79.3210657 C25.6275,79.0548157 25.305,78.9235657 24.89625,78.9235657 C24.48375,78.9235657 24.16125,79.0548157 23.92875,79.3248157 C23.70375,79.5798157 23.595,79.9098157 23.595,80.3185657 C23.595,80.7235657 23.70375,81.0535657 23.92875,81.3085657 C24.16125,81.5710657 24.48375,81.7060657 24.89625,81.7060657 Z M24.89625,81.3198157 C24.61875,81.3198157 24.40125,81.2260657 24.25125,81.0423157 C24.105,80.8623157 24.03375,80.6223157 24.03375,80.3185657 C24.03375,80.0110657 24.105,79.7710657 24.25125,79.5910657 C24.405,79.4035657 24.61875,79.3098157 24.89625,79.3098157 C25.17375,79.3098157 25.3875,79.3960657 25.5375,79.5760657 C25.68375,79.7560657 25.75875,80.0035657 25.75875,80.3185657 C25.75875,80.6335657 25.68375,80.8773157 25.5375,81.0535657 C25.3875,81.2298157 25.17375,81.3198157 24.89625,81.3198157 Z M27.0525,81.6535657 L27.0525,79.6960657 L27.0675,79.6960657 L28.40625,81.6535657 L28.83375,81.6535657 L28.83375,78.9760657 L28.39125,78.9760657 L28.39125,80.9073157 L28.37625,80.9073157 L27.0525,78.9760657 L26.61375,78.9760657 L26.61375,81.6535657 L27.0525,81.6535657 Z M29.7975,81.6535657 L29.7975,79.6960657 L29.8125,79.6960657 L31.15125,81.6535657 L31.57875,81.6535657 L31.57875,78.9760657 L31.13625,78.9760657 L31.13625,80.9073157 L31.12125,80.9073157 L29.7975,78.9760657 L29.35875,78.9760657 L29.35875,81.6535657 L29.7975,81.6535657 Z M34.09875,81.6535657 L34.09875,81.2785657 L32.5425,81.2785657 L32.5425,80.4685657 L33.945,80.4685657 L33.945,80.0935657 L32.5425,80.0935657 L32.5425,79.3510657 L34.035,79.3510657 L34.035,78.9760657 L32.10375,78.9760657 L32.10375,81.6535657 L34.09875,81.6535657 Z M35.68125,81.7060657 C35.97,81.7060657 36.2175,81.6235657 36.42375,81.4585657 C36.645,81.2823157 36.78375,81.0385657 36.84375,80.7235657 L36.41625,80.7235657 C36.36375,80.9260657 36.27375,81.0798157 36.14625,81.1810657 C36.02625,81.2710657 35.86875,81.3198157 35.6775,81.3198157 C35.385,81.3198157 35.1675,81.2260657 35.02875,81.0460657 C34.90125,80.8773157 34.8375,80.6335657 34.8375,80.3185657 C34.8375,80.0110657 34.90125,79.7710657 35.0325,79.5985657 C35.175,79.4035657 35.385,79.3098157 35.66625,79.3098157 C35.85375,79.3098157 36.0075,79.3473157 36.1275,79.4298157 C36.25125,79.5123157 36.33375,79.6398157 36.37875,79.8160657 L36.80625,79.8160657 C36.765,79.5460657 36.64875,79.3285657 36.45375,79.1710657 C36.25125,79.0060657 35.98875,78.9235657 35.67375,78.9235657 C35.24625,78.9235657 34.92,79.0623157 34.695,79.3473157 C34.49625,79.5948157 34.39875,79.9210657 34.39875,80.3185657 C34.39875,80.7235657 34.4925,81.0460657 34.68375,81.2860657 C34.90125,81.5635657 35.235,81.7060657 35.68125,81.7060657 Z M38.36625,81.6535657 L38.36625,79.3510657 L39.24375,79.3510657 L39.24375,78.9760657 L37.05,78.9760657 L37.05,79.3510657 L37.9275,79.3510657 L37.9275,81.6535657 L38.36625,81.6535657 Z" id="CONNECT" fill="#999999" fill-rule="nonzero"></path>
            <path d="M26.82375,213.403566 L27.34875,211.389816 L27.36375,211.389816 L27.885,213.403566 L28.35,213.403566 L29.1225,210.726066 L28.6275,210.726066 L28.125,212.762316 L28.11,212.762316 L27.58125,210.726066 L27.1275,210.726066 L26.59875,212.762316 L26.58375,212.762316 L26.08125,210.726066 L25.58625,210.726066 L26.355,213.403566 L26.82375,213.403566 Z M29.61,213.403566 L29.85375,212.732316 L30.975,212.732316 L31.21875,213.403566 L31.6875,213.403566 L30.66375,210.726066 L30.165,210.726066 L29.14125,213.403566 L29.61,213.403566 Z M30.84375,212.372316 L29.985,212.372316 L30.40875,211.198566 L30.42375,211.198566 L30.84375,212.372316 Z M32.38875,213.403566 L32.38875,211.446066 L32.40375,211.446066 L33.7425,213.403566 L34.17,213.403566 L34.17,210.726066 L33.7275,210.726066 L33.7275,212.657316 L33.7125,212.657316 L32.38875,210.726066 L31.95,210.726066 L31.95,213.403566 L32.38875,213.403566 Z" id="WAN" fill="#999999" fill-rule="nonzero"></path>
            <path d="M28.389375,108.653566 L28.389375,108.278566 L26.941875,108.278566 L26.941875,105.976066 L26.506875,105.976066 L26.506875,108.653566 L28.389375,108.653566 Z M28.933125,108.653566 L29.176875,107.982316 L30.298125,107.982316 L30.541875,108.653566 L31.010625,108.653566 L29.986875,105.976066 L29.488125,105.976066 L28.464375,108.653566 L28.933125,108.653566 Z M30.166875,107.622316 L29.308125,107.622316 L29.731875,106.448566 L29.746875,106.448566 L30.166875,107.622316 Z M31.711875,108.653566 L31.711875,106.696066 L31.726875,106.696066 L33.065625,108.653566 L33.493125,108.653566 L33.493125,105.976066 L33.050625,105.976066 L33.050625,107.907316 L33.035625,107.907316 L31.711875,105.976066 L31.273125,105.976066 L31.273125,108.653566 L31.711875,108.653566 Z" id="LAN" fill="#999999" fill-rule="nonzero"></path>
            <path d="M24.19125,238.716066 L24.19125,237.688566 L24.855,237.688566 C25.5075,237.688566 25.83375,237.411066 25.83375,236.859816 C25.83375,236.312316 25.5075,236.038566 24.8625,236.038566 L23.7525,236.038566 L23.7525,238.716066 L24.19125,238.716066 Z M24.82875,237.313566 L24.19125,237.313566 L24.19125,236.413566 L24.82875,236.413566 C25.02,236.413566 25.1625,236.447316 25.2525,236.518566 C25.3425,236.586066 25.39125,236.698566 25.39125,236.859816 C25.39125,237.021066 25.34625,237.137316 25.25625,237.208566 C25.16625,237.276066 25.02375,237.313566 24.82875,237.313566 Z M27.3975,238.768566 C27.80625,238.768566 28.12875,238.637316 28.365,238.374816 C28.59,238.123566 28.7025,237.793566 28.7025,237.381066 C28.7025,236.968566 28.59,236.634816 28.365,236.383566 C28.12875,236.117316 27.80625,235.986066 27.3975,235.986066 C26.985,235.986066 26.6625,236.117316 26.43,236.387316 C26.205,236.642316 26.09625,236.972316 26.09625,237.381066 C26.09625,237.786066 26.205,238.116066 26.43,238.371066 C26.6625,238.633566 26.985,238.768566 27.3975,238.768566 Z M27.3975,238.382316 C27.12,238.382316 26.9025,238.288566 26.7525,238.104816 C26.60625,237.924816 26.535,237.684816 26.535,237.381066 C26.535,237.073566 26.60625,236.833566 26.7525,236.653566 C26.90625,236.466066 27.12,236.372316 27.3975,236.372316 C27.675,236.372316 27.88875,236.458566 28.03875,236.638566 C28.185,236.818566 28.26,237.066066 28.26,237.381066 C28.26,237.696066 28.185,237.939816 28.03875,238.116066 C27.88875,238.292316 27.675,238.382316 27.3975,238.382316 Z M30.10875,238.716066 L30.63375,236.702316 L30.64875,236.702316 L31.17,238.716066 L31.635,238.716066 L32.4075,236.038566 L31.9125,236.038566 L31.41,238.074816 L31.395,238.074816 L30.86625,236.038566 L30.4125,236.038566 L29.88375,238.074816 L29.86875,238.074816 L29.36625,236.038566 L28.87125,236.038566 L29.64,238.716066 L30.10875,238.716066 Z M34.68375,238.716066 L34.68375,238.341066 L33.1275,238.341066 L33.1275,237.531066 L34.53,237.531066 L34.53,237.156066 L33.1275,237.156066 L33.1275,236.413566 L34.62,236.413566 L34.62,236.038566 L32.68875,236.038566 L32.68875,238.716066 L34.68375,238.716066 Z M35.535,238.716066 L35.535,237.624816 L36.22875,237.624816 C36.37875,237.624816 36.495,237.654816 36.57375,237.722316 C36.64875,237.786066 36.69375,237.891066 36.70875,238.037316 L36.7425,238.367316 C36.7575,238.517316 36.795,238.633566 36.85875,238.716066 L37.335,238.716066 C37.245,238.618566 37.18875,238.487316 37.17375,238.322316 L37.12875,237.891066 C37.09875,237.628566 36.9675,237.474816 36.735,237.422316 L36.735,237.414816 C36.8775,237.377316 36.99375,237.298566 37.07625,237.178566 C37.15125,237.069816 37.18875,236.946066 37.18875,236.807316 C37.18875,236.552316 37.1025,236.357316 36.9375,236.222316 C36.78,236.098566 36.5625,236.038566 36.28875,236.038566 L35.09625,236.038566 L35.09625,238.716066 L35.535,238.716066 Z M36.22875,237.249816 L35.535,237.249816 L35.535,236.413566 L36.22875,236.413566 C36.40875,236.413566 36.54,236.443566 36.6225,236.511066 C36.705,236.574816 36.74625,236.679816 36.74625,236.826066 C36.74625,236.961066 36.705,237.066066 36.6225,237.141066 C36.5325,237.212316 36.40125,237.249816 36.22875,237.249816 Z" id="POWER" fill="#999999" fill-rule="nonzero"></path>
            <path d="M24.144375,63.8410657 L24.144375,62.7498157 L24.838125,62.7498157 C24.988125,62.7498157 25.104375,62.7798157 25.183125,62.8473157 C25.258125,62.9110657 25.303125,63.0160657 25.318125,63.1623157 L25.351875,63.4923157 C25.366875,63.6423157 25.404375,63.7585657 25.468125,63.8410657 L25.944375,63.8410657 C25.854375,63.7435657 25.798125,63.6123157 25.783125,63.4473157 L25.738125,63.0160657 C25.708125,62.7535657 25.576875,62.5998157 25.344375,62.5473157 L25.344375,62.5398157 C25.486875,62.5023157 25.603125,62.4235657 25.685625,62.3035657 C25.760625,62.1948157 25.798125,62.0710657 25.798125,61.9323157 C25.798125,61.6773157 25.711875,61.4823157 25.546875,61.3473157 C25.389375,61.2235657 25.171875,61.1635657 24.898125,61.1635657 L23.705625,61.1635657 L23.705625,63.8410657 L24.144375,63.8410657 Z M24.838125,62.3748157 L24.144375,62.3748157 L24.144375,61.5385657 L24.838125,61.5385657 C25.018125,61.5385657 25.149375,61.5685657 25.231875,61.6360657 C25.314375,61.6998157 25.355625,61.8048157 25.355625,61.9510657 C25.355625,62.0860657 25.314375,62.1910657 25.231875,62.2660657 C25.141875,62.3373157 25.010625,62.3748157 24.838125,62.3748157 Z M28.314375,63.8410657 L28.314375,63.4660657 L26.758125,63.4660657 L26.758125,62.6560657 L28.160625,62.6560657 L28.160625,62.2810657 L26.758125,62.2810657 L26.758125,61.5385657 L28.250625,61.5385657 L28.250625,61.1635657 L26.319375,61.1635657 L26.319375,63.8410657 L28.314375,63.8410657 Z M29.716875,63.8935657 C30.058125,63.8935657 30.324375,63.8223157 30.511875,63.6873157 C30.699375,63.5485657 30.793125,63.3573157 30.793125,63.1173157 C30.793125,62.8698157 30.676875,62.6785657 30.444375,62.5398157 C30.339375,62.4798157 30.106875,62.3898157 29.743125,62.2773157 C29.495625,62.1985657 29.341875,62.1423157 29.285625,62.1123157 C29.158125,62.0448157 29.098125,61.9510657 29.098125,61.8385657 C29.098125,61.7110657 29.150625,61.6173157 29.263125,61.5610657 C29.353125,61.5123157 29.480625,61.4898157 29.649375,61.4898157 C29.844375,61.4898157 29.994375,61.5235657 30.091875,61.5985657 C30.189375,61.6698157 30.260625,61.7898157 30.298125,61.9548157 L30.733125,61.9548157 C30.706875,61.6623157 30.598125,61.4448157 30.410625,61.3060657 C30.234375,61.1748157 29.986875,61.1110657 29.671875,61.1110657 C29.383125,61.1110657 29.146875,61.1748157 28.959375,61.3060657 C28.756875,61.4410657 28.659375,61.6285657 28.659375,61.8648157 C28.659375,62.1010657 28.760625,62.2810657 28.966875,62.4048157 C29.045625,62.4498157 29.251875,62.5248157 29.581875,62.6298157 C29.878125,62.7198157 30.050625,62.7798157 30.103125,62.8060657 C30.268125,62.8885657 30.354375,63.0010657 30.354375,63.1435657 C30.354375,63.2560657 30.294375,63.3423157 30.181875,63.4098157 C30.069375,63.4735657 29.911875,63.5073157 29.716875,63.5073157 C29.495625,63.5073157 29.334375,63.4660657 29.229375,63.3910657 C29.113125,63.3048157 29.041875,63.1585657 29.011875,62.9560657 L28.576875,62.9560657 C28.595625,63.2973157 28.719375,63.5448157 28.944375,63.7023157 C29.128125,63.8298157 29.386875,63.8935657 29.716875,63.8935657 Z M33.163125,63.8410657 L33.163125,63.4660657 L31.606875,63.4660657 L31.606875,62.6560657 L33.009375,62.6560657 L33.009375,62.2810657 L31.606875,62.2810657 L31.606875,61.5385657 L33.099375,61.5385657 L33.099375,61.1635657 L31.168125,61.1635657 L31.168125,63.8410657 L33.163125,63.8410657 Z M34.685625,63.8410657 L34.685625,61.5385657 L35.563125,61.5385657 L35.563125,61.1635657 L33.369375,61.1635657 L33.369375,61.5385657 L34.246875,61.5385657 L34.246875,63.8410657 L34.685625,63.8410657 Z" id="RESET" fill="#999999" fill-rule="nonzero"></path>
            <circle id="椭圆形备份-2" fill-opacity="0.5" fill="#999999" cx="30" cy="67.8098157" r="1.40625"></circle>
            <circle id="椭圆形备份-3" fill-opacity="0.5" fill="#999999" cx="27.65625" cy="228.153566" r="4.6875"></circle>
            <path d="M30,172 L30,173.699 L32.5714286,173.7 L32.572,177.099 L34.2857143,177.1 L34.286,177.95 L36,177.95 L36,183.05 L34.286,183.05 L34.2857143,183.9 L32.572,183.899 L32.5714286,187.3 L30,187.299 L30,189 L25.7142857,189 L25.715,187.299 L24,187.3 L24,173.7 L25.715,173.699 L25.7142857,172 L30,172 Z M29.6,184.474026 L25.6,184.474026 L25.6,185.357143 L29.6,185.357143 L29.6,184.474026 Z M29.6,182.707792 L25.6,182.707792 L25.6,183.590909 L29.6,183.590909 L29.6,182.707792 Z M29.6,180.941558 L25.6,180.941558 L25.6,181.824675 L29.6,181.824675 L29.6,180.941558 Z M29.6,179.175325 L25.6,179.175325 L25.6,180.058442 L29.6,180.058442 L29.6,179.175325 Z M29.6,177.409091 L25.6,177.409091 L25.6,178.292208 L29.6,178.292208 L29.6,177.409091 Z M29.6,175.642857 L25.6,175.642857 L25.6,176.525974 L29.6,176.525974 L29.6,175.642857 Z" id="形状结合备份-2" fill-opacity="0.5" fill="#999999"></path>
            <path d="M30,152 L30,153.699 L32.5714286,153.7 L32.572,157.099 L34.2857143,157.1 L34.286,157.95 L36,157.95 L36,163.05 L34.286,163.05 L34.2857143,163.9 L32.572,163.899 L32.5714286,167.3 L30,167.299 L30,169 L25.7142857,169 L25.715,167.299 L24,167.3 L24,153.7 L25.715,153.699 L25.7142857,152 L30,152 Z M29.6,164.474026 L25.6,164.474026 L25.6,165.357143 L29.6,165.357143 L29.6,164.474026 Z M29.6,162.707792 L25.6,162.707792 L25.6,163.590909 L29.6,163.590909 L29.6,162.707792 Z M29.6,160.941558 L25.6,160.941558 L25.6,161.824675 L29.6,161.824675 L29.6,160.941558 Z M29.6,159.175325 L25.6,159.175325 L25.6,160.058442 L29.6,160.058442 L29.6,159.175325 Z M29.6,157.409091 L25.6,157.409091 L25.6,158.292208 L29.6,158.292208 L29.6,157.409091 Z M29.6,155.642857 L25.6,155.642857 L25.6,156.525974 L29.6,156.525974 L29.6,155.642857 Z" id="形状结合备份" fill-opacity="0.5" fill="#999999"></path>
            <path d="M30,132 L30,133.699 L32.5714286,133.7 L32.572,137.099 L34.2857143,137.1 L34.286,137.95 L36,137.95 L36,143.05 L34.286,143.05 L34.2857143,143.9 L32.572,143.899 L32.5714286,147.3 L30,147.299 L30,149 L25.7142857,149 L25.715,147.299 L24,147.3 L24,133.7 L25.715,133.699 L25.7142857,132 L30,132 Z M29.6,144.474026 L25.6,144.474026 L25.6,145.357143 L29.6,145.357143 L29.6,144.474026 Z M29.6,142.707792 L25.6,142.707792 L25.6,143.590909 L29.6,143.590909 L29.6,142.707792 Z M29.6,140.941558 L25.6,140.941558 L25.6,141.824675 L29.6,141.824675 L29.6,140.941558 Z M29.6,139.175325 L25.6,139.175325 L25.6,140.058442 L29.6,140.058442 L29.6,139.175325 Z M29.6,137.409091 L25.6,137.409091 L25.6,138.292208 L29.6,138.292208 L29.6,137.409091 Z M29.6,135.642857 L25.6,135.642857 L25.6,136.525974 L29.6,136.525974 L29.6,135.642857 Z" id="形状结合" fill-opacity="0.5" fill="#999999"></path>
            <path d="M30,112 L30,113.699 L32.5714286,113.7 L32.572,117.099 L34.2857143,117.1 L34.286,117.95 L36,117.95 L36,123.05 L34.286,123.05 L34.2857143,123.9 L32.572,123.899 L32.5714286,127.3 L30,127.299 L30,129 L25.7142857,129 L25.715,127.299 L24,127.3 L24,113.7 L25.715,113.699 L25.7142857,112 L30,112 Z M29.6,124.474026 L25.6,124.474026 L25.6,125.357143 L29.6,125.357143 L29.6,124.474026 Z M29.6,122.707792 L25.6,122.707792 L25.6,123.590909 L29.6,123.590909 L29.6,122.707792 Z M29.6,120.941558 L25.6,120.941558 L25.6,121.824675 L29.6,121.824675 L29.6,120.941558 Z M29.6,119.175325 L25.6,119.175325 L25.6,120.058442 L29.6,120.058442 L29.6,119.175325 Z M29.6,117.409091 L25.6,117.409091 L25.6,118.292208 L29.6,118.292208 L29.6,117.409091 Z M29.6,115.642857 L25.6,115.642857 L25.6,116.525974 L29.6,116.525974 L29.6,115.642857 Z" id="形状结合" fill-opacity="0.5" fill="#999999"></path>
            <path d="M30,191 L30,192.699 L32.5714286,192.7 L32.572,196.099 L34.2857143,196.1 L34.286,196.95 L36,196.95 L36,202.05 L34.286,202.05 L34.2857143,202.9 L32.572,202.899 L32.5714286,206.3 L30,206.299 L30,208 L25.7142857,208 L25.715,206.299 L24,206.3 L24,192.7 L25.715,192.699 L25.7142857,191 L30,191 Z M29.6,203.474026 L25.6,203.474026 L25.6,204.357143 L29.6,204.357143 L29.6,203.474026 Z M29.6,201.707792 L25.6,201.707792 L25.6,202.590909 L29.6,202.590909 L29.6,201.707792 Z M29.6,199.941558 L25.6,199.941558 L25.6,200.824675 L29.6,200.824675 L29.6,199.941558 Z M29.6,198.175325 L25.6,198.175325 L25.6,199.058442 L29.6,199.058442 L29.6,198.175325 Z M29.6,196.409091 L25.6,196.409091 L25.6,197.292208 L29.6,197.292208 L29.6,196.409091 Z M29.6,194.642857 L25.6,194.642857 L25.6,195.525974 L29.6,195.525974 L29.6,194.642857 Z" id="形状结合" fill-opacity="0.5" fill="#FF5B5B"></path>
            <polygon id="直线-15" fill="#999999" fill-rule="nonzero" points="21.5625 190.497316 21.5625 191.434816 19.687 191.434 19.687 211.278 23.90625 211.278566 23.90625 212.216066 18.75 212.216066 18.75 190.497316"></polygon>
            <polygon id="直线-15备份" fill="#999999" fill-rule="nonzero" points="40.3125 190.497316 40.3125 212.216066 35.625 212.216066 35.625 211.278566 39.375 211.278 39.375 191.434 37.5 191.434816 37.5 190.497316"></polygon>
            <polygon id="直线-15" fill="#999999" fill-rule="nonzero" transform="translate(21.328125, 147.809816) scale(1, -1) translate(-21.328125, -147.809816) " points="21.5625 106.997316 21.5625 107.934816 19.687 107.934 19.687 187.684 23.90625 187.684816 23.90625 188.622316 18.75 188.622316 18.75 106.997316"></polygon>
            <polygon id="直线-15备份" fill="#999999" fill-rule="nonzero" transform="translate(37.968750, 147.809816) scale(1, -1) translate(-37.968750, -147.809816) " points="40.3125 106.997316 40.3125 188.622316 35.625 188.622316 35.625 187.684816 39.375 187.684 39.375 107.934 37.5 107.934816 37.5 106.997316"></polygon>
        </g>
        <g id="编组-2备份-3" transform="translate(213.468750, 20.596434)">
            <path d="M44.1044871,0 L46.8471627,0.113611542 L47.2747711,2.73692238 C54.1885246,45.3893955 57.6469294,93.4900876 57.6469294,117.059816 C57.6469294,122.275119 57.4285827,125.986641 56.9260331,130.326862 L56.7375566,131.877188 L55.9083014,138.332367 L55.7143562,140.004518 L55.5743459,141.302742 L55.4847681,142.181408 C54.6627489,150.435395 54.2338143,160.220017 54.1931011,175.197719 L54.1898982,177.597975 L54.1973501,180.611722 L54.2138772,182.919775 C54.3598915,198.545662 55.1688221,208.553229 56.5330699,215.734752 L56.667494,216.418341 L56.8448712,217.248393 C57.4019254,219.780885 58.3704841,223.656209 58.4341985,223.954872 C58.8567974,225.935816 59.0531794,227.698479 59.0531794,229.901157 L59.0531794,252.882268 C59.0531794,256.62211 56.0642284,258.826179 50.6853611,259.547344 L49.0922419,258.153566 L9.9609375,258.153566 L8.36781836,259.547344 C3.09872387,258.840897 0.122993386,256.711454 0.00372954103,253.109319 L0,252.882268 L0,229.901157 C0,227.910802 0.139783496,226.283525 0.439009345,224.524522 L0.551136881,223.904151 L1.52653792,219.233787 C1.7153293,218.305139 1.89508709,217.395238 2.02807747,216.666642 L2.12899788,216.094697 L2.29007711,215.105167 L2.45221945,214.030361 L2.61024273,212.894689 C3.5374813,205.947834 4.08735414,196.575718 4.19797707,182.916869 L4.21227929,180.613475 L4.21875,177.597975 L4.21611286,175.183406 L4.20410341,172.04633 C4.12820671,158.276095 3.75718759,149.103556 3.0873793,141.229827 L2.97496252,139.950866 L2.78007765,137.909078 L2.28438652,133.171278 L1.98610925,130.2413 L1.8767885,129.0257 L1.7742926,127.762924 C1.53483146,124.626771 1.42019133,121.606065 1.40745045,117.790262 L1.40742443,116.335083 C1.48109269,93.5117043 5.0204672,46.9043261 12.0223519,6.49285253 L12.6819472,2.7180696 L13.1467993,0.0944177231 L15.8955129,0 L19.49625,14.4028125 L21.5625,14.4028125 L21.5625,0.341065723 L25.3125,0.341065723 L25.3125,14.4028125 L28.125,14.4028125 L28.125,0.341065723 L31.875,0.341065723 L31.875,14.4028125 L34.6875,14.4028125 L34.6875,0.341065723 L38.4375,0.341065723 L38.4375,14.4028125 L40.5028125,14.4028125 L44.1044871,0 Z M8.6646207,63.1908098 L8.83166452,60.3140897 L8.7144974,61.1844945 C5.76961484,83.2442011 4.27178258,101.610391 4.22013346,116.27761 L4.22004217,117.812853 C4.23554059,122.253598 4.39117663,125.582494 4.72579716,129.318967 L4.78671372,129.982885 L4.91249401,131.270646 L5.65849229,138.44048 L5.78115246,139.754076 C6.51285654,147.840745 6.92139617,157.126143 7.01191282,171.253945 L7.02666458,174.430421 L7.03125,177.597975 L7.02450575,180.679369 L7.01007857,182.973656 C6.88725827,198.011461 6.2328916,207.941025 5.12108484,215.202286 L5.06684718,215.5521 L4.90225212,216.562903 L4.74422016,217.445812 L4.56818994,218.365468 C4.37934161,219.331728 4.15756567,220.414002 3.95260266,221.398131 L3.3144122,224.427914 L3.21251021,224.991277 C2.9660313,226.438819 2.83920616,227.775547 2.81630592,229.362434 L2.8125,229.901157 L2.8125,252.882268 C2.8125,254.528717 4.003812,255.705438 6.71534729,256.383401 L6.99158041,256.449533 L7.1484375,256.483878 L7.14853809,227.654859 C7.10002915,223.59947 7.72790532,220.130669 9.13462171,215.385393 L9.31452513,214.785451 L10.5538946,210.7367 L10.8131301,209.861529 C11.474431,207.595565 11.6592494,206.645726 11.7050785,205.525938 L11.7179199,204.95216 L11.71875,137.216066 L11.7144657,136.68158 C11.6684826,133.826367 11.2478291,130.855378 10.2347265,125.762092 L9.93399077,124.271992 L8.88445319,119.199148 L8.41866911,116.854547 L8.23360168,115.883012 C7.43766048,111.635814 7.13486367,109.030231 7.14314228,106.36602 L7.14866322,105.844522 L7.18027426,104.137953 L7.25206913,100.619539 L7.33202766,97.1433299 C7.61216288,85.6263042 8.02836899,74.8126606 8.58074329,64.702118 L8.6646207,63.1908098 Z M50.2781794,57.8013782 L50.4708098,61.5654336 L50.6111039,64.4721452 C51.1835164,76.6655092 51.6041053,89.8847072 51.8729795,104.130144 L51.9045162,105.844522 C51.9766033,109.867432 51.4742778,113.222106 49.9139609,120.505193 L49.2658447,123.499368 C47.9439237,129.632719 47.3686113,133.285658 47.3359129,136.888596 L47.3370927,205.141853 L47.3469472,205.516436 L47.3587399,205.750265 C47.4303106,206.911991 47.7025114,208.012148 48.6937006,211.288978 L49.7387177,214.712291 C51.2661669,219.785429 51.9552064,223.42758 51.9046413,227.654859 L51.9047419,256.483878 L52.061599,256.449533 C54.9686229,255.783364 56.2406794,254.583599 56.2406794,252.882268 L56.2406794,229.901157 C56.2406794,228.083309 56.0964224,226.623245 55.7827893,225.025586 L55.652194,224.407905 L54.7186948,220.549528 L54.2911284,218.714206 C54.1288893,218.001721 53.9831434,217.337426 53.875305,216.801297 L53.707451,215.926482 L53.5814367,215.229969 C52.1512626,207.124984 51.3773982,195.706861 51.3773982,177.597975 L51.3805712,175.206917 L51.3953236,172.052816 L51.4151075,169.706055 C51.5504461,156.403589 52.0504418,147.485802 52.9209007,139.677405 L53.1568621,137.662022 L53.9836742,131.238642 L54.1315894,130.008661 C54.5731642,126.196466 54.7890029,122.895884 54.8279364,118.556048 L54.8344294,117.059816 L54.8293784,115.494218 L54.8142252,113.900547 C54.6357537,99.699125 53.2748854,82.2120085 50.7310055,61.443384 L50.2781794,57.8013782 Z M45.7221354,17.2146085 L13.8945336,17.2146085 L13.6821363,19.3138431 C11.8653242,37.625195 10.6715941,74.1811871 10.1019079,98.9790395 L10.0378096,101.909252 L9.96071178,105.894912 L9.95567821,106.352726 C9.94615939,109.327541 10.3705574,112.330699 11.5394317,118.137789 L11.8225288,119.528925 L12.5006394,122.790586 L12.8909274,124.70134 L13.0950702,125.727279 C14.077251,130.720828 14.486019,133.716282 14.5276677,136.699746 L14.53125,137.216066 L14.5299733,205.056059 L14.5250795,205.397079 C14.4907766,207.003387 14.2883024,208.064082 13.319256,211.308078 L13.0070055,212.342738 L12.1823248,215.025667 C10.6599021,219.952277 9.96486355,223.332746 9.95861019,227.190661 L9.9609375,227.638039 L9.9609375,255.340313 L49.0921875,255.340313 L49.0922419,227.638039 C49.1388294,223.73519 48.4956929,220.337375 47.0414849,215.509378 L45.726219,211.18849 L45.4479304,210.244168 L45.1920135,209.342056 C44.6067161,207.21939 44.5292132,206.412924 44.5224733,204.973393 L44.5219294,137.216066 C44.5219294,133.364202 45.0801223,129.637501 46.3948664,123.473908 L47.2503365,119.511069 L47.7358089,117.183981 L47.9329207,116.200088 C48.8433433,111.582062 49.1464042,108.904906 49.0924676,105.894912 L49.0155938,101.859727 L48.9282605,97.7771894 L48.8245462,93.4425917 C48.2327834,70.0271212 47.1984646,34.6171178 45.7221354,17.2146085 Z M14.9549807,7.83462998 C14.6909348,9.97230467 14.4368535,12.1618966 14.1927389,14.4034002 L16.5965625,14.4028125 L14.9549807,7.83462998 Z M44.9087151,8.37726939 L43.4025,14.4028125 L45.4774256,14.4029142 C45.3400347,12.8639272 45.1990537,11.3493714 45.0544827,9.85924826 L44.9087151,8.37726939 Z" id="形状" fill-opacity="0.7" fill="#999999" fill-rule="nonzero"></path>
            <path d="M33.28125,84.6535657 L25.78125,84.6535657 C23.4340398,84.6535657 21.53125,86.5563555 21.53125,88.9035657 L21.53125,96.4035657 C21.53125,98.7507759 23.4340398,100.653566 25.78125,100.653566 L33.28125,100.653566 C35.6284602,100.653566 37.53125,98.7507759 37.53125,96.4035657 L37.53125,88.9035657 C37.53125,86.5563555 35.6284602,84.6535657 33.28125,84.6535657 Z M25.78125,85.6535657 L33.28125,85.6535657 C35.0761754,85.6535657 36.53125,87.1086403 36.53125,88.9035657 L36.53125,96.4035657 C36.53125,98.1984912 35.0761754,99.6535657 33.28125,99.6535657 L25.78125,99.6535657 C23.9863246,99.6535657 22.53125,98.1984912 22.53125,96.4035657 L22.53125,88.9035657 C22.53125,87.1086403 23.9863246,85.6535657 25.78125,85.6535657 Z" id="矩形备份-9" fill-opacity="0.7" fill="#999999" fill-rule="nonzero"></path>
            <path d="M22.1325,81.7060657 C22.42125,81.7060657 22.66875,81.6235657 22.875,81.4585657 C23.09625,81.2823157 23.235,81.0385657 23.295,80.7235657 L22.8675,80.7235657 C22.815,80.9260657 22.725,81.0798157 22.5975,81.1810657 C22.4775,81.2710657 22.32,81.3198157 22.12875,81.3198157 C21.83625,81.3198157 21.61875,81.2260657 21.48,81.0460657 C21.3525,80.8773157 21.28875,80.6335657 21.28875,80.3185657 C21.28875,80.0110657 21.3525,79.7710657 21.48375,79.5985657 C21.62625,79.4035657 21.83625,79.3098157 22.1175,79.3098157 C22.305,79.3098157 22.45875,79.3473157 22.57875,79.4298157 C22.7025,79.5123157 22.785,79.6398157 22.83,79.8160657 L23.2575,79.8160657 C23.21625,79.5460657 23.1,79.3285657 22.905,79.1710657 C22.7025,79.0060657 22.44,78.9235657 22.125,78.9235657 C21.6975,78.9235657 21.37125,79.0623157 21.14625,79.3473157 C20.9475,79.5948157 20.85,79.9210657 20.85,80.3185657 C20.85,80.7235657 20.94375,81.0460657 21.135,81.2860657 C21.3525,81.5635657 21.68625,81.7060657 22.1325,81.7060657 Z M24.89625,81.7060657 C25.305,81.7060657 25.6275,81.5748157 25.86375,81.3123157 C26.08875,81.0610657 26.20125,80.7310657 26.20125,80.3185657 C26.20125,79.9060657 26.08875,79.5723157 25.86375,79.3210657 C25.6275,79.0548157 25.305,78.9235657 24.89625,78.9235657 C24.48375,78.9235657 24.16125,79.0548157 23.92875,79.3248157 C23.70375,79.5798157 23.595,79.9098157 23.595,80.3185657 C23.595,80.7235657 23.70375,81.0535657 23.92875,81.3085657 C24.16125,81.5710657 24.48375,81.7060657 24.89625,81.7060657 Z M24.89625,81.3198157 C24.61875,81.3198157 24.40125,81.2260657 24.25125,81.0423157 C24.105,80.8623157 24.03375,80.6223157 24.03375,80.3185657 C24.03375,80.0110657 24.105,79.7710657 24.25125,79.5910657 C24.405,79.4035657 24.61875,79.3098157 24.89625,79.3098157 C25.17375,79.3098157 25.3875,79.3960657 25.5375,79.5760657 C25.68375,79.7560657 25.75875,80.0035657 25.75875,80.3185657 C25.75875,80.6335657 25.68375,80.8773157 25.5375,81.0535657 C25.3875,81.2298157 25.17375,81.3198157 24.89625,81.3198157 Z M27.0525,81.6535657 L27.0525,79.6960657 L27.0675,79.6960657 L28.40625,81.6535657 L28.83375,81.6535657 L28.83375,78.9760657 L28.39125,78.9760657 L28.39125,80.9073157 L28.37625,80.9073157 L27.0525,78.9760657 L26.61375,78.9760657 L26.61375,81.6535657 L27.0525,81.6535657 Z M29.7975,81.6535657 L29.7975,79.6960657 L29.8125,79.6960657 L31.15125,81.6535657 L31.57875,81.6535657 L31.57875,78.9760657 L31.13625,78.9760657 L31.13625,80.9073157 L31.12125,80.9073157 L29.7975,78.9760657 L29.35875,78.9760657 L29.35875,81.6535657 L29.7975,81.6535657 Z M34.09875,81.6535657 L34.09875,81.2785657 L32.5425,81.2785657 L32.5425,80.4685657 L33.945,80.4685657 L33.945,80.0935657 L32.5425,80.0935657 L32.5425,79.3510657 L34.035,79.3510657 L34.035,78.9760657 L32.10375,78.9760657 L32.10375,81.6535657 L34.09875,81.6535657 Z M35.68125,81.7060657 C35.97,81.7060657 36.2175,81.6235657 36.42375,81.4585657 C36.645,81.2823157 36.78375,81.0385657 36.84375,80.7235657 L36.41625,80.7235657 C36.36375,80.9260657 36.27375,81.0798157 36.14625,81.1810657 C36.02625,81.2710657 35.86875,81.3198157 35.6775,81.3198157 C35.385,81.3198157 35.1675,81.2260657 35.02875,81.0460657 C34.90125,80.8773157 34.8375,80.6335657 34.8375,80.3185657 C34.8375,80.0110657 34.90125,79.7710657 35.0325,79.5985657 C35.175,79.4035657 35.385,79.3098157 35.66625,79.3098157 C35.85375,79.3098157 36.0075,79.3473157 36.1275,79.4298157 C36.25125,79.5123157 36.33375,79.6398157 36.37875,79.8160657 L36.80625,79.8160657 C36.765,79.5460657 36.64875,79.3285657 36.45375,79.1710657 C36.25125,79.0060657 35.98875,78.9235657 35.67375,78.9235657 C35.24625,78.9235657 34.92,79.0623157 34.695,79.3473157 C34.49625,79.5948157 34.39875,79.9210657 34.39875,80.3185657 C34.39875,80.7235657 34.4925,81.0460657 34.68375,81.2860657 C34.90125,81.5635657 35.235,81.7060657 35.68125,81.7060657 Z M38.36625,81.6535657 L38.36625,79.3510657 L39.24375,79.3510657 L39.24375,78.9760657 L37.05,78.9760657 L37.05,79.3510657 L37.9275,79.3510657 L37.9275,81.6535657 L38.36625,81.6535657 Z" id="CONNECT" fill="#999999" fill-rule="nonzero"></path>
            <path d="M26.82375,213.403566 L27.34875,211.389816 L27.36375,211.389816 L27.885,213.403566 L28.35,213.403566 L29.1225,210.726066 L28.6275,210.726066 L28.125,212.762316 L28.11,212.762316 L27.58125,210.726066 L27.1275,210.726066 L26.59875,212.762316 L26.58375,212.762316 L26.08125,210.726066 L25.58625,210.726066 L26.355,213.403566 L26.82375,213.403566 Z M29.61,213.403566 L29.85375,212.732316 L30.975,212.732316 L31.21875,213.403566 L31.6875,213.403566 L30.66375,210.726066 L30.165,210.726066 L29.14125,213.403566 L29.61,213.403566 Z M30.84375,212.372316 L29.985,212.372316 L30.40875,211.198566 L30.42375,211.198566 L30.84375,212.372316 Z M32.38875,213.403566 L32.38875,211.446066 L32.40375,211.446066 L33.7425,213.403566 L34.17,213.403566 L34.17,210.726066 L33.7275,210.726066 L33.7275,212.657316 L33.7125,212.657316 L32.38875,210.726066 L31.95,210.726066 L31.95,213.403566 L32.38875,213.403566 Z" id="WAN" fill="#999999" fill-rule="nonzero"></path>
            <path d="M28.389375,108.653566 L28.389375,108.278566 L26.941875,108.278566 L26.941875,105.976066 L26.506875,105.976066 L26.506875,108.653566 L28.389375,108.653566 Z M28.933125,108.653566 L29.176875,107.982316 L30.298125,107.982316 L30.541875,108.653566 L31.010625,108.653566 L29.986875,105.976066 L29.488125,105.976066 L28.464375,108.653566 L28.933125,108.653566 Z M30.166875,107.622316 L29.308125,107.622316 L29.731875,106.448566 L29.746875,106.448566 L30.166875,107.622316 Z M31.711875,108.653566 L31.711875,106.696066 L31.726875,106.696066 L33.065625,108.653566 L33.493125,108.653566 L33.493125,105.976066 L33.050625,105.976066 L33.050625,107.907316 L33.035625,107.907316 L31.711875,105.976066 L31.273125,105.976066 L31.273125,108.653566 L31.711875,108.653566 Z" id="LAN" fill="#999999" fill-rule="nonzero"></path>
            <path d="M24.19125,238.716066 L24.19125,237.688566 L24.855,237.688566 C25.5075,237.688566 25.83375,237.411066 25.83375,236.859816 C25.83375,236.312316 25.5075,236.038566 24.8625,236.038566 L23.7525,236.038566 L23.7525,238.716066 L24.19125,238.716066 Z M24.82875,237.313566 L24.19125,237.313566 L24.19125,236.413566 L24.82875,236.413566 C25.02,236.413566 25.1625,236.447316 25.2525,236.518566 C25.3425,236.586066 25.39125,236.698566 25.39125,236.859816 C25.39125,237.021066 25.34625,237.137316 25.25625,237.208566 C25.16625,237.276066 25.02375,237.313566 24.82875,237.313566 Z M27.3975,238.768566 C27.80625,238.768566 28.12875,238.637316 28.365,238.374816 C28.59,238.123566 28.7025,237.793566 28.7025,237.381066 C28.7025,236.968566 28.59,236.634816 28.365,236.383566 C28.12875,236.117316 27.80625,235.986066 27.3975,235.986066 C26.985,235.986066 26.6625,236.117316 26.43,236.387316 C26.205,236.642316 26.09625,236.972316 26.09625,237.381066 C26.09625,237.786066 26.205,238.116066 26.43,238.371066 C26.6625,238.633566 26.985,238.768566 27.3975,238.768566 Z M27.3975,238.382316 C27.12,238.382316 26.9025,238.288566 26.7525,238.104816 C26.60625,237.924816 26.535,237.684816 26.535,237.381066 C26.535,237.073566 26.60625,236.833566 26.7525,236.653566 C26.90625,236.466066 27.12,236.372316 27.3975,236.372316 C27.675,236.372316 27.88875,236.458566 28.03875,236.638566 C28.185,236.818566 28.26,237.066066 28.26,237.381066 C28.26,237.696066 28.185,237.939816 28.03875,238.116066 C27.88875,238.292316 27.675,238.382316 27.3975,238.382316 Z M30.10875,238.716066 L30.63375,236.702316 L30.64875,236.702316 L31.17,238.716066 L31.635,238.716066 L32.4075,236.038566 L31.9125,236.038566 L31.41,238.074816 L31.395,238.074816 L30.86625,236.038566 L30.4125,236.038566 L29.88375,238.074816 L29.86875,238.074816 L29.36625,236.038566 L28.87125,236.038566 L29.64,238.716066 L30.10875,238.716066 Z M34.68375,238.716066 L34.68375,238.341066 L33.1275,238.341066 L33.1275,237.531066 L34.53,237.531066 L34.53,237.156066 L33.1275,237.156066 L33.1275,236.413566 L34.62,236.413566 L34.62,236.038566 L32.68875,236.038566 L32.68875,238.716066 L34.68375,238.716066 Z M35.535,238.716066 L35.535,237.624816 L36.22875,237.624816 C36.37875,237.624816 36.495,237.654816 36.57375,237.722316 C36.64875,237.786066 36.69375,237.891066 36.70875,238.037316 L36.7425,238.367316 C36.7575,238.517316 36.795,238.633566 36.85875,238.716066 L37.335,238.716066 C37.245,238.618566 37.18875,238.487316 37.17375,238.322316 L37.12875,237.891066 C37.09875,237.628566 36.9675,237.474816 36.735,237.422316 L36.735,237.414816 C36.8775,237.377316 36.99375,237.298566 37.07625,237.178566 C37.15125,237.069816 37.18875,236.946066 37.18875,236.807316 C37.18875,236.552316 37.1025,236.357316 36.9375,236.222316 C36.78,236.098566 36.5625,236.038566 36.28875,236.038566 L35.09625,236.038566 L35.09625,238.716066 L35.535,238.716066 Z M36.22875,237.249816 L35.535,237.249816 L35.535,236.413566 L36.22875,236.413566 C36.40875,236.413566 36.54,236.443566 36.6225,236.511066 C36.705,236.574816 36.74625,236.679816 36.74625,236.826066 C36.74625,236.961066 36.705,237.066066 36.6225,237.141066 C36.5325,237.212316 36.40125,237.249816 36.22875,237.249816 Z" id="POWER" fill="#999999" fill-rule="nonzero"></path>
            <path d="M24.144375,63.8410657 L24.144375,62.7498157 L24.838125,62.7498157 C24.988125,62.7498157 25.104375,62.7798157 25.183125,62.8473157 C25.258125,62.9110657 25.303125,63.0160657 25.318125,63.1623157 L25.351875,63.4923157 C25.366875,63.6423157 25.404375,63.7585657 25.468125,63.8410657 L25.944375,63.8410657 C25.854375,63.7435657 25.798125,63.6123157 25.783125,63.4473157 L25.738125,63.0160657 C25.708125,62.7535657 25.576875,62.5998157 25.344375,62.5473157 L25.344375,62.5398157 C25.486875,62.5023157 25.603125,62.4235657 25.685625,62.3035657 C25.760625,62.1948157 25.798125,62.0710657 25.798125,61.9323157 C25.798125,61.6773157 25.711875,61.4823157 25.546875,61.3473157 C25.389375,61.2235657 25.171875,61.1635657 24.898125,61.1635657 L23.705625,61.1635657 L23.705625,63.8410657 L24.144375,63.8410657 Z M24.838125,62.3748157 L24.144375,62.3748157 L24.144375,61.5385657 L24.838125,61.5385657 C25.018125,61.5385657 25.149375,61.5685657 25.231875,61.6360657 C25.314375,61.6998157 25.355625,61.8048157 25.355625,61.9510657 C25.355625,62.0860657 25.314375,62.1910657 25.231875,62.2660657 C25.141875,62.3373157 25.010625,62.3748157 24.838125,62.3748157 Z M28.314375,63.8410657 L28.314375,63.4660657 L26.758125,63.4660657 L26.758125,62.6560657 L28.160625,62.6560657 L28.160625,62.2810657 L26.758125,62.2810657 L26.758125,61.5385657 L28.250625,61.5385657 L28.250625,61.1635657 L26.319375,61.1635657 L26.319375,63.8410657 L28.314375,63.8410657 Z M29.716875,63.8935657 C30.058125,63.8935657 30.324375,63.8223157 30.511875,63.6873157 C30.699375,63.5485657 30.793125,63.3573157 30.793125,63.1173157 C30.793125,62.8698157 30.676875,62.6785657 30.444375,62.5398157 C30.339375,62.4798157 30.106875,62.3898157 29.743125,62.2773157 C29.495625,62.1985657 29.341875,62.1423157 29.285625,62.1123157 C29.158125,62.0448157 29.098125,61.9510657 29.098125,61.8385657 C29.098125,61.7110657 29.150625,61.6173157 29.263125,61.5610657 C29.353125,61.5123157 29.480625,61.4898157 29.649375,61.4898157 C29.844375,61.4898157 29.994375,61.5235657 30.091875,61.5985657 C30.189375,61.6698157 30.260625,61.7898157 30.298125,61.9548157 L30.733125,61.9548157 C30.706875,61.6623157 30.598125,61.4448157 30.410625,61.3060657 C30.234375,61.1748157 29.986875,61.1110657 29.671875,61.1110657 C29.383125,61.1110657 29.146875,61.1748157 28.959375,61.3060657 C28.756875,61.4410657 28.659375,61.6285657 28.659375,61.8648157 C28.659375,62.1010657 28.760625,62.2810657 28.966875,62.4048157 C29.045625,62.4498157 29.251875,62.5248157 29.581875,62.6298157 C29.878125,62.7198157 30.050625,62.7798157 30.103125,62.8060657 C30.268125,62.8885657 30.354375,63.0010657 30.354375,63.1435657 C30.354375,63.2560657 30.294375,63.3423157 30.181875,63.4098157 C30.069375,63.4735657 29.911875,63.5073157 29.716875,63.5073157 C29.495625,63.5073157 29.334375,63.4660657 29.229375,63.3910657 C29.113125,63.3048157 29.041875,63.1585657 29.011875,62.9560657 L28.576875,62.9560657 C28.595625,63.2973157 28.719375,63.5448157 28.944375,63.7023157 C29.128125,63.8298157 29.386875,63.8935657 29.716875,63.8935657 Z M33.163125,63.8410657 L33.163125,63.4660657 L31.606875,63.4660657 L31.606875,62.6560657 L33.009375,62.6560657 L33.009375,62.2810657 L31.606875,62.2810657 L31.606875,61.5385657 L33.099375,61.5385657 L33.099375,61.1635657 L31.168125,61.1635657 L31.168125,63.8410657 L33.163125,63.8410657 Z M34.685625,63.8410657 L34.685625,61.5385657 L35.563125,61.5385657 L35.563125,61.1635657 L33.369375,61.1635657 L33.369375,61.5385657 L34.246875,61.5385657 L34.246875,63.8410657 L34.685625,63.8410657 Z" id="RESET" fill="#999999" fill-rule="nonzero"></path>
            <circle id="椭圆形备份-2" fill-opacity="0.5" fill="#999999" cx="30" cy="67.8098157" r="1.40625"></circle>
            <circle id="椭圆形备份-3" fill-opacity="0.5" fill="#999999" cx="27.65625" cy="228.153566" r="4.6875"></circle>
            <path d="M30,172 L30,173.699 L32.5714286,173.7 L32.572,177.099 L34.2857143,177.1 L34.286,177.95 L36,177.95 L36,183.05 L34.286,183.05 L34.2857143,183.9 L32.572,183.899 L32.5714286,187.3 L30,187.299 L30,189 L25.7142857,189 L25.715,187.299 L24,187.3 L24,173.7 L25.715,173.699 L25.7142857,172 L30,172 Z M29.6,184.474026 L25.6,184.474026 L25.6,185.357143 L29.6,185.357143 L29.6,184.474026 Z M29.6,182.707792 L25.6,182.707792 L25.6,183.590909 L29.6,183.590909 L29.6,182.707792 Z M29.6,180.941558 L25.6,180.941558 L25.6,181.824675 L29.6,181.824675 L29.6,180.941558 Z M29.6,179.175325 L25.6,179.175325 L25.6,180.058442 L29.6,180.058442 L29.6,179.175325 Z M29.6,177.409091 L25.6,177.409091 L25.6,178.292208 L29.6,178.292208 L29.6,177.409091 Z M29.6,175.642857 L25.6,175.642857 L25.6,176.525974 L29.6,176.525974 L29.6,175.642857 Z" id="形状结合备份-2" fill-opacity="0.5" fill="#999999"></path>
            <path d="M30,152 L30,153.699 L32.5714286,153.7 L32.572,157.099 L34.2857143,157.1 L34.286,157.95 L36,157.95 L36,163.05 L34.286,163.05 L34.2857143,163.9 L32.572,163.899 L32.5714286,167.3 L30,167.299 L30,169 L25.7142857,169 L25.715,167.299 L24,167.3 L24,153.7 L25.715,153.699 L25.7142857,152 L30,152 Z M29.6,164.474026 L25.6,164.474026 L25.6,165.357143 L29.6,165.357143 L29.6,164.474026 Z M29.6,162.707792 L25.6,162.707792 L25.6,163.590909 L29.6,163.590909 L29.6,162.707792 Z M29.6,160.941558 L25.6,160.941558 L25.6,161.824675 L29.6,161.824675 L29.6,160.941558 Z M29.6,159.175325 L25.6,159.175325 L25.6,160.058442 L29.6,160.058442 L29.6,159.175325 Z M29.6,157.409091 L25.6,157.409091 L25.6,158.292208 L29.6,158.292208 L29.6,157.409091 Z M29.6,155.642857 L25.6,155.642857 L25.6,156.525974 L29.6,156.525974 L29.6,155.642857 Z" id="形状结合备份" fill-opacity="0.5" fill="#999999"></path>
            <path d="M30,132 L30,133.699 L32.5714286,133.7 L32.572,137.099 L34.2857143,137.1 L34.286,137.95 L36,137.95 L36,143.05 L34.286,143.05 L34.2857143,143.9 L32.572,143.899 L32.5714286,147.3 L30,147.299 L30,149 L25.7142857,149 L25.715,147.299 L24,147.3 L24,133.7 L25.715,133.699 L25.7142857,132 L30,132 Z M29.6,144.474026 L25.6,144.474026 L25.6,145.357143 L29.6,145.357143 L29.6,144.474026 Z M29.6,142.707792 L25.6,142.707792 L25.6,143.590909 L29.6,143.590909 L29.6,142.707792 Z M29.6,140.941558 L25.6,140.941558 L25.6,141.824675 L29.6,141.824675 L29.6,140.941558 Z M29.6,139.175325 L25.6,139.175325 L25.6,140.058442 L29.6,140.058442 L29.6,139.175325 Z M29.6,137.409091 L25.6,137.409091 L25.6,138.292208 L29.6,138.292208 L29.6,137.409091 Z M29.6,135.642857 L25.6,135.642857 L25.6,136.525974 L29.6,136.525974 L29.6,135.642857 Z" id="形状结合" fill-opacity="0.5" fill="#999999"></path>
            <path d="M30,112 L30,113.699 L32.5714286,113.7 L32.572,117.099 L34.2857143,117.1 L34.286,117.95 L36,117.95 L36,123.05 L34.286,123.05 L34.2857143,123.9 L32.572,123.899 L32.5714286,127.3 L30,127.299 L30,129 L25.7142857,129 L25.715,127.299 L24,127.3 L24,113.7 L25.715,113.699 L25.7142857,112 L30,112 Z M29.6,124.474026 L25.6,124.474026 L25.6,125.357143 L29.6,125.357143 L29.6,124.474026 Z M29.6,122.707792 L25.6,122.707792 L25.6,123.590909 L29.6,123.590909 L29.6,122.707792 Z M29.6,120.941558 L25.6,120.941558 L25.6,121.824675 L29.6,121.824675 L29.6,120.941558 Z M29.6,119.175325 L25.6,119.175325 L25.6,120.058442 L29.6,120.058442 L29.6,119.175325 Z M29.6,117.409091 L25.6,117.409091 L25.6,118.292208 L29.6,118.292208 L29.6,117.409091 Z M29.6,115.642857 L25.6,115.642857 L25.6,116.525974 L29.6,116.525974 L29.6,115.642857 Z" id="形状结合" fill-opacity="0.5" fill="#999999"></path>
            <path d="M30,191 L30,192.699 L32.5714286,192.7 L32.572,196.099 L34.2857143,196.1 L34.286,196.95 L36,196.95 L36,202.05 L34.286,202.05 L34.2857143,202.9 L32.572,202.899 L32.5714286,206.3 L30,206.299 L30,208 L25.7142857,208 L25.715,206.299 L24,206.3 L24,192.7 L25.715,192.699 L25.7142857,191 L30,191 Z M29.6,203.474026 L25.6,203.474026 L25.6,204.357143 L29.6,204.357143 L29.6,203.474026 Z M29.6,201.707792 L25.6,201.707792 L25.6,202.590909 L29.6,202.590909 L29.6,201.707792 Z M29.6,199.941558 L25.6,199.941558 L25.6,200.824675 L29.6,200.824675 L29.6,199.941558 Z M29.6,198.175325 L25.6,198.175325 L25.6,199.058442 L29.6,199.058442 L29.6,198.175325 Z M29.6,196.409091 L25.6,196.409091 L25.6,197.292208 L29.6,197.292208 L29.6,196.409091 Z M29.6,194.642857 L25.6,194.642857 L25.6,195.525974 L29.6,195.525974 L29.6,194.642857 Z" id="形状结合" fill-opacity="0.5" fill="#FF5B5B"></path>
            <polygon id="直线-15" fill="#999999" fill-rule="nonzero" points="21.5625 190.497316 21.5625 191.434816 19.687 191.434 19.687 211.278 23.90625 211.278566 23.90625 212.216066 18.75 212.216066 18.75 190.497316"></polygon>
            <polygon id="直线-15备份" fill="#999999" fill-rule="nonzero" points="40.3125 190.497316 40.3125 212.216066 35.625 212.216066 35.625 211.278566 39.375 211.278 39.375 191.434 37.5 191.434816 37.5 190.497316"></polygon>
            <polygon id="直线-15" fill="#999999" fill-rule="nonzero" transform="translate(21.328125, 147.809816) scale(1, -1) translate(-21.328125, -147.809816) " points="21.5625 106.997316 21.5625 107.934816 19.687 107.934 19.687 187.684 23.90625 187.684816 23.90625 188.622316 18.75 188.622316 18.75 106.997316"></polygon>
            <polygon id="直线-15备份" fill="#999999" fill-rule="nonzero" transform="translate(37.968750, 147.809816) scale(1, -1) translate(-37.968750, -147.809816) " points="40.3125 106.997316 40.3125 188.622316 35.625 188.622316 35.625 187.684816 39.375 187.684 39.375 107.934 37.5 107.934816 37.5 106.997316"></polygon>
        </g>
        <path d="M281.979845,260.000269 C281.927444,258.607498 281.75613,257.265117 281.488075,256.001344 L285.003023,256.001344 C285.525025,257.246977 285.855559,258.593389 285.962378,260.000269 L281.979845,260.000269 Z M281.488075,266.002687 C281.75613,264.736899 281.927444,263.394518 281.979845,261.999731 L285.960363,261.999731 C285.855559,263.408627 285.525025,264.753023 285.003023,266.002687 L281.488075,266.002687 Z M280.966073,268.00215 L283.957004,268.00215 C282.653006,270.035877 280.800806,271.680597 278.61001,272.730718 C279.577427,271.444773 280.381592,269.83835 280.966073,268.00215 Z M274.000672,268.00215 L278.900235,268.00215 C277.825999,271.116232 276.054417,273.3233 274.000672,273.873555 L274.000672,268.00215 Z M274.000672,261.999731 L279.980517,261.999731 C279.922069,263.408627 279.744709,264.753023 279.460531,266.002687 L274.000672,266.002687 L274.000672,261.999731 Z M274.000672,256.001344 L279.460531,256.001344 C279.744709,257.246977 279.918038,258.593389 279.980517,260.000269 L274.000672,260.000269 L274.000672,256.001344 Z M274.000672,248.12846 C276.054417,248.6767 277.825999,250.885783 278.900235,253.99785 L274.000672,253.99785 L274.000672,248.12846 Z M280.966073,253.99785 C280.381592,252.163666 279.581458,250.553212 278.61001,249.269282 C280.800806,250.319403 282.653006,251.966138 283.957004,253.99785 L280.966073,253.99785 Z M271.999328,253.99785 L267.099765,253.99785 C268.174001,250.885783 269.943567,248.6767 271.999328,248.12846 L271.999328,253.99785 Z M271.999328,260.000269 L266.019483,260.000269 C266.077931,258.593389 266.255291,257.246977 266.537454,256.001344 L271.999328,256.001344 L271.999328,260.000269 Z M271.999328,266.002687 L266.537454,266.002687 C266.255291,264.753023 266.077931,263.408627 266.019483,261.999731 L271.999328,261.999731 L271.999328,266.002687 Z M271.999328,273.873555 C269.943567,273.3233 268.174001,271.116232 267.099765,268.00215 L271.999328,268.00215 L271.999328,273.873555 Z M265.035942,268.00215 C265.620423,269.83835 266.422573,271.448804 267.38999,272.730718 C265.197178,271.680597 263.344978,270.035877 262.040981,268.00215 L265.035942,268.00215 Z M264.020155,261.999731 C264.074572,263.394518 264.24387,264.736899 264.511925,266.002687 L260.994961,266.002687 C260.47699,264.753023 260.144441,263.408627 260.037622,261.999731 L264.020155,261.999731 Z M264.511925,256.001344 C264.24387,257.265117 264.074572,258.607498 264.020155,260.000269 L260.037622,260.000269 C260.144441,258.593389 260.47699,257.246977 260.994961,256.001344 L264.511925,256.001344 Z M265.037958,253.99785 L262.040981,253.99785 C263.344978,251.966138 265.197178,250.319403 267.38999,249.269282 C266.424589,250.553212 265.622439,252.163666 265.037958,253.99785 Z M287.963722,260.000269 C287.471952,252.510347 281.488075,246.524053 274.000672,246.032249 L274.000672,246 L272.998992,246 L271.999328,246 L271.999328,246.032249 C264.511925,246.524053 258.526033,252.510347 258.034263,260.000269 L258,260.000269 L258,261 L258,261.999731 L258.034263,261.999731 C258.526033,269.489653 264.511925,275.473932 271.999328,275.965735 L271.999328,276 L272.998992,276 L274.000672,276 L274.000672,275.965735 C281.488075,275.473932 287.471952,269.489653 287.963722,261.999731 L288,261.999731 L288,261 L288,260.000269 L287.963722,260.000269 Z" id="Fill-90" fill="#009FD1"></path>
        <path d="M191.993866,193.00606 L192.00606,192.006134 L190.006209,191.981746 L189.994014,192.981672 L191.993866,193.00606 Z M186.994237,192.945089 L187.006432,191.945163 L185.00658,191.920775 L184.994386,192.9207 L186.994237,192.945089 Z M181.994609,192.884118 L182.006803,191.884192 L180.006952,191.859804 L179.994758,192.859729 L181.994609,192.884118 Z M176.994981,192.823147 L177.007175,191.823221 L175.007324,191.798833 L174.99513,192.798758 L176.994981,192.823147 Z M171.995353,192.762176 L172.007547,191.76225 L170.007696,191.737862 L169.995501,192.737787 L171.995353,192.762176 Z M166.995725,192.701205 L167.007919,191.701279 L165.008067,191.67689 L164.995873,192.676816 L166.995725,192.701205 Z M161.996096,192.640233 L162.00829,191.640308 L160.008439,191.615919 L159.996245,192.615845 L161.996096,192.640233 Z M156.996468,192.579262 L157.008662,191.579337 L155.008811,191.554948 L154.996617,192.554874 L156.996468,192.579262 Z M151.99684,192.518291 L152.009034,191.518366 L150.009183,191.493977 L149.996989,192.493903 L151.99684,192.518291 Z M146.997212,192.45732 L147.009406,191.457395 L145.009554,191.433006 L144.99736,192.432932 L146.997212,192.45732 Z M141.997583,192.396349 L142.009778,191.396424 L140.009926,191.372035 L139.997732,192.371961 L141.997583,192.396349 Z M136.997955,192.335378 L137.010149,191.335452 L135.010298,191.311064 L134.998104,192.31099 L136.997955,192.335378 Z M131.998327,192.274407 L132.010521,191.274481 L130.01067,191.250093 L129.998476,192.250019 L131.998327,192.274407 Z M126.998699,192.213436 L127.010893,191.21351 L125.011042,191.189122 L124.998847,192.189048 L126.998699,192.213436 Z M121.99907,192.152465 L122.011265,191.152539 L120.011413,191.128151 L119.999219,192.128076 L121.99907,192.152465 Z M116.999442,192.091494 L117.011636,191.091568 L115.011785,191.06718 L114.999591,192.067105 L116.999442,192.091494 Z M111.999814,192.030523 L112.012008,191.030597 L110.012157,191.006209 L109.999963,192.006134 L111.999814,192.030523 Z" id="直线-22备份-3" fill="#979797" fill-rule="nonzero"></path>
        <g id="编组" transform="translate(109.000000, 62.000000)">
            <path d="M41,-2 C17.2517558,-2 -2,17.2517558 -2,41 L-1.99518205,41.6485819 C-1.683974,62.5851189 13.6694899,80.1592741 34.1063478,83.4501732 L34.239,83.47 L38.6617499,93.7879319 L38.7346527,93.9412064 C39.5123323,95.4219731 41.7163482,95.3437783 42.3568708,93.7429877 L46.389,83.665 L46.4795032,83.6540389 C67.7776374,80.9470037 84,62.7517904 84,41 C84,17.2517558 64.7482442,-2 41,-2 Z M41,0 C63.6436747,0 82,18.3563253 82,41 C82,62.3017642 65.7548744,79.809276 44.9776321,81.8095264 L40.5,93 L35.63601,81.65228 C15.5269977,79.0247001 0,61.8256124 0,41 C0,18.3563253 18.3563253,0 41,0 Z" id="形状结合" fill-opacity="0.5" fill="#999999" fill-rule="nonzero"></path>
            <path d="M34.4044611,0.527708622 L34.351361,2.9130376 L34.3348408,3.56381198 L34.3174025,4.21709828 L34.2384693,6.85536356 L34.1934948,8.18956876 C34.1574119,9.22188726 34.0286779,10.3259552 33.8130083,11.5546528 L33.7152725,12.0890221 L33.5998451,12.6757495 L33.4730003,13.2801436 L33.3306751,13.922535 L33.1688069,14.623254 L32.7487076,16.3807168 L32.3753585,17.966962 L32.1507229,18.9752227 L31.9930892,19.7640106 L31.9261364,20.1575309 L31.8770273,20.5074796 L31.8530385,20.7231351 L31.822924,21.1298204 L31.8119774,21.5299225 L31.8115818,65.3131285 C31.8115818,65.3262655 31.81868,65.3377421 31.8292454,65.3439336 L31.8472401,65.3488037 L33.1284059,65.2716761 L36.156335,65.0762828 L38.3985934,64.9173422 L40.4806712,64.7560909 L42.4024715,64.5925503 L43.7385813,64.4684055 L44.9844395,64.3429941 L46.1400052,64.2163253 L47.2052375,64.0884081 L48.1800956,63.9592516 L48.7797729,63.8724632 L49.7566608,63.7193676 C50.2157528,63.6457621 50.6701534,63.5709555 51.1195901,63.4950301 L51.7899884,63.3803132 L53.1076302,63.1460916 L54.3930369,62.9058976 L55.6445735,62.6602247 L56.8606052,62.4095664 C57.6091891,62.2514499 58.3360113,62.0907015 59.0392759,61.9278635 L59.7346213,61.7643489 L60.813511,61.5001288 L61.8495388,61.2331442 C62.6607804,61.0185825 63.429305,60.8018408 64.151346,60.5840563 L64.6841023,60.4205402 L65.4177515,60.1851716 L66.1043399,59.9523347 L66.2684434,59.8946113 L66.4294789,59.8371063 L67.042432,59.6095109 C67.7280399,59.3464331 68.3092788,59.092455 68.774548,58.8530798 C69.1370046,58.6666004 69.4171752,58.4947022 69.6066197,58.347594 L69.6937423,58.276153 L69.7210799,58.2528802 C69.7364467,58.2405003 69.7464126,58.2346635 69.7528718,58.2370032 L69.7601672,58.2468493 L69.7631579,58.27 L69.7470412,55.6288426 L69.7426482,53.0046088 L69.7470547,51.8170288 L69.7662691,49.9444819 L69.7582935,49.5002592 L69.7540331,49.3822349 L69.7488705,49.2613088 L69.7192396,48.7474429 L69.6753427,48.1825744 L69.6173166,47.5630441 L69.5452979,46.8851929 L69.4812261,46.3281013 L69.1370847,43.5156288 L69.0348546,42.609609 L68.9857954,42.0303403 L68.971934,41.658442 L68.9641651,39.170192 L68.9406049,36.5649495 L68.8985571,33.7388612 L68.7410668,25.8250753 L68.6537339,20.7372772 L68.6310384,18.3106322 L68.6309543,16.392605 L68.6417176,15.2206563 L68.6503239,14.6495011 L68.6739812,13.5143491 L68.7109859,12.2117292 L68.749029,11.334673 L68.7793629,10.8449918 C69.3550851,11.3756272 69.9155747,11.9225401 70.4601014,12.4850003 L70.4427495,12.9899121 L70.4127986,14.232442 L70.3918823,15.5926765 L70.3831155,17.5180858 L70.4029611,20.3102949 L70.4571284,23.7975928 L70.6535183,33.7572028 L70.7041812,37.3723288 L70.71663,38.8502165 L70.7250456,41.5063606 L70.7315976,41.7956965 L70.7590336,42.2002745 L70.8189477,42.7866122 L71.1992283,45.9184629 L71.3293212,47.0619734 L71.397377,47.7423597 L71.4507357,48.3667865 L71.4892022,48.9399618 L71.5125816,49.4665931 C71.5180212,49.6349026 71.5206701,49.7962395 71.5207396,49.9513882 L71.5189354,50.1795684 L71.5068766,51.1220929 L71.497975,52.5980546 L71.4979767,54.6414484 L71.5190544,58.3550052 C71.5190544,58.9652256 70.8802029,59.6139352 69.7003226,60.2756677 L69.4727787,60.3998889 L69.1134865,60.5840001 L69.019437,60.6301053 L68.9237113,60.6762377 L68.524192,60.8610011 L68.0984333,61.0460488 L67.646898,61.2312602 L67.5300408,61.2775745 L67.4116088,61.3238896 L66.9222766,61.5091206 L66.4083252,61.694214 L65.8702173,61.8790493 L65.7319701,61.9252037 L65.5922493,61.9713325 L65.0187748,62.1555547 L64.4223011,62.3392176 L63.4854797,62.6133995 L62.8335332,62.7951368 L61.8156726,63.0658654 L61.1111465,63.2449239 L60.0165863,63.5110694 L59.2623738,63.686696 L58.0954536,63.9471288 L57.2944476,64.1185702 L56.0595072,64.3721604 L54.7858377,64.6211028 L53.91598,64.7842815 L52.5812336,65.0245737 L51.2119243,65.2591336 L50.2806212,65.4121213 L48.9557395,65.620027 L48.1465407,65.7347254 L47.2700496,65.848315 L46.3262353,65.9608019 L45.3150667,66.072192 L43.9346156,66.2120018 L42.9010255,66.3090715 L41.2502994,66.4530743 L39.4790982,66.595168 L37.5873481,66.7353668 L35.5749752,66.8736852 L33.4419054,67.0101376 L31.9527687,67.1000763 L31.8472401,67.1031897 C31.0305647,67.1031897 30.3415965,66.5562791 30.1266739,65.8087097 L29.2775254,65.7133448 C29.1810358,65.8241398 29.0389324,65.8941663 28.8804735,65.8941663 C28.6807814,65.8941663 28.5070641,65.7829544 28.417879,65.6190876 L27.3366717,65.4979397 C27.2861129,65.69683 27.1223695,65.8502964 26.9183733,65.8861888 L26.823723,65.8941587 C26.565348,65.8927668 26.3514609,65.7054275 26.30822,65.4596655 L26.3002501,65.3650153 L26.3001458,65.082912 C25.7833983,65.3016264 25.4304027,65.5371149 25.2353393,65.7719529 L25.1719124,65.8564613 C24.7071269,66.5494483 23.6524112,66.2576601 23.5711754,65.4675986 L23.5662786,65.3568202 L24.0982469,23.0607068 L24.0941634,22.550089 L24.0815797,22.0470488 L24.059996,21.5439713 L24.0289124,21.0332416 L23.9878291,20.507245 L23.9362462,19.9583664 L23.8736639,19.3789912 L23.7995824,18.7615043 L23.7135018,18.098291 L23.5033439,16.6042256 L23.2368171,14.7759641 L23.0747598,13.595526 L22.9520264,12.5967684 L22.9040543,12.1492232 L22.8473186,11.5243635 L22.8188547,11.1292561 L22.7888467,10.552497 L22.7724421,9.9752644 L22.7681619,9.57931511 L22.7601362,7.51288342 L22.7539231,4.52756189 L22.752797,4.27423679 C23.3307189,3.98654164 23.9163904,3.71208624 24.5094145,3.45126763 L24.5106993,6.07576569 L24.5239705,9.75853027 L24.5357569,10.3065644 L24.5601432,10.8505298 L24.5989352,11.4115653 L24.653939,12.01081 L24.7269603,12.6694027 L24.8198052,13.4084826 L25.023504,14.8765572 L25.2993335,16.7653917 L25.4561258,17.8931289 L25.544609,18.5765512 L25.6208321,19.2144902 L25.6852884,19.8148652 L25.7384717,20.3855952 L25.7808752,20.9345992 L25.7981889,21.2034287 L25.8253483,21.734692 L25.8353175,21.9991057 L25.8483433,22.5304462 L25.8525635,23.0717372 L25.3421579,63.591 L25.5015168,63.5170228 C25.664913,63.4445827 25.8370613,63.3755015 26.0178982,63.3095895 L26.2956622,63.2130747 L26.3119231,63.2085342 L26.6380034,2.58587655 C26.9869058,2.45537381 27.3380618,2.32948834 27.6913969,2.2082945 L27.3616503,63.664459 C27.3778828,63.6982035 27.3921395,63.7333695 27.4042304,63.7698617 C27.4794703,63.9969464 27.4567733,64.2329184 27.3591438,64.4319755 L27.3569231,64.4405342 L28.3539231,64.5515342 L28.3541578,55.7829126 C28.3541578,55.4922364 28.5897974,55.2565968 28.8804735,55.2565968 C29.1388524,55.2565968 29.3537455,55.4427812 29.3983097,55.6883066 L29.4067893,55.7829126 L29.4059231,64.6685342 L30.0569231,64.7405342 L30.0571958,21.5161935 C30.0578882,21.4394306 30.0590225,21.3642534 30.0607607,21.2899897 L30.0679484,21.0692666 L30.0796838,20.8499914 L30.0967055,20.6281311 L30.1197057,20.3996528 L30.1669292,20.0357042 L30.2079032,19.7730365 L30.315745,19.181468 L30.4220085,18.663958 L30.7099258,17.3800979 L30.8709231,16.7025342 L30.9567279,1.23904841 C31.3063514,1.15101278 31.6577596,1.06746753 32.0108876,0.988477557 L31.9499231,11.9715342 L31.991713,11.7615886 C32.2186081,10.5672476 32.3628941,9.50806925 32.4207078,8.53847381 L32.4401795,8.12828469 L32.463032,7.46266727 L32.4849705,6.79956554 L32.5635848,4.17231612 L32.5974084,2.87378647 L32.6275766,1.58532059 L32.6406773,0.852820294 C33.2241627,0.731953893 33.8121866,0.62348739 34.4044611,0.527708622 Z M57.3437582,3.38703553 L57.3288787,3.73646894 C57.3097614,4.12497911 57.2840599,4.51182409 57.2514919,4.91248343 L57.186442,5.63928464 L56.9107658,8.29914077 L56.8159638,9.32666011 L56.7589377,10.0256034 L56.7068552,10.7404649 L56.638007,11.8515543 L56.5802982,13.0214757 L56.5480191,13.8409274 L56.5088976,15.1395906 L56.4890191,16.0576571 L56.4741059,17.02233 L56.4610524,18.5656775 L56.4585651,19.6647683 L56.4585651,49.8493795 C56.4585651,50.3338399 56.0658324,50.7265725 55.5813721,50.7265725 C55.134178,50.7265725 54.7651423,50.3919364 54.7110137,49.9594128 L54.7041791,49.8493795 L54.7048121,19.1016207 L54.7149205,17.4368276 L54.7285008,16.3988511 L54.7591278,14.9382067 L54.8020562,13.5793373 L54.8375057,12.7222941 L54.9009206,11.4985262 L54.9500211,10.7171658 L55.0339023,9.58534481 L55.1300538,8.48797784 L55.4508391,5.36083138 C55.5402317,4.41419855 55.5918545,3.58905768 55.6097898,2.68257616 C56.1937796,2.90224379 56.7721554,3.13831558 57.3437582,3.38703553 Z M29.8554252,1.53281844 L29.6349766,23.8383065 C29.6324301,24.0966728 29.4441369,24.3097205 29.1981841,24.3518628 L29.1034992,24.3594096 C28.8451329,24.3568632 28.6320852,24.1685699 28.589943,23.9226172 L28.5823961,23.8279323 L28.7986161,1.84615341 C29.1488942,1.7371142 29.5011872,1.63264594 29.8554252,1.53281844 Z" id="形状结合" fill="#999999"></path>
            <path d="M28.9994148,25.544715 C29.2829911,25.5471391 29.516491,25.7560284 29.5584087,26.0274791 L29.5650915,26.1200823 L29.3368787,53.0491937 C29.3342085,53.3642785 29.0766171,53.6175406 28.7615323,53.6148913 C28.477956,53.6124672 28.244456,53.4035779 28.2025384,53.1321272 L28.1958556,53.039524 L28.4240684,26.1104126 C28.4267386,25.7953278 28.68433,25.5420657 28.9994148,25.544715 Z" id="直线-11备份-29" fill="#2A75FF" fill-rule="nonzero"></path>
            <ellipse id="椭圆形" fill="#367DFF" opacity="0.5" filter="url(#filter-1)" cx="28.7631579" cy="39.1578947" rx="8" ry="17.5"></ellipse>
        </g>
        <path d="M35.0029476,112.634804 C35.1972402,100.654496 44.972002,91 56.9985477,91 C69.1489582,91 79,100.850002 79,112.998548 C79,125.149478 69.1494783,135 56.9985477,135 C44.9714872,135 35.1972299,125.344994 35.0029474,113.362363 L35,112.998548 L35.0029476,112.634804 Z M38,112.998548 C38,123.492624 46.507376,132 56.9985477,132 C67.492624,132 76,123.492624 76,112.998548 C76,102.507376 67.492624,94 56.9985477,94 C46.507376,94 38,102.507376 38,112.998548 Z" id="Fill-20" fill-opacity="0.9" fill="#F84343" fill-rule="nonzero"></path>
        <path d="M221.002948,112.634804 C221.19724,100.654496 230.972002,91 242.998548,91 C255.148958,91 265,100.850002 265,112.998548 C265,125.149478 255.149478,135 242.998548,135 C230.971487,135 221.19723,125.344994 221.002947,113.362363 L221,112.998548 L221.002948,112.634804 Z M224,112.998548 C224,123.492624 232.507376,132 242.998548,132 C253.492624,132 262,123.492624 262,112.998548 C262,102.507376 253.492624,94 242.998548,94 C232.507376,94 224,102.507376 224,112.998548 Z" id="Fill-20备份" fill-opacity="0.9" fill="#F84343" fill-rule="nonzero"></path>
    </g>
</svg>