<?xml version="1.0" encoding="UTF-8"?>
<svg width="300px" height="300px" viewBox="0 0 300 300" version="1.1" xmlns="http://www.w3.org/2000/svg" xmlns:xlink="http://www.w3.org/1999/xlink">
    <title>img/wifi6/img_add_m6aplus_01</title>
    <g id="img/wifi6/img_add_m6aplus_01" stroke="none" stroke-width="1" fill="none" fill-rule="evenodd">
        <g id="编组-2备份-3" transform="translate(138.998292, 24.999588)">
            <path d="M59.6897083,0.000411943111 L59.8284056,2.71050007 L59.9947063,6.16495663 C60.6732282,20.656056 61.1717826,36.366299 61.4904986,53.2961665 L61.5278814,55.3336048 C61.6133314,60.1145981 61.0178887,64.1014308 59.1683323,72.7569537 L58.4000734,76.3153562 C56.8331049,83.6044844 56.1511455,87.9457888 56.1123858,92.2276695 L56.1137843,173.34267 L56.1254655,173.78784 L56.1394442,174.065732 C56.2242821,175.446376 56.5469415,176.753848 57.7218697,180.648168 L58.960604,184.716575 C60.7711998,190.745704 61.5879681,195.074186 61.5280297,200.09806 L61.5281489,234.359662 L61.714083,234.318845 C65.1599884,233.527142 66.6678489,232.101291 66.6678489,230.079358 L66.6678489,202.767654 C66.6678489,200.607248 66.4968507,198.872047 66.1250786,196.973323 L65.9702746,196.239245 L64.8637306,191.65379 L64.3569053,189.472617 C64.1645915,188.625871 63.9918283,187.836395 63.8639997,187.199236 L63.6650303,186.159571 L63.5156564,185.331806 C61.8203677,175.699505 60.9030503,162.129734 60.9030503,140.608383 L60.9068115,137.76675 L60.9242985,134.018286 L60.9477498,131.229298 C61.1081765,115.420096 61.7008575,104.821829 62.7326754,95.5420056 L63.0123774,93.1468409 L63.9924576,85.51303 L64.1677921,84.0512698 C64.6912226,79.5206989 64.9470718,75.5981507 64.9932225,70.4405089 L65.0009192,68.6623248 L64.9949318,66.8017041 L64.9769697,64.9077188 C64.7654145,48.0301601 63.1522789,27.2477458 60.1368344,2.5654513 L59.8187083,0.000411943111 L64.4384973,0.00108694457 C67.0358028,27.8892986 68.3347786,52.8946515 68.3347786,68.6623248 C68.3347786,74.8604078 68.0759564,79.2713345 67.4802481,84.4294322 L67.2568334,86.2719041 L66.2738572,93.9435062 L66.0439599,95.9307606 L65.8779957,97.4736242 L65.7718125,98.5178668 C64.7974138,108.327247 64.2889666,119.955698 64.2407064,137.755819 L64.2369097,140.608383 L64.245743,144.190045 L64.2653338,146.933031 C64.4384151,165.503483 65.397299,177.39689 67.0144405,185.93171 L67.173783,186.744116 L67.3840411,187.730585 C67.5404319,188.443413 67.7241846,189.24576 67.9145691,190.059953 L68.0422471,190.603651 L68.1705252,191.145744 C68.7043714,193.394021 69.2182978,195.467327 69.2679855,195.700842 C69.7689226,198.055078 70.0017083,200.1499 70.0017083,202.767654 L70.0017083,230.079358 C70.0017083,234.523942 66.4586887,237.14335 60.0827287,238.000412 L58.1942895,236.343988 L11.8091272,236.343988 L9.92068799,238.000412 C3.67484962,237.160841 0.147501286,234.630123 0.0061292336,230.349196 L0.00170833917,230.079358 L7.49983409e-13,206.613538 C0.347493549,206.738585 0.882323246,206.818835 1.48113861,206.818835 L1.48113861,206.818835 L3.335,206.818 L3.33556778,230.079358 C3.33556778,232.036068 4.74771597,233.434531 7.96189465,234.24025 L8.28933372,234.318845 L8.47526776,234.359662 L8.475,206.818 L9.69143191,206.818835 C10.6747973,206.818835 11.485608,206.602419 11.5775948,206.326594 L11.5862853,206.274219 L11.5862853,195.362815 C11.5862853,195.062512 10.7362576,194.818835 9.69143191,194.818835 L9.69143191,194.818835 L8.75957892,194.818731 C9.1113813,191.949779 9.79163505,189.027071 10.8296354,185.516518 L11.0428879,184.803522 L12.5120021,179.991818 L12.8192927,178.951728 C13.6031804,176.258763 13.822259,175.129935 13.8765835,173.799133 L13.8918054,173.117231 L13.8927894,92.616848 L13.8877108,91.9816431 C13.8332037,88.5883891 13.3345728,85.0575434 12.1336691,79.0044702 L11.7771853,77.2335744 L10.5330926,71.2047959 L9.98096506,68.4183755 L9.76159127,67.2637627 C8.81810466,62.2162167 8.45917772,59.1196335 8.46899095,55.9533745 L8.47553532,55.3336048 L8.51300617,53.3054479 L8.59810982,49.1240187 L8.69289045,44.9927472 C9.02495496,31.3054363 9.51831413,18.4540539 10.1730833,6.43826583 L10.2725093,4.64216454 L10.4705184,1.22335111 L10.3316317,2.25777625 C6.84084965,28.4744462 5.06536085,50.3015873 5.00413742,67.7327195 L5.00402921,69.5572654 C5.0224006,74.8348305 5.20688725,78.7910291 5.60353714,83.2316082 L5.67574594,84.0206356 L5.8248424,85.5510645 L6.70912806,94.0719929 L6.85452603,95.633125 C7.72186773,105.243657 8.20613927,116.27881 8.31343519,133.068875 L8.33092152,136.843931 L8.33635695,140.608383 L8.32836251,144.270439 L8.31126092,146.997066 C8.16567315,164.868616 7.39000506,176.669322 6.07210018,185.298906 L6.00780837,185.714639 L5.81270196,186.91592 L5.62537525,187.965205 L5.41671391,189.058163 C5.19285834,190.206506 4.9299713,191.492725 4.68701383,192.662305 L4.234,194.818 L1.48113861,194.818835 C1.24833431,194.818835 1.02520118,194.830933 0.818987501,194.853059 L1.81122402,190.090109 C2.03501208,188.986465 2.24809198,187.905101 2.40573509,187.039207 L2.52536333,186.359484 L2.71630219,185.183486 L2.90850122,183.906142 L3.09581763,182.556462 C4.1949405,174.300532 4.8467445,163.16232 4.97787385,146.929578 L4.99482731,144.192129 L5.00249751,140.608383 L4.99937151,137.738809 L4.98513585,134.010579 C4.89517,117.64546 4.45537424,106.744435 3.66140208,97.3869685 L3.52814635,95.8669975 L3.29713523,93.4404526 L2.70955672,87.809855 L2.35598712,84.3277473 L2.22640134,82.8830779 L2.10490554,81.3823419 C1.82105496,77.6552081 1.68516373,74.0652762 1.67006104,69.5304174 L1.6700302,67.8010228 C1.72008823,52.252245 3.12011444,27.415093 5.8693952,0.00112827378 L13.4209351,4.81836793e-14 C13.3989262,0.557362665 13.3771077,1.11544816 13.3554796,1.67410906 L13.2747161,3.78608023 C12.7023975,18.9372593 12.2695375,34.3739338 11.9762296,47.1743806 L11.9002493,50.6567661 L11.8088597,55.3934898 L11.802893,55.9375755 C11.7916096,59.4729685 12.2946793,63.0420462 13.6802305,69.9434335 L14.0158059,71.5967162 L14.8196193,75.4730099 L15.2822559,77.7438287 L15.5242411,78.9630978 C16.688491,84.8976387 17.1730333,88.4575604 17.2224025,92.0032323 L17.2266488,92.616848 L17.2251355,173.240709 L17.2193344,173.645991 C17.1854497,175.236827 17.0131305,176.377365 16.2918863,178.94443 L16.1080381,179.588876 C16.0106342,179.925754 15.9048529,180.285337 15.7899848,180.670867 L15.4198517,181.9005 L14.4422981,185.089004 C12.6376604,190.943991 11.813781,194.961482 11.8063685,199.546388 L11.8091272,200.07807 L11.8091272,233.000601 L58.194225,233.000601 L58.1942895,200.07807 C58.2495129,195.439763 57.4871568,191.401659 55.763379,185.663867 L54.2042994,180.528744 L53.8744238,179.406473 L53.571067,178.334365 C52.8772717,175.811701 52.7854019,174.853264 52.7774126,173.142465 L52.7767679,92.616848 C52.7767679,88.0391336 53.4384342,83.6101672 54.9968954,76.2850986 L56.0109458,71.5754957 L56.5864115,68.8098875 L56.8200622,67.6405882 C57.899252,62.1523355 58.2584919,58.9706922 58.194557,55.3934898 L58.1034329,50.5979085 L57.9999105,45.7460521 L57.8769704,40.5946365 C57.6238666,30.5536359 57.3024635,18.6567387 56.9127917,6.57895476 L56.845322,4.50701809 C56.8226092,3.81599024 56.7996735,3.12468428 56.7765149,2.43341275 L56.7063704,0.360013956 L56.6940691,0.00058376048 L56.6940691,0.00058376048 L59.6897083,0.000411943111 Z" id="形状结合" fill-opacity="0.7" fill="#999999" fill-rule="nonzero"></path>
            <path d="M39.4523784,30.2436143 L30.5620866,30.2436143 C27.8309579,30.2436143 25.6169407,32.4576316 25.6169407,35.1887602 L25.6169407,44.1250904 C25.6169407,46.856219 27.8309579,49.0702363 30.5620866,49.0702363 L39.4523784,49.0702363 C42.1835071,49.0702363 44.3975244,46.856219 44.3975244,44.1250904 L44.3975244,35.1887602 C44.3975244,32.4576316 42.1835071,30.2436143 39.4523784,30.2436143 Z M30.5620866,31.2436143 L39.4523784,31.2436143 C41.6312224,31.2436143 43.3975244,33.0099163 43.3975244,35.1887602 L43.3975244,44.1250904 C43.3975244,46.3039343 41.6312224,48.0702363 39.4523784,48.0702363 L30.5620866,48.0702363 C28.3832427,48.0702363 26.6169407,46.3039343 26.6169407,44.1250904 L26.6169407,35.1887602 C26.6169407,33.0099163 28.3832427,31.2436143 30.5620866,31.2436143 Z" id="矩形备份-9" fill-opacity="0.7" fill="#999999" fill-rule="nonzero"></path>
            <path d="M26.2369596,26.6464624 C26.5792358,26.6464624 26.8726155,26.548416 27.1170985,26.3523231 C27.3793621,26.1428603 27.5438325,25.8531777 27.6149548,25.4788186 L27.1082082,25.4788186 C27.0459762,25.719478 26.9392927,25.9022009 26.7881577,26.0225306 C26.645913,26.1294903 26.4592169,26.1874269 26.2325145,26.1874269 C25.8857931,26.1874269 25.6279746,26.0760105 25.4635042,25.862091 C25.3123692,25.6615415 25.2368018,25.3718589 25.2368018,24.9974998 C25.2368018,24.6320541 25.3123692,24.3468281 25.4679494,24.141822 C25.6368649,23.9100759 25.8857931,23.7986595 26.219179,23.7986595 C26.4414363,23.7986595 26.6236873,23.8432261 26.765932,23.9412725 C26.9126218,24.0393189 27.010415,24.1908452 27.0637567,24.400308 L27.5705034,24.400308 C27.5216068,24.0794288 27.3838072,23.8209428 27.1526597,23.6337633 C26.9126218,23.4376704 26.6014616,23.339624 26.2280693,23.339624 C25.7213227,23.339624 25.334595,23.5045203 25.0678862,23.8432261 C24.8322935,24.1373653 24.7167197,24.5250944 24.7167197,24.9974998 C24.7167197,25.4788186 24.8278483,25.862091 25.0545508,26.147317 C25.3123692,26.4771095 25.7079872,26.6464624 26.2369596,26.6464624 Z M29.5130321,26.6464624 C29.9975531,26.6464624 30.3798356,26.4904794 30.6598798,26.1785135 C30.9265886,25.8799176 31.0599429,25.4877319 31.0599429,24.9974998 C31.0599429,24.5072677 30.9265886,24.1106254 30.6598798,23.8120295 C30.3798356,23.4956069 29.9975531,23.339624 29.5130321,23.339624 C29.0240661,23.339624 28.6417835,23.4956069 28.3661845,23.8164861 C28.0994757,24.1195387 27.9705665,24.5117244 27.9705665,24.9974998 C27.9705665,25.4788186 28.0994757,25.8710043 28.3661845,26.1740569 C28.6417835,26.4860228 29.0240661,26.6464624 29.5130321,26.6464624 Z M29.5130321,26.1874269 C29.1840913,26.1874269 28.9262729,26.0760105 28.748467,25.8576344 C28.5751064,25.6437149 28.4906486,25.3584889 28.4906486,24.9974998 C28.4906486,24.6320541 28.5751064,24.3468281 28.748467,24.1329087 C28.930718,23.9100759 29.1840913,23.7986595 29.5130321,23.7986595 C29.8419729,23.7986595 30.0953463,23.9011626 30.2731521,24.1150821 C30.4465128,24.3290015 30.5354157,24.6231408 30.5354157,24.9974998 C30.5354157,25.3718589 30.4465128,25.6615415 30.2731521,25.8710043 C30.0953463,26.0804671 29.8419729,26.1874269 29.5130321,26.1874269 Z M32.0689911,26.5840692 L32.0689911,24.257695 L32.0867716,24.257695 L33.6736887,26.5840692 L34.1804354,26.5840692 L34.1804354,23.4020172 L33.6559082,23.4020172 L33.6559082,25.6971948 L33.6381276,25.6971948 L32.0689911,23.4020172 L31.548909,23.4020172 L31.548909,26.5840692 L32.0689911,26.5840692 Z M35.3228379,26.5840692 L35.3228379,24.257695 L35.3406185,24.257695 L36.9275356,26.5840692 L37.4342822,26.5840692 L37.4342822,23.4020172 L36.909755,23.4020172 L36.909755,25.6971948 L36.8919744,25.6971948 L35.3228379,23.4020172 L34.8027558,23.4020172 L34.8027558,26.5840692 L35.3228379,26.5840692 Z M40.4214203,26.5840692 L40.4214203,26.1384036 L38.5766847,26.1384036 L38.5766847,25.1757661 L40.2391693,25.1757661 L40.2391693,24.7301005 L38.5766847,24.7301005 L38.5766847,23.8476827 L40.3458528,23.8476827 L40.3458528,23.4020172 L38.0566026,23.4020172 L38.0566026,26.5840692 L40.4214203,26.5840692 Z M42.2972718,26.6464624 C42.6395481,26.6464624 42.9329277,26.548416 43.1774107,26.3523231 C43.4396743,26.1428603 43.6041447,25.8531777 43.6752671,25.4788186 L43.1685204,25.4788186 C43.1062884,25.719478 42.9996049,25.9022009 42.8484699,26.0225306 C42.7062253,26.1294903 42.5195291,26.1874269 42.2928267,26.1874269 C41.9461053,26.1874269 41.6882868,26.0760105 41.5238164,25.862091 C41.3726815,25.6615415 41.297114,25.3718589 41.297114,24.9974998 C41.297114,24.6320541 41.3726815,24.3468281 41.5282616,24.141822 C41.6971771,23.9100759 41.9461053,23.7986595 42.2794913,23.7986595 C42.5017485,23.7986595 42.6839995,23.8432261 42.8262442,23.9412725 C42.972934,24.0393189 43.0707272,24.1908452 43.124069,24.400308 L43.6308156,24.400308 C43.581919,24.0794288 43.4441195,23.8209428 43.2129719,23.6337633 C42.972934,23.4376704 42.6617738,23.339624 42.2883815,23.339624 C41.7816349,23.339624 41.3949072,23.5045203 41.1281985,23.8432261 C40.8926057,24.1373653 40.7770319,24.5250944 40.7770319,24.9974998 C40.7770319,25.4788186 40.8881606,25.862091 41.114863,26.147317 C41.3726815,26.4771095 41.7682995,26.6464624 42.2972718,26.6464624 Z M45.4799963,26.5840692 L45.4799963,23.8476827 L46.5201605,23.8476827 L46.5201605,23.4020172 L43.9197501,23.4020172 L43.9197501,23.8476827 L44.9599142,23.8476827 L44.9599142,26.5840692 L45.4799963,26.5840692 Z" id="CONNECT" fill="#999999" fill-rule="nonzero"></path>
            <path d="M31.7978372,183.161232 L32.4201576,180.768008 L32.4379382,180.768008 L33.0558135,183.161232 L33.6070115,183.161232 L34.5227116,179.97918 L33.9359523,179.97918 L33.3403028,182.399144 L33.3225222,182.399144 L32.6957566,179.97918 L32.157894,179.97918 L31.5311284,182.399144 L31.5133478,182.399144 L30.9176983,179.97918 L30.330939,179.97918 L31.2421939,183.161232 L31.7978372,183.161232 Z M35.1005806,183.161232 L35.3895151,182.363491 L36.7186137,182.363491 L37.0075482,183.161232 L37.5631914,183.161232 L36.3496666,179.97918 L35.7584622,179.97918 L34.5449373,183.161232 L35.1005806,183.161232 Z M36.5630336,181.935652 L35.5450952,181.935652 L36.0473967,180.540719 L36.0651772,180.540719 L36.5630336,181.935652 Z M38.3944337,183.161232 L38.3944337,180.834858 L38.4122143,180.834858 L39.9991314,183.161232 L40.505878,183.161232 L40.505878,179.97918 L39.9813508,179.97918 L39.9813508,182.274358 L39.9635702,182.274358 L38.3944337,179.97918 L37.8743516,179.97918 L37.8743516,183.161232 L38.3944337,183.161232 Z" id="WAN" fill="#999999" fill-rule="nonzero"></path>
            <path d="M33.6536856,58.6719887 L33.6536856,58.2263232 L31.9378593,58.2263232 L31.9378593,55.4899367 L31.4222223,55.4899367 L31.4222223,58.6719887 L33.6536856,58.6719887 Z M34.2982317,58.6719887 L34.5871662,57.8742474 L35.9162649,57.8742474 L36.2051993,58.6719887 L36.7608426,58.6719887 L35.5473177,55.4899367 L34.9561133,55.4899367 L33.7425885,58.6719887 L34.2982317,58.6719887 Z M35.7606847,57.4464085 L34.7427463,57.4464085 L35.2450478,56.0514753 L35.2628284,56.0514753 L35.7606847,57.4464085 Z M37.5920849,58.6719887 L37.5920849,56.3456146 L37.6098655,56.3456146 L39.1967826,58.6719887 L39.7035292,58.6719887 L39.7035292,55.4899367 L39.179002,55.4899367 L39.179002,57.7851143 L39.1612214,57.7851143 L37.5920849,55.4899367 L37.0720028,55.4899367 L37.0720028,58.6719887 L37.5920849,58.6719887 Z" id="LAN" fill="#999999" fill-rule="nonzero"></path>
            <path d="M28.6773447,213.243657 L28.6773447,212.022533 L29.4641355,212.022533 C30.2375909,212.022533 30.6243186,211.692741 30.6243186,211.037612 C30.6243186,210.38694 30.2375909,210.061605 29.4730258,210.061605 L28.1572626,210.061605 L28.1572626,213.243657 L28.6773447,213.243657 Z M29.4330195,211.576867 L28.6773447,211.576867 L28.6773447,210.50727 L29.4330195,210.50727 C29.659722,210.50727 29.8286375,210.54738 29.935321,210.632057 C30.0420045,210.712276 30.0997914,210.845976 30.0997914,211.037612 C30.0997914,211.229248 30.0464497,211.367405 29.9397662,211.452081 C29.8330827,211.532301 29.6641671,211.576867 29.4330195,211.576867 Z M32.4779445,213.30605 C32.9624654,213.30605 33.3447479,213.150067 33.6247921,212.838101 C33.8915009,212.539505 34.0248553,212.147319 34.0248553,211.657087 C34.0248553,211.166855 33.8915009,210.770213 33.6247921,210.471617 C33.3447479,210.155194 32.9624654,209.999211 32.4779445,209.999211 C31.9889784,209.999211 31.6066959,210.155194 31.3310968,210.476074 C31.0643881,210.779126 30.9354788,211.171312 30.9354788,211.657087 C30.9354788,212.138406 31.0643881,212.530592 31.3310968,212.833644 C31.6066959,213.14561 31.9889784,213.30605 32.4779445,213.30605 Z M32.4779445,212.847014 C32.1490037,212.847014 31.8911852,212.735598 31.7133794,212.517222 C31.5400187,212.303302 31.4555609,212.018076 31.4555609,211.657087 C31.4555609,211.291642 31.5400187,211.006416 31.7133794,210.792496 C31.8956304,210.569663 32.1490037,210.458247 32.4779445,210.458247 C32.8068853,210.458247 33.0602586,210.56075 33.2380644,210.774669 C33.4114251,210.988589 33.500328,211.282728 33.500328,211.657087 C33.500328,212.031446 33.4114251,212.321129 33.2380644,212.530592 C33.0602586,212.740055 32.8068853,212.847014 32.4779445,212.847014 Z M35.691785,213.243657 L36.3141054,210.850433 L36.331886,210.850433 L36.9497613,213.243657 L37.5009594,213.243657 L38.4166594,210.061605 L37.8299002,210.061605 L37.2342506,212.481569 L37.21647,212.481569 L36.5897045,210.061605 L36.0518418,210.061605 L35.4250762,212.481569 L35.4072956,212.481569 L34.8116461,210.061605 L34.2248868,210.061605 L35.1361417,213.243657 L35.691785,213.243657 Z M41.114863,213.243657 L41.114863,212.797991 L39.2701275,212.797991 L39.2701275,211.835353 L40.932612,211.835353 L40.932612,211.389688 L39.2701275,211.389688 L39.2701275,210.50727 L41.0392955,210.50727 L41.0392955,210.061605 L38.7500454,210.061605 L38.7500454,213.243657 L41.114863,213.243657 Z M42.1239111,213.243657 L42.1239111,211.94677 L42.9462631,211.94677 C43.124069,211.94677 43.2618685,211.982423 43.3552166,212.062643 C43.4441195,212.138406 43.4974612,212.263192 43.5152418,212.437002 L43.5552481,212.829188 C43.5730287,213.007454 43.6174802,213.14561 43.6930477,213.243657 L44.2575812,213.243657 C44.1508977,213.127784 44.0842205,212.971801 44.0664399,212.775708 L44.0130982,212.263192 C43.977537,211.951227 43.8219569,211.768504 43.5463578,211.70611 L43.5463578,211.697197 C43.7152734,211.652631 43.8530729,211.559041 43.9508661,211.416428 C44.039769,211.287185 44.0842205,211.140115 44.0842205,210.975219 C44.0842205,210.672166 43.9819821,210.44042 43.7863957,210.279981 C43.5996996,210.132911 43.3418811,210.061605 43.0173855,210.061605 L41.6038291,210.061605 L41.6038291,213.243657 L42.1239111,213.243657 Z M42.9462631,211.501104 L42.1239111,211.501104 L42.1239111,210.50727 L42.9462631,210.50727 C43.1596301,210.50727 43.3152103,210.542923 43.4130035,210.623143 C43.5107967,210.698906 43.5596933,210.823693 43.5596933,210.997502 C43.5596933,211.157942 43.5107967,211.282728 43.4130035,211.371861 C43.30632,211.456538 43.1507399,211.501104 42.9462631,211.501104 Z" id="POWER" fill="#999999" fill-rule="nonzero"></path>
            <path d="M28.6217804,5.41495562 L28.6217804,4.11806887 L29.4441324,4.11806887 C29.6219382,4.11806887 29.7597377,4.15372212 29.8530858,4.23394192 C29.9419887,4.30970506 29.9953305,4.43449141 30.0131111,4.60830098 L30.0531174,5.00048666 C30.070898,5.17875288 30.1153494,5.3169092 30.1909169,5.41495562 L30.7554504,5.41495562 C30.6487669,5.29908258 30.5820897,5.14309964 30.5643092,4.9470068 L30.5109674,4.43449141 C30.4754062,4.12252553 30.3198261,3.93980265 30.0442271,3.87740948 L30.0442271,3.86849617 C30.2131426,3.82392961 30.3509422,3.73033985 30.4487354,3.58772687 C30.5376383,3.45848386 30.5820897,3.31141423 30.5820897,3.14651798 C30.5820897,2.8434654 30.4798514,2.61171932 30.284265,2.45127972 C30.0975688,2.30421009 29.8397504,2.2329036 29.5152547,2.2329036 L28.1016983,2.2329036 L28.1016983,5.41495562 L28.6217804,5.41495562 Z M29.4441324,3.67240333 L28.6217804,3.67240333 L28.6217804,2.67856915 L29.4441324,2.67856915 C29.6574994,2.67856915 29.8130795,2.7142224 29.9108727,2.79444219 C30.0086659,2.87020534 30.0575625,2.99499169 30.0575625,3.16880126 C30.0575625,3.32924085 30.0086659,3.45402721 29.9108727,3.54316032 C29.8041892,3.62783677 29.6486091,3.67240333 29.4441324,3.67240333 Z M33.5647827,5.41495562 L33.5647827,4.96929007 L31.7200471,4.96929007 L31.7200471,4.00665249 L33.3825317,4.00665249 L33.3825317,3.56098694 L31.7200471,3.56098694 L31.7200471,2.67856915 L33.4892152,2.67856915 L33.4892152,2.2329036 L31.199965,2.2329036 L31.199965,5.41495562 L33.5647827,5.41495562 Z M35.2272672,5.4773488 C35.6317755,5.4773488 35.9473809,5.39267234 36.1696382,5.23223275 C36.3918955,5.06733649 36.5030241,4.84004706 36.5030241,4.55482111 C36.5030241,4.26068185 36.3652246,4.03339242 36.0896255,3.86849617 C35.9651615,3.79718968 35.6895624,3.69022995 35.2583833,3.55653028 C34.9650036,3.46294052 34.7827526,3.39609069 34.7160755,3.36043744 C34.5649405,3.28021764 34.4938182,3.16880126 34.4938182,3.03510159 C34.4938182,2.8835753 34.5560502,2.77215892 34.6894046,2.70530908 C34.7960881,2.64737256 34.947223,2.62063263 35.1472546,2.62063263 C35.3784022,2.62063263 35.556208,2.66074253 35.6717818,2.74987564 C35.7873556,2.83455209 35.8718134,2.97716507 35.9162649,3.17325791 L36.4319018,3.17325791 C36.4007858,2.82563878 36.2718765,2.56715276 36.0496192,2.40225651 C35.8406974,2.24627357 35.5473177,2.17051043 35.1739255,2.17051043 C34.8316493,2.17051043 34.5516051,2.24627357 34.3293478,2.40225651 C34.0893099,2.56269611 33.9737361,2.78552888 33.9737361,3.06629818 C33.9737361,3.34706747 34.093755,3.56098694 34.3382381,3.70805657 C34.4315861,3.76153644 34.6760691,3.85066955 35.067242,3.9754559 C35.4184085,4.08241563 35.6228852,4.15372212 35.6851173,4.18491871 C35.8807037,4.28296513 35.982942,4.41666479 35.982942,4.5860177 C35.982942,4.71971737 35.9118197,4.82222044 35.7784653,4.90244024 C35.645111,4.97820338 35.4584148,5.01831328 35.2272672,5.01831328 C34.9650036,5.01831328 34.7738624,4.96929007 34.6493983,4.88015696 C34.5115987,4.77765389 34.427141,4.60384432 34.3915798,4.36318493 L33.8759429,4.36318493 C33.8981686,4.76874058 34.0448584,5.06287984 34.3115672,5.25005937 C34.5293793,5.40158566 34.8360944,5.4773488 35.2272672,5.4773488 Z M39.3123563,5.41495562 L39.3123563,4.96929007 L37.4676208,4.96929007 L37.4676208,4.00665249 L39.1301054,4.00665249 L39.1301054,3.56098694 L37.4676208,3.56098694 L37.4676208,2.67856915 L39.2367889,2.67856915 L39.2367889,2.2329036 L36.9475387,2.2329036 L36.9475387,5.41495562 L39.3123563,5.41495562 Z M41.1170856,5.41495562 L41.1170856,2.67856915 L42.1572497,2.67856915 L42.1572497,2.2329036 L39.5568394,2.2329036 L39.5568394,2.67856915 L40.5970035,2.67856915 L40.5970035,5.41495562 L41.1170856,5.41495562 Z" id="RESET" fill="#999999" fill-rule="nonzero"></path>
            <ellipse id="椭圆形备份-2" fill-opacity="0.5" fill="#999999" cx="35.5628758" cy="10.1315827" rx="1.66692972" ry="1.67124581"></ellipse>
            <ellipse id="椭圆形备份-3" fill-opacity="0.5" fill="#999999" cx="32.7846596" cy="200.690744" rx="5.55643241" ry="5.57081936"></ellipse>
            <path d="M35.5628758,133.955518 L35.5631092,135.975518 L38.6109758,135.975868 L38.6111092,140.016518 L40.6430425,140.016569 L40.6431092,141.026518 L42.6751092,141.026745 L42.6751092,147.087796 L40.6431092,147.087518 L40.6430425,148.097971 L38.6111092,148.097518 L38.6109758,152.138672 L35.5631092,152.138518 L35.5628758,154.159023 L30.482709,154.159023 L30.4831092,152.138518 L28.4506423,152.138672 L28.4506423,135.975868 L30.4831092,135.975518 L30.482709,133.955518 L35.5628758,133.955518 Z M35.0887269,148.780167 L30.3472379,148.780167 L30.3472379,149.8297 L35.0887269,149.8297 L35.0887269,148.780167 Z M35.0887269,146.681102 L30.3472379,146.681102 L30.3472379,147.730635 L35.0887269,147.730635 L35.0887269,146.681102 Z M35.0887269,144.582037 L30.3472379,144.582037 L30.3472379,145.631569 L35.0887269,145.631569 L35.0887269,144.582037 Z M35.0887269,142.482971 L30.3472379,142.482971 L30.3472379,143.532504 L35.0887269,143.532504 L35.0887269,142.482971 Z M35.0887269,140.383906 L30.3472379,140.383906 L30.3472379,141.433438 L35.0887269,141.433438 L35.0887269,140.383906 Z M35.0887269,138.28484 L30.3472379,138.28484 L30.3472379,139.334373 L35.0887269,139.334373 L35.0887269,138.28484 Z" id="形状结合备份-2" fill-opacity="0.5" fill="#999999"></path>
            <path d="M35.5628758,110.186689 L35.5631092,112.206689 L38.6109758,112.207039 L38.6111092,116.247689 L40.6430425,116.24774 L40.6431092,117.257689 L42.6751092,117.257915 L42.6751092,123.318967 L40.6431092,123.318689 L40.6430425,124.329142 L38.6111092,124.328689 L38.6109758,128.369843 L35.5631092,128.369689 L35.5628758,130.390193 L30.482709,130.390193 L30.4831092,128.369689 L28.4506423,128.369843 L28.4506423,112.207039 L30.4831092,112.206689 L30.482709,110.186689 L35.5628758,110.186689 Z M35.0887269,125.011338 L30.3472379,125.011338 L30.3472379,126.060871 L35.0887269,126.060871 L35.0887269,125.011338 Z M35.0887269,122.912273 L30.3472379,122.912273 L30.3472379,123.961805 L35.0887269,123.961805 L35.0887269,122.912273 Z M35.0887269,120.813207 L30.3472379,120.813207 L30.3472379,121.86274 L35.0887269,121.86274 L35.0887269,120.813207 Z M35.0887269,118.714142 L30.3472379,118.714142 L30.3472379,119.763675 L35.0887269,119.763675 L35.0887269,118.714142 Z M35.0887269,116.615076 L30.3472379,116.615076 L30.3472379,117.664609 L35.0887269,117.664609 L35.0887269,116.615076 Z M35.0887269,114.516011 L30.3472379,114.516011 L30.3472379,115.565544 L35.0887269,115.565544 L35.0887269,114.516011 Z" id="形状结合备份" fill-opacity="0.5" fill="#999999"></path>
            <path d="M35.5628758,86.4178593 L35.5631092,88.4378593 L38.6109758,88.4382097 L38.6111092,92.4788593 L40.6430425,92.4789107 L40.6431092,93.4888593 L42.6751092,93.489086 L42.6751092,99.5501374 L40.6431092,99.5498593 L40.6430425,100.560313 L38.6111092,100.559859 L38.6109758,104.601014 L35.5631092,104.600859 L35.5628758,106.621364 L30.482709,106.621364 L30.4831092,104.600859 L28.4506423,104.601014 L28.4506423,88.4382097 L30.4831092,88.4378593 L30.482709,86.4178593 L35.5628758,86.4178593 Z M35.0887269,101.242509 L30.3472379,101.242509 L30.3472379,102.292042 L35.0887269,102.292042 L35.0887269,101.242509 Z M35.0887269,99.1434435 L30.3472379,99.1434435 L30.3472379,100.192976 L35.0887269,100.192976 L35.0887269,99.1434435 Z M35.0887269,97.0443781 L30.3472379,97.0443781 L30.3472379,98.0939108 L35.0887269,98.0939108 L35.0887269,97.0443781 Z M35.0887269,94.9453126 L30.3472379,94.9453126 L30.3472379,95.9948453 L35.0887269,95.9948453 L35.0887269,94.9453126 Z M35.0887269,92.8462472 L30.3472379,92.8462472 L30.3472379,93.8957799 L35.0887269,93.8957799 L35.0887269,92.8462472 Z M35.0887269,90.7471817 L30.3472379,90.7471817 L30.3472379,91.7967144 L35.0887269,91.7967144 L35.0887269,90.7471817 Z" id="形状结合" fill-opacity="0.5" fill="#999999"></path>
            <path d="M35.5628758,62.64903 L35.5631092,64.66903 L38.6109758,64.6693805 L38.6111092,68.71003 L40.6430425,68.7100814 L40.6431092,69.72003 L42.6751092,69.7202567 L42.6751092,75.7813082 L40.6431092,75.78103 L40.6430425,76.7914834 L38.6111092,76.79103 L38.6109758,80.8321844 L35.5631092,80.83203 L35.5628758,82.8525349 L30.482709,82.8525349 L30.4831092,80.83203 L28.4506423,80.8321844 L28.4506423,64.6693805 L30.4831092,64.66903 L30.482709,62.64903 L35.5628758,62.64903 Z M35.0887269,77.4736797 L30.3472379,77.4736797 L30.3472379,78.5232124 L35.0887269,78.5232124 L35.0887269,77.4736797 Z M35.0887269,75.3746142 L30.3472379,75.3746142 L30.3472379,76.4241469 L35.0887269,76.4241469 L35.0887269,75.3746142 Z M35.0887269,73.2755488 L30.3472379,73.2755488 L30.3472379,74.3250815 L35.0887269,74.3250815 L35.0887269,73.2755488 Z M35.0887269,71.1764833 L30.3472379,71.1764833 L30.3472379,72.2260161 L35.0887269,72.2260161 L35.0887269,71.1764833 Z M35.0887269,69.0774179 L30.3472379,69.0774179 L30.3472379,70.1269506 L35.0887269,70.1269506 L35.0887269,69.0774179 Z M35.0887269,66.9783525 L30.3472379,66.9783525 L30.3472379,68.0278852 L35.0887269,68.0278852 L35.0887269,66.9783525 Z" id="形状结合" fill-opacity="0.5" fill="#999999"></path>
            <path d="M35.5628758,156.535906 L35.5631092,158.555906 L38.6109758,158.556256 L38.6111092,162.596906 L40.6430425,162.596957 L40.6431092,163.606906 L42.6751092,163.607132 L42.6751092,169.668184 L40.6431092,169.667906 L40.6430425,170.678359 L38.6111092,170.677906 L38.6109758,174.71906 L35.5631092,174.718906 L35.5628758,176.739411 L30.482709,176.739411 L30.4831092,174.718906 L28.4506423,174.71906 L28.4506423,158.556256 L30.4831092,158.555906 L30.482709,156.535906 L35.5628758,156.535906 Z M35.0887269,171.360555 L30.3472379,171.360555 L30.3472379,172.410088 L35.0887269,172.410088 L35.0887269,171.360555 Z M35.0887269,169.26149 L30.3472379,169.26149 L30.3472379,170.311023 L35.0887269,170.311023 L35.0887269,169.26149 Z M35.0887269,167.162424 L30.3472379,167.162424 L30.3472379,168.211957 L35.0887269,168.211957 L35.0887269,167.162424 Z M35.0887269,165.063359 L30.3472379,165.063359 L30.3472379,166.112892 L35.0887269,166.112892 L35.0887269,165.063359 Z M35.0887269,162.964294 L30.3472379,162.964294 L30.3472379,164.013826 L35.0887269,164.013826 L35.0887269,162.964294 Z M35.0887269,160.865228 L30.3472379,160.865228 L30.3472379,161.914761 L35.0887269,161.914761 L35.0887269,160.865228 Z" id="形状结合" fill-opacity="0.5" fill="#FF5B5B"></path>
            <polygon id="直线-15" fill="#999999" fill-rule="nonzero" points="25.5612974 155.938495 25.5612974 157.052659 23.3381318 157.051689 23.3381318 180.635122 28.3395136 180.635794 28.3395136 181.749958 22.227438 181.749958 22.227438 155.938495"></polygon>
            <polygon id="直线-15备份" fill="#999999" fill-rule="nonzero" points="47.7870271 155.938495 47.7870271 181.749958 42.2305946 181.749958 42.2305946 180.635794 46.6757406 180.635122 46.6757406 157.051689 44.4531676 157.052659 44.4531676 155.938495"></polygon>
            <polygon id="直线-15" fill="#999999" fill-rule="nonzero" transform="translate(25.283476, 105.206900) scale(1, -1) translate(-25.283476, -105.206900) " points="25.5612974 56.7036325 25.5612974 57.8177964 23.3381318 57.816827 23.3381318 152.595034 28.3395136 152.596003 28.3395136 153.710167 22.227438 153.710167 22.227438 56.7036325"></polygon>
            <polygon id="直线-15备份" fill="#999999" fill-rule="nonzero" transform="translate(45.008811, 105.206900) scale(1, -1) translate(-45.008811, -105.206900) " points="47.7870271 56.7036325 47.7870271 153.710167 42.2305946 153.710167 42.2305946 152.596003 46.6757406 152.595034 46.6757406 57.816827 44.4531676 57.8177964 44.4531676 56.7036325"></polygon>
        </g>
        <path d="M158,227.498739 C158,236.612016 165.387984,244 174.498739,244 C183.612016,244 191,236.612016 191,227.498739 C191,218.387984 183.612016,211 174.498739,211 C165.387984,211 158,218.387984 158,227.498739" id="Fill-20备份-2" stroke="#F84343" stroke-width="2" stroke-linejoin="round"></path>
        <path d="M98.5,118.596923 L98.5,153.286024 L92.5357464,153.499361 L92.5357133,153.477751 C91.3146605,155.351521 89.0590573,156.596923 86.5,156.596923 C83.9513878,156.596923 81.7037577,155.361667 80.4792901,153.500663 L74.5,153.5 L74.5,118.596923 L98.5,118.596923 Z M86.5,137.596923 C83.713541,137.596923 81.5,139.564522 81.5,141.930276 L81.5,141.930276 L81.5,150.26357 C81.5,152.629324 83.713541,154.596923 86.5,154.596923 C89.286459,154.596923 91.5,152.629324 91.5,150.26357 L91.5,150.26357 L91.5,141.930276 C91.5,139.564522 89.286459,137.596923 86.5,137.596923 Z M96.499,120.596 L76.499,120.596 L76.499,151.5 L79.6326558,151.500659 C79.545652,151.101111 79.5,150.687538 79.5,150.26357 L79.5,150.26357 L79.5,141.930276 C79.5,138.404052 82.658008,135.596923 86.5,135.596923 C90.341992,135.596923 93.5,138.404052 93.5,141.930276 L93.5,141.930276 L93.5,150.26357 C93.5,150.676213 93.4567543,151.079009 93.3742275,151.468612 L96.499,151.356 L96.499,120.596 Z M91.67,125.773462 L91.67,129.424231 L90.2819231,129.424231 L90.2819231,125.773462 L91.67,125.773462 Z M83.3426923,125.773462 L83.3426923,129.424231 L81.9546154,129.424231 L81.9546154,125.773462 L83.3426923,125.773462 Z" id="形状结合" fill="#999999" fill-rule="nonzero"></path>
        <path d="M86.5,156.5 L86.5,203.5 C86.5,215.650264 96.3497355,225.5 108.5,225.5 L120,225.5 L120,225.5" id="直线" stroke="#979797" stroke-width="2" stroke-linecap="square"></path>
        <path d="M141.597346,202 C142.544423,202 143.320719,202.728942 143.395981,203.656573 L143.401962,203.804615 L143.400308,213.775 L143.997462,213.775115 C144.918231,213.775115 145.673426,214.485313 145.746644,215.386338 L145.752462,215.530115 L145.752462,230.077808 C145.752462,230.999673 145.043305,231.754923 144.141395,231.828143 L143.997462,231.833962 L143.780308,231.833 L143.780654,241.003462 C143.780654,241.665481 143.277649,242.209862 142.632921,242.275323 L142.502192,242.281923 L141.961308,242.281 L141.961846,249.001229 C141.961846,249.18581 141.690692,249.335385 141.354923,249.335385 L137.109923,249.335385 C136.775308,249.335385 136.504154,249.18581 136.504154,249.001229 L136.503308,242.281 L136.405269,242.281923 C135.74325,242.281923 135.198869,241.778918 135.133407,241.13419 L135.126808,241.003462 L135.126308,231.833 L134.862462,231.833962 C133.940596,231.833962 133.185346,231.124805 133.112126,230.221906 L133.106308,230.077808 L133.106308,215.530115 C133.106308,214.610442 133.815464,213.854261 134.718364,213.780942 L134.862462,213.775115 L135.510308,213.775 L135.511962,203.804615 C135.511962,202.857538 136.240904,202.081242 137.169524,202.00598 L137.317731,202 L141.597346,202 Z M142.473308,231.833 L136.404308,231.833 L136.407308,232.803 L138.273115,232.803769 C138.584654,232.803769 138.836192,233.054154 138.836192,233.365692 C138.836192,233.677231 138.584654,233.927615 138.273115,233.927615 L136.411308,233.927 L136.416191,235.36266 C136.432737,235.361205 136.449492,235.360462 136.466423,235.360462 L138.357577,235.360462 C138.667962,235.360462 138.9195,235.612 138.9195,235.923538 C138.9195,236.233923 138.667962,236.485462 138.357577,236.485462 L136.466423,236.485462 L136.419308,236.481 L136.424149,237.919855 C136.438103,237.91883 136.452201,237.918308 136.466423,237.918308 L138.357577,237.918308 C138.667962,237.918308 138.9195,238.168692 138.9195,238.480231 C138.9195,238.791769 138.667962,239.043308 138.357577,239.043308 L136.466423,239.043308 L136.428308,239.04 L136.435269,241.003462 L142.502192,240.973462 L142.495308,239.043 L140.615885,239.043308 C140.304346,239.043308 140.052808,238.791769 140.052808,238.480231 C140.052808,238.168692 140.304346,237.918308 140.615885,237.918308 L142.491308,237.918 L142.487308,236.485 L140.615885,236.485462 C140.304346,236.485462 140.052808,236.233923 140.052808,235.923538 C140.052808,235.612 140.304346,235.360462 140.615885,235.360462 L142.484308,235.36 L142.480308,233.927 L140.760115,233.927615 C140.448577,233.927615 140.197038,233.677231 140.197038,233.365692 C140.197038,233.054154 140.448577,232.803769 140.760115,232.803769 L142.476308,232.803 L142.473308,231.833 Z M143.997462,215.410115 L134.862462,215.410115 C134.808923,215.410115 134.763508,215.444823 134.747483,215.49238 L134.741308,215.530115 L134.741308,230.077808 C134.741308,230.131346 134.776015,230.176023 134.824163,230.191752 L134.862462,230.197808 L143.997462,230.197808 C144.051,230.197808 144.095677,230.163838 144.111406,230.115986 L144.117462,230.077808 L144.117462,215.530115 C144.117462,215.464346 144.064385,215.410115 143.997462,215.410115 Z M141.597346,203.635 L137.317731,203.635 C137.242038,203.635 137.178162,203.683738 137.155638,203.751086 L137.146962,203.804615 L137.145308,213.775 L141.765308,213.775 L141.766962,203.804615 C141.766962,203.729846 141.718223,203.666154 141.650875,203.643668 L141.597346,203.635 Z" id="形状结合" fill="#999999" fill-rule="nonzero" transform="translate(139.429385, 225.667692) rotate(-270.000000) translate(-139.429385, -225.667692) "></path>
    </g>
</svg>