<svg xmlns="http://www.w3.org/2000/svg" width="240" height="240"><defs><linearGradient id="a" x1="50.882%" x2="51.858%" y1="2.711%" y2="96.331%"><stop offset="0%" stop-color="#999" stop-opacity="0"/><stop offset="62.534%" stop-color="#999"/><stop offset="85.346%" stop-color="#999"/><stop offset="100%" stop-color="#999" stop-opacity="0"/></linearGradient></defs><g fill="none" fill-rule="nonzero" opacity=".7"><path fill="url(#a)" d="m38.767 18.69 22.52 112.462a7.753 7.753 0 0 0 7.886 6.226l34.633-1.266a4.43 4.43 0 0 0 4.268-4.344l2.136-114.184 2.759 119.019c.007.308-.007.616-.043.922l-2.716 23.326-1.776-16.855a4.43 4.43 0 0 0-4.622-3.96l-36.748 1.79a11.076 11.076 0 0 0-7.548 3.494l-20.749 22.17L56.121 142a6.646 6.646 0 0 0 1.073-4.76L38.767 18.69Z" transform="translate(60 31)"/><path fill="#999" d="M96.35 31c-5.504.119-10.076 1.404-12.642 3.967-2.615 2.612-4.072 6.35-4.473 13.174l-.05 1.021-4.932 154.877a4.426 4.426 0 0 0 3.125 4.37l1.984.61a22.245 22.245 0 0 0 8.17.92l78.9-5.817.135-.027c4.081-.815 7.041-2.082 8.885-3.924 3.01-3.007 4.697-9.423 4.538-18.208l-2.782-128.331-.015-1.049-.024-1.004-.014-.485-.037-.94-.046-.901-.056-.862c-.01-.14-.02-.28-.032-.418l-.073-.807c-.567-5.667-2.073-8.718-5.747-12.055l-.471-.42-.417-.354a21.093 21.093 0 0 0-.205-.169l-.407-.32a16.44 16.44 0 0 0-.203-.153l-.403-.289c-1.412-.974-2.833-1.57-4.743-1.926l-.56-.095c-.19-.03-.387-.058-.588-.083l-.62-.071-.654-.06-.69-.05-.73-.04-.771-.03a68.931 68.931 0 0 0-.402-.013l-.838-.02-.885-.012-.936-.006h-60.29Zm.049 4.425 60.628.002.81.006 1.121.017 1.017.03.92.045.565.038.529.047.495.055.464.064.22.035.423.08c.888.181 1.604.438 2.266.796l.303.172c.15.09.297.186.445.288l.295.211.147.112.299.237.458.387.157.138c.14.125.276.248.409.371l.385.368c1.87 1.834 2.89 3.613 3.436 6.44l.103.579c.065.396.122.812.171 1.25l.07.676.059.71.026.37.045.768.02.399.034.83.036 1.327.023 1.431 2.77 127.802c.06 2.258-.009 4.319-.185 6.158l-.09.834c-.497 4.224-1.584 7.175-2.954 8.544l-.15.144c-1.101.999-3.118 1.857-6.047 2.482l-.3.061-78.616 5.798a17.81 17.81 0 0 1-6.541-.738l-1.984-.61 4.93-154.855.046-.915c.017-.297.036-.586.056-.867l.069-.82c.431-4.656 1.453-7.022 3.059-8.626 1.577-1.575 5.135-2.575 9.558-2.671Z"/><path fill="#999" d="m98.693 31.076.067 4.425-21.49.325-.744.018-.69.024-.641.03-.594.039c-.475.035-.903.08-1.293.133l-.448.07c-1.509.262-2.376.715-3.149 1.48l-.218.228-.216.246c-.292.343-.565.818-.817 1.435l-.148.387c-.049.134-.096.275-.143.42l-.137.457-.067.24-.128.51c-.042.175-.083.357-.123.544l-.116.581-.11.618-.102.654-.097.692-.045.36-.086.749-.078.787-.07.827c-.012.14-.022.283-.033.428l-.06.885-.05.926-.023.477-.039.987-2.362 68.632 4.076 10.87c.077.204.123.419.136.636l.003.218-2.442 69.033 11.994 3.481-1.236 4.25-11.995-3.481a4.426 4.426 0 0 1-3.193-4.182l.002-.224 2.427-68.593-4.076-10.868a2.21 2.21 0 0 1-.136-.635l-.003-.217 2.398-69.621.048-1.068.058-1.028c.02-.336.044-.666.068-.989l.078-.95.089-.91c.53-5.058 1.56-8.3 3.16-10.181 1.914-2.255 3.902-3.256 7.761-3.64l.7-.062c.241-.019.488-.035.743-.05l.785-.038.83-.028.878-.019 21.097-.318Z"/></g></svg>