<svg xmlns="http://www.w3.org/2000/svg" width="240" height="240"><g fill="none" fill-rule="nonzero"><path fill="#999" d="M108.758 10.123 150 22.225V19a2 2 0 0 1 2-2h49a2 2 0 0 1 2 2v26.997a2 2 0 0 1-1.753 1.985l-23.762 2.958a4 4 0 0 1-.97.002l-12.63-1.515.752 6.835.467 4.353.651 6.228.497 4.912.391 3.987.291 3.06.464 5.072.238 2.739.271 3.26.241 3.079.211 2.896.148 2.187.128 2.071.083 1.477.095 1.867.058 1.325.047 1.26.037 1.193.026 1.129.017 1.404.002.658-.007.933-.01.586v68.33l-.006.154-2.525 32.72c-.173 1.57-1.73 2.946-4.625 4.32l-.558.257-.59.258a41.18 41.18 0 0 1-.943.387l-.667.26-.346.13-.714.261-.745.263-.776.265-.807.267-1.268.405-1.031.318a141.143 141.143 0 0 1-5.805 1.618l-1.4.353-1.438.351c-.485.117-.976.233-1.474.348l-1.51.345-.768.171-1.562.34-.793.168-1.612.333-1.643.328-1.675.324-1.704.32-.863.157-1.748.31-.884.154-1.788.302-.904.15-1.828.292-1.286.2-.75.11-1.186.165-1.259.163-1.79.217-1.921.214-1.009.106-1.574.158-2.211.21-2.34.207-3.109.256-2.632.203-3.473.25-2.924.198-3.054.196-4 .243-.215.007a4.02 4.02 0 0 1-3.744-2.491l-6.104-.636a2.01 2.01 0 0 1-1.86 1.243 2.007 2.007 0 0 1-2.004-1.854l-.005-.15v-84.128c0-1.19-.06-2.428-.178-3.733l-.085-.879-.098-.875-.114-.89-.086-.612-.145-.959-.168-1.026-.193-1.111-.3-1.65-.788-4.164-.362-1.98-.243-1.4-.156-.956-.135-.889-.115-.832-.097-.785-.055-.502-.069-.73-.052-.71-.015-.234-.033-.7-.021-.705-.01-.72.006-5.882.025-8.58.03-5.557.05-6.765.065-6.562.08-6.36.075-4.94.085-4.812.095-4.683.105-4.552.084-3.33.122-4.325.097-3.159.139-4.098.036-1.005c.008-.218.051-.434.13-.638.399-1.05.881-2.146 1.455-3.316l.395-.792c.137-.267.278-.539.424-.814l.452-.84c.077-.143.156-.286.236-.43l.495-.882c.17-.299.345-.603.525-.911l.555-.943.586-.976.617-1.01.986-1.586.698-1.106.523-.81.56-.842.294-.431.607-.878c.207-.296.418-.593.632-.893l.651-.9.665-.9.672-.893c.337-.444.676-.882 1.012-1.311l.668-.845.658-.813c1.192-1.455 2.3-2.714 3.175-3.574a2.014 2.014 0 0 1 1.91-.516l.155.046 9.12 3.123 1.28.311.214-.326c.047-.072.102-.137.164-.193l-.21.472.375-.84a92.069 92.069 0 0 0 1.317-3.173 3.016 3.016 0 0 1 3.653-1.78Zm-.255 4.101-.084.21a92.703 92.703 0 0 1-6.602 13.149 123.801 123.801 0 0 1-8.644 12.478l-.33.41.024-.027.109 2.898.082 2.468.074 2.498.067 2.53.059 2.562.026 1.292.047 2.608.02 1.316.035 2.654.028 2.687.026 4.087.008 4.158-.005 2.81-.012 2.843-.02 2.873-.028 2.905c-.005.486-.01.974-.017 1.464l-.04 2.95-.047 2.983-.027 1.503-.06 3.03-.067 3.06-.116 4.65-.133 4.72-.151 4.79-.111 3.231c-.081 2.306-.34 4.804-.764 7.67l-.052.353-.167 1.074-.184 1.118-.279 1.622-.482 2.688-.83 4.67-.243 1.465-.16 1.03-.146 1.053-.072.613-.065.695-.036.517-.018.38c-.013.338-.018.671-.018 1.022v3.701l.013 25.494.062 36.633.054 18.182.81-.048 4.69-.29 2.966-.195 3.523-.247 2.673-.2 3.158-.252 2.956-.255 2.217-.206 1.06-.103 2.023-.21 1.892-.21 1.762-.212 1.236-.16 1.162-.161 1.09-.163 1.811-.285 1.787-.291 1.761-.298.87-.15 1.72-.307 1.691-.31 1.662-.317.819-.16 1.615-.322.796-.163 1.566-.33 1.534-.332 1.498-.336 1.463-.34 1.427-.342 1.39-.344c.456-.116.907-.231 1.35-.348l1.312-.349 1.271-.35 1.23-.352.599-.177 1.166-.354 1.004-.316.485-.158.937-.312c.305-.104.602-.208.89-.31l.845-.307.795-.302c.257-.1.506-.2.746-.298l.696-.292a26.622 26.622 0 0 0 1.51-.705c.804-.41 1.389-.778 1.728-1.071l.057-.051 2.487-32.21.001-68.3.013-.869.003-.934-.013-1.35-.032-1.464-.051-1.582-.07-1.699-.066-1.35-.132-2.396-.127-2.048-.146-2.164-.165-2.28-.233-3.014-.32-3.856-.175-2.026-.451-4.98-.434-4.55-.506-5.11-.513-5.004-.44-4.184-.587-5.456-.628-5.707-.106-.934-8.023-.961A2 2 0 0 1 150 45.989V26.402l-41.497-12.178ZM95.36 18.162 81.246 41.334l-1.188 183.593 2.006.209v-17.05c0-.554.45-1.002 1.005-1.002.515 0 .94.386.998.884l.007.117v17.26l1.13.118-.043-14.517-.055-27.65-.027-41.312c0-.247.002-.484.006-.718l.007-.28.022-.555.016-.28.03-.422.07-.743.055-.482.09-.698.177-1.198.03-.182 1.507-95.388a.999.999 0 0 1 .106-.433l.056-.097 13.67-20.979-1.608-.55-14.238 22.37-1.001 106.153a1.003 1.003 0 0 1-.897.986l-.117.006a1.004 1.004 0 0 1-.99-.894l-.006-.117 1.005-106.44a.999.999 0 0 1 .09-.404l.066-.122L97.25 18.48l-1.89-.318ZM83.07 150.998c.514 0 .94.386.997.884l.007.117v52.08c0 .553-.45 1.002-1.005 1.002-.515 0-.94-.387-.998-.885l-.007-.117V152c0-.553.45-1.001 1.005-1.001Zm9.685-134.265-.104.115a59.193 59.193 0 0 0-1.998 2.337l-.726.901-.741.943-.748.975-.746.993a94.134 94.134 0 0 0-3.39 4.854l-.914 1.442-.64 1.025-.608.988-.577.953-.547.919-.262.447-.502.87c-.082.142-.162.284-.24.424l-.459.824-.43.797c-.07.13-.137.26-.204.388l-.388.756a50.22 50.22 0 0 0-.183.368l-.347.72c-.278.589-.527 1.154-.75 1.7l-.138.342-.128 3.72-.13 4.184-.15 5.415-.135 5.617-.12 5.82-.105 6.022-.089 6.225-.074 6.428-.06 6.63-.036 5.45-.02 4.173-.02 5.677-.01 5.806v2.952l.008.651.011.428.018.427.022.429.03.432.034.44.066.68.052.47.128.997.117.805.136.867.157.938.243 1.378.284 1.543.782 4.133.237 1.294.208 1.182.078.469.591-91.45c0-.135.03-.269.083-.392l.063-.12 14.258-23.412.046-.069-.933-.32Zm-3.73 28.794-1.232 78.105.179-1.208c.346-2.446.556-4.59.625-6.55l.11-3.222.103-3.19.094-3.16.087-3.128.079-3.096.071-3.066.063-3.034.08-4.493.063-4.422.032-2.909.033-4.305.012-2.83.003-1.405V70.83l-.007-2.752-.015-2.722-.023-2.69a869.1 869.1 0 0 0-.015-1.333l-.034-2.644-.043-2.612-.05-2.58-.059-2.55-.066-2.518-.074-2.487-.015-.415ZM163.754 24H157v18h3.567v-6.342h3.127c2.052 0 3.66-.509 4.82-1.527 1.162-1.018 1.742-2.408 1.742-4.172 0-1.162-.265-2.199-.796-3.11-.531-.91-1.29-1.613-2.277-2.107-.987-.495-2.13-.742-3.43-.742Zm13.542 3.6c-1.209 0-2.283.28-3.223.842-.94.562-1.667 1.367-2.181 2.416-.515 1.05-.773 2.264-.773 3.644v.693c.007 1.347.27 2.54.788 3.576s1.248 1.833 2.191 2.392c.943.558 2.016.837 3.218.837 1.216 0 2.293-.282 3.233-.847s1.662-1.367 2.167-2.406c.505-1.04.757-2.25.757-3.63v-.625c0-1.373-.257-2.585-.772-3.634s-1.242-1.854-2.182-2.416c-.94-.561-2.014-.842-3.223-.842Zm19.68-3.6h-11.897v18H197v-2.98h-8.258V34.2h7.036v-2.906h-7.036v-4.29h8.234V24Zm-19.68 6.3c.85 0 1.503.356 1.96 1.069.459.712.687 1.754.687 3.126v.637c-.005 1.36-.234 2.394-.686 3.104-.453.71-1.1 1.064-1.944 1.064-.86 0-1.519-.368-1.977-1.105-.458-.736-.687-1.772-.687-3.108v-.637c.006-1.36.237-2.391.695-3.095.458-.703 1.109-1.055 1.952-1.055Zm-13.459-3.136c.88.016 1.57.29 2.069.819.5.529.749 1.223.749 2.081 0 .834-.248 1.476-.743 1.925-.496.45-1.215.674-2.158.674h-3.186v-5.499Z" opacity=".7"/><path fill="#BCBCBC" d="M72.518 114.942c.038 8.241 2.982 17.76 2.982 27.058l.04 77.924-.035 6.024a2.317 2.317 0 0 0 .495 1.446l-1.624-.724A4.006 4.006 0 0 1 72 223.01V116.446c.346-30.714.518-31.215.518-1.503Z" opacity=".4"/><path fill="#999" d="m133.785 103.167-19.724-33.106 22.53 33.203a1.002 1.002 0 0 0 1.76-.195l8.37-21.232-6.165 21.378a31.048 31.048 0 0 0-1.216 8.604v70.06a6.01 6.01 0 0 0 .861 3.099l5.168 8.585-5.815-6.21a2.003 2.003 0 0 0-2.652-.243l-25.697 18.972 21.793-19.55a10.015 10.015 0 0 0 3.328-7.455v-66.683c0-3.248-.878-6.436-2.54-9.227Z" opacity=".7"/></g></svg>