<?xml version="1.0" encoding="UTF-8"?>
<svg width="60px" height="60px" viewBox="0 0 60 60" version="1.1" xmlns="http://www.w3.org/2000/svg" xmlns:xlink="http://www.w3.org/1999/xlink">
    <title>Icons/Mesh/ic_node_bee_offline</title>
    <g id="Icons/Mesh/ic_node_bee_offline" stroke="none" stroke-width="1" fill="none" fill-rule="evenodd">
        <path d="M30,0 C46.5685425,0 60,13.4314575 60,30 C60,46.5685425 46.5685425,60 30,60 C13.4314575,60 0,46.5685425 0,30 C0,13.4314575 13.4314575,0 30,0 Z M30,2 C14.536027,2 2,14.536027 2,30 C2,45.463973 14.536027,58 30,58 C45.463973,58 58,45.463973 58,30 C58,14.536027 45.463973,2 30,2 Z M41.9845899,18.6494683 C41.9948584,18.7661114 42,18.8831492 42,19.0002434 L42,21 L46.2105263,21 C48.3033948,21 50,22.790861 50,25 C50,27.209139 48.3033948,29 46.2105263,29 L42,29 L42,40.0695777 C42,42.2787167 40.209139,44.0695777 38,44.0695777 C37.9562716,44.0695777 37.9125462,44.0688606 37.8688413,44.0674268 L19.8688413,43.4768953 C17.7119204,43.4061325 16,41.6371276 16,39.4790462 L16,20.5848362 C16,18.5116453 17.584021,16.7820523 19.6492249,16.6002463 L37.6492249,15.0156535 C39.8498531,14.8219257 41.7908622,16.44884 41.9845899,18.6494683 Z M37.8246124,17.0079485 L24.601,18.171 L24.6308636,18.1932383 C24.5145946,18.3496341 24.4294616,18.4752137 24.4019755,18.526476 C23.9739265,19.3247984 23.8847247,20.2269622 24.1478525,21.2816459 C24.5857241,23.0367476 26.6096248,29.8990274 30.2042696,41.8138801 L37.9344207,42.0685022 C37.9672045,42.0695777 37.9672045,42.0695777 38,42.0695777 C39.1045695,42.0695777 40,41.1741472 40,40.0695777 L40,19.0002434 C40,18.9416963 39.9974292,18.8831774 39.992295,18.8248558 C39.8954311,17.7245417 38.9249266,16.9110846 37.8246124,17.0079485 Z M22.2917703,18.3755711 L19.8246124,18.5925413 C18.7920105,18.6834442 18,19.5482408 18,20.5848362 L18,39.4790462 C18,40.5580869 18.8559602,41.4425894 19.9344207,41.4779708 L28.0945086,41.7450473 C24.6063585,30.1777765 22.648791,23.5352551 22.2073326,21.7657766 C21.9061711,20.5586444 21.9320677,19.4204548 22.2917703,18.3755711 Z M42,27 L46.2105263,27 C47.1739205,27 48,26.1280272 48,25 C48,23.8719728 47.1739205,23 46.2105263,23 L42,23 L42,27 Z" id="形状结合" fill="#999999" fill-rule="nonzero"></path>
    </g>
</svg>