<?xml version="1.0" encoding="UTF-8"?>
<svg width="60px" height="60px" viewBox="0 0 60 60" version="1.1" xmlns="http://www.w3.org/2000/svg" xmlns:xlink="http://www.w3.org/1999/xlink">
    <title>Icons/Mesh/ic_node_m2</title>
    <g id="Icons/Mesh/ic_node_m2" stroke="none" stroke-width="1" fill="none" fill-rule="evenodd">
        <g id="Group-9"></g>
        <path d="M30,0 C46.5685425,0 60,13.4314575 60,30 C60,46.5685425 46.5685425,60 30,60 C13.4314575,60 0,46.5685425 0,30 C0,13.4314575 13.4314575,0 30,0 Z M30,2 C14.536027,2 2,14.536027 2,30 C2,45.463973 14.536027,58 30,58 C45.463973,58 58,45.463973 58,30 C58,14.536027 45.463973,2 30,2 Z M30,11.4348485 C37.3999616,11.4348485 43.4347364,14.0491842 43.7380417,17.3257205 L43.7533452,17.3250689 L43.7533452,40.7147322 C43.7533452,44.8971489 40.3757508,48.3021746 36.3255715,49.0247212 C34.9668778,49.2670696 32.3766128,49.5114796 30.2503855,49.5209736 L30.0573774,49.5209736 C27.5541604,49.5209736 24.9502931,49.3028978 23.8040892,49.0263731 C19.4300325,47.9697478 16.2388532,44.973024 16.2388532,40.7147322 L16.2388532,17.7500573 C16.2388532,17.6843843 16.242692,17.6193413 16.2502301,17.5550392 L16.25,17.5845671 C16.25,14.1879604 22.4061726,11.4348485 30,11.4348485 Z M18.2377465,23.2618584 L18.2388532,40.7147322 C18.2388532,43.9035495 20.7061316,46.2204835 24.2734258,47.0822221 C25.2378733,47.3148976 27.698461,47.5209736 30.0573774,47.5209736 L30.2459156,47.5209836 C32.250412,47.5120237 34.7264053,47.2783961 35.9743484,47.0558021 C39.1322101,46.4924438 41.7533452,43.850021 41.7533452,40.7147322 L41.7538232,23.2678326 C39.738369,25.465061 35.2329104,26.9951774 29.998521,26.9951774 C24.7593888,26.9951774 20.250509,25.462287 18.2377465,23.2618584 Z M30.3977273,42.6253444 C30.8370447,42.6253444 31.1931818,42.9814815 31.1931818,43.4207989 L31.1931818,44.9924242 C31.1931818,45.4317417 30.8370447,45.7878788 30.3977273,45.7878788 C29.9584099,45.7878788 29.6022727,45.4317417 29.6022727,44.9924242 L29.6022727,43.4207989 C29.6022727,42.9814815 29.9584099,42.6253444 30.3977273,42.6253444 Z M19.3546784,21.4776125 L19.4176386,21.5813771 C20.5501866,23.3122019 24.760535,24.9951774 29.998521,24.9951774 C35.3382838,24.9951774 39.6100862,23.2461642 40.6419204,21.4804423 C38.1196349,22.8565101 34.2891382,23.7350546 30,23.7350546 C25.7085617,23.7350546 21.8762569,22.8555676 19.3546784,21.4776125 Z M30,13.4348485 C23.3871136,13.4348485 18.25,15.7323696 18.25,17.5845671 C18.25,19.4370074 23.3874025,21.7350546 30,21.7350546 C36.6125975,21.7350546 41.75,19.4370074 41.75,17.5845671 C41.75,15.7323696 36.6128864,13.4348485 30,13.4348485 Z" id="形状结合" fill="#00D061" fill-rule="nonzero"></path>
    </g>
</svg>