<?xml version="1.0" encoding="UTF-8"?>
<svg width="70px" height="70px" viewBox="0 0 70 70" version="1.1" xmlns="http://www.w3.org/2000/svg" xmlns:xlink="http://www.w3.org/1999/xlink">
    <title>icon/ic_homepage_m6s_light</title>
    <g id="icon/ic_homepage_m6s_light" stroke="none" stroke-width="1" fill="none" fill-rule="evenodd">
        <g id="编组" transform="translate(13.000000, 2.000000)" fill="#333333" fill-rule="nonzero">
            <path d="M5.48179083,-0.748560016 L5.65119837,-0.747241197 L10.0982252,-0.497241197 C11.0631999,-0.442992893 11.8014895,0.383250576 11.7472412,1.34822524 C11.6957053,2.26495118 10.9474438,2.97709383 10.0454013,2.99950514 L9.90177476,2.9972412 L6.313,2.795 L6.24651021,2.87861374 C5.64741786,3.63230794 4.88367919,4.7112871 4.34686695,5.57594902 L4.01283566,6.13069103 L3.65416466,6.7438249 L3.33269464,7.31114571 C3.23164479,7.49293619 3.13665508,7.66756975 3.04758549,7.83552496 L2.79799705,8.31983419 C2.64325829,8.62998844 2.51163992,8.91534368 2.40202176,9.17972859 L2.32774015,9.36395201 L2.24036306,10.3814724 L2.15959974,11.4824802 L2.08560446,12.6746425 L2.00286293,14.3047117 L1.94465979,15.7300042 L1.89372608,17.2713691 L1.84051661,19.3729821 L1.80650318,21.2035423 L1.77493219,23.6909085 L1.75580442,26.4135466 L1.74966382,28.7711157 L1.75461306,32.2293297 L1.76163441,33.3118363 L1.77861972,33.7396509 L1.79861872,34.0366457 L1.84376805,34.525169 L1.90966356,35.0957536 L2.03478395,36.0433423 L2.2570205,37.661318 L2.33215849,38.2666435 L2.39273829,38.8178384 L2.43957383,39.3294487 C2.44627962,39.4122265 2.45244665,39.493961 2.45809186,39.5749553 L2.48583714,40.0544625 C2.48946295,40.133708 2.49260088,40.2128193 2.49526786,40.2920996 L2.5057542,40.7722321 L2.50701328,41.018364 L2.268,63.75 L5,63.75 C5.9181734,63.75 6.67119234,64.4571103 6.7441988,65.3564728 L6.75,65.5 C6.75,66.4181734 6.04288973,67.1711923 5.14352721,67.2441988 L5,67.25 L0.5,67.25 C-0.424993944,67.25 -1.18100871,66.5327474 -1.24553749,65.6262611 L-1.24990364,65.481636 L-0.99289036,41 L-0.997488838,40.5939657 L-1.01184947,40.1906811 L-1.03682006,39.7772868 L-1.07324841,39.3409232 L-1.12198232,38.8687311 L-1.18386958,38.3478508 L-1.259758,37.7654229 L-1.51215994,35.9308963 L-1.60104811,35.2204974 L-1.66551471,34.6150218 L-1.69639861,34.2504396 L-1.71863901,33.9036561 L-1.73312014,33.5631378 L-1.7422274,33.0388779 L-1.7503564,29.9262434 L-1.74633594,26.9494715 L-1.72936092,24.1517334 L-1.69220399,21.106416 L-1.63718465,18.3768891 L-1.60312565,17.1224278 L-1.55105576,15.5569029 L-1.50708722,14.4588667 L-1.44202104,13.0901204 L-1.35053476,11.5215259 L-1.24802443,10.0970515 L-1.15826436,9.05113458 C-1.15050167,8.96720324 -1.1426688,8.88405227 -1.13476611,8.80166164 C-1.12084315,8.65650566 -1.08883194,8.51365902 -1.03947682,8.37644321 C-0.838219991,7.81691429 -0.577090739,7.22988962 -0.243346332,6.57530168 L0.0608008124,5.99674567 C0.114554956,5.89725048 0.169865343,5.79614281 0.226769124,5.69330586 L0.587609752,5.05459818 C0.651035714,4.94437682 0.716129372,4.83219254 0.782927877,4.71792853 L1.20447428,4.00645315 C1.46705329,3.568444 1.78609861,3.07647402 2.12590912,2.58073621 L2.54136415,1.98725465 C3.17264301,1.10395653 3.82493243,0.27350082 4.29002344,-0.211386851 C4.60444839,-0.539195336 5.03227176,-0.730286609 5.48179083,-0.748560016 Z" id="路径-5备份-2"></path>
            <path d="M35.8376025,0.467279585 L11.641,-1.674 L11.4111511,-1.68541002 L11.2520508,-1.68446409 L11.1002027,-1.67247248 L10.9163305,-1.64548483 C9.98195122,-1.48165235 9.17686765,-0.840353041 8.82453702,0.0771966816 C8.34395807,1.32380369 7.78350297,2.51215057 7.14396966,3.640783 C6.36957967,5.00740712 5.53109385,6.28984746 4.62856964,7.48859052 C4.37354811,7.82731305 4.25017229,8.24710235 4.28137037,8.66994466 C4.50471697,11.6970666 4.64564481,14.968107 4.70400688,18.4826972 L4.72630676,20.2602864 C4.74172479,22.058168 4.73649526,23.9169217 4.71059979,25.8365014 L4.67781499,27.7763548 C4.66459005,28.4297299 4.64906822,29.0898617 4.63124881,29.7567486 L4.57089717,31.7776726 C4.55524443,32.2527979 4.49898447,32.7787693 4.40299347,33.3746814 L4.3040556,33.9405495 L4.17879666,34.5707012 L4.07712048,35.044003 L3.67379232,36.8412625 L3.47735466,37.7608521 L3.37194839,38.3182962 L3.33386885,38.5543148 L3.29234501,38.872049 L3.27366772,39.0685352 L3.25677392,39.3554464 L3.25,39.6512006 L3.25,64.2442822 C3.25,64.3254729 3.25565022,64.4065652 3.26690971,64.4869714 C3.52885978,66.3576076 5.13015281,67.7555169 7.02050003,67.7451896 L8.59193228,67.734503 L10.8896546,67.707069 L12.3818789,67.6811663 L13.8424524,67.6491643 L15.2713933,67.6110559 L17.3555341,67.5424277 L18.7054744,67.4890212 L20.0238467,67.4294827 L21.3106694,67.363805 L22.565961,67.2919806 L23.7897399,67.2140024 L24.9820244,67.129863 L26.1428331,67.0395551 L27.2721843,66.9430716 L28.3700965,66.840405 L29.4365881,66.7315481 L30.4716776,66.6164936 L31.4753832,66.4952342 C31.6400532,66.4745069 31.8034163,66.4535206 31.9654729,66.4322754 L32.9221375,66.301695 C33.0789696,66.2794133 33.234496,66.2568722 33.388717,66.2340716 L34.298382,66.0941539 L35.1767369,65.948002 L36.0238002,65.7956089 C36.1623708,65.7696895 36.2996384,65.7435098 36.4356033,65.7170695 L37.2357637,65.5553007 C37.4972752,65.5003349 37.7535791,65.4443259 38.0046785,65.3872723 L38.7423662,65.2129771 C38.9830597,65.1538334 39.2185516,65.0936441 39.4488452,65.0324078 C40.218514,64.8277488 40.7529256,64.1292145 40.7491179,63.3328096 L40.7368619,59.4530528 L40.739898,57.538607 L40.748927,56.5542297 C40.7532975,56.2727726 40.7449033,55.9675947 40.7243216,55.6248559 L40.6843805,55.0808472 L40.6265909,54.4701173 L40.3236745,51.73592 L40.3099458,51.4825828 L40.3023137,49.5409917 L40.2752956,47.2350596 L40.1387391,39.6026347 L40.1198708,37.3570649 L40.1256566,36.1210585 L40.141655,35.1529805 L40.1738083,34.0304853 L40.215789,33.2753309 L40.3525581,31.4887259 L40.4729526,29.9709749 L40.518359,29.3316441 L40.5543896,28.7527761 L40.581098,28.2258304 L40.5985377,27.7422669 L40.606762,27.2935452 C40.6073678,27.2211872 40.6075918,27.1499252 40.6074351,27.0795812 L40.6019368,26.6671092 L40.5271595,23.9148611 L40.4430649,21.3014478 L40.3496265,18.8267301 L40.2734,17.061627 L40.1635465,14.8292915 L40.1050901,13.7649997 L40.0442764,12.7352686 L39.9811018,11.7400808 L39.8476573,9.85326572 L39.7413522,8.52870116 L39.6675134,7.688743 L39.5912955,6.88323243 L39.472501,5.73951772 L39.3903213,5.02004997 L39.3057511,4.33496888 L39.218787,3.68425704 L39.1857358,3.48653291 C38.8682265,1.85423728 37.5083937,0.616336518 35.8376025,0.467279585 Z M11.8120415,2.03284578 L11.881,1.859 L35.5277422,3.9535362 C35.642613,3.9637846 35.7362427,4.05283214 35.7524159,4.16827027 L35.8364203,4.79734667 L35.9182177,5.46140704 L36.036768,6.52305259 L36.1130327,7.27449301 L36.1870783,8.06085351 L36.3284987,9.73826175 L36.4610017,11.5551313 L36.5545105,13.009217 L36.6140487,14.0221131 L36.6991461,15.6066701 L36.7791811,17.2694276 L36.8541423,19.010324 L36.9240181,20.8292978 L37.0092551,23.3759434 L37.1030172,26.7540673 L37.1073577,27.1058872 L37.1034193,27.4863024 L37.0911005,27.9022694 L37.0702995,28.3607451 L37.0229716,29.1433801 L36.9805205,29.7385629 L36.7208428,33.0806177 L36.6949713,33.5066961 L36.6632417,34.2688589 L36.634574,35.4720499 L36.6237902,36.2730282 L36.6196842,37.3341097 L36.6347915,39.3303519 L36.7854692,47.9693131 L36.8061891,50.1749475 L36.8115582,51.6397063 L36.8226597,51.8792586 L36.8576637,52.2800369 L37.1119086,54.5172276 L37.1695729,55.0768191 L37.2118398,55.5647088 C37.2175944,55.6402954 37.2227025,55.7130795 37.2271614,55.7831536 L37.2461052,56.1718193 C37.2479575,56.2314238 37.2491557,56.2885034 37.2496971,56.3431506 L37.2379352,58.0404905 L37.2399428,61.0139685 L37.242,61.97 L37.1794378,61.9857452 C36.9404364,62.0398003 36.6961024,62.0928989 36.446439,62.1450396 L35.6814635,62.2985872 C35.551304,62.3236992 35.4198128,62.3485714 35.2869904,62.3732037 L34.4740851,62.5181175 L33.6292499,62.6572663 L32.7525036,62.7906428 C32.4549384,62.8341387 32.1520577,62.8766714 31.8438648,62.9182396 L30.9033524,63.0400497 L29.930985,63.1560655 L28.9267813,63.2662799 L27.89076,63.3706855 L26.8229399,63.469275 L25.7233397,63.5620413 L24.0143927,63.6902559 L22.8354241,63.768432 L21.6247409,63.8407591 L20.3823618,63.9072301 L19.1083056,63.9678377 L17.8025909,64.0225746 L16.4652365,64.0714335 L15.0962611,64.114407 L13.6956833,64.151488 L11.5356034,64.1960449 L10.0561018,64.2183625 L7.77772381,64.2407401 C7.52063094,64.2424858 7.26222521,64.2439845 7.002507,64.2452398 C6.89261098,64.2452398 6.79255006,64.1745738 6.75077409,64.0688578 L6.75178701,39.6190845 L6.76263573,39.4110738 L6.77668282,39.2620773 L6.81032245,39.0096264 L6.86186137,38.7062618 L6.96389981,38.1911418 L7.20361326,37.0938215 L7.49838985,35.7823628 L7.65659512,35.0349472 L7.74504099,34.5806402 L7.78584478,34.3576628 C7.94750219,33.4548364 8.04402297,32.6510529 8.06899938,31.8929156 L8.10253857,30.8229393 C8.33462998,23.0164417 8.26172714,16.0898055 7.88281111,10.040476 L7.817,9.058 L7.42468323,9.59376242 C8.41932926,8.2726621 9.34077447,6.86333774 10.1890763,5.36627582 C10.7933006,4.29995589 11.3342953,3.18867663 11.8120415,2.03284578 Z" id="直线-11备份-30"></path>
            <path d="M24,28 C24.5522847,28 25,28.4477153 25,29 C25,29.7719454 24.9347622,30.413988 24.7972433,31.1629273 L24.482147,32.7309326 C24.3573738,33.382373 24.2567291,34.048544 24.1803163,34.7850795 L24.1207565,35.4349253 C24.1118197,35.5465375 24.103378,35.65991 24.0954318,35.7752052 L24.0537021,36.4913452 L24.0238772,37.2614132 L24.0059717,38.0931947 C24.0039815,38.2374002 24.0024886,38.3845016 24.0014932,38.5346609 L24,56 C24,56.5522847 23.5522847,57 23,57 C22.4871642,57 22.0644928,56.6139598 22.0067277,56.1166211 L22,56 L22,38.9944751 C22,36.5447673 22.1199654,34.8181888 22.3596661,33.2680134 L22.4619318,32.6560555 L22.5657047,32.1139246 L22.8301297,30.8017294 C22.9468704,30.1659494 23,29.643071 23,29 C23,28.4477153 23.4477153,28 24,28 Z" id="直线-12"></path>
        </g>
        <path d="M66,2 C66.5522847,2 67,2.44771525 67,3 L67,16.8663341 C67,17.2730711 66.7536461,17.6392847 66.3769051,17.792586 L61.2538103,19.8772465 C60.7705102,20.0739082 60.2294898,20.0739082 59.7461897,19.8772465 L54.6230949,17.792586 C54.2463539,17.6392847 54,17.2730711 54,16.8663341 L54,3 C54,2.44771525 54.4477153,2 55,2 L66,2 Z M65,5 L59.6077612,5 C57.801194,5 56.3367164,6.39035311 56.3367164,8.10548093 C56.3367164,9.82060874 57.801194,11.2109619 59.6077612,11.2109619 L61.7289552,11.2109619 C62.1259701,11.2109619 62.4489552,11.517599 62.4489552,11.8945191 C62.4489552,12.2714391 62.1259701,12.5780763 61.7289552,12.5780763 L56.4656716,12.5780763 L56,15 L61.7289552,15 C63.5355224,15 65,13.6096469 65,11.8945191 C65,10.1793913 63.5355224,8.78903815 61.7289552,8.78903815 L59.6077612,8.78903815 C59.2107463,8.78903815 58.8877612,8.48240095 58.8877612,8.10548093 C58.8877612,7.7285609 59.2107463,7.42192371 59.6077612,7.42192371 L64.440597,7.42192371 C64.6268657,6.61480474 64.8137313,5.80711897 65,5 Z" id="形状结合" fill="#333333" fill-rule="nonzero"></path>
    </g>
</svg>