<?xml version="1.0" standalone="no"?><!DOCTYPE svg PUBLIC "-//W3C//DTD SVG 1.1//EN" "http://www.w3.org/Graphics/SVG/1.1/DTD/svg11.dtd"><svg t="1691029749582" class="icon" viewBox="0 0 1024 1024" version="1.1" xmlns="http://www.w3.org/2000/svg" p-id="6072" xmlns:xlink="http://www.w3.org/1999/xlink" width="200" height="200"><path d="M42.257067 455.111111m56.888889 0l113.777777 0q56.888889 0 56.888889 56.888889l0 455.111111q0 56.888889-56.888889 56.888889l-113.777777 0q-56.888889 0-56.888889-56.888889l0-455.111111q0-56.888889 56.888889-56.888889Z" fill="#54CB6B" p-id="6073"></path><path d="M383.5904 227.555556m56.888889 0l113.777778 0q56.888889 0 56.888889 56.888888l0 682.666667q0 56.888889-56.888889 56.888889l-113.777778 0q-56.888889 0-56.888889-56.888889l0-682.666667q0-56.888889 56.888889-56.888888Z" fill="#54CB6B" p-id="6074"></path><path d="M724.923733 0m56.888889 0l113.777778 0q56.888889 0 56.888889 56.888889l0 910.222222q0 56.888889-56.888889 56.888889l-113.777778 0q-56.888889 0-56.888889-56.888889l0-910.222222q0-56.888889 56.888889-56.888889Z" fill="#54CB6B" p-id="6075"></path></svg>