<svg xmlns="http://www.w3.org/2000/svg" width="70" height="70"><g fill="#333" fill-rule="nonzero"><path d="M66 2a1 1 0 0 1 1 1v13.866a1 1 0 0 1-.623.927l-5.123 2.084a2 2 0 0 1-1.508 0l-5.123-2.084a1 1 0 0 1-.623-.927V3a1 1 0 0 1 1-1h11Zm-1 3h-5.392c-1.807 0-3.271 1.39-3.271 3.105 0 1.716 1.464 3.106 3.27 3.106h2.122c.397 0 .72.307.72.684 0 .376-.323.683-.72.683h-5.263L56 15h5.729C63.536 15 65 13.61 65 11.895c0-1.716-1.464-3.106-3.271-3.106h-2.121c-.397 0-.72-.307-.72-.684 0-.376.323-.683.72-.683h4.833L65 5Z"/><path d="m24.411.315.23.011L48.868 2.47a3.75 3.75 0 0 1 3.27 2.69l.052.195.04.198.533 3.056.371 2.173.456 2.74.413 2.561.37 2.381.247 1.668.198 1.383.258 1.905.114.888.15 1.254.128 1.158.104 1.064.081.969.041.594.03.551.021.51.01.468v.427l-.005.197-.002 23.161-.013.352-.005.094-.006.095-.034.407-.01.107-.011.11-.054.462-.067.499-.08.536-.093.574-.166.932-.127.669-.215 1.075-.246 1.162-.277 1.25-.2.881-.443 1.882a1.75 1.75 0 0 1-1.252 1.284l-.35.091-.357.09-.737.174-.38.085-.39.083-.8.162-.204.04-.207.039-.847.152-.879.146-.91.14-.232.034-.234.034-.957.13-.244.032-.246.031-1.003.121-1.035.116-1.067.108-1.098.103-1.13.097-1.16.09-1.192.084-1.224.078-1.255.072-1.287.065-1.319.06-1.35.053-2.084.07-1.429.037-1.46.032-1.492.026-2.298.028-1.572.01a3.744 3.744 0 0 1-1.891-.499L18 69.25h-4.5a1.75 1.75 0 0 1-1.746-1.624l-.004-.144L12.007 43l-.004-.406-.015-.403-.025-.414-.036-.436-.049-.472-.062-.521-.076-.583-.252-1.834-.089-.71-.065-.606-.03-.365-.023-.346-.014-.34-.01-.525-.007-3.113.004-2.977.017-2.797.037-3.046.055-2.73.034-1.254.052-1.565.044-1.098.065-1.369.091-1.568.103-1.425.09-1.046.023-.25a1.75 1.75 0 0 1 .096-.425c.2-.56.462-1.146.796-1.8l.304-.58.166-.303.36-.638.196-.337.421-.712c.263-.438.582-.93.922-1.425l.415-.594c.632-.883 1.284-1.713 1.749-2.198a1.75 1.75 0 0 1 1.192-.538l.17.002 3.512.197c.38-.526.936-.899 1.562-1.055l.19-.04.184-.027.152-.012.16-.001Zm.47 3.544-.069.174a29.995 29.995 0 0 1-1.623 3.333 39.303 39.303 0 0 1-2.273 3.56l-.117.159.04 1.103.051 1.763.021.898.019.91.027 1.853.005.47.005.473.01 1.92-.003 1.966-.002.499-.003.501-.02 2.033-.007.516-.008.518-.038 2.1-.05 2.146-.03 1.09-.032 1.101-.035 1.113c-.016.477-.053.974-.11 1.502l-.048.401-.06.462-.07.477-.082.514-.44 2.575-.104.673-.049.399-.026.325-.009.221V66.07a.274.274 0 0 0 .252.176l.388-.002.387-.002 2.278-.023 1.48-.022 2.16-.045 1.4-.037 1.37-.043 1.337-.048 1.305-.055 1.274-.06 1.243-.067 1.21-.073 1.18-.078 1.708-.128 1.1-.093 1.068-.098 1.036-.105 1.004-.11.972-.116.94-.122.46-.063.45-.064.876-.134.845-.139.813-.145.198-.037.196-.037.765-.154.554-.12.541-.124.28-1.208.19-.845.26-1.191.23-1.1.2-1.006.167-.914.096-.557.081-.514.068-.473.054-.43.041-.387.027-.345.008-.156.005-.145.002-.13V31.45l.003-.086.001-.09v-.386l-.01-.428-.02-.472-.03-.515-.04-.557-.049-.6-.093-.979-.074-.706-.084-.747-.145-1.2-.109-.852-.182-1.355-.185-1.317-.238-1.617-.262-1.72-.287-1.82-.31-1.923-.337-2.024-.486-2.857-.53-3.037a.25.25 0 0 0-.16-.191l-.064-.015L24.881 3.86Zm-5.568.936-.066.084c-.6.753-1.363 1.832-1.9 2.697l-.334.555-.359.613-.321.567c-.101.182-.196.357-.285.525l-.25.484c-.155.31-.286.595-.396.86l-.074.184-.088 1.017-.08 1.101-.074 1.193-.083 1.63-.058 1.425-.051 1.541-.053 2.102-.034 1.83-.032 2.488-.02 2.723-.005 2.357.005 3.458.007 1.083.017.428.02.297.045.488.066.57.125.948.222 1.618.075.606.06.55.048.512.018.246.028.48.01.237.01.48.001.246-.239 22.732h.982V41.65l.006-.296.008-.193.021-.297.034-.326.07-.519.106-.661.427-2.496.11-.7.086-.634c.058-.465.098-.893.12-1.292l.013-.295.067-2.193.015-.541.014-.538.05-2.126.037-2.08.026-2.034.014-1.99.002-1.944-.01-1.899a260.233 260.233 0 0 0-.094-5.28l-.031-1.01-.063-1.694a1.75 1.75 0 0 1 .35-1.124 35.411 35.411 0 0 0 2.516-3.848c.144-.255.285-.513.421-.774l-1.252-.072Zm12.932 16.812 6.812 8.25a1 1 0 0 0 1.65-.159l2.708-4.986-2.215 7.603a5 5 0 0 0-.2 1.399V51.97a3 3 0 0 0 .632 1.841L45.2 58.4l-4.645-3.93a1 1 0 0 0-1.173-.087L31.618 59.2l6.311-5.3A3 3 0 0 0 39 51.601V34.37a5 5 0 0 0-.7-2.55l-6.055-10.214Z"/></g></svg>