<svg xmlns="http://www.w3.org/2000/svg" width="70" height="70"><path fill="#979797" fill-rule="nonzero" d="m24.411.315.23.011L48.868 2.47a3.75 3.75 0 0 1 3.322 2.885l.04.198L52.482 7H65a1 1 0 0 1 1 1v13.557a1 1 0 0 1-.81.982l-9.981 1.936.131 1.087.128 1.158.104 1.064.081.969.041.594.03.551.021.51.01.468v.427l-.005.197-.002 23.161-.013.352-.011.19-.034.406-.021.217-.054.462-.067.499-.08.536-.093.574-.166.932-.127.669-.215 1.075-.246 1.162-.277 1.25-.2.881-.443 1.882a1.75 1.75 0 0 1-1.252 1.284c-.23.062-.466.122-.707.181l-.737.174a48.44 48.44 0 0 1-.77.168l-.8.162c-.135.027-.273.053-.411.079l-.847.152-.879.146-.91.14-.466.068-.957.13c-.162.022-.325.043-.49.063l-1.003.121-1.035.116-1.067.108-1.098.103-1.13.097-1.16.09-1.192.084-1.224.078-1.255.072-1.287.065-1.319.06-1.35.053-2.084.07-1.429.037-1.46.032-1.492.026-2.298.028-1.572.01a3.744 3.744 0 0 1-1.891-.499L18 69.25h-4.5a1.75 1.75 0 0 1-1.746-1.624l-.004-.144L12.007 43l-.004-.406-.015-.403-.025-.414-.036-.436-.049-.472-.062-.521-.076-.583-.252-1.834-.089-.71-.065-.606-.03-.365-.023-.346-.014-.34-.01-.525-.007-3.113.004-2.977.017-2.797.037-3.046.055-2.73.034-1.254.052-1.565.044-1.098.065-1.369.091-1.568.103-1.425.09-1.046.023-.25a1.75 1.75 0 0 1 .096-.425c.2-.56.462-1.146.796-1.8l.304-.58.166-.303.36-.638.196-.337.421-.712c.263-.438.582-.93.922-1.425l.415-.594c.632-.883 1.284-1.713 1.749-2.198a1.75 1.75 0 0 1 1.192-.538l.17.002 3.512.197A2.753 2.753 0 0 1 23.916.355L24.1.328l.152-.012.16-.001Zm.47 3.544-.069.174a29.995 29.995 0 0 1-1.623 3.333 39.303 39.303 0 0 1-2.273 3.56l-.117.159.04 1.103.051 1.763c.015.595.028 1.198.04 1.808l.027 1.853.01.943.01 1.92-.003 1.966-.005 1-.02 2.033-.015 1.034-.038 2.1-.05 2.146c-.018.723-.039 1.453-.062 2.191l-.035 1.113c-.02.597-.073 1.223-.158 1.903l-.06.462-.07.477-.082.514-.44 2.575-.104.673-.049.399-.026.325-.009.221V66.07a.274.274 0 0 0 .252.176l.775-.004 2.278-.023 1.48-.022 2.16-.045 1.4-.037 1.37-.043 1.337-.048 1.305-.055 1.274-.06 1.243-.067 1.21-.073 1.18-.078 1.708-.128 1.1-.093 1.068-.098 1.036-.105 1.004-.11.972-.116.94-.122c.31-.041.612-.084.91-.127l.876-.134.845-.139.813-.145a55.6 55.6 0 0 0 .394-.074l.765-.154a38.95 38.95 0 0 0 1.095-.244l.28-1.208.19-.845.26-1.191.23-1.1.2-1.006.167-.914.096-.557.081-.514.068-.473.054-.43.041-.387.027-.345a7.74 7.74 0 0 0 .013-.3l.002-.131V31.45c.002-.057.004-.115.004-.176v-.386l-.01-.428-.02-.472-.03-.515-.04-.557-.049-.6-.093-.979-.074-.706-.084-.747-.125-1.034-11.92-2.311a1 1 0 0 1-.809-.982V8a1 1 0 0 1 1-1h8.929l-.146-.838a.25.25 0 0 0-.224-.206L24.881 3.86Zm-5.568.936-.066.084c-.6.753-1.363 1.832-1.9 2.697l-.334.555-.359.613-.321.567c-.101.182-.196.357-.285.525l-.25.484c-.155.31-.286.595-.396.86l-.074.184-.088 1.017-.08 1.101-.074 1.193-.083 1.63-.058 1.425-.051 1.541-.053 2.102-.034 1.83-.032 2.488-.02 2.723-.005 2.357.005 3.458.007 1.083.017.428.02.297.045.488.066.57.125.948.222 1.618.075.606.06.55.048.512.018.246.028.48.01.237.01.48.001.246-.239 22.732h.982V41.65l.006-.296.008-.193.021-.297.034-.326.07-.519.106-.661.427-2.496.11-.7.086-.634c.072-.581.117-1.105.133-1.587l.067-2.193.03-1.08.049-2.125.037-2.08.026-2.034.014-1.99.002-1.944-.01-1.899c-.017-2.189-.06-4.285-.125-6.29l-.063-1.694a1.75 1.75 0 0 1 .35-1.124 35.411 35.411 0 0 0 2.516-3.848c.144-.255.285-.513.421-.774l-1.252-.072Zm12.932 16.812 6.812 8.25a1 1 0 0 0 1.65-.159l2.708-4.986-2.215 7.603a5 5 0 0 0-.2 1.399V51.97a3 3 0 0 0 .632 1.841L45.2 58.4l-4.645-3.93a1 1 0 0 0-1.173-.087L31.618 59.2l6.311-5.3A3 3 0 0 0 39 51.601V34.37a5 5 0 0 0-.7-2.55l-6.055-10.214Zm13.593-10.721c-.623 0-1.178.107-1.663.321-.485.215-.866.514-1.142.9-.276.384-.416.836-.418 1.353 0 .643.21 1.163.627 1.564.418.401 1.047.686 1.887.855l.894.18c.525.107.9.242 1.125.405a.784.784 0 0 1 .337.67c0 .221-.066.41-.197.573-.13.163-.315.29-.552.38a2.39 2.39 0 0 1-.845.134 2.61 2.61 0 0 1-.862-.133 1.57 1.57 0 0 1-.615-.37 1.028 1.028 0 0 1-.29-.563l-.01-.065h-1.677l.006.095c.034.515.193.957.478 1.327.284.37.676.653 1.173.851.498.198 1.082.296 1.753.296.71 0 1.319-.108 1.828-.326.509-.217.9-.525 1.171-.925.272-.4.408-.871.408-1.416 0-.448-.09-.826-.272-1.14-.181-.315-.46-.575-.838-.782-.378-.207-.863-.37-1.456-.488l-.894-.18c-.488-.1-.845-.232-1.07-.397a.769.769 0 0 1-.34-.65c0-.209.06-.387.177-.54.117-.154.285-.274.502-.361.218-.087.476-.13.775-.13.294 0 .553.043.778.129.224.086.405.208.542.364.138.156.221.344.251.563l.01.07h1.67l-.007-.102c-.029-.49-.176-.92-.443-1.29-.266-.37-.636-.658-1.11-.864-.474-.206-1.038-.308-1.69-.308Zm10.174.159h-5.537V19.5h1.77v-3.328h3.436v-1.4h-3.437v-2.268h3.768v-1.46Zm4.594 0h-3.411V19.5h1.77l-.001-2.664h1.642c.596 0 1.116-.119 1.56-.358.445-.24.791-.576 1.039-1.01.248-.433.372-.94.372-1.52v-.011c0-.58-.124-1.087-.372-1.521a2.593 2.593 0 0 0-1.039-1.01c-.444-.241-.964-.361-1.56-.361Zm-.43 1.403c.508 0 .903.129 1.185.385.282.257.423.627.423 1.11v.011c0 .479-.141.848-.423 1.108-.282.26-.677.39-1.185.39l-1.212-.001v-3.003Z"/></svg>