<svg xmlns="http://www.w3.org/2000/svg" width="70" height="70"><g fill="#333" fill-rule="nonzero"><path d="m21.232.937.17.001 4.447.25a1.75 1.75 0 0 1-.053 3.497l-.144-.002-3.589-.203-.066.084c-.6.754-1.363 1.833-1.9 2.697l-.334.555-.358.613-.322.568c-.101.181-.196.356-.285.524l-.25.484c-.154.31-.286.596-.396.86l-.074.184-.087 1.018-.081 1.1-.074 1.193-.083 1.63-.058 1.425-.05 1.542-.054 2.101-.034 1.831-.032 2.487-.019 2.723-.006 2.358.005 3.458.007 1.082.017.428.02.297.045.489.066.57.125.948.222 1.618.076.605.06.551.047.512.018.245.028.48.01.238.01.48.001.246-.239 22.731h2.732a1.75 1.75 0 0 1 1.745 1.607l.005.143a1.75 1.75 0 0 1-1.606 1.745l-.144.005h-4.5a1.75 1.75 0 0 1-1.745-1.623l-.005-.145.257-24.482-.004-.406-.014-.403-.025-.413-.037-.437-.049-.472-.062-.52-.075-.583-.253-1.835-.089-.71-.064-.606-.031-.364-.022-.347-.015-.34-.009-.525L14 31.612l.004-2.977.017-2.798.037-3.045.055-2.73.034-1.254.052-1.566.044-1.098.065-1.368.092-1.57.102-1.424.09-1.045.024-.25a1.75 1.75 0 0 1 .095-.425c.201-.56.462-1.147.796-1.801l.304-.579.166-.303.361-.639.195-.337.422-.711c.262-.438.581-.93.921-1.426l.416-.593c.631-.884 1.283-1.714 1.748-2.199a1.75 1.75 0 0 1 1.192-.537Z"/><path d="M51.588 2.153 27.391.01 27.161 0h-.159l-.151.013-.184.027a2.75 2.75 0 0 0-2.092 1.723 26.695 26.695 0 0 1-1.68 3.563 35.411 35.411 0 0 1-2.516 3.848 1.75 1.75 0 0 0-.347 1.181c.223 3.027.364 6.299.422 9.813l.023 1.778c.015 1.798.01 3.656-.016 5.576l-.033 1.94c-.013.653-.029 1.313-.046 1.98l-.06 2.021a12.744 12.744 0 0 1-.169 1.597l-.099.566-.125.63-.102.473-.403 1.798-.196.92-.106.557-.038.236-.041.317-.019.197-.017.287-.007.296V65.93c0 .08.006.162.017.242a3.777 3.777 0 0 0 3.754 3.259l1.571-.011 2.298-.028 1.492-.025 1.46-.032 1.43-.039 2.084-.068 1.35-.054 1.318-.06 1.287-.065 1.255-.072 1.224-.078 1.192-.084 1.161-.09 1.13-.097 1.097-.102 1.067-.109 1.035-.115 1.004-.121.49-.063.956-.13.467-.069.91-.14.878-.146.847-.152.412-.079.8-.161c.262-.055.518-.111.769-.168l.738-.175c.24-.059.476-.119.706-.18a1.75 1.75 0 0 0 1.3-1.7l-.012-3.88.003-1.914.01-.984c.004-.282-.005-.587-.025-.93l-.04-.544-.058-.61-.303-2.735-.014-.253-.007-1.942-.027-2.306-.137-7.632-.019-2.246.006-1.236.016-.968.032-1.122.042-.755.137-1.787.12-1.518.046-.639.036-.579.026-.527.018-.483.008-.449v-.214l-.005-.412-.074-2.753-.085-2.613-.093-2.475-.076-1.765-.11-2.232-.059-1.065-.06-1.03-.064-.995-.133-1.886-.106-1.325-.074-.84-.076-.805-.12-1.144-.081-.72-.085-.685-.087-.65-.033-.198a3.751 3.751 0 0 0-3.348-3.02ZM27.562 3.718l.07-.174L51.277 5.64c.115.01.209.1.225.215l.084.629.082.664.118 1.061.076.752.074.786.142 1.678.132 1.817.094 1.454.06 1.013.085 1.584.08 1.663.074 1.74.07 1.82.086 2.546.093 3.378.005.352-.004.38-.013.417-.02.458-.048.783-.042.595-.26 3.342-.026.426-.031.762-.03 1.203-.01.801-.004 1.062.015 1.996.15 8.639.022 2.205.005 1.465.011.24.035.4.254 2.238.058.56.042.487.016.219.018.388c.002.06.004.117.004.172l-.012 1.697.002 2.973.002.956-.062.016c-.24.054-.484.107-.733.16l-.765.153-.395.075-.813.145-.844.139-.877.133c-.298.044-.6.086-.909.128l-.94.121-.973.116-1.004.11-1.036.105-1.068.099-1.1.092-1.708.129-1.18.078-1.21.072-1.242.067-1.274.06-1.306.055-1.337.049-1.37.043-1.4.037-2.16.044-1.48.023-2.278.022-.775.005c-.11 0-.21-.071-.252-.177l.001-24.45.011-.208.014-.149.034-.252.051-.303.102-.515.24-1.098.295-1.311.158-.748.088-.454.041-.223c.162-.903.258-1.707.283-2.465l.034-1.07c.232-7.806.16-14.733-.22-20.782l-.066-.983-.392.536a38.909 38.909 0 0 0 2.764-4.227 29.995 29.995 0 0 0 1.623-3.334Z"/><path d="M39.75 29.685a1 1 0 0 1 1 1c0 .772-.065 1.414-.202 2.163l-.315 1.568a23.854 23.854 0 0 0-.302 2.054l-.06.65a30.77 30.77 0 0 0-.025.34l-.042.717-.03.77-.018.832a61.57 61.57 0 0 0-.004.441l-.002 17.465a1 1 0 0 1-1.993.117l-.007-.117V40.68c0-2.45.12-4.176.36-5.727l.102-.612.104-.542.264-1.312a9.36 9.36 0 0 0 .17-1.802 1 1 0 0 1 1-1Z"/></g></svg>