<svg xmlns="http://www.w3.org/2000/svg" width="70" height="70"><defs><linearGradient id="a" x1="50.836%" x2="51.761%" y1="2.711%" y2="96.331%"><stop offset="0%" stop-color="#999" stop-opacity="0"/><stop offset="62.534%" stop-color="#999"/><stop offset="85.346%" stop-color="#999"/><stop offset="100%" stop-color="#999" stop-opacity="0"/></linearGradient></defs><g fill="none" fill-rule="nonzero"><path fill="url(#a)" d="m15.36 7.6 8.633 42.724a2.945 2.945 0 0 0 3 2.36l12.317-.474a1.683 1.683 0 0 0 1.618-1.65l.819-43.38 1.057 45.212c.003.118-.002.237-.016.354l-1.041 8.86-.68-6.401a1.683 1.683 0 0 0-1.76-1.503l-13.132.673a4.208 4.208 0 0 0-2.844 1.313l-7.97 8.44 6.649-9.68a2.525 2.525 0 0 0 .413-1.82L15.361 7.6Z" transform="translate(12.5 .5)"/><path fill="#979797" d="m50.046.5.71.007.483.012.303.013.288.015.274.02.262.024.366.044.346.056c.689.127 1.244.333 1.785.665l.232.15.25.182.25.198.168.141.185.163c1.448 1.304 2.08 2.532 2.332 4.604l.034.302.041.478.022.334.018.349.02.55.009.385.006.395 1.066 48.753c.062 3.416-.598 6.005-1.888 7.281-.726.72-1.825 1.223-3.331 1.557l-.33.07-.112.018-30.245 2.21a9.102 9.102 0 0 1-2.955-.27l-.359-.1-.76-.232a2.212 2.212 0 0 1-.364-.147l-4.381-1.261a2.187 2.187 0 0 1-1.586-2.074v-.098l.927-25.96-1.526-4.032a1.29 1.29 0 0 1-.069-.262l-.016-.148v-.108l.919-26.453.018-.412.023-.393.027-.386.03-.368.035-.35c.211-1.997.63-3.325 1.328-4.14.838-.978 1.733-1.4 3.312-1.556l.42-.034.46-.024.325-.011.34-.007 6.18-.093c.22-.02.444-.036.673-.046L26.934.5h23.112Zm-21.68 2.68v.022l-2.292.034c-1.15.12-2.036.422-2.433.815-.528.523-.84 1.3-.997 2.679l-.03.284-.025.307-.021.317-.017.34-1.879 58.444.395.12c.645.196 1.316.29 1.99.276l.336-.016 30.073-2.194.11-.022c.938-.198 1.614-.46 1.985-.74l.094-.078.049-.046c.414-.41.767-1.358.952-2.675l.035-.269.034-.311c.053-.555.08-1.155.076-1.794l-.008-.486-1.061-48.554-.009-.538-.014-.498-.02-.457-.026-.42-.022-.26-.026-.252-.04-.304-.021-.139-.038-.213c-.169-.864-.455-1.434-1.011-2.018l-.159-.16-.215-.202-.127-.112-.164-.137-.138-.108-.119-.085-.135-.087-.106-.06a2.419 2.419 0 0 0-.521-.204l-.202-.047-.223-.04-.165-.023-.179-.02-.193-.017-.206-.014-.344-.016-.383-.011-.425-.007-.307-.002-21.829-.002Zm-7.51.135-1.224.018-.28.007-.495.02-.39.028-.29.032-.163.025c-.46.08-.708.198-.932.418l-.07.071-.076.086a1.528 1.528 0 0 0-.227.4l-.077.206-.073.232-.091.359-.063.304-.04.225-.039.24-.036.258-.048.406-.03.292-.027.31-.034.488-.02.349-.023.548-.903 25.972 1.528 4.036c.032.082.055.168.07.262l.015.15v.107l-.922 25.834 2.103.605 1.856-57.729.02-.392c.107-1.823.414-3.148.98-4.167Z"/></g></svg>