<?xml version="1.0" encoding="UTF-8"?>
<svg width="70px" height="70px" viewBox="0 0 70 70" version="1.1" xmlns="http://www.w3.org/2000/svg" xmlns:xlink="http://www.w3.org/1999/xlink">
    <title>icon/ic_mesh_nano</title>
    <defs>
        <linearGradient x1="50.8356196%" y1="2.71135731%" x2="51.7610259%" y2="96.3309425%" id="linearGradient-1">
            <stop stop-color="#999999" stop-opacity="0" offset="0%"></stop>
            <stop stop-color="#999999" offset="62.5336813%"></stop>
            <stop stop-color="#999999" offset="85.3460946%"></stop>
            <stop stop-color="#999999" stop-opacity="0" offset="100%"></stop>
        </linearGradient>
    </defs>
    <g id="icon/ic_mesh_nano" stroke="none" stroke-width="1" fill="none" fill-rule="evenodd">
        <g id="编组" transform="translate(12.500302, 0.500000)" fill-rule="nonzero">
            <path d="M15.360561,7.60016974 L23.9931002,50.3236448 C24.2791911,51.7395427 25.5498496,52.7390325 26.9932967,52.6835752 L39.3096207,52.2103814 C40.2010925,52.176131 40.9109797,51.45225 40.9278235,50.5602795 L41.7470078,7.17989433 L41.7470078,7.17989433 L42.8043499,52.3922635 C42.8071119,52.5103677 42.8015809,52.6285202 42.7877976,52.7458499 L41.7470078,61.6055595 L41.7470078,61.6055595 L41.066314,55.2047718 C40.9717991,54.3160177 40.1991181,53.6561188 39.3065229,53.7018435 L26.1746684,54.3745456 C25.0930115,54.4299554 24.0743752,54.9003149 23.3307318,55.6877452 L15.360561,64.127212 L15.360561,64.127212 L22.0097533,54.4484906 C22.3751119,53.916666 22.5229839,53.2651381 22.4230034,52.6276993 L15.360561,7.60016974 L15.360561,7.60016974 Z" id="路径" fill="url(#linearGradient-1)"></path>
            <path d="M37.5455498,0 L38.2549455,0.0071233591 L38.7387989,0.019429545 L39.0414801,0.0316153223 L39.3294908,0.0473632614 L39.6038878,0.0670139619 L39.8657133,0.090925596 L40.231426,0.134791125 L40.5777357,0.190519823 C41.2665548,0.317535727 41.8219533,0.523760164 42.3631286,0.856016663 L42.5945375,1.00626507 L42.8451732,1.18759805 L43.094728,1.38556149 L43.2626049,1.52737231 L43.4472143,1.69014276 C44.8952387,2.99357812 45.5272568,4.2215115 45.7798978,6.29375732 L45.8134557,6.59563538 L45.8548314,7.07368599 L45.8768034,7.4083384 L45.8946733,7.75661395 L45.9144873,8.30618883 L45.9234902,8.69175602 L45.9293792,9.08652357 L46.9956556,57.8400941 C47.0580657,61.2557529 46.3977334,63.8449493 45.1081196,65.1214401 C44.3820144,65.8401565 43.2828108,66.3444265 41.7764184,66.678306 L41.4473751,66.7472596 L41.3351471,66.7656576 L11.0901554,68.975788 C10.096066,69.0484303 9.0975568,68.9572787 8.13512434,68.7068479 L7.77598236,68.605479 L7.01567977,68.3739203 C6.88853523,68.335197 6.7669889,68.2857795 6.65190515,68.2268567 L2.27025509,66.9657836 C1.34211233,66.6988152 0.698693529,65.8616723 0.684227464,64.8915382 L0.684227464,64.8915382 L0.685398825,64.7937297 L1.61169834,38.834 L0.0854996996,34.8022815 C0.0542610591,34.7197224 0.0313443652,34.6344226 0.0167166205,34.5402863 L0.0167166205,34.5402863 L0.000987590598,34.3916928 L0,34.284277 L0.919361386,7.83065912 L0.938078612,7.41924541 L0.960515373,7.02571077 L0.987360856,6.64024474 L1.01804088,6.27214286 L1.05238511,5.92201471 C1.26393365,3.92549432 1.68229218,2.59690515 2.38100042,1.78175295 C3.21890355,0.804208185 4.11354796,0.382106789 5.69260708,0.226084598 L5.69260708,0.226084598 L6.11179131,0.191900783 L6.57336031,0.167625958 L6.89809348,0.156853168 L7.23751629,0.149883847 L13.4175904,0.0570900549 C13.6367804,0.0366017278 13.8614136,0.0212947459 14.0911962,0.0111740268 L14.4341841,0 L37.5455498,0 Z M15.865,2.68 L15.8651334,2.70218998 L13.5732862,2.73594354 C12.4231126,2.85694958 11.5372197,3.15834463 11.1404336,3.55109303 C10.6124636,4.07369044 10.3007588,4.85021241 10.143641,6.22997676 L10.1142603,6.51407636 L10.088479,6.82127722 L10.0675474,7.13828446 L10.0506423,7.47731825 L8.17169834,65.922 L8.56680161,66.0421004 C9.21138683,66.2384161 9.8828966,66.3312008 10.5557877,66.3175921 L10.8922301,66.3019083 L40.9657138,64.1082302 L41.0765128,64.0858365 C42.0138388,63.887645 42.6897417,63.625626 43.0609157,63.3450766 L43.1545572,63.2681377 L43.2036991,63.2220081 C43.6176818,62.8122381 43.9707979,61.8641629 44.1560784,60.546503 L44.190865,60.2780932 L44.2243855,59.9668605 C44.2780493,59.4117782 44.3040495,58.8117111 44.301187,58.1728748 L44.2931218,57.6865755 L43.2314303,9.13302166 L43.2228198,8.59518741 L43.2089066,8.09747136 L43.1890006,7.64022401 L43.1623536,7.22014362 L43.1405195,6.95966843 L43.1145529,6.70848457 L43.0751823,6.40405494 L43.0536573,6.26499068 L43.015537,6.05224134 C42.8469459,5.18789032 42.560519,4.61792185 42.0042271,4.03358136 L41.845706,3.87362747 L41.6303079,3.67244758 L41.5034494,3.56035288 L41.3399396,3.42303415 L41.2018222,3.31531559 L41.0827807,3.23012194 L40.9479412,3.14324089 L40.842083,3.08319086 C40.6821131,2.99746205 40.5131425,2.93088454 40.3202503,2.87887317 L40.1188316,2.83154737 L39.8952287,2.79180447 L39.7304361,2.76908999 L39.5519864,2.74932655 L39.3590097,2.73242082 L39.1524543,2.71834051 L38.8088217,2.70184384 L38.4259593,2.69061547 L38.0002874,2.68398856 L37.6932665,2.68178876 L15.865,2.68 Z M8.35493942,2.81500586 L7.13183336,2.83314998 L6.85193271,2.83973098 L6.35630742,2.8598528 L5.96683634,2.88784699 L5.67739329,2.92023976 L5.51404755,2.94532963 C5.05367259,3.02459692 4.80563251,3.14296072 4.5813545,3.3631967 L4.5813545,3.3631967 L4.51211086,3.43397023 L4.43532375,3.52014045 C4.3603218,3.60764194 4.28160516,3.74438301 4.20905949,3.92026224 L4.20905949,3.92026224 L4.1314925,4.12648575 L4.05915923,4.3578296 L3.96771859,4.71692546 L3.90450095,5.02080597 L3.86412524,5.24558132 L3.82599114,5.485219 L3.78970979,5.74385228 L3.74128118,6.14981264 L3.71193796,6.44208254 L3.68509975,6.75274987 L3.65079548,7.23975145 L3.6313355,7.58858749 L3.60814192,8.13703931 L2.70469834,34.109 L4.23297947,38.144676 C4.26429489,38.227438 4.28724709,38.3129534 4.30186258,38.4073268 L4.30186258,38.4073268 L4.31753659,38.5562934 L4.31843399,38.6639632 L3.39569834,64.498 L5.499,65.103 L7.35431634,7.37435584 L7.37412211,6.98219434 C7.48206435,5.15857713 7.78879067,3.83436717 8.35493942,2.81500586 Z" id="形状结合" fill="#979797"></path>
        </g>
    </g>
</svg>