<svg xmlns="http://www.w3.org/2000/svg" width="70" height="70"><path fill="#333" fill-rule="nonzero" d="M34.61 4c2.152 0 3.896 1.757 3.896 3.924v10.641l14.025 2.825.001-10.327c0-2.167 1.744-3.924 3.896-3.924s3.896 1.757 3.896 3.924v11.896l3.4.685.076.017.033.008-.087-.019.109.025-.014-.004.034.01-.02-.006.07.021.048.018c.389.137.673.406.843.73l.024.049.017.035a1.555 1.555 0 0 1 .143.645v26.699c0 .563-.3 1.083-.786 1.362L42.411 65.783a1.525 1.525 0 0 1-1.152.173L6.22 58.111A1.567 1.567 0 0 1 5 56.58L5 29.883a1.535 1.535 0 0 1 .818-1.366L27.64 16.743a1.55 1.55 0 0 1 .889-.179l.152.023 2.032.408V7.924C30.714 5.757 32.46 4 34.61 4ZM8.117 31.854V55.32l31.948 7.15V39.005L27 36.08 8.117 31.854Zm53.765-3.96L43.181 38.655v23.066l18.701-10.764V27.893ZM21.425 52.555l3.628.962v3.544l-3.628-.962v-3.544Zm26.432-1.47c.86-.155 1.558.773 1.558 2.073 0 1.3-.698 2.48-1.558 2.637-.86.155-1.559-.772-1.559-2.073 0-1.3.698-2.48 1.559-2.636Zm11.688-5.493v3.14l-7.792 4.708v-3.139l7.792-4.709Zm-36.61-7.351c1.834.486 3.358 1.332 4.571 2.537 1.214 1.204 1.82 2.673 1.82 4.406 0 1.063-.263 1.888-.791 2.476-.308.36-.901.766-1.778 1.22l-.864.446c-.47.243-.783.589-.938 1.038-.097.285-.15.754-.158 1.405l-3.287-.872c.049-1.368.179-2.288.39-2.76.21-.47.754-.933 1.631-1.388l.889-.463c.292-.143.527-.322.706-.536.325-.363.487-.815.487-1.355 0-.62-.18-1.235-.542-1.842-.361-.606-1.02-1.037-1.978-1.29-.942-.25-1.61-.113-2.003.412a2.93 2.93 0 0 0-.59 1.806l-3.52-.934c.098-2.304.906-3.74 2.424-4.311.957-.367 2.134-.366 3.53.005Zm5.685-18.466-17.623 9.506 30.375 6.798 17.68-10.175-30.432-6.13Zm27.808-9.498c-.43 0-.78.352-.78.785v10.955l1.559.314V11.063a.782.782 0 0 0-.779-.785ZM34.61 7.14c-.43 0-.779.351-.779.785v9.699l1.558.314V7.924a.782.782 0 0 0-.779-.785Z"/></svg>