<svg width="300" height="300" xmlns="http://www.w3.org/2000/svg"><defs><linearGradient x1="50%" y1="17.068%" x2="50%" y2="103.774%" id="a"><stop stop-color="#FFF" stop-opacity="0" offset="0%"/><stop stop-color="#FFF" stop-opacity=".45" offset="100%"/></linearGradient><linearGradient x1="50%" y1="0%" x2="50%" y2="100%" id="b"><stop stop-color="#999" stop-opacity="0" offset="0%"/><stop stop-color="#999" offset="84.544%"/><stop stop-color="#999" stop-opacity="0" offset="100%"/></linearGradient></defs><g fill="none" fill-rule="evenodd"><path d="m79 76 70.169 28.217L125.448 246c-.242 1.118-.215 2.277.08 3.476l-49.03-30.32L79 76Z" fill="url(#a)" fill-rule="nonzero"/><path d="M106 61.5V36.84a7 7 0 0 1 9.295-6.613L216.92 65.5A15 15 0 0 1 227 79.67v136.607a7 7 0 0 1-9.816 6.409L194 212.5" stroke="#BFBFBF" stroke-width="3" opacity=".5" stroke-linejoin="round"/><path d="M77.294 219.654 76 216.265l.516 2.79s2.342 6.284 3.425 8.017c1.084 1.733 5.065 5.019 5.065 5.019l59.26 35.943-16.396-14.808a7.5 7.5 0 0 1-2.32-3.738l-48.256-29.834Z" fill="#999" opacity=".5"/><path d="M89.065 66.34c3.241-.999 16.147 4.253 18.633 5.168 6.107 2.246 12.21 4.502 18.315 6.753 8.664 3.199 17.33 6.39 25.987 9.606 4.833 1.794 9.684 3.199 13.947 6.467 3.977 3.05 3.934 6.767 4.234 11.034 1.3 18.502.929 36.999 1.272 55.5l1.03 55.53.513 27.748.343 18.584c.023 1.247.703 7.797-.749 8.978" stroke="#9A9A9A" stroke-width="2.728" stroke-linecap="round" stroke-linejoin="round"/><path d="m121.075 69.304-.02-.655v-.004a.343.343 0 0 0-.118-.248l-.362-.33a.358.358 0 0 0-.113-.068l-2.8-1.01a1035.534 1035.534 0 0 0-8.72-3.118.365.365 0 0 0-.217-.003l-4.273 1.365a.354.354 0 0 0-.13.075l-.35.33a.348.348 0 0 0-.107.26l.025.644h.027v.025l-.026.003.028-.002c.006.134.064.26.198.308 2.976 1.063 5.94 2.15 8.906 3.235l2.552.935c.17.06.332.092.498.092.161 0 .324-.03.5-.087l4.273-1.414a.336.336 0 0 0 .225-.246c.005-.024-.002-.049-.002-.073 0-.006.006-.009.006-.014" fill="#9A9A9A"/><path d="m74.92 215.83-6.654-3.796-16.396-14.808a7.536 7.536 0 0 1-2.457-7.108L73.285 47.812l4.001.799-23.869 142.296a3.432 3.432 0 0 0 1.121 3.225l26.01 24.012-5.628-2.313Z" fill="url(#b)" transform="translate(76 56)"/><path d="M85.486 67.602a115.701 115.701 0 0 1 0 0c-1.917.731-3.81 1.242-5.314 2.893-2.162 2.48-2.184 17.104-2.245 19.615-.165 6.65-.279 14.307-.418 20.958M88.555 66.502c11.083-3.56 22.228-6.914 33.344-10.37 3.167-.985 16.033 3.84 18.52 4.682 6.086 2.058 12.168 4.124 18.25 6.186 10.734 3.64 21.562 6.975 32.164 11.016 5.766 2.199 10.21 4.045 10.814 11.313.473 5.678.337 11.346.328 17.024-.036 22.712-.143 45.423-.215 68.135-2.848 5.552-5.695 11.102-8.542 16.656l.101 33.407.05 16.704.022 8.35c.004 1.163.553 7.094-.83 8.17a4373.49 4373.49 0 0 1-4.443 3.101M77.509 111.068c-.487 26.613-1.065 53.221-1.28 79.84l-.207 12.798c-.01 4.452-.1 8.9.177 13.354l.017.28.017.269c.09.857.13 1.698.5 2.519" stroke="#9A9A9A" stroke-width="2.728" stroke-linecap="round" stroke-linejoin="round"/><path d="m77.435 221.472-.177-.328c-.183-.336-.368-.669-.525-1.016.176.39.387.762.591 1.14l.02.034c.03.057.06.114.092.17 1.532 2.837 2.895 5.713 5.075 8.19 1.001 1.12 2.14 2.01 3.389 2.824 9.42 6.213 19.15 11.904 28.787 17.759 11.228 6.822 22.374 13.775 33.814 20.248.797.46 1.602.912 2.42 1.338 3.152 1.654 6.149 3.397 9.79 4.023a9.07 9.07 0 0 0 3.772-.112c.202-.046.4-.078.585-.184 1.02-.461 2.078-.826 3.085-1.324.692-.35 1.372-.724 2.05-1.104.634-.357 1.265-.718 1.898-1.08l.428-.296c1.041-.726 2.082-1.452 3.123-2.18.75-.518.677-1.204.76-1.942l3.433-2.364c-.083.723-.015 1.395-.747 1.903l2.276-1.589c.722-.5.657-1.165.74-1.875.94-.647 1.878-1.293 2.818-1.938-.087.698-.025 1.35-.73 1.84l1.682-1.175c.029-.021.057-.043.085-.066.578-.504.56-1.105.64-1.754l2.225-1.53c-.082.642-.063 1.237-.64 1.733" stroke="#9A9A9A" stroke-width="2.728" stroke-linecap="round" stroke-linejoin="round"/><path d="m143.377 77.504-12.868-4.631a1.204 1.204 0 0 0-.81-.003l-2.413.847a.682.682 0 0 0-.005 1.285l12.868 4.632a1.236 1.236 0 0 0 .81.001l2.413-.846a.682.682 0 0 0 .005-1.285" fill="#9A9A9A"/><path d="m159.392 84.324-2.703-.88a.901.901 0 0 0-.58.005l-2.412.846a.343.343 0 0 0-.227.326.338.338 0 0 0 .235.32l2.74.891a.817.817 0 0 0 .512-.005l2.442-.856c.138-.05.23-.18.229-.328a.336.336 0 0 0-.236-.319" fill="#999"/><circle stroke="#F85656" stroke-width="4" cx="156.5" cy="85.5" r="19.5"/></g></svg>