<svg width="300" height="300" xmlns="http://www.w3.org/2000/svg" xmlns:xlink="http://www.w3.org/1999/xlink"><defs><linearGradient x1="50%" y1="0%" x2="50%" y2="85.533%" id="a"><stop stop-color="#999" stop-opacity=".5" offset="0%"/><stop stop-color="#999" stop-opacity="0" offset="100%"/></linearGradient><linearGradient x1="50%" y1="0%" x2="50%" y2="100%" id="c"><stop stop-color="#999" stop-opacity="0" offset="0%"/><stop stop-color="#999" offset="77.57%"/><stop stop-color="#999" offset="84.951%"/><stop stop-color="#999" stop-opacity="0" offset="100%"/></linearGradient><linearGradient x1="50%" y1="0%" x2="50%" y2="85.533%" id="d"><stop stop-color="#999" stop-opacity=".5" offset="0%"/><stop stop-color="#999" stop-opacity="0" offset="100%"/></linearGradient><linearGradient x1="50%" y1="0%" x2="50%" y2="100%" id="e"><stop stop-color="#999" stop-opacity="0" offset="0%"/><stop stop-color="#999" offset="77.57%"/><stop stop-color="#999" offset="84.951%"/><stop stop-color="#999" stop-opacity="0" offset="100%"/></linearGradient><linearGradient x1="50%" y1="12.244%" x2="50%" y2="101.429%" id="b"><stop stop-color="#FFF" stop-opacity="0" offset="0%"/><stop stop-color="#FFF" stop-opacity=".45" offset="100%"/></linearGradient><linearGradient x1="50%" y1="5.966%" x2="50%" y2="103.26%" id="h"><stop stop-color="#FFF" stop-opacity="0" offset="0%"/><stop stop-color="#FFF" stop-opacity=".45" offset="100%"/></linearGradient><linearGradient x1="50%" y1="0%" x2="50%" y2="100%" id="i"><stop stop-color="#999" stop-opacity="0" offset="0%"/><stop stop-color="#999" offset="84.544%"/><stop stop-color="#999" stop-opacity="0" offset="100%"/></linearGradient><filter x="-99.1%" y="-46.9%" width="298.2%" height="193.7%" filterUnits="objectBoundingBox" id="l"><feGaussianBlur stdDeviation="5" in="SourceGraphic"/></filter><filter x="-64.5%" y="-159.4%" width="228.9%" height="418.7%" filterUnits="objectBoundingBox" id="j"><feOffset in="SourceAlpha" result="shadowOffsetOuter1"/><feGaussianBlur stdDeviation="2" in="shadowOffsetOuter1" result="shadowBlurOuter1"/><feColorMatrix values="0 0 0 0 1 0 0 0 0 1 0 0 0 0 1 0 0 0 0.975914695 0" in="shadowBlurOuter1"/></filter><path d="M36.897 11.73 29.85 9.202a.662.662 0 0 0-.443-.001l-1.322.462a.37.37 0 0 0-.003.7l7.047 2.527a.68.68 0 0 0 .443.001l1.322-.462a.37.37 0 0 0 .003-.7" id="k"/><path d="M39.5 0C61.315 0 79 17.685 79 39.5c0 21.028-16.432 38.219-37.156 39.432L39 88l-3.372-9.187C15.63 76.867 0 60.009 0 39.5 0 17.685 17.685 0 39.5 0Z" id="f"/></defs><g fill="none" fill-rule="evenodd"><path d="M271.482 227H280c6.075 0 11-4.925 11-11V101c0-6.075-4.925-11-11-11H20c-6.075 0-11 4.925-11 11v115c0 6.075 4.925 11 11 11h8.55M127.5 226.5h45" stroke="#BFBFBF" stroke-width="3" opacity=".5" stroke-linejoin="round"/><path d="M189.387 103h11.866c.935 0 1.694.758 1.694 1.694h-15.254c0-.936.758-1.694 1.694-1.694Z" fill="#999"/><g fill-rule="nonzero"><path d="M183.232 105h77.536a7.145 7.145 0 0 1 7.142 6.943l3.966 140.65A4.287 4.287 0 0 1 267.59 257h-91.182a4.287 4.287 0 0 1-4.285-4.408l3.966-140.649a7.145 7.145 0 0 1 7.142-6.943Z" stroke="#999" stroke-width="2.542"/><path d="M77.974 125.31 95 152H5l17.026-26.69A5 5 0 0 1 26.24 123H73.76a5 5 0 0 1 4.215 2.31Z" fill="url(#a)" transform="translate(172 105)"/><path fill="url(#b)" d="M77.5 121 89 0H11l11.5 121z" transform="translate(172 105)"/></g><path d="M21.09 128.708 10 146l8.947-20.432a4.237 4.237 0 0 0 .346-1.98L12.553 22l9.826 96.674a4.237 4.237 0 0 0 4.215 3.809h46.812a4.237 4.237 0 0 0 4.215-3.81L87.447 22l-6.74 101.588a4.237 4.237 0 0 0 .346 1.98L90 146l-11.09-17.292a4.237 4.237 0 0 0-3.567-1.95H24.657a4.237 4.237 0 0 0-3.567 1.95Z" fill="url(#c)" transform="translate(172 103)"/><path d="M45.387 103h11.866c.935 0 1.694.758 1.694 1.694H43.693c0-.936.758-1.694 1.694-1.694Z" fill="#999"/><g fill-rule="nonzero"><path d="m28.513 239.929 3.579-127.984A7.145 7.145 0 0 1 39.234 105h77.534a7.145 7.145 0 0 1 7.142 6.943l3.967 140.688a4.287 4.287 0 0 1-4.247 4.408l-77.619.692" stroke="#999" stroke-width="2.542"/><path d="M73.246 123a5 5 0 0 1 4.215 2.31L94.487 152h-77a17.94 17.94 0 0 0-5.035-12.486l9.06-14.203A5 5 0 0 1 25.729 123h47.518Z" fill="url(#d)" transform="translate(28.513 105)"/><path fill="url(#b)" d="m76.987 121 11.5-121h-78l11.5 121z" transform="translate(28.513 105)"/></g><path d="m86.934 22-6.74 101.588a4.237 4.237 0 0 0 .346 1.98L89.487 146l-11.09-17.292a4.237 4.237 0 0 0-3.567-1.95H24.144a4.237 4.237 0 0 0-3.567 1.95L12.4 141.46c-.21-.217-.426-.428-.647-.633l6.68-15.259a4.237 4.237 0 0 0 .347-1.98L12.04 22l9.826 96.674a4.237 4.237 0 0 0 4.215 3.809h46.811a4.237 4.237 0 0 0 4.216-3.81L86.934 22Z" fill="url(#e)" transform="translate(28.513 103)"/><path d="M37.98 256a23.583 23.583 0 0 0-.492-3.999h3.515c.522 1.246.853 2.592.96 4H37.98Zm-.492 6.003c.268-1.266.44-2.608.492-4.003h3.98a12.834 12.834 0 0 1-.957 4.003h-3.515Zm-.522 2h2.991a13.073 13.073 0 0 1-5.347 4.728c.967-1.286 1.772-2.893 2.356-4.729Zm-6.965 0h4.9c-1.075 3.113-2.847 5.32-4.9 5.87v-5.87ZM30 258h5.98a22.26 22.26 0 0 1-.52 4.003H30V258ZM30 252h5.46c.284 1.246.457 2.592.52 4H30v-4Zm0-7.873c2.053.549 3.825 2.758 4.9 5.87H30v-5.87Zm6.965 5.87c-.584-1.834-1.385-3.445-2.356-4.729a13.087 13.087 0 0 1 5.347 4.729h-2.99Zm-8.967 0h-4.9c1.075-3.112 2.845-5.321 4.9-5.87v5.87ZM28 256h-5.98c.059-1.407.236-2.753.518-3.999H28v4Zm0 6.003h-5.462A22.446 22.446 0 0 1 22.02 258H28v4.003Zm0 7.87c-2.055-.55-3.825-2.757-4.9-5.87H28v5.87Zm-6.963-5.87c.584 1.835 1.387 3.446 2.354 4.728a13.066 13.066 0 0 1-5.349-4.729h2.995ZM20.02 258c.055 1.395.224 2.737.492 4.003h-3.517a13.005 13.005 0 0 1-.957-4.003h3.982Zm.492-5.999a23.79 23.79 0 0 0-.492 4h-3.982c.106-1.408.439-2.754.957-4h3.517Zm.526-2.003h-2.997a13.08 13.08 0 0 1 5.349-4.729c-.965 1.284-1.768 2.895-2.352 4.729ZM43.964 256c-.492-7.49-6.476-13.476-13.963-13.968V242h-2.002v.032c-7.487.492-13.473 6.478-13.965 13.968H14v2h.034c.492 7.49 6.478 13.474 13.965 13.966V272h2.002v-.034c7.487-.492 13.471-6.476 13.963-13.966H44v-2h-.036Z" fill="#009FD1"/><path d="M116 261v20c0 5.523 4.477 10 10 10h49c5.523 0 10-4.477 10-10v-20" stroke="#5BAADA" stroke-width="6"/><path fill="#79CDFF" d="M111 258h10l-1 3h-8zM180 258h10l-1 3h-8z"/><g transform="translate(111 8)"><mask id="g" fill="#fff"><use xlink:href="#f"/></mask><path stroke="#979797" stroke-width="3" d="M39.5-1.5c11.322 0 21.572 4.59 28.991 12.009C75.911 17.929 80.5 28.179 80.5 39.5c0 10.881-4.239 20.772-11.155 28.112-6.734 7.147-16.006 11.874-26.376 12.743l-3.857 12.302-4.572-12.454c-10.045-1.212-18.972-6.055-25.428-13.18C2.517 59.749-1.5 50.094-1.5 39.5c0-11.322 4.59-21.572 12.009-28.991C17.929 3.089 28.179-1.5 39.5-1.5Z"/><g mask="url(#g)"><path d="M1.643 10.91 40.069 26.3l-12.99 77.336a4.143 4.143 0 0 0 .044 1.896L.273 88.994l1.37-78.085Z" fill="url(#h)" fill-rule="nonzero" transform="translate(5 24)"/><path d="m32.135 129.539-.138-.137s-25.866-15.33-26.288-16.136c-.385-.734-.709-1.849-.709-1.849l.283 1.522s1.282 3.427 1.875 4.373c.594.945 2.774 2.737 2.774 2.737l32.452 19.606-8.979-8.077a4.088 4.088 0 0 1-1.27-2.039" fill="#999" opacity=".5"/><path d="M12.155 29.64c1.775-.545 8.842 2.32 10.203 2.819 3.345 1.225 6.687 2.455 10.03 3.684 4.744 1.744 9.49 3.485 14.231 5.239 2.647.979 5.303 1.745 7.638 3.527 2.177 1.664 2.154 3.691 2.318 6.019.712 10.092.51 20.181.697 30.273l.564 30.289c.094 5.045.188 10.09.28 15.135l.188 10.137c.013.68.386 4.253-.41 4.897" stroke="#9A9A9A" stroke-width="2.4" stroke-linecap="round" stroke-linejoin="round"/><path d="m29.684 31.257-.01-.357v-.003a.187.187 0 0 0-.065-.135l-.199-.18a.196.196 0 0 0-.062-.037l-1.534-.55c-1.59-.573-3.18-1.144-4.775-1.702a.2.2 0 0 0-.118-.001l-2.34.744a.194.194 0 0 0-.071.041l-.192.18a.19.19 0 0 0-.058.142l.013.351h.015v.014l-.014.001h.015c.003.072.035.142.109.168 1.629.58 3.252 1.172 4.877 1.764l1.397.51a.791.791 0 0 0 .546.003l2.34-.772a.183.183 0 0 0 .124-.134c.003-.013-.001-.026-.001-.04 0-.003.003-.004.003-.007" fill="#9A9A9A"/><path d="m41.028 117.726-3.644-2.071-8.979-8.077a4.101 4.101 0 0 1-1.345-3.877l13.072-77.622 2.191.436-13.07 77.616c-.126.648.11 1.324.613 1.76l14.244 13.096-3.082-1.261Z" fill="url(#i)" transform="translate(5 24)"/><path d="M10.195 30.328a63.526 63.526 0 0 1 0 0c-1.05.4-2.086.678-2.91 1.578-1.184 1.353-1.196 9.33-1.23 10.7-.09 3.627-.152 7.803-.228 11.431M11.875 29.728c6.07-1.941 12.173-3.771 18.26-5.656 1.734-.537 8.78 2.095 10.142 2.554 3.333 1.122 6.663 2.25 9.994 3.374 5.878 1.985 11.808 3.805 17.614 6.009 3.157 1.199 5.59 2.206 5.922 6.17.259 3.098.184 6.19.18 9.286-.02 12.389-.08 24.776-.119 37.165l-4.677 9.085.055 18.222.027 9.111.013 4.555c.002.634.302 3.87-.455 4.456l-2.433 1.692M5.826 54.037c-.266 14.516-.583 29.03-.7 43.549l-.114 6.981c-.005 2.428-.055 4.855.097 7.284l.01.153.008.146c.05.468.072.926.275 1.374" stroke="#9A9A9A" stroke-width="2.4" stroke-linecap="round" stroke-linejoin="round"/><path d="m5.786 114.258-.097-.18c-.1-.183-.201-.364-.288-.554.097.214.213.416.324.622l.01.019a3.7 3.7 0 0 0 .051.093c.84 1.547 1.586 3.116 2.78 4.467.548.611 1.171 1.096 1.855 1.54 5.159 3.39 10.488 6.493 15.765 9.687 6.149 3.72 12.252 7.514 18.517 11.044.437.252.877.498 1.325.73 1.726.902 3.367 1.853 5.361 2.194a4.986 4.986 0 0 0 2.066-.06c.11-.026.22-.043.32-.101.56-.252 1.138-.45 1.69-.722.379-.192.751-.395 1.122-.602.347-.195.693-.392 1.04-.59l.234-.16 1.71-1.19c.41-.283.371-.657.417-1.06l1.88-1.289c-.046.395-.009.761-.41 1.038.415-.29.832-.578 1.247-.867.395-.273.36-.635.405-1.022.515-.353 1.028-.706 1.543-1.057-.048.38-.013.736-.4 1.003l.922-.64.046-.037c.316-.274.307-.602.35-.956l1.219-.835c-.045.35-.034.675-.35.945" stroke="#9A9A9A" stroke-width="2.4" stroke-linecap="round" stroke-linejoin="round"/><g fill-rule="nonzero" transform="translate(5 24)"><use fill="#000" filter="url(#j)" xlink:href="#k"/><use fill="#CBCBCB" xlink:href="#k"/></g><path d="m50.667 39.45-1.48-.481a.495.495 0 0 0-.318.003l-1.32.462a.187.187 0 0 0-.125.178c0 .08.053.15.129.174l1.5.486a.45.45 0 0 0 .28-.003l1.338-.467a.189.189 0 0 0 .125-.178c0-.08-.052-.15-.129-.174" fill="#999"/></g><path d="M29.826 35.09c0 8.837 3.388 16.001 7.567 16.001 4.18 0 7.567-7.164 7.567-16.001 0-8.835-3.388-15.999-7.567-15.999s-7.567 7.164-7.567 15.999" fill="#FFF" opacity=".599" filter="url(#l)" mask="url(#g)" transform="rotate(-72 37.393 35.091)"/></g></g></svg>