<?xml version="1.0" encoding="UTF-8"?>
<svg width="300px" height="300px" viewBox="0 0 300 300" version="1.1" xmlns="http://www.w3.org/2000/svg" xmlns:xlink="http://www.w3.org/1999/xlink">
    <title>img/Nano说明图/img_nano_together</title>
    <defs>
        <linearGradient x1="50%" y1="0%" x2="50%" y2="85.5332197%" id="linearGradient-1">
            <stop stop-color="#999999" stop-opacity="0.5" offset="0%"></stop>
            <stop stop-color="#999999" stop-opacity="0" offset="100%"></stop>
        </linearGradient>
        <linearGradient x1="50%" y1="5.96626228%" x2="50%" y2="103.260203%" id="linearGradient-2">
            <stop stop-color="#FFFFFF" stop-opacity="0" offset="0%"></stop>
            <stop stop-color="#FFFFFF" stop-opacity="0.45" offset="100%"></stop>
        </linearGradient>
        <linearGradient x1="50%" y1="0%" x2="50%" y2="100%" id="linearGradient-3">
            <stop stop-color="#999999" stop-opacity="0" offset="0%"></stop>
            <stop stop-color="#999999" offset="77.56998%"></stop>
            <stop stop-color="#999999" offset="84.9514665%"></stop>
            <stop stop-color="#999999" stop-opacity="0" offset="100%"></stop>
        </linearGradient>
    </defs>
    <g id="img/Nano说明图/img_nano_together" stroke="none" stroke-width="1" fill="none" fill-rule="evenodd">
        <path d="M260.236703,206 L269,206 C275.075132,206 280,201.075132 280,195 L280,80 C280,73.9248678 275.075132,69 269,69 L32,69 C25.9248678,69 21,73.9248678 21,80 L21,195 C21,201.075132 25.9248678,206 32,206 L40.7925982,206 L40.7925982,206" id="Stroke-1" stroke="#BFBFBF" stroke-width="3" opacity="0.5" stroke-linejoin="round"></path>
        <line x1="140.5" y1="205.5" x2="160.5" y2="205.5" id="直线" stroke="#BFBFBF" stroke-width="3" opacity="0.5" stroke-linejoin="round"></line>
        <g id="编组-2备份" transform="translate(160.000000, 82.000000)">
            <path d="M17.386578,0 L29.2528371,0 C30.1884015,5.51503807e-16 30.9468262,0.758424741 30.9468262,1.69398907 L30.9468262,1.69398907 L30.9468262,1.69398907 L15.6925889,1.69398907 C15.6925889,0.758424741 16.4510137,1.71860379e-16 17.386578,0 Z" id="矩形" fill="#999999"></path>
            <g id="编组" transform="translate(0.000000, 2.000000)" fill-rule="nonzero">
                <path d="M11.2319433,0 L88.7680567,0 C92.6356204,5.27153475e-15 95.8010557,3.07744234 95.9100602,6.94346954 L99.8757219,147.592272 C99.9424508,149.958923 98.077995,151.931568 95.7113432,151.998297 C95.6710788,151.999432 95.6308003,152 95.5905198,152 L4.40948015,152 C2.04188785,152 0.12257506,150.080687 0.12257506,147.713095 C0.12257506,147.672814 0.123142782,147.632536 0.124278058,147.592272 L4.08993977,6.94346954 C4.19894429,3.07744234 7.36437965,2.48681675e-15 11.2319433,0 Z" id="矩形" stroke="#999999" stroke-width="2.54237288"></path>
                <path d="M77.9742086,125.310922 L95,152 L95,152 L5,152 L22.0257914,125.310922 C22.9441234,123.871374 24.5335819,123 26.2411036,123 L73.7588964,123 C75.4664181,123 77.0558766,123.871374 77.9742086,125.310922 Z" id="矩形" fill="url(#linearGradient-1)"></path>
                <polygon id="矩形" fill="url(#linearGradient-2)" points="77.5 121 89 0 11 0 22.5 121"></polygon>
            </g>
            <path d="M21.0899556,128.708372 L10,146 L10,146 L18.9466865,125.568461 C19.219358,124.945761 19.3382094,124.266598 19.2932072,123.588306 L12.5531915,22 L12.5531915,22 L22.3788394,118.673928 C22.5986945,120.837069 24.4201252,122.482759 26.5944099,122.482759 L73.4055901,122.482759 C75.5798748,122.482759 77.4013055,120.837069 77.6211606,118.673928 L87.4468085,22 L87.4468085,22 L80.7067928,123.588306 C80.6617906,124.266598 80.780642,124.945761 81.0533135,125.568461 L90,146 L90,146 L78.9100444,128.708372 C78.1308109,127.49338 76.7866858,126.758621 75.3432828,126.758621 L24.6567172,126.758621 C23.2133142,126.758621 21.8691891,127.49338 21.0899556,128.708372 Z" id="路径" fill="url(#linearGradient-3)"></path>
        </g>
        <g id="编组-2备份-2" transform="translate(40.000000, 82.000000)">
            <path d="M17.386578,0 L29.2528371,0 C30.1884015,5.51503807e-16 30.9468262,0.758424741 30.9468262,1.69398907 L30.9468262,1.69398907 L30.9468262,1.69398907 L15.6925889,1.69398907 C15.6925889,0.758424741 16.4510137,1.71860379e-16 17.386578,0 Z" id="矩形" fill="#999999"></path>
            <g id="编组" transform="translate(0.000000, 2.000000)" fill-rule="nonzero">
                <path d="M11.2319433,0 L88.7680567,0 C92.6356204,5.27153475e-15 95.8010557,3.07744234 95.9100602,6.94346954 L99.8757219,147.592272 C99.9424508,149.958923 98.077995,151.931568 95.7113432,151.998297 C95.6710788,151.999432 95.6308003,152 95.5905198,152 L4.40948015,152 C2.04188785,152 0.12257506,150.080687 0.12257506,147.713095 C0.12257506,147.672814 0.123142782,147.632536 0.124278058,147.592272 L4.08993977,6.94346954 C4.19894429,3.07744234 7.36437965,2.48681675e-15 11.2319433,0 Z" id="矩形" stroke="#999999" stroke-width="2.54237288"></path>
                <path d="M77.9742086,125.310922 L95,152 L95,152 L5,152 L22.0257914,125.310922 C22.9441234,123.871374 24.5335819,123 26.2411036,123 L73.7588964,123 C75.4664181,123 77.0558766,123.871374 77.9742086,125.310922 Z" id="矩形" fill="url(#linearGradient-1)"></path>
                <polygon id="矩形" fill="url(#linearGradient-2)" points="77.5 121 89 0 11 0 22.5 121"></polygon>
            </g>
            <path d="M21.0899556,128.708372 L10,146 L10,146 L18.9466865,125.568461 C19.219358,124.945761 19.3382094,124.266598 19.2932072,123.588306 L12.5531915,22 L12.5531915,22 L22.3788394,118.673928 C22.5986945,120.837069 24.4201252,122.482759 26.5944099,122.482759 L73.4055901,122.482759 C75.5798748,122.482759 77.4013055,120.837069 77.6211606,118.673928 L87.4468085,22 L87.4468085,22 L80.7067928,123.588306 C80.6617906,124.266598 80.780642,124.945761 81.0533135,125.568461 L90,146 L90,146 L78.9100444,128.708372 C78.1308109,127.49338 76.7866858,126.758621 75.3432828,126.758621 L24.6567172,126.758621 C23.2133142,126.758621 21.8691891,127.49338 21.0899556,128.708372 Z" id="路径" fill="url(#linearGradient-3)"></path>
        </g>
        <g id="编组-3" transform="translate(71.545942, 41.045942)" stroke="#999999" stroke-width="3">
            <path d="M30.7279221,5.27207794 C16.6690476,5.27207794 5.27207794,16.6690476 5.27207794,30.7279221" id="椭圆形备份-5" transform="translate(18.000000, 18.000000) rotate(-315.000000) translate(-18.000000, -18.000000) "></path>
            <path d="M25.3945887,17.2720779 C16.8588435,17.2720779 9.9392548,24.1916666 9.9392548,32.7274119" id="椭圆形备份-6" transform="translate(17.666922, 24.999745) rotate(-315.000000) translate(-17.666922, -24.999745) "></path>
        </g>
        <g id="编组-3备份" transform="translate(191.545942, 41.045942)" stroke="#999999" stroke-width="3">
            <path d="M30.7279221,5.27207794 C16.6690476,5.27207794 5.27207794,16.6690476 5.27207794,30.7279221" id="椭圆形备份-5" transform="translate(18.000000, 18.000000) rotate(-315.000000) translate(-18.000000, -18.000000) "></path>
            <path d="M25.3945887,17.2720779 C16.8588435,17.2720779 9.9392548,24.1916666 9.9392548,32.7274119" id="椭圆形备份-6" transform="translate(17.666922, 24.999745) rotate(-315.000000) translate(-17.666922, -24.999745) "></path>
        </g>
    </g>
</svg>