<?xml version="1.0" encoding="UTF-8"?>
<svg width="300px" height="300px" viewBox="0 0 300 300" version="1.1" xmlns="http://www.w3.org/2000/svg" xmlns:xlink="http://www.w3.org/1999/xlink">
    <title>img/Nano说明图/img_nano_bluelight</title>
    <defs>
        <linearGradient x1="50%" y1="17.0683751%" x2="50%" y2="103.774111%" id="linearGradient-1">
            <stop stop-color="#FFFFFF" stop-opacity="0" offset="0%"></stop>
            <stop stop-color="#FFFFFF" stop-opacity="0.45" offset="100%"></stop>
        </linearGradient>
        <linearGradient x1="50%" y1="0%" x2="50%" y2="100%" id="linearGradient-2">
            <stop stop-color="#999999" stop-opacity="0" offset="0%"></stop>
            <stop stop-color="#999999" offset="84.5438663%"></stop>
            <stop stop-color="#999999" stop-opacity="0" offset="100%"></stop>
        </linearGradient>
        <filter x="-100.0%" y="-47.3%" width="300.0%" height="194.6%" filterUnits="objectBoundingBox" id="filter-3">
            <feGaussianBlur stdDeviation="6" in="SourceGraphic"></feGaussianBlur>
        </filter>
    </defs>
    <g id="img/Nano说明图/img_nano_bluelight" stroke="none" stroke-width="1" fill="none" fill-rule="evenodd">
        <path d="M106,61.5 L106,36.8394548 C106,32.9734616 109.134007,29.8394548 113,29.8394548 C113.781374,29.8394548 114.557234,29.9702797 115.295404,30.226504 L216.918724,65.500714 C222.953859,67.5955545 227,73.2829571 227,79.6713229 L227,216.27831 C227,220.144303 223.865993,223.27831 220,223.27831 C219.030538,223.27831 218.071645,223.076935 217.184084,222.686946 L194,212.5 L194,212.5" id="矩形" stroke="#BFBFBF" stroke-width="3" opacity="0.5" stroke-linejoin="round"></path>
        <g id="编组" transform="translate(76.000000, 56.000000)">
            <path d="M3,20 L73.168808,48.2171454 L49.4477825,189.999572 C49.2059422,191.118419 49.2328183,192.277125 49.5284109,193.475692 L0.497488022,163.156399 L3,20 Z" id="矩形" fill="url(#linearGradient-1)" fill-rule="nonzero"></path>
            <path d="M49.5505226,193.488148 L49.2988269,193.237214 C49.2988269,193.237214 2.06439192,165.131276 1.2943392,163.654313 C0.590951824,162.308272 0.000487373918,160.265345 0.000487373918,160.265345 L0.51612338,163.054254 C0.51612338,163.054254 2.85757342,169.338507 3.94054509,171.071859 C5.02487727,172.805211 9.0057505,176.090533 9.0057505,176.090533 L68.2657967,212.034058 L51.8702043,197.226242 C50.7205673,196.23069 49.9341884,194.917379 49.5505226,193.488148" id="Fill-1" fill="#999999" opacity="0.5"></path>
            <path d="M13.0653977,10.3394149 C16.3061496,9.34113522 29.2120154,14.5930139 31.6976803,15.5081036 C37.8050418,17.754233 43.9083218,20.0099087 50.0129624,22.2614932 C58.6767357,25.459534 67.34323,28.6507561 76.0002008,31.866526 C80.8327577,33.6612474 85.6843619,35.0659306 89.9468622,38.3335238 C93.9236539,41.3842775 93.8814779,45.100551 94.1807917,49.3677877 C95.4814461,67.8700566 95.1100249,86.3668705 95.4528752,104.867776 C95.7957255,123.379591 96.1399364,141.888679 96.4827867,160.397767 C96.6542119,169.646855 96.825637,178.897308 96.9957017,188.146397 C97.1099851,194.340641 97.2242686,200.536248 97.338552,206.730492 C97.3616808,207.976978 98.0419394,214.527166 96.5902676,215.708191" id="Stroke-3" stroke="#9A9A9A" stroke-width="2.7275402" stroke-linecap="round" stroke-linejoin="round"></path>
            <path d="M45.0746932,13.3039784 L45.055646,12.6493687 L45.055646,12.648005 L45.055646,12.6452774 C45.0515644,12.5429947 45.0066673,12.4584409 44.937281,12.3970713 L44.5753834,12.0670389 C44.5413705,12.037036 44.503276,12.0138519 44.4624605,11.9988504 L41.6611556,10.9896605 C38.757812,9.94092131 35.8544684,8.89354587 32.9416011,7.8707183 C32.8708542,7.84889798 32.7987468,7.84617044 32.7252789,7.86799076 L28.4518945,9.23312463 C28.4042764,9.2481261 28.3607398,9.27403773 28.3226453,9.30813198 L27.9716319,9.63816435 C27.900885,9.70498908 27.8627905,9.80181676 27.8653752,9.89864444 L27.8900009,10.5423439 L27.9172112,10.5423439 C27.9158507,10.5505265 27.9172112,10.5587092 27.9172112,10.5668918 L27.8913614,10.5696193 L27.9185717,10.5682556 C27.9253743,10.701905 27.982516,10.8287356 28.1172072,10.8764676 C31.0926583,11.9388445 34.0572252,13.0257693 37.0231526,14.1113303 L39.5754828,15.0455128 C39.7441869,15.1068825 39.907449,15.1382492 40.0734321,15.1382492 C40.2339731,15.1382492 40.3972352,15.1082462 40.5727419,15.0509679 L44.8461263,13.6367383 C44.9590492,13.5999165 45.0447618,13.5071801 45.0706116,13.3912597 C45.0760537,13.3667118 45.0692511,13.3421639 45.0692511,13.3176161 C45.0692511,13.312161 45.0746932,13.3094335 45.0746932,13.3039784" id="Fill-5" fill="#9A9A9A"></path>
            <path d="M74.9200862,215.830794 L68.2657967,212.034058 L51.8702043,197.226242 C49.8457548,195.473797 48.9056374,192.750348 49.4131103,190.118272 L73.2847445,47.8115896 L77.2860255,48.6107589 L53.4171124,190.906531 C53.1885455,192.094375 53.6184689,193.334042 54.5381785,194.131847 L80.5485457,218.143748 L74.9200862,215.830794 Z" id="Fill-7" fill="url(#linearGradient-2)"></path>
            <path d="M9.48601306,11.6019933 C10.5023194,11.2160464 11.5281493,10.8587386 12.5553398,10.5014308 C11.5281493,10.8587386 10.5023194,11.2160464 9.48601306,11.6019933 C7.56904437,12.3329741 5.67656499,12.8443879 4.17183301,14.4945497 C2.00997123,16.9752475 1.98820295,31.5989543 1.92697968,34.109655 C1.7623571,40.7607618 1.64807366,48.4169672 1.50930091,55.0680739" id="Stroke-9" stroke="#9A9A9A" stroke-width="2.7275402" stroke-linecap="round" stroke-linejoin="round"></path>
            <path d="M12.5552037,10.5019763 C23.6379766,6.94253637 34.7833332,3.58766192 45.8987584,0.131868485 C49.0660424,-0.852773528 61.9324533,3.97224509 64.4194786,4.81369124 C70.5050719,6.87162032 76.5865837,8.93773203 82.6694559,10.9997524 C93.4025758,14.6396548 104.230932,17.9754365 114.833442,22.0162873 C120.599314,24.2146847 125.042763,26.0612294 125.646833,33.3287603 C126.120293,39.007499 125.984241,44.6753275 125.974717,50.3527024 C125.939344,73.0649297 125.831863,95.7757932 125.759756,118.48802 C122.912193,124.039929 120.064631,129.590473 117.218429,135.143745 C117.251081,146.278928 117.286455,157.41411 117.319107,168.550657 C117.335433,174.11893 117.35176,179.687204 117.368086,185.255477 C117.376249,188.038932 117.384412,190.822387 117.391215,193.605841 C117.395296,194.767773 117.943584,200.69881 116.561299,201.774824 C115.079696,202.809926 113.599453,203.843664 112.11785,204.876037" id="Stroke-11" stroke="#9A9A9A" stroke-width="2.7275402" stroke-linecap="round" stroke-linejoin="round"></path>
            <path d="M1.50889276,55.0682103 C1.02182761,81.6808201 0.443607815,108.289338 0.228646103,134.907403 C0.160620244,139.173276 0.0912338689,143.440513 0.0218474934,147.706386 C0.0123238733,152.157731 -0.0788307769,156.606349 0.198714725,161.060423 C0.204156794,161.153159 0.21095938,161.245895 0.216401448,161.339995 C0.221843517,161.42864 0.227285586,161.518649 0.232727654,161.608658 C0.322521787,162.46647 0.363337302,163.306552 0.733397971,164.127541" id="Stroke-13" stroke="#9A9A9A" stroke-width="2.7275402" stroke-linecap="round" stroke-linejoin="round"></path>
            <path d="M1.43460852,165.472219 C1.37610628,165.363117 1.31624353,165.252652 1.25774129,165.14355 C1.07543199,164.808063 0.890401652,164.475303 0.732581661,164.127541 C0.909448893,164.518944 1.12032905,164.889889 1.32440663,165.267653 C1.33120921,165.278563 1.33665128,165.289474 1.34345387,165.301748 C1.37338525,165.359026 1.40467714,165.416304 1.43596904,165.472219 C2.96791137,168.308861 4.33114957,171.185052 6.51069807,173.661658 C7.5120387,174.782677 8.65079157,175.671855 9.89974633,176.486026 C19.3199672,182.699363 29.050386,188.390375 38.6869291,194.24504 C49.9152772,201.066618 61.0606339,208.020482 72.5012227,214.492935 C73.2984858,214.953889 74.1025514,215.405297 74.9202222,215.830794 C78.0725405,217.485047 81.0697598,219.227945 84.7105038,219.853915 C86.000274,220.077574 87.2097738,220.047571 88.4832179,219.742086 C88.6845744,219.695718 88.8832099,219.664351 89.0682402,219.557977 C90.0886281,219.097023 91.14575,218.731533 92.1525327,218.233756 C92.8450359,217.883268 93.5252945,217.509595 94.202832,217.130466 C94.836833,216.773159 95.468113,216.41176 96.1007535,216.050361 C96.2436078,215.952169 96.3851016,215.852614 96.5293164,215.754422 C97.570112,215.027533 98.6109076,214.302007 99.6517033,213.573754 C100.401348,213.055521 100.329241,212.369545 100.412232,211.631745 C101.556427,210.84485 102.701983,210.055227 103.844817,209.268332 C103.761826,209.99113 103.829851,210.663469 103.097893,211.170791 C103.855701,210.640285 104.61623,210.111142 105.374038,209.581999 C106.096473,209.081495 106.031168,208.417339 106.11416,207.706815 C107.054277,207.060388 107.991674,206.413961 108.931791,205.768898 C108.844718,206.467148 108.907302,207.11903 108.201193,207.608624 C108.761726,207.217222 109.32362,206.82582 109.884153,206.434418 C109.912724,206.412597 109.941295,206.390777 109.968505,206.367593 C110.546725,205.864362 110.529038,205.262939 110.609309,204.613784 L112.833754,203.083634 C112.752123,203.72597 112.77117,204.320574 112.194311,204.816986" id="Stroke-15" stroke="#9A9A9A" stroke-width="2.7275402" stroke-linecap="round" stroke-linejoin="round"></path>
            <path d="M67.3771069,21.5039189 L54.5093355,16.8725556 C54.2508373,16.7784555 53.9624076,16.7770917 53.6998278,16.8698281 L51.2862704,17.7167293 C51.0141669,17.8108294 50.8318576,18.0672182 50.8304895,18.3563375 C50.8291366,18.6454567 51.0100854,18.9045731 51.2808283,19.0014007 L64.1485997,23.6341278 C64.2805698,23.6804959 64.4193426,23.70368 64.5581153,23.70368 C64.6928065,23.70368 64.8288583,23.6818597 64.9581074,23.6354915 L67.3716648,22.7885903 C67.6437683,22.6944902 67.8260776,22.4381014 67.8274457,22.1489821 C67.8287986,21.8598629 67.6478498,21.6007465 67.3771069,21.5039189" id="Fill-17" fill="#2A75FF" fill-rule="nonzero"></path>
            <path d="M83.3924347,28.3241331 L80.6890871,27.4431377 C80.4986147,27.3790405 80.2945371,27.3844955 80.1081463,27.4485927 L77.6973099,28.295494 C77.5612582,28.3445897 77.468743,28.4741478 77.4700887,28.621435 C77.471464,28.7673584 77.5667002,28.8969166 77.705473,28.9405572 L80.4455545,29.8324629 C80.5271856,29.8583745 80.6101771,29.8720122 80.6931687,29.8720122 C80.7816023,29.8720122 80.8700359,29.8570107 80.957109,29.8270078 L83.3992373,28.9705602 C83.5366495,28.9201007 83.6291647,28.7905425 83.627819,28.6432553 C83.6264437,28.4973319 83.532568,28.3677738 83.3924347,28.3241331" id="Fill-19" fill="#999999"></path>
        </g>
        <path d="M127.39316,77.0896471 C127.39316,87.5998941 131.422969,96.1203794 136.392472,96.1203794 C141.36335,96.1203794 145.39316,87.5998941 145.39316,77.0896471 C145.39316,66.5823091 141.36335,58.0618238 136.392472,58.0618238 C131.422969,58.0618238 127.39316,66.5823091 127.39316,77.0896471" id="Fill-20" fill="#367DFF" opacity="0.596277873" filter="url(#filter-3)" transform="translate(136.393160, 77.091102) rotate(-72.000000) translate(-136.393160, -77.091102) "></path>
        <circle id="椭圆形" stroke="#F85656" stroke-width="4" cx="111.5" cy="67.5" r="19.5"></circle>
    </g>
</svg>