<?xml version="1.0" encoding="UTF-8"?>
<svg width="300px" height="300px" viewBox="0 0 300 300" version="1.1" xmlns="http://www.w3.org/2000/svg" xmlns:xlink="http://www.w3.org/1999/xlink">
    <title>img/Nano说明图/img_nano_networking</title>
    <defs>
        <linearGradient x1="50%" y1="0%" x2="50%" y2="85.5332197%" id="linearGradient-1">
            <stop stop-color="#999999" stop-opacity="0.5" offset="0%"></stop>
            <stop stop-color="#999999" stop-opacity="0" offset="100%"></stop>
        </linearGradient>
        <linearGradient x1="50%" y1="12.2443838%" x2="50%" y2="101.428699%" id="linearGradient-2">
            <stop stop-color="#FFFFFF" stop-opacity="0" offset="0%"></stop>
            <stop stop-color="#FFFFFF" stop-opacity="0.45" offset="100%"></stop>
        </linearGradient>
        <linearGradient x1="50%" y1="0%" x2="50%" y2="100%" id="linearGradient-3">
            <stop stop-color="#999999" stop-opacity="0" offset="0%"></stop>
            <stop stop-color="#999999" offset="77.56998%"></stop>
            <stop stop-color="#999999" offset="84.9514665%"></stop>
            <stop stop-color="#999999" stop-opacity="0" offset="100%"></stop>
        </linearGradient>
        <linearGradient x1="50%" y1="0%" x2="50%" y2="85.5332197%" id="linearGradient-4">
            <stop stop-color="#999999" stop-opacity="0.5" offset="0%"></stop>
            <stop stop-color="#999999" stop-opacity="0" offset="100%"></stop>
        </linearGradient>
        <linearGradient x1="50%" y1="0%" x2="50%" y2="100%" id="linearGradient-5">
            <stop stop-color="#999999" stop-opacity="0" offset="0%"></stop>
            <stop stop-color="#999999" offset="77.56998%"></stop>
            <stop stop-color="#999999" offset="84.9514665%"></stop>
            <stop stop-color="#999999" stop-opacity="0" offset="100%"></stop>
        </linearGradient>
        <path d="M39.5,0 C61.3152476,0 79,17.6847524 79,39.5 C79,60.5284128 62.5679526,77.7189154 41.8437482,78.9316172 L39,88 L35.6277722,78.8126121 C15.6298838,76.8668826 0,60.0087188 0,39.5 C0,17.6847524 17.6847524,0 39.5,0 Z" id="path-6"></path>
        <linearGradient x1="50%" y1="5.96626228%" x2="50%" y2="103.260203%" id="linearGradient-8">
            <stop stop-color="#FFFFFF" stop-opacity="0" offset="0%"></stop>
            <stop stop-color="#FFFFFF" stop-opacity="0.45" offset="100%"></stop>
        </linearGradient>
        <linearGradient x1="50%" y1="0%" x2="50%" y2="100%" id="linearGradient-9">
            <stop stop-color="#999999" stop-opacity="0" offset="0%"></stop>
            <stop stop-color="#999999" offset="84.5438663%"></stop>
            <stop stop-color="#999999" stop-opacity="0" offset="100%"></stop>
        </linearGradient>
        <filter x="-99.1%" y="-46.9%" width="298.2%" height="193.7%" filterUnits="objectBoundingBox" id="filter-10">
            <feGaussianBlur stdDeviation="5" in="SourceGraphic"></feGaussianBlur>
        </filter>
    </defs>
    <g id="img/Nano说明图/img_nano_networking" stroke="none" stroke-width="1" fill="none" fill-rule="evenodd">
        <path d="M271.481662,227 L280,227 C286.075132,227 291,222.075132 291,216 L291,101 C291,94.9248678 286.075132,90 280,90 L20,90 C13.9248678,90 9,94.9248678 9,101 L9,216 C9,222.075132 13.9248678,227 20,227 L28.5502421,227 L28.5502421,227" id="Stroke-1" stroke="#BFBFBF" stroke-width="3" opacity="0.5" stroke-linejoin="round"></path>
        <line x1="127.5" y1="226.5" x2="172.5" y2="226.5" id="直线" stroke="#BFBFBF" stroke-width="3" opacity="0.5" stroke-linejoin="round"></line>
        <g id="编组-2备份" transform="translate(172.000000, 103.000000)">
            <path d="M17.386578,0 L29.2528371,0 C30.1884015,5.51503807e-16 30.9468262,0.758424741 30.9468262,1.69398907 L30.9468262,1.69398907 L30.9468262,1.69398907 L15.6925889,1.69398907 C15.6925889,0.758424741 16.4510137,1.71860379e-16 17.386578,0 Z" id="矩形" fill="#999999"></path>
            <g id="编组" transform="translate(0.000000, 2.000000)" fill-rule="nonzero">
                <path d="M11.2319433,0 L88.7680567,0 C92.6356204,5.27153475e-15 95.8010557,3.07744234 95.9100602,6.94346954 L99.8757219,147.592272 C99.9424508,149.958923 98.077995,151.931568 95.7113432,151.998297 C95.6710788,151.999432 95.6308003,152 95.5905198,152 L4.40948015,152 C2.04188785,152 0.12257506,150.080687 0.12257506,147.713095 C0.12257506,147.672814 0.123142782,147.632536 0.124278058,147.592272 L4.08993977,6.94346954 C4.19894429,3.07744234 7.36437965,2.48681675e-15 11.2319433,0 Z" id="矩形" stroke="#999999" stroke-width="2.54237288"></path>
                <path d="M77.9742086,125.310922 L95,152 L95,152 L5,152 L22.0257914,125.310922 C22.9441234,123.871374 24.5335819,123 26.2411036,123 L73.7588964,123 C75.4664181,123 77.0558766,123.871374 77.9742086,125.310922 Z" id="矩形" fill="url(#linearGradient-1)"></path>
                <polygon id="矩形" fill="url(#linearGradient-2)" points="77.5 121 89 0 11 0 22.5 121"></polygon>
            </g>
            <path d="M21.0899556,128.708372 L10,146 L10,146 L18.9466865,125.568461 C19.219358,124.945761 19.3382094,124.266598 19.2932072,123.588306 L12.5531915,22 L12.5531915,22 L22.3788394,118.673928 C22.5986945,120.837069 24.4201252,122.482759 26.5944099,122.482759 L73.4055901,122.482759 C75.5798748,122.482759 77.4013055,120.837069 77.6211606,118.673928 L87.4468085,22 L87.4468085,22 L80.7067928,123.588306 C80.6617906,124.266598 80.780642,124.945761 81.0533135,125.568461 L90,146 L90,146 L78.9100444,128.708372 C78.1308109,127.49338 76.7866858,126.758621 75.3432828,126.758621 L24.6567172,126.758621 C23.2133142,126.758621 21.8691891,127.49338 21.0899556,128.708372 Z" id="路径" fill="url(#linearGradient-3)"></path>
        </g>
        <g id="编组-2备份-2" transform="translate(28.513141, 103.000000)">
            <path d="M16.8734367,0 L28.7396959,0 C29.6752602,5.51503807e-16 30.4336849,0.758424741 30.4336849,1.69398907 L30.4336849,1.69398907 L30.4336849,1.69398907 L15.1794476,1.69398907 C15.1794476,0.758424741 15.9378724,1.71860379e-16 16.8734367,0 Z" id="矩形" fill="#999999"></path>
            <g id="编组" transform="translate(0.000000, 2.000000)" fill-rule="nonzero">
                <path d="M0,134.928811 L3.57838844,6.94515187 C3.68650049,3.0784459 6.85222196,-8.17120425e-15 10.720439,0 L88.2549156,0 C92.1224791,1.06589694e-15 95.2879144,3.07744228 95.3969189,6.9434694 L99.3636844,147.631418 C99.4304133,149.99807 97.5659574,151.970715 95.1993055,152.037444 C95.1717808,152.03822 95.1442493,152.038731 95.1167147,152.038977 L17.4983114,152.731241 L17.4983114,152.731241" id="矩形" stroke="#999999" stroke-width="2.54237288"></path>
                <path d="M73.2457551,123 C74.9532768,123 76.5427353,123.871374 77.4610673,125.310922 L94.4868587,152 L17.4868587,152 L17.4868587,152 C17.4868587,147.151338 15.5697484,142.750441 12.4521828,139.513964 L21.5126502,125.310922 C22.4309822,123.871374 24.0204406,123 25.7279624,123 L73.2457551,123 Z" id="形状结合" fill="url(#linearGradient-4)"></path>
                <polygon id="矩形" fill="url(#linearGradient-2)" points="76.9868587 121 88.4868587 0 10.4868587 0 21.9868587 121"></polygon>
            </g>
            <path d="M86.9336672,22 L80.1936515,123.588306 C80.1486493,124.266598 80.2675007,124.945761 80.5401723,125.568461 L89.4868587,146 L78.3969031,128.708372 C77.6176696,127.49338 76.2735445,126.758621 74.8301416,126.758621 L24.1435759,126.758621 C22.7001729,126.758621 21.3560478,127.49338 20.5768143,128.708372 L12.3998369,141.459847 C12.1896153,141.243415 11.974,141.032251 11.7532077,140.826571 L18.4335452,125.568461 C18.7062168,124.945761 18.8250681,124.266598 18.7800659,123.588306 L12.0400502,22 L21.8656981,118.673928 C22.0855532,120.837069 23.906984,122.482759 26.0812686,122.482759 L72.8924489,122.482759 C75.0667335,122.482759 76.8881642,120.837069 77.1080193,118.673928 L86.9336672,22 Z" id="形状结合" fill="url(#linearGradient-5)"></path>
        </g>
        <path d="M37.9798455,256.000269 C37.9274437,254.607498 37.7561303,253.265117 37.4880752,252.001344 L41.0030232,252.001344 C41.5250252,253.246977 41.8555593,254.593389 41.9623782,256.000269 L37.9798455,256.000269 Z M37.4880752,262.002687 C37.7561303,260.736899 37.9274437,259.394518 37.9798455,257.999731 L41.9603628,257.999731 C41.8555593,259.408627 41.5250252,260.753023 41.0030232,262.002687 L37.4880752,262.002687 Z M36.9660732,264.00215 L39.9570037,264.00215 C38.6530064,266.035877 36.8008062,267.680597 34.6100101,268.730718 C35.5774269,267.444773 36.3815922,265.83835 36.9660732,264.00215 Z M30.0006718,264.00215 L34.9002351,264.00215 C33.8259993,267.116232 32.0544172,269.3233 30.0006718,269.873555 L30.0006718,264.00215 Z M30.0006718,257.999731 L35.9805173,257.999731 C35.9220692,259.408627 35.7447094,260.753023 35.4605307,262.002687 L30.0006718,262.002687 L30.0006718,257.999731 Z M30.0006718,252.001344 L35.4605307,252.001344 C35.7447094,253.246977 35.9180383,254.593389 35.9805173,256.000269 L30.0006718,256.000269 L30.0006718,252.001344 Z M30.0006718,244.12846 C32.0544172,244.6767 33.8259993,246.885783 34.9002351,249.99785 L30.0006718,249.99785 L30.0006718,244.12846 Z M36.9660732,249.99785 C36.3815922,248.163666 35.5814578,246.553212 34.6100101,245.269282 C36.8008062,246.319403 38.6530064,247.966138 39.9570037,249.99785 L36.9660732,249.99785 Z M27.9993282,249.99785 L23.0997649,249.99785 C24.1740007,246.885783 25.9435673,244.6767 27.9993282,244.12846 L27.9993282,249.99785 Z M27.9993282,256.000269 L22.0194827,256.000269 C22.0779308,254.593389 22.2552906,253.246977 22.5374538,252.001344 L27.9993282,252.001344 L27.9993282,256.000269 Z M27.9993282,262.002687 L22.5374538,262.002687 C22.2552906,260.753023 22.0779308,259.408627 22.0194827,257.999731 L27.9993282,257.999731 L27.9993282,262.002687 Z M27.9993282,269.873555 C25.9435673,269.3233 24.1740007,267.116232 23.0997649,264.00215 L27.9993282,264.00215 L27.9993282,269.873555 Z M21.0359422,264.00215 C21.6204232,265.83835 22.4225731,267.448804 23.3899899,268.730718 C21.1971784,267.680597 19.3449782,266.035877 18.0409809,264.00215 L21.0359422,264.00215 Z M20.0201545,257.999731 C20.0745717,259.394518 20.2438697,260.736899 20.5119248,262.002687 L16.9949614,262.002687 C16.4769903,260.753023 16.1444407,259.408627 16.0376218,257.999731 L20.0201545,257.999731 Z M20.5119248,252.001344 C20.2438697,253.265117 20.0745717,254.607498 20.0201545,256.000269 L16.0376218,256.000269 C16.1444407,254.593389 16.4769903,253.246977 16.9949614,252.001344 L20.5119248,252.001344 Z M21.0379577,249.99785 L18.0409809,249.99785 C19.3449782,247.966138 21.1971784,246.319403 23.3899899,245.269282 C22.4245885,246.553212 21.6224387,248.163666 21.0379577,249.99785 Z M43.9637219,256.000269 C43.4719516,248.510347 37.4880752,242.524053 30.0006718,242.032249 L30.0006718,242 L28.9989923,242 L27.9993282,242 L27.9993282,242.032249 C20.5119248,242.524053 14.5260329,248.510347 14.0342627,256.000269 L14,256.000269 L14,257 L14,257.999731 L14.0342627,257.999731 C14.5260329,265.489653 20.5119248,271.473932 27.9993282,271.965735 L27.9993282,272 L28.9989923,272 L30.0006718,272 L30.0006718,271.965735 C37.4880752,271.473932 43.4719516,265.489653 43.9637219,257.999731 L44,257.999731 L44,257 L44,256.000269 L43.9637219,256.000269 Z" id="Fill-90" fill="#009FD1"></path>
        <g id="编组-2" transform="translate(111.000000, 8.000000)">
            <mask id="mask-7" fill="white">
                <use xlink:href="#path-6"></use>
            </mask>
            <path stroke="#979797" stroke-width="3" d="M39.5,-1.5 C50.8218374,-1.5 61.0718374,3.08908131 68.491378,10.508622 C75.9109187,17.9281626 80.5,28.1781626 80.5,39.5 C80.5,50.3812459 76.2610782,60.2724045 69.3446252,67.6124056 C62.6107316,74.7586677 53.3385562,79.4860804 42.9693503,80.3552063 L42.9693503,80.3552063 L39.111574,92.6572071 L34.5402286,80.2029112 C24.4952002,78.9912743 15.5680423,74.1481895 9.11154321,67.0239202 C2.51742792,59.7478016 -1.5,50.0930876 -1.5,39.5 C-1.5,28.1781626 3.08908131,17.9281626 10.508622,10.508622 C17.9281626,3.08908131 28.1781626,-1.5 39.5,-1.5 Z"></path>
            <g id="编组" mask="url(#mask-7)">
                <g transform="translate(5.000000, 24.000000)">
                    <path d="M1.64285714,10.9090909 L40.0686329,26.3002612 L27.0785476,103.63613 C26.9461112,104.24641 26.9608291,104.878432 27.1227012,105.532196 L0.272433917,88.9943993 L1.64285714,10.9090909 Z" id="矩形" stroke="none" fill="url(#linearGradient-8)" fill-rule="nonzero"></path>
                    <path d="M27.13481,105.53899 L26.9969766,105.402117 C26.9969766,105.402117 1.13050033,90.0716053 0.7088048,89.2659891 C0.323616475,88.5317848 0.000266895241,87.4174607 0.000266895241,87.4174607 L0.282638994,88.9386842 C0.282638994,88.9386842 1.56486164,92.3664584 2.15791755,93.311923 C2.7517185,94.2573876 4.93172051,96.0493815 4.93172051,96.0493815 L37.3836506,115.654941 L28.4051119,107.57795 C27.7755488,107.034922 27.3449127,106.31857 27.13481,105.53899" id="Fill-1" stroke="none" fill="#999999" fill-rule="evenodd" opacity="0.5"></path>
                    <path d="M7.15486063,5.63968087 C8.92955809,5.09516467 15.9970561,7.95982575 17.3582535,8.45896561 C20.702761,9.68412708 24.0450334,10.9144957 27.3880508,12.1426326 C32.1324981,13.8870186 36.8784355,15.6276851 41.6191576,17.3817414 C44.2655578,18.3606804 46.9223887,19.1268713 49.256615,20.9091948 C51.4343819,22.5732423 51.4112855,24.6003006 51.5751954,26.9278842 C52.2874586,37.0200309 52.0840612,47.1092021 52.2718126,57.2006049 C52.459564,67.2979587 52.6480604,77.3938248 52.8358118,87.4896909 C52.9296874,92.5346484 53.0235631,97.5803499 53.1166938,102.625307 C53.1792776,106.003986 53.2418614,109.383408 53.3044451,112.762087 C53.3171109,113.441988 53.6896335,117.014818 52.8946703,117.659013" id="Stroke-3" stroke="#9A9A9A" stroke-width="2.4" fill="none" stroke-linecap="round" stroke-linejoin="round"></path>
                    <path d="M24.6837606,7.25671548 L24.6733299,6.89965567 L24.6733299,6.8989118 L24.6733299,6.89742405 C24.6710948,6.84163345 24.6465083,6.79551323 24.608511,6.76203887 L24.410329,6.58202122 C24.3917029,6.56565598 24.3708416,6.55301011 24.3484903,6.54482749 L22.8144424,5.99436028 C21.2245161,5.42232072 19.6345898,4.85102502 18.0394482,4.29311907 C18.0007059,4.28121708 17.9612185,4.27972933 17.9209861,4.29163132 L15.5807993,5.0362498 C15.5547228,5.04443242 15.5308813,5.05856604 15.5100201,5.0771629 L15.3177984,5.25718055 C15.2790561,5.29363041 15.2581948,5.34644551 15.2596102,5.3992606 L15.2730957,5.75036941 L15.2879966,5.75036941 C15.2872516,5.75483266 15.2879966,5.75929591 15.2879966,5.76375916 L15.2738408,5.76524691 L15.2887417,5.76450303 C15.2924669,5.83740274 15.3237588,5.90658308 15.3975182,5.93261869 C17.0269319,6.512097 18.6503852,7.10496506 20.2745836,7.69708924 L21.6722882,8.20664334 C21.7646738,8.2401177 21.8540792,8.25722682 21.9449747,8.25722682 C22.03289,8.25722682 22.1222955,8.24086158 22.2184063,8.20961884 L24.558593,7.43822088 C24.6204317,7.41813627 24.6673696,7.3675528 24.6815254,7.30432345 C24.6845056,7.29093371 24.6807804,7.27754397 24.6807804,7.26415423 C24.6807804,7.26117873 24.6837606,7.25969098 24.6837606,7.25671548" id="Fill-5" stroke="none" fill="#9A9A9A" fill-rule="evenodd"></path>
                    <path d="M41.0276662,117.725887 L37.3836506,115.654941 L28.4051119,107.57795 C27.2964848,106.622071 26.7816586,105.136554 27.0595604,103.700876 L40.132122,26.0790489 L42.3232997,26.5149594 L29.2522282,104.130835 C29.1270606,104.77875 29.3624949,105.454932 29.8661454,105.890099 L44.1099179,118.987499 L41.0276662,117.725887 Z" id="Fill-7" stroke="none" fill="url(#linearGradient-9)" fill-rule="evenodd"></path>
                    <path d="M5.19472144,6.32835998 C5.75127014,6.11784347 6.31303415,5.92294832 6.87554322,5.72805318 C6.31303415,5.92294832 5.75127014,6.11784347 5.19472144,6.32835998 C4.14495287,6.72707676 3.10859511,7.00602974 2.28457522,7.90611801 C1.10069853,9.2592259 1.08877781,17.2357932 1.05525078,18.6052664 C0.965100319,22.2331428 0.902516529,26.4092548 0.826521928,30.0371312" id="Stroke-9" stroke="#9A9A9A" stroke-width="2.4" fill="none" stroke-linecap="round" stroke-linejoin="round"></path>
                    <path d="M6.87546871,5.72835073 C12.9446062,3.78683802 19.0480158,1.9569065 25.1350344,0.0719282646 C26.8694994,-0.465149197 33.9153911,2.16667914 35.2773335,2.62564977 C38.6099203,3.74815654 41.940272,4.87512656 45.2713687,5.99986495 C51.1490296,7.98526626 57.0788437,9.80478354 62.8849803,12.008884 C66.0424815,13.2080098 68.4757988,14.215216 68.8065988,18.1793238 C69.0658745,21.2768176 68.99137,24.3683605 68.9861547,27.4651104 C68.9667835,39.853598 68.907925,52.2413417 68.8684376,64.6298293 C67.3090582,67.6581428 65.7496787,70.6857125 64.1910444,73.7147698 C64.2089254,79.7885059 64.2282966,85.862242 64.2461777,91.936722 C64.2551182,94.973962 64.2640588,98.011202 64.2729993,101.048442 C64.2774696,102.56669 64.2819399,104.084938 64.2856651,105.603186 C64.2879002,106.236967 64.5881534,109.472078 63.8311876,110.058995 C63.0198334,110.623596 62.2092244,111.187453 61.3978702,111.750566" id="Stroke-11" stroke="#9A9A9A" stroke-width="2.4" fill="none" stroke-linecap="round" stroke-linejoin="round"></path>
                    <path d="M0.826298414,30.0372056 C0.559572263,44.5531746 0.242928089,59.0669119 0.125210961,73.5858564 C0.0879587053,75.9126961 0.0499614044,78.2402797 0.0119641035,80.5671195 C0.00674878774,82.9951262 -0.043169235,85.4216451 0.108819968,87.8511396 C0.111800149,87.901723 0.115525375,87.9523065 0.118505555,88.0036339 C0.121485735,88.0519857 0.124465916,88.1010814 0.127446096,88.1501772 C0.176619074,88.6180743 0.198970427,89.076301 0.401622699,89.5241135" id="Stroke-13" stroke="#9A9A9A" stroke-width="2.4" fill="none" stroke-linecap="round" stroke-linejoin="round"></path>
                    <path d="M0.785618951,90.2575739 C0.753582011,90.1980639 0.720800026,90.1378101 0.688763086,90.0783001 C0.588927041,89.895307 0.487600905,89.7138016 0.401175672,89.5241135 C0.498031537,89.7376056 0.613513529,89.9399394 0.725270297,90.1459927 C0.728995522,90.1519437 0.731975703,90.1578947 0.735700928,90.1645896 C0.752091921,90.1958323 0.769227958,90.227075 0.786363996,90.2575739 C1.6252848,91.8048331 2.37182,93.3736646 3.56538227,94.7245409 C4.11373548,95.3360058 4.73733824,95.821012 5.42128966,96.2651052 C10.579982,99.6541979 15.9085447,102.758387 21.1856992,105.95184 C27.3345566,109.672701 33.4379662,113.465718 39.7030505,116.996146 C40.139647,117.247576 40.5799686,117.493799 41.0277407,117.725887 C42.7540103,118.628207 44.3953447,119.578879 46.3890854,119.920317 C47.0953882,120.042313 47.7577333,120.025948 48.4550955,119.85932 C48.5653622,119.834028 48.6741388,119.816919 48.7754649,119.758897 C49.3342487,119.507467 49.9131488,119.308109 50.4644822,119.036594 C50.8437101,118.845419 51.2162327,118.641597 51.5872652,118.4348 C51.9344562,118.239905 52.2801571,118.042778 52.6266031,117.845651 C52.7048328,117.792092 52.7823175,117.737789 52.8612923,117.68423 C53.4312518,117.287745 54.0012113,116.892004 54.5711708,116.494775 C54.9816907,116.212103 54.9422033,115.837934 54.9876511,115.435497 C55.614234,115.006282 56.241562,114.575578 56.8673999,114.146363 C56.8219521,114.540616 56.8592044,114.907347 56.4583701,115.184068 C56.8733602,114.894701 57.2898405,114.606077 57.7048306,114.317454 C58.1004496,114.044452 58.0646874,113.682185 58.1101351,113.294626 C58.6249613,112.94203 59.1382974,112.589433 59.6531236,112.237581 C59.6054407,112.618444 59.6397128,112.974016 59.2530343,113.241067 C59.5599929,113.027575 59.8676966,112.814083 60.1746552,112.600591 C60.1903011,112.588689 60.205947,112.576787 60.220848,112.564142 C60.5374921,112.289652 60.5278065,111.961603 60.5717642,111.607519 L61.789913,110.772892 C61.7452103,111.123256 61.7556409,111.447586 61.4397418,111.718356" id="Stroke-15" stroke="#9A9A9A" stroke-width="2.4" fill="none" stroke-linecap="round" stroke-linejoin="round"></path>
                    <path d="M36.8969871,11.7294103 L29.8503504,9.20321215 C29.7087918,9.1518848 29.5508423,9.15114092 29.4070486,9.2017244 L28.0853385,9.66367052 C27.9363295,9.71499787 27.8364935,9.8548463 27.8357443,10.0125477 C27.8350034,10.1702491 27.9340944,10.3115853 28.0823584,10.3644004 L35.1289951,12.8913424 C35.2012644,12.9166342 35.277259,12.92928 35.3532536,12.92928 C35.4270131,12.92928 35.5015176,12.917378 35.5722969,12.8920863 L36.8940069,12.4301402 C37.043016,12.3788128 37.142852,12.2389644 37.1436012,12.081263 C37.1443421,11.9235616 37.0452511,11.7822254 36.8969871,11.7294103" id="Fill-17" stroke="none" fill="#5D96FF" fill-rule="nonzero"></path>
                    <path d="M45.6672857,15.4495272 L44.186881,14.9689842 C44.0825747,14.9340221 43.970818,14.9369976 43.8687468,14.9719597 L42.5485268,15.4339058 C42.4740223,15.4606853 42.4233593,15.5313534 42.4240962,15.6116918 C42.4248493,15.6912864 42.4770025,15.7619545 42.5529971,15.7857585 L44.053518,16.2722525 C44.0982207,16.2863861 44.1436684,16.2938248 44.1891162,16.2938248 C44.2375441,16.2938248 44.285972,16.2856422 44.3336549,16.269277 L45.6710109,15.8021237 C45.7462605,15.7746004 45.7969235,15.7039323 45.7961866,15.6235938 C45.7954334,15.5439992 45.7440253,15.4733312 45.6672857,15.4495272" id="Fill-19" stroke="none" fill="#999999" fill-rule="evenodd"></path>
                </g>
            </g>
            <path d="M29.8258731,35.0898786 C29.8258731,43.9269955 33.2141759,51.0911016 37.3925814,51.0911016 C41.5721437,51.0911016 44.9604465,43.9269955 44.9604465,35.0898786 C44.9604465,26.2552077 41.5721437,19.0911016 37.3925814,19.0911016 C33.2141759,19.0911016 29.8258731,26.2552077 29.8258731,35.0898786" id="Fill-20" fill="#367DFF" opacity="0.599076" filter="url(#filter-10)" mask="url(#mask-7)" transform="translate(37.393160, 35.091102) rotate(-72.000000) translate(-37.393160, -35.091102) "></path>
        </g>
        <line x1="129.5" y1="180.5" x2="170.5" y2="180.5" id="直线-2" stroke="#979797" stroke-width="2" stroke-linecap="square" stroke-dasharray="1,3"></line>
        <path d="M54,66 C55.1045695,66 56,66.8954305 56,68 L55.9994162,87 L59.4135753,87 C60.5181448,87 61.4135753,87.8954305 61.4135753,89 C61.4135753,89.5048228 61.2226695,89.9909713 60.8791622,90.3609022 L52.465587,99.4216756 C51.7139815,100.231097 50.4485191,100.277966 49.6390978,99.5263603 C49.6029229,99.4927693 49.568004,99.4578505 49.534413,99.4216756 L41.1208378,90.3609022 C40.3692322,89.5514809 40.4161012,88.2860185 41.2255225,87.534413 C41.5954534,87.1909058 42.0816019,87 42.5864247,87 L45.9994162,87 L46,68 C46,66.8954305 46.8954305,66 48,66 L54,66 Z" id="形状结合" fill="#FF5858"></path>
        <path d="M198,66 C199.104569,66 200,66.8954305 200,68 L199.999416,87 L203.413575,87 C204.518145,87 205.413575,87.8954305 205.413575,89 C205.413575,89.5048228 205.222669,89.9909713 204.879162,90.3609022 L196.465587,99.4216756 C195.713981,100.231097 194.448519,100.277966 193.639098,99.5263603 C193.602923,99.4927693 193.568004,99.4578505 193.534413,99.4216756 L185.120838,90.3609022 C184.369232,89.5514809 184.416101,88.2860185 185.225523,87.534413 C185.595453,87.1909058 186.081602,87 186.586425,87 L189.999416,87 L190,68 C190,66.8954305 190.895431,66 192,66 L198,66 Z" id="形状结合备份" fill="#FF5858"></path>
    </g>
</svg>