<svg width="200" height="200" xmlns="http://www.w3.org/2000/svg"><defs><linearGradient x1="50.861%" y1="2.711%" x2="51.815%" y2="96.331%" id="a"><stop stop-color="#999" stop-opacity="0" offset="0%"/><stop stop-color="#999" offset="62.534%"/><stop stop-color="#999" offset="85.346%"/><stop stop-color="#999" stop-opacity="0" offset="100%"/></linearGradient></defs><g fill="none" fill-rule="evenodd"><path d="m60.01 110.909-1.478 42.188-.001.159a3.145 3.145 0 0 0 2.072 2.915l.178.058 8.14 2.385c.125.07.255.13.39.183l.205.072 1.398.433.431.127c1.574.439 3.205.627 4.836.557l.49-.029 39.027-2.905c.167 1.314.417 2.601.745 3.857H29.545c-13.807 0-25-11.193-25-25s11.193-25 25-25H60.01zm115.111 33.636h6.697a8.182 8.182 0 1 1 0 16.364h-6.443a30.52 30.52 0 0 0 .989-7.727c0-3-.434-5.9-1.243-8.637zm-6.94-33.636a8.182 8.182 0 1 1 0 16.364h-6.258a30.312 30.312 0 0 0-16.014-4.546c-1.516 0-3.006.111-4.463.325l-.262-12.143h26.998zM58.532 59.091l-1.208 35.45C47.719 94.326 40 86.474 40 76.818c0-9.79 7.937-17.727 17.727-17.727h.804zm100.105 0c9.79 0 17.728 7.937 17.728 17.727 0 7.826-5.072 14.468-12.108 16.818h-23.443l-.742-34.545h18.565zm-10-32.727a7.727 7.727 0 0 1 0 15.454h-9.362c-.544-2.47-1.562-4.156-3.411-5.916l-.27-.252-.332-.298-.294-.252-.144-.12-.287-.228-.143-.109-.284-.205-.249-.168c-.823-.535-1.67-.893-2.731-1.128l-.362-.074-.394-.067-.414-.06-.437-.05-.461-.042-.487-.035-.514-.029-.543-.022-.873-.023-.624-.008-.659-.005H82.884l-.47.015c-.31.012-.616.03-.917.053l-.447.04-11.38.173-.618.013-.586.02-.553.027-.265.016-.257.02-.494.043c-2.72.274-4.12.986-5.469 2.588a6.25 6.25 0 0 0-.837 1.325 7.727 7.727 0 0 1 7.136-10.697h80.91z" fill-opacity=".3" fill="#B1B1B1"/><g fill-rule="nonzero"><path d="m27.313 13.29 15.864 79.95a5.513 5.513 0 0 0 5.61 4.437l20.52-.757a30.64 30.64 0 0 0-3.154 2.992l-18.856.927a7.876 7.876 0 0 0-5.388 2.51l-14.596 15.74 12.232-18.132a4.725 4.725 0 0 0 .753-3.362L27.313 13.289zm50.335-.788 1.813 78.905c-1.13.356-2.231.777-3.3 1.257l1.487-80.162z" fill="url(#a)" transform="translate(57.273 32.727)"/><path d="m125.361 32.727.66.005.623.008.59.014.283.009.543.022.514.029.487.035.46.042.438.05c.141.02.28.039.414.06l.394.067c1.346.253 2.348.677 3.342 1.37l.284.205.143.109.287.228.144.12.294.252.332.298c2.588 2.373 3.65 4.543 4.049 8.571l.051.575.023.296.04.613.032.64.025.67c.004.113.008.228.01.345l.017.713.011.746 1.595 74.233a30.3 30.3 0 0 0-3.11.624L136.73 48.87l-.016-1.018-.026-.943-.024-.59-.013-.284-.033-.546a33.434 33.434 0 0 0-.018-.262l-.042-.506-.048-.48a18.441 18.441 0 0 0-.12-.889l-.074-.412c-.384-2.01-1.103-3.275-2.42-4.578l-.272-.262a19.719 19.719 0 0 0-.288-.264l-.11-.098-.323-.276-.21-.168a8.097 8.097 0 0 0-.105-.08l-.207-.15a5.998 5.998 0 0 0-.314-.204l-.213-.123a5.605 5.605 0 0 0-1.596-.566l-.298-.056a9.94 9.94 0 0 0-.156-.025l-.327-.046-.349-.04-.372-.032-.398-.028-.648-.031-.717-.021-.79-.013-.57-.004-42.716-.002c-3.116.069-5.622.78-6.734 1.9-1.13 1.14-1.85 2.823-2.155 6.132l-.048.584c-.015.2-.028.405-.04.616l-.032.651-3.474 110.105 1.398.434c1.49.462 3.053.64 4.609.524l39.022-2.903c.025 1.06.105 2.107.235 3.137l-39.028 2.904a15.538 15.538 0 0 1-5.756-.655l-1.398-.433a3.145 3.145 0 0 1-2.201-3.108l3.474-110.12.036-.726c.282-4.852 1.308-7.51 3.151-9.367 1.808-1.823 5.029-2.736 8.908-2.82h42.477z" fill="#999"/><path d="m84.533 32.781.048 3.146-15.14.232-.525.012-.487.017-.451.022-.418.028c-.335.025-.637.056-.91.094l-.317.05c-1.063.186-1.674.508-2.218 1.053l-.154.162-.153.174c-.205.244-.398.582-.575 1.02l-.104.275a8.675 8.675 0 0 0-.1.3l-.098.324a11.94 11.94 0 0 0-.046.172l-.091.361c-.03.125-.058.254-.086.388l-.082.413-.077.439-.073.465-.068.492-.032.256-.06.532-.055.56-.05.588-.023.304-.041.63-.036.658-.016.34-.028.7-1.664 48.8 2.872 7.728a1.6 1.6 0 0 1 .096.453l.002.155-1.721 49.084 8.45 2.475-.87 3.021-8.451-2.475a3.143 3.143 0 0 1-2.25-2.973l.001-.16 1.71-48.77-2.871-7.728a1.584 1.584 0 0 1-.096-.451l-.002-.155 1.69-49.502.033-.759.04-.73.049-.704.055-.675.062-.648c.375-3.596 1.1-5.9 2.226-7.239 1.35-1.602 2.75-2.314 5.469-2.588l.494-.044c.169-.013.343-.025.522-.035l.553-.028.586-.02.618-.012 14.863-.227z" fill="#999"/></g><path d="M145.91 125.455c15.312 0 27.726 12.413 27.726 27.727 0 15.313-12.414 27.727-27.727 27.727s-27.727-12.414-27.727-27.727c0-15.314 12.414-27.727 27.727-27.727zm0 2.727c-13.808 0-25 11.193-25 25s11.192 25 25 25c13.806 0 25-11.193 25-25s-11.194-25-25-25zm12.036 17.955.128.12c.917.916.957 2.378.12 3.342l-.12.129-12.772 12.774a2.446 2.446 0 0 1-1.803.881h-.18a2.446 2.446 0 0 1-1.804-.88l-6.18-6.184a2.455 2.455 0 1 1 3.47-3.471l4.603 4.602 11.195-11.194a2.455 2.455 0 0 1 3.343-.12z" fill="#00D061" fill-rule="nonzero"/><path d="M146.188 130c13.123 0 23.76 10.524 23.76 23.506 0 12.981-10.637 23.505-23.76 23.505a23.817 23.817 0 0 1-16.188-6.3 21.936 21.936 0 0 0 11.712 3.367c12.171 0 22.038-9.867 22.038-22.04 0-11.432-8.705-20.831-19.848-21.93a24.28 24.28 0 0 1 2.286-.108z" fill-opacity=".4" fill="#2EDA7E"/></g></svg>