<svg width="300" height="300" xmlns="http://www.w3.org/2000/svg"><defs><linearGradient x1="50%" y1="0%" x2="50%" y2="85.533%" id="a"><stop stop-color="#999" stop-opacity=".5" offset="0%"/><stop stop-color="#999" stop-opacity="0" offset="100%"/></linearGradient><linearGradient x1="50%" y1="5.966%" x2="50%" y2="103.26%" id="b"><stop stop-color="#FFF" stop-opacity="0" offset="0%"/><stop stop-color="#FFF" stop-opacity=".45" offset="100%"/></linearGradient><linearGradient x1="50%" y1="0%" x2="50%" y2="100%" id="c"><stop stop-color="#999" stop-opacity="0" offset="0%"/><stop stop-color="#999" offset="77.57%"/><stop stop-color="#999" offset="84.951%"/><stop stop-color="#999" stop-opacity="0" offset="100%"/></linearGradient></defs><g fill="none" fill-rule="evenodd"><path d="M260.237 206H269c6.075 0 11-4.925 11-11V80c0-6.075-4.925-11-11-11H32c-6.075 0-11 4.925-11 11v115c0 6.075 4.925 11 11 11h8.793M140.5 205.5h20" stroke="#BFBFBF" stroke-width="3" opacity=".5" stroke-linejoin="round"/><path d="M177.387 82h11.866c.935 0 1.694.758 1.694 1.694h-15.254c0-.936.758-1.694 1.694-1.694Z" fill="#999"/><g fill-rule="nonzero"><path d="M171.232 84h77.536a7.145 7.145 0 0 1 7.142 6.943l3.966 140.65A4.287 4.287 0 0 1 255.59 236h-91.182a4.287 4.287 0 0 1-4.285-4.408l3.966-140.649A7.145 7.145 0 0 1 171.232 84Z" stroke="#999" stroke-width="2.542"/><path d="M77.974 125.31 95 152H5l17.026-26.69A5 5 0 0 1 26.24 123H73.76a5 5 0 0 1 4.215 2.31Z" fill="url(#a)" transform="translate(160 84)"/><path fill="url(#b)" d="M77.5 121 89 0H11l11.5 121z" transform="translate(160 84)"/></g><path d="M21.09 128.708 10 146l8.947-20.432a4.237 4.237 0 0 0 .346-1.98L12.553 22l9.826 96.674a4.237 4.237 0 0 0 4.215 3.809h46.812a4.237 4.237 0 0 0 4.215-3.81L87.447 22l-6.74 101.588a4.237 4.237 0 0 0 .346 1.98L90 146l-11.09-17.292a4.237 4.237 0 0 0-3.567-1.95H24.657a4.237 4.237 0 0 0-3.567 1.95Z" fill="url(#c)" transform="translate(160 82)"/><path d="M57.387 82h11.866c.935 0 1.694.758 1.694 1.694H55.693c0-.936.758-1.694 1.694-1.694Z" fill="#999"/><g fill-rule="nonzero"><path d="M51.232 84h77.536a7.145 7.145 0 0 1 7.142 6.943l3.966 140.65A4.287 4.287 0 0 1 135.59 236H44.409a4.287 4.287 0 0 1-4.285-4.408L44.09 90.943A7.145 7.145 0 0 1 51.232 84Z" stroke="#999" stroke-width="2.542"/><path d="M77.974 125.31 95 152H5l17.026-26.69A5 5 0 0 1 26.24 123H73.76a5 5 0 0 1 4.215 2.31Z" fill="url(#a)" transform="translate(40 84)"/><path fill="url(#b)" d="M77.5 121 89 0H11l11.5 121z" transform="translate(40 84)"/></g><path d="M21.09 128.708 10 146l8.947-20.432a4.237 4.237 0 0 0 .346-1.98L12.553 22l9.826 96.674a4.237 4.237 0 0 0 4.215 3.809h46.812a4.237 4.237 0 0 0 4.215-3.81L87.447 22l-6.74 101.588a4.237 4.237 0 0 0 .346 1.98L90 146l-11.09-17.292a4.237 4.237 0 0 0-3.567-1.95H24.657a4.237 4.237 0 0 0-3.567 1.95Z" fill="url(#c)" transform="translate(40 82)"/><g stroke="#999" stroke-width="3"><path d="M107.546 59.046c-9.941-9.941-26.059-9.941-36 0M100.141 66.046c-6.035-6.036-15.821-6.036-21.857 0"/></g><g stroke="#999" stroke-width="3"><path d="M227.546 59.046c-9.941-9.941-26.059-9.941-36 0M220.141 66.046c-6.035-6.036-15.821-6.036-21.857 0"/></g></g></svg>