<svg width="400" height="300" viewBox="0 0 400 300" xmlns="http://www.w3.org/2000/svg" xmlns:xlink="http://www.w3.org/1999/xlink">
    <defs>
        <ellipse id="i7wj0ohdka" cx="12.233" cy="19.554" rx="12.233" ry="19.554"/>
        <path d="M8.563 26.886c10.684 0 8.346-6.018 8.346-13.443C16.91 6.02 13.172 0 8.563 0 3.953 0 .217 6.019.217 13.443c0 7.425-2.338 13.443 8.346 13.443z" id="ve73r6bzlb"/>
    </defs>
    <g fill="none" fill-rule="evenodd">
        <path d="m212.237 268.947 50.656-29.241 12.954 7.505-63.564 36.445-42.86-24.486-23.262 19.385-46.495-26.78 11.917-9.03a11.685 11.685 0 0 0 2.757-2.973l.216-.347c3.256-5.45 1.559-12.483-3.773-15.86l-.265-.164-41.483-24.785a4.382 4.382 0 0 1-.32-7.313l.18-.123 11.229-7.294v9.901l132.113 75.16zM80.124 146.399v23.443l-23.108 14.496a11.685 11.685 0 0 0-3.57 3.505l-.208.329c-3.296 5.427-1.649 12.472 3.659 15.888l.264.165 40.423 24.548a4.382 4.382 0 0 1 .391 7.223l-.177.129-11.514 7.942L0 194.37 80.124 146.4z" fill-opacity=".316" fill="#B9CEF7"/>
        <path fill-opacity=".478" fill="#A7B6D2" d="M32.417 182.788h1.223v12.221h-1.223z"/>
        <use fill-opacity=".497" fill="#CFDBF2" xlink:href="#i7wj0ohdka" transform="translate(20.184 143.681)"/>
        <path d="m80.124 132.682 38.744 22.192-25.18 13.835v3.602l-.068.145c-.177.429-.108.814.077 1.196l-.01-.02.002 8.104-1.169 4.905-12.396 7.146v-61.105zm16.171 50.01 1.54.885-2.294 1.322.754-2.207zM80.125 68.02l18.348 10.808v27.957l24.053-13.79 13.89 8.18-56.292 31.507V68.02z" fill-opacity=".263" fill="#6E9FC3"/>
        <path fill-opacity=".337" fill="#B6E0FF" d="m120.558 93.003 1.194.704-23.279 13.078v-1.404z"/>
        <path d="m78.9 67.3 1.224.61v.11l80.736 47.553v1.222L80.124 69.133v63.55l91.745 52.55v1.222l-91.745-52.55v59.882l132.113 75.16v1.833L78.901 194.398V67.3zm137.007 92.268 41.591 21.998v1.222l-41.59-21.997v-1.223zm-13.456-68.437 55.047 31.774v1.222l-55.047-31.774V91.13z" fill="#FFF"/>
        <path d="m322.33 178.624 34.535 22.189-48.6 28.573-12.22-7.371 27.51-16.007-1.223-.61-.001-26.774zm30.841-30.058L400 175.456l-32.507 19.109-39.464-25.358-.146-.104a1.834 1.834 0 0 1-.039-2.844l.126-.096 25.201-17.597zm-30.84-17.708 20.294 11.653-20.294 14.17v-25.823z" fill-opacity=".316" fill="#B9CEF7"/>
        <path d="m215.907 159.568 41.591 21.998 11.971-6.77 52.863 30.601-110.095 63.55-132.113-75.16 12.396-7.146-.163.69 1.164.673 1.173-.62.847-2.484 2.294-1.323 8.01 4.608c-.174.586-.393 1.553-.358 2.612l.014.266c.135 1.83 1.254 2.763 1.248 3.66l-.007.897 1.162.674 1.176-.621-.046-.368c-.085-.601-.3-1.855-.765-3.119-.457-1.243.2-3.25.627-4.326l28.149-16.187c.228.93.365 2.096.042 3.12a29.264 29.264 0 0 0-.638 2.391l-.11.519-.075.38-.093.528 1.164.673 1.164-.626s.033-.038.071-.253l.104-.676c.27-1.431.9-2.34 1.074-3.64.237-1.773-.19-3.018-.517-3.672l-.117-.217-.051-.086v-1.345l-.063-.464c-.058-.457-.143-1.2-.197-2.011l-5.506-3.155 38.572 22.094 44.038-25.665z" fill-opacity=".109" fill="#AACDFF"/>
        <path d="m93.689 168.71 1.63.939-.001 2.39 10.97 6.304c-.35-.203-.693-.174-.972.175-1.106 1.38.519 2.197 1.216 3.59.451.903.53 2.203.543 3.38l.006 1.724.008 1.687-.08-.047-.106.388c-.16.644-.309 1.543-.238 2.496.134 1.831 1.254 2.764 1.247 3.66l-.008.898-1.162-.674.007-.897c.006-.897-1.113-1.83-1.248-3.66-.086-1.162.156-2.244.344-2.88l-9.87-5.677-.656.38-.51-.295-1.289 5.413-1.163-.673 1.332-5.595-.001-8.104.01.02c-.186-.382-.255-.767-.078-1.196l.067-.145.002-3.602z" fill-opacity=".078" fill="#B1DAF3"/>
        <path fill-opacity=".427" fill="#7FA4BA" d="m95.974 182.506.321.186-1.6 4.692-1.174.62 1.288-5.413.51.294z"/>
        <path d="M136.67 168.217a.945.945 0 0 1 1.316.74l.008.125v.296l1.07-.609-.001 1.345.051.086.117.217c.327.654.754 1.9.517 3.672-.174 1.3-.805 2.209-1.074 3.64l-.104.676c-.038.215-.07.253-.07.253l-1.165.626.027-.353.047-.404c.1-.74.325-1.982.838-3.563.474-1.46-.014-2.983-.357-3.778l-28.994 16.674c-.428 1.076-1.084 3.083-.627 4.326.464 1.264.68 2.518.765 3.119l.046.368-1.176.62.007-.896c.008-.897-1.112-1.83-1.246-3.66-.1-1.342.237-2.577.424-3.141v-1.379c-.053-1.373.14-3.714-.557-5.109-.697-1.393-2.322-2.21-1.216-3.59.968-1.208 2.701 1.419 2.747 4.23l.065 3.12.003-.047c.052-.55.332-1.069.749-1.432l.163-.128 27.626-16.044z" fill-opacity=".346" fill="#81B5D7"/>
        <path d="M138.247 174.964c-.656 2.02-.842 3.489-.894 4.06l-.019.26-1.163-.673.093-.528.074-.38c.144-.706.386-1.756.75-2.91.322-1.024.185-2.19-.043-3.12l.844-.49c.343.795.833 2.32.358 3.781z" fill-opacity=".342" fill="#94C0DB"/>
        <path fill-opacity=".502" fill="#94BDD6" d="m118.87 154.874 1.634.937-25.186 13.838-1.63-.94z"/>
        <path d="m105.991 175.06.646-.364-.002-3.384-.028-.366a41.429 41.429 0 0 1-.02-.32l-.039-.64c-.083-1.387-.208-2.766-.947-4.05l-8.075 4.529-1.15-.724-.001 2.905-1.057-.607v-2.39l25.187-13.838 6.69 3.832-6.159-3.527-2.352 1.326 1.149.724.18.34c.731 1.494.717 3.102.827 4.694l.026.34.004 3.245-.152.083-.35.192-.005-3.257-.028-.365c-.117-1.706-.095-3.43-1.005-5.01l-1.299-.661-13.16 7.347 1.15.724.18.34c.782 1.6.71 3.33.853 5.034l.001 3.248 3.215-1.811-4.279 2.412zm-1.69-9.784-7.925 4.464 1.15.724 8.075-4.528-1.3-.66z" fill-opacity=".313" fill="#24313B"/>
        <path d="m121.036 156.116 17.767 10.178c.054.81.139 1.554.197 2.01l.063.465-1.069.608v-.295l-.01-.14a.937.937 0 0 0-.409-.645l-8.527-4.898-.097-.067c-.225-.131-.847-.37-1.89.15l-.977.502a360.29 360.29 0 0 0-5.214 2.801l-.004-3.244c-.142-1.703-.07-3.435-.852-5.034l-.181-.341-1.15-.724 2.353-1.326z" fill-opacity=".285" fill="#72B4DB"/>
        <path d="m104.302 165.276 1.299.66-8.075 4.528-1.15-.724 7.926-4.464zm13.729-7.51 1.3.662-13.31 7.41-1.15-.724 13.16-7.347z" fill-opacity=".357" fill="#EFF9FF"/>
        <path d="m96.375 169.74 1.15.724.182.341c.415.849.59 1.734.682 2.633l.036.386-2.05-1.178v-2.905z" fill-opacity=".283" fill="#7C98A9"/>
        <path d="M105.6 165.936c.91 1.58.89 3.304 1.007 5.01l.028.366.002 3.384-.646.365-2.713 1.553-4.853-2.79c-.084-1.03-.244-2.05-.718-3.019l-.18-.34 8.074-4.53zm13.73-7.509c.91 1.581.888 3.305 1.005 5.011l.028.365.004 3.257-3.02 1.657-7.077 3.932-3.215 1.811-.001-3.248c-.143-1.703-.07-3.434-.853-5.034l-.181-.341 13.31-7.41z" fill-opacity=".286" fill="#9CCCE9"/>
        <path d="m108.154 186.58-.005-.003-.086-3.83c-.031-1.903-.836-3.722-1.654-4.323l-.122-.081-3.01-1.728 2.714-1.554 4.279-2.412c6.65-3.725 14.446-7.996 16.791-9.166 1.34-.669 1.987-.084 1.987-.084l8.42 4.836a.937.937 0 0 0-.799-.018l-27.626 16.044a2.123 2.123 0 0 0-.89 1.728l.001.59z" fill-opacity=".391" fill="#C8DCFB"/>
        <path d="m321.377 86.27.955.583v118.544l-52.862-30.6 52.862-29.894-51.874-29.43 50.919-29.204z" fill="none"/>
        <path d="M323.555 85.02v120.988L212.237 270.78v-1.833l110.095-63.55v-59.293l-64.834 36.684v-1.222l64.834-36.663-.001-57.96-64.833 37.184v-1.222l66.057-37.885zm-107.648 74.548v1.223l-44.038 25.664v-1.222l44.038-25.665zm-13.456-68.437v1.222l-41.591 24.442v-1.222l41.591-24.442z" fill-opacity=".539" fill="#ADC5D7"/>
        <path fill-opacity=".378" fill="#C6DAFF" d="m264.838 139.404 19.016 11.108-4.893 2.784-19.296-10.792z"/>
        <path d="m259.657 142.424 19.304 10.817v1.446l-19.304-11.006v-1.257zm19.304 10.872 4.893-2.84v1.272l-4.893 2.952v-1.384z" fill-opacity=".402" fill="#80A1CA"/>
        <path d="m259.945 146.736 16.484 9.63-4.875 2.857-16.783-9.386 5.174-3.1z" fill-opacity=".378" fill="#C6DAFF"/>
        <path d="m254.764 149.757 16.841 9.436-1.23.72-15.61-8.9v-1.256z" fill-opacity=".402" fill="#80A1CA"/>
        <g>
            <path fill-opacity=".378" fill="#C6DAFF" d="m237.926 176.067 19.016 11.108-4.893 2.785-19.296-10.793z"/>
            <path d="m232.745 179.087 19.304 10.817v1.447l-19.304-11.007v-1.257zm19.304 10.873 4.893-2.841v1.272l-4.893 2.952v-1.383z" fill-opacity=".402" fill="#80A1CA"/>
        </g>
        <path d="m202.451 91.13 55.047 31.775 12.96-7.432 51.874 29.43-64.834 36.663-41.59-21.998-44.039 25.665-91.745-52.55 56.293-31.506 24.443 14.396 41.591-24.442zm66.888 39.108-26.52 14.332 25.689 16.44 26.912-15.777-26.08-14.995z" fill-opacity=".374" fill="#BCD8FF"/>
        <g>
            <path fill-opacity=".378" fill="#C6DAFF" d="m229.363 183.4 19.017 11.108-4.894 2.784L224.19 186.5z"/>
            <path d="m224.182 186.42 19.304 10.817v1.446l-19.304-11.006v-1.257zm19.304 10.872 4.894-2.84v1.272l-4.894 2.952v-1.384z" fill-opacity=".402" fill="#80A1CA"/>
        </g>
        <g>
            <path fill-opacity=".378" fill="#C6DAFF" d="m269.731 132.071 19.016 11.108-4.893 2.785-19.296-10.792z"/>
            <path d="m264.55 135.091 19.304 10.817v1.447l-19.304-11.007v-1.257zm19.304 10.873 4.893-2.841v1.272l-4.893 2.952v-1.383z" fill-opacity=".402" fill="#80A1CA"/>
        </g>
        <path fill-opacity=".312" fill="#D8E7FC" d="M191.442 6.805 323.555 85.02l-66.057 37.885-55.047-31.774-41.591 24.442L78.9 67.3z"/>
        <path fill="#D4DEED" d="m242.82 39.202 1.222-.622v28.643l-1.223-.534z"/>
        <g>
            <path d="M269.12 6.805v46.007l-25.078 14.413V38.58l-14.679 8.555v28.527L202.45 91.131V45.3L269.12 6.806z" fill-opacity=".339" fill="#9CC3E0"/>
            <path fill-opacity=".185" fill="#BAC8E2" d="m267.058 6 2.061.805-66.668 38.497-2.446-1.222z"/>
            <path fill-opacity=".36" fill="#E1EBF8" d="m202.451 91.13-2.446-1.327V44.08l2.446 1.222z"/>
        </g>
        <g transform="translate(168.2 267.114)">
            <use fill-opacity=".49" fill="#B8CAEB" xlink:href="#ve73r6bzlb"/>
        </g>
        <g transform="translate(125.385 171.79)" fill="#57C1FF" opacity=".123" stroke="#156CCA" stroke-width="1.461">
            <ellipse cx="75.843" cy="45.218" rx="75.843" ry="45.218"/>
            <ellipse cx="75.843" cy="45.218" rx="55.047" ry="32.997"/>
            <ellipse cx="75.843" cy="45.218" rx="36.698" ry="21.998"/>
        </g>
        <g transform="translate(105.813 98.463)" fill="#57C1FF" opacity=".123" stroke="#156CCA" stroke-width="1.461">
            <ellipse cx="75.843" cy="45.218" rx="75.843" ry="45.218"/>
            <ellipse cx="75.843" cy="45.218" rx="55.047" ry="32.997"/>
            <ellipse cx="75.843" cy="45.218" rx="36.698" ry="21.998"/>
        </g>
        <g transform="translate(179.21 52.023)" fill="#57C1FF" opacity=".123" stroke="#156CCA" stroke-width="1.461">
            <ellipse cx="75.843" cy="45.218" rx="75.843" ry="45.218"/>
            <ellipse cx="75.843" cy="45.218" rx="55.047" ry="32.997"/>
            <ellipse cx="75.843" cy="45.218" rx="36.698" ry="21.998"/>
        </g>
        <g stroke="#8A97A8" stroke-linecap="round" stroke-linejoin="round">
            <path d="m250.882 49.505-1.08-.384-1.55-.55c-.572.584-1.602 1.986-2.174 2.92-.572.935-1.258 2.104-1.601 3.039-.229 2.337-.508 6.713-.458 17.994.009 1.89.572 3.827.572 5.96l-.228 18.695c.152-.233.577-.453 1.275-.66" stroke-width="1.263"/>
            <path d="M250.06 49.312c-.414-.07-.829.12-1.046.48l-2.957 4.895h0l-.229 42.416a9.646 9.646 0 0 0 2.246.246" stroke-width=".948"/>
            <path d="M251.319 49.312a1.276 1.276 0 0 0-1.406.573l-2.919 4.802h0l-.136 24.304M246.743 97.22v-4.324" stroke-width=".948"/>
            <path stroke-width=".948" d="m251.776 49.078-.343-.117-3.502 5.726-.044 21.5M246.857 79.926l-.114 11.802M245.828 96.986l2.747.15"/>
            <path d="M265.316 94.141c-.013-1.61-.013-2.817 0-3.622.018-1.137-.343-3.117-.343-3.856 0-4.908-.226-9.167-.114-12.853.049-1.627.384-4.113.343-5.726-.197-7.627-.534-12.841-1.012-15.641a1.896 1.896 0 0 0-1.338-1.5l-8.604-2.486A1.895 1.895 0 0 0 252 49.488c-.297.65-.624 1.279-.981 1.887a27.883 27.883 0 0 1-2.06 3.038c.382 4.985.458 10.828.23 17.527-.072 2.093-1.03 4.55-1.03 5.96v19.747c3.696-.218 6.327-.451 7.892-.701 5.79-.925 9.265-2.195 9.265-2.805z" stroke-width="1.263" fill-opacity=".6" fill="#FFF"/>
            <path d="M259.254 69.253c0 2.22-.458 2.57-.458 7.828v13.321" stroke-width="1.327"/>
        </g>
        <g stroke="#8A97A8" stroke-linecap="round" stroke-linejoin="round">
            <path d="m178.046 94.878-1.08-.384-1.55-.55c-.572.584-1.602 1.986-2.174 2.92-.571.936-1.258 2.104-1.6 3.039-.23 2.337-.509 6.713-.458 17.994.008 1.89.571 3.827.571 5.96l-.228 18.695c.152-.233.577-.453 1.275-.66" stroke-width="1.263"/>
            <path d="M177.225 94.685c-.415-.07-.83.12-1.047.48l-2.957 4.895h0l-.229 42.416a9.646 9.646 0 0 0 2.246.246" stroke-width=".948"/>
            <path d="M178.483 94.685a1.276 1.276 0 0 0-1.406.573l-2.919 4.802h0l-.136 24.305M173.908 142.592v-4.323" stroke-width=".948"/>
            <path stroke-width=".948" d="m178.94 94.451-.343-.116-3.502 5.725-.044 21.5M174.022 125.3l-.114 11.801M172.993 142.36l2.747.148"/>
            <path d="M192.48 139.514c-.013-1.61-.013-2.817 0-3.622.019-1.137-.343-3.117-.343-3.856 0-4.908-.226-9.167-.114-12.853.049-1.627.384-4.112.343-5.726-.197-7.627-.534-12.84-1.011-15.641a1.896 1.896 0 0 0-1.34-1.5l-8.603-2.486a1.895 1.895 0 0 0-2.248 1.031c-.297.65-.624 1.28-.981 1.887a27.883 27.883 0 0 1-2.06 3.038c.382 4.986.458 10.828.23 17.527-.072 2.093-1.03 4.55-1.03 5.96v19.747c3.696-.217 6.327-.451 7.892-.701 5.79-.925 9.265-2.195 9.265-2.805z" stroke-width="1.263" fill-opacity=".6" fill="#FFF"/>
            <path d="M186.418 114.626c0 2.22-.457 2.57-.457 7.829v13.32" stroke-width="1.327"/>
        </g>
        <g stroke="#8A97A8" stroke-linecap="round" stroke-linejoin="round">
            <path d="m195.957 168.908-1.081-.384-1.55-.55c-.572.584-1.601 1.986-2.173 2.92-.572.935-1.258 2.104-1.601 3.039-.23 2.337-.508 6.713-.458 17.994.008 1.89.572 3.827.572 5.96l-.229 18.695c.153-.233.578-.453 1.275-.66" stroke-width="1.263"/>
            <path d="M195.135 168.715c-.414-.07-.83.12-1.046.48l-2.957 4.895h0l-.23 42.416a9.646 9.646 0 0 0 2.247.246" stroke-width=".948"/>
            <path d="M196.393 168.715a1.276 1.276 0 0 0-1.405.573l-2.92 4.802h0l-.136 24.304M191.818 216.622V212.3" stroke-width=".948"/>
            <path stroke-width=".948" d="m196.85 168.481-.342-.117-3.502 5.726-.044 21.5M191.932 199.33l-.114 11.801M190.903 216.39l2.747.148"/>
            <path d="M210.39 213.544c-.012-1.61-.012-2.817 0-3.622.019-1.137-.342-3.117-.342-3.856 0-4.908-.227-9.167-.115-12.853.05-1.627.385-4.113.343-5.726-.196-7.627-.533-12.841-1.011-15.641a1.896 1.896 0 0 0-1.339-1.5l-8.603-2.486a1.895 1.895 0 0 0-2.248 1.031c-.298.65-.625 1.279-.982 1.887a27.883 27.883 0 0 1-2.059 3.038c.382 4.985.458 10.828.23 17.527-.072 2.093-1.03 4.55-1.03 5.96v19.747c3.696-.218 6.327-.451 7.892-.701 5.79-.926 9.265-2.195 9.265-2.805z" stroke-width="1.263" fill-opacity=".6" fill="#FFF"/>
            <path d="M204.329 188.656c0 2.22-.458 2.57-.458 7.828v13.321" stroke-width="1.327"/>
        </g>
    </g>
</svg>
