<?xml version="1.0" encoding="UTF-8"?>
<svg width="300px" height="300px" viewBox="0 0 300 300" version="1.1" xmlns="http://www.w3.org/2000/svg" xmlns:xlink="http://www.w3.org/1999/xlink">
    <title>img/M6说明图/img_m6_orangelight</title>
    <defs>
        <filter x="-135.0%" y="-35.5%" width="370.0%" height="171.1%" filterUnits="objectBoundingBox" id="filter-1">
            <feGaussianBlur stdDeviation="9" in="SourceGraphic"></feGaussianBlur>
        </filter>
    </defs>
    <g id="img/M6说明图/img_m6_orangelight" stroke="none" stroke-width="1" fill="none" fill-rule="evenodd">
        <g id="编组-2" transform="translate(103.497795, 23.709851)">
            <path d="M41.2373717,0.052824198 L41.4071116,0.094473323 L96.8350095,15.7398652 C98.0532343,16.0837283 98.9908593,17.0585719 99.2870486,18.2892335 L99.3315344,18.4754846 L99.3315344,18.4754846 L99.3758798,18.6640043 L99.5518582,19.4407689 L99.5955021,19.6406321 L99.5955021,19.6406321 L99.6390058,19.8427643 L99.8116186,20.6739851 L99.8544214,20.8874638 L99.8544214,20.8874638 L99.8970842,21.103212 L100.066334,21.9889029 L100.233345,22.9109149 L100.398116,23.8692542 L100.56065,24.863927 L100.800259,26.4240752 L100.957205,27.5096089 L101.111918,28.6314978 L101.2644,29.7897481 L101.414652,30.984366 L101.562675,32.2153577 L101.708471,33.4827294 L101.85204,34.7864872 L102.063223,36.8103616 L102.269404,38.9161397 L102.470589,41.1038424 L102.666781,43.3734907 L102.857985,45.7251055 L103.044206,48.1587076 L103.165587,49.8266679 L103.343511,52.396962 L103.516464,55.0492993 L103.68445,57.7837006 L103.847474,60.6001869 L104.005539,63.498779 L104.158651,66.4794978 L104.306813,69.5423643 L104.496672,73.7540077 L104.633303,77.0086333 L104.807804,81.4760315 L104.973543,86.0896434 L105.130531,90.8495185 L105.242536,94.51544 L105.418298,100.808257 L105.435709,101.789715 L105.438346,102.464605 L105.428779,103.514766 L105.413348,104.244145 L105.390643,105.000185 L105.360637,105.785665 L105.301881,107.025168 L105.22655,108.346549 L105.134553,109.759191 L105.063918,110.756287 L104.943944,112.34188 L104.757667,114.638507 L104.275774,120.272776 L104.025755,123.323397 L103.887034,125.18726 L103.825863,126.110536 L103.735138,127.768186 L103.696981,128.696262 L103.678166,129.256654 C103.63468,130.658578 103.599599,132.006081 103.572943,133.35727 L103.549096,134.71184 L103.529855,136.173973 L103.515497,137.922806 L103.509859,139.741657 L103.511176,141.097491 L103.527183,143.990698 L103.550902,146.355159 L103.6542,153.211641 L104.074693,174.456483 L104.178388,180.989612 L104.230503,185.801952 L104.253839,189.842292 L104.258971,192.960906 L104.267842,193.507293 L104.292067,194.008055 L104.348551,194.718521 L104.481205,195.985634 L105.293215,202.662515 L105.573239,205.113027 L105.670254,206.051813 L105.755059,206.941821 L105.827557,207.785439 L105.887649,208.585054 L105.935237,209.343052 L105.970224,210.061821 L105.992511,210.743747 C105.999579,211.038992 106.002856,211.324028 106.002302,211.599799 L105.998593,212.006622 L105.991976,212.430107 L105.966076,214.767411 L105.953983,216.90072 L105.949949,220.283896 L105.966125,225.163281 L105.998796,229.925443 C105.998796,231.269947 104.751249,232.5643 102.337367,233.87978 L102.053671,234.031664 L101.534851,234.296757 L101.263739,234.429584 L101.263739,234.429584 L100.98485,234.56262 L100.403814,234.829384 L99.7918905,235.097177 L99.4743915,235.231499 L99.4743915,235.231499 L99.1492255,235.366127 L98.4759656,235.636362 L97.7722573,235.908013 L97.0382472,236.181206 L96.8500272,236.249761 L96.8500272,236.249761 L96.6599247,236.318422 L95.8807367,236.594171 L95.0716131,236.871785 L94.2327007,237.151392 L92.9187983,237.574821 L91.862168,237.904075 L90.6242767,238.277238 L89.3470222,238.64915 L88.0312277,239.019565 L86.6777163,239.388237 L86.3335417,239.480104 L86.3335417,239.480104 L85.9870741,239.571842 L84.5785309,239.937438 L83.8608357,240.119368 L83.8608357,240.119368 L83.1343287,240.300677 L81.6552908,240.661313 L81.2801847,240.751036 L81.2801847,240.751036 L80.9029657,240.840578 L79.3732175,241.196848 L77.8106916,241.5499 L76.2162109,241.89949 L74.5905988,242.24537 L72.9346783,242.587295 L72.5160589,242.67213 L72.5160589,242.67213 L72.0956096,242.756698 L70.3957701,243.092231 L68.6676801,243.423194 L66.9121629,243.749342 L65.1300416,244.07043 L63.3221394,244.386212 L61.4892794,244.696441 L61.0272613,244.773102 L61.0272613,244.773102 L60.5637475,244.849397 L58.6949944,245.150837 L57.3695614,245.358262 L56.1741362,245.534485 L54.9064384,245.709537 L53.5664498,245.88342 L51.6673147,246.113455 L49.6395872,246.341428 L47.4832243,246.567349 L46.3567912,246.679542 L44.0073944,246.902398 L41.5292545,247.123223 L38.250469,247.396409 L34.770371,247.666449 L31.0888763,247.933361 L27.2059007,248.19716 L24.7793696,248.353952 L19.7085444,248.664206 L19.5022052,248.670293 C17.9078363,248.670293 16.5624783,247.604229 16.1400266,246.146044 L13.8051554,245.886299 C13.6228994,246.131377 13.3310939,246.290149 13.0022052,246.290149 C12.5945664,246.290149 12.2438955,246.04624 12.0881724,245.696403 L9.494,245.407 C9.4390409,245.870907 9.07283636,246.233187 8.61347392,246.284035 L8.49681825,246.290134 C7.98398985,246.287371 7.56340423,245.89906 7.50831909,245.401417 L7.50221969,245.284762 L7.50560319,244.374793 C7.50025419,244.310996 7.50098435,244.245751 7.50832145,244.179717 L7.50721606,244.14552 C6.08476618,244.707194 5.129311,245.335624 4.62633943,245.987362 L4.52661157,246.125673 C3.72166787,247.32583 1.88198594,246.79869 1.78484547,245.408488 L1.78097778,245.271287 L2.94652045,152.597841 L2.94266803,151.855477 L2.93090385,151.122961 L2.91091757,150.39554 L2.88239881,149.668463 L2.84503723,148.936976 L2.79852245,148.196328 L2.74254413,147.441767 L2.67679189,146.66854 L2.60095539,145.871895 L2.51472425,145.047079 L2.36520871,143.746641 L2.19055947,142.356088 L1.98972908,140.859381 L1.67941856,138.670923 L1.15894404,135.113568 L0.815524859,132.666563 L0.627171627,131.237278 L0.468907124,129.940964 L0.368724413,129.041209 L0.258194935,127.918466 L0.172131038,126.861119 L0.12240859,126.096243 L0.0958407963,125.593962 L0.0652208675,124.844319 L0.0449122607,124.089994 L0.0340523338,123.32062 L0.00819155789,116.163524 L0,109.580792 L0.00483855179,104.533381 L0.0249663714,98.4895621 L0.0605603154,92.7317662 L0.0790857098,90.5065946 L0.136011993,85.1331835 L0.20794692,80.0228702 L0.276172993,76.117631 L0.353785008,72.3697704 L0.418094834,69.6592125 L0.51189741,66.1749961 L0.61481754,62.8347088 L0.697932324,60.4210047 L0.786079661,58.0834464 L0.944063514,54.351125 L1.1157217,50.8150364 L1.22520099,48.7836012 L1.3786531,46.1759959 L1.54056399,43.6793073 L1.71083606,41.2886449 L1.84396844,39.5622857 L1.98170792,37.8907518 L2.12401332,36.2719801 L2.27084348,34.7039072 L2.37122367,33.6856724 C2.38427959,33.555898 2.41420587,33.4283807 2.46024527,33.3063469 C2.55275208,33.0611451 2.6493291,32.8134906 2.75006309,32.5631185 L3.0648228,31.8035839 C3.66506385,30.3951846 4.39367858,28.8965562 5.26510444,27.2635943 L5.75467749,26.3593004 L6.27309738,25.4267712 L6.82088475,24.4644163 C6.91465886,24.3014499 7.00967831,24.1371746 7.10595395,23.9715571 L7.69876879,22.9614812 L8.32225277,21.9176032 L8.97692654,20.8383324 C9.08866691,20.6554162 9.20172855,20.470959 9.31612231,20.2849277 L10.3819261,18.5672506 C10.5044102,18.3714765 10.6282589,18.1740288 10.7534831,17.9748745 L11.286866,17.1399659 L11.8565201,16.273297 C11.954222,16.1265553 12.0532379,15.9787527 12.1534691,15.8300204 L12.7686511,14.9275195 C12.873349,14.7755931 12.9790649,14.6229994 13.0857001,14.4698696 L13.7357548,13.5457071 L14.4031384,12.614976 L15.0831153,11.6839742 L15.77095,10.7589995 L16.4619069,9.84635005 C16.5770635,9.69561879 16.6921528,9.54566349 16.8070763,9.39661535 L17.4938372,8.51426223 L18.1718813,7.65997909 L18.8364729,6.84006386 L19.4828765,6.06081449 C19.5888317,5.9346783 19.6938318,5.81049893 19.797778,5.6884076 L20.4080203,4.98196562 C21.0040385,4.30267932 21.5550161,3.70800905 22.039643,3.22629548 C22.4087936,2.859364 22.9385637,2.71256328 23.4383805,2.82946189 L23.5872364,2.87248602 L31.4719472,5.59836045 C31.81368,5.45179514 32.195951,5.40038238 32.5767659,5.46156367 L32.7363951,5.49390071 L35.62,6.2 L35.8834733,5.76991829 C36.0936101,5.4249511 36.4862542,5.2453089 36.8752947,5.29960714 C37.2281898,4.48761539 37.5712151,3.66767413 37.9046569,2.8407062 L38.3976678,1.59509966 L38.4631969,1.44161473 C38.9529522,0.392006595 40.1042922,-0.183920548 41.2373717,0.052824198 Z M41.0262052,3.10414853 L40.7468093,3.81405164 C40.3445198,4.81647602 39.9287229,5.80966273 39.4994193,6.7936066 C39.5094073,6.92039328 39.4947666,7.05216624 39.452306,7.18149065 C39.3877351,7.37815769 39.2679921,7.54124946 39.1158777,7.65923665 C37.3855932,11.5343193 35.4422734,15.2642568 33.2871976,18.8489047 C30.2942056,23.8273015 27.0666212,28.5311541 23.6044618,32.9601145 L23.102,33.595 L23.252426,35.5846195 L23.4363183,38.1911032 L23.480563,38.8474498 L23.480563,38.8474498 L23.5241162,39.5056867 L23.6914154,42.1575377 L23.8476531,44.8396347 L23.8849842,45.5148849 L23.8849842,45.5148849 L23.9216239,46.1920256 L24.0612699,48.919493 L24.1898551,51.6772084 L24.3073799,54.4651727 L24.4138447,57.2833866 L24.5092499,60.131851 L24.5935958,63.0105667 L24.6129543,63.7349725 L24.6129543,63.7349725 L24.6316216,64.461269 L24.6993792,67.3853633 L24.7145907,68.1211139 L24.7145907,68.1211139 L24.729111,68.8587554 L24.7802811,71.82823 L24.8203933,74.8279593 L24.8363029,76.3391697 L24.8363029,76.3391697 L24.849448,77.857944 L24.8674455,80.9181851 L24.872298,82.4596519 L24.872298,82.4596519 L24.8743862,84.0086832 L24.8702705,87.1294393 L24.867514,87.9143562 L24.867514,87.9143562 L24.8640665,88.7011644 L24.8433667,91.8673089 L24.8116113,95.0637135 L24.8019451,95.8675429 L24.8019451,95.8675429 L24.7915879,96.6732636 L24.7432498,99.9150598 L24.6838571,103.187118 L24.6134099,106.489439 L24.5319088,109.822024 L24.4393541,113.184874 L24.3357461,116.577989 L24.2210852,120.00137 C24.138461,122.365218 23.8314301,124.907044 23.3141715,127.76081 L23.1804853,128.480828 L23.0254487,129.279164 L22.7763029,130.496536 L22.5007442,131.770275 L22.1914555,133.136976 L21.9629109,134.117826 L20.5728835,139.947204 L20.0891307,142.039526 L19.7606728,143.528639 L19.5817074,144.389084 L19.3988467,145.339387 L19.257055,146.174977 L19.1700843,146.778463 L19.1187393,147.201973 L19.0781842,147.606825 L19.039169,148.127387 L19.0249744,148.3934 C19.0140657,148.62925 19.0075823,148.86423 19.0044721,149.104301 L19.0022052,149.468972 L19.0022052,245.170298 C19.0022052,245.415754 19.1790761,245.619902 19.4123281,245.662237 L19.5022052,245.670293 L23.7558366,245.412518 L26.1936771,245.256941 L30.0956003,244.99527 L32.3400379,244.836847 L35.9195151,244.570452 L38.6379216,244.355225 L41.8543897,244.083567 L43.687417,243.919178 L46.0184199,243.698374 L47.6818733,243.531561 L49.7867117,243.307538 L51.2804923,243.138322 L52.7015257,242.96808 L54.0497937,242.796818 L55.3252782,242.624538 L56.5279609,242.451245 L57.289295,242.335154 L59.1508325,242.039754 L60.9890027,241.738437 L62.8029784,241.431453 L64.5919325,241.119051 L66.3550378,240.80148 L68.0914674,240.478989 L69.800394,240.151829 L71.4809907,239.820248 L73.1324302,239.484495 L74.7538855,239.144821 L76.3445296,238.801474 L77.9035352,238.454704 L79.4300754,238.10476 L80.9233229,237.751892 L82.3824507,237.396348 L83.8066318,237.038378 L85.195039,236.678232 L86.5468451,236.316159 L87.8612232,235.952408 L89.1373461,235.587229 L89.4503025,235.49574 L89.4503025,235.49574 L89.7608034,235.404182 L90.9779927,235.037328 L91.5715179,234.853583 L91.8354352,234.770787 L91.8354352,234.770787 L92.0968189,234.688091 L93.1167348,234.358432 L93.3652388,234.276331 L93.3652388,234.276331 L93.6111247,234.19437 L94.5682054,233.868046 L95.4822703,233.544472 L95.7039598,233.464058 L95.7039598,233.464058 L95.9228904,233.383848 L96.7707429,233.065189 C98.2839194,232.484337 99.5688733,231.922658 100.600633,231.391831 C101.554845,230.9009 102.262953,230.450538 102.698725,230.070706 C102.766577,230.011564 102.824907,229.956635 102.873771,229.906857 L102.939974,229.836171 L102.997205,229.765149 L102.966154,225.176189 L102.954002,222.293904 L102.949951,218.652575 L102.959135,215.785208 L102.975193,213.75437 L103.002582,211.676893 C103.003485,211.423976 103.000982,211.160953 102.994931,210.887051 L102.983174,210.467942 L102.955395,209.807408 L102.915471,209.106886 L102.863477,208.364415 L102.799487,207.578032 L102.723576,206.745777 L102.635818,205.865688 L102.536286,204.935803 L102.389441,203.649335 L101.636193,197.491586 L101.427173,195.666835 L101.339144,194.768022 L101.306083,194.350487 L101.279035,193.892631 L101.2629,193.390144 L101.259747,193.140152 L101.259747,193.140152 L101.258864,192.880737 L101.256652,190.853909 L101.241716,187.356793 L101.20629,183.299737 L101.141232,178.436327 L101.059334,173.641511 L100.654196,153.239126 L100.560819,147.193393 L100.518843,142.864103 L100.510102,139.384385 L100.511089,138.931579 L100.511089,138.931579 L100.512605,138.483831 L100.523958,136.736014 L100.532805,135.882826 L100.564861,133.748704 L100.575771,133.181646 L100.575771,133.181646 L100.587663,132.614731 L100.645038,130.329711 L100.679608,129.163643 L100.725137,127.923911 L100.746834,127.446279 L100.812731,126.229408 L100.901862,124.867999 L101.115075,122.084228 L101.862901,113.238579 L102.031341,111.085057 L102.170326,109.126229 L102.255386,107.772147 L102.343424,106.103121 L102.376638,105.321122 L102.40269,104.570605 L102.428407,103.498075 L102.436689,102.814695 L102.435898,101.830473 L102.426604,101.1977 L102.385454,99.6170808 L102.244484,94.6269923 L102.094839,89.7824209 L101.936529,85.0834163 L101.769565,80.530028 L101.638669,77.2105772 L101.456586,72.9121366 L101.314363,69.7839535 L101.167292,66.7377771 L101.066555,64.7525625 L100.911416,61.8431104 L100.751442,59.0157208 L100.530629,55.3735568 L100.359391,52.7377276 L100.183332,50.1840304 L100.002457,47.7124864 L99.8167712,45.3231162 L99.6262783,43.0159409 L99.4966148,41.5234982 L99.3648183,40.067602 L99.23089,38.6482585 L99.0948314,37.2654739 L98.9566436,35.9192544 L98.7453728,33.9684983 L98.6018682,32.7137187 L98.4562391,31.4955259 L98.3084868,30.3139261 L98.1586128,29.1689254 L98.0066183,28.0605301 L97.8525047,26.9887464 L97.6962732,25.9535804 L97.5379253,24.9550384 L97.3774622,23.9931265 L97.2148852,23.067851 L97.0501958,22.179218 L96.8833951,21.3272337 L96.7144846,20.5119043 L96.6292385,20.1179872 L96.6292385,20.1179872 L96.5434655,19.7332361 L96.3703392,18.9912351 C96.3350801,18.8447339 96.2361887,18.72361 96.1034918,18.6588772 L96.0200557,18.6270525 L41.0262052,3.10414853 Z M26.6008593,8.39049527 L10.6362052,34.8531485 L9.512,243.396 L12.002,243.673 L12.0022052,224.290149 C12.0022052,223.737864 12.4499204,223.290149 13.0022052,223.290149 C13.515041,223.290149 13.9377123,223.676189 13.9954774,224.173527 L14.0022052,224.290149 L14.002,243.895 L16.002,244.117 L16.0022052,149.316009 C16.0029517,149.164084 16.0045537,149.015154 16.007237,148.868122 L16.0187564,148.431622 L16.0306984,148.143698 L16.0558811,147.71155 L16.0770524,147.431925 L16.1169463,147.003963 L16.1868899,146.408354 L16.278162,145.771498 L16.3931444,145.07956 L16.5738439,144.1161 L16.7999648,143.017932 L17.0761593,141.758031 L17.51,139.868 L18.0904559,35.2545579 C18.0912116,35.1183334 18.1197835,34.9841925 18.1738862,34.8601943 L18.2364144,34.7398754 L33.604,9.51 L31.456,8.767 L15.6782052,34.9001485 L14.5021566,154.300004 C14.4971023,154.812815 14.1069153,155.231661 13.6090314,155.284522 L13.4923496,155.2901 C12.9795387,155.285046 12.5606926,154.894859 12.5078318,154.396975 L12.5022537,154.280293 L13.6817409,34.608418 C13.6830628,34.4743032 13.7113395,34.3422945 13.7643875,34.2200869 L13.8256117,34.1014312 L29.091,8.815 L26.6008593,8.39049527 Z M23.5112052,6.02014853 L23.4248721,6.11279363 C22.8546655,6.72819774 22.2150438,7.46410103 21.5348226,8.28235268 L20.8421356,9.12664079 C20.6074404,9.41627799 20.3693013,9.71365201 20.1287858,10.0173499 L19.4011766,10.9460019 C19.0348745,11.4184007 18.6656264,11.9018489 18.2970343,12.3915777 L17.5617922,13.3779962 C17.3177145,13.7086517 17.0749957,14.0406856 16.8347029,14.3726849 L16.1221701,15.3671658 L15.4305971,16.3529609 C15.3174374,16.5160653 15.2054177,16.6784545 15.0946717,16.839952 L14.4465451,17.7968223 C14.1311903,18.2684938 13.8296988,18.7289601 13.5456724,19.1734522 L13.2931542,19.5717687 L12.5769577,20.7165269 L11.5620804,22.3617051 L10.6171918,23.9246176 L10.0254196,24.9231257 C9.9293041,25.0867428 9.8344391,25.2489782 9.7408155,25.4098604 L9.19389788,26.359142 L8.6763365,27.2773081 C8.59249832,27.4278185 8.50986509,27.5770892 8.42842769,27.7251484 L7.95408044,28.5991946 L7.50799578,29.4455297 L7.08973627,30.2655155 C6.48299712,31.476413 5.96869139,32.6029774 5.54017518,33.6658905 L5.33520518,34.1861485 L5.16171153,35.9983199 L4.97589364,38.0861985 L4.79778972,40.2642059 L4.58615042,43.1204583 L4.46509879,44.9089854 L4.31069924,47.3849466 L4.20020282,49.3128741 L4.06002042,51.9817379 L3.92809101,54.7671493 L3.77492779,58.4198082 L3.66191031,61.4842507 L3.58275801,63.868615 L3.48477789,67.1661626 L3.41701128,69.7306324 L3.35419015,72.3755208 L3.27818997,76.0304845 L3.21114582,79.8364551 L3.15315142,83.7980273 L3.09352745,88.9758066 L3.04109494,95.5321814 L3.017872,100.11818 L3.00414408,104.881604 L3,109.827048 L3.01198015,117.596553 L3.03399587,123.299703 L3.04489552,124.048827 L3.06545737,124.785232 L3.08498517,125.27441 L3.12368471,126.013504 L3.15615181,126.514428 L3.21553154,127.286069 L3.31606263,128.369456 L3.4429918,129.53852 L3.55681757,130.486873 L3.73516397,131.867186 L4.06404499,134.237647 L4.81523171,139.402703 L5.03865894,141.013334 L5.17237938,142.02104 L5.29427347,142.981624 L5.40464852,143.899987 L5.54928507,145.209083 L5.6322069,146.043328 L5.70468518,146.852501 L5.76702723,147.641502 C5.77658996,147.771593 5.78574314,147.901048 5.79449319,148.029969 L5.84220705,148.797898 L5.88055288,149.557905 C5.88618026,149.684184 5.8914301,149.810338 5.89630882,149.936468 L5.93036966,151.07375 L5.94245518,151.839388 L5.94640185,152.616703 L4.82120518,242.084149 C5.49688301,241.720473 6.25570252,241.392991 7.10312751,241.095369 L7.47173127,240.969635 L7.525,240.954 L8.63735483,34.5676884 C8.63808301,34.4325143 8.66620068,34.2993723 8.71949176,34.1761436 L8.78109191,34.0565111 L24.8883625,7.35736668 C25.0485939,7.09176969 25.2639857,6.87338132 25.5136329,6.71177787 L23.5112052,6.02014853 Z M73.5022052,104.790149 C74.3306323,104.790149 75.0022052,105.461721 75.0022052,106.290149 C75.0022052,108.780217 74.9067611,110.883346 74.7040166,113.242349 L74.5686553,114.690115 L73.9949805,120.214816 L73.9068831,121.132586 L73.8228688,122.057116 L73.742939,122.990479 L73.6670952,123.934745 L73.5609935,125.37612 L73.4640931,126.85368 L73.3763987,128.374417 L73.3230526,129.415681 L73.2507121,131.023915 L73.1875903,132.693969 L73.133692,134.432834 L73.0890219,136.247501 L73.0535849,138.144963 L73.0350919,139.459386 L73.0150538,141.510373 L73.0027192,144.404021 L73.0022052,211.290149 C73.0022052,212.118576 72.3306323,212.790149 71.5022052,212.790149 C70.7225091,212.790149 70.0817565,212.19526 70.0090718,211.434609 L70.0022052,211.290149 L70.0027264,144.397473 L70.0105429,142.190003 L70.0209636,140.776406 L70.0444064,138.737906 L70.0772204,136.791465 L70.1194022,134.930092 L70.1709482,133.146795 L70.2318552,131.434583 L70.3021195,129.786462 L70.3541593,128.71987 L70.4400118,127.163033 L70.569023,125.156739 L70.6766828,123.69507 L70.7936829,122.262536 L70.9200198,120.852143 L71.0879333,119.151065 L71.6362219,113.858182 C71.8862669,111.210304 72.0022052,108.991662 72.0022052,106.290149 C72.0022052,105.461721 72.6737781,104.790149 73.5022052,104.790149 Z M20.223,35.321 L20.0882052,35.5431485 L19.558,131.175 L19.613346,130.932919 L19.863796,129.768213 L20.0176487,129.020742 L20.163083,128.286149 L20.3609392,127.233066 C20.8549896,124.508507 21.1458021,122.102778 21.2229161,119.896574 L21.2525227,119.040639 L21.2525227,119.040639 L21.2814408,118.186597 L21.3902288,114.789367 L21.4880018,111.422437 L21.5747601,108.085809 L21.6505042,104.779484 C21.6739165,103.682426 21.6954932,102.590418 21.7152343,101.503462 L21.7434692,99.8768145 L21.791679,96.6462487 L21.8020107,95.8433424 L21.8020107,95.8433424 L21.8116541,95.0423302 L21.8433445,91.8572226 L21.8495463,91.065681 L21.8495463,91.065681 L21.8550599,90.2760337 L21.8702317,87.1363862 L21.8743915,84.0270465 L21.872342,82.4837423 L21.872342,82.4837423 L21.8675396,80.9480153 L21.8496765,77.8992937 L21.8434902,77.1418492 L21.8434902,77.1418492 L21.8366158,76.3862991 L21.8022364,73.3830431 L21.7568466,70.4100986 L21.7004467,67.4674665 L21.6330372,64.5551475 L21.5546183,61.6731425 L21.5332934,60.9573779 L21.5332934,60.9573779 L21.5112805,60.243508 L21.4163483,57.4069755 L21.3104077,54.6007591 L21.2533093,53.2090197 L21.2533093,53.2090197 L21.1934589,51.8248596 L21.0655025,49.0792778 L20.9973964,47.7178563 L20.9973964,47.7178563 L20.9265386,46.3640146 L20.7765677,43.6790707 L20.6974548,42.3479688 L20.6974548,42.3479688 L20.6155902,41.0244471 L20.4436063,38.4001444 L20.3534871,37.0993638 L20.3534871,37.0993638 L20.2606164,35.8061637 L20.223,35.321 Z" id="形状结合" fill="#999999" fill-rule="nonzero" opacity="0.5"></path>
            <path d="M13.262798,158.040148 C13.9099835,158.045678 14.4381213,158.542046 14.49679,159.172886 L14.5021603,159.300741 L14.0021603,218.300741 C13.99631,218.991073 13.4319435,219.545954 12.7416123,219.540148 C12.0944269,219.534619 11.5662891,219.038251 11.5076204,218.407411 L11.5022501,218.279556 L12.0022501,159.279556 C12.0081003,158.589225 12.5724669,158.034343 13.262798,158.040148 Z" id="直线-11备份-29" fill="#FF8C31" fill-rule="nonzero"></path>
            <path d="M2.50220518,186.287244 C2.50220518,207.275397 6.97977149,224.290149 12.5014408,224.290149 C18.0246389,224.290149 22.5022052,207.275397 22.5022052,186.287244 C22.5022052,165.3049 18.0246389,148.290149 12.5014408,148.290149 C6.97977149,148.290149 2.50220518,165.3049 2.50220518,186.287244" id="Fill-20" fill="#FF8C31" opacity="0.359579904" filter="url(#filter-1)"></path>
        </g>
    </g>
</svg>