<?xml version="1.0" encoding="UTF-8"?>
<svg width="300px" height="300px" viewBox="0 0 300 300" version="1.1" xmlns="http://www.w3.org/2000/svg" xmlns:xlink="http://www.w3.org/1999/xlink">
    <title>img/M6说明图/img_m6a_Reset</title>
    <g id="img/M6说明图/img_m6a_Reset" stroke="none" stroke-width="1" fill="none" fill-rule="evenodd">
        <g id="编组-2备份-3" transform="translate(158.499385, 18.636197)">
            <path d="M47.0454016,0 L49.9709223,0.121185645 L50.4270379,2.91938387 C57.8017083,48.4153552 61.4906734,83.7227602 61.4906734,108.863803 C61.4906734,114.426794 61.2577702,118.385751 60.7217174,123.015319 L60.5206758,124.669 L59.6361368,131.554524 L59.429262,133.338153 L59.2799177,134.722925 L59.184368,135.660169 C58.3075475,144.464421 57.8500173,154.901352 57.8065899,170.877566 L57.8031734,173.43784 L57.8111221,176.652503 L57.8287511,179.114426 C57.9844997,195.782039 58.847359,206.456777 60.3025566,214.117069 L60.4459423,214.84623 L60.6351447,215.731619 C61.2293359,218.432944 62.2624651,222.566623 62.3304271,222.885197 C62.7811993,224.998204 62.9906734,226.878377 62.9906734,229.227901 L62.9906734,253.741085 C62.9906734,257.730251 59.802459,260.081258 54.0650005,260.850501 L52.3656734,259.363803 L10.6256154,259.363803 L8.9262883,260.850501 C3.30592085,260.096957 0.13180833,257.825551 0.00459356171,253.983274 L0.000615384616,253.741085 L0,233 L3,233 L3.00061538,253.741085 C3.00061538,255.497299 4.27134819,256.752467 7.16365249,257.475627 L7.45830116,257.546169 L7.62561538,257.582803 L7.625,233 L10.625,233 L10.6256154,256.363 L52.3656154,256.363 L52.3656734,226.813908 C52.4153667,222.650869 51.7293545,219.026533 50.1781993,213.87667 L48.775249,209.267723 L48.4784079,208.260446 L48.2054298,207.298193 C47.5811126,205.034016 47.4984428,204.173786 47.4912536,202.638286 L47.4906734,130.363803 C47.4906734,126.255149 48.0860792,122.280001 49.4884729,115.705502 L50.4009743,111.478474 L50.9188116,108.996246 L51.1290641,107.94676 C52.1001816,103.020866 52.4234465,100.165233 52.3659142,96.9545724 L52.2839154,92.6503749 L52.19076,88.2956687 L52.0801314,83.6720978 C51.4489177,58.695596 50.3456443,36.9249256 48.7708931,18.3622491 L14.8214512,18.3622491 L14.5948941,20.6014326 C12.6569612,40.1335414 11.3836491,63.1265995 10.7759838,89.5776421 L10.7076123,92.7032017 L10.6253746,96.9545724 L10.6200055,97.4429078 C10.6098521,100.616043 11.0625433,103.819412 12.3093426,110.013642 L12.6113128,111.49752 L13.3346307,114.976625 L13.750938,117.014762 L13.9686903,118.109098 C15.0163498,123.43555 15.452369,126.630701 15.4967943,129.813062 L15.5006154,130.363803 L15.4992536,202.726463 L15.4940335,203.090218 C15.4574438,204.803612 15.2414713,205.93502 14.2078218,209.395283 L13.8747546,210.49892 L12.9950952,213.360711 C11.9542567,216.728899 11.2759738,219.419575 10.92132,222.001081 L7.89297905,222.000754 C8.21276433,219.455458 8.8213673,216.857451 9.74421187,213.74442 L9.93610885,213.104481 L11.2581029,208.785814 L11.5346208,207.852297 C12.2400085,205.435269 12.4371481,204.422108 12.4860325,203.227667 L12.4997299,202.615637 L12.5006154,130.363803 L12.4960454,129.793685 C12.4469968,126.748124 11.9982998,123.57907 10.917657,118.146231 L10.5968722,116.556792 L9.47736545,111.145758 L8.9805291,108.644851 L8.78312384,107.608546 C7.9341199,103.078202 7.61113663,100.298913 7.61996715,97.457088 L7.62585615,96.9008236 L7.65957459,95.0804837 L7.73615579,91.3275087 L7.82144489,87.6195519 C8.12025579,75.3347245 8.56420897,63.8001713 9.15340822,53.0155925 L9.24287747,51.4035305 L9.42105754,48.335029 L9.29607928,49.2634608 C6.15487121,72.7938145 4.55718347,92.3844166 4.50209107,108.029451 L4.5019937,109.667043 C4.51852534,114.403837 4.68453713,117.95466 5.04146569,121.940231 L5.10644336,122.64841 L5.24060899,124.022022 L6.03634049,131.669846 L6.16717801,133.071015 C6.94766236,141.696795 7.38343796,151.60122 7.47998906,166.670874 L7.49572427,170.059116 L7.50061538,173.43784 L7.49342152,176.72466 L7.47803252,179.1719 C7.34702421,195.212225 6.64903309,205.80376 5.46310588,213.549105 L5.40525238,213.92224 L5.22968432,215.00043 L5.06111688,215.942199 L4.87335132,216.923166 C4.6719131,217.953843 4.4353521,219.108269 4.21672489,220.158006 L3.828,222 L0.761,222 L1.6289225,217.849373 C1.83029997,216.858815 2.02204161,215.888254 2.16389802,215.111085 L2.27154645,214.50101 L2.4433643,213.445512 L2.61631613,212.299052 L2.78487429,211.087668 C3.77392877,203.67769 4.3604598,193.680766 4.47845759,179.111327 L4.4937133,176.654374 L4.50061538,173.43784 L4.49780243,170.862299 L4.48499236,167.516086 C4.40403587,152.827835 4.00828215,143.043793 3.29381997,134.645149 L3.17390874,133.280923 L2.96603155,131.103017 L2.43729434,126.049364 L2.11913192,122.924053 L2.00252312,121.627413 L1.89319415,120.280452 C1.63776895,116.935222 1.51548614,113.713136 1.50189586,109.642946 L1.50186812,108.090756 C1.58044759,83.7458179 5.35578039,50.0312812 12.8244574,6.92570937 L13.5280257,2.89927424 L14.0238679,0.100712238 L16.9558291,0 L20.7966154,15.363 L23.0006154,15.363 L23.0006154,0.363803438 L27.0006154,0.363803438 L27.0006154,15.363 L30.0006154,15.363 L30.0006154,0.363803438 L34.0006154,0.363803438 L34.0006154,15.363 L37.0006154,15.363 L37.0006154,0.363803438 L41.0006154,0.363803438 L41.0006154,15.363 L43.2036154,15.363 L47.0454016,0 Z M53.6306734,45.6548034 L53.8361459,49.6697959 L53.9857929,52.7702882 C54.5963662,65.7765432 55.0449944,79.877021 55.3317935,95.0721533 L55.3654327,96.9008236 C55.4423256,101.191928 54.9065117,104.770246 53.2421737,112.538872 L52.5508498,115.73266 C51.1408006,122.2749 50.5271341,126.171369 50.4922558,130.014502 L50.4935142,202.817976 L50.5040257,203.217532 L50.5166046,203.466949 C50.5929466,204.706124 50.8832942,205.879624 51.9405627,209.37491 L53.0552476,213.026444 C54.6845267,218.437791 55.4195022,222.322752 55.3655661,226.831849 L55.3656734,257.582803 L55.5329877,257.546169 C58.6338132,256.835588 59.9906734,255.555839 59.9906734,253.741085 L59.9906734,229.227901 C59.9906734,227.288863 59.8367993,225.731462 59.5022573,224.027292 L59.3629556,223.368432 L58.3672232,219.25283 L57.9111524,217.295153 C57.7380973,216.53517 57.582635,215.826588 57.4676074,215.254716 L57.2885632,214.321581 L57.1541479,213.578634 C55.6286288,204.933316 54.8031734,192.753985 54.8031734,173.43784 L54.806558,170.887378 L54.8222939,167.523003 L54.8433967,165.019792 C54.9877579,150.830495 55.5210866,141.318189 56.4495762,132.989232 L56.7012683,130.83949 L57.5832012,123.987885 L57.7409774,122.675905 C58.2119905,118.609564 58.4422185,115.088943 58.4837476,110.459784 L58.4906734,108.863803 L58.4852857,107.193833 L58.4691223,105.493917 C58.2787527,90.3457333 56.8271598,71.6928091 54.113688,49.5396096 L53.6306734,45.6548034 Z M15.9525948,8.35693865 C15.6709458,10.637125 15.3999258,12.9726897 15.1395369,15.3636269 L17.7036154,15.363 L15.9525948,8.35693865 Z M47.9032449,8.93575401 L46.2966154,15.363 L48.5098693,15.3631085 C48.3633191,13.7215224 48.2129393,12.1059962 48.0587303,10.5165315 L47.9032449,8.93575401 Z" id="形状结合" fill-opacity="0.7" fill="#999999" fill-rule="nonzero"></path>
            <path d="M35.5006154,98.8638034 L27.5006154,98.8638034 C25.015334,98.8638034 23.0006154,100.878522 23.0006154,103.363803 L23.0006154,111.363803 C23.0006154,113.849085 25.015334,115.863803 27.5006154,115.863803 L35.5006154,115.863803 C37.9858968,115.863803 40.0006154,113.849085 40.0006154,111.363803 L40.0006154,103.363803 C40.0006154,100.878522 37.9858968,98.8638034 35.5006154,98.8638034 Z M27.5006154,99.8638034 L35.5006154,99.8638034 C37.433612,99.8638034 39.0006154,101.430807 39.0006154,103.363803 L39.0006154,111.363803 C39.0006154,113.2968 37.433612,114.863803 35.5006154,114.863803 L27.5006154,114.863803 C25.5676188,114.863803 24.0006154,113.2968 24.0006154,111.363803 L24.0006154,103.363803 C24.0006154,101.430807 25.5676188,99.8638034 27.5006154,99.8638034 Z" id="矩形备份-9" fill-opacity="0.7" fill="#999999" fill-rule="nonzero"></path>
            <text id="CONNECT备份" font-family="PingFangSC-Semibold, PingFang SC" font-size="4" font-weight="500" fill="#999999">
                <tspan x="22.0806154" y="95.3638034">CONNECT</tspan>
            </text>
            <text id="WAN" font-family="PingFangSC-Semibold, PingFang SC" font-size="4" font-weight="500" fill="#999999">
                <tspan x="27.2726154" y="211.363803">WAN</tspan>
            </text>
            <text id="LAN" font-family="PingFangSC-Semibold, PingFang SC" font-size="4" font-weight="500" fill="#999999">
                <tspan x="27.9946154" y="127.363803">LAN</tspan>
            </text>
            <text id="POWER备份" font-family="PingFangSC-Semibold, PingFang SC" font-size="4" font-weight="500" fill="#999999">
                <tspan x="25.0566154" y="238.363803">POWER</tspan>
            </text>
            <text id="RESET备份" font-family="PingFangSC-Semibold, PingFang SC" font-size="4" font-weight="500" fill="#999999">
                <tspan x="25.0066154" y="76.3638034">RESET</tspan>
            </text>
            <circle id="椭圆形备份-2" fill-opacity="0.5" fill="#999999" cx="32.0006154" cy="80.8638034" r="1.5"></circle>
            <circle id="椭圆形备份-3" fill-opacity="0.5" fill="#999999" cx="29.5006154" cy="227.363803" r="5"></circle>
            <path d="M32.0006154,132.363803 L32.0006154,134.462803 L35.2149011,134.463803 L35.2156154,138.663803 L37.3577582,138.663803 L37.3586154,139.713803 L39.5006154,139.713803 L39.5006154,146.013803 L37.3586154,146.013803 L37.3577582,147.063803 L35.2156154,147.063803 L35.2149011,151.263803 L32.0006154,151.263803 L32.0006154,153.363803 L26.6434725,153.363803 L26.6436154,151.263803 L24.5006154,151.263803 L24.5006154,134.463803 L26.6436154,134.462803 L26.6434725,132.363803 L32.0006154,132.363803 Z M31.5006154,147.772894 L26.5006154,147.772894 L26.5006154,148.863803 L31.5006154,148.863803 L31.5006154,147.772894 Z M31.5006154,145.591076 L26.5006154,145.591076 L26.5006154,146.681985 L31.5006154,146.681985 L31.5006154,145.591076 Z M31.5006154,143.409258 L26.5006154,143.409258 L26.5006154,144.500167 L31.5006154,144.500167 L31.5006154,143.409258 Z M31.5006154,141.22744 L26.5006154,141.22744 L26.5006154,142.318349 L31.5006154,142.318349 L31.5006154,141.22744 Z M31.5006154,139.045622 L26.5006154,139.045622 L26.5006154,140.136531 L31.5006154,140.136531 L31.5006154,139.045622 Z M31.5006154,136.863803 L26.5006154,136.863803 L26.5006154,137.954713 L31.5006154,137.954713 L31.5006154,136.863803 Z" id="形状结合" fill-opacity="0.5" fill="#999999"></path>
            <path d="M32.0006154,157.363803 L32.0006154,159.462803 L35.2149011,159.463803 L35.2156154,163.663803 L37.3577582,163.663803 L37.3586154,164.713803 L39.5006154,164.713803 L39.5006154,171.013803 L37.3586154,171.013803 L37.3577582,172.063803 L35.2156154,172.063803 L35.2149011,176.263803 L32.0006154,176.263803 L32.0006154,178.363803 L26.6434725,178.363803 L26.6436154,176.263803 L24.5006154,176.263803 L24.5006154,159.463803 L26.6436154,159.462803 L26.6434725,157.363803 L32.0006154,157.363803 Z M31.5006154,172.772894 L26.5006154,172.772894 L26.5006154,173.863803 L31.5006154,173.863803 L31.5006154,172.772894 Z M31.5006154,170.591076 L26.5006154,170.591076 L26.5006154,171.681985 L31.5006154,171.681985 L31.5006154,170.591076 Z M31.5006154,168.409258 L26.5006154,168.409258 L26.5006154,169.500167 L31.5006154,169.500167 L31.5006154,168.409258 Z M31.5006154,166.22744 L26.5006154,166.22744 L26.5006154,167.318349 L31.5006154,167.318349 L31.5006154,166.22744 Z M31.5006154,164.045622 L26.5006154,164.045622 L26.5006154,165.136531 L31.5006154,165.136531 L31.5006154,164.045622 Z M31.5006154,161.863803 L26.5006154,161.863803 L26.5006154,162.954713 L31.5006154,162.954713 L31.5006154,161.863803 Z" id="形状结合" fill-opacity="0.5" fill="#999999"></path>
            <path d="M32.0006154,182.363803 L32.0006154,184.462803 L35.2149011,184.463803 L35.2156154,188.663803 L37.3577582,188.663803 L37.3586154,189.713803 L39.5006154,189.713803 L39.5006154,196.013803 L37.3586154,196.013803 L37.3577582,197.063803 L35.2156154,197.063803 L35.2149011,201.263803 L32.0006154,201.263803 L32.0006154,203.363803 L26.6434725,203.363803 L26.6436154,201.263803 L24.5006154,201.263803 L24.5006154,184.463803 L26.6436154,184.462803 L26.6434725,182.363803 L32.0006154,182.363803 Z M31.5006154,197.772894 L26.5006154,197.772894 L26.5006154,198.863803 L31.5006154,198.863803 L31.5006154,197.772894 Z M31.5006154,195.591076 L26.5006154,195.591076 L26.5006154,196.681985 L31.5006154,196.681985 L31.5006154,195.591076 Z M31.5006154,193.409258 L26.5006154,193.409258 L26.5006154,194.500167 L31.5006154,194.500167 L31.5006154,193.409258 Z M31.5006154,191.22744 L26.5006154,191.22744 L26.5006154,192.318349 L31.5006154,192.318349 L31.5006154,191.22744 Z M31.5006154,189.045622 L26.5006154,189.045622 L26.5006154,190.136531 L31.5006154,190.136531 L31.5006154,189.045622 Z M31.5006154,186.863803 L26.5006154,186.863803 L26.5006154,187.954713 L31.5006154,187.954713 L31.5006154,186.863803 Z" id="形状结合" fill-opacity="0.5" fill="#C97676"></path>
            <polyline id="直线-15" stroke="#999999" stroke-linecap="square" points="22.5006154 182.363803 20.5006154 182.363803 20.5006154 209.863803 25.0006154 209.863803"></polyline>
            <polyline id="直线-15备份" stroke="#999999" stroke-linecap="square" points="40.5006154 182.363803 42.5006154 182.363803 42.5006154 209.863803 38.5006154 209.863803"></polyline>
            <polyline id="直线-15" stroke="#999999" stroke-linecap="square" transform="translate(22.750615, 152.863803) scale(1, -1) translate(-22.750615, -152.863803) " points="22.5006154 126.363803 20.5006154 126.363803 20.5006154 179.363803 25.0006154 179.363803"></polyline>
            <polyline id="直线-15备份" stroke="#999999" stroke-linecap="square" transform="translate(40.500615, 152.863803) scale(1, -1) translate(-40.500615, -152.863803) " points="40.5006154 126.363803 42.5006154 126.363803 42.5006154 179.363803 38.5006154 179.363803"></polyline>
        </g>
        <path d="M66.733,184 C67.2458358,184 67.6685072,184.38604 67.7262723,184.883379 L67.733,185 L67.733,231.633429 C67.733,238.710563 73.3881918,244.466857 80.4261438,244.629878 L80.733,244.633429 L142.5,244.5 L142.5,246.5 L80.733,246.633429 C72.5535929,246.633429 65.9032698,240.086642 65.7362178,231.947257 L65.733,231.633429 L65.733,185 C65.733,184.447715 66.1807153,184 66.733,184 Z" id="Stroke-36" fill="#9F9FA0" fill-rule="nonzero"></path>
        <g id="编组" transform="translate(157.929385, 246.070769) rotate(-270.000000) translate(-157.929385, -246.070769) translate(151.606308, 222.403077)">
            <path d="M8.85553846,47.0012292 C8.85553846,47.1858103 8.58438462,47.3353846 8.24861538,47.3353846 L4.00361538,47.3353846 C3.669,47.3353846 3.39784615,47.1858103 3.39784615,47.0012292 L3.39784615,39.6701766 C3.39784615,39.484959 3.669,39.3353846 4.00361538,39.3353846 L8.24861538,39.3353846 C8.58438462,39.3353846 8.85553846,39.484959 8.85553846,39.6701766 L8.85553846,47.0012292 Z" id="Fill-37" fill="#999999" fill-rule="nonzero"></path>
            <path d="M8.49103846,0 C9.43811538,0 10.2144115,0.728942308 10.2896735,1.65657346 L10.2956538,1.80461538 L10.295,12.999 L8.66,12.999 L8.66065385,1.80461538 C8.66065385,1.72984615 8.61191538,1.66615385 8.54456769,1.64366769 L8.49103846,1.635 L4.21142308,1.635 C4.13573077,1.635 4.07185385,1.68373846 4.04933077,1.75108615 L4.04065385,1.80461538 L4.04,12.999 L2.405,12.999 L2.40565385,1.80461538 C2.40565385,0.857538462 3.13459615,0.0812423077 4.06321659,0.00598038462 L4.21142308,0 L8.49103846,0 Z" id="路径" fill="#999999" fill-rule="nonzero"></path>
            <path d="M9.39588462,28.4607692 L3.29896154,28.4607692 C2.59280769,28.4607692 2.0205,29.0330769 2.0205,29.7392308 L2.0205,39.0034615 C2.0205,39.7096154 2.59280769,40.2819231 3.29896154,40.2819231 L9.39588462,40.2819231 C10.1020385,40.2819231 10.6743462,39.7096154 10.6743462,39.0034615 L10.6743462,29.7392308 C10.6743462,29.0330769 10.1020385,28.4607692 9.39588462,28.4607692 M9.36703846,29.7692308 L9.39588462,38.9734615 L3.32896154,39.0034615 L3.29896154,29.7692308 L9.36703846,29.7692308" id="Fill-41" fill="#9F9FA0"></path>
            <path d="M10.8911538,11.7751154 L1.75615385,11.7751154 C0.785769231,11.7751154 0,12.5620385 0,13.5301154 L0,28.0778077 C0,29.0481923 0.785769231,29.8339615 1.75615385,29.8339615 L10.8911538,29.8339615 C11.8603846,29.8339615 12.6461538,29.0481923 12.6461538,28.0778077 L12.6461538,13.5301154 C12.6461538,12.5620385 11.8603846,11.7751154 10.8911538,11.7751154 M10.8911538,13.4101154 C10.9580769,13.4101154 11.0111538,13.4643462 11.0111538,13.5301154 L11.0111538,28.0778077 C11.0111538,28.1447308 10.9580769,28.1978077 10.8911538,28.1978077 L1.75615385,28.1978077 C1.68923077,28.1978077 1.635,28.1447308 1.635,28.0778077 L1.635,13.5301154 C1.635,13.4643462 1.68923077,13.4101154 1.75615385,13.4101154 L10.8911538,13.4101154" id="Fill-43" fill="#9F9FA0"></path>
            <path d="M9.96265385,36.4802308 C9.96265385,36.7917692 9.71111538,37.0433077 9.39957692,37.0433077 L7.50957692,37.0433077 C7.19803846,37.0433077 6.9465,36.7917692 6.9465,36.4802308 C6.9465,36.1686923 7.19803846,35.9183077 7.50957692,35.9183077 L9.39957692,35.9183077 C9.71111538,35.9183077 9.96265385,36.1686923 9.96265385,36.4802308" id="Fill-91" fill="#999999" fill-rule="nonzero"></path>
            <path d="M5.81319231,36.4802308 C5.81319231,36.7917692 5.56165385,37.0433077 5.25126923,37.0433077 L3.36011538,37.0433077 C3.04857692,37.0433077 2.79703846,36.7917692 2.79703846,36.4802308 C2.79703846,36.1686923 3.04857692,35.9183077 3.36011538,35.9183077 L5.25126923,35.9183077 C5.56165385,35.9183077 5.81319231,36.1686923 5.81319231,36.4802308" id="Fill-92" fill="#999999" fill-rule="nonzero"></path>
            <path d="M9.96265385,33.9235385 C9.96265385,34.2339231 9.71111538,34.4854615 9.39957692,34.4854615 L7.50957692,34.4854615 C7.19803846,34.4854615 6.9465,34.2339231 6.9465,33.9235385 C6.9465,33.612 7.19803846,33.3604615 7.50957692,33.3604615 L9.39957692,33.3604615 C9.71111538,33.3604615 9.96265385,33.612 9.96265385,33.9235385" id="Fill-93" fill="#999999" fill-rule="nonzero"></path>
            <path d="M5.81319231,33.9235385 C5.81319231,34.2339231 5.56165385,34.4854615 5.25126923,34.4854615 L3.36011538,34.4854615 C3.04857692,34.4854615 2.79703846,34.2339231 2.79703846,33.9235385 C2.79703846,33.612 3.04857692,33.3604615 3.36011538,33.3604615 L5.25126923,33.3604615 C5.56165385,33.3604615 5.81319231,33.612 5.81319231,33.9235385" id="Fill-94" fill="#999999" fill-rule="nonzero"></path>
            <path d="M10.1068846,31.3656923 C10.1068846,31.6772308 9.85534615,31.9276154 9.54380769,31.9276154 L7.65380769,31.9276154 C7.34226923,31.9276154 7.09073077,31.6772308 7.09073077,31.3656923 C7.09073077,31.0541538 7.34226923,30.8037692 7.65380769,30.8037692 L9.54380769,30.8037692 C9.85534615,30.8037692 10.1068846,31.0541538 10.1068846,31.3656923" id="Fill-95" fill="#999999" fill-rule="nonzero"></path>
            <path d="M5.72988462,31.3656923 C5.72988462,31.6772308 5.47834615,31.9276154 5.16680769,31.9276154 L3.27680769,31.9276154 C2.96526923,31.9276154 2.71373077,31.6772308 2.71373077,31.3656923 C2.71373077,31.0541538 2.96526923,30.8037692 3.27680769,30.8037692 L5.16680769,30.8037692 C5.47834615,30.8037692 5.72988462,31.0541538 5.72988462,31.3656923" id="Fill-96" fill="#999999" fill-rule="nonzero"></path>
        </g>
        <polygon id="Stroke-101" fill="#9F9FA0" fill-rule="nonzero" points="79 148 79 182.689101 73.0357464 182.902438 72.9642536 180.903716 76.999 180.759077 76.999 149.999077 56.999 149.999077 56.999 180.903077 61 180.903077 61 182.903077 55 182.903077 55 148"></polygon>
        <path d="M67,165 C63.158008,165 60,167.807129 60,171.333353 L60,179.666647 C60,183.192871 63.158008,186 67,186 C70.841992,186 74,183.192871 74,179.666647 L74,171.333353 C74,167.807129 70.841992,165 67,165 Z M67,167 C69.786459,167 72,168.967599 72,171.333353 L72,179.666647 C72,182.032401 69.786459,184 67,184 C64.213541,184 62,182.032401 62,179.666647 L62,171.333353 C62,168.967599 64.213541,167 67,167 Z" id="Stroke-103" fill="#9F9FA0" fill-rule="nonzero"></path>
        <polygon id="Fill-104" fill="#999999" fill-rule="nonzero" points="70.7819231 158.827308 72.17 158.827308 72.17 155.176538 70.7819231 155.176538"></polygon>
        <polygon id="Fill-105" fill="#999999" fill-rule="nonzero" points="62.4546154 158.827308 63.8426923 158.827308 63.8426923 155.176538 62.4546154 155.176538"></polygon>
        <path d="M174.003058,95.178052 C174.174071,86.2150912 181.49509,79 190.498892,79 C199.611708,79 207,86.3875116 207,95.4988917 C207,104.612098 199.612098,112 190.498892,112 C181.494704,112 174.174062,104.784528 174.003058,95.8197952 L174,95.4988917 L174.003058,95.178052 Z M176,95.4988917 C176,103.507529 182.492471,110 190.498892,110 C198.507529,110 205,103.507529 205,95.4988917 C205,87.4924711 198.507529,81 190.498892,81 C182.492471,81 176,87.4924711 176,95.4988917 Z" id="Fill-20" fill-opacity="0.9" fill="#F84343" fill-rule="nonzero"></path>
        <path d="M174.003058,252.178052 C174.174071,243.215091 181.49509,236 190.498892,236 C199.611708,236 207,243.387512 207,252.498892 C207,261.612098 199.612098,269 190.498892,269 C181.494704,269 174.174062,261.784528 174.003058,252.819795 L174,252.498892 L174.003058,252.178052 Z M176,252.498892 C176,260.507529 182.492471,267 190.498892,267 C198.507529,267 205,260.507529 205,252.498892 C205,244.492471 198.507529,238 190.498892,238 C182.492471,238 176,244.492471 176,252.498892 Z" id="Fill-20备份" fill-opacity="0.9" fill="#F84343" fill-rule="nonzero"></path>
        <g id="编组-3" transform="translate(77.000000, 45.000000)" fill="#999999">
            <g id="编组-2" transform="translate(14.000000, 20.121597)">
                <text id="RESET备份" font-family="PingFangSC-Semibold, PingFang SC" font-size="11.4285714" font-weight="500">
                    <tspan x="1.44571429" y="12">RESET</tspan>
                </text>
                <ellipse id="椭圆形备份-2" fill-opacity="0.5" cx="21.4285714" cy="24.5286995" rx="4.28571429" ry="4.34970302"></ellipse>
            </g>
            <path d="M34,0 C52.7776815,0 68,15.2223185 68,34 C68,34.9123984 67.964061,35.8164028 67.8935214,36.7106747 L83.5,46 L65.2304428,47.4629025 C60.0153859,59.5442308 47.9951683,68 34,68 C15.2223185,68 0,52.7776815 0,34 C0,15.2223185 15.2223185,0 34,0 Z M34,2 C16.326888,2 2,16.326888 2,34 C2,51.673112 16.326888,66 34,66 C46.7448031,66 58.1077781,58.481086 63.2184776,47.0699088 L63.394214,46.6702714 L63.8711705,45.5653423 L77.082,44.507 L65.8019213,37.7931866 L65.8997145,36.5534046 C65.9664492,35.7073696 66,34.8558209 66,34 C66,16.326888 51.673112,2 34,2 Z" id="形状结合" fill-rule="nonzero" opacity="0.6"></path>
        </g>
    </g>
</svg>