<?xml version="1.0" standalone="no"?><!DOCTYPE svg PUBLIC "-//W3C//DTD SVG 1.1//EN" "http://www.w3.org/Graphics/SVG/1.1/DTD/svg11.dtd"><svg t="1669972411841" class="icon" viewBox="0 0 1024 1024" version="1.1" xmlns="http://www.w3.org/2000/svg" p-id="3666" xmlns:xlink="http://www.w3.org/1999/xlink" width="200" height="200"><path d="M36.571429 438.857143m73.142857 0l73.142857 0q73.142857 0 73.142857 73.142857l0 365.714286q0 73.142857-73.142857 73.142857l-73.142857 0q-73.142857 0-73.142857-73.142857l0-365.714286q0-73.142857 73.142857-73.142857Z" fill="#FFA953" p-id="3667"></path><path d="M402.285714 292.571429m73.142857 0l73.142858 0q73.142857 0 73.142857 73.142857l0 512q0 73.142857-73.142857 73.142857l-73.142858 0q-73.142857 0-73.142857-73.142857l0-512q0-73.142857 73.142857-73.142857Z" fill="#FFA953" p-id="3668"></path><path d="M768 73.142857m73.142857 0l73.142857 0q73.142857 0 73.142857 73.142857l0 731.428572q0 73.142857-73.142857 73.142857l-73.142857 0q-73.142857 0-73.142857-73.142857l0-731.428572q0-73.142857 73.142857-73.142857Z" fill="#FFA953" p-id="3669"></path></svg>