<?xml version="1.0" encoding="UTF-8"?>
<svg width="70px" height="70px" viewBox="0 0 70 70" version="1.1" xmlns="http://www.w3.org/2000/svg" xmlns:xlink="http://www.w3.org/1999/xlink">
    <title>icon/ic_homepage_m6_light</title>
    <g id="icon/ic_homepage_m6_light" stroke="none" stroke-width="1" fill="none" fill-rule="evenodd">
        <g id="编组" transform="translate(14.000000, 0.000000)" fill="#333333" fill-rule="nonzero">
            <path d="M7.23214723,0.936850009 L7.40155476,0.938168828 L11.8485816,1.18816883 C12.8135563,1.24241713 13.5518459,2.0686606 13.4975976,3.03363527 C13.4460617,3.9503612 12.6978002,4.66250385 11.7957577,4.68491517 L11.6521312,4.68265122 L8.0633564,4.48041002 L7.9968666,4.56402376 C7.39777426,5.31771796 6.63403559,6.39669712 6.09722335,7.26135905 L5.76319206,7.81610106 L5.40452105,8.42923492 L5.08305104,8.99655573 C4.98200119,9.17834621 4.88701147,9.35297977 4.79794188,9.52093499 L4.54835344,10.0052442 C4.39361469,10.3153985 4.26199632,10.6007537 4.15237815,10.8651386 L4.07809654,11.049362 L3.99071946,12.0668824 L3.90995614,13.1678902 L3.83596085,14.3600525 L3.75321933,15.9901217 L3.69501619,17.4154142 L3.64408248,18.9567791 L3.590873,21.0583921 L3.55685957,22.8889524 L3.52528858,25.3763186 L3.50616082,28.0989566 L3.50002021,30.4565257 L3.50496946,33.9147398 L3.5119908,34.9972463 L3.52897612,35.4250609 L3.54897511,35.7220557 L3.59412444,36.210579 L3.66001995,36.7811637 L3.78514034,37.7287523 L4.0073769,39.3467281 L4.08251488,39.9520535 L4.14309468,40.5032484 L4.18993023,41.0148587 C4.19663602,41.0976365 4.20280304,41.179371 4.20844826,41.2603653 L4.23619353,41.7398725 C4.23981935,41.819118 4.24295727,41.8982294 4.24562426,41.9775096 L4.25611059,42.4576421 L4.25736968,42.703774 L4.0183564,65.43541 L6.7503564,65.43541 C7.66852979,65.43541 8.42154874,66.1425203 8.4945552,67.0418828 L8.5003564,67.18541 C8.5003564,68.1035834 7.79324612,68.8566024 6.89388361,68.9296088 L6.7503564,68.93541 L2.2503564,68.93541 C1.32536245,68.93541 0.56934769,68.2181574 0.504818908,67.3116711 L0.500452752,67.1670461 L0.757466037,42.68541 L0.752867558,42.2793757 L0.738506923,41.8760911 L0.713536332,41.4626968 L0.677107983,41.0263333 L0.628374077,40.5541411 L0.566486813,40.0332608 L0.490598393,39.4508329 L0.238196452,37.6163063 L0.149308287,36.9059074 L0.0848416827,36.3004318 L0.0539577888,35.9358496 L0.0317173854,35.5890661 L0.0172362584,35.2485478 L0.00812899186,34.7242879 L0,31.6116534 L0.00402045649,28.6348815 L0.02099548,25.8371435 L0.0581524054,22.791826 L0.113171748,20.0622991 L0.147230742,18.8078379 L0.199300634,17.2423129 L0.243269177,16.1442767 L0.308335353,14.7755305 L0.399821633,13.2069359 L0.50233197,11.7824616 L0.592092036,10.7365446 C0.599854728,10.6526133 0.607687601,10.5694623 0.615590286,10.4870717 C0.62951325,10.3419157 0.66152446,10.199069 0.71087958,10.0618532 C0.912136406,9.50232431 1.17326566,8.91529965 1.50701006,8.26071171 L1.81115721,7.6821557 C1.86491135,7.5826605 1.92022174,7.48155284 1.97712552,7.37871589 L2.33796615,6.7400082 C2.40139211,6.62978684 2.46648577,6.51760256 2.53328427,6.40333855 L2.95483067,5.69186317 C3.21740968,5.25385402 3.53645501,4.76188404 3.87626551,4.26614624 L4.29172054,3.67266468 C4.92299941,2.78936656 5.57528882,1.95891085 6.04037984,1.47402317 C6.35480479,1.14621469 6.78262816,0.955123416 7.23214723,0.936850009 Z" id="路径-5备份-2"></path>
            <path d="M37.5879589,2.15268961 L13.3913564,0.011410025 L13.1615075,0 L13.0024072,0.000945932191 L12.8505591,0.012937549 L12.6666869,0.0399251924 C11.7323076,0.203757678 10.9272241,0.845056984 10.5748934,1.76260671 C10.0943145,3.00921371 9.53385937,4.1975606 8.89432606,5.32619303 C8.11993607,6.69281715 7.28145024,7.97525749 6.37892603,9.17400054 C6.12390451,9.51272308 6.00052868,9.93251238 6.03172676,10.3553547 C6.25507336,13.3824767 6.3960012,16.653517 6.45436328,20.1681072 L6.47666315,21.9456964 C6.49208119,23.743578 6.48685166,25.6023317 6.46095619,27.5219115 L6.42817139,29.4617648 C6.41494645,30.1151399 6.39942462,30.7752718 6.38160521,31.4421586 L6.32125357,33.4630826 C6.30560083,33.9382079 6.24934086,34.4641794 6.15334987,35.0600915 L6.05441199,35.6259595 L5.92915306,36.2561112 L5.82747688,36.729413 L5.42414872,38.5266725 L5.22771106,39.4462621 L5.12230479,40.0037062 L5.08422525,40.2397249 L5.04270141,40.5574591 L5.02402412,40.7539452 L5.00713032,41.0408564 L5.0003564,41.3366106 L5.0003564,65.9296922 C5.0003564,66.0108829 5.00600661,66.0919752 5.0172661,66.1723814 C5.27921618,68.0430176 6.88050921,69.440927 8.77085642,69.4305996 L10.3422887,69.419913 L12.640011,69.392479 L14.1322353,69.3665763 L15.5928087,69.3345744 L17.0217497,69.296466 L19.1058905,69.2278378 L20.4558308,69.1744313 L21.7742031,69.1148928 L23.0610258,69.049215 L24.3163174,68.9773906 L25.5400963,68.8994124 L26.7323808,68.815273 L27.8931895,68.7249652 L29.0225407,68.6284816 L30.1204529,68.525815 L31.1869445,68.4169581 L32.222034,68.3019036 L33.2257396,68.1806443 C33.3904096,68.1599169 33.5537727,68.1389307 33.7158293,68.1176855 L34.6724939,67.9871051 C34.829326,67.9648233 34.9848524,67.9422822 35.1390734,67.9194817 L36.0487384,67.7795639 L36.9270933,67.6334121 L37.7741566,67.4810189 C37.9127272,67.4550995 38.0499948,67.4289198 38.1859597,67.4024796 L38.9861201,67.2407107 C39.2476316,67.1857449 39.5039355,67.1297359 39.7550349,67.0726824 L40.4927226,66.8983872 C40.7334161,66.8392435 40.968908,66.7790541 41.1992016,66.7178178 C41.9688704,66.5131588 42.503282,65.8146245 42.4994743,65.0182196 L42.4872183,61.1384628 L42.4902544,59.224017 L42.4992834,58.2396397 C42.5036539,57.9581826 42.4952597,57.6530047 42.474678,57.3102659 L42.4347369,56.7662572 L42.3769473,56.1555273 L42.0740309,53.42133 L42.0603022,53.1679928 L42.0526701,51.2264018 L42.025652,48.9204696 L41.8890955,41.2880447 L41.8702272,39.0424749 L41.876013,37.8064685 L41.8920114,36.8383905 L41.9241647,35.7158953 L41.9661454,34.9607409 L42.1029145,33.1741359 L42.223309,31.6563849 L42.2687154,31.0170541 L42.304746,30.4381861 L42.3314544,29.9112404 L42.3488941,29.4276769 L42.3571184,28.9789552 C42.3577242,28.9065973 42.3579482,28.8353352 42.3577915,28.7649912 L42.3522932,28.3525192 L42.2775159,25.6002711 L42.1934213,22.9868578 L42.0999829,20.5121401 L42.0237564,18.747037 L41.9139029,16.5147015 L41.8554465,15.4504097 L41.7946328,14.4206786 L41.7314582,13.4254909 L41.5980137,11.5386757 L41.4917086,10.2141112 L41.4178698,9.37415302 L41.3416519,8.56864245 L41.2228574,7.42492775 L41.1406777,6.70545999 L41.0561075,6.0203789 L40.9691434,5.36966706 L40.9360922,5.17194294 C40.6185829,3.5396473 39.2587501,2.30174654 37.5879589,2.15268961 Z M13.5623979,3.71825581 L13.6313564,3.54441002 L37.2780986,5.63894623 C37.3929694,5.64919463 37.4865991,5.73824216 37.5027723,5.8536803 L37.5867767,6.4827567 L37.6685741,7.14681706 L37.7871243,8.20846261 L37.8633891,8.95990303 L37.9374347,9.74626354 L38.0788551,11.4236718 L38.2113581,13.2405413 L38.3048669,14.6946271 L38.3644051,15.7075232 L38.4495025,17.2920801 L38.5295375,18.9548376 L38.6044987,20.695734 L38.6743745,22.5147078 L38.7596115,25.0613534 L38.8533736,28.4394773 L38.8577141,28.7912972 L38.8537757,29.1717124 L38.8414569,29.5876794 L38.8206559,30.0461551 L38.773328,30.8287901 L38.7308769,31.4239729 L38.4711992,34.7660277 L38.4453277,35.1921061 L38.4135981,35.9542689 L38.3849304,37.1574599 L38.3741466,37.9584382 L38.3700406,39.0195197 L38.3851479,41.0157619 L38.5358256,49.6547231 L38.5565455,51.8603575 L38.5619146,53.3251163 L38.573016,53.5646686 L38.6080201,53.9654469 L38.862265,56.2026376 L38.9199293,56.7622291 L38.9621962,57.2501189 C38.9679508,57.3257054 38.9730589,57.3984895 38.9775178,57.4685637 L38.9964616,57.8572293 C38.9983139,57.9168338 38.9995121,57.9739134 39.0000535,58.0285607 L38.9882916,59.7259006 L38.9902992,62.6993785 L38.9923564,63.65541 L38.9297942,63.6711552 C38.6907928,63.7252103 38.4464588,63.7783089 38.1967954,63.8304496 L37.4318199,63.9839973 C37.3016603,64.0091092 37.1701692,64.0339814 37.0373468,64.0586138 L36.2244415,64.2035275 L35.3796063,64.3426763 L34.50286,64.4760528 C34.2052948,64.5195488 33.9024141,64.5620815 33.5942212,64.6036497 L32.6537088,64.7254597 L31.6813414,64.8414755 L30.6771377,64.9516899 L29.6411164,65.0560955 L28.5732963,65.1546851 L27.4736961,65.2474513 L25.7647491,65.375666 L24.5857805,65.453842 L23.3750973,65.5261691 L22.1327182,65.5926402 L20.858662,65.6532478 L19.5529473,65.7079846 L18.2155929,65.7568435 L16.8466175,65.799817 L15.4460397,65.836898 L13.2859598,65.8814549 L11.8064582,65.9037725 L9.5280802,65.9261501 C9.27098733,65.9278959 9.0125816,65.9293945 8.7528634,65.9306498 C8.64296738,65.9306498 8.54290646,65.8599838 8.50113048,65.7542678 L8.50214341,41.3044945 L8.51299213,41.0964839 L8.52703922,40.9474873 L8.56067884,40.6950365 L8.61221776,40.3916718 L8.71425621,39.8765518 L8.95396966,38.7792315 L9.24874625,37.4677728 L9.40695151,36.7203573 L9.49539738,36.2660502 L9.53620118,36.0430728 C9.69785859,35.1402464 9.79437936,34.336463 9.81935577,33.5783257 L9.85289497,32.5083493 C10.0849864,24.7018517 10.0120835,17.7752155 9.63316751,11.725886 L9.5673564,10.74341 L9.17503963,11.2791724 C10.1696857,9.95807213 11.0911309,8.54874776 11.9394327,7.05168585 C12.543657,5.98536591 13.0846517,4.87408665 13.5623979,3.71825581 Z" id="直线-11备份-30"></path>
            <path d="M25.7503564,29.68541 C26.3026411,29.68541 26.7503564,30.1331253 26.7503564,30.68541 C26.7503564,31.4573554 26.6851186,32.099398 26.5475997,32.8483373 L26.2325034,34.4163426 C26.1077302,35.067783 26.0070855,35.733954 25.9306727,36.4704895 L25.8711129,37.1203353 C25.8621761,37.2319475 25.8537344,37.3453201 25.8457882,37.4606153 L25.8040585,38.1767552 L25.7742336,38.9468232 L25.7563281,39.7786047 C25.7543379,39.9228103 25.752845,40.0699116 25.7518496,40.220071 L25.7503564,57.68541 C25.7503564,58.2376948 25.3026411,58.68541 24.7503564,58.68541 C24.2375206,58.68541 23.8148492,58.2993698 23.7570841,57.8020312 L23.7503564,57.68541 L23.7503564,40.6798852 C23.7503564,38.2301773 23.8703218,36.5035988 24.1100225,34.9534234 L24.2122882,34.3414655 L24.3160611,33.7993346 L24.5804861,32.4871394 C24.6972268,31.8513594 24.7503564,31.328481 24.7503564,30.68541 C24.7503564,30.1331253 25.1980716,29.68541 25.7503564,29.68541 Z" id="直线-12"></path>
        </g>
    </g>
</svg>