<?xml version="1.0" standalone="no"?><!DOCTYPE svg PUBLIC "-//W3C//DTD SVG 1.1//EN" "http://www.w3.org/Graphics/SVG/1.1/DTD/svg11.dtd"><svg t="1669971554327" class="icon" viewBox="0 0 1024 1024" version="1.1" xmlns="http://www.w3.org/2000/svg" p-id="3530" xmlns:xlink="http://www.w3.org/1999/xlink" width="200" height="200"><path d="M613.504 549.568C837.312 574.848 960 679.936 960 736c0 29.952-10.56 75.776-31.616 137.344A127.936 127.936 0 0 1 807.296 960H216.704a127.936 127.936 0 0 1-121.088-86.656C74.496 811.776 64 765.952 64 736c0-56.064 122.688-161.152 346.496-186.432 30.208 58.112 64 130.944 101.504 218.432a3558.272 3558.272 0 0 1 92.672-201.28zM512 512a224 224 0 1 0 0-448 224 224 0 0 0 0 448z" fill="#A7A7A7" p-id="3531"></path></svg>