<svg width="300" height="300" xmlns="http://www.w3.org/2000/svg"><g fill="none" fill-rule="evenodd"><path d="M95.728 81.015a13.5 13.5 0 0 0-.281-2.29h2.012c.3.713.488 1.484.55 2.29h-2.28Zm-.281 3.436c.153-.725.251-1.493.281-2.292h2.28a7.347 7.347 0 0 1-.549 2.292h-2.012Zm-.299 1.144h1.712a7.484 7.484 0 0 1-3.06 2.707c.553-.736 1.013-1.655 1.348-2.707Zm-3.988 0h2.805c-.615 1.783-1.629 3.047-2.805 3.362v-3.362Zm0-3.436h3.424a12.742 12.742 0 0 1-.298 2.292H91.16v-2.292Zm0-3.434h3.126c.163.713.262 1.484.298 2.29H91.16v-2.29Zm0-4.507c1.176.314 2.19 1.579 2.805 3.36H91.16v-3.36Zm3.988 3.36c-.335-1.05-.793-1.971-1.349-2.706a7.492 7.492 0 0 1 3.061 2.706h-1.712Zm-5.133 0H87.21c.615-1.781 1.628-3.046 2.805-3.36v3.36Zm0 3.437H86.59c.034-.806.135-1.577.297-2.29h3.127v2.29Zm0 3.436h-3.127a12.848 12.848 0 0 1-.297-2.292h3.424v2.292Zm0 4.506c-1.177-.315-2.19-1.579-2.805-3.362h2.805v3.362Zm-3.987-3.362c.335 1.052.794 1.973 1.348 2.707a7.48 7.48 0 0 1-3.063-2.707h1.715Zm-.581-3.436c.03.799.128 1.567.281 2.292h-2.013a7.444 7.444 0 0 1-.548-2.292h2.28Zm.281-3.434c-.153.724-.25 1.492-.281 2.29h-2.28a7.422 7.422 0 0 1 .548-2.29h2.013Zm.301-1.147h-1.716a7.488 7.488 0 0 1 3.063-2.706c-.553.735-1.012 1.656-1.347 2.706Zm13.125 3.437a8.585 8.585 0 0 0-7.994-7.997V73h-1.145v.018a8.586 8.586 0 0 0-7.995 7.997H82v1.144h.02a8.585 8.585 0 0 0 7.995 7.995v.02h1.145v-.02a8.584 8.584 0 0 0 7.994-7.995h.021v-1.144h-.02Z" fill="#009FD1"/><g transform="translate(145.534 20.998)"><path d="M58.517 0c.252 7.781.457 15.877.616 24.285l.036 1.955c.082 4.585-.49 8.41-2.27 16.712l-.738 3.413c-1.507 6.992-2.163 11.156-2.2 15.263v77.805l.012.427.014.267c.081 1.324.391 2.578 1.521 6.314l1.192 3.902c1.74 5.783 2.526 9.935 2.469 14.754v32.864l.179-.04c3.313-.759 4.764-2.126 4.764-4.066v-26.197c0-2.072-.165-3.737-.522-5.558l-.15-.704-1.063-4.399-.488-2.092a92.3 92.3 0 0 1-.474-2.18l-.191-.998-.144-.794c-1.63-9.239-2.512-22.255-2.512-42.898l.003-2.726.017-3.595.023-2.676c.154-15.164.724-25.33 1.716-34.23l.27-2.298.942-7.322.168-1.403c.504-4.345.75-8.108.794-13.055l.007-1.706-.005-1.784-.018-1.817c-.129-10.293-.803-22.101-2.023-35.422l3.22.001c1.355 14.876 2.033 27.883 2.033 39.022 0 5.946-.25 10.177-.822 15.124l-.215 1.767-.945 7.359-.221 1.906-.16 1.48-.102 1.002c-.937 9.409-1.426 20.563-1.473 37.637l-.003 2.736.008 3.435.02 2.631c.166 17.813 1.088 29.221 2.643 37.408l.153.78.202.945c.155.703.337 1.495.525 2.298l.127.536.117.495c.51 2.136.996 4.094 1.043 4.316.482 2.259.706 4.268.706 6.779v26.197c0 4.263-3.408 6.776-9.54 7.598l-1.815-1.589H36.05v-3.207h19.913v-31.579c.053-4.45-.68-8.322-2.338-13.826l-1.5-4.926-.317-1.076-.291-1.029c-.668-2.42-.756-3.339-.764-4.98v-77.24c0-4.39.636-8.639 2.135-15.665l.975-4.517.553-2.653.225-1.122c1.038-5.264 1.383-8.316 1.322-11.747l-.088-4.6-.1-4.654-.118-4.941c-.104-4.115-.22-8.15-.347-12.102h3.207ZM16.563 136.726v2.61l-.005.388c-.04 1.832-.27 3.04-1.375 6.739l-.356 1.18-.94 3.057c-1.735 5.617-2.528 9.47-2.535 13.868l.003.51v31.58l18.44-.001v3.207h-18.44l-1.816 1.589c-6.007-.805-9.399-3.233-9.535-7.34L0 193.856v-26.197c0-2.27.16-4.124.5-6.13l.128-.706 1.112-5.324c.215-1.06.42-2.096.572-2.927l.115-.652.184-1.128.184-1.225.18-1.295c.443-3.312.81-7.108 1.096-11.544h3.212c-.358 5.613-.842 10.238-1.445 14.175l-.062.399-.188 1.152-.18 1.006-.2 1.049a297.327 297.327 0 0 1-.702 3.457l-.728 3.454-.116.642a31.154 31.154 0 0 0-.452 4.983l-.004.614v26.197c0 1.877 1.358 3.218 4.45 3.991l.314.076.179.039v-32.864c-.055-4.623.66-8.577 2.264-13.986l.205-.684 1.413-4.616.295-.997c.754-2.583.965-3.666 1.017-4.943l.015-.654-.001-2.491h3.206ZM7.033.001C5.59 14.507 4.85 27.218 4.812 38.133v1.75c.017 5.062.195 8.857.576 13.116l.07.757.143 1.468.85 8.173.14 1.498c.834 9.218 1.3 19.803 1.403 35.908l.017 3.621.005 3.61-.007 3.513-.017 2.616c-.022 2.76-.06 5.37-.114 7.839H4.67c.054-2.486.093-5.117.115-7.904l.017-2.626.007-3.437-.003-2.753-.014-3.576C4.706 86.01 4.283 75.553 3.52 66.577l-.128-1.458-.222-2.327-.565-5.401-.34-3.34-.125-1.386-.116-1.44c-.273-3.575-.404-7.018-.419-11.368v-1.659C1.64 27.242 2.376 14.511 3.812.002L7.034 0Zm5.025 0c-.216 5.952-.397 12.09-.542 18.412l-.073 3.34-.088 4.544-.006.522c-.01 3.391.473 6.814 1.805 13.434l.323 1.586.773 3.718.445 2.178.233 1.17c1.12 5.692 1.585 9.107 1.633 12.508l.004.589L16.563 122h-3.206l.002-60-.005-.609c-.053-3.255-.532-6.641-1.687-12.447l-.343-1.7-1.196-5.782-.531-2.673-.211-1.107c-.907-4.842-1.253-7.812-1.243-10.849l.006-.594.036-1.946.082-4.01.091-3.963c.136-5.585.3-11.025.492-16.32h3.208ZM37.939 28.372h-8.55a4.775 4.775 0 0 0-4.774 4.775v8.55a4.775 4.775 0 0 0 4.774 4.774h8.55a4.775 4.775 0 0 0 4.775-4.775v-8.55a4.775 4.775 0 0 0-4.775-4.774Zm-8.55 1h8.55a3.775 3.775 0 0 1 3.775 3.775v8.55a3.775 3.775 0 0 1-3.775 3.774h-8.55a3.775 3.775 0 0 1-3.774-3.775v-8.55a3.775 3.775 0 0 1 3.774-3.774Z" fill-opacity=".7" fill="#999" fill-rule="nonzero"/><text font-family="PingFangSC-Semibold, PingFang SC" font-size="4.275" font-weight="500" fill="#999">
                <tspan x="23.597" y="25.322">CONNECT</tspan>
            </text><text font-family="PingFangSC-Semibold, PingFang SC" font-size="4.275" font-weight="500" fill="#999">
                <tspan x="29.146" y="149.292">WAN</tspan>
            </text><text font-family="PingFangSC-Semibold, PingFang SC" font-size="4.275" font-weight="500" fill="#999">
                <tspan x="29.917" y="59.521">LAN</tspan>
            </text><text font-family="PingFangSC-Semibold, PingFang SC" font-size="4.275" font-weight="500" fill="#999">
                <tspan x="26.777" y="178.147">POWER</tspan>
            </text><text font-family="PingFangSC-Semibold, PingFang SC" font-size="4.275" font-weight="500" fill="#999">
                <tspan x="26.724" y="5.017">RESET</tspan>
            </text><circle fill-opacity=".5" fill="#999" cx="34.198" cy="9.101" r="1.603"/><circle fill-opacity=".5" fill="#999" cx="31.527" cy="165.666" r="5.344"/><path d="M34.198 64.139v2.244h3.436v4.488h2.29v1.122h2.29v6.734l-2.29-.001v1.123l-2.29-.001v4.49l-3.435-.001v2.245h-5.726v-2.245h-2.29V66.383h2.29v-2.244h5.725Zm-.534 16.468h-5.343v1.166h5.343v-1.166Zm0-2.332h-5.343v1.166h5.343v-1.166Zm0-2.332h-5.343v1.166h5.343v-1.166Zm0-2.331h-5.343v1.165h5.343v-1.165Zm0-2.332h-5.343v1.166h5.343V71.28Zm0-2.332h-5.343v1.166h5.343v-1.166ZM34.198 90.856V93.1h3.436v4.488l2.29.001v1.121l2.29.001v6.733h-2.29v1.122h-2.29v4.489h-3.435v2.244h-5.726v-2.245h-2.29V93.102h2.29v-2.245h5.725Zm-.534 16.468h-5.343v1.166h5.343v-1.166Zm0-2.332h-5.343v1.166h5.343v-1.166Zm0-2.331h-5.343v1.166h5.343v-1.166Zm0-2.332h-5.343v1.166h5.343v-1.166Zm0-2.332h-5.343v1.166h5.343v-1.166Zm0-2.331h-5.343v1.165h5.343v-1.165Z" fill-opacity=".5" fill="#999"/><path d="M34.198 117.574v2.244h3.436v4.488h2.29v1.122l2.29.001v6.733l-2.29-.001v1.123l-2.29-.001v4.49l-3.435-.001v2.245h-5.726v-2.245h-2.29v-17.954h2.29v-2.244h5.725Zm-.534 16.468h-5.343v1.166h5.343v-1.166Zm0-2.332h-5.343v1.166h5.343v-1.166Zm0-2.332h-5.343v1.166h5.343v-1.166Zm0-2.331h-5.343v1.165h5.343v-1.165Zm0-2.332h-5.343v1.166h5.343v-1.166Zm0-2.332h-5.343v1.166h5.343v-1.166Z" fill-opacity=".5" fill="#FF5B5B"/><path stroke="#999" stroke-width="1.069" stroke-linecap="square" d="M24.046 117.574h-2.138v29.39h4.81M43.282 117.574h2.138v29.39h-4.275M24.046 114.368h-2.138V57.727h4.81M43.282 114.368h2.138V57.727h-4.275"/></g><path d="M143.161 157.725c0 .416-.312.76-.715.81l-.102.007h-4.506l-.21-.027-13.9-3.68a.818.818 0 0 1-.602-.681l-.007-.11v-.598h-10.2a.575.575 0 0 1-.574-.574v-1.242l-5.321.075c-8.179.115-14.92-6.337-15.202-14.474l-.01-.524V97.364a1 1 0 0 1 1.994-.117l.007.117.001 39.526c.101 7.179 6.003 12.916 13.182 12.815l5.35-.075v-1.193c0-.317.258-.574.574-.574h10.2l-.001-.978c0-.328.195-.62.49-.749l.101-.036 13.5-3.885.111-.024.114-.008h4.909c.417 0 .76.312.811.715l.006.102v14.725Zm-1.634-.818v-13.09h-3.973l-5.698 1.64a.65.65 0 0 1 .007.097v2.246a.642.642 0 1 1-1.284 0v-1.975l-.823.237v2.077a.643.643 0 0 1-1.286 0v-1.707l-.695.2v2.184a.642.642 0 1 1-1.286 0v-1.814l-1.734.499v5.913l1.734.459v-1.64a.642.642 0 1 1 1.286 0v1.98l.695.185v-1.731a.642.642 0 1 1 1.286 0v2.072l.823.218v-1.844a.642.642 0 1 1 1.284 0v2.184l6.083 1.61h3.581Zm22.29.818a.818.818 0 0 1-.817.818h-18.407a.818.818 0 0 1-.818-.818V143c0-.451.366-.818.818-.818H163c.451 0 .817.367.817.818Zm-1.634-12.203v-1.705h-16.772v13.09h16.772v-1.943h-4.52v-1.19l4.52-.001v-2.934h-4.52v-1.19l4.52-.001v-2.935h-4.52v-1.19l4.52-.001Zm-11.158 9.953a.654.654 0 0 1-.654.655h-3.521a.654.654 0 0 1-.655-.655V145.25c0-.361.293-.654.655-.654h3.521c.361 0 .654.293.654.654Zm-1.308-.654v-8.917h-2.213v8.917h2.213Z" fill="#999"/><path d="M105.5 179.597v34.689l-5.964.213v-.02c-1.103 1.691-3.05 2.871-5.302 3.083l-.001 45.668c0 7.077 5.655 12.834 12.693 12.997l.307.003h57c7.077 0 12.833-5.655 12.996-12.693l.004-.307v-6.895h-1.123c-.335 0-.606-.15-.606-.334v-6.72h-.099a1.279 1.279 0 0 1-1.272-1.147l-.006-.13-.001-9.17h-.264c-.921 0-1.677-.71-1.75-1.612l-.006-.144V222.53c0-.92.71-1.676 1.612-1.75l.144-.005h.649l.001-9.97c0-.947.729-1.724 1.658-1.799l.148-.006h4.28c.946 0 1.723.729 1.798 1.657l.006.148-.001 9.97h.596c.921 0 1.676.71 1.75 1.611l.005.144v14.548c0 .922-.709 1.677-1.61 1.75l-.145.006h-.217v9.17c0 .661-.502 1.206-1.147 1.271l-.13.007-.542-.001V256c0 .185-.27.334-.606.334h-1.122v6.895c0 8.18-6.547 14.83-14.686 14.997l-.314.003h-57c-8.18 0-14.83-6.546-14.997-14.686l-.003-.314v-45.737c-2.015-.333-3.737-1.447-4.754-2.992L81.5 214.5v-34.903h24Zm75.973 59.237h-6.068l.003.969h1.865a.561.561 0 1 1 0 1.125l-1.861-.001.005 1.436a.573.573 0 0 1 .05-.003h1.89a.562.562 0 0 1 0 1.125h-1.89l-.047-.003.005 1.438.02-.001h1.913a.562.562 0 0 1 0 1.125h-1.892l-.037-.004.006 1.963 6.067-.03-.006-1.93h-1.88a.562.562 0 1 1 0-1.125h1.876l-.004-1.433h-1.872a.562.562 0 1 1 0-1.125h1.868l-.004-1.433h-1.72a.561.561 0 1 1 0-1.123l1.716-.001-.003-.97Zm1.524-16.424h-9.135a.121.121 0 0 0-.115.082l-.006.038v14.548a.12.12 0 0 0 .083.114l.038.006h9.135a.12.12 0 0 0 .114-.082l.006-.038V222.53a.12.12 0 0 0-.12-.12Zm-2.4-11.775h-4.28a.17.17 0 0 0-.161.116l-.009.054-.001 9.97h4.62l.001-9.97a.17.17 0 0 0-.116-.161l-.054-.009ZM93.5 198.597c-2.71 0-4.877 1.86-4.995 4.137l-.005.196v8.334c0 2.365 2.214 4.333 5 4.333 2.71 0 4.877-1.86 4.995-4.137l.005-.196v-8.334c0-2.365-2.214-4.333-5-4.333Zm9.999 13.759v-30.76h-20V212.5h3.134a5.794 5.794 0 0 1-.128-.997l-.005-.24v-8.333c0-3.526 3.158-6.333 7-6.333 3.76 0 6.865 2.689 6.996 6.11l.004.223v8.334c0 .412-.043.815-.126 1.204l3.125-.112Zm-4.829-25.583v3.651h-1.388v-3.65h1.388Zm-8.327 0v3.651h-1.388v-3.65h1.388Z" fill="#999" fill-rule="nonzero"/><path d="M159.003 150.163c.18-10.06 8.393-18.163 18.496-18.163 10.217 0 18.501 8.283 18.501 18.499 0 10.218-8.283 18.501-18.501 18.501-10.104 0-18.317-8.103-18.496-18.165l-.003-.336.003-.336Zm1.997.336c0 9.113 7.388 16.501 16.499 16.501 9.113 0 16.501-7.388 16.501-16.501 0-9.111-7.388-16.499-16.501-16.499-9.111 0-16.499 7.388-16.499 16.499ZM159.003 190.163c.18-10.06 8.393-18.163 18.496-18.163 10.217 0 18.501 8.283 18.501 18.499 0 10.218-8.283 18.501-18.501 18.501-10.104 0-18.317-8.103-18.496-18.165l-.003-.336.003-.336Zm1.997.336c0 9.113 7.388 16.501 16.499 16.501 9.113 0 16.501-7.388 16.501-16.501 0-9.111-7.388-16.499-16.501-16.499-9.111 0-16.499 7.388-16.499 16.499Z" fill-opacity=".9" fill="#F84343" fill-rule="nonzero"/></g></svg>