<?xml version="1.0" encoding="UTF-8"?>
<svg width="300px" height="300px" viewBox="0 0 300 300" version="1.1" xmlns="http://www.w3.org/2000/svg" xmlns:xlink="http://www.w3.org/1999/xlink">
    <title>img/M6说明图/img_m6a_lantolan</title>
    <defs>
        <path d="M30.9998738,27.5451799 C31.2834501,27.547604 31.5169501,27.7564933 31.5588677,28.027944 L31.5655505,28.1205472 L31.3373377,55.0496586 C31.3346675,55.3647434 31.0770761,55.6180055 30.7619913,55.6153562 C30.478415,55.6129321 30.2449151,55.4040428 30.2029974,55.1325921 L30.1963146,55.0399889 L30.4245274,28.1108775 C30.4271976,27.7957927 30.684789,27.5425306 30.9998738,27.5451799 Z" id="path-1"></path>
        <filter x="-438.2%" y="-21.4%" width="976.4%" height="142.8%" filterUnits="objectBoundingBox" id="filter-2">
            <feOffset dx="0" dy="0" in="SourceAlpha" result="shadowOffsetOuter1"></feOffset>
            <feGaussianBlur stdDeviation="2" in="shadowOffsetOuter1" result="shadowBlurOuter1"></feGaussianBlur>
            <feColorMatrix values="0 0 0 0 1   0 0 0 0 1   0 0 0 0 1  0 0 0 0.975914695 0" type="matrix" in="shadowBlurOuter1"></feColorMatrix>
        </filter>
        <filter x="-112.5%" y="-51.4%" width="325.0%" height="202.9%" filterUnits="objectBoundingBox" id="filter-3">
            <feGaussianBlur stdDeviation="6" in="SourceGraphic"></feGaussianBlur>
        </filter>
    </defs>
    <g id="img/M6说明图/img_m6a_lantolan" stroke="none" stroke-width="1" fill="none" fill-rule="evenodd">
        <g id="编组-2备份-3" transform="translate(213.000000, 18.596434)">
            <path d="M44.1044871,0 L46.8471627,0.113611542 L47.2747711,2.73692238 C54.1885246,45.3893955 57.6469294,78.4900876 57.6469294,102.059816 C57.6469294,107.275119 57.4285827,110.986641 56.9260331,115.326862 L56.7375566,116.877188 L55.9083014,123.332367 L55.7143562,125.004518 L55.5743459,126.302742 L55.4847681,127.181408 C54.6627489,135.435395 54.2338143,145.220017 54.1931011,160.197719 L54.1898982,162.597975 L54.1973501,165.611722 L54.2138772,167.919775 C54.3598915,183.545662 55.1688221,193.553229 56.5330699,200.734752 L56.667494,201.418341 L56.8448712,202.248393 C57.4019254,204.780885 58.3704841,208.656209 58.4341985,208.954872 C58.8567974,210.935816 59.0531794,212.698479 59.0531794,214.901157 L59.0531794,237.882268 C59.0531794,241.62211 56.0642284,243.826179 50.6853611,244.547344 L49.0922419,243.153566 L9.9609375,243.153566 L8.36781836,244.547344 C3.09872387,243.840897 0.122993386,241.711454 0.00372954103,238.109319 L0,237.882268 L0,214.901157 C0,212.910802 0.139783496,211.283525 0.439009345,209.524522 L0.551136881,208.904151 L1.52653792,204.233787 C1.7153293,203.305139 1.89508709,202.395238 2.02807747,201.666642 L2.12899788,201.094697 L2.29007711,200.105167 L2.45221945,199.030361 L2.61024273,197.894689 C3.5374813,190.947834 4.08735414,181.575718 4.19797707,167.916869 L4.21227929,165.613475 L4.21875,162.597975 L4.21611286,160.183406 L4.20410341,157.04633 C4.12820671,143.276095 3.75718759,134.103556 3.0873793,126.229827 L2.97496252,124.950866 L2.78007765,122.909078 L2.28438652,118.171278 L1.98610925,115.2413 L1.8767885,114.0257 L1.7742926,112.762924 C1.53483146,109.626771 1.42019133,106.606065 1.40745045,102.790262 L1.40742443,101.335083 C1.48109269,78.5117043 5.0204672,46.9043261 12.0223519,6.49285253 L12.6819472,2.7180696 L13.1467993,0.0944177231 L15.8955129,0 L19.49625,14.4028125 L21.5625,14.4028125 L21.5625,0.341065723 L25.3125,0.341065723 L25.3125,14.4028125 L28.125,14.4028125 L28.125,0.341065723 L31.875,0.341065723 L31.875,14.4028125 L34.6875,14.4028125 L34.6875,0.341065723 L38.4375,0.341065723 L38.4375,14.4028125 L40.5028125,14.4028125 L44.1044871,0 Z M8.6646207,48.1908098 L8.83166452,45.3140897 L8.7144974,46.1844945 C5.76961484,68.2442011 4.27178258,86.6103906 4.22013346,101.27761 L4.22004217,102.812853 C4.23554059,107.253598 4.39117663,110.582494 4.72579716,114.318967 L4.78671372,114.982885 L4.91249401,116.270646 L5.65849229,123.44048 L5.78115246,124.754076 C6.51285654,132.840745 6.92139617,142.126143 7.01191282,156.253945 L7.02666458,159.430421 L7.03125,162.597975 L7.02450575,165.679369 L7.01007857,167.973656 C6.88725827,183.011461 6.2328916,192.941025 5.12108484,200.202286 L5.06684718,200.5521 L4.90225212,201.562903 L4.74422016,202.445812 L4.56818994,203.365468 C4.37934161,204.331728 4.15756567,205.414002 3.95260266,206.398131 L3.3144122,209.427914 L3.21251021,209.991277 C2.9660313,211.438819 2.83920616,212.775547 2.81630592,214.362434 L2.8125,214.901157 L2.8125,237.882268 C2.8125,239.528717 4.003812,240.705438 6.71534729,241.383401 L6.99158041,241.449533 L7.1484375,241.483878 L7.14853809,212.654859 C7.10002915,208.59947 7.72790532,205.130669 9.13462171,200.385393 L9.31452513,199.785451 L10.5538946,195.7367 L10.8131301,194.861529 C11.474431,192.595565 11.6592494,191.645726 11.7050785,190.525938 L11.7179199,189.95216 L11.71875,122.216066 L11.7144657,121.68158 C11.6684826,118.826367 11.2478291,115.855378 10.2347265,110.762092 L9.93399077,109.271992 L8.88445319,104.199148 L8.41866911,101.854547 L8.23360168,100.883012 C7.43766048,96.6358144 7.13486367,94.0302311 7.14314228,91.36602 L7.14866322,90.8445221 L7.18027426,89.1379535 L7.25206913,85.6195394 L7.33202766,82.1433299 C7.61216288,70.6263042 8.02836899,59.8126606 8.58074329,49.702118 L8.6646207,48.1908098 Z M50.2781794,42.8013782 L50.4708098,46.5654336 L50.6111039,49.4721452 C51.1835164,61.6655092 51.6041053,74.8847072 51.8729795,89.1301437 L51.9045162,90.8445221 C51.9766033,94.8674323 51.4742778,98.2221055 49.9139609,105.505193 L49.2658447,108.499368 C47.9439237,114.632719 47.3686113,118.285658 47.3359129,121.888596 L47.3370927,190.141853 L47.3469472,190.516436 L47.3587399,190.750265 C47.4303106,191.911991 47.7025114,193.012148 48.6937006,196.288978 L49.7387177,199.712291 C51.2661669,204.785429 51.9552064,208.42758 51.9046413,212.654859 L51.9047419,241.483878 L52.061599,241.449533 C54.9686229,240.783364 56.2406794,239.583599 56.2406794,237.882268 L56.2406794,214.901157 C56.2406794,213.083309 56.0964224,211.623245 55.7827893,210.025586 L55.652194,209.407905 L54.7186948,205.549528 L54.2911284,203.714206 C54.1288893,203.001721 53.9831434,202.337426 53.875305,201.801297 L53.707451,200.926482 L53.5814367,200.229969 C52.1512626,192.124984 51.3773982,180.706861 51.3773982,162.597975 L51.3805712,160.206917 L51.3953236,157.052816 L51.4151075,154.706055 C51.5504461,141.403589 52.0504418,132.485802 52.9209007,124.677405 L53.1568621,122.662022 L53.9836742,116.238642 L54.1315894,115.008661 C54.5731642,111.196466 54.7890029,107.895884 54.8279364,103.556048 L54.8344294,102.059816 L54.8293784,100.494218 L54.8142252,98.900547 C54.6357537,84.699125 53.2748854,67.2120085 50.7310055,46.443384 L50.2781794,42.8013782 Z M45.7221354,17.2146085 L13.8945336,17.2146085 L13.6821363,19.3138431 C11.8653242,37.625195 10.6715941,59.1811871 10.1019079,83.9790395 L10.0378096,86.9092516 L9.96071178,90.8949116 L9.95567821,91.3527261 C9.94615939,94.3275407 10.3705574,97.3306988 11.5394317,103.137789 L11.8225288,104.528925 L12.5006394,107.790586 L12.8909274,109.70134 L13.0950702,110.727279 C14.077251,115.720828 14.486019,118.716282 14.5276677,121.699746 L14.53125,122.216066 L14.5299733,190.056059 L14.5250795,190.397079 C14.4907766,192.003387 14.2883024,193.064082 13.319256,196.308078 L13.0070055,197.342738 L12.1823248,200.025667 C10.6599021,204.952277 9.96486355,208.332746 9.95861019,212.190661 L9.9609375,212.638039 L9.9609375,240.340313 L49.0921875,240.340313 L49.0922419,212.638039 C49.1388294,208.73519 48.4956929,205.337375 47.0414849,200.509378 L45.726219,196.18849 L45.4479304,195.244168 L45.1920135,194.342056 C44.6067161,192.21939 44.5292132,191.412924 44.5224733,189.973393 L44.5219294,122.216066 C44.5219294,118.364202 45.0801223,114.637501 46.3948664,108.473908 L47.2503365,104.511069 L47.7358089,102.183981 L47.9329207,101.200088 C48.8433433,96.5820623 49.1464042,93.9049063 49.0924676,90.8949116 L49.0155938,86.8597265 L48.9282605,82.7771894 L48.8245462,78.4425917 C48.2327834,55.0271212 47.1984646,34.6171178 45.7221354,17.2146085 Z M14.9549807,7.83462998 C14.6909348,9.97230467 14.4368535,12.1618966 14.1927389,14.4034002 L16.5965625,14.4028125 L14.9549807,7.83462998 Z M44.9087151,8.37726939 L43.4025,14.4028125 L45.4774256,14.4029142 C45.3400347,12.8639272 45.1990537,11.3493714 45.0544827,9.85924826 L44.9087151,8.37726939 Z" id="形状" fill-opacity="0.7" fill="#999999" fill-rule="nonzero"></path>
            <text id="WAN" font-family="PingFangSC-Semibold, PingFang SC" font-size="3.75" font-weight="500" fill="#999999">
                <tspan x="26.03625" y="198.403566">WAN</tspan>
            </text>
            <text id="LAN" font-family="PingFangSC-Semibold, PingFang SC" font-size="3.75" font-weight="500" fill="#999999">
                <tspan x="26.713125" y="119.653566">LAN</tspan>
            </text>
            <text id="POWER备份" font-family="PingFangSC-Semibold, PingFang SC" font-size="3.75" font-weight="500" fill="#999999">
                <tspan x="23.95875" y="223.716066">POWER</tspan>
            </text>
            <text id="RESET备份" font-family="PingFangSC-Semibold, PingFang SC" font-size="3.75" font-weight="500" fill="#999999">
                <tspan x="23.943125" y="66">RESET</tspan>
            </text>
            <circle id="椭圆形备份-2" fill-opacity="0.5" fill="#999999" cx="30.875" cy="69.40625" r="1.40625"></circle>
            <path d="M32,89.5 L26,89.5 C23.5147186,89.5 21.5,91.5147186 21.5,94 L21.5,100 C21.5,102.485281 23.5147186,104.5 26,104.5 L32,104.5 C34.4852814,104.5 36.5,102.485281 36.5,100 L36.5,94 C36.5,91.5147186 34.4852814,89.5 32,89.5 Z M26,90.5 L32,90.5 C33.9329966,90.5 35.5,92.0670034 35.5,94 L35.5,100 C35.5,101.932997 33.9329966,103.5 32,103.5 L26,103.5 C24.0670034,103.5 22.5,101.932997 22.5,100 L22.5,94 C22.5,92.0670034 24.0670034,90.5 26,90.5 Z" id="矩形备份-9" fill-opacity="0.7" fill="#999999" fill-rule="nonzero"></path>
            <text id="CONNECT备份" font-family="PingFangSC-Semibold, PingFang SC" font-size="4" font-weight="500" fill="#999999">
                <tspan x="19.58" y="86">CONNECT</tspan>
            </text>
            <circle id="椭圆形备份-3" fill-opacity="0.5" fill="#999999" cx="28.125" cy="213.153566" r="4.6875"></circle>
            <path d="M30.46875,124.091066 L30.469,126.059066 L33.4821429,126.059816 L33.483,129.997066 L35.4910714,129.997316 L35.492,130.981066 L37.5,130.981691 L37.5,136.887941 L35.492,136.887066 L35.4910714,137.872316 L33.483,137.872066 L33.4821429,141.809816 L30.469,141.809066 L30.46875,143.778566 L25.4464286,143.778566 L25.447,141.809066 L23.4375,141.809816 L23.4375,126.059816 L25.447,126.059066 L25.4464286,124.091066 L30.46875,124.091066 Z M30,138.537088 L25.3125,138.537088 L25.3125,139.559816 L30,139.559816 L30,138.537088 Z M30,136.491634 L25.3125,136.491634 L25.3125,137.514361 L30,137.514361 L30,136.491634 Z M30,134.446179 L25.3125,134.446179 L25.3125,135.468907 L30,135.468907 L30,134.446179 Z M30,132.400725 L25.3125,132.400725 L25.3125,133.423452 L30,133.423452 L30,132.400725 Z M30,130.35527 L25.3125,130.35527 L25.3125,131.377998 L30,131.377998 L30,130.35527 Z M30,128.309816 L25.3125,128.309816 L25.3125,129.332543 L30,129.332543 L30,128.309816 Z" id="形状结合" fill-opacity="0.5" fill="#999999"></path>
            <path d="M35.4910714,147.528566 L35.4905,149.496566 L37.5,149.497316 L37.5,165.247316 L35.4905,165.246566 L35.4910714,167.216066 L30.46875,167.216066 L30.4685,165.246566 L27.4553571,165.247316 L27.4545,161.309566 L25.4464286,161.309816 L25.4455,160.324566 L23.4375,160.325441 L23.4375,154.419191 L25.4455,154.418566 L25.4464286,153.434816 L27.4545,153.434566 L27.4553571,149.497316 L30.4685,149.496566 L30.46875,147.528566 L35.4910714,147.528566 Z" id="形状结合备份-6" fill="#A2A2A2" transform="translate(30.468750, 157.372316) scale(-1, 1) translate(-30.468750, -157.372316) "></path>
            <path d="M30.46875,170.966066 L30.469,172.934066 L33.4821429,172.934816 L33.483,176.872066 L35.4910714,176.872316 L35.492,177.856066 L37.5,177.856691 L37.5,183.762941 L35.492,183.762066 L35.4910714,184.747316 L33.483,184.747066 L33.4821429,188.684816 L30.469,188.684066 L30.46875,190.653566 L25.4464286,190.653566 L25.447,188.684066 L23.4375,188.684816 L23.4375,172.934816 L25.447,172.934066 L25.4464286,170.966066 L30.46875,170.966066 Z M30,185.412088 L25.3125,185.412088 L25.3125,186.434816 L30,186.434816 L30,185.412088 Z M30,183.366634 L25.3125,183.366634 L25.3125,184.389361 L30,184.389361 L30,183.366634 Z M30,181.321179 L25.3125,181.321179 L25.3125,182.343907 L30,182.343907 L30,181.321179 Z M30,179.275725 L25.3125,179.275725 L25.3125,180.298452 L30,180.298452 L30,179.275725 Z M30,177.23027 L25.3125,177.23027 L25.3125,178.252998 L30,178.252998 L30,177.23027 Z M30,175.184816 L25.3125,175.184816 L25.3125,176.207543 L30,176.207543 L30,175.184816 Z" id="形状结合" fill-opacity="0.5" fill="#C97676"></path>
            <polyline id="直线-15" stroke="#999999" stroke-width="0.9375" stroke-linecap="square" points="21.5625 170.966066 19.6875 170.966066 19.6875 196.747316 23.90625 196.747316"></polyline>
            <polyline id="直线-15备份" stroke="#999999" stroke-width="0.9375" stroke-linecap="square" points="38.4375 170.966066 40.3125 170.966066 40.3125 196.747316 36.5625 196.747316"></polyline>
            <polyline id="直线-15" stroke="#999999" stroke-width="0.9375" stroke-linecap="square" transform="translate(21.796875, 143.309816) scale(1, -1) translate(-21.796875, -143.309816) " points="21.5625 118.466066 19.6875 118.466066 19.6875 168.153566 23.90625 168.153566"></polyline>
            <polyline id="直线-15备份" stroke="#999999" stroke-width="0.9375" stroke-linecap="square" transform="translate(38.437500, 143.309816) scale(1, -1) translate(-38.437500, -143.309816) " points="38.4375 118.466066 40.3125 118.466066 40.3125 168.153566 36.5625 168.153566"></polyline>
        </g>
        <g id="编组-2备份-4" transform="translate(27.468750, 18.596434)">
            <path d="M44.1044871,5.68434189e-14 L46.8471627,0.113611542 L47.2747711,2.73692238 C54.1885246,45.3893955 57.6469294,78.4900876 57.6469294,102.059816 C57.6469294,107.275119 57.4285827,110.986641 56.9260331,115.326862 L56.7375566,116.877188 L55.9083014,123.332367 L55.7143562,125.004518 L55.5743459,126.302742 L55.4847681,127.181408 C54.6627489,135.435395 54.2338143,145.220017 54.1931011,160.197719 L54.1898982,162.597975 L54.1973501,165.611722 L54.2138772,167.919775 C54.3598915,183.545662 55.1688221,193.553229 56.5330699,200.734752 L56.667494,201.418341 L56.8448712,202.248393 C57.4019254,204.780885 58.3704841,208.656209 58.4341985,208.954872 C58.8567974,210.935816 59.0531794,212.698479 59.0531794,214.901157 L59.0532795,216.403579 C59.0459374,216.40357 59.0385942,216.403566 59.03125,216.403566 C58.0813651,216.403566 57.1491562,216.479245 56.2403239,216.624904 L56.2406794,214.901157 C56.2406794,213.083309 56.0964224,211.623245 55.7827893,210.025586 L55.652194,209.407905 L54.7186948,205.549528 L54.2911284,203.714206 C54.1288893,203.001721 53.9831434,202.337426 53.875305,201.801297 L53.707451,200.926482 L53.5814367,200.229969 C52.1512626,192.124984 51.3773982,180.706861 51.3773982,162.597975 L51.3805712,160.206917 L51.3953236,157.052816 L51.4151075,154.706055 C51.5504461,141.403589 52.0504418,132.485802 52.9209007,124.677405 L53.1568621,122.662022 L53.9836742,116.238642 L54.1315894,115.008661 C54.5731642,111.196466 54.7890029,107.895884 54.8279364,103.556048 L54.8344294,102.059816 L54.8293784,100.494218 L54.8142252,98.900547 C54.6357537,84.699125 53.2748854,67.2120085 50.7310055,46.443384 L50.2781794,42.8013782 L50.4708098,46.5654336 L50.6111039,49.4721452 C51.1835164,61.6655092 51.6041053,74.8847072 51.8729795,89.1301437 L51.9045162,90.8445221 C51.9766033,94.8674323 51.4742778,98.2221055 49.9139609,105.505193 L49.2658447,108.499368 C47.9439237,114.632719 47.3686113,118.285658 47.3359129,121.888596 L47.3370927,190.141853 L47.3469472,190.516436 L47.3587399,190.750265 C47.4303106,191.911991 47.7025114,193.012148 48.6937006,196.288978 L49.7387177,199.712291 C51.2661669,204.785429 51.9552064,208.42758 51.9046413,212.654859 L51.9041767,217.915844 C50.9149538,218.357492 49.9742463,218.888254 49.0922585,219.497926 L49.0922419,212.638039 C49.1388294,208.73519 48.4956929,205.337375 47.0414849,200.509378 L45.726219,196.18849 L45.4479304,195.244168 L45.1920135,194.342056 C44.6067161,192.21939 44.5292132,191.412924 44.5224733,189.973393 L44.5219294,122.216066 C44.5219294,118.364202 45.0801223,114.637501 46.3948664,108.473908 L47.2503365,104.511069 L47.7358089,102.183981 L47.9329207,101.200088 C48.8433433,96.5820623 49.1464042,93.9049063 49.0924676,90.8949116 L49.0155938,86.8597265 L48.9282605,82.7771894 L48.8245462,78.4425917 C48.2327834,55.0271212 47.1984646,34.6171178 45.7221354,17.2146085 L13.8945336,17.2146085 L13.6821363,19.3138431 C11.8653242,37.625195 10.6715941,59.1811871 10.1019079,83.9790395 L10.0378096,86.9092516 L9.96071178,90.8949116 L9.95567821,91.3527261 C9.94615939,94.3275407 10.3705574,97.3306988 11.5394317,103.137789 L11.8225288,104.528925 L12.5006394,107.790586 L12.8909274,109.70134 L13.0950702,110.727279 C14.077251,115.720828 14.486019,118.716282 14.5276677,121.699746 L14.53125,122.216066 L14.5299733,190.056059 L14.5250795,190.397079 C14.4907766,192.003387 14.2883024,193.064082 13.319256,196.308078 L13.0070055,197.342738 L12.1823248,200.025667 C10.6599021,204.952277 9.96486355,208.332746 9.95861019,212.190661 L9.9609375,212.638039 L9.9609375,240.340313 L42.753155,240.340744 C43.1428708,241.325424 43.6193482,242.266306 44.1731591,243.153964 L9.9609375,243.153566 L8.36781836,244.547344 C3.09872387,243.840897 0.122993386,241.711454 0.00372954103,238.109319 L1.84741111e-13,237.882268 L1.84741111e-13,214.901157 C1.84741111e-13,212.910802 0.139783496,211.283525 0.439009345,209.524522 L0.551136881,208.904151 L1.52653792,204.233787 C1.7153293,203.305139 1.89508709,202.395238 2.02807747,201.666642 L2.12899788,201.094697 L2.29007711,200.105167 L2.45221945,199.030361 L2.61024273,197.894689 C3.5374813,190.947834 4.08735414,181.575718 4.19797707,167.916869 L4.21227929,165.613475 L4.21875,162.597975 L4.21611286,160.183406 L4.20410341,157.04633 C4.12820671,143.276095 3.75718759,134.103556 3.0873793,126.229827 L2.97496252,124.950866 L2.78007765,122.909078 L2.28438652,118.171278 L1.98610925,115.2413 L1.8767885,114.0257 L1.7742926,112.762924 C1.53483146,109.626771 1.42019133,106.606065 1.40745045,102.790262 L1.40742443,101.335083 C1.48109269,78.5117043 5.0204672,46.9043261 12.0223519,6.49285253 L12.6819472,2.7180696 L13.1467993,0.0944177231 L15.8955129,5.68434189e-14 L19.49625,14.4028125 L21.5625,14.4028125 L21.5625,0.341065723 L25.3125,0.341065723 L25.3125,14.4028125 L28.125,14.4028125 L28.125,0.341065723 L31.875,0.341065723 L31.875,14.4028125 L34.6875,14.4028125 L34.6875,0.341065723 L38.4375,0.341065723 L38.4375,14.4028125 L40.5028125,14.4028125 L44.1044871,5.68434189e-14 Z M8.83166452,45.3140897 L8.7144974,46.1844945 C5.76961484,68.2442011 4.27178258,86.6103906 4.22013346,101.27761 L4.22004217,102.812853 C4.23554059,107.253598 4.39117663,110.582494 4.72579716,114.318967 L4.78671372,114.982885 L4.91249401,116.270646 L5.65849229,123.44048 L5.78115246,124.754076 C6.51285654,132.840745 6.92139617,142.126143 7.01191282,156.253945 L7.02666458,159.430421 L7.03125,162.597975 L7.02450575,165.679369 L7.01007857,167.973656 C6.88725827,183.011461 6.2328916,192.941025 5.12108484,200.202286 L5.06684718,200.5521 L4.90225212,201.562903 L4.74422016,202.445812 L4.56818994,203.365468 C4.37934161,204.331728 4.15756567,205.414002 3.95260266,206.398131 L3.3144122,209.427914 L3.21251021,209.991277 C2.9660313,211.438819 2.83920616,212.775547 2.81630592,214.362434 L2.8125,214.901157 L2.8125,237.882268 C2.8125,239.528717 4.003812,240.705438 6.71534729,241.383401 L6.99158041,241.449533 L7.1484375,241.483878 L7.14853809,212.654859 C7.10002915,208.59947 7.72790532,205.130669 9.13462171,200.385393 L9.31452513,199.785451 L10.5538946,195.7367 L10.8131301,194.861529 C11.474431,192.595565 11.6592494,191.645726 11.7050785,190.525938 L11.7179199,189.95216 L11.71875,122.216066 L11.7144657,121.68158 C11.6684826,118.826367 11.2478291,115.855378 10.2347265,110.762092 L9.93399077,109.271992 L8.88445319,104.199148 L8.41866911,101.854547 L8.23360168,100.883012 C7.43766048,96.6358144 7.13486367,94.0302311 7.14314228,91.36602 L7.14866322,90.8445221 L7.18027426,89.1379535 L7.25206913,85.6195394 L7.33202766,82.1433299 C7.61216288,70.6263042 8.02836899,59.8126606 8.58074329,49.702118 L8.6646207,48.1908098 L8.83166452,45.3140897 Z M14.9549807,7.83462998 C14.6909348,9.97230467 14.4368535,12.1618966 14.1927389,14.4034002 L16.5965625,14.4028125 L14.9549807,7.83462998 Z M44.9087151,8.37726939 L43.4025,14.4028125 L45.4774256,14.4029142 C45.3400347,12.8639272 45.1990537,11.3493714 45.0544827,9.85924826 L44.9087151,8.37726939 Z" id="形状结合" fill-opacity="0.7" fill="#999999" fill-rule="nonzero"></path>
            <text id="WAN" font-family="PingFangSC-Semibold, PingFang SC" font-size="3.75" font-weight="500" fill="#999999">
                <tspan x="25.5675" y="198.403566">WAN</tspan>
            </text>
            <text id="LAN" font-family="PingFangSC-Semibold, PingFang SC" font-size="3.75" font-weight="500" fill="#999999">
                <tspan x="26.244375" y="119.653566">LAN</tspan>
            </text>
            <text id="POWER备份" font-family="PingFangSC-Semibold, PingFang SC" font-size="3.75" font-weight="500" fill="#999999">
                <tspan x="23.49" y="223.716066">POWER</tspan>
            </text>
            <text id="RESET备份" font-family="PingFangSC-Semibold, PingFang SC" font-size="3.75" font-weight="500" fill="#999999">
                <tspan x="23.474375" y="66">RESET</tspan>
            </text>
            <circle id="椭圆形备份-2" fill-opacity="0.5" fill="#999999" cx="30.40625" cy="69.40625" r="1.40625"></circle>
            <path d="M32.53125,89.9035657 L26.53125,89.9035657 C24.0459686,89.9035657 22.03125,91.9182843 22.03125,94.4035657 L22.03125,100.403566 C22.03125,102.888847 24.0459686,104.903566 26.53125,104.903566 L32.53125,104.903566 C35.0165314,104.903566 37.03125,102.888847 37.03125,100.403566 L37.03125,94.4035657 C37.03125,91.9182843 35.0165314,89.9035657 32.53125,89.9035657 Z M26.53125,90.9035657 L32.53125,90.9035657 C34.4642466,90.9035657 36.03125,92.4705691 36.03125,94.4035657 L36.03125,100.403566 C36.03125,102.336562 34.4642466,103.903566 32.53125,103.903566 L26.53125,103.903566 C24.5982534,103.903566 23.03125,102.336562 23.03125,100.403566 L23.03125,94.4035657 C23.03125,92.4705691 24.5982534,90.9035657 26.53125,90.9035657 Z" id="矩形备份-9" fill-opacity="0.7" fill="#999999" fill-rule="nonzero"></path>
            <text id="CONNECT备份" font-family="PingFangSC-Semibold, PingFang SC" font-size="4" font-weight="500" fill="#999999">
                <tspan x="20.11125" y="86.4035657">CONNECT</tspan>
            </text>
            <circle id="椭圆形备份-3" fill-opacity="0.5" fill="#999999" cx="27.65625" cy="213.153566" r="4.6875"></circle>
            <path d="M30,124.091066 L30.00025,126.059066 L33.0133929,126.059816 L33.01425,129.997066 L35.0223214,129.997316 L35.02325,130.981066 L37.03125,130.981691 L37.03125,136.887941 L35.02325,136.887066 L35.0223214,137.872316 L33.01425,137.872066 L33.0133929,141.809816 L30.00025,141.809066 L30,143.778566 L24.9776786,143.778566 L24.97825,141.809066 L22.96875,141.809816 L22.96875,126.059816 L24.97825,126.059066 L24.9776786,124.091066 L30,124.091066 Z M29.53125,138.537088 L24.84375,138.537088 L24.84375,139.559816 L29.53125,139.559816 L29.53125,138.537088 Z M29.53125,136.491634 L24.84375,136.491634 L24.84375,137.514361 L29.53125,137.514361 L29.53125,136.491634 Z M29.53125,134.446179 L24.84375,134.446179 L24.84375,135.468907 L29.53125,135.468907 L29.53125,134.446179 Z M29.53125,132.400725 L24.84375,132.400725 L24.84375,133.423452 L29.53125,133.423452 L29.53125,132.400725 Z M29.53125,130.35527 L24.84375,130.35527 L24.84375,131.377998 L29.53125,131.377998 L29.53125,130.35527 Z M29.53125,128.309816 L24.84375,128.309816 L24.84375,129.332543 L29.53125,129.332543 L29.53125,128.309816 Z" id="形状结合" fill-opacity="0.5" fill="#999999"></path>
            <path d="M35.0223214,147.528566 L35.02175,149.496566 L37.03125,149.497316 L37.03125,165.247316 L35.02175,165.246566 L35.0223214,167.216066 L30,167.216066 L29.99975,165.246566 L26.9866071,165.247316 L26.98575,161.309566 L24.9776786,161.309816 L24.97675,160.324566 L22.96875,160.325441 L22.96875,154.419191 L24.97675,154.418566 L24.9776786,153.434816 L26.98575,153.434566 L26.9866071,149.497316 L29.99975,149.496566 L30,147.528566 L35.0223214,147.528566 Z" id="形状结合备份-6" fill="#A2A2A2" transform="translate(30.000000, 157.372316) scale(-1, 1) translate(-30.000000, -157.372316) "></path>
            <path d="M30,170.966066 L30.00025,172.934066 L33.0133929,172.934816 L33.01425,176.872066 L35.0223214,176.872316 L35.02325,177.856066 L37.03125,177.856691 L37.03125,183.762941 L35.02325,183.762066 L35.0223214,184.747316 L33.01425,184.747066 L33.0133929,188.684816 L30.00025,188.684066 L30,190.653566 L24.9776786,190.653566 L24.97825,188.684066 L22.96875,188.684816 L22.96875,172.934816 L24.97825,172.934066 L24.9776786,170.966066 L30,170.966066 Z M29.53125,185.412088 L24.84375,185.412088 L24.84375,186.434816 L29.53125,186.434816 L29.53125,185.412088 Z M29.53125,183.366634 L24.84375,183.366634 L24.84375,184.389361 L29.53125,184.389361 L29.53125,183.366634 Z M29.53125,181.321179 L24.84375,181.321179 L24.84375,182.343907 L29.53125,182.343907 L29.53125,181.321179 Z M29.53125,179.275725 L24.84375,179.275725 L24.84375,180.298452 L29.53125,180.298452 L29.53125,179.275725 Z M29.53125,177.23027 L24.84375,177.23027 L24.84375,178.252998 L29.53125,178.252998 L29.53125,177.23027 Z M29.53125,175.184816 L24.84375,175.184816 L24.84375,176.207543 L29.53125,176.207543 L29.53125,175.184816 Z" id="形状结合" fill-opacity="0.5" fill="#C97676"></path>
            <polyline id="直线-15" stroke="#999999" stroke-width="0.9375" stroke-linecap="square" points="21.09375 170.966066 19.21875 170.966066 19.21875 196.747316 23.4375 196.747316"></polyline>
            <polyline id="直线-15备份" stroke="#999999" stroke-width="0.9375" stroke-linecap="square" points="37.96875 170.966066 39.84375 170.966066 39.84375 196.747316 36.09375 196.747316"></polyline>
            <polyline id="直线-15" stroke="#999999" stroke-width="0.9375" stroke-linecap="square" transform="translate(21.328125, 143.309816) scale(1, -1) translate(-21.328125, -143.309816) " points="21.09375 118.466066 19.21875 118.466066 19.21875 168.153566 23.4375 168.153566"></polyline>
            <polyline id="直线-15备份" stroke="#999999" stroke-width="0.9375" stroke-linecap="square" transform="translate(37.968750, 143.309816) scale(1, -1) translate(-37.968750, -143.309816) " points="37.96875 118.466066 39.84375 118.466066 39.84375 168.153566 36.09375 168.153566"></polyline>
        </g>
        <path d="M95.9798455,251.000269 C95.9274437,249.607498 95.7561303,248.265117 95.4880752,247.001344 L99.0030232,247.001344 C99.5250252,248.246977 99.8555593,249.593389 99.9623782,251.000269 L95.9798455,251.000269 Z M95.4880752,257.002687 C95.7561303,255.736899 95.9274437,254.394518 95.9798455,252.999731 L99.9603628,252.999731 C99.8555593,254.408627 99.5250252,255.753023 99.0030232,257.002687 L95.4880752,257.002687 Z M94.9660732,259.00215 L97.9570037,259.00215 C96.6530064,261.035877 94.8008062,262.680597 92.6100101,263.730718 C93.5774269,262.444773 94.3815922,260.83835 94.9660732,259.00215 Z M88.0006718,259.00215 L92.9002351,259.00215 C91.8259993,262.116232 90.0544172,264.3233 88.0006718,264.873555 L88.0006718,259.00215 Z M88.0006718,252.999731 L93.9805173,252.999731 C93.9220692,254.408627 93.7447094,255.753023 93.4605307,257.002687 L88.0006718,257.002687 L88.0006718,252.999731 Z M88.0006718,247.001344 L93.4605307,247.001344 C93.7447094,248.246977 93.9180383,249.593389 93.9805173,251.000269 L88.0006718,251.000269 L88.0006718,247.001344 Z M88.0006718,239.12846 C90.0544172,239.6767 91.8259993,241.885783 92.9002351,244.99785 L88.0006718,244.99785 L88.0006718,239.12846 Z M94.9660732,244.99785 C94.3815922,243.163666 93.5814578,241.553212 92.6100101,240.269282 C94.8008062,241.319403 96.6530064,242.966138 97.9570037,244.99785 L94.9660732,244.99785 Z M85.9993282,244.99785 L81.0997649,244.99785 C82.1740007,241.885783 83.9435673,239.6767 85.9993282,239.12846 L85.9993282,244.99785 Z M85.9993282,251.000269 L80.0194827,251.000269 C80.0779308,249.593389 80.2552906,248.246977 80.5374538,247.001344 L85.9993282,247.001344 L85.9993282,251.000269 Z M85.9993282,257.002687 L80.5374538,257.002687 C80.2552906,255.753023 80.0779308,254.408627 80.0194827,252.999731 L85.9993282,252.999731 L85.9993282,257.002687 Z M85.9993282,264.873555 C83.9435673,264.3233 82.1740007,262.116232 81.0997649,259.00215 L85.9993282,259.00215 L85.9993282,264.873555 Z M79.0359422,259.00215 C79.6204232,260.83835 80.4225731,262.448804 81.3899899,263.730718 C79.1971784,262.680597 77.3449782,261.035877 76.0409809,259.00215 L79.0359422,259.00215 Z M78.0201545,252.999731 C78.0745717,254.394518 78.2438697,255.736899 78.5119248,257.002687 L74.9949614,257.002687 C74.4769903,255.753023 74.1444407,254.408627 74.0376218,252.999731 L78.0201545,252.999731 Z M78.5119248,247.001344 C78.2438697,248.265117 78.0745717,249.607498 78.0201545,251.000269 L74.0376218,251.000269 C74.1444407,249.593389 74.4769903,248.246977 74.9949614,247.001344 L78.5119248,247.001344 Z M79.0379577,244.99785 L76.0409809,244.99785 C77.3449782,242.966138 79.1971784,241.319403 81.3899899,240.269282 C80.4245885,241.553212 79.6224387,243.163666 79.0379577,244.99785 Z M101.963722,251.000269 C101.471952,243.510347 95.4880752,237.524053 88.0006718,237.032249 L88.0006718,237 L86.9989923,237 L85.9993282,237 L85.9993282,237.032249 C78.5119248,237.524053 72.5260329,243.510347 72.0342627,251.000269 L72,251.000269 L72,252 L72,252.999731 L72.0342627,252.999731 C72.5260329,260.489653 78.5119248,266.473932 85.9993282,266.965735 L85.9993282,267 L86.9989923,267 L88.0006718,267 L88.0006718,266.965735 C95.4880752,266.473932 101.471952,260.489653 101.963722,252.999731 L102,252.999731 L102,252 L102,251.000269 L101.963722,251.000269 Z" id="Fill-90" fill-opacity="0.602561897" fill="#5EB7D3"></path>
        <g id="编组" transform="translate(106.999541, 44.999535)">
            <path d="M1.25003667,32.876829 C-4.42090116,56.0143037 9.73865803,79.3677356 32.8767273,85.0400291 L33.5856636,85.2074449 C37.3698879,86.0680646 41.2041539,86.4126196 45.0092694,86.249289 L45.641459,86.2164407 L45.6261565,86.6575101 C45.5491495,88.4680045 45.3416195,90.4545973 45.0400582,92.2044162 L44.3691896,96.0971524 L48.0297099,94.2696705 L48.3208874,94.113623 L48.661947,93.9202914 L49.0496235,93.6896165 L49.4806519,93.4215391 L49.9517671,93.1160003 C51.4320311,92.1364799 52.9102451,90.9657631 54.2948637,89.5986304 L54.685905,89.2045884 C56.3593595,87.4832876 57.7568969,85.5826333 58.7941499,83.4970883 L58.885459,83.3054407 L59.0525533,83.2408727 C71.9173323,78.1288758 81.6725644,67.1501971 85.0400365,53.4121539 C90.7110999,30.2753768 76.5509944,6.92104395 53.4132603,1.25004254 C30.2754919,-4.42096724 6.92106978,9.73896552 1.25003667,32.876829 Z M52.9371571,3.19254756 C75.0021571,8.60062449 88.5056186,30.8721629 83.0975417,52.9360091 C79.7213878,66.7094706 69.775234,77.1460091 57.4106186,81.729086 C56.193519,84.5500696 54.3243068,86.8253935 52.5045233,88.5477491 L52.0510132,88.9668136 C51.9004571,89.1026589 51.7506502,89.2346599 51.6019985,89.3628124 L51.1599152,89.7357201 L50.7271991,90.0855113 C50.6559957,90.141882 50.5852841,90.1972885 50.515115,90.2517303 L50.1010171,90.5667992 C50.0332212,90.6173797 49.9660694,90.6669944 49.8996123,90.7156428 L49.5096134,90.9959323 L49.1387254,91.2530039 L48.6235548,91.595022 L48.1650856,91.8846569 L47.7715391,92.121823 L47.1519216,92.470684 L47.0110032,92.544086 C47.4667725,89.8994706 47.7413878,86.5821629 47.6375417,84.0437014 C42.9840802,84.5560091 38.1633109,84.2756245 33.3529263,83.0975476 C11.2879263,77.6883168 -2.21553523,55.4179322 3.19254169,33.3529322 C8.60061861,11.2879322 30.8721571,-2.21552936 52.9371571,3.19254756 Z" id="Stroke-47" fill-opacity="0.5" fill="#999999" fill-rule="nonzero"></path>
            <path d="M36.4021874,2.55579195 L36.3821061,3.61948938 L36.3674221,4.26524001 L36.35182,4.91350249 L36.280231,7.53167173 L36.1939538,10.1900337 C36.1578709,11.2223522 36.0291369,12.3264201 35.8134673,13.5551177 L35.7157315,14.089487 L35.6003041,14.6762144 L35.4734593,15.2806085 L35.3311341,15.9229998 L35.1692659,16.6237189 L34.4868733,19.4888884 L34.2323856,20.6021655 L34.0806985,21.3140941 L33.9935482,21.7644755 L33.9265955,22.1579958 L33.8774863,22.5079445 L33.8438668,22.8276112 L33.8288967,23.0304616 L33.8136812,23.4292563 L33.812038,67.3284649 L33.82929,67.3441912 L33.8513171,67.349117 L34.175241,67.3298941 L34.4966686,67.3106341 L36.978198,67.1552256 L39.2998397,66.9974706 L40.9360769,66.8776277 L42.4822662,66.7564864 L44.4036951,66.5929613 L45.7395875,66.4688269 L46.9852732,66.3434251 L48.1407047,66.2167652 L49.2058343,66.0888565 L50.1806145,65.9597082 L50.7802502,65.8729253 L51.7571199,65.7198325 C52.2162118,65.6462269 52.6706124,65.5714204 53.1200491,65.495495 L53.7904474,65.3807781 L55.1080893,65.1465565 L56.3934959,64.9063625 L57.6450325,64.6606896 L58.8610642,64.4100313 C59.6096481,64.2519148 60.3364704,64.0911664 61.0397349,63.9283284 L61.7350803,63.7648138 L62.81397,63.5005937 L63.8499978,63.2336091 C64.6612394,63.0190474 65.429764,62.8023057 66.1518051,62.5845212 L66.6845613,62.4210051 L67.4182105,62.1856365 C67.655007,62.1075595 67.88396,62.0299044 68.1047989,61.9527996 L68.4299379,61.8375712 L69.042891,61.6099758 C69.7284989,61.346898 70.3097378,61.0929199 70.775007,60.8535447 C71.1374636,60.6670653 71.4176342,60.4951671 71.6070787,60.3480589 L71.6942013,60.2766179 L71.7215389,60.253345 C71.7369057,60.2409652 71.7468717,60.2351284 71.7533308,60.2374681 L71.7606262,60.2473142 L71.764038,60.2704649 L71.7508304,58.2993051 L71.7428785,55.1689262 L71.7508757,53.3465618 L71.7667281,51.9449468 L71.7661417,51.8379579 L71.7645577,51.728296 L71.7493295,51.2617737 L71.7432667,51.1378886 L71.7363058,51.0109874 L71.6995249,50.4720776 L71.6485463,49.8803355 L71.5835067,49.2321022 L71.504543,48.5237184 L71.1247468,45.4083148 L71.0239536,44.4960329 L70.9839755,43.9912523 L70.9735106,43.7191329 L70.9601696,40.4960777 L70.9370567,38.2454287 L70.8920972,35.3423179 L70.7816926,29.8004372 L70.6717433,23.9598702 L70.6368332,21.1232821 L70.6298622,18.7565687 L70.6407132,17.3362141 L70.6639465,15.969312 L70.6927562,14.8262191 L70.728154,13.7769045 L70.7669081,13.027365 L70.791456,12.6752811 C71.365874,13.1973991 71.9245181,13.7349395 72.4668822,14.2870673 L72.4380086,15.180348 L72.4195725,15.9332464 L72.4049214,16.6829093 L72.3869889,18.2148796 L72.3837151,19.0183628 L72.3840175,19.77464 L72.4008316,22.0886529 L72.4478423,25.2520874 L72.6675935,36.5820169 L72.7111931,40.0688368 L72.7225643,41.9178576 L72.7259671,43.5652789 L72.7298939,43.7403826 L72.7485525,44.0678002 L72.8128871,44.7284154 L73.2472224,48.321385 L73.3297803,49.0624383 L73.3978361,49.7428245 L73.4511947,50.3672514 L73.4622151,50.5151662 L73.4723017,50.6599513 L73.503249,51.2092661 L73.5086208,51.3395062 L73.5130406,51.467058 L73.5211377,51.9518531 L73.5148572,52.4788884 L73.4998796,54.2091329 L73.4999128,57.1285804 L73.5195135,60.3554701 C73.5195135,60.8528139 73.095148,61.3757247 72.2993774,61.9104153 L72.1091692,62.0340082 L71.8051332,62.216828 L71.642639,62.3085102 L71.4732377,62.4003538 L71.1139455,62.584465 L70.9241703,62.6767025 L70.524651,62.861466 L70.0988923,63.0465137 L69.647357,63.2317251 L69.5304998,63.2780394 L69.4120678,63.3243545 L68.9227356,63.5095855 L68.4087842,63.6946789 L67.8706763,63.8795142 L67.3088749,64.0639709 L66.7238429,64.2479285 L66.1160432,64.4312665 L65.4859387,64.6138644 L64.8339923,64.7956016 L63.8161316,65.0663303 L63.1116056,65.2453888 L62.0170453,65.5115343 L61.2628328,65.6871609 L60.0959126,65.9475937 L59.2949067,66.1190351 L58.0599662,66.3726253 L56.7862967,66.6215677 L55.916439,66.7847464 L54.5816927,67.0250386 L53.2123833,67.2595985 L52.2810802,67.4125862 L51.335573,67.5627249 L50.7449937,67.6514761 L50.1146162,67.7395685 L49.0944,67.8704779 L47.9845651,67.9999202 L46.7850681,68.1279046 L45.9355697,68.212422 L44.1169137,68.3795354 L42.6481693,68.5031999 L40.5500907,68.6658756 L38.8716608,68.7862364 L36.4938437,68.94454 L33.9560342,69.1003745 C33.1082259,69.1516938 32.3541524,68.6025614 32.1202101,67.8077702 L31.2779844,67.7138097 C31.1814948,67.8246047 31.0393915,67.8946312 30.8809326,67.8946312 C30.6808465,67.8946312 30.506838,67.7829801 30.4178113,67.6185822 L29.3371307,67.4984046 C29.286572,67.6972949 29.1228285,67.8507613 28.9188323,67.8866537 L28.8241821,67.8946236 C28.565807,67.8932317 28.3519199,67.7058924 28.308679,67.4601304 L28.3007091,67.3654802 L28.3001748,67.0835589 C27.7836615,67.302222 27.4308076,67.5376449 27.2357983,67.7724178 L27.1723714,67.8569262 C26.7075859,68.5499132 25.6528703,68.258125 25.5716344,67.4680635 L25.5667376,67.3572851 L26.0987059,25.0611717 L26.0946224,24.5505539 L26.0820387,24.0475137 L26.060455,23.5444361 L26.0293714,23.0337065 L25.9882881,22.5077098 L25.9367052,21.9588313 L25.874123,21.3794561 L25.8000414,20.7619692 L25.6153812,19.3822013 L25.1928386,16.461435 L25.0410178,15.3313061 L24.9524854,14.5972333 L24.8836393,13.9360219 L24.8477776,13.5248284 L24.8076869,12.9361625 L24.7824162,12.3616901 L24.7729011,11.9757293 L24.7686209,11.57978 L24.7542898,6.3492431 C25.3324067,6.05994352 25.917512,5.78409531 26.5091126,5.52199753 L26.5087676,6.53372387 L26.5149809,9.51080977 L26.5229885,11.5717593 L26.5309763,12.1258473 L26.5428555,12.4877593 L26.5597014,12.8350894 L26.5823838,13.1891117 L26.6283756,13.7446836 L26.6676984,14.1394177 L26.7408457,14.7817517 L26.8672719,15.7607425 L26.9858125,16.610876 L27.3553478,19.1567694 L27.5023898,20.2414853 L27.6212911,21.2149551 L27.6857475,21.8153301 L27.7389307,22.3860601 L27.7813343,22.9350641 L27.8134517,23.4702612 L27.8357766,23.9995705 C27.8387087,24.0877381 27.8412534,24.1759902 27.843421,24.264492 L27.8519823,24.7998179 L27.8530225,25.072202 L27.342038,65.5914649 L27.5019758,65.5174877 C27.6653721,65.4450476 27.8375203,65.3759664 28.0183572,65.3100544 L28.2961212,65.2135396 L28.3119256,65.2094407 L28.6392155,4.64850435 C28.9884517,4.51655079 29.339649,4.38927702 29.6927131,4.26674017 L29.3630954,65.6669806 C29.3789197,65.7000966 29.3928439,65.7345752 29.4046894,65.7703265 C29.4798032,65.9970309 29.457308,66.2325928 29.3600928,66.4314398 L29.3579256,66.4404407 L30.3539256,66.5514407 L30.3546168,57.7833775 C30.3546168,57.4927013 30.5902564,57.2570617 30.8809326,57.2570617 C31.1393114,57.2570617 31.3542045,57.443246 31.3987687,57.6887715 L31.4072483,57.7833775 L31.4069256,66.6684407 L32.0569256,66.7404407 L32.0576549,23.5166583 C32.0584738,23.4207048 32.0600356,23.3272288 32.0626121,23.2349175 L32.0736576,22.960165 L32.0879496,22.7401014 L32.118862,22.411761 L32.1637263,22.0614508 L32.2488949,21.5389448 L32.3676189,20.9263802 L32.5248993,20.1946132 L32.8719256,18.6964407 L32.9575166,3.28323002 C33.3071194,3.19355616 33.6581841,3.10842367 34.0106269,3.02788338 L33.9499256,13.9744407 L33.992172,13.7620535 C34.2190671,12.5677125 34.3633531,11.5085341 34.4211668,10.5389387 L34.4406386,10.1287496 L34.463491,9.46313217 L34.4854295,8.80003043 L34.5640438,6.17278101 L34.5814126,5.52225824 L34.5978675,4.87425136 L34.6415493,2.88892927 C35.2249477,2.76525709 35.8119521,2.65413551 36.4021874,2.55579195 Z M59.3457584,5.32779091 L59.3293378,5.73693384 C59.3102204,6.125444 59.2845189,6.51228898 59.2519509,6.91294832 L59.1723932,7.78462762 L58.9112248,10.2996057 L58.8467888,10.9823439 L58.7593967,12.0260683 L58.7073142,12.7409298 L58.638466,13.8520191 L58.5987552,14.6245774 L58.5639981,15.427375 L58.521157,16.6972211 L58.4987969,17.5935187 L58.4745649,19.0227949 L58.4646199,20.0381662 L58.4590241,21.6652332 L58.4590241,51.8498444 C58.4590241,52.3343047 58.0662915,52.7270374 57.5818311,52.7270374 C57.134637,52.7270374 56.7656013,52.3924013 56.7114727,51.9598777 L56.7046382,51.8498444 L56.7052711,21.1020856 L56.714763,19.4988629 L56.7356398,18.0142286 L56.7558793,17.0835346 L56.7957164,15.7658563 L56.8469212,14.5299369 L56.9094872,13.3619651 L56.9575065,12.6142457 L57.0389938,11.5288288 L57.1318251,10.4745299 L57.4512981,7.36129628 C57.5422462,6.39819112 57.5940986,5.56084287 57.6111545,4.63564514 C58.1961735,4.85228111 58.7747914,5.08400651 59.3457584,5.32779091 Z M31.8543676,3.58262049 L31.6354356,25.8387714 C31.6328891,26.0971377 31.4445959,26.3101854 31.1986432,26.3523277 L31.1039582,26.3598745 C30.845592,26.357328 30.6325442,26.1690348 30.590402,25.9230821 L30.5828551,25.8283972 L30.7986444,3.90035859 C31.1488778,3.78980756 31.5008153,3.68387685 31.8543676,3.58262049 Z" id="形状结合" fill="#999999"></path>
            <g id="路径" fill-rule="nonzero">
                <use fill="black" fill-opacity="1" filter="url(#filter-2)" xlink:href="#path-1"></use>
                <use fill="#E0E0E0" xlink:href="#path-1"></use>
            </g>
            <ellipse id="椭圆形" fill="#FFFFFF" opacity="0.5" filter="url(#filter-3)" cx="30.7636169" cy="41.1583596" rx="8" ry="17.5"></ellipse>
        </g>
        <rect id="矩形" fill="#79CDFF" x="52" y="170" width="7" height="12"></rect>
        <rect id="矩形备份-9" fill="#79CDFF" x="238" y="170" width="7" height="12"></rect>
        <path d="M55.5,176 L55.5,268 C55.5,275.179702 61.3202983,281 68.5,281 L228.5,281 C235.679702,281 241.5,275.179702 241.5,268 L241.5,176 L241.5,176" id="直线-19" stroke="#5BAADA" stroke-width="5" stroke-linecap="round"></path>
    </g>
</svg>