<?xml version="1.0" encoding="UTF-8"?>
<svg width="300px" height="300px" viewBox="0 0 300 300" version="1.1" xmlns="http://www.w3.org/2000/svg" xmlns:xlink="http://www.w3.org/1999/xlink">
    <title>img/wifi6/img_add_m6_04</title>
    <g id="img/wifi6/img_add_m6_04" stroke="none" stroke-width="1" fill="none" fill-rule="evenodd">
        <path d="M95.7284615,81.0146154 C95.6984615,80.2173077 95.6003846,79.4488462 95.4469231,78.7253846 L97.4592308,78.7253846 C97.7580769,79.4384615 97.9473077,80.2092308 98.0084615,81.0146154 L95.7284615,81.0146154 Z M95.4469231,84.4507692 C95.6003846,83.7261538 95.6984615,82.9576923 95.7284615,82.1592308 L98.0073077,82.1592308 C97.9473077,82.9657692 97.7580769,83.7353846 97.4592308,84.4507692 L95.4469231,84.4507692 Z M95.1480769,85.5953846 L96.8603846,85.5953846 C96.1138462,86.7596154 95.0534615,87.7011538 93.7992308,88.3023077 C94.3530769,87.5661538 94.8134615,86.6465385 95.1480769,85.5953846 Z M91.1603846,85.5953846 L93.9653846,85.5953846 C93.3503846,87.3780769 92.3361538,88.6415385 91.1603846,88.9565385 L91.1603846,85.5953846 Z M91.1603846,82.1592308 L94.5838462,82.1592308 C94.5503846,82.9657692 94.4488462,83.7353846 94.2861538,84.4507692 L91.1603846,84.4507692 L91.1603846,82.1592308 Z M91.1603846,78.7253846 L94.2861538,78.7253846 C94.4488462,79.4384615 94.5480769,80.2092308 94.5838462,81.0146154 L91.1603846,81.0146154 L91.1603846,78.7253846 Z M91.1603846,74.2184615 C92.3361538,74.5323077 93.3503846,75.7969231 93.9653846,77.5784615 L91.1603846,77.5784615 L91.1603846,74.2184615 Z M95.1480769,77.5784615 C94.8134615,76.5284615 94.3553846,75.6065385 93.7992308,74.8715385 C95.0534615,75.4726923 96.1138462,76.4153846 96.8603846,77.5784615 L95.1480769,77.5784615 Z M90.0146154,77.5784615 L87.2096154,77.5784615 C87.8246154,75.7969231 88.8376923,74.5323077 90.0146154,74.2184615 L90.0146154,77.5784615 Z M90.0146154,81.0146154 L86.5911538,81.0146154 C86.6246154,80.2092308 86.7261538,79.4384615 86.8876923,78.7253846 L90.0146154,78.7253846 L90.0146154,81.0146154 Z M90.0146154,84.4507692 L86.8876923,84.4507692 C86.7261538,83.7353846 86.6246154,82.9657692 86.5911538,82.1592308 L90.0146154,82.1592308 L90.0146154,84.4507692 Z M90.0146154,88.9565385 C88.8376923,88.6415385 87.8246154,87.3780769 87.2096154,85.5953846 L90.0146154,85.5953846 L90.0146154,88.9565385 Z M86.0280769,85.5953846 C86.3626923,86.6465385 86.8219231,87.5684615 87.3757692,88.3023077 C86.1203846,87.7011538 85.06,86.7596154 84.3134615,85.5953846 L86.0280769,85.5953846 Z M85.4465385,82.1592308 C85.4776923,82.9576923 85.5746154,83.7261538 85.7280769,84.4507692 L83.7146154,84.4507692 C83.4180769,83.7353846 83.2276923,82.9657692 83.1665385,82.1592308 L85.4465385,82.1592308 Z M85.7280769,78.7253846 C85.5746154,79.4488462 85.4776923,80.2173077 85.4465385,81.0146154 L83.1665385,81.0146154 C83.2276923,80.2092308 83.4180769,79.4384615 83.7146154,78.7253846 L85.7280769,78.7253846 Z M86.0292308,77.5784615 L84.3134615,77.5784615 C85.06,76.4153846 86.1203846,75.4726923 87.3757692,74.8715385 C86.8230769,75.6065385 86.3638462,76.5284615 86.0292308,77.5784615 Z M99.1542308,81.0146154 C98.8726923,76.7269231 95.4469231,73.3 91.1603846,73.0184615 L91.1603846,73 L90.5869231,73 L90.0146154,73 L90.0146154,73.0184615 C85.7280769,73.3 82.3011538,76.7269231 82.0196154,81.0146154 L82,81.0146154 L82,81.5869231 L82,82.1592308 L82.0196154,82.1592308 C82.3011538,86.4469231 85.7280769,89.8726923 90.0146154,90.1542308 L90.0146154,90.1738462 L90.5869231,90.1738462 L91.1603846,90.1738462 L91.1603846,90.1542308 C95.4469231,89.8726923 98.8726923,86.4469231 99.1542308,82.1592308 L99.175,82.1592308 L99.175,81.5869231 L99.175,81.0146154 L99.1542308,81.0146154 Z" id="Fill-90" fill="#009FD1"></path>
        <g id="编组-2备份-3" transform="translate(145.534351, 20.998486)">
            <path d="M58.5172955,-3.84581256e-13 C58.7687656,7.78145542 58.973847,15.8765162 59.1325568,24.2852465 L59.168507,26.2395506 C59.2506827,30.8254635 58.6780571,34.6496202 56.8993753,42.951969 L56.1605558,46.3651769 C54.6536331,53.3568845 53.9978062,57.5210493 53.9605317,61.628215 L53.9618766,139.433454 L53.9731103,139.86046 L53.9865533,140.127013 C54.0681403,141.451322 54.3784354,142.705445 55.5083406,146.440864 L56.699607,150.343267 C58.4408213,156.126386 59.2262912,160.278252 59.1686497,165.097135 L59.1687643,197.96075 L59.3475734,197.921599 C62.6614328,197.1622 64.1115124,195.794529 64.1115124,193.855098 L64.1115124,167.657801 C64.1115124,165.585547 63.9470668,163.921148 63.589541,162.099898 L63.440669,161.395773 L62.3765274,156.99742 L61.8891235,154.905246 C61.7041791,154.09305 61.5380362,153.335787 61.415106,152.724627 L61.223761,151.727383 L61.0801111,150.933394 C59.4497853,141.694122 58.5676193,128.678043 58.5676193,108.034835 L58.5712364,105.30915 L58.5880533,101.713636 L58.610606,99.038448 C58.7648851,83.8743138 59.3348547,73.7084911 60.3271337,64.8073152 L60.5961176,62.5098812 L61.5386413,55.1875551 L61.7072571,53.7854396 C62.2106299,49.439731 62.456675,45.6772358 62.5010573,40.7300428 L62.508459,39.0244146 L62.5027011,37.2397133 L62.4854272,35.4230089 C62.3560672,25.1295107 61.681778,13.3217399 60.4623793,0.000923415158 L63.681884,0.00214238676 C65.0369225,14.8782007 65.7145659,27.885061 65.7145659,39.0244146 C65.7145659,44.9695953 65.4656617,49.2005415 64.8927808,54.1481717 L64.6779272,55.9154646 L63.7326183,63.2740399 L63.5115307,65.1802077 L63.3519261,66.6601173 L63.2498119,67.6617514 C62.3127519,77.0708766 61.8237883,88.2248477 61.7773773,105.298665 L61.7737262,108.034835 L61.782221,111.470353 L61.8010611,114.101416 C61.9675099,131.914132 62.8896496,143.322249 64.4448227,151.50882 L64.5980593,152.288077 L64.8002603,153.234294 C64.9547231,153.936516 65.1369408,154.729309 65.3253173,155.531962 L65.4515771,156.06764 L65.5692093,156.563026 C66.0780569,158.699082 66.56462,160.657185 66.6120125,160.879339 C67.0937538,163.137514 67.3176193,165.14686 67.3176193,167.657801 L67.3176193,193.855098 C67.3176193,198.118328 63.9103672,200.630855 57.7787322,201.452946 L55.9626575,199.864109 L36.05,199.864 L36.05,196.657 L55.9625954,196.657144 L55.9626575,165.077962 C56.0157648,160.628912 55.282622,156.755576 53.6248988,151.251905 L52.1255627,146.326313 L51.8083278,145.249834 L51.5165956,144.221472 C50.8493863,141.801741 50.761037,140.882411 50.7533538,139.241419 L50.7527338,62.0015138 C50.7527338,57.6105853 51.3890453,53.3623354 52.8877866,46.3361539 L53.862979,41.8187185 L54.4163929,39.1659563 L54.6410902,38.0443682 C55.6789257,32.7800544 56.0243997,29.7282328 55.9629148,26.296992 L55.8752824,21.6970864 L55.775727,17.0432018 L55.657498,12.1019811 C55.5534926,7.98659235 55.4374951,3.95264448 55.3095076,0.000145961126 L58.5172955,-3.84581256e-13 Z M16.563,136.726 L16.5634301,139.335654 L16.5578514,139.724399 C16.5187479,141.555508 16.2879376,142.764647 15.1832741,146.462637 L14.8273243,147.642097 L13.8872304,150.700499 C12.1517459,156.316584 11.3594373,160.170147 11.3523088,164.567973 L11.3549618,165.077962 L11.3549618,196.657144 L29.795,196.657 L29.795,199.864 L11.3549618,199.864109 L9.53888709,201.452946 C3.53238752,200.647632 0.140206201,198.220176 0.00425148697,194.113925 L-1.91846539e-13,193.855098 L-1.91846539e-13,167.657801 C-1.91846539e-13,165.388898 0.159346072,163.533885 0.500448312,161.52871 L0.628267997,160.82152 L1.74017554,155.497542 C1.9553881,154.438931 2.16030284,153.40169 2.31190511,152.571127 L2.42694923,151.919139 L2.61057137,150.791125 L2.79540538,149.565902 L2.97554387,148.271293 C3.41767946,144.958821 3.78454798,141.162622 4.07098646,136.727392 L7.28324302,136.727018 C6.92544941,142.339607 6.44059712,146.964785 5.8377761,150.901836 L5.77594794,151.300606 L5.58831794,152.452871 L5.40816954,153.459341 L5.20750405,154.507703 C4.99222656,155.60919 4.73941328,156.842927 4.50576588,157.964784 L3.77826124,161.418583 L3.66209815,162.060787 C3.38112474,163.710912 3.23655053,165.234714 3.21044542,167.043685 L3.20610687,167.657801 L3.20610687,193.855098 C3.20610687,195.731967 4.56414193,197.073368 7.65515416,197.846211 L7.97004586,197.921599 L8.14885496,197.96075 L8.14896963,165.097135 C8.09367191,160.474199 8.80941879,156.519942 10.4130039,151.110569 L10.6180846,150.426665 L12.0309027,145.811296 L12.326418,144.813645 C13.0802674,142.230561 13.290951,141.147794 13.3431938,139.871292 L13.3578324,139.217214 L13.357,136.726 L16.563,136.726 Z M7.0337834,0.000969398811 C5.59009493,14.5071978 4.84917124,27.2183645 4.81073737,38.1327403 L4.81063332,39.8828387 C4.82830072,44.9450616 5.00571789,48.7398341 5.38716827,52.9992229 L5.45661005,53.7560553 L5.59999317,55.2240377 L6.45039324,63.397284 L6.5902196,64.8947166 C7.42432501,74.1131074 7.8900394,84.6979891 7.99322377,100.802964 L8.01004003,104.423985 L8.01526718,108.034835 L8.00757907,111.547467 L7.99113282,114.162838 C7.96858986,116.92294 7.93033832,119.532081 7.87673081,122.001869 L4.67003048,122.002096 C4.72428866,119.515901 4.76290678,116.885294 4.78548022,114.098104 L4.80178403,111.472352 L4.80916031,108.034835 L4.8061541,105.282349 L4.79246394,101.706243 C4.70594556,86.0088757 4.28300265,75.5526479 3.51945528,66.5769975 L3.39130587,65.1190464 L3.16914704,62.7915125 L2.60408438,57.390662 L2.26406347,54.0506359 L2.13944338,52.6649137 L2.02260326,51.2254127 C1.74962976,47.6503584 1.61894584,44.2069077 1.60442188,39.8570861 L1.60439223,38.1982566 C1.63975552,27.2422535 2.37568743,14.5106256 3.81191591,0.00166222073 L7.0337834,0.000969398811 Z M12.0581567,0.000227398928 C11.8417463,5.95300807 11.6609103,12.090694 11.5156609,18.4132498 L11.4425921,21.7535425 L11.3547045,26.296992 L11.3489665,26.8188773 C11.3381155,30.2100145 11.8219077,33.633462 13.1543649,40.2532498 L13.4770812,41.8390731 L14.2500927,45.5572011 L14.6950012,47.735363 L14.9277136,48.9048819 C16.0473497,54.5972738 16.5133245,58.0119389 16.5608019,61.4129356 L16.5648855,62.0015138 L16.563,122.001 L13.357,122.001 L13.3587786,62.0015138 L13.3538947,61.3922274 C13.3014763,58.1374294 12.8219528,54.7506539 11.6670674,48.9445662 L11.3242439,47.2459288 L10.1278245,41.4631444 L9.59685435,38.7904192 L9.3858869,37.6829184 C8.47855444,32.8413291 8.13338148,29.8710967 8.14281868,26.8340317 L8.14911227,26.2395506 L8.18514725,24.2941492 L8.26698974,20.2833362 L8.3581384,16.3206343 C8.49398719,10.7355671 8.65790686,5.29560477 8.84990593,0.00072263001 L12.0581567,0.000227398928 Z" id="形状结合" fill-opacity="0.7" fill="#999999" fill-rule="nonzero"></path>
            <path d="M37.9389313,28.3717428 L29.389313,28.3717428 C26.7522587,28.3717428 24.6145038,30.5094977 24.6145038,33.146552 L24.6145038,41.6961703 C24.6145038,44.3332246 26.7522587,46.4709795 29.389313,46.4709795 L37.9389313,46.4709795 C40.5759856,46.4709795 42.7137405,44.3332246 42.7137405,41.6961703 L42.7137405,33.146552 C42.7137405,30.5094977 40.5759856,28.3717428 37.9389313,28.3717428 Z M29.389313,29.3717428 L37.9389313,29.3717428 C40.0237008,29.3717428 41.7137405,31.0617824 41.7137405,33.146552 L41.7137405,41.6961703 C41.7137405,43.7809398 40.0237008,45.4709795 37.9389313,45.4709795 L29.389313,45.4709795 C27.3045434,45.4709795 25.6145038,43.7809398 25.6145038,41.6961703 L25.6145038,33.146552 C25.6145038,31.0617824 27.3045434,29.3717428 29.389313,29.3717428 Z" id="矩形备份-9" fill-opacity="0.7" fill="#999999" fill-rule="nonzero"></path>
            <text id="CONNECT备份" font-family="PingFangSC-Semibold, PingFang SC" font-size="4.27480916" font-weight="500" fill="#999999">
                <tspan x="23.5969466" y="25.3221245">CONNECT</tspan>
            </text>
            <text id="WAN" font-family="PingFangSC-Semibold, PingFang SC" font-size="4.27480916" font-weight="500" fill="#999999">
                <tspan x="29.1456489" y="149.29159">WAN</tspan>
            </text>
            <text id="LAN" font-family="PingFangSC-Semibold, PingFang SC" font-size="4.27480916" font-weight="500" fill="#999999">
                <tspan x="29.9172519" y="59.5205978">LAN</tspan>
            </text>
            <text id="POWER备份" font-family="PingFangSC-Semibold, PingFang SC" font-size="4.27480916" font-weight="500" fill="#999999">
                <tspan x="26.7774046" y="178.146552">POWER</tspan>
            </text>
            <text id="RESET备份" font-family="PingFangSC-Semibold, PingFang SC" font-size="4.27480916" font-weight="500" fill="#999999">
                <tspan x="26.7239695" y="5.01678098">RESET</tspan>
            </text>
            <circle id="椭圆形备份-2" fill-opacity="0.5" fill="#999999" cx="34.1984733" cy="9.10075044" r="1.60305344"></circle>
            <circle id="椭圆形备份-3" fill-opacity="0.5" fill="#999999" cx="31.5267176" cy="165.665636" r="5.34351145"></circle>
            <path d="M34.1984733,64.1389184 L34.1987405,66.3829184 L37.6335878,66.3831932 L37.6337405,70.8709184 L39.9236641,70.8717428 L39.9237405,71.9929184 L42.2137405,71.9938802 L42.2137405,78.7267046 L39.9237405,78.7259184 L39.9236641,79.848842 L37.6337405,79.8479184 L37.6335878,84.3373917 L34.1987405,84.3369184 L34.1984733,86.5816665 L28.4732824,86.5816665 L28.4737405,84.3369184 L26.1832061,84.3373917 L26.1832061,66.3831932 L28.4737405,66.3829184 L28.4732824,64.1389184 L34.1984733,64.1389184 Z M33.6641221,80.6066491 L28.3206107,80.6066491 L28.3206107,81.7725062 L33.6641221,81.7725062 L33.6641221,80.6066491 Z M33.6641221,78.274935 L28.3206107,78.274935 L28.3206107,79.4407921 L33.6641221,79.4407921 L33.6641221,78.274935 Z M33.6641221,75.9432209 L28.3206107,75.9432209 L28.3206107,77.109078 L33.6641221,77.109078 L33.6641221,75.9432209 Z M33.6641221,73.6115069 L28.3206107,73.6115069 L28.3206107,74.7773639 L33.6641221,74.7773639 L33.6641221,73.6115069 Z M33.6641221,71.2797928 L28.3206107,71.2797928 L28.3206107,72.4456498 L33.6641221,72.4456498 L33.6641221,71.2797928 Z M33.6641221,68.9480787 L28.3206107,68.9480787 L28.3206107,70.1139357 L33.6641221,70.1139357 L33.6641221,68.9480787 Z" id="形状结合" fill-opacity="0.5" fill="#999999"></path>
            <path d="M34.1984733,90.8564756 L34.1987405,93.1004756 L37.6335878,93.1007504 L37.6337405,97.5884756 L39.9236641,97.5893001 L39.9237405,98.7104756 L42.2137405,98.7114375 L42.2137405,105.444262 L39.9237405,105.443476 L39.9236641,106.566399 L37.6337405,106.565476 L37.6335878,111.054949 L34.1987405,111.054476 L34.1984733,113.299224 L28.4732824,113.299224 L28.4737405,111.054476 L26.1832061,111.054949 L26.1832061,93.1007504 L28.4737405,93.1004756 L28.4732824,90.8564756 L34.1984733,90.8564756 Z M33.6641221,107.324206 L28.3206107,107.324206 L28.3206107,108.490063 L33.6641221,108.490063 L33.6641221,107.324206 Z M33.6641221,104.992492 L28.3206107,104.992492 L28.3206107,106.158349 L33.6641221,106.158349 L33.6641221,104.992492 Z M33.6641221,102.660778 L28.3206107,102.660778 L28.3206107,103.826635 L33.6641221,103.826635 L33.6641221,102.660778 Z M33.6641221,100.329064 L28.3206107,100.329064 L28.3206107,101.494921 L33.6641221,101.494921 L33.6641221,100.329064 Z M33.6641221,97.99735 L28.3206107,97.99735 L28.3206107,99.1632071 L33.6641221,99.1632071 L33.6641221,97.99735 Z M33.6641221,95.6656359 L28.3206107,95.6656359 L28.3206107,96.831493 L33.6641221,96.831493 L33.6641221,95.6656359 Z" id="形状结合" fill-opacity="0.5" fill="#999999"></path>
            <path d="M34.1984733,117.574033 L34.1987405,119.818033 L37.6335878,119.818308 L37.6337405,124.306033 L39.9236641,124.306857 L39.9237405,125.428033 L42.2137405,125.428995 L42.2137405,132.161819 L39.9237405,132.161033 L39.9236641,133.283957 L37.6337405,133.283033 L37.6335878,137.772506 L34.1987405,137.772033 L34.1984733,140.016781 L28.4732824,140.016781 L28.4737405,137.772033 L26.1832061,137.772506 L26.1832061,119.818308 L28.4737405,119.818033 L28.4732824,117.574033 L34.1984733,117.574033 Z M33.6641221,134.041764 L28.3206107,134.041764 L28.3206107,135.207621 L33.6641221,135.207621 L33.6641221,134.041764 Z M33.6641221,131.71005 L28.3206107,131.71005 L28.3206107,132.875907 L33.6641221,132.875907 L33.6641221,131.71005 Z M33.6641221,129.378335 L28.3206107,129.378335 L28.3206107,130.544192 L33.6641221,130.544192 L33.6641221,129.378335 Z M33.6641221,127.046621 L28.3206107,127.046621 L28.3206107,128.212478 L33.6641221,128.212478 L33.6641221,127.046621 Z M33.6641221,124.714907 L28.3206107,124.714907 L28.3206107,125.880764 L33.6641221,125.880764 L33.6641221,124.714907 Z M33.6641221,122.383193 L28.3206107,122.383193 L28.3206107,123.54905 L33.6641221,123.54905 L33.6641221,122.383193 Z" id="形状结合" fill-opacity="0.5" fill="#FF5B5B"></path>
            <polyline id="直线-15" stroke="#999999" stroke-width="1.06870229" stroke-linecap="square" points="24.0458015 117.574033 21.9083969 117.574033 21.9083969 146.963346 26.7175573 146.963346"></polyline>
            <polyline id="直线-15备份" stroke="#999999" stroke-width="1.06870229" stroke-linecap="square" points="43.2824427 117.574033 45.4198473 117.574033 45.4198473 146.963346 41.1450382 146.963346"></polyline>
            <polyline id="直线-15" stroke="#999999" stroke-width="1.06870229" stroke-linecap="square" transform="translate(24.312977, 86.047315) scale(1, -1) translate(-24.312977, -86.047315) " points="24.0458015 57.7267046 21.9083969 57.7267046 21.9083969 114.367926 26.7175573 114.367926"></polyline>
            <polyline id="直线-15备份" stroke="#999999" stroke-width="1.06870229" stroke-linecap="square" transform="translate(43.282443, 86.047315) scale(1, -1) translate(-43.282443, -86.047315) " points="43.2824427 57.7267046 45.4198473 57.7267046 45.4198473 114.367926 41.1450382 114.367926"></polyline>
        </g>
        <g id="网线" transform="translate(127.815135, 127.453260) rotate(-270.000000) translate(-127.815135, -127.453260) translate(96.725510, 91.450895)" fill="#999999">
            <path d="M61.3610559,20.6561538 C61.7778185,20.6561538 62.1217413,20.968018 62.1721865,21.3711084 L62.1785559,21.4736538 L62.1785559,25.9794231 L62.1513241,26.1886657 L58.4705549,40.0902042 C58.3851133,40.4129001 58.1137835,40.6474318 57.7899812,40.6911112 L57.6802867,40.6984615 L57.082,40.698 L57.0825944,50.8976538 C57.0825944,51.2138077 56.8252867,51.4722692 56.507979,51.4722692 L55.266,51.472 L55.3414293,56.7936141 C55.4565499,64.972211 49.0040116,71.7140178 40.8677835,71.9956106 L40.342915,72.0047308 L1,72.0047308 C0.44771525,72.0047308 -4.79616347e-13,71.5570155 -4.79616347e-13,71.0047308 C-4.79616347e-13,70.4918949 0.38604019,70.0692236 0.883378875,70.0114585 L1,70.0047308 L40.5258828,70.0034431 C47.7048734,69.9023928 53.4426777,64.0007536 53.3416274,56.821763 L53.266,51.472 L52.0737483,51.4722692 C51.7564406,51.4722692 51.4991329,51.2138077 51.4991329,50.8976538 L51.499,40.698 L50.5218252,40.6984615 C50.1938534,40.6984615 49.901524,40.5030886 49.7728635,40.2087196 L49.7362141,40.1070623 L45.8512141,26.6082161 L45.8273367,26.4962846 L45.8273367,26.4962846 L45.8193252,26.3821154 L45.8193252,21.4736538 C45.8193252,21.0568913 46.1311893,20.7129685 46.5342797,20.6625233 L46.6368252,20.6561538 L61.3610559,20.6561538 Z M60.5433636,22.2905 L47.4533636,22.2905 L47.4533636,26.2635 L49.0941939,31.9617259 C49.1255363,31.9570423 49.157624,31.9546154 49.1902867,31.9546154 L51.4368252,31.9546154 C51.7922098,31.9546154 52.0795175,32.2419231 52.0795175,32.5973077 C52.0795175,32.9515385 51.7922098,33.2388462 51.4368252,33.2388462 L49.461,33.238 L49.698,34.061 L51.775479,34.0617692 C52.1297098,34.0617692 52.4181713,34.3490769 52.4181713,34.7044615 C52.4181713,35.0598462 52.1297098,35.3471538 51.775479,35.3471538 L50.068,35.347 L50.268,36.042 L52.4520944,36.0426923 C52.807479,36.0426923 53.0947867,36.33 53.0947867,36.6853846 C53.0947867,37.0407692 52.807479,37.3280769 52.4520944,37.3280769 L50.638,37.328 L51.1373636,39.0625 L57.0503636,39.0625 L57.509,37.328 L55.8688636,37.3280769 C55.513479,37.3280769 55.2261713,37.0407692 55.2261713,36.6853846 C55.2261713,36.33 55.513479,36.0426923 55.8688636,36.0426923 L57.85,36.042 L58.034,35.347 L56.3032867,35.3471538 C55.9479021,35.3471538 55.6605944,35.0598462 55.6605944,34.7044615 C55.6605944,34.3490769 55.9479021,34.0617692 56.3032867,34.0617692 L58.375,34.061 L58.593,33.238 L56.7489021,33.2388462 C56.3935175,33.2388462 56.1062098,32.9515385 56.1062098,32.5973077 C56.1062098,32.2419231 56.3935175,31.9546154 56.7489021,31.9546154 L58.933,31.954 L60.5433636,25.8715 L60.5433636,22.2905 Z M61.3617483,1.49213975e-13 C61.813241,1.49213975e-13 62.1792483,0.366007217 62.1792483,0.8175 L62.1792483,0.8175 L62.1792483,19.2248077 C62.1792483,19.6763005 61.813241,20.0423077 61.3617483,20.0423077 L61.3617483,20.0423077 L46.6363636,20.0423077 C46.1848709,20.0423077 45.8188636,19.6763005 45.8188636,19.2248077 L45.8188636,19.2248077 L45.8188636,0.8175 C45.8188636,0.366007217 46.1848709,1.49213975e-13 46.6363636,1.49213975e-13 L46.6363636,1.49213975e-13 Z M49.158,1.634 L47.4533636,1.6345 L47.4533636,18.4065 L60.5433636,18.4065 L60.5433636,1.6345 L58.6,1.634 L58.6005944,6.15519231 L57.4098252,6.15519231 L57.409,1.634 L54.475,1.634 L54.4755944,6.15519231 L53.2848252,6.15519231 L53.284,1.634 L50.349,1.634 L50.3494406,6.15519231 L49.1586713,6.15519231 L49.158,1.634 Z M59.1117483,12.7921154 C59.4730699,12.7921154 59.765979,13.0850245 59.765979,13.4463462 L59.765979,13.4463462 L59.765979,16.9678846 C59.765979,17.3292063 59.4730699,17.6221154 59.1117483,17.6221154 L59.1117483,17.6221154 L48.8863636,17.6221154 C48.525042,17.6221154 48.2321329,17.3292063 48.2321329,16.9678846 L48.2321329,16.9678846 L48.2321329,13.4463462 C48.2321329,13.0850245 48.525042,12.7921154 48.8863636,12.7921154 L48.8863636,12.7921154 Z M58.4573636,14.1005 L49.5403636,14.1005 L49.5403636,16.3135 L58.4573636,16.3135 L58.4573636,14.1005 Z" id="形状结合"></path>
        </g>
        <path d="M105.5,179.596923 L105.5,214.286024 L99.5357464,214.499361 L99.5355081,214.478066 C98.4325792,216.170345 96.4857754,217.350019 94.233726,217.562495 L94.233,263.230352 C94.233,270.307486 99.8881918,276.06378 106.926144,276.226801 L107.233,276.230352 L164.233,276.230352 C171.310135,276.230352 177.066428,270.57516 177.22945,263.537208 L177.233,263.230352 L177.233,256.334923 L176.109923,256.335385 C175.775308,256.335385 175.504154,256.18581 175.504154,256.001229 L175.504,249.280923 L175.405269,249.281923 C174.74325,249.281923 174.198869,248.778918 174.133407,248.13419 L174.126808,248.003462 L174.126,238.833923 L173.862462,238.833962 C172.940596,238.833962 172.185346,238.124805 172.112126,237.221906 L172.106308,237.077808 L172.106308,222.530115 C172.106308,221.610442 172.815464,220.854261 173.718364,220.780942 L173.862462,220.775115 L174.511,220.774923 L174.511962,210.804615 C174.511962,209.857538 175.240904,209.081242 176.169524,209.00598 L176.317731,209 L180.597346,209 C181.544423,209 182.320719,209.728942 182.395981,210.656573 L182.401962,210.804615 L182.401,220.774923 L182.997462,220.775115 C183.918231,220.775115 184.673426,221.485313 184.746644,222.386338 L184.752462,222.530115 L184.752462,237.077808 C184.752462,237.999673 184.043305,238.754923 183.141395,238.828143 L182.997462,238.833962 L182.78,238.833923 L182.780654,248.003462 C182.780654,248.665481 182.277649,249.209862 181.632921,249.275323 L181.502192,249.281923 L180.961,249.280923 L180.961846,256.001229 C180.961846,256.18581 180.690692,256.335385 180.354923,256.335385 L179.233,256.334923 L179.233,263.230352 C179.233,271.409759 172.686214,278.060082 164.546828,278.227134 L164.233,278.230352 L107.233,278.230352 C99.0535929,278.230352 92.4032698,271.683565 92.2362178,263.54418 L92.233,263.230352 L92.2328078,217.493311 C90.2183984,217.159934 88.4960103,216.045998 87.4792144,214.500548 L81.5,214.5 L81.5,179.596923 L105.5,179.596923 Z M181.473,238.833923 L175.405,238.833923 L175.408,239.802923 L177.273115,239.803769 C177.584654,239.803769 177.836192,240.054154 177.836192,240.365692 C177.836192,240.677231 177.584654,240.927615 177.273115,240.927615 L175.412,240.926923 L175.417184,242.362573 C175.433408,242.361175 175.44983,242.360462 175.466423,242.360462 L177.357577,242.360462 C177.667962,242.360462 177.9195,242.612 177.9195,242.923538 C177.9195,243.233923 177.667962,243.485462 177.357577,243.485462 L175.466423,243.485462 L175.42,243.481923 L175.425146,244.919783 L175.445689,244.918679 L175.445689,244.918679 L177.357577,244.918308 C177.667962,244.918308 177.9195,245.168692 177.9195,245.480231 C177.9195,245.791769 177.667962,246.043308 177.357577,246.043308 L175.466423,246.043308 L175.429,246.039923 L175.435269,248.003462 L181.502192,247.973462 L181.496,246.042923 L179.615885,246.043308 C179.304346,246.043308 179.052808,245.791769 179.052808,245.480231 C179.052808,245.168692 179.304346,244.918308 179.615885,244.918308 L181.492,244.917923 L181.488,243.484923 L179.615885,243.485462 C179.304346,243.485462 179.052808,243.233923 179.052808,242.923538 C179.052808,242.612 179.304346,242.360462 179.615885,242.360462 L181.484,242.359923 L181.48,240.926923 L179.760115,240.927615 C179.448577,240.927615 179.197038,240.677231 179.197038,240.365692 C179.197038,240.054154 179.448577,239.803769 179.760115,239.803769 L181.476,239.802923 L181.473,238.833923 Z M182.997462,222.410115 L173.862462,222.410115 C173.808923,222.410115 173.763508,222.444823 173.747483,222.49238 L173.741308,222.530115 L173.741308,237.077808 C173.741308,237.131346 173.776015,237.176023 173.824163,237.191752 L173.862462,237.197808 L182.997462,237.197808 C183.051,237.197808 183.095677,237.163838 183.111406,237.115986 L183.117462,237.077808 L183.117462,222.530115 C183.117462,222.464346 183.064385,222.410115 182.997462,222.410115 Z M180.597346,210.635 L176.317731,210.635 C176.242038,210.635 176.178162,210.683738 176.155638,210.751086 L176.146962,210.804615 L176.146,220.774923 L180.766,220.774923 L180.766962,210.804615 C180.766962,210.729846 180.718223,210.666154 180.650875,210.643668 L180.597346,210.635 Z M93.5,198.596923 C90.7909426,198.596923 88.6234166,200.456729 88.5050888,202.734085 L88.5,202.930276 L88.5,211.26357 C88.5,213.629324 90.713541,215.596923 93.5,215.596923 C96.2090574,215.596923 98.3765834,213.737117 98.4949112,211.459761 L98.5,211.26357 L98.5,202.930276 C98.5,200.564522 96.286459,198.596923 93.5,198.596923 Z M103.499,212.356 L103.499,181.596 L83.499,181.596 L83.499,212.5 L86.6326414,212.500593 C86.5621132,212.176688 86.5187614,211.843566 86.504877,211.503161 L86.5,211.26357 L86.5,202.930276 C86.5,199.404052 89.658008,196.596923 93.5,196.596923 C97.2602475,196.596923 100.365307,199.28587 100.495735,202.706195 L100.5,202.930276 L100.5,211.26357 C100.5,211.676158 100.456766,212.078902 100.37426,212.468457 L103.499,212.356 Z M98.67,186.773462 L98.67,190.424231 L97.2819231,190.424231 L97.2819231,186.773462 L98.67,186.773462 Z M90.3426923,186.773462 L90.3426923,190.424231 L88.9546154,190.424231 L88.9546154,186.773462 L90.3426923,186.773462 Z" id="形状结合" fill="#999999" fill-rule="nonzero"></path>
        <path d="M159.002992,150.162678 C159.182286,140.102362 167.395671,132 177.498739,132 C187.716148,132 196,140.282978 196,150.498739 C196,160.716585 187.716585,169 177.498739,169 C167.395239,169 159.182277,160.89721 159.002992,150.834868 L159,150.498739 L159.002992,150.162678 Z M161,150.498739 C161,159.612016 168.387984,167 177.498739,167 C186.612016,167 194,159.612016 194,150.498739 C194,141.387984 186.612016,134 177.498739,134 C168.387984,134 161,141.387984 161,150.498739 Z" id="Fill-20备份" fill-opacity="0.9" fill="#F84343" fill-rule="nonzero"></path>
        <path d="M159.002992,190.162678 C159.182286,180.102362 167.395671,172 177.498739,172 C187.716148,172 196,180.282978 196,190.498739 C196,200.716585 187.716585,209 177.498739,209 C167.395239,209 159.182277,200.89721 159.002992,190.834868 L159,190.498739 L159.002992,190.162678 Z M161,190.498739 C161,199.612016 168.387984,207 177.498739,207 C186.612016,207 194,199.612016 194,190.498739 C194,181.387984 186.612016,174 177.498739,174 C168.387984,174 161,181.387984 161,190.498739 Z" id="Fill-20备份-2" fill-opacity="0.9" fill="#F84343" fill-rule="nonzero"></path>
    </g>
</svg>