<?xml version="1.0" encoding="UTF-8"?>
<svg width="300px" height="300px" viewBox="0 0 300 300" version="1.1" xmlns="http://www.w3.org/2000/svg" xmlns:xlink="http://www.w3.org/1999/xlink">
    <title>img/wifi6/img_m6_bluelight</title>
    <defs>
        <filter x="-112.5%" y="-51.4%" width="325.0%" height="202.9%" filterUnits="objectBoundingBox" id="filter-1">
            <feGaussianBlur stdDeviation="6" in="SourceGraphic"></feGaussianBlur>
        </filter>
    </defs>
    <g id="img/wifi6/img_m6_bluelight" stroke="none" stroke-width="1" fill="none" fill-rule="evenodd">
        <g id="编组-2备份-3" transform="translate(100.500000, 18.636197)">
            <path d="M47.0447862,0 L49.9703069,0.121185645 L50.4264225,2.91938387 C57.8010929,48.4153552 61.4900581,83.7227602 61.4900581,108.863803 C61.4900581,114.426794 61.2571548,118.385751 60.721102,123.015319 L60.5200604,124.669 L59.6355214,131.554524 L59.4286466,133.338153 L59.2793023,134.722925 L59.1837526,135.660169 C58.3069321,144.464421 57.8494019,154.901352 57.8059745,170.877566 L57.8025581,173.43784 L57.8105068,176.652503 L57.8281357,179.114426 C57.9838843,195.782039 58.8467436,206.456777 60.3019413,214.117069 L60.4453269,214.84623 L60.6345293,215.731619 C61.2287205,218.432944 62.2618497,222.566623 62.3298117,222.885197 C62.7805839,224.998204 62.9900581,226.878377 62.9900581,229.227901 L62.9900581,253.741085 C62.9900581,257.730251 59.8018436,260.081258 54.0643851,260.850501 L52.3650581,259.363803 L10.625,259.363803 L8.92567292,260.850501 C3.30530546,260.096957 0.131192946,257.825551 0.00397817709,253.983274 L0,253.741085 L0,229.227901 C0,227.104856 0.149102396,225.369094 0.468276635,223.492823 L0.58787934,222.831095 L1.62830711,217.849373 C1.82968458,216.858815 2.02142623,215.888254 2.16328264,215.111085 L2.27093107,214.50101 L2.44274892,213.445512 L2.61570075,212.299052 L2.78425891,211.087668 C3.77331339,203.67769 4.35984441,193.680766 4.47784221,179.111327 L4.49309791,176.654374 L4.5,173.43784 L4.49718705,170.862299 L4.48437697,167.516086 C4.40342049,152.827835 4.00766676,143.043793 3.29320458,134.645149 L3.17329335,133.280923 L2.96541616,131.103017 L2.43667896,126.049364 L2.11851653,122.924053 L2.00190774,121.627413 L1.89257877,120.280452 C1.63715356,116.935222 1.51487075,113.713136 1.50128047,109.642946 L1.50125273,108.090756 C1.57983221,83.7458179 5.35516501,50.0312812 12.823842,6.92570937 L13.5274104,2.89927424 L14.0232526,0.100712238 L16.9552138,0 L20.796,15.363 L23,15.363 L23,0.363803438 L27,0.363803438 L27,15.363 L30,15.363 L30,0.363803438 L34,0.363803438 L34,15.363 L37,15.363 L37,0.363803438 L41,0.363803438 L41,15.363 L43.203,15.363 L47.0447862,0 Z M9.24226209,51.4035305 L9.42044215,48.335029 L9.29546389,49.2634608 C6.15425583,72.7938145 4.55656808,92.3844166 4.50147569,108.029451 L4.50137832,109.667043 C4.51790996,114.403837 4.68392174,117.95466 5.04085031,121.940231 L5.10582797,122.64841 L5.23999361,124.022022 L6.03572511,131.669846 L6.16656263,133.071015 C6.94704698,141.696795 7.38282258,151.60122 7.47937367,166.670874 L7.49510888,170.059116 L7.5,173.43784 L7.49280613,176.72466 L7.47741714,179.1719 C7.34640882,195.212225 6.64841771,205.80376 5.4624905,213.549105 L5.404637,213.92224 L5.22906893,215.00043 L5.0605015,215.942199 L4.87273593,216.923166 C4.67129771,217.953843 4.43473672,219.108269 4.2161095,220.158006 L3.53537301,223.389775 L3.42667755,223.990695 C3.16376672,225.53474 3.02848657,226.960583 3.00405965,228.653263 L3,229.227901 L3,253.741085 C3,255.497299 4.2707328,256.752467 7.16303711,257.475627 L7.45768577,257.546169 L7.625,257.582803 L7.6251073,226.831849 C7.57336443,222.506102 8.24309901,218.806047 9.74359649,213.74442 L9.93549347,213.104481 L11.2574875,208.785814 L11.5340055,207.852297 C12.2393931,205.435269 12.4365327,204.422108 12.4854171,203.227667 L12.4991146,202.615637 L12.5,130.363803 L12.49543,129.793685 C12.4463814,126.748124 11.9976844,123.57907 10.9170416,118.146231 L10.5962568,116.556792 L9.47675007,111.145758 L8.97991371,108.644851 L8.78250846,107.608546 C7.93350451,103.078202 7.61052125,100.298913 7.61935176,97.457088 L7.62524076,96.9008236 L7.65895921,95.0804837 L7.7355404,91.3275087 L7.82082951,87.6195519 C8.11964041,75.3347245 8.56359359,63.8001713 9.15279284,53.0155925 L9.24226209,51.4035305 Z M53.6300581,45.6548034 L53.8355305,49.6697959 L53.9851775,52.7702882 C54.5957508,65.7765432 55.044379,79.877021 55.3311782,95.0721533 L55.3648173,96.9008236 C55.4417102,101.191928 54.9058963,104.770246 53.2415583,112.538872 L52.5502344,115.73266 C51.1401853,122.2749 50.5265187,126.171369 50.4916404,130.014502 L50.4928988,202.817976 L50.5034103,203.217532 L50.5159892,203.466949 C50.5923313,204.706124 50.8826789,205.879624 51.9399473,209.37491 L53.0546323,213.026444 C54.6839113,218.437791 55.4188868,222.322752 55.3649508,226.831849 L55.3650581,257.582803 L55.5323723,257.546169 C58.6331978,256.835588 59.9900581,255.555839 59.9900581,253.741085 L59.9900581,229.227901 C59.9900581,227.288863 59.8361839,225.731462 59.5016419,224.027292 L59.3623403,223.368432 L58.3666078,219.25283 L57.910537,217.295153 C57.7374819,216.53517 57.5820196,215.826588 57.466992,215.254716 L57.2879478,214.321581 L57.1535325,213.578634 C55.6280134,204.933316 54.8025581,192.753985 54.8025581,173.43784 L54.8059427,170.887378 L54.8216785,167.523003 L54.8427813,165.019792 C54.9871425,150.830495 55.5204712,141.318189 56.4489608,132.989232 L56.7006529,130.83949 L57.5825858,123.987885 L57.740362,122.675905 C58.2113751,118.609564 58.4416031,115.088943 58.4831322,110.459784 L58.4900581,108.863803 L58.4846703,107.193833 L58.4685069,105.493917 C58.2781373,90.3457333 56.8265444,71.6928091 54.1130726,49.5396096 L53.6300581,45.6548034 Z M48.7702777,18.3622491 L14.8208358,18.3622491 L14.5942788,20.6014326 C12.6563458,40.1335414 11.3830337,63.1265995 10.7753684,89.5776421 L10.7069969,92.7032017 L10.6247592,96.9545724 L10.6193901,97.4429078 C10.6092367,100.616043 11.0619279,103.819412 12.3087272,110.013642 L12.6106974,111.49752 L13.3340154,114.976625 L13.7503226,117.014762 L13.9680749,118.109098 C15.0157344,123.43555 15.4517536,126.630701 15.4961789,129.813062 L15.5,130.363803 L15.4986382,202.726463 L15.4934181,203.090218 C15.4568284,204.803612 15.2408559,205.93502 14.2072064,209.395283 L13.8741392,210.49892 L12.9944798,213.360711 C11.3705622,218.615762 10.6291878,222.221596 10.6225175,226.336705 L10.625,226.813908 L10.625,256.363 L52.365,256.363 L52.3650581,226.813908 C52.4147513,222.650869 51.7287391,219.026533 50.1775839,213.87667 L48.7746336,209.267723 L48.4777925,208.260446 L48.2048144,207.298193 C47.5804972,205.034016 47.4978274,204.173786 47.4906382,202.638286 L47.4900581,130.363803 C47.4900581,126.255149 48.0854638,122.280001 49.4878575,115.705502 L50.4003589,111.478474 L50.9181962,108.996246 L51.1284487,107.94676 C52.0995662,103.020866 52.4228311,100.165233 52.3652988,96.9545724 L52.2833,92.6503749 L52.1901446,88.2956687 L52.079516,83.6720978 C51.4483023,58.695596 50.3450289,36.9249256 48.7702777,18.3622491 Z M15.9519795,8.35693865 C15.6703305,10.637125 15.3993105,12.9726897 15.1389215,15.3636269 L17.703,15.363 L15.9519795,8.35693865 Z M47.9026295,8.93575401 L46.296,15.363 L48.5092539,15.3631085 C48.3627037,13.7215224 48.2123239,12.1059962 48.0581149,10.5165315 L47.9026295,8.93575401 Z" id="形状" fill-opacity="0.7" fill="#999999" fill-rule="nonzero"></path>
            <path d="M35.5,98.8638034 L27.5,98.8638034 C25.0147186,98.8638034 23,100.878522 23,103.363803 L23,111.363803 C23,113.849085 25.0147186,115.863803 27.5,115.863803 L35.5,115.863803 C37.9852814,115.863803 40,113.849085 40,111.363803 L40,103.363803 C40,100.878522 37.9852814,98.8638034 35.5,98.8638034 Z M27.5,99.8638034 L35.5,99.8638034 C37.4329966,99.8638034 39,101.430807 39,103.363803 L39,111.363803 C39,113.2968 37.4329966,114.863803 35.5,114.863803 L27.5,114.863803 C25.5670034,114.863803 24,113.2968 24,111.363803 L24,103.363803 C24,101.430807 25.5670034,99.8638034 27.5,99.8638034 Z" id="矩形备份-9" fill-opacity="0.7" fill="#999999" fill-rule="nonzero"></path>
            <text id="CONNECT备份" font-family="PingFangSC-Semibold, PingFang SC" font-size="4" font-weight="500" fill="#999999">
                <tspan x="22.08" y="95.3638034">CONNECT</tspan>
            </text>
            <text id="WAN" font-family="PingFangSC-Semibold, PingFang SC" font-size="4" font-weight="500" fill="#999999">
                <tspan x="27.272" y="211.363803">WAN</tspan>
            </text>
            <text id="LAN" font-family="PingFangSC-Semibold, PingFang SC" font-size="4" font-weight="500" fill="#999999">
                <tspan x="27.994" y="127.363803">LAN</tspan>
            </text>
            <text id="POWER备份" font-family="PingFangSC-Semibold, PingFang SC" font-size="4" font-weight="500" fill="#999999">
                <tspan x="25.056" y="238.363803">POWER</tspan>
            </text>
            <text id="RESET备份" font-family="PingFangSC-Semibold, PingFang SC" font-size="4" font-weight="500" fill="#999999">
                <tspan x="25.006" y="76.3638034">RESET</tspan>
            </text>
            <circle id="椭圆形备份-2" fill-opacity="0.5" fill="#999999" cx="32" cy="80.8638034" r="1.5"></circle>
            <circle id="椭圆形备份-3" fill-opacity="0.5" fill="#999999" cx="29.5" cy="227.363803" r="5"></circle>
            <path d="M32,132.363803 L32,134.462803 L35.2142857,134.463803 L35.215,138.663803 L37.3571429,138.663803 L37.358,139.713803 L39.5,139.713803 L39.5,146.013803 L37.358,146.013803 L37.3571429,147.063803 L35.215,147.063803 L35.2142857,151.263803 L32,151.263803 L32,153.363803 L26.6428571,153.363803 L26.643,151.263803 L24.5,151.263803 L24.5,134.463803 L26.643,134.462803 L26.6428571,132.363803 L32,132.363803 Z M31.5,147.772894 L26.5,147.772894 L26.5,148.863803 L31.5,148.863803 L31.5,147.772894 Z M31.5,145.591076 L26.5,145.591076 L26.5,146.681985 L31.5,146.681985 L31.5,145.591076 Z M31.5,143.409258 L26.5,143.409258 L26.5,144.500167 L31.5,144.500167 L31.5,143.409258 Z M31.5,141.22744 L26.5,141.22744 L26.5,142.318349 L31.5,142.318349 L31.5,141.22744 Z M31.5,139.045622 L26.5,139.045622 L26.5,140.136531 L31.5,140.136531 L31.5,139.045622 Z M31.5,136.863803 L26.5,136.863803 L26.5,137.954713 L31.5,137.954713 L31.5,136.863803 Z" id="形状结合" fill-opacity="0.5" fill="#999999"></path>
            <path d="M32,157.363803 L32,159.462803 L35.2142857,159.463803 L35.215,163.663803 L37.3571429,163.663803 L37.358,164.713803 L39.5,164.713803 L39.5,171.013803 L37.358,171.013803 L37.3571429,172.063803 L35.215,172.063803 L35.2142857,176.263803 L32,176.263803 L32,178.363803 L26.6428571,178.363803 L26.643,176.263803 L24.5,176.263803 L24.5,159.463803 L26.643,159.462803 L26.6428571,157.363803 L32,157.363803 Z M31.5,172.772894 L26.5,172.772894 L26.5,173.863803 L31.5,173.863803 L31.5,172.772894 Z M31.5,170.591076 L26.5,170.591076 L26.5,171.681985 L31.5,171.681985 L31.5,170.591076 Z M31.5,168.409258 L26.5,168.409258 L26.5,169.500167 L31.5,169.500167 L31.5,168.409258 Z M31.5,166.22744 L26.5,166.22744 L26.5,167.318349 L31.5,167.318349 L31.5,166.22744 Z M31.5,164.045622 L26.5,164.045622 L26.5,165.136531 L31.5,165.136531 L31.5,164.045622 Z M31.5,161.863803 L26.5,161.863803 L26.5,162.954713 L31.5,162.954713 L31.5,161.863803 Z" id="形状结合" fill-opacity="0.5" fill="#999999"></path>
            <path d="M32,182.363803 L32,184.462803 L35.2142857,184.463803 L35.215,188.663803 L37.3571429,188.663803 L37.358,189.713803 L39.5,189.713803 L39.5,196.013803 L37.358,196.013803 L37.3571429,197.063803 L35.215,197.063803 L35.2142857,201.263803 L32,201.263803 L32,203.363803 L26.6428571,203.363803 L26.643,201.263803 L24.5,201.263803 L24.5,184.463803 L26.643,184.462803 L26.6428571,182.363803 L32,182.363803 Z M31.5,197.772894 L26.5,197.772894 L26.5,198.863803 L31.5,198.863803 L31.5,197.772894 Z M31.5,195.591076 L26.5,195.591076 L26.5,196.681985 L31.5,196.681985 L31.5,195.591076 Z M31.5,193.409258 L26.5,193.409258 L26.5,194.500167 L31.5,194.500167 L31.5,193.409258 Z M31.5,191.22744 L26.5,191.22744 L26.5,192.318349 L31.5,192.318349 L31.5,191.22744 Z M31.5,189.045622 L26.5,189.045622 L26.5,190.136531 L31.5,190.136531 L31.5,189.045622 Z M31.5,186.863803 L26.5,186.863803 L26.5,187.954713 L31.5,187.954713 L31.5,186.863803 Z" id="形状结合" fill-opacity="0.5" fill="#FF5B5B"></path>
            <polyline id="直线-15" stroke="#999999" stroke-linecap="square" points="22.5 182.363803 20.5 182.363803 20.5 209.863803 25 209.863803"></polyline>
            <polyline id="直线-15备份" stroke="#999999" stroke-linecap="square" points="40.5 182.363803 42.5 182.363803 42.5 209.863803 38.5 209.863803"></polyline>
            <polyline id="直线-15" stroke="#999999" stroke-linecap="square" transform="translate(22.750000, 152.863803) scale(1, -1) translate(-22.750000, -152.863803) " points="22.5 126.363803 20.5 126.363803 20.5 179.363803 25 179.363803"></polyline>
            <polyline id="直线-15备份" stroke="#999999" stroke-linecap="square" transform="translate(40.500000, 152.863803) scale(1, -1) translate(-40.500000, -152.863803) " points="40.5 126.363803 42.5 126.363803 42.5 179.363803 38.5 179.363803"></polyline>
        </g>
        <g id="编组" transform="translate(166.999541, 53.999535)">
            <path d="M1.25003667,32.876829 C-4.42090116,56.0143037 9.73865803,79.3677356 32.8767273,85.0400291 L33.5856636,85.2074449 C37.3698879,86.0680646 41.2041539,86.4126196 45.0092694,86.249289 L45.641459,86.2164407 L45.6261565,86.6575101 C45.5491495,88.4680045 45.3416195,90.4545973 45.0400582,92.2044162 L44.3691896,96.0971524 L48.0297099,94.2696705 L48.3208874,94.113623 L48.661947,93.9202914 L49.0496235,93.6896165 L49.4806519,93.4215391 L49.9517671,93.1160003 C51.4320311,92.1364799 52.9102451,90.9657631 54.2948637,89.5986304 L54.685905,89.2045884 C56.3593595,87.4832876 57.7568969,85.5826333 58.7941499,83.4970883 L58.885459,83.3054407 L59.0525533,83.2408727 C71.9173323,78.1288758 81.6725644,67.1501971 85.0400365,53.4121539 C90.7110999,30.2753768 76.5509944,6.92104395 53.4132603,1.25004254 C30.2754919,-4.42096724 6.92106978,9.73896552 1.25003667,32.876829 Z M52.9371571,3.19254756 C75.0021571,8.60062449 88.5056186,30.8721629 83.0975417,52.9360091 C79.7213878,66.7094706 69.775234,77.1460091 57.4106186,81.729086 C56.193519,84.5500696 54.3243068,86.8253935 52.5045233,88.5477491 L52.0510132,88.9668136 C51.9004571,89.1026589 51.7506502,89.2346599 51.6019985,89.3628124 L51.1599152,89.7357201 L50.7271991,90.0855113 C50.6559957,90.141882 50.5852841,90.1972885 50.515115,90.2517303 L50.1010171,90.5667992 C50.0332212,90.6173797 49.9660694,90.6669944 49.8996123,90.7156428 L49.5096134,90.9959323 L49.1387254,91.2530039 L48.6235548,91.595022 L48.1650856,91.8846569 L47.7715391,92.121823 L47.1519216,92.470684 L47.0110032,92.544086 C47.4667725,89.8994706 47.7413878,86.5821629 47.6375417,84.0437014 C42.9840802,84.5560091 38.1633109,84.2756245 33.3529263,83.0975476 C11.2879263,77.6883168 -2.21553523,55.4179322 3.19254169,33.3529322 C8.60061861,11.2879322 30.8721571,-2.21552936 52.9371571,3.19254756 Z" id="Stroke-47" fill-opacity="0.5" fill="#999999" fill-rule="nonzero"></path>
            <path d="M36.4021874,2.55579195 L36.3821061,3.61948938 L36.3674221,4.26524001 L36.35182,4.91350249 L36.280231,7.53167173 L36.1939538,10.1900337 C36.1578709,11.2223522 36.0291369,12.3264201 35.8134673,13.5551177 L35.7157315,14.089487 L35.6003041,14.6762144 L35.4734593,15.2806085 L35.3311341,15.9229998 L35.1692659,16.6237189 L34.4868733,19.4888884 L34.2323856,20.6021655 L34.0806985,21.3140941 L33.9935482,21.7644755 L33.9265955,22.1579958 L33.8774863,22.5079445 L33.8438668,22.8276112 L33.8288967,23.0304616 L33.8136812,23.4292563 L33.812038,67.3284649 L33.82929,67.3441912 L33.8513171,67.349117 L34.175241,67.3298941 L34.4966686,67.3106341 L36.978198,67.1552256 L39.2998397,66.9974706 L40.9360769,66.8776277 L42.4822662,66.7564864 L44.4036951,66.5929613 L45.7395875,66.4688269 L46.9852732,66.3434251 L48.1407047,66.2167652 L49.2058343,66.0888565 L50.1806145,65.9597082 L50.7802502,65.8729253 L51.7571199,65.7198325 C52.2162118,65.6462269 52.6706124,65.5714204 53.1200491,65.495495 L53.7904474,65.3807781 L55.1080893,65.1465565 L56.3934959,64.9063625 L57.6450325,64.6606896 L58.8610642,64.4100313 C59.6096481,64.2519148 60.3364704,64.0911664 61.0397349,63.9283284 L61.7350803,63.7648138 L62.81397,63.5005937 L63.8499978,63.2336091 C64.6612394,63.0190474 65.429764,62.8023057 66.1518051,62.5845212 L66.6845613,62.4210051 L67.4182105,62.1856365 C67.655007,62.1075595 67.88396,62.0299044 68.1047989,61.9527996 L68.4299379,61.8375712 L69.042891,61.6099758 C69.7284989,61.346898 70.3097378,61.0929199 70.775007,60.8535447 C71.1374636,60.6670653 71.4176342,60.4951671 71.6070787,60.3480589 L71.6942013,60.2766179 L71.7215389,60.253345 C71.7369057,60.2409652 71.7468717,60.2351284 71.7533308,60.2374681 L71.7606262,60.2473142 L71.764038,60.2704649 L71.7508304,58.2993051 L71.7428785,55.1689262 L71.7508757,53.3465618 L71.7667281,51.9449468 L71.7661417,51.8379579 L71.7645577,51.728296 L71.7493295,51.2617737 L71.7432667,51.1378886 L71.7363058,51.0109874 L71.6995249,50.4720776 L71.6485463,49.8803355 L71.5835067,49.2321022 L71.504543,48.5237184 L71.1247468,45.4083148 L71.0239536,44.4960329 L70.9839755,43.9912523 L70.9735106,43.7191329 L70.9601696,40.4960777 L70.9370567,38.2454287 L70.8920972,35.3423179 L70.7816926,29.8004372 L70.6717433,23.9598702 L70.6368332,21.1232821 L70.6298622,18.7565687 L70.6407132,17.3362141 L70.6639465,15.969312 L70.6927562,14.8262191 L70.728154,13.7769045 L70.7669081,13.027365 L70.791456,12.6752811 C71.365874,13.1973991 71.9245181,13.7349395 72.4668822,14.2870673 L72.4380086,15.180348 L72.4195725,15.9332464 L72.4049214,16.6829093 L72.3869889,18.2148796 L72.3837151,19.0183628 L72.3840175,19.77464 L72.4008316,22.0886529 L72.4478423,25.2520874 L72.6675935,36.5820169 L72.7111931,40.0688368 L72.7225643,41.9178576 L72.7259671,43.5652789 L72.7298939,43.7403826 L72.7485525,44.0678002 L72.8128871,44.7284154 L73.2472224,48.321385 L73.3297803,49.0624383 L73.3978361,49.7428245 L73.4511947,50.3672514 L73.4622151,50.5151662 L73.4723017,50.6599513 L73.503249,51.2092661 L73.5086208,51.3395062 L73.5130406,51.467058 L73.5211377,51.9518531 L73.5148572,52.4788884 L73.4998796,54.2091329 L73.4999128,57.1285804 L73.5195135,60.3554701 C73.5195135,60.8528139 73.095148,61.3757247 72.2993774,61.9104153 L72.1091692,62.0340082 L71.8051332,62.216828 L71.642639,62.3085102 L71.4732377,62.4003538 L71.1139455,62.584465 L70.9241703,62.6767025 L70.524651,62.861466 L70.0988923,63.0465137 L69.647357,63.2317251 L69.5304998,63.2780394 L69.4120678,63.3243545 L68.9227356,63.5095855 L68.4087842,63.6946789 L67.8706763,63.8795142 L67.3088749,64.0639709 L66.7238429,64.2479285 L66.1160432,64.4312665 L65.4859387,64.6138644 L64.8339923,64.7956016 L63.8161316,65.0663303 L63.1116056,65.2453888 L62.0170453,65.5115343 L61.2628328,65.6871609 L60.0959126,65.9475937 L59.2949067,66.1190351 L58.0599662,66.3726253 L56.7862967,66.6215677 L55.916439,66.7847464 L54.5816927,67.0250386 L53.2123833,67.2595985 L52.2810802,67.4125862 L51.335573,67.5627249 L50.7449937,67.6514761 L50.1146162,67.7395685 L49.0944,67.8704779 L47.9845651,67.9999202 L46.7850681,68.1279046 L45.9355697,68.212422 L44.1169137,68.3795354 L42.6481693,68.5031999 L40.5500907,68.6658756 L38.8716608,68.7862364 L36.4938437,68.94454 L33.9560342,69.1003745 C33.1082259,69.1516938 32.3541524,68.6025614 32.1202101,67.8077702 L31.2779844,67.7138097 C31.1814948,67.8246047 31.0393915,67.8946312 30.8809326,67.8946312 C30.6808465,67.8946312 30.506838,67.7829801 30.4178113,67.6185822 L29.3371307,67.4984046 C29.286572,67.6972949 29.1228285,67.8507613 28.9188323,67.8866537 L28.8241821,67.8946236 C28.565807,67.8932317 28.3519199,67.7058924 28.308679,67.4601304 L28.3007091,67.3654802 L28.3001748,67.0835589 C27.7836615,67.302222 27.4308076,67.5376449 27.2357983,67.7724178 L27.1723714,67.8569262 C26.7075859,68.5499132 25.6528703,68.258125 25.5716344,67.4680635 L25.5667376,67.3572851 L26.0987059,25.0611717 L26.0946224,24.5505539 L26.0820387,24.0475137 L26.060455,23.5444361 L26.0293714,23.0337065 L25.9882881,22.5077098 L25.9367052,21.9588313 L25.874123,21.3794561 L25.8000414,20.7619692 L25.6153812,19.3822013 L25.1928386,16.461435 L25.0410178,15.3313061 L24.9524854,14.5972333 L24.8836393,13.9360219 L24.8477776,13.5248284 L24.8076869,12.9361625 L24.7824162,12.3616901 L24.7729011,11.9757293 L24.7686209,11.57978 L24.7542898,6.3492431 C25.3324067,6.05994352 25.917512,5.78409531 26.5091126,5.52199753 L26.5087676,6.53372387 L26.5149809,9.51080977 L26.5229885,11.5717593 L26.5309763,12.1258473 L26.5428555,12.4877593 L26.5597014,12.8350894 L26.5823838,13.1891117 L26.6283756,13.7446836 L26.6676984,14.1394177 L26.7408457,14.7817517 L26.8672719,15.7607425 L26.9858125,16.610876 L27.3553478,19.1567694 L27.5023898,20.2414853 L27.6212911,21.2149551 L27.6857475,21.8153301 L27.7389307,22.3860601 L27.7813343,22.9350641 L27.8134517,23.4702612 L27.8357766,23.9995705 C27.8387087,24.0877381 27.8412534,24.1759902 27.843421,24.264492 L27.8519823,24.7998179 L27.8530225,25.072202 L27.342038,65.5914649 L27.5019758,65.5174877 C27.6653721,65.4450476 27.8375203,65.3759664 28.0183572,65.3100544 L28.2961212,65.2135396 L28.3119256,65.2094407 L28.6392155,4.64850435 C28.9884517,4.51655079 29.339649,4.38927702 29.6927131,4.26674017 L29.3630954,65.6669806 C29.3789197,65.7000966 29.3928439,65.7345752 29.4046894,65.7703265 C29.4798032,65.9970309 29.457308,66.2325928 29.3600928,66.4314398 L29.3579256,66.4404407 L30.3539256,66.5514407 L30.3546168,57.7833775 C30.3546168,57.4927013 30.5902564,57.2570617 30.8809326,57.2570617 C31.1393114,57.2570617 31.3542045,57.443246 31.3987687,57.6887715 L31.4072483,57.7833775 L31.4069256,66.6684407 L32.0569256,66.7404407 L32.0576549,23.5166583 C32.0584738,23.4207048 32.0600356,23.3272288 32.0626121,23.2349175 L32.0736576,22.960165 L32.0879496,22.7401014 L32.118862,22.411761 L32.1637263,22.0614508 L32.2488949,21.5389448 L32.3676189,20.9263802 L32.5248993,20.1946132 L32.8719256,18.6964407 L32.9575166,3.28323002 C33.3071194,3.19355616 33.6581841,3.10842367 34.0106269,3.02788338 L33.9499256,13.9744407 L33.992172,13.7620535 C34.2190671,12.5677125 34.3633531,11.5085341 34.4211668,10.5389387 L34.4406386,10.1287496 L34.463491,9.46313217 L34.4854295,8.80003043 L34.5640438,6.17278101 L34.5814126,5.52225824 L34.5978675,4.87425136 L34.6415493,2.88892927 C35.2249477,2.76525709 35.8119521,2.65413551 36.4021874,2.55579195 Z M59.3457584,5.32779091 L59.3293378,5.73693384 C59.3102204,6.125444 59.2845189,6.51228898 59.2519509,6.91294832 L59.1723932,7.78462762 L58.9112248,10.2996057 L58.8467888,10.9823439 L58.7593967,12.0260683 L58.7073142,12.7409298 L58.638466,13.8520191 L58.5987552,14.6245774 L58.5639981,15.427375 L58.521157,16.6972211 L58.4987969,17.5935187 L58.4745649,19.0227949 L58.4646199,20.0381662 L58.4590241,21.6652332 L58.4590241,51.8498444 C58.4590241,52.3343047 58.0662915,52.7270374 57.5818311,52.7270374 C57.134637,52.7270374 56.7656013,52.3924013 56.7114727,51.9598777 L56.7046382,51.8498444 L56.7052711,21.1020856 L56.714763,19.4988629 L56.7356398,18.0142286 L56.7558793,17.0835346 L56.7957164,15.7658563 L56.8469212,14.5299369 L56.9094872,13.3619651 L56.9575065,12.6142457 L57.0389938,11.5288288 L57.1318251,10.4745299 L57.4512981,7.36129628 C57.5422462,6.39819112 57.5940986,5.56084287 57.6111545,4.63564514 C58.1961735,4.85228111 58.7747914,5.08400651 59.3457584,5.32779091 Z M31.8543676,3.58262049 L31.6354356,25.8387714 C31.6328891,26.0971377 31.4445959,26.3101854 31.1986432,26.3523277 L31.1039582,26.3598745 C30.845592,26.357328 30.6325442,26.1690348 30.590402,25.9230821 L30.5828551,25.8283972 L30.7986444,3.90035859 C31.1488778,3.78980756 31.5008153,3.68387685 31.8543676,3.58262049 Z" id="形状结合" fill="#999999"></path>
            <path d="M30.9998738,27.5451799 C31.2834501,27.547604 31.5169501,27.7564933 31.5588677,28.027944 L31.5655505,28.1205472 L31.3373377,55.0496586 C31.3346675,55.3647434 31.0770761,55.6180055 30.7619913,55.6153562 C30.478415,55.6129321 30.2449151,55.4040428 30.2029974,55.1325921 L30.1963146,55.0399889 L30.4245274,28.1108775 C30.4271976,27.7957927 30.684789,27.5425306 30.9998738,27.5451799 Z" id="直线-11备份-29" fill="#2A75FF" fill-rule="nonzero"></path>
            <ellipse id="椭圆形" fill="#367DFF" opacity="0.5" filter="url(#filter-1)" cx="30.7636169" cy="41.1583596" rx="8" ry="17.5"></ellipse>
        </g>
        <path d="M107.00335,125.584901 C107.224138,111.971076 118.331877,101 131.998242,101 C145.805576,101 157,112.193242 157,125.998242 C157,139.806167 145.806167,151 131.998242,151 C118.331292,151 107.224126,140.028345 107.003349,126.41167 L107,125.998242 L107.00335,125.584901 Z M109,125.998242 C109,138.701597 119.298403,149 131.998242,149 C144.701597,149 155,138.701597 155,125.998242 C155,113.298403 144.701597,103 131.998242,103 C119.298403,103 109,113.298403 109,125.998242 Z" id="Fill-20" fill-opacity="0.9" fill="#F84343" fill-rule="nonzero"></path>
    </g>
</svg>