<svg xmlns="http://www.w3.org/2000/svg" width="300" height="300"><defs><filter id="a" width="300%" height="194.6%" x="-100%" y="-47.3%" filterUnits="objectBoundingBox"><feGaussianBlur in="SourceGraphic" stdDeviation="6"/></filter></defs><g fill="none" fill-rule="evenodd"><g transform="translate(90.5 8.497)"><path fill="#999" fill-opacity=".7" fill-rule="nonzero" d="M49.57 93.194h-8.13a4.564 4.564 0 0 0-4.563 4.565v8.111a4.564 4.564 0 0 0 4.564 4.564h8.128a4.564 4.564 0 0 0 4.564-4.564v-8.11a4.564 4.564 0 0 0-4.564-4.565Zm-8.13 1h8.13a3.564 3.564 0 0 1 3.563 3.565v8.111a3.564 3.564 0 0 1-3.564 3.564h-8.128a3.564 3.564 0 0 1-3.564-3.564v-8.11a3.564 3.564 0 0 1 3.564-3.565Z"/><path fill="#999" fill-rule="nonzero" d="M37.487 89.962c.312 0 .58-.09.804-.268.24-.19.39-.455.455-.796h-.463c-.057.22-.154.386-.293.496a.83.83 0 0 1-.508.15c-.317 0-.552-.102-.703-.297-.138-.182-.207-.446-.207-.787 0-.333.07-.593.211-.78.155-.21.382-.312.687-.312.203 0 .37.04.5.13a.671.671 0 0 1 .272.418h.464a1.07 1.07 0 0 0-.382-.699c-.22-.178-.504-.267-.846-.267-.463 0-.817.15-1.06.458-.216.268-.321.621-.321 1.052 0 .438.101.787.308 1.047.236.3.598.455 1.082.455Zm2.995 0c.443 0 .792-.142 1.048-.426.244-.272.366-.63.366-1.076 0-.447-.122-.808-.366-1.08-.256-.288-.605-.43-1.048-.43-.447 0-.797.142-1.049.434-.244.276-.361.633-.361 1.076 0 .438.117.796.361 1.072.252.284.602.43 1.049.43Zm0-.418c-.301 0-.537-.102-.7-.3-.158-.195-.235-.455-.235-.784 0-.333.077-.593.236-.788.166-.203.398-.304.699-.304.3 0 .532.093.695.288.158.195.24.463.24.804 0 .34-.082.605-.24.796-.163.19-.394.288-.695.288Zm2.337.361v-2.12h.016l1.45 2.12h.464v-2.899h-.48v2.091h-.016l-1.434-2.09h-.476v2.898h.476Zm2.975 0v-2.12h.016l1.45 2.12h.464v-2.899h-.48v2.091h-.016l-1.434-2.09h-.476v2.898h.476Zm4.661 0V89.5H48.77v-.877h1.52v-.406h-1.52v-.804h1.617v-.406h-2.093v2.9h2.162Zm1.715.057c.313 0 .581-.09.805-.268.24-.19.39-.455.455-.796h-.463c-.057.22-.155.386-.293.496a.83.83 0 0 1-.508.15c-.317 0-.553-.102-.703-.297-.138-.182-.207-.446-.207-.787 0-.333.069-.593.211-.78.155-.21.382-.312.687-.312.203 0 .37.04.5.13.134.089.223.227.272.418h.463a1.07 1.07 0 0 0-.382-.699c-.219-.178-.504-.267-.845-.267-.463 0-.817.15-1.06.458-.216.268-.322.621-.322 1.052 0 .438.102.787.31 1.047.235.3.597.455 1.08.455Zm2.91-.057v-2.493h.951v-.406h-2.377v.406h.95v2.493h.476Zm-7.91 142.64.57-2.18h.016l.565 2.18h.504l.837-2.899h-.536l-.545 2.205h-.016l-.573-2.205H47.5l-.573 2.205h-.016l-.545-2.205h-.536l.833 2.899h.508Zm3.02 0 .265-.727h1.215l.264.727h.508l-1.11-2.899h-.54l-1.11 2.899h.508Zm1.337-1.117h-.93l.46-1.27h.015l.455 1.27Zm1.675 1.117v-2.12h.016l1.451 2.12h.463v-2.899h-.48v2.09h-.015l-1.435-2.09h-.476v2.899h.476Zm-16.006-3.042c-.324 0-.589.1-.785.31-.192.195-.29.454-.294.777h.465c.008-.234.06-.408.162-.53.098-.125.243-.185.435-.185.179 0 .32.04.413.12.094.082.14.203.14.365 0 .17-.072.327-.208.473-.085.085-.23.194-.435.331-.345.227-.575.4-.686.526a1.066 1.066 0 0 0-.303.756h2.098v-.388h-1.522c.064-.158.26-.34.588-.546.303-.194.512-.348.63-.465.197-.206.3-.433.3-.683a.793.793 0 0 0-.278-.623c-.187-.162-.43-.238-.72-.238Zm1.812 2.365a.294.294 0 0 0-.222.085.277.277 0 0 0-.094.218c0 .08.03.154.094.214a.306.306 0 0 0 .222.081.35.35 0 0 0 .226-.08.302.302 0 0 0 .093-.215.291.291 0 0 0-.093-.218.332.332 0 0 0-.226-.085Zm.984-2.309-.166 1.617h.435a.523.523 0 0 1 .252-.23.808.808 0 0 1 .353-.069c.205 0 .359.057.47.17.11.113.166.271.166.473a.562.562 0 0 1-.192.445.705.705 0 0 1-.473.166.692.692 0 0 1-.41-.11.491.491 0 0 1-.2-.367h-.456c.021.266.14.48.358.634.196.142.43.215.703.215.303 0 .563-.085.78-.255a.91.91 0 0 0 .35-.732c0-.311-.094-.554-.273-.732-.179-.178-.413-.267-.699-.267-.136 0-.264.02-.375.065a.807.807 0 0 0-.324.198h-.013l.09-.833h1.458v-.388h-1.834Zm3.77-.056c-.448 0-.806.145-1.07.444-.252.28-.376.635-.376 1.068 0 .428.124.78.375 1.05.269.292.644.438 1.13.438.264 0 .507-.033.729-.097.209-.065.392-.154.55-.271v-1.213h-1.305v.376h.84v.626a1.27 1.27 0 0 1-.34.142 1.769 1.769 0 0 1-.423.053c-.38 0-.66-.102-.84-.304-.17-.186-.251-.453-.251-.8 0-.356.09-.635.277-.837.175-.194.41-.287.703-.287.239 0 .435.048.58.15a.674.674 0 0 1 .282.436h.468c-.055-.323-.191-.562-.409-.724-.226-.17-.533-.25-.92-.25Zm.178-110.366v-.406h-1.569v-2.493H41.9v2.899h2.04Zm.59 0 .264-.727h1.215l.264.727h.508l-1.11-2.899h-.54l-1.11 2.899h.508Zm1.337-1.117h-.931l.46-1.27h.015l.456 1.27Zm1.674 1.117v-2.12h.016l1.451 2.12h.463v-2.899h-.48v2.09h-.015l-1.435-2.09h-.475v2.899h.475ZM38.718 259.95v-1.113h.72c.706 0 1.06-.3 1.06-.897 0-.593-.354-.89-1.053-.89h-1.203v2.9h.476Zm.69-1.519h-.69v-.974h.69c.208 0 .362.036.46.113.097.073.15.195.15.37 0 .174-.049.3-.146.377-.098.074-.252.114-.463.114Zm2.785 1.575c.443 0 .792-.142 1.048-.426.244-.272.366-.63.366-1.076 0-.446-.122-.808-.366-1.08-.256-.288-.605-.43-1.048-.43-.447 0-.797.142-1.049.434-.244.276-.362.634-.362 1.076 0 .439.118.796.362 1.072.252.284.602.43 1.049.43Zm0-.418c-.301 0-.537-.101-.7-.3-.158-.195-.235-.455-.235-.784 0-.333.077-.593.236-.787.166-.203.398-.305.699-.305.3 0 .532.093.695.288.158.195.24.463.24.804s-.082.605-.24.796c-.163.19-.395.288-.695.288Zm2.938.362.569-2.18h.016l.565 2.18h.504l.837-2.9h-.536l-.545 2.205h-.016l-.573-2.204h-.492l-.573 2.204h-.016l-.545-2.204h-.536l.833 2.899h.508Zm4.958 0v-.406h-1.686v-.877h1.52v-.406h-1.52v-.804h1.617v-.406h-2.093v2.899h2.162Zm.923 0v-1.182h.752c.162 0 .288.033.373.106.082.069.13.182.147.34l.036.358a.728.728 0 0 0 .126.378h.517a.704.704 0 0 1-.175-.427l-.049-.467c-.033-.284-.175-.45-.427-.507v-.008a.63.63 0 0 0 .37-.256.69.69 0 0 0 .122-.402c0-.276-.093-.487-.272-.633-.171-.134-.407-.2-.703-.2h-1.293v2.9h.476Zm.752-1.588h-.752v-.905h.752c.195 0 .337.032.426.105.09.07.134.183.134.341 0 .146-.044.26-.134.341-.097.077-.24.118-.426.118ZM39.667 70.62v-1.18h.752c.162 0 .288.032.374.106.081.069.13.182.146.34l.037.358a.728.728 0 0 0 .126.377h.516a.704.704 0 0 1-.175-.426l-.049-.467c-.032-.284-.175-.45-.427-.507v-.008a.63.63 0 0 0 .37-.256.69.69 0 0 0 .122-.402c0-.276-.093-.487-.272-.633-.17-.134-.407-.2-.703-.2H39.19v2.9h.476Zm.752-1.587h-.752v-.905h.752c.195 0 .337.032.427.105.089.07.134.183.134.341 0 .146-.045.26-.134.341-.098.077-.24.118-.427.118Zm3.767 1.587v-.406H42.5v-.877h1.52v-.406H42.5v-.803h1.617v-.406h-2.093v2.898h2.162Zm1.52.057c.37 0 .659-.077.862-.223a.728.728 0 0 0 .305-.617c0-.268-.126-.475-.378-.625-.114-.065-.366-.163-.76-.285a4.086 4.086 0 0 1-.496-.178c-.138-.073-.203-.175-.203-.297 0-.138.057-.24.178-.3.098-.053.236-.077.42-.077.21 0 .373.036.479.118.105.077.183.207.223.385h.472c-.029-.316-.147-.552-.35-.702-.19-.142-.46-.211-.8-.211-.313 0-.57.069-.773.21a.687.687 0 0 0-.325.606c0 .256.11.45.333.584.086.05.31.13.667.244.321.097.508.162.565.19.179.09.272.212.272.366 0 .122-.065.215-.187.289-.122.069-.292.105-.504.105-.24 0-.414-.045-.528-.126-.126-.093-.203-.252-.236-.47h-.471c.02.369.154.637.398.807.2.138.48.207.837.207Zm3.735-.057v-.406h-1.686v-.877h1.52v-.406h-1.52v-.803h1.617v-.406H47.28v2.898h2.162Zm1.65 0v-2.492h.951v-.406h-2.377v.406h.95v2.492h.476Z"/><ellipse cx="46.013" cy="74.917" fill="#999" fill-opacity=".5" rx="1.524" ry="1.522"/><ellipse cx="43.473" cy="248.514" fill="#999" fill-opacity=".5" rx="5.08" ry="5.075"/><path fill="#999" fill-opacity=".5" d="M45.013 187.72v1.84H47.8v3.68h1.858v.92h1.858v5.522h-1.857l-.001.92H47.8l-.001 3.682h-2.786v1.84h-4.646v-1.84H38.51V189.56h1.859v-1.84h4.644Zm-.433 13.504h-4.336v.956h4.336v-.956Zm0-1.912h-4.336v.956h4.336v-.956Zm0-1.912h-4.336v.956h4.336v-.956Zm0-1.912h-4.336v.956h4.336v-.956Zm0-1.913h-4.336v.956h4.336v-.956Zm0-1.912h-4.336v.956h4.336v-.956Zm.433-25.597v1.84H47.8v3.681h1.858v.92h1.858v5.522h-1.857l-.001.92H47.8l-.001 3.682-2.786-.001v1.841h-4.646v-1.841H38.51v-14.723l1.859-.001v-1.84h4.644Zm-.433 13.505h-4.336v.956h4.336v-.956Zm0-1.912h-4.336v.956h4.336v-.956Zm0-1.912h-4.336v.956h4.336v-.956Zm0-1.913h-4.336v.957h4.336v-.957Zm0-1.912h-4.336v.956h4.336v-.956Zm0-1.912h-4.336v.956h4.336v-.956Zm.433-25.597v1.84H47.8v3.68l1.858.001v.92h1.858v5.522h-1.857l-.001.92H47.8l-.001 3.682-2.786-.001v1.841h-4.646v-1.841H38.51v-14.724h1.859v-1.84h4.644Zm-.433 13.505h-4.336v.956h4.336v-.956Zm0-1.912h-4.336v.956h4.336v-.956Zm0-1.912h-4.336v.956h4.336v-.956Zm0-1.913h-4.336v.956h4.336v-.956Zm0-1.912h-4.336v.956h4.336v-.956Zm0-1.912h-4.336v.956h4.336v-.956Zm.433-25.597v1.84H47.8v3.68l1.858.001v.92h1.858v5.522h-1.857l-.001.92H47.8l-.001 3.681h-2.786v1.841h-4.646v-1.841H38.51V124.6h1.859v-1.84h4.644Zm-.433 13.505h-4.336v.956h4.336v-.956Zm0-1.912h-4.336v.956h4.336v-.956Zm0-1.913h-4.336v.957h4.336v-.957Zm0-1.912h-4.336v.956h4.336v-.956Zm0-1.912h-4.336v.956h4.336v-.956Zm0-1.912h-4.336v.956h4.336v-.956Z"/><path fill="#FF5B5B" fill-opacity=".5" d="M45.013 208.29v1.84H47.8v3.68l1.858.001v.92h1.858v5.522h-1.857l-.001.92H47.8l-.001 3.681h-2.786v1.84h-4.646v-1.84H38.51V210.13h1.859v-1.84h4.644Zm-.433 13.505h-4.336v.956h4.336v-.956Zm0-1.913h-4.336v.956h4.336v-.956Zm0-1.912h-4.336v.956h4.336v-.956Zm0-1.912h-4.336v.956h4.336v-.956Zm0-1.912h-4.336v.956h4.336v-.956Zm0-1.913h-4.336v.957h4.336v-.957Z"/><path fill="#999" fill-rule="nonzero" d="M35.869 207.745v1.015h-2.033v21.484h1.573v1.015H32.82v-23.514zm22.321 0v23.514h-2.08v-1.015h1.063v-21.485l-2.032.001v-1.015zm-22.321-2.03V204.7l-2.033.001V118.36l4.573-.001v-1.015H32.82v88.371zm22.321 0v-88.371h-5.08v1.015h4.063v86.342h-2.032v1.014z"/><path fill="#999" fill-opacity=".7" fill-rule="nonzero" d="m61.447 1.101 7.382 26.45 15.589 55.427 5.397 19.115a31.421 31.421 0 0 1 1.187 8.559v105.99a31.5 31.5 0 0 1-.387 4.926l-8.455 53.4a7.5 7.5 0 0 1-6.175 6.225l-7.736 1.29a1.5 1.5 0 0 1-1.745-1.413l-.028-.568H24.525l-.027.568a1.5 1.5 0 0 1-1.612 1.428l-.133-.016-7.736-1.29a7.5 7.5 0 0 1-6.128-5.96l-.047-.264-8.454-53.4a31.5 31.5 0 0 1-.38-4.219L0 216.642v-105.99c0-2.674.34-5.334 1.013-7.916l.174-.643 5.397-19.115 15.59-55.426 7.38-26.45c.496-1.782 3.146-1.266 2.936.57a1279.562 1279.562 0 0 0-2.697 25.973l-1.108-.131c1.578.196 3.183.363 4.815.5V12.097h4v16.195c1.963.106 3.963.173 6 .199V12.096h4l.002 16.394c2.036-.026 4.036-.093 6-.199L53.5 12.096h4v15.919c1.253-.106 2.489-.229 3.709-.369a1275.23 1275.23 0 0 0-2.697-25.973c-.21-1.837 2.44-2.353 2.935-.572ZM27.582 19.353l-5.814 20.755L4.074 102.91a28.419 28.419 0 0 0-1.066 7.088l-.008.655v105.99c0 1.28.086 2.557.258 3.825l.093.632 8.455 53.4a4.5 4.5 0 0 0 3.494 3.694l.21.04 6.069 1.012.113-2.264.035-.667.035-.665.148-2.623.039-.648.039-.645.163-2.547.085-1.257.087-1.244.183-2.457.095-1.212.097-1.203.201-2.377.105-1.174.106-1.166.22-2.308.23-2.278.114-1.077.147-1.306 1.35-11.076.452-3.778.434-3.787.266-2.546.101-1.114.03-.375.037-.614.008-.236.001-83.86a45.5 45.5 0 0 0-.58-7.243l-.154-.897-3.406-18.735a44.494 44.494 0 0 1-.686-9.655c1.083-28.388 2.914-55.935 5.493-82.643l.313-3.2.102-1.015Zm35.838 0 .102 1.015c2.745 27.705 4.68 56.32 5.806 85.843a44.494 44.494 0 0 1-.686 9.655l-3.406 18.735a45.5 45.5 0 0 0-.734 8.14l.001 83.86.008.236.038.614.03.375.1 1.114.266 2.546.434 3.787.453 3.778 1.35 11.076.146 1.306.113 1.077.23 2.278.22 2.308c.073.774.143 1.554.212 2.34l.201 2.377c.066.798.13 1.603.192 2.415l.183 2.457c.059.826.116 1.66.172 2.5l.163 2.548.078 1.293.148 2.623.07 1.332.113 2.264 6.069-1.011a4.5 4.5 0 0 0 3.705-3.735l8.454-53.4a28.5 28.5 0 0 0 .351-4.457v-105.99c0-2.62-.361-5.226-1.074-7.743l-17.694-62.8-5.814-20.756Zm-1.934 11.28-1.146.127c-4.727.495-9.674.743-14.84.743-5.584 0-10.912-.29-15.984-.869-2.24 24.526-3.855 49.756-4.844 75.692a41.492 41.492 0 0 0 .511 8.26l.128.743 3.407 18.736a48.5 48.5 0 0 1 .774 7.803l.008.873v83.828l-.002.072-.013.34-.025.416-.058.762-.083.909-.14 1.413-.128 1.188-.35 3.102-.52 4.378-.923 7.543-.53 4.416-.183 1.712-.219 2.159-.21 2.186-.2 2.216-.193 2.249-.184 2.283-.175 2.32-.166 2.36-.158 2.402-.038.607-.038.61-.144 2.47-.135 2.516-.016.304h41.664l-.016-.304-.135-2.517-.144-2.47-.076-1.216-.157-2.402-.167-2.36-.175-2.32-.184-2.283-.192-2.249-.202-2.216-.21-2.186-.218-2.159-.183-1.712-.53-4.416-.923-7.543-.52-4.378-.35-3.102-.127-1.188-.141-1.413-.082-.91-.06-.76-.024-.418-.013-.339-.001-.072v-83.828c0-2.91.26-5.814.781-8.676l3.407-18.736c.54-2.969.754-5.988.639-9.003-.99-25.936-2.604-51.167-4.844-75.693Z"/></g><path fill="#F84343" fill-opacity=".9" fill-rule="nonzero" d="M111.003 108.585C111.224 94.97 122.332 84 135.998 84 149.806 84 161 95.193 161 108.998 161 122.806 149.806 134 135.998 134c-13.667 0-24.774-10.972-24.995-24.588l-.003-.414.003-.413Zm1.997.413C113 121.702 123.298 132 135.998 132 148.702 132 159 121.702 159 108.998 159 96.298 148.702 86 135.998 86 123.298 86 113 96.298 113 108.998Z"/><path fill="#999" fill-opacity=".5" fill-rule="nonzero" d="M183.25 70.876c-5.671 23.138 8.488 46.491 31.626 52.164l.71.167a43.124 43.124 0 0 0 11.423 1.042l.632-.033-.015.441a45.193 45.193 0 0 1-.586 5.547l-.671 3.893 3.66-1.828.291-.156.341-.193.388-.23.431-.269.471-.305a28.86 28.86 0 0 0 4.343-3.518l.391-.394c1.674-1.721 3.071-3.622 4.109-5.707l.091-.192.167-.065c12.865-5.112 22.62-16.09 25.988-29.828 5.67-23.137-8.49-46.491-31.627-52.162-23.138-5.671-46.492 8.489-52.163 31.626Zm51.687-29.684c22.065 5.408 35.568 27.68 30.16 49.744-3.376 13.773-13.322 24.21-25.687 28.793-1.217 2.82-3.086 5.096-4.906 6.818l-.453.42c-.151.135-.3.267-.45.395l-.442.373-.432.35-.212.166-.414.315-.202.15-.39.28-.37.257-.516.342-.458.29-.394.236-.62.35-.14.073c.455-2.645.73-5.962.626-8.5a41.06 41.06 0 0 1-14.285-.947c-22.065-5.41-35.568-27.68-30.16-49.745 5.408-22.065 27.68-35.568 49.745-30.16Z"/><path fill="#999" fill-rule="nonzero" d="m215.475 41.153-.015.566-.043 1.526-.046 1.54-.05 1.556-.054 1.568a33.82 33.82 0 0 1-.316 3.413l-.078.547-.051.345-.083.526-.091.551-.138.799-.495 2.764-.222 1.28-.095.58-.049.31-.067.461-.042.328-.027.227-.028.28-.016.199-.015.254-.012.309-.004.251v3.695l.01 13.936.021 13.72.036 12.585c0 .173.123.315.286.348l.071.007 1.576-.094 1.862-.118 1.423-.096 1.365-.097 1.622-.121 1.53-.124 1.158-.1.83-.074 1.054-.101.996-.102.936-.103.663-.077.63-.078.402-.053.575-.078.541-.08 1.033-.162.426-.068.843-.14.832-.142.82-.144.809-.147.2-.037.2-.037.788-.15.196-.038.194-.038.77-.153.19-.039.19-.038.748-.156.185-.04.184-.039.728-.158.712-.16.698-.16.681-.163.168-.041.167-.041.658-.164.641-.165.625-.166.607-.167.59-.168.57-.168.28-.084.273-.084.481-.152.117-.038.116-.037.452-.15.432-.15.413-.147a19.88 19.88 0 0 0 2.16-.914c.442-.225.77-.432.97-.607a1.08 1.08 0 0 0 .082-.075l.03-.033.031-.038 1.304-16.928.001-29.952c.469.45.926.91 1.372 1.382v28.593l-.002.053-1.307 16.971-.001.025c-.038.6-.62 1.177-1.711 1.765l-.225.117-.247.122-.064.03-.065.03-.268.123-.069.03-.07.031-.29.123-.303.124-.318.124-.332.125-.346.126-.36.126-.373.127-.388.129-.401.129-.415.13-.139.043-.14.043-.571.17-.59.171-.607.17-.625.17-.16.041-.16.042-.65.168-.165.042-.166.041-.675.166-.69.165-.707.163-.722.162-.182.04-.184.04-.744.16-.757.158-.772.156-.195.038-.196.039-.791.153-.804.15-.817.149-.829.146-.84.143-.213.036-.212.035-.858.14-.433.068-.435.068-.538.08-.571.08-.604.08-.422.053-.673.08-.467.054-.73.079-.766.079-1.073.104-1.135.103-1.196.102-1.582.127-1.334.1-1.754.124-1.472.098-1.926.12-1.25.076h-.047a1.727 1.727 0 0 1-1.521-.897l-4.047-.318a.687.687 0 0 1-1.197-.39l-.003-.065V61.463c0-.632-.032-1.288-.094-1.978l-.027-.29-.045-.429-.034-.287-.057-.439-.043-.301-.07-.47-.083-.502-.092-.54-.106-.586-.206-1.103-.256-1.354-.178-.973-.093-.526-.082-.487-.05-.305-.066-.433-.039-.274-.035-.262-.031-.254-.028-.245-.036-.356-.02-.231-.016-.228-.02-.338-.01-.224-.006-.226-.006-.343v-2.351c.454-.25.912-.491 1.374-.724v.126l-.002 2.83.004.323.009.319.015.318.013.213.016.216.03.332.024.228.042.357.032.248.036.258.062.41.07.439.11.639.093.525.22 1.184.262 1.385.158.859.103.582.091.538.08.502.07.476.061.457.037.3.033.296.028.277.102-15.49c.346-.155.694-.304 1.045-.449l-.403 61.697 1.053.083V95.93a.522.522 0 0 1 1.04-.057l.003.057v9.034l.95.075-.024-7.777-.033-18.296-.01-17.503.003-.32.003-.157.007-.2.006-.125.016-.257.022-.267.038-.36.04-.314.055-.406a.523.523 0 0 1-.284-.418l-.002-.057.26-16.498c.347-.115.696-.226 1.048-.332l-.199 12.547.15-.85.155-.926.082-.517.098-.667c.16-1.135.266-2.148.315-3.082l.017-.396.027-.785.077-2.332.046-1.537.043-1.523.004-.17c.458-.128.92-.248 1.383-.36Zm24.715 1.702-.063.365c-.13.829-.195 1.668-.195 2.509v36.538c0 .568.154 1.126.447 1.613l2.689 4.477-3.023-3.236a1.044 1.044 0 0 0-1.385-.126l-13.364 9.89 11.337-10.194a5.222 5.222 0 0 0 1.73-3.883v-34.78a9.4 9.4 0 0 0-.966-4.152c.948.294 1.88.621 2.793.979Zm-28.802-.482-.206 21.967a.522.522 0 0 1-.47.515l-.056.002a.522.522 0 0 1-.514-.47l-.002-.057.202-21.569a41.22 41.22 0 0 1 1.046-.388Z" opacity=".903"/><path fill="#2A75FF" fill-rule="nonzero" d="M210.66 66.163c.27 0 .49.204.519.465l.003.057v27.156a.522.522 0 0 1-1.04.057l-.002-.057V66.685c0-.288.233-.522.52-.522Z"/><path fill="#AAA" fill-rule="nonzero" d="M205.27 47.363c.02 4.297 1.829 9.252 1.829 14.1v43.811c0 .204.077.4.214.55l-.872-.285a2.089 2.089 0 0 1-1.441-1.986V45.377l.27-.222v2.208Z" opacity=".441"/><path fill="#367DFF" d="M0 37.936c0 10.51 4.03 19.031 9 19.031s9-8.52 9-19.03c0-10.508-4.03-19.029-9-19.029s-9 8.52-9 19.028" filter="url(#a)" opacity=".5" transform="translate(201.393 41.153)"/></g></svg>