<?xml version="1.0" encoding="UTF-8"?>
<svg width="300px" height="300px" viewBox="0 0 300 300" version="1.1" xmlns="http://www.w3.org/2000/svg" xmlns:xlink="http://www.w3.org/1999/xlink">
    <title>img/常见问题/img_m6s_power_on</title>
    <defs>
        <filter x="-108.0%" y="-33.8%" width="316.0%" height="167.5%" filterUnits="objectBoundingBox" id="filter-1">
            <feGaussianBlur stdDeviation="9" in="SourceGraphic"></feGaussianBlur>
        </filter>
    </defs>
    <g id="img/常见问题/img_m6s_power_on" stroke="none" stroke-width="1" fill="none" fill-rule="evenodd">
        <path d="M290.979845,239.000269 C290.927444,237.607498 290.75613,236.265117 290.488075,235.001344 L294.003023,235.001344 C294.525025,236.246977 294.855559,237.593389 294.962378,239.000269 L290.979845,239.000269 Z M290.488075,245.002687 C290.75613,243.736899 290.927444,242.394518 290.979845,240.999731 L294.960363,240.999731 C294.855559,242.408627 294.525025,243.753023 294.003023,245.002687 L290.488075,245.002687 Z M289.966073,247.00215 L292.957004,247.00215 C291.653006,249.035877 289.800806,250.680597 287.61001,251.730718 C288.577427,250.444773 289.381592,248.83835 289.966073,247.00215 Z M283.000672,247.00215 L287.900235,247.00215 C286.825999,250.116232 285.054417,252.3233 283.000672,252.873555 L283.000672,247.00215 Z M283.000672,240.999731 L288.980517,240.999731 C288.922069,242.408627 288.744709,243.753023 288.460531,245.002687 L283.000672,245.002687 L283.000672,240.999731 Z M283.000672,235.001344 L288.460531,235.001344 C288.744709,236.246977 288.918038,237.593389 288.980517,239.000269 L283.000672,239.000269 L283.000672,235.001344 Z M283.000672,227.12846 C285.054417,227.6767 286.825999,229.885783 287.900235,232.99785 L283.000672,232.99785 L283.000672,227.12846 Z M289.966073,232.99785 C289.381592,231.163666 288.581458,229.553212 287.61001,228.269282 C289.800806,229.319403 291.653006,230.966138 292.957004,232.99785 L289.966073,232.99785 Z M280.999328,232.99785 L276.099765,232.99785 C277.174001,229.885783 278.943567,227.6767 280.999328,227.12846 L280.999328,232.99785 Z M280.999328,239.000269 L275.019483,239.000269 C275.077931,237.593389 275.255291,236.246977 275.537454,235.001344 L280.999328,235.001344 L280.999328,239.000269 Z M280.999328,245.002687 L275.537454,245.002687 C275.255291,243.753023 275.077931,242.408627 275.019483,240.999731 L280.999328,240.999731 L280.999328,245.002687 Z M280.999328,252.873555 C278.943567,252.3233 277.174001,250.116232 276.099765,247.00215 L280.999328,247.00215 L280.999328,252.873555 Z M274.035942,247.00215 C274.620423,248.83835 275.422573,250.448804 276.38999,251.730718 C274.197178,250.680597 272.344978,249.035877 271.040981,247.00215 L274.035942,247.00215 Z M273.020155,240.999731 C273.074572,242.394518 273.24387,243.736899 273.511925,245.002687 L269.994961,245.002687 C269.47699,243.753023 269.144441,242.408627 269.037622,240.999731 L273.020155,240.999731 Z M273.511925,235.001344 C273.24387,236.265117 273.074572,237.607498 273.020155,239.000269 L269.037622,239.000269 C269.144441,237.593389 269.47699,236.246977 269.994961,235.001344 L273.511925,235.001344 Z M274.037958,232.99785 L271.040981,232.99785 C272.344978,230.966138 274.197178,229.319403 276.38999,228.269282 C275.424589,229.553212 274.622439,231.163666 274.037958,232.99785 Z M296.963722,239.000269 C296.471952,231.510347 290.488075,225.524053 283.000672,225.032249 L283.000672,225 L281.998992,225 L280.999328,225 L280.999328,225.032249 C273.511925,225.524053 267.526033,231.510347 267.034263,239.000269 L267,239.000269 L267,240 L267,240.999731 L267.034263,240.999731 C267.526033,248.489653 273.511925,254.473932 280.999328,254.965735 L280.999328,255 L281.998992,255 L283.000672,255 L283.000672,254.965735 C290.488075,254.473932 296.471952,248.489653 296.963722,240.999731 L297,240.999731 L297,240 L297,239.000269 L296.963722,239.000269 Z" id="Fill-90" fill="#009FD1"></path>
        <path d="M181,150 L181,149 L179,149 L179,150 L181,150 Z M176,150 L176,149 L174,149 L174,150 L176,150 Z M171,150 L171,149 L169,149 L169,150 L171,150 Z M166,150 L166,149 L164,149 L164,150 L166,150 Z M161,150 L161,149 L159,149 L159,150 L161,150 Z M156,150 L156,149 L154,149 L154,150 L156,150 Z M151,150 L151,149 L149,149 L149,150 L151,150 Z M146,150 L146,149 L144,149 L144,150 L146,150 Z M141,150 L141,149 L139,149 L139,150 L141,150 Z M136,150 L136,149 L134,149 L134,150 L136,150 Z M131,150 L131,149 L129,149 L129,150 L131,150 Z M126,150 L126,149 L124,149 L124,150 L126,150 Z M121,150 L121,149 L119,149 L119,150 L121,150 Z" id="直线-22备份-3" fill="#979797" fill-rule="nonzero"></path>
        <g id="编组-2" transform="translate(16.000000, 43.739748)">
            <g id="编组" fill-rule="nonzero">
                <path d="M35.7946225,0.0614802166 L35.9635137,0.104673455 L84.4566951,14.2148459 C85.8279729,14.6143732 86.8452881,15.7583715 87.0904229,17.155063 L87.120144,17.3562563 L87.4261344,19.9333119 L88.4460706,28.6456956 L89.2571239,35.7330743 L89.7654289,40.2629865 L90.3643647,45.7060523 L90.8143582,49.8850861 L91.3404075,54.8896594 L91.9182198,60.5737121 L92.2710373,64.1683234 L92.6756213,68.4425442 L92.9701393,71.6867269 L93.1740246,74.0176892 L93.3633361,76.2610888 L93.5380743,78.4169399 L93.6982395,80.4852563 L93.8891247,83.1068711 L94.0541039,85.5729271 L94.193178,87.8834577 L94.2530009,88.9804114 L94.353219,91.0577165 L94.3936144,92.0380761 L94.4420657,93.4357612 L94.4662723,94.3189877 L94.4840035,95.1633683 L94.4952594,95.968907 L94.5000026,97.104396 L94.495071,97.8128485 L94.4836645,98.4824738 L94.4836645,164.813193 L94.4791376,164.929641 L92.018,196.522252 L92.0171607,196.56707 C91.937488,197.841453 90.6876296,199.027006 88.3286372,200.222171 L88.0402382,200.365643 L87.5151925,200.614658 C87.2747636,200.725447 87.0249131,200.836411 86.7656893,200.947626 L86.3698295,201.114648 L85.7497565,201.366016 L85.0982518,201.618563 L84.9304788,201.681907 L84.9304788,201.681907 L84.7607508,201.74534 L84.0623277,202.000023 L83.3327782,202.256377 L82.1803591,202.64447 L81.3735278,202.905861 L80.5359975,203.169611 L79.5204143,203.480189 L78.9157846,203.660177 L78.9157846,203.660177 L78.300186,203.839846 L77.0365954,204.198077 C76.6082856,204.317216 76.17292,204.436067 75.7306697,204.55458 L75.0621521,204.732091 L73.6946494,205.08544 L72.2873791,205.43631 L70.8413685,205.7844 C70.3530223,205.899933 69.8583906,206.014953 69.3576444,206.129409 L68.6019609,206.300664 L67.0635925,206.640486 L65.4900785,206.976476 L63.8824457,207.308331 L62.2417214,207.635751 L60.5689326,207.958435 L58.8651064,208.276081 L57.1312697,208.588389 L56.2534184,208.742448 L56.2534184,208.742448 L55.3684497,208.895059 L53.5776735,209.195788 L51.759968,209.490276 L49.9163604,209.778223 L49.1909881,209.886687 L48.0422442,210.048408 L47.2359476,210.155572 L45.5262008,210.368349 L44.1588532,210.526579 L42.7185898,210.683654 L40.6847722,210.8913 L38.5212268,211.096912 L36.2278966,211.3005 L34.4226934,211.45187 L31.2516541,211.70165 L27.8775593,211.948319 L25.0320087,212.143428 L21.2921337,212.384548 L17.3488919,212.622616 L17.1522382,212.62928 C15.8184454,212.636389 14.6441279,211.943435 13.9778603,210.894242 L6.67895693,210.141346 C6.41059537,210.547711 5.94978935,210.815807 5.42636611,210.815807 C4.64667,210.815807 4.00591744,210.220919 3.93323269,209.460267 L3.93166205,209.447965 C3.79298073,209.239537 3.72318052,208.983474 3.7508937,208.715001 C3.76974465,208.532381 3.83159008,208.364599 3.92534393,208.220666 L3.92636611,127.64914 C3.92636611,126.480036 3.86684918,125.266104 3.75090349,123.987077 L3.69614508,123.413327 L3.63614099,122.844175 L3.57013536,122.274065 L3.45822062,121.40495 L3.32855076,120.50243 L3.17857479,119.547753 L3.06604987,118.873067 L2.80750046,117.406929 L2.49924594,115.748067 L1.80139134,112.096373 L1.50895465,110.51515 L1.25962856,109.104136 L1.05063183,107.838089 L0.918677335,106.968504 L0.84186203,106.420936 L0.773564616,105.895412 L0.713437436,105.388777 L0.637805361,104.657338 L0.596582775,104.18412 L0.547677955,103.488018 L0.513245039,102.79892 L0.497750283,102.338153 L0.484829791,101.637065 L0.487855112,95.6901983 L0.512811841,87.3629415 L0.549950877,80.6400292 L0.60194691,74.1138984 L0.66880074,67.7845414 L0.732981954,62.8627279 L0.806673077,58.0668409 L0.889874519,53.3968766 L0.982586687,48.8528312 L1.08480999,44.4347007 L1.22596478,39.0890995 L1.38198215,33.9402269 L1.55286291,28.9880752 C1.55893465,28.8227982 1.59229825,28.6596632 1.65160326,28.5052732 C1.73767392,28.2812036 1.82774436,28.0548037 1.92190693,27.8257968 L2.21676343,27.1306783 C2.5240811,26.4271855 2.86905935,25.6977396 3.25419217,24.9348703 L3.65280223,24.1605831 L4.07873623,23.3623537 L4.53254839,22.5385218 L5.01479293,21.6874275 C5.09756718,21.5432144 5.1815492,21.3977961 5.26675054,21.2511382 L5.79268282,20.3560376 L6.34843303,19.4295244 L6.9345554,18.4699386 L7.55160414,17.4756201 L8.20013348,16.4449088 L8.88069764,15.3761447 L9.3895876,14.5948594 L9.93558476,13.7818979 C10.1231749,13.5064068 10.3160593,13.2267995 10.5133478,12.9442392 L11.1175354,12.0888626 C11.2201386,11.9452111 11.3236203,11.8011121 11.4278692,11.6567111 L12.0616786,10.7878436 C12.1685511,10.6428159 12.2759683,10.497777 12.3838188,10.3528723 L13.035232,9.48621693 L13.6917044,8.62976026 L14.3478947,7.79048148 L14.9984616,6.97535976 C15.106124,6.84190695 15.2133296,6.7097515 15.3199671,6.57903878 L15.9520838,5.81323857 L16.5652237,5.08904334 C16.6655355,4.97219894 16.7648341,4.85737889 16.8630082,4.74472857 L17.4376679,4.09602672 L17.9799975,3.50637775 C18.2421896,3.22747968 18.4902549,2.97334362 18.7211889,2.74789536 C19.0885215,2.38928856 19.6106464,2.24584958 20.104273,2.35914655 L20.2513227,2.40087928 L27.0474154,4.70816372 C27.4025273,4.57522058 27.7918612,4.53230779 28.1796385,4.59379686 L28.3533706,4.62843209 L30.5348298,5.153 L30.6914455,4.9150278 C30.9057684,4.58893974 31.2686995,4.40514569 31.6441367,4.41159092 C32.046287,3.5008931 32.4324088,2.57728002 32.8044045,1.64386036 C33.283371,0.449268092 34.5541438,-0.212462205 35.7946225,0.0614802166 Z M20.0265155,30.7469463 L20.1124274,33.1731817 L20.1903226,35.6309101 L20.2602013,38.1201325 L20.3220639,40.6408496 L20.336277,41.2759501 L20.336277,41.2759501 L20.3499892,41.913019 L20.3998278,44.4809797 L20.4416507,47.0804373 L20.4754582,49.7113924 L20.5012504,52.373846 L20.5190275,55.0677989 L20.5306654,59.167791 L20.5284058,61.9404956 L20.5181319,64.7447022 L20.4876946,69.0100805 L20.4573858,71.8930461 L20.4190635,74.8075167 L20.3727277,77.7534931 L20.3183788,80.7309761 L20.2560169,83.7399666 L20.1474503,88.3125306 L20.0650569,91.4002934 L19.9264441,96.0910196 L19.8240206,99.2575597 L19.7146854,102.424712 C19.6422606,104.459772 19.4255804,106.654654 19.0716104,109.137422 L18.9716745,109.821775 L18.8671095,110.508057 L18.7570434,111.20353 L18.514047,112.662912 L18.1510314,114.720801 L17.9049012,116.072848 L17.1465772,120.281172 L16.7969316,122.331614 L16.6326823,123.374097 L16.5279343,124.101193 L16.4837085,124.434611 L16.3947636,125.196325 L16.354884,125.614097 L16.3079988,126.266627 L16.281967,126.891548 L16.2726086,127.520115 L16.2726086,133.110244 L16.2856591,156.401233 L16.3399525,189.367818 L16.3975906,208.898953 C16.3996424,209.270564 16.6774844,209.574424 17.036034,209.622486 L17.1356747,209.629111 L20.3263586,209.438626 L23.348717,209.247655 L26.9438342,209.00631 L30.3357133,208.76206 L32.902818,208.564582 L34.7427139,208.415268 L37.0819574,208.214582 L39.2909242,208.012076 L41.3695634,207.807762 L42.8429845,207.653345 L43.7845113,207.54984 L45.1356546,207.393746 L46.4134024,207.23665 L47.6177333,207.078559 L48.7486257,206.919474 L50.3763078,206.671346 L52.1862128,206.383436 L53.9696276,206.089294 L55.7255194,205.789226 L57.4528556,205.483538 L59.1506033,205.172536 L60.8177298,204.856526 L62.4532024,204.535814 L64.0559884,204.210706 L65.6250549,203.881507 L67.1593694,203.548525 L67.537397,203.464724 L67.537397,203.464724 L67.9131718,203.38071 L69.3934217,203.042625 L70.119611,202.872432 L70.119611,202.872432 L70.8363377,202.701521 L72.2408869,202.357704 L73.6060367,202.01148 L73.941047,201.924584 L73.941047,201.924584 L74.2735141,201.837561 L75.5776284,201.4883 L76.8397614,201.137397 L77.148614,201.04945 L77.148614,201.04945 L77.4547621,200.961425 L78.6519869,200.608632 L79.2339526,200.431888 L80.2240158,200.122418 L80.4647834,200.045354 L80.4647834,200.045354 L80.7028189,199.968426 L81.6273106,199.66223 L81.8514387,199.586098 L81.8514387,199.586098 L82.072736,199.510149 L82.9292886,199.208323 L83.1361854,199.133397 L83.1361854,199.133397 L83.3401527,199.0587 L84.1263988,198.762339 L84.3154723,198.688894 L84.3154723,198.688894 L84.5015177,198.615722 L85.2150896,198.325921 C85.9039546,198.03853 86.5181725,197.758612 87.0530083,197.488357 C87.7790485,197.121486 88.3362955,196.783028 88.7074139,196.492976 L88.8378247,196.386515 L88.9734739,196.262375 L89.035,196.196252 L91.483,164.760252 L91.4840436,98.4487524 L91.4951351,97.7957558 L91.4999033,97.1044659 L91.4951999,95.9957438 L91.4762699,94.8008939 L91.4431135,93.5199355 L91.4131059,92.6181346 L91.3341231,90.6997696 L91.2582897,89.1606007 L91.1350508,86.9745514 L91.0260262,85.2346714 L90.9454408,84.0269797 L90.7653048,81.4969696 L90.6136085,79.4991861 L90.3291744,75.9786022 L90.0052328,72.2194143 L89.7176353,69.0403287 L89.3225842,64.8518775 L88.8880299,60.425071 L88.3144228,54.7983994 L87.900418,50.8567478 L87.2320129,44.6585781 L86.6315621,39.23165 L85.9916162,33.5668287 L85.0293428,25.2365875 L84.14139,17.7126576 C84.1106581,17.4569926 83.9489701,17.2389481 83.720064,17.1333762 L83.6180318,17.0952353 L35.459,3.08125157 L35.1762055,3.77830533 C34.8820388,4.49172864 34.5796992,5.19966593 34.2691872,5.90211414 C34.286122,6.0532584 34.2717932,6.21108699 34.2218485,6.36597099 C34.144932,6.60449741 33.9953777,6.79934557 33.805532,6.93394365 C32.3124334,10.200891 30.639923,13.3473003 28.7879585,16.3727803 C26.1999062,20.6007773 23.4103235,24.5973537 20.4192447,28.3621644 L19.9558298,28.938 L20.0265155,30.7469463 Z M22.9341529,7.60816761 L9.185,29.9892516 L8.02382979,208.032 L9.71982979,208.207 L9.72018912,191.815807 C9.72018912,191.198893 10.2202966,190.698786 10.8372104,190.698786 C11.4129966,190.698786 11.8870315,191.134435 11.9476771,191.694095 L11.9542317,191.815807 L11.9538298,208.438 L13.3958298,208.587 L13.3558475,195.552838 L13.299903,168.339376 L13.2726081,127.505883 L13.2789127,126.949251 L13.2899675,126.549281 L13.3148852,126.015361 L13.365378,125.324116 L13.4238386,124.732248 L13.4796171,124.255013 L13.5979673,123.375828 L13.6239375,123.205746 C13.3708344,123.021558 13.1984664,122.73383 13.1682103,122.405926 L13.1635954,122.284125 L14.6392802,29.6547131 C14.6419815,29.4851478 14.6832383,29.3189979 14.7592454,29.1686215 L14.822707,29.0589897 L28.4348298,8.348 L27.1228298,7.902 L12.934,30.0062516 L11.954181,133.006998 C11.948699,133.582758 11.5085563,134.052624 10.9483439,134.107938 L10.8265753,134.113333 C10.2508151,134.107851 9.7809495,133.667709 9.72563517,133.107496 L9.72023975,132.985728 L10.7040296,29.661871 C10.7056316,29.4936199 10.745209,29.3284652 10.819148,29.1785123 L10.8809887,29.069087 L24.4898298,7.868 L22.9341529,7.60816761 Z M20.18,5.54525157 L20.1245288,5.60431326 C19.4835129,6.28801762 18.7441756,7.13975499 17.9598696,8.09017382 L17.277839,8.92736789 C17.1627465,9.07038887 17.0470474,9.21501938 16.9308973,9.36105723 L16.2298276,10.2525548 C15.9951629,10.5542716 15.7599383,10.8600002 15.525398,11.1681231 L14.8250749,12.0980572 C14.7091113,12.2537041 14.59363,12.4095453 14.4787864,12.5653784 L13.7986221,13.4986638 C13.0169289,14.5836104 12.2817287,15.6483501 11.646374,16.6235313 L11.0732667,17.5167647 L10.4287589,18.5346982 L9.81521645,19.5161297 C9.71551479,19.6767364 9.6170846,19.8358798 9.51991648,19.9935884 L8.95197762,20.9228545 L8.41387822,21.8190689 C8.32665658,21.9657603 8.2406595,22.1111321 8.15587758,22.255213 L7.66169296,23.1044375 L7.19622192,23.9240606 C7.12101119,24.0582744 7.0469781,24.1913122 6.97411326,24.323203 L6.55086818,25.1010118 C6.48263882,25.228429 6.41555894,25.3547566 6.34961918,25.4800233 L5.96758676,26.2191232 C5.53766862,27.0670909 5.16269616,27.8658936 4.83945123,28.6253936 L4.57497707,29.2669984 L4.541,29.3512516 L4.41148685,33.0887465 L4.31294964,36.1800287 L4.2199381,39.3447046 L4.1045185,43.6784279 L3.99892301,48.142599 L3.88074443,53.9062288 L3.77791745,59.8736227 L3.70670953,64.7942257 L3.63151739,71.1283108 L3.57167902,77.6660664 L3.53486358,83.042891 L3.50787546,88.5500261 L3.48796058,95.6171679 L3.48308532,101.392158 C3.4841127,101.612864 3.48689962,101.830233 3.49163819,102.04595 L3.50377441,102.475678 L3.53344383,103.135973 L3.57752351,103.803844 L3.61553219,104.258701 L3.66087024,104.725028 L3.71390757,105.206064 L3.80870896,105.962288 L3.92291457,106.76984 L4.0577729,107.639655 L4.27186835,108.915169 L4.52785868,110.346747 L4.8287033,111.960315 L5.53438561,115.654095 L5.83648219,117.298891 L6.03071409,118.410793 L6.20011302,119.439891 L6.34727773,120.405541 L6.36082979,120.502 L6.95315865,29.6652234 C6.95422233,29.5020826 6.99099842,29.3416651 7.06031544,29.1950553 L7.11835508,29.08786 L21.0305507,6.43887519 C21.1399355,6.26079727 21.2716163,6.10204323 21.4204544,5.96495143 L20.18,5.54525157 Z M16.9878298,29.831 L16.868,30.0132516 L15.5588298,112.131 L15.7944453,110.731175 L15.954059,109.713493 L16.1007803,108.720011 C16.4413139,106.332358 16.6482822,104.237205 16.7165834,102.318014 L16.7443133,101.533032 L16.7443133,101.533032 L16.7715627,100.749947 L16.8757559,97.6365687 L16.9722624,94.553529 L17.0610823,91.5008292 L17.1422159,88.47847 L17.2495047,84.0018217 L17.3114231,81.0553174 L17.3656559,78.1391566 L17.4122032,75.2533398 L17.4510652,72.3978679 L17.4822421,69.5727417 L17.5057341,66.777962 L17.5215414,64.0135294 L17.5296642,61.2794449 L17.5301028,58.575709 L17.5290117,57.9045172 L17.5290117,57.9045172 L17.5274405,57.2352222 L17.5163529,54.577011 L17.4853146,50.6466019 L17.4550179,48.0642689 L17.417038,45.5122886 L17.3713749,42.9906616 L17.3180289,40.4993888 L17.2570002,38.038471 L17.2405427,37.4279846 L17.2405427,37.4279846 L17.223605,36.8193954 L17.1510526,34.4040115 L17.1317142,33.8049087 L17.1317142,33.8049087 L17.1118956,33.2077033 L17.02782,30.837855 L16.9878298,29.831 Z" id="形状结合" fill-opacity="0.7" fill="#999999"></path>
                <path d="M60.1060274,89.3277925 L41.1802887,57.8314321 L41.1802887,57.8314321 L63.0957622,89.8546919 C63.4441757,90.3637996 64.139334,90.494068 64.6484418,90.1456545 C64.8317533,90.0202032 64.9734996,89.8429469 65.0555687,89.6365351 L73.1562785,69.2624535 L73.1562785,69.2624535 L67.3074972,89.3698839 C66.3934106,92.5124073 65.9294431,95.768649 65.9294431,99.0414166 L65.9294431,166.121087 C65.9294431,167.347715 66.2660755,168.55082 66.9026656,169.599328 L71.8321823,177.718585 L71.8321823,177.718585 L66.2990047,171.859888 C65.5257385,171.04113 64.2639465,170.925949 63.355217,171.591167 L38.3833268,189.871363 L38.3833268,189.871363 L59.2314109,171.32871 C61.6146362,169.209028 62.9780735,166.171666 62.9780735,162.982181 L62.9780735,99.6836734 C62.9780735,96.0350653 61.985259,92.4552243 60.1060274,89.3277925 Z" id="路径" fill-opacity="0.7" fill="#999999"></path>
                <path d="M10.8372104,136.254341 C11.4129966,136.254341 11.8870315,136.689991 11.9476771,137.249651 L11.9542317,137.371363 L11.9542317,187.926918 C11.9542317,188.543832 11.4541242,189.04394 10.8372104,189.04394 C10.2614242,189.04394 9.78738926,188.60829 9.72674365,188.04863 L9.72018912,187.926918 L9.72018912,137.371363 C9.72018912,136.754449 10.2202966,136.254341 10.8372104,136.254341 Z" id="路径" fill="#FF6868"></path>
                <path d="M0.507416766,101.39914 C0.544654013,109.398611 3.95068131,118.623594 3.95068131,127.64914 C3.95068131,166.231676 3.95068131,191.509454 3.95068131,203.482474 C3.95068131,205.403192 3.95068131,207.32391 3.95068131,209.244628 C3.95068131,209.647121 4.02319112,210.046322 4.16473673,210.423105 L4.33242228,210.86947 L4.33242228,210.86947 L2.56483395,210.037261 C0.999213819,209.300142 -3.34079278e-15,207.725274 0,205.994809 L0,102.857474 L0,102.857474 C0.338277844,73.042659 0.507416766,72.5565479 0.507416766,101.39914 Z" id="路径-5备份-2" fill="#AAAAAA" opacity="0.440957932"></path>
            </g>
            <path d="M0,160.257194 C0,182.349986 5.59695788,200.260252 12.4990446,200.260252 C19.4030421,200.260252 25,182.349986 25,160.257194 C25,138.170517 19.4030421,120.260252 12.4990446,120.260252 C5.59695788,120.260252 0,138.170517 0,160.257194" id="Fill-20" fill="#FF6868" opacity="0.359579904" filter="url(#filter-1)"></path>
        </g>
        <g id="编组-2备份" transform="translate(189.000000, 43.739748)" fill-rule="nonzero">
            <g id="编组">
                <path d="M35.7946225,0.0614802166 L35.9635137,0.104673455 L84.4566951,14.2148459 C85.8279729,14.6143732 86.8452881,15.7583715 87.0904229,17.155063 L87.120144,17.3562563 L87.4261344,19.9333119 L88.4460706,28.6456956 L89.2571239,35.7330743 L89.7654289,40.2629865 L90.3643647,45.7060523 L90.8143582,49.8850861 L91.3404075,54.8896594 L91.9182198,60.5737121 L92.2710373,64.1683234 L92.6756213,68.4425442 L92.9701393,71.6867269 L93.1740246,74.0176892 L93.3633361,76.2610888 L93.5380743,78.4169399 L93.6982395,80.4852563 L93.8891247,83.1068711 L94.0541039,85.5729271 L94.193178,87.8834577 L94.2530009,88.9804114 L94.353219,91.0577165 L94.3936144,92.0380761 L94.4420657,93.4357612 L94.4662723,94.3189877 L94.4840035,95.1633683 L94.4952594,95.968907 L94.5000026,97.104396 L94.495071,97.8128485 L94.4836645,98.4824738 L94.4836645,164.813193 L94.4791376,164.929641 L93.6941823,175.011257 C93.4637077,175.003772 93.2322943,175 93,175 C92.2145381,175 91.4391481,175.043123 90.6760684,175.12713 L91.483,164.760252 L91.4840436,98.4487524 L91.4951351,97.7957558 L91.4999033,97.1044659 L91.4951999,95.9957438 L91.4762699,94.8008939 L91.4431135,93.5199355 L91.4131059,92.6181346 L91.3341231,90.6997696 L91.2582897,89.1606007 L91.1350508,86.9745514 L91.0260262,85.2346714 L90.9454408,84.0269797 L90.7653048,81.4969696 L90.6136085,79.4991861 L90.3291744,75.9786022 L90.0052328,72.2194143 L89.7176353,69.0403287 L89.3225842,64.8518775 L88.8880299,60.425071 L88.3144228,54.7983994 L87.900418,50.8567478 L87.2320129,44.6585781 L86.6315621,39.23165 L85.9916162,33.5668287 L85.0293428,25.2365875 L84.14139,17.7126576 C84.1106581,17.4569926 83.9489701,17.2389481 83.720064,17.1333762 L83.6180318,17.0952353 L35.459,3.08125157 L35.1762055,3.77830533 C34.8820388,4.49172864 34.5796992,5.19966593 34.2691872,5.90211414 C34.286122,6.0532584 34.2717932,6.21108699 34.2218485,6.36597099 C34.144932,6.60449741 33.9953777,6.79934557 33.805532,6.93394365 C32.3124334,10.200891 30.639923,13.3473003 28.7879585,16.3727803 C26.1999062,20.6007773 23.4103235,24.5973537 20.4192447,28.3621644 L19.9558298,28.938 L20.0265155,30.7469463 L20.1124274,33.1731817 L20.1903226,35.6309101 L20.2602013,38.1201325 L20.3220639,40.6408496 L20.336277,41.2759501 L20.3499892,41.913019 L20.3998278,44.4809797 L20.4416507,47.0804373 L20.4754582,49.7113924 L20.5012504,52.373846 L20.5190275,55.0677989 L20.5306654,59.167791 L20.5284058,61.9404956 L20.5181319,64.7447022 L20.4876946,69.0100805 L20.4573858,71.8930461 L20.4190635,74.8075167 L20.3727277,77.7534931 L20.3183788,80.7309761 L20.2560169,83.7399666 L20.1474503,88.3125306 L20.0650569,91.4002934 L19.9264441,96.0910196 L19.8240206,99.2575597 L19.7146854,102.424712 C19.6422606,104.459772 19.4255804,106.654654 19.0716104,109.137422 L18.9716745,109.821775 L18.8671095,110.508057 L18.7570434,111.20353 L18.514047,112.662912 L18.1510314,114.720801 L17.9049012,116.072848 L17.1465772,120.281172 L16.7969316,122.331614 L16.6326823,123.374097 L16.5279343,124.101193 L16.4837085,124.434611 L16.3947636,125.196325 L16.354884,125.614097 L16.3079988,126.266627 L16.281967,126.891548 L16.2726086,127.520115 L16.2726086,133.110244 L16.2856591,156.401233 L16.3399525,189.367818 L16.3975906,208.898953 C16.3996424,209.270564 16.6774844,209.574424 17.036034,209.622486 L17.1356747,209.629111 L20.3263586,209.438626 L23.348717,209.247655 L26.9438342,209.00631 L30.3357133,208.76206 L32.902818,208.564582 L34.7427139,208.415268 L37.0819574,208.214582 L39.2909242,208.012076 L41.3695634,207.807762 L42.8429845,207.653345 L43.7845113,207.54984 L45.1356546,207.393746 L46.4134024,207.23665 L47.6177333,207.078559 L48.7486257,206.919474 L50.3763078,206.671346 L52.1862128,206.383436 L53.9696276,206.089294 L55.7255194,205.789226 L57.4528556,205.483538 L59.1506033,205.172536 L60.8177298,204.856526 L62.4532024,204.535814 L64.0559884,204.210706 L65.6250549,203.881507 L67.1593694,203.548525 L67.537397,203.464724 L67.9131718,203.38071 L69.3934217,203.042625 L70.119611,202.872432 L70.8363377,202.701521 L72.2408869,202.357704 L72.9251115,202.183314 C73.2238477,203.154341 73.5911009,204.095353 74.0212284,205.000705 L73.6946494,205.08544 L72.2873791,205.43631 L70.8413685,205.7844 C70.3530223,205.899933 69.8583906,206.014953 69.3576444,206.129409 L68.6019609,206.300664 L67.0635925,206.640486 L65.4900785,206.976476 L63.8824457,207.308331 L62.2417214,207.635751 L60.5689326,207.958435 L58.8651064,208.276081 L57.1312697,208.588389 L56.2534184,208.742448 L55.3684497,208.895059 L53.5776735,209.195788 L51.759968,209.490276 L49.9163604,209.778223 L49.1909881,209.886687 L48.0422442,210.048408 L47.2359476,210.155572 L45.5262008,210.368349 L44.1588532,210.526579 L42.7185898,210.683654 L40.6847722,210.8913 L38.5212268,211.096912 L36.2278966,211.3005 L34.4226934,211.45187 L31.2516541,211.70165 L27.8775593,211.948319 L25.0320087,212.143428 L21.2921337,212.384548 L17.3488919,212.622616 L17.1522382,212.62928 C15.8184454,212.636389 14.6441279,211.943435 13.9778603,210.894242 L6.67895693,210.141346 C6.41059537,210.547711 5.94978935,210.815807 5.42636611,210.815807 C4.64667,210.815807 4.00591744,210.220919 3.93323269,209.460267 L3.93166205,209.447965 C3.79298073,209.239537 3.72318052,208.983474 3.7508937,208.715001 C3.76974465,208.532381 3.83159008,208.364599 3.92534393,208.220666 L3.92636611,127.64914 C3.92636611,126.480036 3.86684918,125.266104 3.75090349,123.987077 L3.69614508,123.413327 L3.63614099,122.844175 L3.57013536,122.274065 L3.45822062,121.40495 L3.32855076,120.50243 L3.17857479,119.547753 L3.06604987,118.873067 L2.80750046,117.406929 L2.49924594,115.748067 L1.80139134,112.096373 L1.50895465,110.51515 L1.25962856,109.104136 L1.05063183,107.838089 L0.918677335,106.968504 L0.84186203,106.420936 L0.773564616,105.895412 L0.713437436,105.388777 L0.637805361,104.657338 L0.596582775,104.18412 L0.547677955,103.488018 L0.513245039,102.79892 L0.497750283,102.338153 L0.484829791,101.637065 L0.487855112,95.6901983 L0.512811841,87.3629415 L0.549950877,80.6400292 L0.60194691,74.1138984 L0.66880074,67.7845414 L0.732981954,62.8627279 L0.806673077,58.0668409 L0.889874519,53.3968766 L0.982586687,48.8528312 L1.08480999,44.4347007 L1.22596478,39.0890995 L1.38198215,33.9402269 L1.55286291,28.9880752 C1.55893465,28.8227982 1.59229825,28.6596632 1.65160326,28.5052732 C1.73767392,28.2812036 1.82774436,28.0548037 1.92190693,27.8257968 L2.21676343,27.1306783 C2.5240811,26.4271855 2.86905935,25.6977396 3.25419217,24.9348703 L3.65280223,24.1605831 L4.07873623,23.3623537 L4.53254839,22.5385218 L5.01479293,21.6874275 C5.09756718,21.5432144 5.1815492,21.3977961 5.26675054,21.2511382 L5.79268282,20.3560376 L6.34843303,19.4295244 L6.9345554,18.4699386 L7.55160414,17.4756201 L8.20013348,16.4449088 L8.88069764,15.3761447 L9.3895876,14.5948594 L9.93558476,13.7818979 C10.1231749,13.5064068 10.3160593,13.2267995 10.5133478,12.9442392 L11.1175354,12.0888626 C11.2201386,11.9452111 11.3236203,11.8011121 11.4278692,11.6567111 L12.0616786,10.7878436 C12.1685511,10.6428159 12.2759683,10.497777 12.3838188,10.3528723 L13.035232,9.48621693 L13.6917044,8.62976026 L14.3478947,7.79048148 L14.9984616,6.97535976 C15.106124,6.84190695 15.2133296,6.7097515 15.3199671,6.57903878 L15.9520838,5.81323857 L16.5652237,5.08904334 C16.6655355,4.97219894 16.7648341,4.85737889 16.8630082,4.74472857 L17.4376679,4.09602672 L17.9799975,3.50637775 C18.2421896,3.22747968 18.4902549,2.97334362 18.7211889,2.74789536 C19.0885215,2.38928856 19.6106464,2.24584958 20.104273,2.35914655 L20.2513227,2.40087928 L27.0474154,4.70816372 C27.4025273,4.57522058 27.7918612,4.53230779 28.1796385,4.59379686 L28.3533706,4.62843209 L30.5348298,5.153 L30.6914455,4.9150278 C30.9057684,4.58893974 31.2686995,4.40514569 31.6441367,4.41159092 C32.046287,3.5008931 32.4324088,2.57728002 32.8044045,1.64386036 C33.283371,0.449268092 34.5541438,-0.212462205 35.7946225,0.0614802166 Z M22.9341529,7.60816761 L9.185,29.9892516 L8.02382979,208.032 L9.71982979,208.207 L9.72018912,191.815807 C9.72018912,191.198893 10.2202966,190.698786 10.8372104,190.698786 C11.4129966,190.698786 11.8870315,191.134435 11.9476771,191.694095 L11.9542317,191.815807 L11.9538298,208.438 L13.3958298,208.587 L13.3558475,195.552838 L13.299903,168.339376 L13.2726081,127.505883 L13.2789127,126.949251 L13.2899675,126.549281 L13.3148852,126.015361 L13.365378,125.324116 L13.4238386,124.732248 L13.4796171,124.255013 L13.5979673,123.375828 L13.6239375,123.205746 C13.3708344,123.021558 13.1984664,122.73383 13.1682103,122.405926 L13.1635954,122.284125 L14.6392802,29.6547131 C14.6419815,29.4851478 14.6832383,29.3189979 14.7592454,29.1686215 L14.822707,29.0589897 L28.4348298,8.348 L27.1228298,7.902 L12.934,30.0062516 L11.954181,133.006998 C11.948699,133.582758 11.5085563,134.052624 10.9483439,134.107938 L10.8265753,134.113333 C10.2508151,134.107851 9.7809495,133.667709 9.72563517,133.107496 L9.72023975,132.985728 L10.7040296,29.661871 C10.7056316,29.4936199 10.745209,29.3284652 10.819148,29.1785123 L10.8809887,29.069087 L24.4898298,7.868 L22.9341529,7.60816761 Z M20.18,5.54525157 L20.1245288,5.60431326 C19.4835129,6.28801762 18.7441756,7.13975499 17.9598696,8.09017382 L17.277839,8.92736789 C17.1627465,9.07038887 17.0470474,9.21501938 16.9308973,9.36105723 L16.2298276,10.2525548 C15.9951629,10.5542716 15.7599383,10.8600002 15.525398,11.1681231 L14.8250749,12.0980572 C14.7091113,12.2537041 14.59363,12.4095453 14.4787864,12.5653784 L13.7986221,13.4986638 C13.0169289,14.5836104 12.2817287,15.6483501 11.646374,16.6235313 L11.0732667,17.5167647 L10.4287589,18.5346982 L9.81521645,19.5161297 C9.71551479,19.6767364 9.6170846,19.8358798 9.51991648,19.9935884 L8.95197762,20.9228545 L8.41387822,21.8190689 C8.32665658,21.9657603 8.2406595,22.1111321 8.15587758,22.255213 L7.66169296,23.1044375 L7.19622192,23.9240606 C7.12101119,24.0582744 7.0469781,24.1913122 6.97411326,24.323203 L6.55086818,25.1010118 C6.48263882,25.228429 6.41555894,25.3547566 6.34961918,25.4800233 L5.96758676,26.2191232 C5.53766862,27.0670909 5.16269616,27.8658936 4.83945123,28.6253936 L4.57497707,29.2669984 L4.541,29.3512516 L4.41148685,33.0887465 L4.31294964,36.1800287 L4.2199381,39.3447046 L4.1045185,43.6784279 L3.99892301,48.142599 L3.88074443,53.9062288 L3.77791745,59.8736227 L3.70670953,64.7942257 L3.63151739,71.1283108 L3.57167902,77.6660664 L3.53486358,83.042891 L3.50787546,88.5500261 L3.48796058,95.6171679 L3.48308532,101.392158 C3.4841127,101.612864 3.48689962,101.830233 3.49163819,102.04595 L3.50377441,102.475678 L3.53344383,103.135973 L3.57752351,103.803844 L3.61553219,104.258701 L3.66087024,104.725028 L3.71390757,105.206064 L3.80870896,105.962288 L3.92291457,106.76984 L4.0577729,107.639655 L4.27186835,108.915169 L4.52785868,110.346747 L4.8287033,111.960315 L5.53438561,115.654095 L5.83648219,117.298891 L6.03071409,118.410793 L6.20011302,119.439891 L6.34727773,120.405541 L6.36082979,120.502 L6.95315865,29.6652234 C6.95422233,29.5020826 6.99099842,29.3416651 7.06031544,29.1950553 L7.11835508,29.08786 L21.0305507,6.43887519 C21.1399355,6.26079727 21.2716163,6.10204323 21.4204544,5.96495143 L20.18,5.54525157 Z M16.9878298,29.831 L16.868,30.0132516 L15.5588298,112.131 L15.7944453,110.731175 L15.954059,109.713493 L16.1007803,108.720011 C16.4413139,106.332358 16.6482822,104.237205 16.7165834,102.318014 L16.7443133,101.533032 L16.7715627,100.749947 L16.8757559,97.6365687 L16.9722624,94.553529 L17.0610823,91.5008292 L17.1422159,88.47847 L17.2495047,84.0018217 L17.3114231,81.0553174 L17.3656559,78.1391566 L17.4122032,75.2533398 L17.4510652,72.3978679 L17.4822421,69.5727417 L17.5057341,66.777962 L17.5215414,64.0135294 L17.5296642,61.2794449 L17.5301028,58.575709 L17.5290117,57.9045172 L17.5274405,57.2352222 L17.5163529,54.577011 L17.4853146,50.6466019 L17.4550179,48.0642689 L17.417038,45.5122886 L17.3713749,42.9906616 L17.3180289,40.4993888 L17.2570002,38.038471 L17.2405427,37.4279846 L17.223605,36.8193954 L17.1510526,34.4040115 L17.1317142,33.8049087 L17.1118956,33.2077033 L17.02782,30.837855 L16.9878298,29.831 Z" id="形状结合" fill-opacity="0.7" fill="#999999"></path>
                <path d="M60.1060274,89.3277925 L41.1802887,57.8314321 L41.1802887,57.8314321 L63.0957622,89.8546919 C63.4441757,90.3637996 64.139334,90.494068 64.6484418,90.1456545 C64.8317533,90.0202032 64.9734996,89.8429469 65.0555687,89.6365351 L73.1562785,69.2624535 L73.1562785,69.2624535 L67.3074972,89.3698839 C66.3934106,92.5124073 65.9294431,95.768649 65.9294431,99.0414166 L65.9294431,166.121087 C65.9294431,167.347715 66.2660755,168.55082 66.9026656,169.599328 L71.8321823,177.718585 L71.8321823,177.718585 L66.2990047,171.859888 C65.5257385,171.04113 64.2639465,170.925949 63.355217,171.591167 L38.3833268,189.871363 L38.3833268,189.871363 L59.2314109,171.32871 C61.6146362,169.209028 62.9780735,166.171666 62.9780735,162.982181 L62.9780735,99.6836734 C62.9780735,96.0350653 61.985259,92.4552243 60.1060274,89.3277925 Z" id="路径" fill-opacity="0.7" fill="#999999"></path>
                <path d="M10.8372104,136.254341 C11.4129966,136.254341 11.8870315,136.689991 11.9476771,137.249651 L11.9542317,137.371363 L11.9542317,187.926918 C11.9542317,188.543832 11.4541242,189.04394 10.8372104,189.04394 C10.2614242,189.04394 9.78738926,188.60829 9.72674365,188.04863 L9.72018912,187.926918 L9.72018912,137.371363 C9.72018912,136.754449 10.2202966,136.254341 10.8372104,136.254341 Z" id="路径" fill="#C7C7C7"></path>
                <path d="M0.507416766,101.39914 C0.544654013,109.398611 3.95068131,118.623594 3.95068131,127.64914 C3.95068131,166.231676 3.95068131,191.509454 3.95068131,203.482474 C3.95068131,205.403192 3.95068131,207.32391 3.95068131,209.244628 C3.95068131,209.647121 4.02319112,210.046322 4.16473673,210.423105 L4.33242228,210.86947 L4.33242228,210.86947 L2.56483395,210.037261 C0.999213819,209.300142 -3.34079278e-15,207.725274 0,205.994809 L0,102.857474 L0,102.857474 C0.338277844,73.042659 0.507416766,72.5565479 0.507416766,101.39914 Z" id="路径-5备份-2" fill="#AAAAAA" opacity="0.440957932"></path>
            </g>
        </g>
    </g>
</svg>