<svg xmlns="http://www.w3.org/2000/svg" width="300" height="300"><defs><filter id="a" width="369.3%" height="165.1%" x="-134.6%" y="-32.5%" filterUnits="objectBoundingBox"><feGaussianBlur in="SourceGraphic" stdDeviation="9.774"/></filter></defs><g fill="none" fill-rule="evenodd"><path fill="#999" fill-rule="nonzero" d="m136.863 15.072.171.045 61.683 18.057a4.108 4.108 0 0 1 2.895 3.241l.031.212.768 6.522.735 6.323.872 7.624.821 7.314.77 7.002.719 6.691.406 3.866.513 4.98.595 5.946.544 5.636.398 4.285.366 4.086.332 3.887.3 3.689.266 3.49.179 2.488.16 2.375.141 2.265.124 2.152.104 2.041.086 1.93.068 1.817.035 1.15.037 1.632.018 1.52v1.409l-.002.223-.002.221-.015.853v84.384l-.004.126-3.112 40.194-.002.058c-.092 1.461-1.553 2.868-4.298 4.3l-.31.159-.587.288-.152.072-.154.072-.639.29-.164.073-.167.072-.69.291-.723.293-.756.294-.79.296-.823.297-.856.3-.89.301-.922.304-.954.306-.987.308-.33.102-.334.101-1.36.406-1.404.403-1.446.403-1.487.4-.379.1-.38.1-1.548.396-.393.1-.396.098-1.606.393-1.645.39-1.68.387-1.718.383-.435.096-.437.095-1.77.377-1.802.374-1.837.369-.464.091-.466.091-1.883.362-1.915.357-1.944.352-1.972.345-2.001.34-.505.084-.506.084-2.04.33-1.03.164-1.037.16-1.28.192-1.36.19-1.438.187-1.002.125-1.602.19-1.114.126-1.738.188-1.82.187-2.556.246-2.7.245-2.847.242-3.764.3-3.175.237-4.174.293-3.504.232-4.585.287-2.973.178h-.113a4.114 4.114 0 0 1-3.62-2.123l-9.63-.755c-.3.338-.738.55-1.225.55a1.632 1.632 0 0 1-1.626-1.471l-.008-.157V177.149c0-1.497-.075-3.05-.223-4.685l-.064-.684-.108-1.017-.08-.681-.136-1.04-.101-.713-.17-1.115-.194-1.187-.221-1.278-.25-1.388-.49-2.612-.611-3.208-.424-2.304-.22-1.245-.196-1.154-.118-.724-.157-1.025-.093-.647-.084-.623-.075-.6-.067-.582-.084-.843-.047-.547-.04-.54-.046-.799-.022-.532-.017-.534-.014-.812-.002-.276.006-6.709.02-8.194.037-7.982.03-4.686.049-6.129.075-7.47.091-7.255.062-4.251.093-5.549.102-5.412.143-6.574.093-3.841.099-3.765.104-3.688.188-5.977.161-4.627c.006-.178.042-.354.106-.52l.309-.784a52.052 52.052 0 0 1 1.716-3.753l.457-.894.486-.92c.167-.31.339-.626.515-.946l.545-.975.575-1.005c.099-.17.198-.342.3-.515l.62-1.053.323-.539.67-1.104.7-1.141.735-1.18.768-1.218.396-.625.586-.906.309-.467.644-.956c.22-.323.446-.65.676-.98l.703-.998.36-.503.733-1.01.748-1.011.756-1.005.76-.991.757-.971.75-.944.739-.91.72-.869.7-.822c.228-.265.452-.52.67-.767l.638-.706c.413-.448.8-.851 1.155-1.2a1.636 1.636 0 0 1 1.514-.427l.162.046 8.498 2.902a2.484 2.484 0 0 1 1.493-.219l.182.037 2.984.723.266-.405a1.242 1.242 0 0 1 1.267-.54 110.622 110.622 0 0 0 1.563-3.76 2.877 2.877 0 0 1 3.313-1.742Zm-.41 3.27-.354.887c-.39.959-.793 1.91-1.206 2.853a1.233 1.233 0 0 1-.647 1.446 112.664 112.664 0 0 1-6.296 11.906 151.994 151.994 0 0 1-10.71 15.41l-.563.703.057-.071.087 2.17.1 2.814.092 2.846.022.717.02.719.08 2.897.07 2.93.063 2.964.014.746.014.748.05 3.014.04 3.047.033 3.08.024 3.114.016 3.148.003.792.002.794.003 3.197-.005 3.231-.014 3.265-.022 3.297-.03 3.332-.04 3.364-.048 3.398-.056 3.432-.015.863-.016.865-.068 3.481-.12 5.286-.137 5.36-.103 3.615-.11 3.649-.12 3.682-.128 3.716c-.092 2.61-.371 5.432-.828 8.632l-.108.745-.124.817-.197 1.247-.216 1.304-.328 1.892-1.179 6.547-.528 3.032-.226 1.373-.115.733-.16 1.094-.102.777-.062.536-.067.665-.038.47-.037.601-.027.733-.01.595v8.752l.021 33.005.053 32.494.085 29.808c.002.43.326.783.744.834l.106.007 3.75-.224 4.432-.28 3.387-.227 3.247-.228 3.862-.289 3.642-.292 2.756-.235 1.974-.178 2.51-.24 2.369-.24 2.228-.244 1.579-.184 1.5-.184.956-.124 1.367-.187 1.289-.187 2.458-.384.508-.081.506-.082 2.007-.33 1.98-.336 1.952-.343 1.924-.347.476-.088.474-.088 1.879-.355.465-.09.462-.09 1.832-.362.453-.092.45-.091 1.783-.37.44-.092.438-.093 1.731-.375 1.696-.378 1.66-.382 1.623-.385.4-.096.397-.097 1.565-.389 1.527-.391 1.486-.393 1.444-.396 1.403-.396 1.36-.398.663-.2.653-.199 1.144-.36.279-.089.276-.089 1.075-.356 1.029-.353.98-.35c2.074-.754 3.803-1.482 5.144-2.164 1.05-.534 1.83-1.024 2.31-1.437.074-.064.139-.124.192-.178l.073-.077.073-.09 3.104-40.094.001-84.366.014-.833.006-1.341-.006-.955-.014-1.004-.022-1.053-.048-1.67-.066-1.781-.084-1.89-.066-1.322-.075-1.37-.126-2.146-.094-1.492-.156-2.329-.115-1.614-.252-3.373-.139-1.76-.38-4.613-.253-2.914-.365-4.055-.397-4.25-.429-4.445-.461-4.639-.493-4.834-.662-6.316-.712-6.62-.605-5.514-.637-5.709-.842-7.409-.892-7.712-.945-8.033a.846.846 0 0 0-.497-.672l-.105-.039-61.343-17.958Zm-15.767 5.893-17.475 28.62-1.485 226.932 2.506.196v-21.202a1.24 1.24 0 0 1 1.24-1.237c.64 0 1.166.482 1.234 1.102l.007.135v21.397l2.26.177-.056-18.418-.08-43.334-.021-41.454.006-.76.008-.37.016-.472.014-.298.038-.607.053-.634.09-.85.093-.745.134-.962a1.238 1.238 0 0 1-.676-.99l-.005-.134 1.866-117.842c.003-.186.048-.369.131-.534l.07-.121 17.398-26.635-2.004-.685-18.095 28.36-1.24 131.093a1.238 1.238 0 0 1-1.117 1.22l-.135.005a1.239 1.239 0 0 1-1.222-1.113l-.006-.135 1.244-131.447c.002-.185.045-.366.126-.531l.068-.121 17.362-27.212-2.347-.394Zm23.156 64.093 27.896 41.01a1.237 1.237 0 0 0 2.173-.241l10.365-26.226-7.63 26.39a38.342 38.342 0 0 0-1.508 10.648v86.503c0 1.352.369 2.678 1.067 3.835l6.397 10.6-7.206-7.676a2.474 2.474 0 0 0-3.27-.299l-31.82 23.435 26.979-24.142a12.368 12.368 0 0 0 4.12-9.217V140.62c0-4.02-1.088-7.964-3.149-11.416l-24.414-40.876Zm-26.627-66.836-.104.11c-.94 1.003-2.052 2.3-3.228 3.751l-.793.99-.401.508-.809 1.041-.81 1.063-.804 1.077-.792 1.082-.773 1.076a113.98 113.98 0 0 0-1.458 2.102l-.672 1.006-.318.489-.278.432-1.134 1.796-.715 1.149-.683 1.11-.652 1.075-.62 1.04-.588 1.007-.559.974-.268.476-.514.928-.484.9a71.48 71.48 0 0 0-.672 1.3l-.413.834a46.35 46.35 0 0 0-1.228 2.74l-.195.487-.19 5.524-.183 6.01-.168 6.222-.152 6.435-.083 3.964-.102 5.405-.114 6.948-.08 5.712-.068 5.848-.085 9.028-.052 7.759-.037 7.971-.02 8.185-.006 6.7.01.767.021.754.035.753.032.505.038.512.07.787.058.54.1.844.077.588.086.612.146.97.168 1.04.26 1.513.222 1.243.523 2.806.625 3.28.377 2.034.245 1.378.216 1.274.19 1.19.167 1.127.146 1.083.086.708.08.703.067.653.779-118.913c.001-.18.041-.356.117-.517l.064-.118 17.653-28.914c.185-.304.43-.557.711-.75l-2.064-.706Zm-3.727 30.527-.56.86-1.7 107.291.356-2.001.368-2.193.194-1.226.234-1.578c.438-3.073.703-5.768.79-8.238l.033-.93.032-.928.182-5.524.111-3.64.102-3.608.094-3.574.085-3.54.02-.88.02-.877.073-3.49.064-3.457.056-3.423.047-3.39.04-3.356.03-3.323.022-3.29.014-3.255.005-3.223-.007-4.77-.027-4.696-.028-3.089-.037-3.055-.045-3.021-.054-2.989-.062-2.954-.017-.734-.017-.731-.075-2.905-.02-.72-.02-.72-.088-2.854-.095-2.82-.105-2.788-.015-.361Z" opacity=".7"/><path fill="#FF8C31" fill-rule="nonzero" d="M105.473 188.28c.64 0 1.165.483 1.233 1.103l.007.134v64.316c0 .683-.555 1.237-1.24 1.237a1.24 1.24 0 0 1-1.233-1.102l-.007-.135v-64.316c0-.683.555-1.236 1.24-1.236Z"/><path fill="#AAA" fill-rule="nonzero" d="M92.642 143.754c.047 10.177 4.354 21.913 4.354 33.395v103.762c0 .483.182.948.51 1.302l-2.087-.677A4.947 4.947 0 0 1 92 276.83V145.61c.428-37.93.642-38.549.642-1.856Z" opacity=".441"/><path fill="#FF8C31" d="M1.947 203.897c0 24.892 4.875 45.072 10.888 45.072 6.014 0 10.89-20.18 10.89-45.072 0-24.886-4.876-45.066-10.89-45.066-6.013 0-10.888 20.18-10.888 45.066" filter="url(#a)" opacity=".36" transform="translate(92 15)"/></g></svg>