<svg xmlns="http://www.w3.org/2000/svg" width="300" height="300"><g fill="none" fill-rule="evenodd"><g transform="translate(114 13.998)"><path fill="#999" fill-opacity=".7" fill-rule="nonzero" d="M54.47 61.597h-8.932a5.02 5.02 0 0 0-5.015 5.025v8.93a5.02 5.02 0 0 0 5.015 5.024h8.932a5.02 5.02 0 0 0 5.016-5.025v-8.93a5.02 5.02 0 0 0-5.016-5.024Zm-8.932 1.101h8.932a3.92 3.92 0 0 1 3.917 3.924v8.93a3.92 3.92 0 0 1-3.917 3.923h-8.932a3.92 3.92 0 0 1-3.916-3.924v-8.93a3.92 3.92 0 0 1 3.916-3.923Z"/><path fill="#999" fill-rule="nonzero" d="M41.193 58.039c.344 0 .639-.099.884-.295.264-.21.429-.5.5-.876h-.509c-.062.241-.17.424-.321.545a.91.91 0 0 1-.558.165c-.349 0-.608-.111-.773-.326-.152-.201-.228-.492-.228-.867 0-.367.076-.653.232-.858.17-.233.42-.344.755-.344.223 0 .407.044.55.143.147.098.245.25.299.46h.509a1.178 1.178 0 0 0-.42-.769c-.241-.196-.554-.295-.929-.295-.509 0-.898.166-1.166.505-.236.295-.352.684-.352 1.158 0 .483.111.867.34 1.153.258.33.656.5 1.187.5Zm3.291 0c.487 0 .871-.157 1.153-.47.268-.3.402-.692.402-1.184s-.134-.89-.402-1.189c-.282-.317-.666-.474-1.153-.474-.49 0-.875.157-1.152.478-.268.304-.397.698-.397 1.185 0 .483.13.876.397 1.18.277.313.661.474 1.152.474Zm0-.46c-.33 0-.59-.112-.768-.331-.174-.215-.259-.501-.259-.863 0-.367.085-.653.26-.867.182-.224.437-.335.767-.335s.585.102.764.317c.174.214.264.51.264.885s-.09.666-.264.876c-.179.21-.433.317-.764.317Zm2.568.397v-2.333h.018l1.595 2.333h.509v-3.191h-.527v2.302h-.018l-1.577-2.302h-.522v3.191h.522Zm3.27 0v-2.333h.017l1.595 2.333h.509v-3.191h-.527v2.302h-.018l-1.577-2.302H49.8v3.191h.522Zm5.122 0v-.447H53.59v-.965h1.67v-.447h-1.67v-.885h1.777v-.447h-2.3v3.191h2.376Zm1.885.063c.343 0 .638-.099.884-.295.263-.21.429-.5.5-.876h-.51c-.062.241-.169.424-.32.545a.91.91 0 0 1-.559.165c-.348 0-.607-.111-.772-.326-.152-.201-.228-.492-.228-.867 0-.367.076-.653.232-.858.17-.233.42-.344.755-.344.223 0 .406.044.549.143.147.098.246.25.3.46h.508a1.178 1.178 0 0 0-.42-.769c-.24-.196-.553-.295-.928-.295-.51 0-.898.166-1.166.505-.237.295-.353.684-.353 1.158 0 .483.112.867.34 1.153.259.33.656.5 1.188.5Zm3.197-.063v-2.744h1.045v-.447H58.96v.447h1.045v2.744h.522ZM51.835 215.004l.625-2.4h.018l.62 2.4h.554l.92-3.19h-.59l-.598 2.426h-.017l-.63-2.427h-.54l-.63 2.427h-.018l-.598-2.427h-.59l.916 3.191h.558Zm3.318 0 .29-.8h1.336l.29.8h.558l-1.22-3.19h-.593l-1.22 3.19h.559Zm1.47-1.229H55.6l.504-1.399h.018l.5 1.4Zm1.84 1.23v-2.334h.017l1.595 2.333h.509v-3.19h-.527v2.3h-.018l-1.577-2.3h-.522v3.19h.522Zm-17.59-3.35c-.356 0-.646.111-.862.343-.21.214-.318.498-.323.854h.51c.01-.258.066-.45.179-.583.108-.138.267-.204.478-.204.196 0 .351.044.454.133.103.09.155.223.155.4 0 .188-.08.361-.23.522a3.481 3.481 0 0 1-.478.365c-.38.249-.632.44-.754.578-.225.24-.333.516-.333.832h2.305v-.427h-1.672c.07-.173.286-.374.646-.6.333-.214.563-.383.694-.513.215-.227.328-.476.328-.752a.873.873 0 0 0-.305-.685c-.206-.178-.473-.263-.792-.263Zm1.992 2.604a.323.323 0 0 0-.244.093.305.305 0 0 0-.103.24c0 .09.033.17.103.237.06.058.14.089.244.089a.384.384 0 0 0 .248-.09.333.333 0 0 0 .103-.235.32.32 0 0 0-.103-.24.365.365 0 0 0-.248-.094Zm1.082-2.542-.183 1.78h.478a.575.575 0 0 1 .276-.253.887.887 0 0 1 .39-.075c.224 0 .393.062.514.186.122.125.183.299.183.521 0 .205-.07.365-.21.49a.774.774 0 0 1-.52.182.76.76 0 0 1-.45-.12.541.541 0 0 1-.22-.405h-.502c.024.294.155.53.394.699.215.156.473.236.773.236.332 0 .618-.094.857-.28a1 1 0 0 0 .384-.806c0-.343-.103-.61-.3-.806-.196-.196-.454-.294-.768-.294-.15 0-.29.023-.412.072a.887.887 0 0 0-.356.218h-.014l.098-.917h1.602v-.428h-2.014Zm4.141-.062c-.492 0-.885.16-1.176.49-.276.307-.412.699-.412 1.175 0 .472.136.859.412 1.157.295.32.708.48 1.242.48.29 0 .557-.035.8-.106.23-.071.432-.17.605-.298v-1.336h-1.433v.414h.923v.69c-.113.067-.235.12-.375.156a1.94 1.94 0 0 1-.464.058c-.417 0-.726-.111-.923-.334-.187-.205-.276-.498-.276-.881 0-.392.098-.699.304-.922.192-.213.45-.316.773-.316.263 0 .478.054.637.165.16.107.263.267.31.48h.515c-.061-.355-.21-.618-.45-.796-.248-.187-.585-.276-1.012-.276ZM48.285 90.156v-.447H46.56v-2.744h-.518v3.191h2.242Zm.647 0 .29-.8h1.336l.29.8h.559l-1.22-3.19h-.594l-1.219 3.19h.558Zm1.47-1.229h-1.023l.505-1.399h.017l.5 1.4Zm1.84 1.23v-2.334h.018l1.594 2.333h.509v-3.19h-.527v2.301h-.018l-1.576-2.302h-.523v3.191h.523ZM42.546 245.173v-1.224h.79c.778 0 1.166-.331 1.166-.988 0-.653-.388-.979-1.157-.979h-1.322v3.191h.523Zm.76-1.671h-.76v-1.073h.76c.227 0 .397.04.504.125.107.08.165.215.165.407 0 .192-.054.33-.16.416-.108.08-.278.125-.51.125Zm3.058 1.734c.487 0 .871-.156 1.153-.47.268-.299.402-.692.402-1.184 0-.491-.134-.89-.402-1.189-.282-.317-.666-.473-1.153-.473-.49 0-.875.156-1.152.478-.268.304-.397.697-.397 1.184 0 .483.13.876.397 1.18.277.313.661.474 1.152.474Zm0-.46c-.33 0-.59-.112-.768-.331-.174-.215-.259-.5-.259-.863 0-.366.085-.652.26-.867.182-.223.437-.335.767-.335s.585.103.764.317c.174.215.264.51.264.885 0 .376-.09.666-.264.876-.179.21-.433.318-.764.318Zm3.23.397.625-2.4h.017l.621 2.4h.554l.92-3.19h-.59l-.598 2.426h-.018l-.63-2.427h-.54l-.63 2.427h-.018l-.598-2.427h-.59l.916 3.191h.558Zm5.448 0v-.447h-1.854v-.965h1.67v-.447h-1.67v-.885h1.778v-.447h-2.3v3.191h2.376Zm1.014 0v-1.3h.826c.178 0 .317.036.41.116.09.076.144.201.161.375l.04.394c.018.179.063.317.139.415h.567a.776.776 0 0 1-.192-.469l-.053-.514c-.036-.313-.192-.496-.47-.559v-.009a.693.693 0 0 0 .407-.281.761.761 0 0 0 .134-.443c0-.304-.103-.536-.3-.697-.187-.147-.446-.219-.772-.219h-1.42v3.191h.523Zm.826-1.747h-.826v-.997h.826c.214 0 .37.036.469.116.098.076.147.201.147.376 0 .16-.05.286-.147.375-.108.085-.264.13-.47.13ZM43.589 36.746v-1.3h.826c.179 0 .317.035.411.116.09.076.143.2.16.375l.041.393c.018.18.063.318.139.416h.567a.776.776 0 0 1-.192-.47l-.054-.513c-.036-.313-.192-.496-.469-.559v-.009a.693.693 0 0 0 .407-.282.761.761 0 0 0 .134-.442c0-.304-.103-.536-.3-.697-.187-.148-.446-.22-.772-.22h-1.42v3.192h.522Zm.826-1.748h-.826v-.996h.826c.215 0 .37.035.47.116.097.076.147.201.147.375 0 .161-.05.286-.148.376-.107.085-.263.13-.469.13Zm4.14 1.748v-.447h-1.853v-.965h1.67v-.447h-1.67v-.885h1.777v-.447h-2.3v3.191h2.376Zm1.67.063c.407 0 .724-.085.947-.246a.801.801 0 0 0 .335-.68c0-.295-.138-.523-.415-.688-.125-.071-.402-.179-.835-.313a4.485 4.485 0 0 1-.545-.196c-.152-.08-.223-.193-.223-.327 0-.152.062-.263.196-.33.107-.059.26-.085.46-.085.232 0 .41.04.527.13.116.084.201.227.246.424h.518c-.032-.349-.161-.608-.384-.773-.21-.157-.505-.233-.88-.233-.344 0-.625.076-.849.233a.757.757 0 0 0-.357.666c0 .281.12.496.366.643.094.054.34.143.733.268a6 6 0 0 1 .62.21c.197.099.3.233.3.403 0 .134-.072.237-.206.317-.134.076-.321.116-.554.116-.263 0-.455-.049-.58-.138-.139-.103-.223-.277-.26-.519h-.517c.022.407.17.702.437.89.22.152.527.228.92.228Zm4.105-.063v-.447h-1.854v-.965h1.67v-.447h-1.67v-.885h1.778v-.447h-2.3v3.191h2.376Zm1.813 0v-2.744h1.045v-.447h-2.613v.447h1.045v2.744h.523Z"/><ellipse cx="50.563" cy="41.476" fill="#999" fill-opacity=".7" fill-rule="nonzero" rx="1.675" ry="1.676"/><ellipse cx="47.771" cy="232.584" fill="#999" fill-opacity=".7" fill-rule="nonzero" rx="5.582" ry="5.587"/><path fill="#999" fill-opacity=".5" d="M49.464 165.657v2.026h3.062v4.052h2.042v1.013h2.041v6.079h-2.04l-.001 1.013h-2.042v4.052h-3.062v2.027H44.36v-2.027h-2.042v-16.209h2.042v-2.026h5.104Zm-.477 14.867h-4.763v1.053h4.763v-1.053Zm0-2.105h-4.763v1.053h4.763v-1.053Zm0-2.105h-4.763v1.053h4.763v-1.053Zm0-2.105h-4.763v1.052h4.763v-1.052Zm0-2.105h-4.763v1.052h4.763v-1.052Zm0-2.105h-4.763v1.052h4.763V170ZM49.464 141.82v2.026h3.062v4.052h2.042v1.013h2.041v6.079h-2.04l-.001 1.013h-2.042v4.052h-3.062v2.026H44.36v-2.026h-2.042v-16.21h2.042v-2.025h5.104Zm-.477 14.867h-4.763v1.052h4.763v-1.052Zm0-2.105h-4.763v1.052h4.763v-1.052Zm0-2.105h-4.763v1.052h4.763v-1.052Zm0-2.105h-4.763v1.052h4.763v-1.052Zm0-2.106h-4.763v1.053h4.763v-1.053Zm0-2.105h-4.763v1.053h4.763v-1.053ZM49.464 117.982v2.026h3.062v4.052h2.042v1.013h2.041v6.08h-2.04l-.001 1.012h-2.042v4.053h-3.062v2.026H44.36v-2.027h-2.042v-16.209h2.042v-2.026h5.104Zm-.477 14.868h-4.763v1.052h4.763v-1.052Zm0-2.106h-4.763v1.053h4.763v-1.053Zm0-2.105h-4.763v1.053h4.763v-1.053Zm0-2.105h-4.763v1.053h4.763v-1.053Zm0-2.105h-4.763v1.053h4.763v-1.053Zm0-2.105h-4.763v1.053h4.763v-1.053ZM49.464 94.145v2.026h3.062v4.052h2.042v1.013h2.041v6.079h-2.04l-.001 1.013h-2.042v4.052h-3.062v2.027H44.36v-2.027h-2.042V96.171h2.042v-2.026h5.104Zm-.477 14.867h-4.763v1.053h4.763v-1.053Zm0-2.105h-4.763v1.053h4.763v-1.053Zm0-2.105h-4.763v1.053h4.763v-1.053Zm0-2.105h-4.763v1.052h4.763v-1.052Zm0-2.105h-4.763v1.052h4.763v-1.052Zm0-2.105h-4.763v1.052h4.763v-1.052Z"/><path fill="#FF5B5B" fill-opacity=".5" d="M49.464 188.302v2.026h3.062v4.052h2.042v1.013h2.041v6.08h-2.04l-.001 1.012h-2.042v4.053h-3.062v2.026H44.36v-2.027h-2.042v-16.209h2.042v-2.026h5.104Zm-.477 14.868h-4.763v1.052h4.763v-1.052Zm0-2.105h-4.763v1.052h4.763v-1.052Zm0-2.106h-4.763v1.053h4.763v-1.053Zm0-2.105h-4.763v1.053h4.763v-1.053Zm0-2.105h-4.763v1.053h4.763v-1.053Zm0-2.105h-4.763v1.053h4.763v-1.053Z"/><path fill="#999" fill-rule="nonzero" d="M39.415 187.703v1.118l-2.233-.001v23.65l1.728.002v1.117h-2.844v-25.886zM63.943 187.703v25.886h-2.286v-1.117l1.17-.001V188.82h-2.234v-1.117zM39.415 185.468v-1.117l-2.233.001V89.301l5.025-.001v-1.118h-6.141v97.286zM63.943 185.468V88.182H58.36V89.3h4.466v95.052l-2.233-.001v1.117z"/><path fill="#999" fill-opacity=".7" fill-rule="nonzero" d="m78.629.001 14.136 50.35 5.93 21.042A34.65 34.65 0 0 1 100 80.815v116.683c0 1.816-.142 3.629-.426 5.423l-9.29 58.786a8.25 8.25 0 0 1-6.786 6.853l-8.501 1.419a1.65 1.65 0 0 1-1.918-1.555l-.029-.625H26.949l-.028.625a1.65 1.65 0 0 1-1.78 1.572l-.138-.017-8.501-1.42a8.249 8.249 0 0 1-6.738-6.584l-.047-.268L.426 202.92a34.739 34.739 0 0 1-.417-4.645L0 197.498V80.815c0-2.96.379-5.906 1.126-8.764l.179-.658 5.93-21.042L21.37 0h3.432l-.882 3.155L4.477 72.292a31.338 31.338 0 0 0-1.173 7.858l-.007.665v116.683c0 1.408.094 2.815.283 4.21l.102.696 9.29 58.786a4.95 4.95 0 0 0 3.849 4.07l.223.042 6.669 1.113.124-2.492.038-.735.039-.731.163-2.888.042-.713.043-.71.179-2.805.094-1.383.096-1.37.2-2.704.104-1.335.107-1.324.221-2.617.115-1.293.117-1.283.243-2.541.252-2.507.124-1.186.162-1.438 1.483-12.193.498-4.16.476-4.168.293-2.803.11-1.226.033-.413.042-.677.008-.259.001-92.32c0-2.704-.218-5.404-.653-8.072l-.153-.888-3.743-20.625a49.069 49.069 0 0 1-.754-10.629C24.805 49.98 26.36 24.671 28.481 0h3.309c-2.13 24.707-3.689 50.058-4.678 76.053a45.76 45.76 0 0 0 .561 9.094l.141.818 3.743 20.625c.515 2.836.8 5.71.851 8.59l.009.961v92.285l-.002.08-.014.372-.028.46-.064.838-.09 1-.156 1.556-.14 1.309-.384 3.414-.571 4.82-1.015 8.303-.582 4.862-.202 1.885-.24 2.376-.23 2.407-.221 2.44-.212 2.475-.202 2.514-.192 2.554-.183 2.598-.173 2.644-.042.668-.041.672-.159 2.718-.149 2.771-.017.335h45.784l-.017-.335-.15-2.771-.158-2.718-.083-1.34-.173-2.644-.183-2.598-.192-2.554-.202-2.514-.212-2.475-.221-2.44-.23-2.407-.24-2.376-.202-1.885-.582-4.862-1.015-8.303-.57-4.82-.386-3.414-.14-1.309-.154-1.555-.09-1.001-.065-.838-.028-.46-.014-.373-.001-.079v-92.285c0-3.203.287-6.4.859-9.55l3.743-20.626a45.76 45.76 0 0 0 .702-9.912C71.898 50.059 70.34 24.708 68.21 0h3.31c2.12 24.671 3.675 49.98 4.663 75.927a49.069 49.069 0 0 1-.754 10.629l-3.743 20.625a50.178 50.178 0 0 0-.806 8.96v92.32l.01.26.041.676.032.413.111 1.226.293 2.803.476 4.168.498 4.16 1.483 12.193.162 1.438.124 1.186.252 2.507.243 2.54c.079.853.156 1.712.232 2.577l.221 2.617c.072.879.142 1.765.211 2.659l.2 2.704c.065.91.129 1.827.19 2.753l.179 2.805.085 1.423.163 2.888.077 1.466.124 2.492 6.669-1.113a4.95 4.95 0 0 0 4.071-4.112l9.291-58.786a31.43 31.43 0 0 0 .385-4.906V80.815c0-2.884-.397-5.752-1.18-8.523L76.08 3.156 75.197 0h3.432Z"/></g><g fill="#999"><g transform="translate(56 47.122)"><text font-family="PingFangSC-Semibold, PingFang SC" font-size="11.429" font-weight="500">
                    <tspan x="1.446" y="12">RESET</tspan>
                </text><ellipse cx="17.429" cy="24.529" fill-opacity=".5" rx="4.286" ry="4.35"/></g><path fill-rule="nonzero" d="M75 27c14.553 0 26.97 9.143 31.821 21.998L124.5 51l-15.56 7.954c.04.677.06 1.36.06 2.046 0 18.778-15.222 34-34 34S41 79.778 41 61s15.222-34 34-34Zm0 2c-17.673 0-32 14.327-32 32 0 17.673 14.327 32 32 32 17.673 0 32-14.327 32-32 0-.43-.008-.859-.025-1.287l-.032-.64-.077-1.305 10.813-5.528-12.298-1.392-.431-1.144C100.287 37.348 88.428 29 75 29Z" opacity=".6"/></g><path stroke="#F84343" stroke-linejoin="round" stroke-width="2" d="M146 248.499c0 9.113 7.388 16.501 16.499 16.501 9.113 0 16.501-7.388 16.501-16.501 0-9.111-7.388-16.499-16.501-16.499-9.111 0-16.499 7.388-16.499 16.499M149 51.499C149 60.612 156.388 68 165.499 68 174.612 68 182 60.612 182 51.499 182 42.388 174.612 35 165.499 35 156.388 35 149 42.388 149 51.499"/><path fill="#999" fill-rule="nonzero" d="M84.5 140.597v34.689l-5.964.213v-.021c-1.221 1.874-3.477 3.119-6.036 3.119-2.549 0-4.796-1.235-6.02-3.096l-5.98-.001v-34.903h24Zm-12 19c-2.786 0-5 1.968-5 4.333v8.334c0 2.365 2.214 4.333 5 4.333s5-1.968 5-4.333v-8.334c0-2.365-2.214-4.333-5-4.333Zm9.999-17.001h-20V173.5h3.134a5.807 5.807 0 0 1-.133-1.236v-8.334c0-3.526 3.158-6.333 7-6.333s7 2.807 7 6.333v8.334c0 .412-.043.815-.126 1.205l3.125-.113v-30.76Zm-4.829 5.177v3.651h-1.388v-3.65h1.388Zm-8.327 0v3.651h-1.388v-3.65h1.388Z"/><path stroke="#979797" stroke-linecap="square" stroke-width="2" d="M72.5 178.5v47c0 12.15 9.85 22 22 22H106"/><path fill="#999" fill-rule="nonzero" d="M149.097 249.836c0 .947-.729 1.723-1.656 1.798l-.149.006-9.97-.001v.597c0 .92-.71 1.676-1.611 1.749l-.144.006h-14.548c-.922 0-1.677-.71-1.75-1.611l-.006-.144.001-.217h-9.17a1.279 1.279 0 0 1-1.272-1.148l-.007-.13.001-.541h-6.72c-.185 0-.334-.271-.334-.607v-4.245c0-.334.15-.606.334-.606h6.72v-.098c0-.662.502-1.207 1.147-1.272l.13-.007h9.171v-.264c0-.922.708-1.677 1.611-1.75l.144-.006h14.548c.92 0 1.676.709 1.75 1.612l.005.144v.648l9.97.001c.948 0 1.724.73 1.8 1.658l.005.148v4.28Zm-29.833.876v-6.07l-.97.004v1.865a.561.561 0 1 1-1.125 0l.001-1.861-1.436.004a.573.573 0 0 1 .003.05v1.892a.562.562 0 0 1-1.125 0v-1.891l.004-.047-1.439.004a.577.577 0 0 1 .002.043v1.89a.562.562 0 1 1-1.125 0v-1.89l.003-.038-1.963.007.03 6.066 1.93-.006v-1.88a.562.562 0 1 1 1.125 0v1.876l1.433-.004v-1.872a.562.562 0 1 1 1.125 0v1.869l1.433-.004v-1.72a.561.561 0 1 1 1.123 0l.001 1.716.97-.003Zm16.423 1.524V243.1a.121.121 0 0 0-.082-.115l-.038-.006h-14.548a.12.12 0 0 0-.114.082l-.006.039v9.135a.12.12 0 0 0 .082.114l.038.006h14.548a.12.12 0 0 0 .12-.12Zm11.775-2.4v-4.28a.17.17 0 0 0-.116-.162l-.054-.009-9.97-.001v4.62l9.97.001a.17.17 0 0 0 .161-.116l.01-.053Z"/></g></svg>