<svg xmlns="http://www.w3.org/2000/svg" width="300" height="300"><defs><filter id="a" width="325%" height="202.9%" x="-112.5%" y="-51.4%" filterUnits="objectBoundingBox"><feGaussianBlur in="SourceGraphic" stdDeviation="6"/></filter></defs><g fill="none" fill-rule="evenodd"><g transform="translate(15 20)"><path fill="#999" fill-opacity=".7" fill-rule="nonzero" d="M45.755 85.771h-7.503a4.207 4.207 0 0 0-4.213 4.2v7.466c0 2.32 1.887 4.2 4.213 4.2h7.503a4.207 4.207 0 0 0 4.213-4.2v-7.465a4.207 4.207 0 0 0-4.213-4.201Zm-7.503.92h7.503a3.285 3.285 0 0 1 3.29 3.28v7.466a3.285 3.285 0 0 1-3.29 3.28h-7.503a3.285 3.285 0 0 1-3.29-3.28v-7.465a3.285 3.285 0 0 1 3.29-3.28Z"/><path fill="#999" fill-rule="nonzero" d="M34.602 82.796c.289 0 .537-.082.743-.247.221-.175.36-.418.42-.732h-.428c-.052.202-.142.355-.27.456a.767.767 0 0 1-.469.138c-.292 0-.51-.093-.649-.273-.127-.168-.19-.41-.19-.724 0-.307.063-.546.194-.718.143-.194.353-.288.634-.288a.8.8 0 0 1 .462.12.62.62 0 0 1 .25.385h.429a.984.984 0 0 0-.353-.643c-.203-.164-.465-.246-.78-.246-.428 0-.754.138-.98.422-.198.246-.296.571-.296.968 0 .403.094.724.285.964.218.276.552.418.998.418Zm2.765 0c.409 0 .731-.13.968-.392.225-.25.337-.58.337-.99 0-.412-.112-.744-.337-.994-.237-.266-.56-.396-.968-.396-.413 0-.735.13-.968.4-.225.253-.334.582-.334.99 0 .403.109.732.334.986.233.262.555.396.968.396Zm0-.385c-.278 0-.495-.093-.645-.276-.147-.18-.218-.419-.218-.721 0-.307.071-.546.218-.725.153-.187.367-.28.645-.28s.491.085.641.265c.147.179.222.426.222.74 0 .313-.075.556-.222.732-.15.175-.363.265-.641.265Zm2.157.333v-1.95h.015l1.34 1.95h.427v-2.668h-.443V82h-.015l-1.324-1.924h-.439v2.668h.439Zm2.746 0v-1.95h.015l1.34 1.95h.427v-2.668h-.443V82h-.015l-1.324-1.924h-.439v2.668h.439Zm4.303 0v-.374h-1.557v-.807h1.403v-.374h-1.403v-.74h1.493v-.373h-1.932v2.668h1.996Zm1.583.052c.289 0 .536-.082.743-.247.221-.175.36-.418.42-.732h-.428c-.052.202-.142.355-.27.456a.767.767 0 0 1-.469.138c-.292 0-.51-.093-.649-.273-.127-.168-.191-.41-.191-.724 0-.307.064-.546.195-.718.143-.194.353-.288.634-.288a.8.8 0 0 1 .461.12c.124.082.207.21.252.385h.427a.984.984 0 0 0-.352-.643c-.203-.164-.465-.246-.78-.246-.428 0-.755.138-.98.422-.198.246-.296.571-.296.968 0 .403.094.724.285.964.218.276.552.418.998.418Zm2.686-.052v-2.295h.878v-.373h-2.195v.373h.878v2.295h.439Zm-7.301 131.277.525-2.006h.015l.522 2.006h.465l.773-2.668h-.495l-.503 2.03h-.015l-.529-2.03h-.454l-.529 2.03h-.015l-.503-2.03h-.495l.77 2.668h.468Zm2.788 0 .243-.668h1.122l.244.668h.469l-1.024-2.668h-.5l-1.023 2.668h.469Zm1.234-1.027h-.86l.425-1.17h.015l.42 1.17Zm1.545 1.027v-1.95h.015l1.34 1.95h.427v-2.668h-.442v1.925h-.015l-1.325-1.925h-.439v2.668h.44Zm-14.774-2.8c-.3 0-.543.093-.724.287-.178.179-.268.417-.272.714h.429c.008-.215.055-.375.15-.487.09-.115.224-.171.4-.171.166 0 .296.037.383.111.086.075.13.186.13.335a.63.63 0 0 1-.193.436 2.923 2.923 0 0 1-.402.305c-.318.208-.531.368-.633.484a.98.98 0 0 0-.28.695h1.936v-.357h-1.404c.059-.145.24-.312.543-.502a3.9 3.9 0 0 0 .582-.428c.181-.19.276-.398.276-.629a.728.728 0 0 0-.256-.573c-.173-.149-.398-.22-.665-.22Zm1.672 2.177a.272.272 0 0 0-.204.078.254.254 0 0 0-.087.201c0 .075.028.142.087.198a.285.285 0 0 0 .204.074c.079 0 .15-.026.209-.074a.278.278 0 0 0 .086-.198.267.267 0 0 0-.086-.2.307.307 0 0 0-.209-.079Zm.91-2.124-.154 1.488h.401a.482.482 0 0 1 .232-.212.748.748 0 0 1 .327-.063c.189 0 .33.052.433.156.102.104.153.25.153.435a.516.516 0 0 1-.177.41.652.652 0 0 1-.437.152.64.64 0 0 1-.377-.1.452.452 0 0 1-.185-.339h-.421c.02.246.13.443.33.584.181.13.398.197.65.197.279 0 .519-.078.72-.234a.835.835 0 0 0 .322-.673c0-.287-.086-.51-.251-.674a.88.88 0 0 0-.646-.246.935.935 0 0 0-.346.06.745.745 0 0 0-.3.182h-.011l.083-.766h1.345v-.357h-1.692Zm3.478-.053c-.413 0-.744.134-.988.41-.232.257-.346.584-.346.982 0 .395.114.718.346.968.248.268.595.401 1.043.401.244 0 .469-.03.673-.089a1.67 1.67 0 0 0 .508-.25v-1.115h-1.204v.346h.775v.576c-.095.056-.197.1-.315.13-.122.03-.252.049-.39.049-.35 0-.61-.093-.775-.28-.157-.17-.232-.416-.232-.736 0-.327.083-.584.256-.77.161-.179.378-.264.65-.264.22 0 .4.044.534.137a.62.62 0 0 1 .26.402h.433c-.051-.297-.177-.517-.378-.666-.208-.156-.492-.23-.85-.23Zm.166-101.574v-.374h-1.45v-2.294h-.435v2.668h1.883Zm.543 0 .244-.669h1.122l.244.669h.468l-1.024-2.668h-.499l-1.024 2.668h.47Zm1.234-1.028h-.859l.424-1.17h.015l.42 1.17Zm1.546 1.028v-1.95h.015l1.34 1.95h.427v-2.668h-.443v1.924h-.015l-1.324-1.924h-.439v2.668h.439Zm-8.144 129.596v-1.024h.664c.652 0 .979-.276.979-.825 0-.546-.327-.819-.972-.819H35.3v2.668h.439Zm.637-1.397h-.637v-.897h.637c.192 0 .334.033.424.104.09.068.14.18.14.34 0 .161-.046.277-.136.348-.09.067-.233.105-.428.105Zm2.57 1.45c.409 0 .732-.131.968-.393.225-.25.338-.58.338-.99 0-.411-.113-.744-.338-.994-.236-.265-.559-.396-.968-.396-.413 0-.735.13-.968.4-.225.254-.334.583-.334.99 0 .403.11.732.334.986.233.262.555.396.968.396Zm0-.385c-.278 0-.495-.094-.645-.277-.146-.18-.218-.418-.218-.721 0-.307.072-.546.218-.725.154-.187.367-.28.645-.28s.492.086.642.265c.146.18.22.426.22.74s-.074.557-.22.732c-.15.176-.364.266-.642.266Zm2.712.332.526-2.006h.015l.521 2.006h.465l.773-2.668h-.495l-.503 2.03h-.015l-.529-2.03h-.454l-.529 2.03h-.015l-.502-2.03h-.496l.77 2.668h.468Zm4.577 0v-.374h-1.557v-.807h1.403v-.373h-1.403v-.74h1.493v-.374H44.24v2.668h1.996Zm.852 0v-1.087h.694c.15 0 .266.03.345.097.075.063.12.168.135.314l.034.329c.015.15.052.265.116.347h.476a.647.647 0 0 1-.161-.392l-.045-.43c-.03-.261-.161-.415-.394-.467v-.007a.582.582 0 0 0 .341-.236.634.634 0 0 0 .113-.37c0-.254-.086-.448-.251-.583-.158-.123-.375-.183-.65-.183h-1.192v2.668h.439Zm.694-1.46h-.694v-.834h.694c.18 0 .311.03.394.097.082.064.123.168.123.314 0 .134-.04.239-.123.314-.09.07-.222.108-.394.108ZM36.615 64.995v-1.087h.694c.15 0 .266.03.345.097.075.063.12.168.135.314l.034.329c.015.15.052.265.116.347h.476a.647.647 0 0 1-.16-.392l-.046-.43c-.03-.262-.161-.415-.394-.467v-.007a.582.582 0 0 0 .342-.236.634.634 0 0 0 .112-.37c0-.254-.086-.448-.251-.583-.158-.123-.375-.183-.65-.183h-1.192v2.668h.439Zm.694-1.46h-.694V62.7h.694c.18 0 .311.03.394.097.082.064.123.168.123.314 0 .134-.04.239-.123.314-.09.07-.222.108-.394.108Zm3.477 1.46v-.374H39.23v-.807h1.403v-.373H39.23v-.74h1.493v-.374H38.79v2.668h1.995Zm1.403.052c.342 0 .608-.07.796-.205a.669.669 0 0 0 .281-.568c0-.247-.116-.437-.349-.575-.105-.06-.337-.15-.701-.262a3.779 3.779 0 0 1-.458-.164c-.128-.068-.188-.161-.188-.273 0-.127.053-.22.165-.277.09-.048.218-.07.387-.07.195 0 .345.033.443.108.097.07.168.19.206.355h.435c-.026-.292-.135-.509-.323-.647-.176-.13-.424-.194-.739-.194-.288 0-.525.063-.712.194a.632.632 0 0 0-.3.557.59.59 0 0 0 .307.538c.079.045.285.12.615.224.297.09.47.15.522.176.165.082.251.194.251.336 0 .112-.06.198-.172.265a.956.956 0 0 1-.466.098c-.221 0-.382-.042-.487-.116-.117-.086-.188-.232-.218-.434h-.435c.019.34.143.587.368.744.183.127.442.19.772.19Zm3.448-.052v-.374H44.08v-.807h1.403v-.373H44.08v-.74h1.493v-.374h-1.932v2.668h1.996Zm1.523 0v-2.294h.878v-.374h-2.195v.374h.878v2.294h.439Z"/><ellipse cx="42.473" cy="68.95" fill="#999" fill-opacity=".5" rx="1.407" ry="1.401"/><ellipse cx="40.128" cy="228.718" fill="#999" fill-opacity=".5" rx="4.689" ry="4.671"/><path fill="#999" fill-opacity=".5" d="M41.55 172.766v1.693l2.572.001v3.387l1.715.001v.846h1.715v5.083h-1.714l-.001.847h-1.714l-.001 3.387H41.55v1.694h-4.288v-1.694h-1.715v-13.55l1.716-.002v-1.693h4.287Zm-.4 12.43h-4.002v.88h4.001v-.88Zm0-1.76h-4.002v.88h4.001v-.88Zm0-1.76h-4.002v.88h4.001v-.88Zm0-1.76h-4.002v.88h4.001v-.88Zm0-1.76h-4.002v.88h4.001v-.88Zm0-1.76h-4.002v.88h4.001v-.88Zm.4-23.558v1.693h2.572v3.388h1.715v.847h1.715v5.082h-1.714l-.001.847h-1.714l-.001 3.388H41.55v1.694h-4.288v-1.694h-1.715v-13.551l1.716-.001v-1.693h4.287Zm-.4 12.43h-4.002v.88h4.001v-.88Zm0-1.76h-4.002v.88h4.001v-.88Zm0-1.76h-4.002v.88h4.001v-.88Zm0-1.76h-4.002v.88h4.001v-.88Zm0-1.76h-4.002v.88h4.001v-.88Zm0-1.76h-4.002v.88h4.001v-.88Zm.4-23.558v1.693h2.572v3.388h1.715v.847h1.715v5.082h-1.714l-.001.847h-1.714l-.001 3.388H41.55v1.694h-4.288v-1.694h-1.715v-13.551l1.716-.001v-1.693h4.287Zm-.4 12.429h-4.002v.88h4.001v-.88Zm0-1.76h-4.002v.88h4.001v-.88Zm0-1.76h-4.002v.88h4.001v-.88Zm0-1.76h-4.002v.88h4.001v-.88Zm0-1.76h-4.002v.88h4.001v-.88Zm0-1.76h-4.002v.88h4.001v-.88Zm.4-23.558v1.693l2.572.001v3.387l1.715.001v.846l1.715.001v5.082h-1.714l-.001.847h-1.714l-.001 3.388H41.55v1.693h-4.288v-1.694h-1.715v-13.55l1.716-.002v-1.693h4.287Zm-.4 12.43h-4.002v.88h4.001v-.88Zm0-1.76h-4.002v.88h4.001v-.88Zm0-1.76h-4.002v.88h4.001v-.88Zm0-1.76h-4.002v.88h4.001v-.88Zm0-1.76h-4.002v.88h4.001v-.88Zm0-1.76h-4.002v.88h4.001v-.88Z"/><path fill="#FF5B5B" fill-opacity=".5" d="M41.55 191.698v1.693l2.572.001v3.387h1.715v.847h1.715v5.082h-1.714l-.001.847h-1.714l-.001 3.388H41.55v1.694h-4.288v-1.694h-1.715v-13.551h1.716v-1.694h4.287Zm-.4 12.43h-4.002v.88h4.001v-.88Zm0-1.76h-4.002v.88h4.001v-.88Zm0-1.76h-4.002v.88h4.001v-.88Zm0-1.76h-4.002v.88h4.001v-.88Zm0-1.76h-4.002v.88h4.001v-.88Zm0-1.76h-4.002v.88h4.001v-.88Z"/><path fill="#999" fill-rule="nonzero" d="M33.109 191.197v.934h-1.876v19.772l1.451.001v.934h-2.389v-21.64zm20.603 0v21.641h-1.92v-.934h.982V192.13H50.9v-.934zm-20.603-1.868v-.934h-1.876v-79.463l4.22-.001v-.934h-5.158v81.332zm20.603 0v-81.332h-4.69v.934h3.752v79.465l-1.875-.001v.934z"/><path fill="#999" fill-opacity=".7" fill-rule="nonzero" d="m56.72 1.013 6.813 24.344 14.39 51.012 4.981 17.591A28.84 28.84 0 0 1 84 101.838v97.548c0 1.518-.12 3.034-.358 4.533l-7.804 49.146a6.913 6.913 0 0 1-5.7 5.73l-7.14 1.186a1.384 1.384 0 0 1-1.611-1.3l-.025-.522H22.637l-.024.522a1.383 1.383 0 0 1-1.475 1.316l-.135-.016-7.141-1.187a6.914 6.914 0 0 1-5.654-5.472l-.046-.257-7.804-49.146a28.908 28.908 0 0 1-.35-3.883l-.008-.65v-97.548c0-2.444.31-4.875.922-7.236l.174-.642 4.981-17.59 14.39-51.012 6.814-24.344c.456-1.639 2.903-1.164 2.71.527a1173.731 1173.731 0 0 0-2.49 23.904l-1.023-.122c1.457.18 2.938.334 4.444.461v-14.65h3.693l-.001 14.905c1.812.097 3.658.158 5.537.182l.002-15.087h3.692l.002 15.087c1.879-.024 3.724-.085 5.536-.182V11.133h3.693v14.65c1.156-.097 2.297-.21 3.423-.339A1171.71 1171.71 0 0 0 54.01 1.54c-.193-1.69 2.254-2.166 2.71-.527ZM25.46 17.811l-5.367 19.102L3.761 94.712a26.084 26.084 0 0 0-.985 6.523l-.007.603v97.548c0 1.144.075 2.287.225 3.422l.099.68 7.804 49.145a4.147 4.147 0 0 0 3.218 3.4l.202.038 5.602.93.104-2.083.032-.614.033-.612.136-2.414.036-.596.036-.594.15-2.345.079-1.156.08-1.145.17-2.261.087-1.116.09-1.107.185-2.187.097-1.081.098-1.073.204-2.124.212-2.096.104-.992.136-1.202 1.246-10.194.418-3.477.4-3.485.246-2.343.093-1.026.027-.344.035-.566.007-.217.001-77.18c0-2.234-.18-4.463-.536-6.666l-.141-.825-3.145-17.243a40.832 40.832 0 0 1-.632-8.886c.996-26.04 2.678-51.311 5.046-75.814l.313-3.192.094-.934Zm33.08 0 .094.934c2.534 25.499 4.32 51.834 5.36 79.006a40.832 40.832 0 0 1-.633 8.886l-3.145 17.243a41.756 41.756 0 0 0-.677 7.49v77.181l.008.217.035.566.027.344.093 1.026.246 2.343.4 3.485.418 3.477 1.246 10.194.136 1.202.104.992.212 2.096.204 2.124c.066.712.131 1.43.195 2.154l.186 2.187c.06.735.12 1.476.177 2.223l.168 2.26c.055.761.108 1.528.16 2.302l.15 2.345.072 1.19.136 2.414.065 1.226.104 2.083 5.602-.93a4.148 4.148 0 0 0 3.42-3.438l7.804-49.146c.216-1.356.324-2.728.324-4.101v-97.548c0-2.411-.334-4.81-.992-7.126L63.907 36.913 58.54 17.811Zm-1.785 10.383 1.107-.132c-5.012.621-10.3.931-15.863.931-5.154 0-10.072-.266-14.753-.799-2.069 22.572-3.56 45.793-4.472 69.662a38.077 38.077 0 0 0 .461 7.54l.129.747 3.144 17.243a44.51 44.51 0 0 1 .713 7.092l.01.893v77.09l-.001.06-.001.067-.012.312-.023.384-.055.7-.075.837-.131 1.3-.117 1.095-.323 2.854-.48 4.03-.852 6.941-.49 4.065-.169 1.575-.201 1.987-.194 2.013-.185 2.04-.178 2.069-.17 2.1-.162 2.136-.153 2.172-.146 2.21-.035.56-.034.56-.134 2.273-.125 2.317-.014.279h38.458l-.014-.279-.125-2.317-.134-2.272a468.96 468.96 0 0 0-.07-1.12l-.145-2.211-.153-2.172-.162-2.135-.17-2.101-.178-2.07-.185-2.04-.194-2.012-.201-1.987-.17-1.575-.489-4.065-.852-6.942-.48-4.03-.323-2.853-.117-1.094-.13-1.3-.076-.837-.055-.701-.023-.384-.012-.312a5.829 5.829 0 0 1-.001-.128v-77.09c0-2.677.242-5.35.722-7.984l3.144-17.243c.499-2.733.696-5.512.59-8.287-.913-23.87-2.403-47.09-4.471-69.662Z"/></g><g transform="translate(201 20)"><path fill="#999" fill-opacity=".7" fill-rule="nonzero" d="M45.755 85.771h-7.503a4.207 4.207 0 0 0-4.213 4.2v7.466c0 2.32 1.887 4.2 4.213 4.2h7.503a4.207 4.207 0 0 0 4.213-4.2v-7.465a4.207 4.207 0 0 0-4.213-4.201Zm-7.503.92h7.503a3.285 3.285 0 0 1 3.29 3.28v7.466a3.285 3.285 0 0 1-3.29 3.28h-7.503a3.285 3.285 0 0 1-3.29-3.28v-7.465a3.285 3.285 0 0 1 3.29-3.28Z"/><path fill="#999" fill-rule="nonzero" d="M34.602 82.796c.289 0 .537-.082.743-.247.221-.175.36-.418.42-.732h-.428c-.052.202-.142.355-.27.456a.767.767 0 0 1-.469.138c-.292 0-.51-.093-.649-.273-.127-.168-.19-.41-.19-.724 0-.307.063-.546.194-.718.143-.194.353-.288.634-.288a.8.8 0 0 1 .462.12.62.62 0 0 1 .25.385h.429a.984.984 0 0 0-.353-.643c-.203-.164-.465-.246-.78-.246-.428 0-.754.138-.98.422-.198.246-.296.571-.296.968 0 .403.094.724.285.964.218.276.552.418.998.418Zm2.765 0c.409 0 .731-.13.968-.392.225-.25.337-.58.337-.99 0-.412-.112-.744-.337-.994-.237-.266-.56-.396-.968-.396-.413 0-.735.13-.968.4-.225.253-.334.582-.334.99 0 .403.109.732.334.986.233.262.555.396.968.396Zm0-.385c-.278 0-.495-.093-.645-.276-.147-.18-.218-.419-.218-.721 0-.307.071-.546.218-.725.153-.187.367-.28.645-.28s.491.085.641.265c.147.179.222.426.222.74 0 .313-.075.556-.222.732-.15.175-.363.265-.641.265Zm2.157.333v-1.95h.015l1.34 1.95h.427v-2.668h-.443V82h-.015l-1.324-1.924h-.439v2.668h.439Zm2.746 0v-1.95h.015l1.34 1.95h.427v-2.668h-.443V82h-.015l-1.324-1.924h-.439v2.668h.439Zm4.303 0v-.374h-1.557v-.807h1.403v-.374h-1.403v-.74h1.493v-.373h-1.932v2.668h1.996Zm1.583.052c.289 0 .536-.082.743-.247.221-.175.36-.418.42-.732h-.428c-.052.202-.142.355-.27.456a.767.767 0 0 1-.469.138c-.292 0-.51-.093-.649-.273-.127-.168-.191-.41-.191-.724 0-.307.064-.546.195-.718.143-.194.353-.288.634-.288a.8.8 0 0 1 .461.12c.124.082.207.21.252.385h.427a.984.984 0 0 0-.352-.643c-.203-.164-.465-.246-.78-.246-.428 0-.755.138-.98.422-.198.246-.296.571-.296.968 0 .403.094.724.285.964.218.276.552.418.998.418Zm2.686-.052v-2.295h.878v-.373h-2.195v.373h.878v2.295h.439Zm-7.301 131.277.525-2.006h.015l.522 2.006h.465l.773-2.668h-.495l-.503 2.03h-.015l-.529-2.03h-.454l-.529 2.03h-.015l-.503-2.03h-.495l.77 2.668h.468Zm2.788 0 .243-.668h1.122l.244.668h.469l-1.024-2.668h-.5l-1.023 2.668h.469Zm1.234-1.027h-.86l.425-1.17h.015l.42 1.17Zm1.545 1.027v-1.95h.015l1.34 1.95h.427v-2.668h-.442v1.925h-.015l-1.325-1.925h-.439v2.668h.44Zm-14.774-2.8c-.3 0-.543.093-.724.287-.178.179-.268.417-.272.714h.429c.008-.215.055-.375.15-.487.09-.115.224-.171.4-.171.166 0 .296.037.383.111.086.075.13.186.13.335a.63.63 0 0 1-.193.436 2.923 2.923 0 0 1-.402.305c-.318.208-.531.368-.633.484a.98.98 0 0 0-.28.695h1.936v-.357h-1.404c.059-.145.24-.312.543-.502a3.9 3.9 0 0 0 .582-.428c.181-.19.276-.398.276-.629a.728.728 0 0 0-.256-.573c-.173-.149-.398-.22-.665-.22Zm1.672 2.177a.272.272 0 0 0-.204.078.254.254 0 0 0-.087.201c0 .075.028.142.087.198a.285.285 0 0 0 .204.074c.079 0 .15-.026.209-.074a.278.278 0 0 0 .086-.198.267.267 0 0 0-.086-.2.307.307 0 0 0-.209-.079Zm.91-2.124-.154 1.488h.401a.482.482 0 0 1 .232-.212.748.748 0 0 1 .327-.063c.189 0 .33.052.433.156.102.104.153.25.153.435a.516.516 0 0 1-.177.41.652.652 0 0 1-.437.152.64.64 0 0 1-.377-.1.452.452 0 0 1-.185-.339h-.421c.02.246.13.443.33.584.181.13.398.197.65.197.279 0 .519-.078.72-.234a.835.835 0 0 0 .322-.673c0-.287-.086-.51-.251-.674a.88.88 0 0 0-.646-.246.935.935 0 0 0-.346.06.745.745 0 0 0-.3.182h-.011l.083-.766h1.345v-.357h-1.692Zm3.478-.053c-.413 0-.744.134-.988.41-.232.257-.346.584-.346.982 0 .395.114.718.346.968.248.268.595.401 1.043.401.244 0 .469-.03.673-.089a1.67 1.67 0 0 0 .508-.25v-1.115h-1.204v.346h.775v.576c-.095.056-.197.1-.315.13-.122.03-.252.049-.39.049-.35 0-.61-.093-.775-.28-.157-.17-.232-.416-.232-.736 0-.327.083-.584.256-.77.161-.179.378-.264.65-.264.22 0 .4.044.534.137a.62.62 0 0 1 .26.402h.433c-.051-.297-.177-.517-.378-.666-.208-.156-.492-.23-.85-.23Zm.166-101.574v-.374h-1.45v-2.294h-.435v2.668h1.883Zm.543 0 .244-.669h1.122l.244.669h.468l-1.024-2.668h-.499l-1.024 2.668h.47Zm1.234-1.028h-.859l.424-1.17h.015l.42 1.17Zm1.546 1.028v-1.95h.015l1.34 1.95h.427v-2.668h-.443v1.924h-.015l-1.324-1.924h-.439v2.668h.439Zm-8.144 129.596v-1.024h.664c.652 0 .979-.276.979-.825 0-.546-.327-.819-.972-.819H35.3v2.668h.439Zm.637-1.397h-.637v-.897h.637c.192 0 .334.033.424.104.09.068.14.18.14.34 0 .161-.046.277-.136.348-.09.067-.233.105-.428.105Zm2.57 1.45c.409 0 .732-.131.968-.393.225-.25.338-.58.338-.99 0-.411-.113-.744-.338-.994-.236-.265-.559-.396-.968-.396-.413 0-.735.13-.968.4-.225.254-.334.583-.334.99 0 .403.11.732.334.986.233.262.555.396.968.396Zm0-.385c-.278 0-.495-.094-.645-.277-.146-.18-.218-.418-.218-.721 0-.307.072-.546.218-.725.154-.187.367-.28.645-.28s.492.086.642.265c.146.18.22.426.22.74s-.074.557-.22.732c-.15.176-.364.266-.642.266Zm2.712.332.526-2.006h.015l.521 2.006h.465l.773-2.668h-.495l-.503 2.03h-.015l-.529-2.03h-.454l-.529 2.03h-.015l-.502-2.03h-.496l.77 2.668h.468Zm4.577 0v-.374h-1.557v-.807h1.403v-.373h-1.403v-.74h1.493v-.374H44.24v2.668h1.996Zm.852 0v-1.087h.694c.15 0 .266.03.345.097.075.063.12.168.135.314l.034.329c.015.15.052.265.116.347h.476a.647.647 0 0 1-.161-.392l-.045-.43c-.03-.261-.161-.415-.394-.467v-.007a.582.582 0 0 0 .341-.236.634.634 0 0 0 .113-.37c0-.254-.086-.448-.251-.583-.158-.123-.375-.183-.65-.183h-1.192v2.668h.439Zm.694-1.46h-.694v-.834h.694c.18 0 .311.03.394.097.082.064.123.168.123.314 0 .134-.04.239-.123.314-.09.07-.222.108-.394.108ZM36.615 64.995v-1.087h.694c.15 0 .266.03.345.097.075.063.12.168.135.314l.034.329c.015.15.052.265.116.347h.476a.647.647 0 0 1-.16-.392l-.046-.43c-.03-.262-.161-.415-.394-.467v-.007a.582.582 0 0 0 .342-.236.634.634 0 0 0 .112-.37c0-.254-.086-.448-.251-.583-.158-.123-.375-.183-.65-.183h-1.192v2.668h.439Zm.694-1.46h-.694V62.7h.694c.18 0 .311.03.394.097.082.064.123.168.123.314 0 .134-.04.239-.123.314-.09.07-.222.108-.394.108Zm3.477 1.46v-.374H39.23v-.807h1.403v-.373H39.23v-.74h1.493v-.374H38.79v2.668h1.995Zm1.403.052c.342 0 .608-.07.796-.205a.669.669 0 0 0 .281-.568c0-.247-.116-.437-.349-.575-.105-.06-.337-.15-.701-.262a3.779 3.779 0 0 1-.458-.164c-.128-.068-.188-.161-.188-.273 0-.127.053-.22.165-.277.09-.048.218-.07.387-.07.195 0 .345.033.443.108.097.07.168.19.206.355h.435c-.026-.292-.135-.509-.323-.647-.176-.13-.424-.194-.739-.194-.288 0-.525.063-.712.194a.632.632 0 0 0-.3.557.59.59 0 0 0 .307.538c.079.045.285.12.615.224.297.09.47.15.522.176.165.082.251.194.251.336 0 .112-.06.198-.172.265a.956.956 0 0 1-.466.098c-.221 0-.382-.042-.487-.116-.117-.086-.188-.232-.218-.434h-.435c.019.34.143.587.368.744.183.127.442.19.772.19Zm3.448-.052v-.374H44.08v-.807h1.403v-.373H44.08v-.74h1.493v-.374h-1.932v2.668h1.996Zm1.523 0v-2.294h.878v-.374h-2.195v.374h.878v2.294h.439Z"/><ellipse cx="42.473" cy="68.95" fill="#999" fill-opacity=".5" rx="1.407" ry="1.401"/><ellipse cx="40.128" cy="228.718" fill="#999" fill-opacity=".5" rx="4.689" ry="4.671"/><path fill="#999" fill-opacity=".5" d="M41.55 172.766v1.693l2.572.001v3.387l1.715.001v.846h1.715v5.083h-1.714l-.001.847h-1.714l-.001 3.387H41.55v1.694h-4.288v-1.694h-1.715v-13.55l1.716-.002v-1.693h4.287Zm-.4 12.43h-4.002v.88h4.001v-.88Zm0-1.76h-4.002v.88h4.001v-.88Zm0-1.76h-4.002v.88h4.001v-.88Zm0-1.76h-4.002v.88h4.001v-.88Zm0-1.76h-4.002v.88h4.001v-.88Zm0-1.76h-4.002v.88h4.001v-.88Zm.4-23.558v1.693h2.572v3.388h1.715v.847h1.715v5.082h-1.714l-.001.847h-1.714l-.001 3.388H41.55v1.694h-4.288v-1.694h-1.715v-13.551l1.716-.001v-1.693h4.287Zm-.4 12.43h-4.002v.88h4.001v-.88Zm0-1.76h-4.002v.88h4.001v-.88Zm0-1.76h-4.002v.88h4.001v-.88Zm0-1.76h-4.002v.88h4.001v-.88Zm0-1.76h-4.002v.88h4.001v-.88Zm0-1.76h-4.002v.88h4.001v-.88Zm.4-23.558v1.693h2.572v3.388h1.715v.847h1.715v5.082h-1.714l-.001.847h-1.714l-.001 3.388H41.55v1.694h-4.288v-1.694h-1.715v-13.551l1.716-.001v-1.693h4.287Zm-.4 12.429h-4.002v.88h4.001v-.88Zm0-1.76h-4.002v.88h4.001v-.88Zm0-1.76h-4.002v.88h4.001v-.88Zm0-1.76h-4.002v.88h4.001v-.88Zm0-1.76h-4.002v.88h4.001v-.88Zm0-1.76h-4.002v.88h4.001v-.88Zm.4-23.558v1.693l2.572.001v3.387l1.715.001v.846l1.715.001v5.082h-1.714l-.001.847h-1.714l-.001 3.388H41.55v1.693h-4.288v-1.694h-1.715v-13.55l1.716-.002v-1.693h4.287Zm-.4 12.43h-4.002v.88h4.001v-.88Zm0-1.76h-4.002v.88h4.001v-.88Zm0-1.76h-4.002v.88h4.001v-.88Zm0-1.76h-4.002v.88h4.001v-.88Zm0-1.76h-4.002v.88h4.001v-.88Zm0-1.76h-4.002v.88h4.001v-.88Z"/><path fill="#FF5B5B" fill-opacity=".5" d="M41.55 191.698v1.693l2.572.001v3.387h1.715v.847h1.715v5.082h-1.714l-.001.847h-1.714l-.001 3.388H41.55v1.694h-4.288v-1.694h-1.715v-13.551h1.716v-1.694h4.287Zm-.4 12.43h-4.002v.88h4.001v-.88Zm0-1.76h-4.002v.88h4.001v-.88Zm0-1.76h-4.002v.88h4.001v-.88Zm0-1.76h-4.002v.88h4.001v-.88Zm0-1.76h-4.002v.88h4.001v-.88Zm0-1.76h-4.002v.88h4.001v-.88Z"/><path fill="#999" fill-rule="nonzero" d="M33.109 191.197v.934h-1.876v19.772l1.451.001v.934h-2.389v-21.64zm20.603 0v21.641h-1.92v-.934h.982V192.13H50.9v-.934zm-20.603-1.868v-.934h-1.876v-79.463l4.22-.001v-.934h-5.158v81.332zm20.603 0v-81.332h-4.69v.934h3.752v79.465l-1.875-.001v.934z"/><path fill="#999" fill-opacity=".7" fill-rule="nonzero" d="m56.72 1.013 6.813 24.344 14.39 51.012 4.981 17.591A28.84 28.84 0 0 1 84 101.838v97.548c0 1.518-.12 3.034-.358 4.533l-3.518 22.161a20.861 20.861 0 0 0-2.636-1.059l3.42-21.534c.215-1.356.323-2.728.323-4.101v-97.548c0-2.411-.334-4.81-.992-7.126L63.907 36.913 58.54 17.811l.094.934c2.534 25.499 4.32 51.834 5.36 79.006a40.832 40.832 0 0 1-.633 8.886l-3.145 17.243a41.756 41.756 0 0 0-.677 7.49v77.181l.008.217.035.566.027.344.093 1.026.246 2.343.4 3.485.418 3.477.763 6.243a20.94 20.94 0 0 0-2.597 1.56l-.093-.77-.852-6.943-.48-4.03-.323-2.853-.117-1.094-.13-1.3-.076-.837-.055-.701-.023-.384-.012-.312a5.829 5.829 0 0 1-.001-.128v-77.09c0-2.677.242-5.35.722-7.984l3.144-17.243c.499-2.733.696-5.512.59-8.287-.867-22.676-2.256-44.767-4.165-66.271l-.307-3.391-.054.006c-4.665.529-9.566.793-14.701.793-5.154 0-10.072-.266-14.753-.799-2.069 22.572-3.56 45.793-4.472 69.662a38.077 38.077 0 0 0 .461 7.54l.129.747 3.144 17.243a44.51 44.51 0 0 1 .713 7.092l.01.893v77.09l-.001.06-.001.067-.012.312-.023.384-.055.7-.075.837-.131 1.3-.117 1.095-.323 2.854-.48 4.03-.852 6.941-.49 4.065-.169 1.575-.201 1.987-.194 2.013-.185 2.04-.178 2.069-.17 2.1-.162 2.136-.153 2.172-.146 2.21-.035.56-.034.56-.134 2.273-.125 2.317-.014.279h29.98a21.044 21.044 0 0 0 1.883 2.763l-31.997-.001-.024.522a1.383 1.383 0 0 1-1.475 1.316l-.135-.016-7.141-1.187a6.914 6.914 0 0 1-5.654-5.472l-.046-.257-7.804-49.146a28.908 28.908 0 0 1-.35-3.883l-.008-.65v-97.548c0-2.444.31-4.875.922-7.236l.174-.642 4.981-17.59 14.39-51.012 6.814-24.344c.456-1.639 2.903-1.164 2.71.527a1173.731 1173.731 0 0 0-2.49 23.904l-.728-.087.802.096a116 116 0 0 0 3.347.33v-14.65h3.693l-.001 14.905c1.812.097 3.658.158 5.537.182l.002-15.087h3.692l.002 15.087c1.879-.024 3.724-.085 5.536-.182V11.133h3.693v14.65c1.156-.097 2.297-.21 3.423-.339A1171.71 1171.71 0 0 0 54.01 1.54c-.193-1.69 2.254-2.166 2.71-.527ZM25.46 17.811l-5.367 19.102L3.761 94.712a26.084 26.084 0 0 0-.985 6.523l-.007.603v97.548c0 1.144.075 2.287.225 3.422l.099.68 7.804 49.145a4.147 4.147 0 0 0 3.218 3.4l.202.038 5.602.93.104-2.083.032-.614.033-.612.136-2.414.036-.596.036-.594.15-2.345.079-1.156.08-1.145.17-2.261.087-1.116.09-1.107.185-2.187.097-1.081.098-1.073.204-2.124.212-2.096.104-.992.136-1.202 1.246-10.194.418-3.477.4-3.485.246-2.343.093-1.026.027-.344.035-.566.007-.217.001-77.18c0-2.234-.18-4.463-.536-6.666l-.141-.825-3.145-17.243a40.832 40.832 0 0 1-.632-8.886c.996-26.04 2.678-51.311 5.046-75.814l.313-3.192.094-.934Z"/></g><path fill="#009FD1" d="M280.98 264a23.583 23.583 0 0 0-.492-3.999h3.515c.522 1.246.853 2.592.96 4h-3.983Zm-.492 6.003c.268-1.266.44-2.608.492-4.003h3.98a12.834 12.834 0 0 1-.957 4.003h-3.515Zm-.522 2h2.991a13.073 13.073 0 0 1-5.347 4.728c.967-1.286 1.772-2.893 2.356-4.729Zm-6.965 0h4.9c-1.075 3.113-2.847 5.32-4.9 5.87v-5.87Zm0-6.003h5.98a22.26 22.26 0 0 1-.52 4.003H273V266Zm0-5.999h5.46c.284 1.246.457 2.592.52 4H273v-4Zm0-7.873c2.053.549 3.825 2.758 4.9 5.87H273v-5.87Zm6.965 5.87c-.584-1.834-1.385-3.445-2.356-4.729a13.087 13.087 0 0 1 5.347 4.729h-2.99Zm-8.967 0h-4.9c1.075-3.112 2.845-5.321 4.9-5.87v5.87Zm0 6.002h-5.98c.059-1.407.236-2.753.518-3.999H271v4Zm0 6.003h-5.462a22.446 22.446 0 0 1-.518-4.003H271v4.003Zm0 7.87c-2.055-.55-3.825-2.757-4.9-5.87h4.9v5.87Zm-6.963-5.87c.584 1.835 1.387 3.446 2.354 4.728a13.066 13.066 0 0 1-5.349-4.729h2.995ZM263.02 266c.055 1.395.224 2.737.492 4.003h-3.517a13.005 13.005 0 0 1-.957-4.003h3.982Zm.492-5.999a23.79 23.79 0 0 0-.492 4h-3.982c.106-1.408.439-2.754.957-4h3.517Zm.526-2.003h-2.997a13.08 13.08 0 0 1 5.349-4.729c-.965 1.284-1.768 2.895-2.352 4.729ZM286.964 264c-.492-7.49-6.476-13.476-13.963-13.968V250h-2.002v.032c-7.487.492-13.473 6.478-13.965 13.968H257v2h.034c.492 7.49 6.478 13.474 13.965 13.966V280h2.002v-.034c7.487-.492 13.471-6.476 13.963-13.966H287v-2h-.036Z"/><path fill="#979797" fill-rule="nonzero" d="m191.994 193.006.012-1-2-.024-.012 1 2 .024Zm-5-.06.012-1-2-.025-.012 1 2 .024Zm-5-.062.013-1-2-.024-.012 1 2 .024Zm-4.999-.06.012-1-2-.025-.012 1 2 .024Zm-5-.062.013-1-2-.024-.012 1 2 .024Zm-5-.06.013-1-2-.025-.012 1 2 .024Zm-4.999-.062.012-1-2-.024-.012 1 2 .024Zm-5-.06.013-1-2-.025-.012 1 2 .024Zm-5-.062.013-1-2-.024-.012 1 2 .024Zm-4.999-.06.012-1-2-.025-.012 1 2 .024Zm-5-.062.013-1-2-.024-.012 1 2 .024Zm-4.999-.06.012-1-2-.025-.012 1 2 .024Zm-5-.062.013-1-2-.024-.013 1 2 .024Zm-5-.06.013-1-2-.025-.012 1 2 .024Zm-4.999-.062.012-1-2-.024-.012 1 2 .024Zm-5-.06.013-1-2-.025-.012 1 2 .024Zm-5-.061.013-1-2-.025-.012 1 2 .025Z"/><g transform="translate(109 62)"><path fill="#999" fill-opacity=".5" fill-rule="nonzero" d="M41-2C17.252-2-2 17.252-2 41l.005.649c.311 20.936 15.664 38.51 36.101 41.801l.133.02 4.423 10.318.073.153c.777 1.481 2.981 1.403 3.622-.198l4.032-10.078.09-.011C67.779 80.947 84 62.752 84 41 84 17.252 64.748-2 41-2Zm0 2c22.644 0 41 18.356 41 41 0 21.302-16.245 38.81-37.022 40.81L40.5 93l-4.864-11.348C15.527 79.025 0 61.826 0 41 0 18.356 18.356 0 41 0Z"/><path fill="#999" d="m34.404.528-.053 2.385-.016.65-.018.654-.079 2.638-.045 1.335c-.036 1.032-.164 2.136-.38 3.365l-.098.534-.115.587-.127.604-.142.643-.162.7-.42 1.758-.374 1.586-.224 1.008-.158.789-.067.394-.049.35-.024.215-.03.407-.011.4v43.783c0 .013.007.025.017.03l.018.006 1.281-.077 3.028-.196 2.243-.159 2.082-.16 1.921-.164 1.337-.125 1.245-.125 1.156-.127 1.065-.128.975-.129.6-.087.977-.153c.459-.073.913-.148 1.363-.224l.67-.115 1.318-.234 1.285-.24 1.252-.246 1.216-.25c.748-.159 1.475-.32 2.178-.482l.696-.164 1.079-.264 1.036-.267c.81-.214 1.58-.431 2.301-.649l.533-.163.734-.236.686-.233.164-.057.161-.058.613-.227a17.804 17.804 0 0 0 1.733-.757 5.54 5.54 0 0 0 .832-.505l.087-.072.027-.023c.015-.012.025-.018.032-.016l.007.01.003.023-.016-2.641-.004-2.624.004-1.188.02-1.873-.009-.444-.004-.118-.005-.12-.03-.515-.044-.564-.058-.62-.072-.678-.064-.557-.344-2.812-.102-.906-.05-.58-.013-.372-.008-2.488-.023-2.605-.042-2.826-.158-7.914-.087-5.088-.023-2.426v-1.918l.01-1.172.01-.571.023-1.136.037-1.302.038-.877.03-.49c.576.53 1.137 1.078 1.681 1.64l-.017.505-.03 1.242-.021 1.36-.009 1.926.02 2.792.054 3.488.197 9.96.05 3.614.013 1.478.008 2.656.007.29.027.404.06.587.38 3.131.13 1.144.068.68.054.625.038.573.024.527c.005.168.008.33.008.484l-.002.229-.012.942-.009 1.476v2.043l.021 3.714c0 .61-.639 1.259-1.819 1.92l-.227.125-.36.184-.094.046-.095.046-.4.185-.426.185-.451.185-.117.047-.118.046-.49.185-.514.185-.538.185-.138.046-.14.046-.573.185-.597.183-.937.274-.651.182-1.018.27-.705.18-1.094.266-.755.176-1.167.26-.8.172-1.235.253-1.274.25-.87.162-1.335.24-1.37.235-.93.153-1.325.208-.81.115-.876.113-.944.113-1.01.111-1.381.14-1.034.097-1.65.144-1.772.142-1.892.14-2.012.139-2.133.136-1.49.09-.105.003a1.79 1.79 0 0 1-1.72-1.294l-.85-.096a.525.525 0 0 1-.86-.094l-1.08-.121a.527.527 0 0 1-.419.388l-.094.008a.526.526 0 0 1-.516-.434l-.008-.095v-.282c-.517.219-.87.454-1.065.689l-.063.084c-.465.693-1.52.402-1.6-.388l-.006-.111.532-42.296-.004-.51-.012-.504-.022-.503-.031-.51-.041-.527-.052-.549-.062-.579-.074-.617-.086-.664-.21-1.494-.267-1.828-.162-1.18-.123-1-.048-.447-.057-.625-.028-.395-.03-.577-.017-.577-.004-.396-.008-2.066-.006-2.985-.001-.254a40.803 40.803 0 0 1 1.756-.823l.002 2.625.013 3.683.012.548.024.544.039.56.055.6.073.658.093.74.204 1.468.275 1.888.157 1.128.089.684.076.637.064.6.053.572.043.549.017.268.027.532.01.264.013.531.005.542-.51 40.519.159-.074c.163-.072.335-.141.516-.207l.278-.097.016-.004.326-60.623c.349-.13.7-.257 1.053-.378l-.33 61.456a.886.886 0 0 1-.002.768l-.002.009.997.11v-8.768a.526.526 0 0 1 1.044-.095l.009.095-.001 8.886.65.072.001-43.225c0-.077.002-.152.004-.226l.007-.22.012-.22.017-.222.023-.228.047-.364.04-.263.109-.592.106-.517.288-1.284.16-.677.087-15.464c.35-.088.7-.172 1.054-.25l-.061 10.983.042-.21c.227-1.195.37-2.254.429-3.224l.02-.41.022-.665.022-.663.079-2.628.033-1.298.03-1.289.014-.732c.583-.121 1.171-.23 1.763-.325Zm22.94 2.859-.015.35c-.02.388-.045.775-.078 1.175l-.065.727-.275 2.66-.095 1.028-.057.699-.052.714-.069 1.112-.058 1.17-.032.819-.04 1.299-.019.918-.015.964-.013 1.544-.002 1.099v30.184a.877.877 0 0 1-1.748.11l-.007-.11V19.102l.01-1.665.015-1.038.03-1.46.043-1.36.036-.857.063-1.223.049-.782.084-1.132.096-1.097.32-3.127c.09-.947.142-1.772.16-2.678.584.22 1.162.455 1.734.704ZM29.855 1.533l-.22 22.305a.526.526 0 0 1-.437.514l-.095.007a.526.526 0 0 1-.513-.436l-.008-.095.217-21.982c.35-.109.702-.213 1.056-.313Z"/><path fill="#2A75FF" fill-rule="nonzero" d="M29 25.545a.57.57 0 0 1 .558.482l.007.093-.228 26.93a.57.57 0 0 1-1.134.082l-.007-.092.228-26.93a.57.57 0 0 1 .575-.565Z"/><ellipse cx="28.763" cy="39.158" fill="#367DFF" filter="url(#a)" opacity=".5" rx="8" ry="17.5"/></g><path fill="#F84343" fill-opacity=".9" fill-rule="nonzero" d="M35.003 112.635C35.197 100.655 44.972 91 56.999 91 69.149 91 79 100.85 79 112.999 79 125.149 69.15 135 56.999 135c-12.028 0-21.802-9.655-21.996-21.638L35 113l.003-.364Zm2.997.364C38 123.493 46.507 132 56.999 132 67.493 132 76 123.493 76 112.999 76 102.507 67.493 94 56.999 94 46.507 94 38 102.507 38 112.999Zm183.003-.364c.194-11.98 9.969-21.635 21.996-21.635 12.15 0 22.001 9.85 22.001 21.999 0 12.15-9.85 22.001-22.001 22.001-12.028 0-21.802-9.655-21.996-21.638L221 113l.003-.364Zm2.997.364c0 10.494 8.507 19.001 18.999 19.001 10.494 0 19.001-8.507 19.001-19.001C262 102.507 253.493 94 242.999 94 232.507 94 224 102.507 224 112.999Z"/></g></svg>