<svg xmlns="http://www.w3.org/2000/svg" xmlns:xlink="http://www.w3.org/1999/xlink" width="300" height="300"><defs><filter id="a" width="1251.5%" height="142.6%" x="-575.8%" y="-21.3%" filterUnits="objectBoundingBox"><feOffset in="SourceAlpha" result="shadowOffsetOuter1"/><feGaussianBlur in="shadowOffsetOuter1" result="shadowBlurOuter1" stdDeviation="2"/><feColorMatrix in="shadowBlurOuter1" values="0 0 0 0 1 0 0 0 0 1 0 0 0 0 1 0 0 0 0.975914695 0"/></filter><filter id="c" width="300%" height="194.6%" x="-100%" y="-47.3%" filterUnits="objectBoundingBox"><feGaussianBlur in="SourceGraphic" stdDeviation="6"/></filter><path id="b" d="M9.268 25.01c.268 0 .49.203.518.465l.003.057v27.155a.522.522 0 0 1-1.04.057l-.002-.057V25.532c0-.289.233-.523.52-.523Z"/></defs><g fill="none" fill-rule="evenodd"><g transform="translate(201 20)"><path fill="#999" fill-opacity=".7" fill-rule="nonzero" d="M45.755 85.771h-7.503a4.207 4.207 0 0 0-4.213 4.2v7.466c0 2.32 1.887 4.2 4.213 4.2h7.503a4.207 4.207 0 0 0 4.213-4.2v-7.465c0-2.32-1.886-4.201-4.213-4.201Zm-7.503.92h7.503a3.285 3.285 0 0 1 3.29 3.28v7.466a3.285 3.285 0 0 1-3.29 3.28h-7.503a3.285 3.285 0 0 1-3.29-3.28v-7.465a3.285 3.285 0 0 1 3.29-3.28Z"/><path fill="#999" fill-rule="nonzero" d="M34.602 82.796c.289 0 .537-.082.743-.247.221-.175.36-.418.42-.732h-.428c-.052.202-.142.355-.27.456a.767.767 0 0 1-.469.138c-.292 0-.51-.093-.649-.273-.127-.168-.19-.41-.19-.724 0-.307.063-.546.194-.718.143-.194.353-.288.634-.288a.8.8 0 0 1 .462.12c.123.082.206.21.25.385h.429a.984.984 0 0 0-.353-.643c-.203-.164-.465-.246-.78-.246-.428 0-.754.138-.98.422-.198.246-.296.571-.296.968 0 .403.094.724.285.964.218.276.552.418.998.418Zm2.765 0c.409 0 .731-.13.968-.392.225-.25.337-.58.337-.99 0-.412-.112-.744-.337-.994-.237-.266-.56-.396-.968-.396-.413 0-.735.13-.968.4-.225.253-.334.582-.334.99 0 .403.109.732.334.986.233.262.555.396.968.396Zm0-.385c-.278 0-.495-.093-.645-.276-.147-.18-.218-.419-.218-.721 0-.307.071-.546.218-.725.153-.187.367-.28.645-.28s.491.085.641.265c.147.179.222.426.222.74 0 .313-.075.556-.222.732-.15.175-.363.265-.641.265Zm2.157.333v-1.95h.015l1.34 1.95h.427v-2.668h-.443V82h-.015l-1.324-1.924h-.439v2.668h.439Zm2.746 0v-1.95h.015l1.34 1.95h.427v-2.668h-.443V82h-.015l-1.324-1.924h-.439v2.668h.439Zm4.303 0v-.374h-1.557v-.807h1.403v-.374h-1.403v-.74h1.493v-.373h-1.932v2.668h1.996Zm1.583.052c.289 0 .536-.082.743-.247.221-.175.36-.418.42-.732h-.428c-.052.202-.142.355-.27.456a.767.767 0 0 1-.469.138c-.292 0-.51-.093-.649-.273-.127-.168-.191-.41-.191-.724 0-.307.064-.546.195-.718.143-.194.353-.288.634-.288a.8.8 0 0 1 .461.12c.124.082.207.21.252.385h.427a.984.984 0 0 0-.352-.643c-.203-.164-.465-.246-.78-.246-.428 0-.755.138-.98.422-.198.246-.296.571-.296.968 0 .403.094.724.285.964.218.276.552.418.998.418Zm2.686-.052v-2.295h.878v-.373h-2.195v.373h.878v2.295h.439ZM43.541 214.021l.525-2.006h.015l.522 2.006h.465l.773-2.668h-.495l-.503 2.03h-.015l-.529-2.03h-.454l-.529 2.03h-.015l-.503-2.03h-.495l.77 2.668h.468Zm2.788 0 .243-.668h1.122l.244.668h.469l-1.024-2.668h-.5l-1.023 2.668h.469Zm1.234-1.027h-.86l.425-1.17h.015l.42 1.17Zm1.545 1.027v-1.95h.015l1.34 1.95h.427v-2.668h-.442v1.925h-.015l-1.325-1.925h-.439v2.668h.44Zm-14.774-2.8c-.3 0-.543.093-.724.287-.178.179-.268.417-.272.714h.429c.008-.215.055-.375.15-.487.09-.115.224-.171.4-.171.166 0 .296.037.383.111.086.075.13.186.13.335a.63.63 0 0 1-.193.436 2.923 2.923 0 0 1-.402.305c-.318.208-.531.368-.633.484a.98.98 0 0 0-.28.695h1.936v-.357h-1.404c.059-.145.24-.312.543-.502a3.9 3.9 0 0 0 .582-.428c.181-.19.276-.398.276-.629a.728.728 0 0 0-.256-.573c-.173-.149-.398-.22-.665-.22Zm1.672 2.177a.272.272 0 0 0-.204.078.254.254 0 0 0-.087.201c0 .075.028.142.087.198a.285.285 0 0 0 .204.074c.079 0 .15-.026.209-.074a.278.278 0 0 0 .086-.198.267.267 0 0 0-.086-.2.307.307 0 0 0-.209-.079Zm.91-2.124-.154 1.488h.401a.482.482 0 0 1 .232-.212.748.748 0 0 1 .327-.063c.189 0 .33.052.433.156.102.104.153.25.153.435a.516.516 0 0 1-.177.41.652.652 0 0 1-.437.152.64.64 0 0 1-.377-.1.452.452 0 0 1-.185-.339h-.421c.02.246.13.443.33.584.181.13.398.197.65.197.279 0 .519-.078.72-.234a.835.835 0 0 0 .322-.673c0-.287-.086-.51-.251-.674a.88.88 0 0 0-.646-.246.935.935 0 0 0-.346.06.745.745 0 0 0-.3.182h-.011l.083-.766h1.345v-.357h-1.692Zm3.478-.053c-.413 0-.744.134-.988.41-.232.257-.346.584-.346.982 0 .395.114.718.346.968.248.268.595.401 1.043.401.244 0 .469-.03.673-.089a1.67 1.67 0 0 0 .508-.25v-1.115h-1.204v.346h.775v.576c-.095.056-.197.1-.315.13-.122.03-.252.049-.39.049-.35 0-.61-.093-.775-.28-.157-.17-.232-.416-.232-.736 0-.327.083-.584.256-.77.161-.179.378-.264.65-.264.22 0 .4.044.534.137a.62.62 0 0 1 .26.402h.433c-.051-.297-.177-.517-.378-.666-.208-.156-.492-.23-.85-.23ZM40.56 109.647v-.374H39.11v-2.294h-.435v2.668h1.883Zm.543 0 .244-.669h1.122l.244.669h.468l-1.024-2.668h-.499l-1.024 2.668h.47Zm1.234-1.028h-.859l.424-1.17h.015l.42 1.17Zm1.546 1.028v-1.95h.015l1.34 1.95h.427v-2.668h-.443v1.924h-.015l-1.324-1.924h-.439v2.668h.439ZM35.739 239.243v-1.024h.664c.652 0 .979-.276.979-.825 0-.546-.327-.819-.972-.819H35.3v2.668h.439Zm.637-1.397h-.637v-.897h.637c.192 0 .334.033.424.104.09.068.14.18.14.34 0 .161-.046.277-.136.348-.09.067-.233.105-.428.105Zm2.57 1.45c.409 0 .732-.131.968-.393.225-.25.338-.58.338-.99 0-.411-.113-.744-.338-.994-.236-.265-.559-.396-.968-.396-.413 0-.735.13-.968.4-.225.254-.334.583-.334.99 0 .403.11.732.334.986.233.262.555.396.968.396Zm0-.385c-.278 0-.495-.094-.645-.277-.146-.18-.218-.418-.218-.721 0-.307.072-.546.218-.725.154-.187.367-.28.645-.28s.492.086.642.265c.146.18.22.426.22.74s-.074.557-.22.732c-.15.176-.364.266-.642.266Zm2.712.332.526-2.006h.015l.521 2.006h.465l.773-2.668h-.495l-.503 2.03h-.015l-.529-2.03h-.454l-.529 2.03h-.015l-.502-2.03h-.496l.77 2.668h.468Zm4.577 0v-.374h-1.557v-.807h1.403v-.373h-1.403v-.74h1.493v-.374H44.24v2.668h1.996Zm.852 0v-1.087h.694c.15 0 .266.03.345.097.075.063.12.168.135.314l.034.329c.015.15.052.265.116.347h.476a.647.647 0 0 1-.161-.392l-.045-.43c-.03-.261-.161-.415-.394-.467v-.007a.582.582 0 0 0 .341-.236.634.634 0 0 0 .113-.37c0-.254-.086-.448-.251-.583-.158-.123-.375-.183-.65-.183h-1.192v2.668h.439Zm.694-1.46h-.694v-.834h.694c.18 0 .311.03.394.097.082.064.123.168.123.314 0 .134-.04.239-.123.314-.09.07-.222.108-.394.108ZM36.615 64.995v-1.087h.694c.15 0 .266.03.345.097.075.063.12.168.135.314l.034.329c.015.15.052.265.116.347h.476a.647.647 0 0 1-.16-.392l-.046-.43c-.03-.262-.161-.415-.394-.467v-.007a.582.582 0 0 0 .342-.236.634.634 0 0 0 .112-.37c0-.254-.086-.448-.251-.583-.158-.123-.375-.183-.65-.183h-1.192v2.668h.439Zm.694-1.46h-.694V62.7h.694c.18 0 .311.03.394.097.082.064.123.168.123.314 0 .134-.04.239-.123.314-.09.07-.222.108-.394.108Zm3.477 1.46v-.374H39.23v-.807h1.403v-.373H39.23v-.74h1.493v-.374H38.79v2.668h1.995Zm1.403.052c.342 0 .608-.07.796-.205a.669.669 0 0 0 .281-.568c0-.247-.116-.437-.349-.575-.105-.06-.337-.15-.701-.262a3.779 3.779 0 0 1-.458-.164c-.128-.068-.188-.161-.188-.273 0-.127.053-.22.165-.277.09-.048.218-.07.387-.07.195 0 .345.033.443.108.097.07.168.19.206.355h.435c-.026-.292-.135-.509-.323-.647-.176-.13-.424-.194-.739-.194-.288 0-.525.063-.712.194a.632.632 0 0 0-.3.557.59.59 0 0 0 .307.538c.079.045.285.12.615.224.297.09.47.15.522.176.165.082.251.194.251.336 0 .112-.06.198-.172.265a.956.956 0 0 1-.466.098c-.221 0-.382-.042-.487-.116-.117-.086-.188-.232-.218-.434h-.435c.019.34.143.587.368.744.183.127.442.19.772.19Zm3.448-.052v-.374H44.08v-.807h1.403v-.373H44.08v-.74h1.493v-.374h-1.932v2.668h1.996Zm1.523 0v-2.294h.878v-.374h-2.195v.374h.878v2.294h.439Z"/><ellipse cx="42.473" cy="68.95" fill="#999" fill-opacity=".5" rx="1.407" ry="1.401"/><ellipse cx="40.128" cy="228.718" fill="#999" fill-opacity=".5" rx="4.689" ry="4.671"/><path fill="#999" fill-opacity=".5" d="M41.55 172.766v1.693l2.572.001v3.387l1.715.001v.846h1.715v5.083h-1.714l-.001.847h-1.714l-.001 3.387H41.55v1.694h-4.288v-1.694h-1.715v-13.55l1.716-.002v-1.693h4.287Zm-.4 12.43h-4.002v.88h4.001v-.88Zm0-1.76h-4.002v.88h4.001v-.88Zm0-1.76h-4.002v.88h4.001v-.88Zm0-1.76h-4.002v.88h4.001v-.88Zm0-1.76h-4.002v.88h4.001v-.88Zm0-1.76h-4.002v.88h4.001v-.88ZM41.55 152.838v1.693h2.572v3.388h1.715v.847h1.715v5.082h-1.714l-.001.847h-1.714l-.001 3.388H41.55v1.694h-4.288v-1.694h-1.715v-13.551l1.716-.001v-1.693h4.287Zm-.4 12.43h-4.002v.88h4.001v-.88Zm0-1.76h-4.002v.88h4.001v-.88Zm0-1.76h-4.002v.88h4.001v-.88Zm0-1.76h-4.002v.88h4.001v-.88Zm0-1.76h-4.002v.88h4.001v-.88Zm0-1.76h-4.002v.88h4.001v-.88ZM41.55 132.91v1.693h2.572v3.388h1.715v.847h1.715v5.082h-1.714l-.001.847h-1.714l-.001 3.388H41.55v1.694h-4.288v-1.694h-1.715v-13.551l1.716-.001v-1.693h4.287Zm-.4 12.429h-4.002v.88h4.001v-.88Zm0-1.76h-4.002v.88h4.001v-.88Zm0-1.76h-4.002v.88h4.001v-.88Zm0-1.76h-4.002v.88h4.001v-.88Zm0-1.76h-4.002v.88h4.001v-.88Zm0-1.76h-4.002v.88h4.001v-.88ZM41.55 112.981v1.693l2.572.001v3.387l1.715.001v.846l1.715.001v5.082h-1.714l-.001.847h-1.714l-.001 3.388H41.55v1.693h-4.288v-1.694h-1.715v-13.55l1.716-.002v-1.693h4.287Zm-.4 12.43h-4.002v.88h4.001v-.88Zm0-1.76h-4.002v.88h4.001v-.88Zm0-1.76h-4.002v.88h4.001v-.88Zm0-1.76h-4.002v.88h4.001v-.88Zm0-1.76h-4.002v.88h4.001v-.88Zm0-1.76h-4.002v.88h4.001v-.88Z"/><path fill="#FF5B5B" fill-opacity=".5" d="M41.55 191.698v1.693l2.572.001v3.387h1.715v.847h1.715v5.082h-1.714l-.001.847h-1.714l-.001 3.388H41.55v1.694h-4.288v-1.694h-1.715v-13.551h1.716v-1.694h4.287Zm-.4 12.43h-4.002v.88h4.001v-.88Zm0-1.76h-4.002v.88h4.001v-.88Zm0-1.76h-4.002v.88h4.001v-.88Zm0-1.76h-4.002v.88h4.001v-.88Zm0-1.76h-4.002v.88h4.001v-.88Zm0-1.76h-4.002v.88h4.001v-.88Z"/><path fill="#999" fill-rule="nonzero" d="M33.109 191.197v.934h-1.876v19.772l1.451.001v.934h-2.389v-21.64zM53.712 191.197v21.641h-1.92v-.934h.982V192.13H50.9v-.934zM33.109 189.329v-.934h-1.876v-79.463l4.22-.001v-.934h-5.158v81.332zM53.712 189.329v-81.332h-4.69v.934h3.752v79.465l-1.875-.001v.934z"/><path fill="#999" fill-opacity=".7" fill-rule="nonzero" d="m56.72 1.013 6.813 24.344 14.39 51.012 4.981 17.591A28.84 28.84 0 0 1 84 101.838v97.548c0 1.518-.12 3.034-.358 4.533l-7.804 49.146a6.913 6.913 0 0 1-5.7 5.73l-7.14 1.186a1.384 1.384 0 0 1-1.611-1.3l-.025-.522H22.637l-.024.522a1.383 1.383 0 0 1-1.475 1.316l-.135-.016-7.141-1.187a6.914 6.914 0 0 1-5.654-5.472l-.046-.257-7.804-49.146a28.908 28.908 0 0 1-.35-3.883l-.008-.65v-97.548c0-2.444.31-4.875.922-7.236l.174-.642L6.077 76.37l14.39-51.012 6.814-24.344c.456-1.639 2.903-1.164 2.71.527a1173.731 1173.731 0 0 0-2.49 23.904l-1.023-.122c1.457.18 2.938.334 4.444.461v-14.65h3.693l-.001 14.905c1.812.097 3.658.158 5.537.182l.002-15.087h3.692l.002 15.087c1.879-.024 3.724-.085 5.536-.182V11.133h3.693v14.65c1.156-.097 2.297-.21 3.423-.339A1171.71 1171.71 0 0 0 54.01 1.54c-.193-1.69 2.254-2.166 2.71-.527ZM25.46 17.811l-5.367 19.102L3.761 94.712a26.084 26.084 0 0 0-.985 6.523l-.007.603v97.548c0 1.144.075 2.287.225 3.422l.099.68 7.804 49.145a4.147 4.147 0 0 0 3.218 3.4l.202.038 5.602.93.104-2.083.032-.614.033-.612.136-2.414.036-.596.036-.594.15-2.345.079-1.156.08-1.145.17-2.261.087-1.116.09-1.107.185-2.187.097-1.081.098-1.073.204-2.124.212-2.096.104-.992.136-1.202 1.246-10.194.418-3.477.4-3.485.246-2.343.093-1.026.027-.344.035-.566.007-.217.001-77.18c0-2.234-.18-4.463-.536-6.666l-.141-.825-3.145-17.243a40.832 40.832 0 0 1-.632-8.886c.996-26.04 2.678-51.311 5.046-75.814l.313-3.192.094-.934Zm33.08 0 .094.934c2.534 25.499 4.32 51.834 5.36 79.006a40.832 40.832 0 0 1-.633 8.886l-3.145 17.243a41.756 41.756 0 0 0-.677 7.49v77.181l.008.217.035.566.027.344.093 1.026.246 2.343.4 3.485.418 3.477 1.246 10.194.136 1.202.104.992.212 2.096.204 2.124c.066.712.131 1.43.195 2.154l.186 2.187c.06.735.12 1.476.177 2.223l.168 2.26c.055.761.108 1.528.16 2.302l.15 2.345.072 1.19.136 2.414.065 1.226.104 2.083 5.602-.93a4.148 4.148 0 0 0 3.42-3.438l7.804-49.146c.216-1.356.324-2.728.324-4.101v-97.548c0-2.411-.334-4.81-.992-7.126L63.907 36.913 58.54 17.811Zm-1.785 10.383 1.107-.132c-5.012.621-10.3.931-15.863.931-5.154 0-10.072-.266-14.753-.799-2.069 22.572-3.56 45.793-4.472 69.662a38.077 38.077 0 0 0 .461 7.54l.129.747 3.144 17.243a44.51 44.51 0 0 1 .713 7.092l.01.893v77.09l-.001.06-.001.067-.012.312-.023.384-.055.7-.075.837-.131 1.3-.117 1.095-.323 2.854-.48 4.03-.852 6.941-.49 4.065-.169 1.575-.201 1.987-.194 2.013-.185 2.04-.178 2.069-.17 2.1-.162 2.136-.153 2.172-.146 2.21-.035.56-.034.56-.134 2.273-.125 2.317-.014.279h38.458l-.014-.279-.125-2.317-.134-2.272a468.96 468.96 0 0 0-.07-1.12l-.145-2.211-.153-2.172-.162-2.135-.17-2.101-.178-2.07-.185-2.04-.194-2.012-.201-1.987-.17-1.575-.489-4.065-.852-6.942-.48-4.03-.323-2.853-.117-1.094-.13-1.3-.076-.837-.055-.701-.023-.384-.012-.312a5.829 5.829 0 0 1-.001-.128v-77.09c0-2.677.242-5.35.722-7.984l3.144-17.243c.499-2.733.696-5.512.59-8.287-.913-23.87-2.403-47.09-4.471-69.662Z"/></g><g transform="translate(15 20)"><path fill="#999" fill-opacity=".7" fill-rule="nonzero" d="M45.755 85.771h-7.503a4.207 4.207 0 0 0-4.213 4.2v7.466c0 2.32 1.887 4.2 4.213 4.2h7.503a4.207 4.207 0 0 0 4.213-4.2v-7.465c0-2.32-1.886-4.201-4.213-4.201Zm-7.503.92h7.503a3.285 3.285 0 0 1 3.29 3.28v7.466a3.285 3.285 0 0 1-3.29 3.28h-7.503a3.285 3.285 0 0 1-3.29-3.28v-7.465a3.285 3.285 0 0 1 3.29-3.28Z"/><path fill="#999" fill-rule="nonzero" d="M34.602 82.796c.289 0 .537-.082.743-.247.221-.175.36-.418.42-.732h-.428c-.052.202-.142.355-.27.456a.767.767 0 0 1-.469.138c-.292 0-.51-.093-.649-.273-.127-.168-.19-.41-.19-.724 0-.307.063-.546.194-.718.143-.194.353-.288.634-.288a.8.8 0 0 1 .462.12c.123.082.206.21.25.385h.429a.984.984 0 0 0-.353-.643c-.203-.164-.465-.246-.78-.246-.428 0-.754.138-.98.422-.198.246-.296.571-.296.968 0 .403.094.724.285.964.218.276.552.418.998.418Zm2.765 0c.409 0 .731-.13.968-.392.225-.25.337-.58.337-.99 0-.412-.112-.744-.337-.994-.237-.266-.56-.396-.968-.396-.413 0-.735.13-.968.4-.225.253-.334.582-.334.99 0 .403.109.732.334.986.233.262.555.396.968.396Zm0-.385c-.278 0-.495-.093-.645-.276-.147-.18-.218-.419-.218-.721 0-.307.071-.546.218-.725.153-.187.367-.28.645-.28s.491.085.641.265c.147.179.222.426.222.74 0 .313-.075.556-.222.732-.15.175-.363.265-.641.265Zm2.157.333v-1.95h.015l1.34 1.95h.427v-2.668h-.443V82h-.015l-1.324-1.924h-.439v2.668h.439Zm2.746 0v-1.95h.015l1.34 1.95h.427v-2.668h-.443V82h-.015l-1.324-1.924h-.439v2.668h.439Zm4.303 0v-.374h-1.557v-.807h1.403v-.374h-1.403v-.74h1.493v-.373h-1.932v2.668h1.996Zm1.583.052c.289 0 .536-.082.743-.247.221-.175.36-.418.42-.732h-.428c-.052.202-.142.355-.27.456a.767.767 0 0 1-.469.138c-.292 0-.51-.093-.649-.273-.127-.168-.191-.41-.191-.724 0-.307.064-.546.195-.718.143-.194.353-.288.634-.288a.8.8 0 0 1 .461.12c.124.082.207.21.252.385h.427a.984.984 0 0 0-.352-.643c-.203-.164-.465-.246-.78-.246-.428 0-.755.138-.98.422-.198.246-.296.571-.296.968 0 .403.094.724.285.964.218.276.552.418.998.418Zm2.686-.052v-2.295h.878v-.373h-2.195v.373h.878v2.295h.439ZM43.541 214.021l.525-2.006h.015l.522 2.006h.465l.773-2.668h-.495l-.503 2.03h-.015l-.529-2.03h-.454l-.529 2.03h-.015l-.503-2.03h-.495l.77 2.668h.468Zm2.788 0 .243-.668h1.122l.244.668h.469l-1.024-2.668h-.5l-1.023 2.668h.469Zm1.234-1.027h-.86l.425-1.17h.015l.42 1.17Zm1.545 1.027v-1.95h.015l1.34 1.95h.427v-2.668h-.442v1.925h-.015l-1.325-1.925h-.439v2.668h.44Zm-14.774-2.8c-.3 0-.543.093-.724.287-.178.179-.268.417-.272.714h.429c.008-.215.055-.375.15-.487.09-.115.224-.171.4-.171.166 0 .296.037.383.111.086.075.13.186.13.335a.63.63 0 0 1-.193.436 2.923 2.923 0 0 1-.402.305c-.318.208-.531.368-.633.484a.98.98 0 0 0-.28.695h1.936v-.357h-1.404c.059-.145.24-.312.543-.502a3.9 3.9 0 0 0 .582-.428c.181-.19.276-.398.276-.629a.728.728 0 0 0-.256-.573c-.173-.149-.398-.22-.665-.22Zm1.672 2.177a.272.272 0 0 0-.204.078.254.254 0 0 0-.087.201c0 .075.028.142.087.198a.285.285 0 0 0 .204.074c.079 0 .15-.026.209-.074a.278.278 0 0 0 .086-.198.267.267 0 0 0-.086-.2.307.307 0 0 0-.209-.079Zm.91-2.124-.154 1.488h.401a.482.482 0 0 1 .232-.212.748.748 0 0 1 .327-.063c.189 0 .33.052.433.156.102.104.153.25.153.435a.516.516 0 0 1-.177.41.652.652 0 0 1-.437.152.64.64 0 0 1-.377-.1.452.452 0 0 1-.185-.339h-.421c.02.246.13.443.33.584.181.13.398.197.65.197.279 0 .519-.078.72-.234a.835.835 0 0 0 .322-.673c0-.287-.086-.51-.251-.674a.88.88 0 0 0-.646-.246.935.935 0 0 0-.346.06.745.745 0 0 0-.3.182h-.011l.083-.766h1.345v-.357h-1.692Zm3.478-.053c-.413 0-.744.134-.988.41-.232.257-.346.584-.346.982 0 .395.114.718.346.968.248.268.595.401 1.043.401.244 0 .469-.03.673-.089a1.67 1.67 0 0 0 .508-.25v-1.115h-1.204v.346h.775v.576c-.095.056-.197.1-.315.13-.122.03-.252.049-.39.049-.35 0-.61-.093-.775-.28-.157-.17-.232-.416-.232-.736 0-.327.083-.584.256-.77.161-.179.378-.264.65-.264.22 0 .4.044.534.137a.62.62 0 0 1 .26.402h.433c-.051-.297-.177-.517-.378-.666-.208-.156-.492-.23-.85-.23ZM40.56 109.647v-.374H39.11v-2.294h-.435v2.668h1.883Zm.543 0 .244-.669h1.122l.244.669h.468l-1.024-2.668h-.499l-1.024 2.668h.47Zm1.234-1.028h-.859l.424-1.17h.015l.42 1.17Zm1.546 1.028v-1.95h.015l1.34 1.95h.427v-2.668h-.443v1.924h-.015l-1.324-1.924h-.439v2.668h.439ZM35.739 239.243v-1.024h.664c.652 0 .979-.276.979-.825 0-.546-.327-.819-.972-.819H35.3v2.668h.439Zm.637-1.397h-.637v-.897h.637c.192 0 .334.033.424.104.09.068.14.18.14.34 0 .161-.046.277-.136.348-.09.067-.233.105-.428.105Zm2.57 1.45c.409 0 .732-.131.968-.393.225-.25.338-.58.338-.99 0-.411-.113-.744-.338-.994-.236-.265-.559-.396-.968-.396-.413 0-.735.13-.968.4-.225.254-.334.583-.334.99 0 .403.11.732.334.986.233.262.555.396.968.396Zm0-.385c-.278 0-.495-.094-.645-.277-.146-.18-.218-.418-.218-.721 0-.307.072-.546.218-.725.154-.187.367-.28.645-.28s.492.086.642.265c.146.18.22.426.22.74s-.074.557-.22.732c-.15.176-.364.266-.642.266Zm2.712.332.526-2.006h.015l.521 2.006h.465l.773-2.668h-.495l-.503 2.03h-.015l-.529-2.03h-.454l-.529 2.03h-.015l-.502-2.03h-.496l.77 2.668h.468Zm4.577 0v-.374h-1.557v-.807h1.403v-.373h-1.403v-.74h1.493v-.374H44.24v2.668h1.996Zm.852 0v-1.087h.694c.15 0 .266.03.345.097.075.063.12.168.135.314l.034.329c.015.15.052.265.116.347h.476a.647.647 0 0 1-.161-.392l-.045-.43c-.03-.261-.161-.415-.394-.467v-.007a.582.582 0 0 0 .341-.236.634.634 0 0 0 .113-.37c0-.254-.086-.448-.251-.583-.158-.123-.375-.183-.65-.183h-1.192v2.668h.439Zm.694-1.46h-.694v-.834h.694c.18 0 .311.03.394.097.082.064.123.168.123.314 0 .134-.04.239-.123.314-.09.07-.222.108-.394.108ZM36.615 64.995v-1.087h.694c.15 0 .266.03.345.097.075.063.12.168.135.314l.034.329c.015.15.052.265.116.347h.476a.647.647 0 0 1-.16-.392l-.046-.43c-.03-.262-.161-.415-.394-.467v-.007a.582.582 0 0 0 .342-.236.634.634 0 0 0 .112-.37c0-.254-.086-.448-.251-.583-.158-.123-.375-.183-.65-.183h-1.192v2.668h.439Zm.694-1.46h-.694V62.7h.694c.18 0 .311.03.394.097.082.064.123.168.123.314 0 .134-.04.239-.123.314-.09.07-.222.108-.394.108Zm3.477 1.46v-.374H39.23v-.807h1.403v-.373H39.23v-.74h1.493v-.374H38.79v2.668h1.995Zm1.403.052c.342 0 .608-.07.796-.205a.669.669 0 0 0 .281-.568c0-.247-.116-.437-.349-.575-.105-.06-.337-.15-.701-.262a3.779 3.779 0 0 1-.458-.164c-.128-.068-.188-.161-.188-.273 0-.127.053-.22.165-.277.09-.048.218-.07.387-.07.195 0 .345.033.443.108.097.07.168.19.206.355h.435c-.026-.292-.135-.509-.323-.647-.176-.13-.424-.194-.739-.194-.288 0-.525.063-.712.194a.632.632 0 0 0-.3.557.59.59 0 0 0 .307.538c.079.045.285.12.615.224.297.09.47.15.522.176.165.082.251.194.251.336 0 .112-.06.198-.172.265a.956.956 0 0 1-.466.098c-.221 0-.382-.042-.487-.116-.117-.086-.188-.232-.218-.434h-.435c.019.34.143.587.368.744.183.127.442.19.772.19Zm3.448-.052v-.374H44.08v-.807h1.403v-.373H44.08v-.74h1.493v-.374h-1.932v2.668h1.996Zm1.523 0v-2.294h.878v-.374h-2.195v.374h.878v2.294h.439Z"/><ellipse cx="42.473" cy="68.95" fill="#999" fill-opacity=".5" rx="1.407" ry="1.401"/><ellipse cx="40.128" cy="228.718" fill="#999" fill-opacity=".5" rx="4.689" ry="4.671"/><path fill="#999" fill-opacity=".5" d="M41.55 172.766v1.693l2.572.001v3.387l1.715.001v.846h1.715v5.083h-1.714l-.001.847h-1.714l-.001 3.387H41.55v1.694h-4.288v-1.694h-1.715v-13.55l1.716-.002v-1.693h4.287Zm-.4 12.43h-4.002v.88h4.001v-.88Zm0-1.76h-4.002v.88h4.001v-.88Zm0-1.76h-4.002v.88h4.001v-.88Zm0-1.76h-4.002v.88h4.001v-.88Zm0-1.76h-4.002v.88h4.001v-.88Zm0-1.76h-4.002v.88h4.001v-.88ZM41.55 152.838v1.693h2.572v3.388h1.715v.847h1.715v5.082h-1.714l-.001.847h-1.714l-.001 3.388H41.55v1.694h-4.288v-1.694h-1.715v-13.551l1.716-.001v-1.693h4.287Zm-.4 12.43h-4.002v.88h4.001v-.88Zm0-1.76h-4.002v.88h4.001v-.88Zm0-1.76h-4.002v.88h4.001v-.88Zm0-1.76h-4.002v.88h4.001v-.88Zm0-1.76h-4.002v.88h4.001v-.88Zm0-1.76h-4.002v.88h4.001v-.88ZM41.55 132.91v1.693h2.572v3.388h1.715v.847h1.715v5.082h-1.714l-.001.847h-1.714l-.001 3.388H41.55v1.694h-4.288v-1.694h-1.715v-13.551l1.716-.001v-1.693h4.287Zm-.4 12.429h-4.002v.88h4.001v-.88Zm0-1.76h-4.002v.88h4.001v-.88Zm0-1.76h-4.002v.88h4.001v-.88Zm0-1.76h-4.002v.88h4.001v-.88Zm0-1.76h-4.002v.88h4.001v-.88Zm0-1.76h-4.002v.88h4.001v-.88ZM41.55 112.981v1.693l2.572.001v3.387l1.715.001v.846l1.715.001v5.082h-1.714l-.001.847h-1.714l-.001 3.388H41.55v1.693h-4.288v-1.694h-1.715v-13.55l1.716-.002v-1.693h4.287Zm-.4 12.43h-4.002v.88h4.001v-.88Zm0-1.76h-4.002v.88h4.001v-.88Zm0-1.76h-4.002v.88h4.001v-.88Zm0-1.76h-4.002v.88h4.001v-.88Zm0-1.76h-4.002v.88h4.001v-.88Zm0-1.76h-4.002v.88h4.001v-.88Z"/><path fill="#FF5B5B" fill-opacity=".5" d="M41.55 191.698v1.693l2.572.001v3.387h1.715v.847h1.715v5.082h-1.714l-.001.847h-1.714l-.001 3.388H41.55v1.694h-4.288v-1.694h-1.715v-13.551h1.716v-1.694h4.287Zm-.4 12.43h-4.002v.88h4.001v-.88Zm0-1.76h-4.002v.88h4.001v-.88Zm0-1.76h-4.002v.88h4.001v-.88Zm0-1.76h-4.002v.88h4.001v-.88Zm0-1.76h-4.002v.88h4.001v-.88Zm0-1.76h-4.002v.88h4.001v-.88Z"/><path fill="#999" fill-rule="nonzero" d="M33.109 191.197v.934h-1.876v19.772l1.451.001v.934h-2.389v-21.64zM53.712 191.197v21.641h-1.92v-.934h.982V192.13H50.9v-.934zM33.109 189.329v-.934h-1.876v-79.463l4.22-.001v-.934h-5.158v81.332zM53.712 189.329v-81.332h-4.69v.934h3.752v79.465l-1.875-.001v.934z"/><path fill="#999" fill-opacity=".7" fill-rule="nonzero" d="m56.72 1.013 6.813 24.344 14.39 51.012 4.981 17.591A28.84 28.84 0 0 1 84 101.838v97.548c0 1.518-.12 3.034-.358 4.533l-7.804 49.146a6.913 6.913 0 0 1-5.7 5.73l-7.14 1.186a1.384 1.384 0 0 1-1.611-1.3l-.025-.522H22.637l-.024.522a1.383 1.383 0 0 1-1.475 1.316l-.135-.016-7.141-1.187a6.914 6.914 0 0 1-5.654-5.472l-.046-.257-7.804-49.146a28.908 28.908 0 0 1-.35-3.883l-.008-.65v-97.548c0-2.444.31-4.875.922-7.236l.174-.642L6.077 76.37l14.39-51.012 6.814-24.344c.456-1.639 2.903-1.164 2.71.527a1173.731 1173.731 0 0 0-2.49 23.904l-1.023-.122c1.457.18 2.938.334 4.444.461v-14.65h3.693l-.001 14.905c1.812.097 3.658.158 5.537.182l.002-15.087h3.692l.002 15.087c1.879-.024 3.724-.085 5.536-.182V11.133h3.693v14.65c1.156-.097 2.297-.21 3.423-.339A1171.71 1171.71 0 0 0 54.01 1.54c-.193-1.69 2.254-2.166 2.71-.527ZM25.46 17.811l-5.367 19.102L3.761 94.712a26.084 26.084 0 0 0-.985 6.523l-.007.603v97.548c0 1.144.075 2.287.225 3.422l.099.68 7.804 49.145a4.147 4.147 0 0 0 3.218 3.4l.202.038 5.602.93.104-2.083.032-.614.033-.612.136-2.414.036-.596.036-.594.15-2.345.079-1.156.08-1.145.17-2.261.087-1.116.09-1.107.185-2.187.097-1.081.098-1.073.204-2.124.212-2.096.104-.992.136-1.202 1.246-10.194.418-3.477.4-3.485.246-2.343.093-1.026.027-.344.035-.566.007-.217.001-77.18c0-2.234-.18-4.463-.536-6.666l-.141-.825-3.145-17.243a40.832 40.832 0 0 1-.632-8.886c.996-26.04 2.678-51.311 5.046-75.814l.313-3.192.094-.934Zm33.08 0 .094.934c2.534 25.499 4.32 51.834 5.36 79.006a40.832 40.832 0 0 1-.633 8.886l-3.145 17.243a41.756 41.756 0 0 0-.677 7.49v77.181l.008.217.035.566.027.344.093 1.026.246 2.343.4 3.485.418 3.477 1.246 10.194.136 1.202.104.992.212 2.096.204 2.124c.066.712.131 1.43.195 2.154l.186 2.187c.06.735.12 1.476.177 2.223l.168 2.26c.055.761.108 1.528.16 2.302l.15 2.345.072 1.19.136 2.414.065 1.226.104 2.083 5.602-.93a4.148 4.148 0 0 0 3.42-3.438l7.804-49.146c.216-1.356.324-2.728.324-4.101v-97.548c0-2.411-.334-4.81-.992-7.126L63.907 36.913 58.54 17.811Zm-1.785 10.383 1.107-.132c-5.012.621-10.3.931-15.863.931-5.154 0-10.072-.266-14.753-.799-2.069 22.572-3.56 45.793-4.472 69.662a38.077 38.077 0 0 0 .461 7.54l.129.747 3.144 17.243a44.51 44.51 0 0 1 .713 7.092l.01.893v77.09l-.001.06-.001.067-.012.312-.023.384-.055.7-.075.837-.131 1.3-.117 1.095-.323 2.854-.48 4.03-.852 6.941-.49 4.065-.169 1.575-.201 1.987-.194 2.013-.185 2.04-.178 2.069-.17 2.1-.162 2.136-.153 2.172-.146 2.21-.035.56-.034.56-.134 2.273-.125 2.317-.014.279h38.458l-.014-.279-.125-2.317-.134-2.272a468.96 468.96 0 0 0-.07-1.12l-.145-2.211-.153-2.172-.162-2.135-.17-2.101-.178-2.07-.185-2.04-.194-2.012-.201-1.987-.17-1.575-.489-4.065-.852-6.942-.48-4.03-.323-2.853-.117-1.094-.13-1.3-.076-.837-.055-.701-.023-.384-.012-.312a5.829 5.829 0 0 1-.001-.128v-77.09c0-2.677.242-5.35.722-7.984l3.144-17.243c.499-2.733.696-5.512.59-8.287-.913-23.87-2.403-47.09-4.471-69.662Z"/></g><path fill="#999" fill-opacity=".7" fill-rule="nonzero" d="M135.98 263a23.583 23.583 0 0 0-.492-3.999h3.515c.522 1.246.853 2.592.96 4h-3.983Zm-.492 6.003c.268-1.266.44-2.608.492-4.003h3.98a12.834 12.834 0 0 1-.957 4.003h-3.515Zm-.522 2h2.991a13.073 13.073 0 0 1-5.347 4.728c.967-1.286 1.772-2.893 2.356-4.729Zm-6.965 0h4.9c-1.075 3.113-2.847 5.32-4.9 5.87v-5.87Zm0-6.003h5.98a22.26 22.26 0 0 1-.52 4.003H128V265Zm0-5.999h5.46c.284 1.246.457 2.592.52 4H128v-4Zm0-7.873c2.053.549 3.825 2.758 4.9 5.87H128v-5.87Zm6.965 5.87c-.584-1.834-1.385-3.445-2.356-4.729a13.087 13.087 0 0 1 5.347 4.729h-2.99Zm-8.967 0h-4.9c1.075-3.112 2.845-5.321 4.9-5.87v5.87Zm0 6.002h-5.98c.059-1.407.236-2.753.518-3.999H126v4Zm0 6.003h-5.462a22.446 22.446 0 0 1-.518-4.003H126v4.003Zm0 7.87c-2.055-.55-3.825-2.757-4.9-5.87h4.9v5.87Zm-6.963-5.87c.584 1.835 1.387 3.446 2.354 4.728a13.066 13.066 0 0 1-5.349-4.729h2.995ZM118.02 265c.055 1.395.224 2.737.492 4.003h-3.517a13.005 13.005 0 0 1-.957-4.003h3.982Zm.492-5.999a23.79 23.79 0 0 0-.492 4h-3.982c.106-1.408.439-2.754.957-4h3.517Zm.526-2.003h-2.997a13.08 13.08 0 0 1 5.349-4.729c-.965 1.284-1.768 2.895-2.352 4.729ZM141.964 263c-.492-7.49-6.476-13.476-13.963-13.968V249h-2.002v.032c-7.487.492-13.473 6.478-13.965 13.968H112v2h.034c.492 7.49 6.478 13.474 13.965 13.966V279h2.002v-.034c7.487-.492 13.471-6.476 13.963-13.966H142v-2h-.036Z"/><path fill="#79CDFF" d="M51 175h7v12h-7z"/><path fill="#E87878" d="M51 214h7v12h-7z"/><path fill="#79CDFF" d="M237 214h7v12h-7z"/><path stroke="#C96363" stroke-linecap="round" stroke-width="5" d="M54.5 220h17c5.523 0 10 4.477 10 10v24c0 5.523 4.477 10 10 10H107"/><path stroke="#5BAADA" stroke-linecap="round" stroke-width="5" d="M54.5 181h5c5.523 0 10 4.477 10 10v82c0 7.18 5.82 13 13 13h130c7.18 0 13-5.82 13-13v-43c0-5.523 4.477-10 10-10h5"/><path fill="#999" fill-opacity=".5" fill-rule="nonzero" d="M108.25 65.876c-5.671 23.138 8.488 46.491 31.626 52.164l.71.167a43.124 43.124 0 0 0 11.423 1.042l.632-.033-.015.441a45.193 45.193 0 0 1-.586 5.547l-.671 3.893 3.66-1.828.291-.156.341-.193.388-.23.431-.269.471-.305a28.86 28.86 0 0 0 4.343-3.518l.391-.394c1.674-1.721 3.071-3.622 4.109-5.707l.091-.192.167-.065c12.865-5.112 22.62-16.09 25.988-29.828 5.67-23.137-8.49-46.491-31.627-52.162-23.138-5.671-46.492 8.489-52.163 31.626Zm51.687-29.684c22.065 5.408 35.568 27.68 30.16 49.744-3.376 13.773-13.322 24.21-25.687 28.793-1.217 2.82-3.086 5.096-4.906 6.818l-.453.42c-.151.135-.3.267-.45.395l-.442.373-.432.35-.212.166-.414.315-.202.15-.39.28-.37.257-.516.342-.458.29-.394.236-.62.35-.14.073c.455-2.645.73-5.962.626-8.5a41.06 41.06 0 0 1-14.285-.947c-22.065-5.41-35.568-27.68-30.16-49.745 5.408-22.065 27.68-35.568 49.745-30.16Z"/><path fill="#999" fill-rule="nonzero" d="m140.475 36.153-.015.566-.043 1.526-.046 1.54-.05 1.556-.054 1.568a33.82 33.82 0 0 1-.316 3.413l-.078.547-.051.345-.083.526-.091.551-.138.799-.495 2.764-.222 1.28-.095.58-.049.31-.067.461-.042.328-.027.227-.028.28-.016.199-.015.254-.012.309-.004.251v3.695l.01 13.936.021 13.72.036 12.585c0 .173.123.315.286.348l.071.007 1.576-.094 1.862-.118 1.423-.096 1.365-.097 1.622-.121 1.53-.124 1.158-.1.83-.074 1.054-.101.996-.102.936-.103.663-.077.63-.078.402-.053.575-.078.541-.08 1.033-.162.426-.068.843-.14.832-.142.82-.144.809-.147.2-.037.2-.037.788-.15.196-.038.194-.038.77-.153.19-.039.19-.038.748-.156.185-.04.184-.039.728-.158.712-.16.698-.16.681-.163.168-.041.167-.041.658-.164.641-.165.625-.166.607-.167.59-.168.57-.168.28-.084.273-.084.481-.152.117-.038.116-.037.452-.15.432-.15.413-.147a19.88 19.88 0 0 0 2.16-.914c.442-.225.77-.432.97-.607.032-.027.06-.052.082-.075l.03-.033.031-.038 1.304-16.928.001-29.952c.469.45.926.91 1.372 1.382v28.593l-.002.053-1.307 16.971-.001.025c-.038.6-.62 1.177-1.711 1.765l-.225.117-.247.122-.064.03-.065.03-.268.123-.069.03-.07.031-.29.123-.303.124-.318.124-.332.125-.346.126-.36.126-.373.127-.388.129-.401.129-.415.13-.139.043-.14.043-.571.17-.59.171-.607.17-.625.17-.16.041-.16.042-.65.168-.165.042-.166.041-.675.166-.69.165-.707.163-.722.162-.182.04-.184.04-.744.16-.757.158-.772.156-.195.038-.196.039-.791.153-.804.15-.817.149-.829.146-.84.143-.213.036-.212.035-.858.14-.433.068-.435.068-.538.08-.571.08-.604.08-.422.053-.673.08-.467.054-.73.079-.766.079-1.073.104-1.135.103-1.196.102-1.582.127-1.334.1-1.754.124-1.472.098-1.926.12-1.25.076h-.047a1.727 1.727 0 0 1-1.521-.897l-4.047-.318a.687.687 0 0 1-1.197-.39l-.003-.065V56.463c0-.632-.032-1.288-.094-1.978l-.027-.29-.045-.429-.034-.287-.057-.439-.043-.301-.07-.47-.083-.502-.092-.54-.106-.586-.206-1.103-.256-1.354-.178-.973-.093-.526-.082-.487-.05-.305-.066-.433-.039-.274-.035-.262-.031-.254-.028-.245-.036-.356-.02-.231-.016-.228-.02-.338-.01-.224-.006-.226-.006-.343v-2.351c.454-.25.912-.491 1.374-.724v.126l-.002 2.83.004.323.009.319.015.318.013.213.016.216.03.332.024.228.042.357.032.248.036.258.062.41.07.439.11.639.093.525.22 1.184.262 1.385.158.859.103.582.091.538.08.502.07.476.061.457.037.3.033.296.028.277.102-15.49c.346-.155.694-.304 1.045-.449l-.403 61.697 1.053.083V90.93a.522.522 0 0 1 1.04-.057l.003.057v9.034l.95.075-.024-7.777-.033-18.296-.01-17.503.003-.32.003-.157.007-.2.006-.125.016-.257.022-.267.038-.36.04-.314.055-.406a.523.523 0 0 1-.284-.418l-.002-.057.26-16.498c.347-.115.696-.226 1.048-.332l-.199 12.547.15-.85.155-.926.082-.517.098-.667c.16-1.135.266-2.148.315-3.082l.017-.396.027-.785.077-2.332.046-1.537.043-1.523.004-.17c.458-.128.92-.248 1.383-.36Zm24.715 1.702-.063.365c-.13.829-.195 1.668-.195 2.509v36.538c0 .568.154 1.126.447 1.613l2.689 4.477-3.023-3.236a1.044 1.044 0 0 0-1.385-.126l-13.364 9.89 11.337-10.194a5.222 5.222 0 0 0 1.73-3.883v-34.78a9.4 9.4 0 0 0-.966-4.152c.948.294 1.88.621 2.793.979Zm-28.802-.482-.206 21.967a.522.522 0 0 1-.47.515l-.056.002a.522.522 0 0 1-.514-.47l-.002-.057.202-21.569a41.22 41.22 0 0 1 1.046-.388Z" opacity=".903"/><g fill-rule="nonzero" transform="translate(126.393 36.153)"><use xlink:href="#b" fill="#000" filter="url(#a)"/><use xlink:href="#b" fill="#E0E0E0"/></g><path fill="#AAA" fill-rule="nonzero" d="M130.27 42.363c.02 4.297 1.829 9.252 1.829 14.1v43.811c0 .204.077.4.214.55l-.872-.285A2.089 2.089 0 0 1 130 98.553V40.377l.27-.222v2.208Z" opacity=".441"/><path fill="#FFF" d="M0 37.936c0 10.51 4.03 19.031 9 19.031s9-8.52 9-19.03c0-10.508-4.03-19.029-9-19.029s-9 8.52-9 19.028" filter="url(#c)" opacity=".5" transform="translate(126.393 36.153)"/></g></svg>