<svg xmlns="http://www.w3.org/2000/svg" width="220" height="220"><g fill="none" fill-rule="evenodd"><path fill="#B1B1B1" fill-opacity=".3" d="M72 121.777v55.222L32.5 177C17.312 177 5 164.688 5 149.5S17.312 122 32.5 122H70a9.03 9.03 0 0 0 2-.223ZM184.635 159H200a9 9 0 1 1 0 18h-15.088a33.554 33.554 0 0 0 1.088-8.5c0-3.3-.477-6.488-1.366-9.5Zm-37.883-38.27a9.45 9.45 0 0 0 4.479 1.266l.27.004H185a9 9 0 1 1 0 18h-13.5c-.425 0-.844.028-1.254.082A33.337 33.337 0 0 0 152.5 135a33.72 33.72 0 0 0-5.683.48l-.066-14.75Zm-2.174-55.774c.216.02.433.034.653.04l.27.004h29c10.77 0 19.5 8.73 19.5 19.5 0 8.61-5.58 15.916-13.32 18.5H151.5c-1.76 0-3.41.479-4.823 1.314l-.072-16.147v-1.684l-2.028-21.527Zm-72.302.043-.01.426-.068 3.108-.067 3.94-.038 2.76-.045 4.346-.026 3.817-.02 5.656v15.171a9.012 9.012 0 0 0-1.736-.22L70 104h-6.5C52.73 104 44 95.27 44 84.5S52.73 65 63.5 65h8.775Zm67.311-36.001L163.5 29a8.5 8.5 0 0 1 0 17H144c.255 0 .508.01.758.028a9.47 9.47 0 0 0-1.93.353l-1.43-15.193a3.199 3.199 0 0 0-1.812-2.19Zm-60.399.001-.017.028-.604.982-.844 1.398-.522.886-.49.85-.119.208-.115.206-.445.803c-1.002 1.84-1.76 3.438-2.313 4.919-.049.13-.08.265-.094.402l-.034.34-.13 1.398-.096 1.085-.092 1.12-.089 1.156-.079 1.106A8.5 8.5 0 0 1 74.5 29h4.687Z"/><g fill-rule="nonzero"><path fill="#999" d="m100.64 16.055.16.041 39.035 11.498a3.15 3.15 0 0 1 2.238 2.652l.062.526.062.523.712 6.13.558 4.89.526 4.693.588 5.371.366 3.423.51 4.897.39 3.863.307 3.135.228 2.406.363 3.989.186 2.154.213 2.563.189 2.421.165 2.278.115 1.72.1 1.628.066 1.161.074 1.469.046 1.042.037.99.029.939.02.887.014 1.104.001.518-.005.734-.008.46v39.141a33.363 33.363 0 0 0-3.15.58V96.125l.011-.683.002-.735-.01-1.06-.025-1.153-.04-1.244-.055-1.336-.051-1.062-.104-1.884-.1-1.61-.114-1.702-.13-1.793-.182-2.37-.25-3.032-.138-1.593-.353-3.916-.34-3.578-.396-4.019-.402-3.934-.345-3.29-.46-4.29-.492-4.489-.634-5.646-.798-6.947-.485-4.143L100.6 19.322l-.066.165a73.003 73.003 0 0 1-5.172 10.34 97.432 97.432 0 0 1-6.663 9.672l-.368.462.018-.02.086 2.278.064 1.94.058 1.965.052 1.99.046 2.014.011.507.01.51.037 2.05.008.516.008.519.027 2.087.022 2.112.02 3.215.006 3.27-.003 2.21-.01 2.235-.015 2.259-.022 2.284-.007.575-.006.576-.032 2.321-.037 2.345-.01.59-.011.592-.047 2.382-.052 2.407-.091 3.656-.105 3.712-.118 3.766-.087 2.542c-.057 1.631-.226 3.386-.502 5.363l-.096.667-.041.279-.131.844-.144.88-.218 1.275-.378 2.113-.65 3.673-.191 1.152-.126.81-.114.828-.056.482-.051.546-.028.407-.014.299-.011.398-.003.405v2.911l.01 20.047.048 28.807.043 14.298.634-.038 3.675-.228 2.323-.153 2.761-.195 2.094-.157 2.475-.198 2.315-.2 1.738-.162.83-.082 1.585-.164 1.483-.165 1.38-.167.968-.126.911-.127.853-.128 1.42-.224 1.4-.23 1.38-.233.682-.119 1.347-.24 1.325-.245 1.302-.249.642-.125.703-.14c.432 1 .91 1.975 1.434 2.922l-.214.045-1.288.258-1.312.255-1.335.251-.338.062-.339.062-1.369.244-.345.06-.347.061-1.402.238-.353.058-.355.059-1.432.23-1.007.157-.588.087-.93.13-.986.128-1.403.17-1.505.168-.79.084-1.233.124-1.733.165-1.834.163-2.435.201-2.062.16-2.721.197-2.291.156-2.393.154-3.134.19-.169.006a3.15 3.15 0 0 1-2.933-1.96l-4.782-.499a1.575 1.575 0 0 1-3.028-.48l-.004-.118v-66.156c0-.936-.047-1.91-.139-2.935l-.067-.691-.077-.688-.089-.7-.067-.481-.114-.755-.131-.806-.152-.874-.235-1.297-.618-3.275-.283-1.557-.19-1.1-.122-.753-.106-.699-.09-.654-.077-.617-.043-.395-.053-.574-.042-.558a28.308 28.308 0 0 1-.01-.184l-.027-.55-.017-.555-.007-.566.004-4.625.02-6.747.023-4.37.04-5.32.05-5.16.064-5.001.058-3.886.067-3.784.074-3.682.082-3.58.067-2.617.095-3.402.076-2.484.109-3.223.028-.79c.006-.171.04-.341.101-.502.313-.825.691-1.687 1.14-2.607l.31-.623c.108-.21.218-.424.332-.64l.354-.661.186-.338.388-.694c.133-.235.27-.473.41-.716l.435-.741.46-.768.483-.795.772-1.246.547-.87.41-.637.44-.662.23-.34.475-.69c.162-.232.328-.466.495-.701l.51-.708.521-.708.527-.702c.264-.35.53-.694.792-1.032l.524-.664.515-.639c.934-1.145 1.803-2.134 2.488-2.81.395-.391.964-.542 1.496-.406l.122.036 7.13 2.452 1.018.248.168-.256a.787.787 0 0 1 .127-.15l-.032.07.281-.634c.316-.733.62-1.474.914-2.222a2.36 2.36 0 0 1 2.702-1.44Zm-10.337 6.363L79.244 40.64l-.93 144.371 1.57.164.001-13.408a.787.787 0 0 1 1.57-.092l.005.092v13.572l.886.093-.034-11.415-.043-21.744-.022-32.486.002-.286.003-.278.006-.22.017-.437.013-.22.023-.332.055-.584.043-.379.07-.549.14-.942.021-.145 1.182-75.008a.788.788 0 0 1 .083-.34l.044-.077 10.71-16.496-1.26-.433-11.155 17.59-.784 83.475a.788.788 0 0 1-.703.776l-.092.005a.788.788 0 0 1-.775-.704l-.004-.091.787-83.7a.788.788 0 0 1 .07-.318l.052-.097L91.783 22.67l-1.48-.25Zm-9.63 104.458c.404 0 .736.304.782.695l.005.092v40.954a.787.787 0 0 1-1.57.092l-.005-.092v-40.954c0-.435.353-.787.788-.787Zm7.589-105.581-.082.09a46.503 46.503 0 0 0-1.565 1.837l-.569.71-.58.741-.587.766-.584.781a74.029 74.029 0 0 0-2.656 3.818l-.716 1.133-.501.806-.477.778-.452.749-.429.722c-.07.118-.138.236-.205.352l-.394.684-.188.333-.36.649-.336.626-.16.305-.304.594-.144.29-.271.566c-.218.463-.413.908-.588 1.337l-.108.269-.1 2.925-.103 3.29-.117 4.258-.106 4.417-.093 4.577-.082 4.735-.07 4.896-.058 5.054-.047 5.214-.028 4.286-.017 3.281-.015 4.464-.007 4.566-.001 2.322.006.512.01.336.013.336.018.337.022.34.028.346.051.535.041.37.1.783.092.634.107.681.123.738.19 1.083.222 1.214.613 3.25.186 1.017.163.93.06.366.464-71.91c0-.107.023-.212.065-.31l.05-.093 11.17-18.41.036-.056-.73-.25Zm-2.922 22.63-.966 61.423.14-.942c.241-1.71.398-3.232.468-4.632l.022-.519.086-2.533.08-2.51.075-2.483.068-2.46.062-2.435.055-2.41.05-2.387.063-3.533.048-3.477.025-2.288.026-3.385.01-2.226.001-.553.001-.55v-2.19l-.005-2.165-.012-2.14-.018-2.115-.006-.525-.005-.524-.028-2.079-.033-2.053-.04-2.03-.046-2.005-.051-1.98-.058-1.956-.012-.338Z"/><path fill="#A6A6A6" d="M72 98.523c.03 6.48 2.768 13.953 2.768 21.264v66.142c0 .34.111.673.316.946l.052.068C73.044 185.49 72 183.84 72 181.994c.007-11.15.007-38.58 0-82.29v-1.181Z" opacity=".6"/><path fill="#999" d="m104.955 63.23 17.649 26.104a.788.788 0 0 0 1.385-.154l6.556-16.69-4.834 16.822a24.415 24.415 0 0 0-.95 6.742v53.658a33.403 33.403 0 0 0-3.54 6.768l-18.504 13.712 17.076-15.374a7.876 7.876 0 0 0 2.607-5.853V96.507c0-2.547-.686-5.047-1.986-7.236L104.955 63.23Z" opacity=".7"/></g><path fill="#00D061" fill-rule="nonzero" d="M152.5 138c16.845 0 30.5 13.655 30.5 30.5S169.345 199 152.5 199 122 185.345 122 168.5s13.655-30.5 30.5-30.5Zm0 3c-15.188 0-27.5 12.312-27.5 27.5s12.312 27.5 27.5 27.5 27.5-12.312 27.5-27.5-12.312-27.5-27.5-27.5Zm13.247 19.756.135.126a2.7 2.7 0 0 1 .126 3.683l-.126.135-14.052 14.054a2.692 2.692 0 0 1-2.072.97h-.017a2.692 2.692 0 0 1-2.075-.973l-6.799-6.8a2.7 2.7 0 0 1 3.819-3.818l5.063 5.062 12.315-12.313a2.7 2.7 0 0 1 3.683-.126Z"/><path fill="#2EDA7E" fill-opacity=".4" d="M152.807 143c14.435 0 26.137 11.576 26.137 25.856 0 14.28-11.702 25.856-26.137 25.856-6.88 0-13.14-2.63-17.807-6.929a24.13 24.13 0 0 0 12.883 3.703c13.389 0 24.242-10.854 24.242-24.243 0-12.576-9.574-22.915-21.831-24.125a26.618 26.618 0 0 1 2.513-.118Z"/></g></svg>