<svg xmlns="http://www.w3.org/2000/svg" width="300" height="300"><defs><filter id="a" width="316%" height="167.5%" x="-108%" y="-33.8%" filterUnits="objectBoundingBox"><feGaussianBlur in="SourceGraphic" stdDeviation="9"/></filter></defs><g fill="none" fill-rule="evenodd"><path fill="#009FD1" d="M290.98 239a23.583 23.583 0 0 0-.492-3.999h3.515c.522 1.246.853 2.592.96 4h-3.983Zm-.492 6.003c.268-1.266.44-2.608.492-4.003h3.98a12.834 12.834 0 0 1-.957 4.003h-3.515Zm-.522 2h2.991a13.073 13.073 0 0 1-5.347 4.728c.967-1.286 1.772-2.893 2.356-4.729Zm-6.965 0h4.9c-1.075 3.113-2.847 5.32-4.9 5.87v-5.87Zm0-6.003h5.98a22.26 22.26 0 0 1-.52 4.003H283V241Zm0-5.999h5.46c.284 1.246.457 2.592.52 4H283v-4Zm0-7.873c2.053.549 3.825 2.758 4.9 5.87H283v-5.87Zm6.965 5.87c-.584-1.834-1.385-3.445-2.356-4.729a13.087 13.087 0 0 1 5.347 4.729h-2.99Zm-8.967 0h-4.9c1.075-3.112 2.845-5.321 4.9-5.87v5.87Zm0 6.002h-5.98c.059-1.407.236-2.753.518-3.999H281v4Zm0 6.003h-5.462a22.446 22.446 0 0 1-.518-4.003H281v4.003Zm0 7.87c-2.055-.55-3.825-2.757-4.9-5.87h4.9v5.87Zm-6.963-5.87c.584 1.835 1.387 3.446 2.354 4.728a13.066 13.066 0 0 1-5.349-4.729h2.995ZM273.02 241c.055 1.395.224 2.737.492 4.003h-3.517a13.005 13.005 0 0 1-.957-4.003h3.982Zm.492-5.999a23.79 23.79 0 0 0-.492 4h-3.982c.106-1.408.439-2.754.957-4h3.517Zm.526-2.003h-2.997a13.08 13.08 0 0 1 5.349-4.729c-.965 1.284-1.768 2.895-2.352 4.729ZM296.964 239c-.492-7.49-6.476-13.476-13.963-13.968V225h-2.002v.032c-7.487.492-13.473 6.478-13.965 13.968H267v2h.034c.492 7.49 6.478 13.474 13.965 13.966V255h2.002v-.034c7.487-.492 13.471-6.476 13.963-13.966H297v-2h-.036Z"/><path fill="#979797" fill-rule="nonzero" d="M181 150v-1h-2v1h2Zm-5 0v-1h-2v1h2Zm-5 0v-1h-2v1h2Zm-5 0v-1h-2v1h2Zm-5 0v-1h-2v1h2Zm-5 0v-1h-2v1h2Zm-5 0v-1h-2v1h2Zm-5 0v-1h-2v1h2Zm-5 0v-1h-2v1h2Zm-5 0v-1h-2v1h2Zm-5 0v-1h-2v1h2Zm-5 0v-1h-2v1h2Zm-5 0v-1h-2v1h2Z"/><g fill-rule="nonzero"><path fill="#999" fill-opacity=".7" d="m51.795 43.801.169.043 48.493 14.11a3.735 3.735 0 0 1 2.633 2.94l.03.202.306 2.577 1.02 8.712.811 7.088.508 4.53.6 5.443.45 4.179.525 5.004.578 5.684.353 3.595.405 4.274.294 3.244.204 2.331.19 2.244.174 2.156.16 2.068.191 2.622.165 2.466.14 2.31.059 1.097.1 2.077.04.98.05 1.399.023.883.018.844.011.806.005 1.135-.005.709-.011.67v66.33l-.005.116-2.461 31.593v.045c-.08 1.274-1.33 2.46-3.69 3.655l-.288.143-.525.25c-.24.11-.49.221-.75.332l-.395.167-.62.252-.652.252-.168.064-.17.063-.698.255-.73.256-1.152.388-.806.262-.838.263-1.016.31-.604.18-.616.18-1.263.359c-.429.119-.864.238-1.306.356l-.669.178-1.367.353-1.408.351-1.446.348c-.488.116-.983.23-1.483.345l-.756.171-1.538.34-1.574.336-1.608.332-1.64.327-1.673.323-1.704.318-1.734.312-.878.154-.885.153-1.79.3-1.818.295-1.844.288-.725.108-1.149.162-.806.107-1.71.213-1.367.158-1.44.157-2.034.208-2.164.206-2.293.203-1.805.152-3.171.25-3.374.246-2.846.195-3.74.241-3.943.238-.197.007a3.731 3.731 0 0 1-3.174-1.735l-7.299-.753a1.499 1.499 0 0 1-2.746-.681l-.001-.012a1.112 1.112 0 0 1-.007-1.228l.001-80.571c0-1.17-.06-2.383-.175-3.662l-.055-.574-.06-.57-.066-.57-.112-.868-.13-.903-.15-.954-.112-.675-.258-1.466-.309-1.66-.698-3.65-.292-1.582-.25-1.411-.208-1.266-.132-.87-.077-.547-.068-.526-.06-.506-.076-.732-.041-.473-.05-.696-.034-.69-.015-.46-.013-.701.003-5.947.025-8.327.037-6.723.052-6.526.067-6.33.064-4.922.074-4.795.083-4.67.093-4.544.102-4.419.141-5.345.156-5.149.17-4.952a1.5 1.5 0 0 1 .1-.483c.086-.224.176-.45.27-.68l.295-.695c.307-.703.652-1.433 1.037-2.195l.399-.775.426-.798.454-.824.482-.85.252-.437.526-.895.555-.927.587-.96.617-.994.648-1.03.68-1.07.51-.78.546-.813c.187-.276.38-.555.577-.838l.605-.855.31-.433.634-.868.322-.435.651-.867.657-.856.656-.84.65-.815c.108-.133.215-.266.322-.396l.632-.766.613-.724.298-.345.575-.648.542-.59c.262-.279.51-.533.741-.758a1.5 1.5 0 0 1 1.383-.39l.147.043 6.796 2.307a2.23 2.23 0 0 1 1.133-.114l.173.034 2.182.525.156-.238a1.12 1.12 0 0 1 .953-.504c.402-.91.788-1.834 1.16-2.767a2.616 2.616 0 0 1 2.99-1.583ZM36.027 74.487l.085 2.426.078 2.458.07 2.489.062 2.52.014.636.014.637.05 2.568.042 2.6.033 2.63.026 2.663.018 2.694.012 4.1-.003 2.772-.01 2.804-.03 4.266-.03 2.883-.039 2.914-.046 2.946-.055 2.978-.062 3.009-.109 4.572-.082 3.088-.139 4.69-.102 3.167-.11 3.167c-.072 2.036-.288 4.23-.642 6.713l-.1.685-.105.686-.11.695-.243 1.46-.363 2.058-.246 1.352-.758 4.208-.35 2.05-.164 1.043-.105.727-.044.333-.09.762-.04.418-.046.652-.026.625-.01.629v5.59l.014 23.291.054 32.967.058 19.53c.002.372.28.676.638.724l.1.007 3.19-.19 3.023-.192 3.595-.24 3.392-.245 2.567-.198 1.84-.149 2.339-.2 2.209-.203 2.079-.204 1.473-.155.942-.103 1.35-.157 1.278-.157 1.205-.158 1.13-.159 1.628-.248 1.81-.288 1.784-.294 1.756-.3 1.727-.306 1.698-.31 1.667-.317 1.635-.32 1.603-.326 1.57-.329 1.533-.333.378-.084.376-.084 1.48-.338.727-.17.716-.17 1.405-.345 1.365-.346.335-.087.333-.087 1.304-.349 1.262-.35.309-.089.306-.088 1.197-.353.582-.176.99-.31.24-.077.239-.077.924-.306.224-.076.222-.076.856-.302.207-.075.204-.075.786-.296.19-.073.186-.074.713-.29a28.09 28.09 0 0 0 1.838-.837c.726-.367 1.283-.705 1.654-.995l.13-.107.136-.124.062-.066 2.448-31.436.001-66.311.011-.653.005-.692-.005-1.109-.019-1.194-.033-1.281-.03-.902-.079-1.918-.076-1.54-.123-2.186-.109-1.74-.08-1.207-.18-2.53-.152-1.998-.285-3.52-.324-3.76-.287-3.179-.395-4.188-.435-4.427-.574-5.627-.414-3.942-.668-6.198-.6-5.427-.64-5.664-.963-8.33-.888-7.525a.735.735 0 0 0-.42-.579l-.103-.038-48.159-14.014-.283.697a91.913 91.913 0 0 1-.907 2.124 1.112 1.112 0 0 1-.464 1.032 88.615 88.615 0 0 1-5.017 9.439 119.75 119.75 0 0 1-8.369 11.989l-.463.576.07 1.809Zm2.907-23.14L25.185 73.73l-1.161 178.043 1.696.175v-16.391a1.117 1.117 0 0 1 2.228-.122l.006.122v16.622l1.442.149-.04-13.034-.056-27.214-.027-40.833.006-.557.011-.4.025-.534.05-.691.059-.592.056-.477.118-.88.026-.17a1.116 1.116 0 0 1-.456-.8l-.004-.121 1.475-92.63c.003-.17.044-.335.12-.486l.064-.11 13.612-20.71-1.312-.446-14.189 22.104-.98 103a1.117 1.117 0 0 1-1.006 1.102l-.121.005a1.117 1.117 0 0 1-1.101-1.006l-.006-.122.984-103.323c.002-.169.041-.334.115-.484l.062-.11 13.609-21.2-1.556-.26Zm-2.754-2.062-.055.06a53.752 53.752 0 0 0-2.165 2.485l-.682.837-.347.434-.701.891c-.235.302-.47.608-.705.916l-.7.93-.346.467-.68.933a82.29 82.29 0 0 0-2.153 3.125l-.573.894-.644 1.017-.614.982-.295.477-.568.93-.538.896-.258.436-.494.85-.466.819-.222.399-.423.778-.201.379-.382.739c-.43.848-.805 1.647-1.129 2.406l-.264.642-.034.084-.13 3.737-.098 3.092-.093 3.164-.115 4.334-.106 4.464-.118 5.764-.103 5.967-.071 4.921-.075 6.334-.06 6.538-.037 5.377-.027 5.507-.02 7.067-.005 5.775c.001.22.004.438.009.654l.012.43.03.66.044.668.038.454.045.467.053.48.095.757.114.808.135.87.214 1.275.256 1.431.3 1.614.706 3.694.302 1.645.195 1.112.17 1.029.146.965.014.097.592-90.837c.001-.163.038-.324.107-.47l.058-.107 13.913-22.65c.109-.177.24-.336.39-.473l-1.241-.42Zm-3.192 24.286-.12.182-1.31 82.118.236-1.4.16-1.018.147-.993c.34-2.388.547-4.483.616-6.402l.027-.785.028-.783.104-3.114.096-3.083.09-3.052.08-3.023.108-4.476.061-2.947.055-2.916.046-2.886.04-2.855.03-2.826.024-2.794.016-2.765.008-2.734v-2.704l-.001-.67-.002-.67-.01-2.658-.032-3.93-.03-2.583-.038-2.552-.046-2.522-.053-2.49-.061-2.462-.016-.61-.017-.609-.073-2.415-.02-.6-.02-.597-.083-2.37-.04-1.006Z"/><path fill="#999" fill-opacity=".7" d="M76.106 133.068 57.18 101.57l21.916 32.023a1.117 1.117 0 0 0 1.96-.218l8.1-20.374-5.849 20.108a34.628 34.628 0 0 0-1.378 9.671v67.08c0 1.226.337 2.43.974 3.478l4.93 8.12-5.534-5.86a2.234 2.234 0 0 0-2.944-.268l-24.972 18.28 20.848-18.543a11.17 11.17 0 0 0 3.747-8.346v-63.299c0-3.648-.993-7.228-2.872-10.355Z"/><path fill="#FF6868" d="M26.837 179.994c.576 0 1.05.436 1.11.995l.007.122v50.556a1.117 1.117 0 0 1-2.227.121l-.007-.121V181.11c0-.617.5-1.117 1.117-1.117Z"/><path fill="#AAA" d="M16.507 145.139c.038 8 3.444 17.224 3.444 26.25v81.595c0 .403.072.802.214 1.179l.167.446-1.767-.832A4.468 4.468 0 0 1 16 249.735V146.597c.338-29.815.507-30.3.507-1.458Z" opacity=".441"/></g><path fill="#FF6868" d="M0 160.257c0 22.093 5.597 40.003 12.499 40.003 6.904 0 12.501-17.91 12.501-40.003 0-22.086-5.597-39.997-12.501-39.997C5.597 120.26 0 138.17 0 160.257" filter="url(#a)" opacity=".36" transform="translate(16 43.74)"/><g fill-rule="nonzero"><path fill="#999" fill-opacity=".7" d="m224.795 43.801.169.043 48.493 14.11a3.735 3.735 0 0 1 2.633 2.94l.03.202.306 2.577 1.02 8.712.811 7.088.508 4.53.6 5.443.45 4.179.525 5.004.578 5.684.353 3.595.405 4.274.294 3.244.204 2.331.19 2.244.174 2.156.16 2.068.191 2.622.165 2.466.14 2.31.059 1.097.1 2.077.04.98.05 1.399.023.883.018.844.011.806.005 1.135-.005.709-.011.67v66.33l-.005.116-.785 10.082a21.386 21.386 0 0 0-3.018.116l.807-10.367.001-66.311.011-.653.005-.692-.005-1.109-.019-1.194-.033-1.281-.03-.902-.079-1.918-.076-1.54-.123-2.186-.109-1.74-.08-1.207-.18-2.53-.152-1.998-.285-3.52-.324-3.76-.287-3.179-.395-4.188-.435-4.427-.574-5.627-.414-3.942-.668-6.198-.6-5.427-.64-5.664-.963-8.33-.888-7.525a.735.735 0 0 0-.42-.579l-.103-.038-48.159-14.014-.283.697a91.913 91.913 0 0 1-.907 2.124 1.112 1.112 0 0 1-.464 1.032 88.615 88.615 0 0 1-5.017 9.439 119.75 119.75 0 0 1-8.369 11.989l-.463.576.07 1.809.086 2.426.078 2.458.07 2.489.062 2.52.014.636.014.637.05 2.568.042 2.6.033 2.63.026 2.663.018 2.694.012 4.1-.003 2.772-.01 2.804-.03 4.266-.03 2.883-.039 2.914-.046 2.946-.055 2.978-.062 3.009-.109 4.572-.082 3.088-.139 4.69-.102 3.167-.11 3.167c-.072 2.036-.288 4.23-.642 6.713l-.1.685-.105.686-.11.695-.243 1.46-.363 2.058-.246 1.352-.758 4.208-.35 2.05-.164 1.043-.105.727-.044.333-.09.762-.04.418-.046.652-.026.625-.01.629v5.59l.014 23.291.054 32.967.058 19.53c.002.372.28.676.638.724l.1.007 3.19-.19 3.023-.192 3.595-.24 3.392-.245 2.567-.198 1.84-.149 2.339-.2 2.209-.203 2.079-.204 1.473-.155.942-.103 1.35-.157 1.278-.157 1.205-.158 1.13-.159 1.628-.248 1.81-.288 1.784-.294 1.756-.3 1.727-.306 1.698-.31 1.667-.317 1.635-.32 1.603-.326 1.57-.329 1.533-.333.378-.084.376-.084 1.48-.338.727-.17.716-.17 1.405-.345.684-.174c.299.971.666 1.912 1.096 2.817l-.326.085-1.408.351-1.446.348c-.488.116-.983.23-1.483.345l-.756.171-1.538.34-1.574.336-1.608.332-1.64.327-1.673.323-1.704.318-1.734.312-.878.154-.885.153-1.79.3-1.818.295-1.844.288-.725.108-1.149.162-.806.107-1.71.213-1.367.158-1.44.157-2.034.208-2.164.206-2.293.203-1.805.152-3.171.25-3.374.246-2.846.195-3.74.241-3.943.238-.197.007a3.731 3.731 0 0 1-3.174-1.735l-7.299-.753a1.499 1.499 0 0 1-2.746-.681l-.001-.012a1.112 1.112 0 0 1-.007-1.228l.001-80.571c0-1.17-.06-2.383-.175-3.662l-.055-.574-.06-.57-.066-.57-.112-.868-.13-.903-.15-.954-.112-.675-.258-1.466-.309-1.66-.698-3.65-.292-1.582-.25-1.411-.208-1.266-.132-.87-.077-.547-.068-.526-.06-.506-.076-.732-.041-.473-.05-.696-.034-.69-.015-.46-.013-.701.003-5.947.025-8.327.037-6.723.052-6.526.067-6.33.064-4.922.074-4.795.083-4.67.093-4.544.102-4.419.141-5.345.156-5.149.17-4.952a1.5 1.5 0 0 1 .1-.483c.086-.224.176-.45.27-.68l.295-.695c.307-.703.652-1.433 1.037-2.195l.399-.775.426-.798.454-.824.482-.85.252-.437.526-.895.555-.927.587-.96.617-.994.648-1.03.68-1.07.51-.78.546-.813c.187-.276.38-.555.577-.838l.605-.855.31-.433.634-.868.322-.435.651-.867.657-.856.656-.84.65-.815c.108-.133.215-.266.322-.396l.632-.766.613-.724.298-.345.575-.648.542-.59c.262-.279.51-.533.741-.758a1.5 1.5 0 0 1 1.383-.39l.147.043 6.796 2.307a2.23 2.23 0 0 1 1.133-.114l.173.034 2.182.525.156-.238a1.12 1.12 0 0 1 .953-.504c.402-.91.788-1.834 1.16-2.767a2.616 2.616 0 0 1 2.99-1.583Zm-12.86 7.547-13.75 22.381-1.161 178.043 1.696.175v-16.391a1.117 1.117 0 0 1 2.228-.122l.006.122v16.622l1.442.149-.04-13.034-.056-27.214-.027-40.833.006-.557.011-.4.025-.534.05-.691.059-.592.056-.477.118-.88.026-.17a1.116 1.116 0 0 1-.456-.8l-.004-.121 1.475-92.63c.003-.17.044-.335.12-.486l.064-.11 13.612-20.71-1.312-.446-14.189 22.104-.98 103a1.117 1.117 0 0 1-1.006 1.102l-.121.005a1.117 1.117 0 0 1-1.101-1.006l-.006-.122.984-103.323c.002-.169.041-.334.115-.484l.062-.11 13.609-21.2-1.556-.26Zm-2.755-2.063-.055.06a53.752 53.752 0 0 0-2.165 2.485l-.682.837-.347.434-.701.891c-.235.302-.47.608-.705.916l-.7.93-.346.467-.68.933a82.29 82.29 0 0 0-2.153 3.125l-.573.894-.644 1.017-.614.982-.295.477-.568.93-.538.896-.258.436-.494.85-.466.819-.222.399-.423.778-.201.379-.382.739c-.43.848-.805 1.647-1.129 2.406l-.264.642-.034.084-.13 3.737-.098 3.092-.093 3.164-.115 4.334-.106 4.464-.118 5.764-.103 5.967-.071 4.921-.075 6.334-.06 6.538-.037 5.377-.027 5.507-.02 7.067-.005 5.775c.001.22.004.438.009.654l.012.43.03.66.044.668.038.454.045.467.053.48.095.757.114.808.135.87.214 1.275.256 1.431.3 1.614.706 3.694.302 1.645.195 1.112.17 1.029.146.965.014.097.592-90.837c.001-.163.038-.324.107-.47l.058-.107 13.913-22.65c.109-.177.24-.336.39-.473l-1.241-.42Zm-3.192 24.286-.12.182-1.31 82.118.236-1.4.16-1.018.147-.993c.34-2.388.547-4.483.616-6.402l.027-.785.028-.783.104-3.114.096-3.083.09-3.052.08-3.023.108-4.476.061-2.947.055-2.916.046-2.886.04-2.855.03-2.826.024-2.794.016-2.765.008-2.734v-2.704l-.001-.67-.002-.67-.01-2.658-.032-3.93-.03-2.583-.038-2.552-.046-2.522-.053-2.49-.061-2.462-.016-.61-.017-.609-.073-2.415-.02-.6-.02-.597-.083-2.37-.04-1.006Z"/><path fill="#999" fill-opacity=".7" d="M249.106 133.068 230.18 101.57l21.916 32.023a1.117 1.117 0 0 0 1.96-.218l8.1-20.374-5.849 20.108a34.628 34.628 0 0 0-1.378 9.671v67.08c0 1.226.337 2.43.974 3.478l4.93 8.12-5.534-5.86a2.234 2.234 0 0 0-2.944-.268l-24.972 18.28 20.848-18.543a11.17 11.17 0 0 0 3.747-8.346v-63.299c0-3.648-.993-7.228-2.872-10.355Z"/><path fill="#C7C7C7" d="M199.837 179.994c.576 0 1.05.436 1.11.995l.007.122v50.556a1.117 1.117 0 0 1-2.227.121l-.007-.121V181.11c0-.617.5-1.117 1.117-1.117Z"/><path fill="#AAA" d="M189.507 145.139c.038 8 3.444 17.224 3.444 26.25v81.595c0 .403.072.802.214 1.179l.167.446-1.767-.832a4.468 4.468 0 0 1-2.565-4.042V146.597c.338-29.815.507-30.3.507-1.458Z" opacity=".441"/></g></g></svg>