<svg xmlns="http://www.w3.org/2000/svg" width="300" height="300"><g fill="none" fill-rule="evenodd"><path stroke="#999" stroke-linecap="round" stroke-linejoin="round" stroke-width="2" d="m186.301 248.824 8.333.87"/><path stroke="#999" stroke-linecap="round" stroke-linejoin="round" stroke-width="3" d="m209.798 68.835-10.308-3.542c-2.241 2.213-6.275 7.526-8.515 11.068-2.241 3.542-4.93 7.97-6.275 11.511-.63 17.363-.946 38.955-.946 64.776.033 7.162 3.047 15.42 3.047 23.5v73.111"/><path fill="#A6A6A6" fill-rule="nonzero" d="M182.449 152.648c.033 7.162 3.046 15.42 3.046 23.5v73.054a3 3 0 0 0 .188 1.044l.15.404-1.553-.74a4 4 0 0 1-2.28-3.61v-92.345c.3-26.692.449-27.127.449-1.306Z" opacity=".6"/><path stroke="#999" stroke-linecap="round" stroke-linejoin="round" stroke-width="2" d="m204.415 68.029-1.949-.33a1 1 0 0 0-1.022.467l-12.304 20.27h0l-1.034 160.388"/><path stroke="#999" stroke-linecap="round" stroke-linejoin="round" stroke-width="2" d="m209.798 67.705-2.931-.714a1 1 0 0 0-1.081.436l-13.328 21.009h0l-.87 92.5m0 68.323v-15.666"/><path stroke="#999" stroke-linecap="round" stroke-linejoin="round" stroke-width="2" d="m211.336 67.264-1.357-.443-14.04 21.615-1.305 82.925"/><path stroke="#999" stroke-linecap="round" stroke-linejoin="round" stroke-width="3" d="m262.085 237.73 2.179-28.311v-59.382c.214-9.642-1.954-33.798-6.506-72.468a2 2 0 0 0-1.42-1.686L213.463 63.26a1 1 0 0 0-1.213.593 79.121 79.121 0 0 1-5.913 11.975 105.447 105.447 0 0 1-8.028 11.501c.763 18.765.699 40.828-.193 66.19-.28 7.923-3.047 17.29-3.047 22.63 0 27.344.037 51.59.111 72.736h0a2 2 0 0 0 2.117 1.992c13.308-.787 22.862-1.631 28.663-2.531 22.576-3.502 36.125-8.309 36.125-10.617Z"/><path stroke="#979797" stroke-linecap="round" stroke-width="2" d="M191.588 184.852v45.259"/><path fill="#979797" fill-rule="nonzero" d="m235.194 141.871-16.761-28.226 19.372 28.644a1 1 0 0 0 1.76-.194l7.157-18.217-5.187 18.045a31 31 0 0 0-1.206 8.565v60.119a6 6 0 0 0 .855 3.087l4.367 7.278-4.875-5.222a2 2 0 0 0-2.652-.243l-22.066 16.345 18.45-16.604a10 10 0 0 0 3.31-7.433v-56.753a18 18 0 0 0-2.524-9.19Z"/><path stroke="#999" stroke-linecap="round" stroke-linejoin="round" stroke-width="2" d="m117.301 246.824 8.333.87"/><path stroke="#999" stroke-linecap="round" stroke-linejoin="round" stroke-width="3" d="m140.798 66.835-10.308-3.542c-2.241 2.213-6.275 7.526-8.515 11.068-2.241 3.542-4.93 7.97-6.275 11.511-.63 17.363-.946 38.955-.946 64.776.033 7.162 3.047 15.42 3.047 23.5v73.111"/><path fill="#A6A6A6" fill-rule="nonzero" d="M113.449 150.648c.033 7.162 3.046 15.42 3.046 23.5v73.054a3 3 0 0 0 .188 1.044l.15.404-1.553-.74a4 4 0 0 1-2.28-3.61v-92.345c.3-26.692.449-27.127.449-1.306Z" opacity=".6"/><path stroke="#999" stroke-linecap="round" stroke-linejoin="round" stroke-width="2" d="m135.415 66.029-1.949-.33a1 1 0 0 0-1.022.467l-12.304 20.27h0l-1.034 160.388"/><path stroke="#999" stroke-linecap="round" stroke-linejoin="round" stroke-width="2" d="m140.798 65.705-2.931-.714a1 1 0 0 0-1.081.436l-13.328 21.009h0l-.87 92.5m0 68.323v-15.666"/><path stroke="#999" stroke-linecap="round" stroke-linejoin="round" stroke-width="2" d="m142.336 65.264-1.357-.443-14.04 21.615-1.305 82.925"/><path stroke="#999" stroke-linecap="round" stroke-linejoin="round" stroke-width="3" d="M185.404 73.725 144.467 61.27a.998.998 0 0 0-1.219.589 79.12 79.12 0 0 1-5.91 11.97 105.447 105.447 0 0 1-8.029 11.5c.763 18.765.699 40.828-.193 66.19-.28 7.923-3.047 17.29-3.047 22.63 0 27.33.037 51.565.11 72.704h0a2 2 0 0 0 2.144 1.991c22.94-1.69 39.406-3.291 49.4-4.803"/><path stroke="#979797" stroke-linecap="round" stroke-width="2" d="M122.588 182.852v45.259"/><path fill="#979797" fill-rule="nonzero" d="m166.194 139.871-16.761-28.226 19.372 28.644a1 1 0 0 0 1.76-.194l7.157-18.217-5.187 18.045a31 31 0 0 0-1.206 8.565v60.119a6 6 0 0 0 .855 3.087l4.367 7.278-4.875-5.222a2 2 0 0 0-2.652-.243l-22.066 16.345 18.45-16.604a10 10 0 0 0 3.31-7.433v-56.753a18 18 0 0 0-2.524-9.19Z"/><path stroke="#999" stroke-width="3" d="M240.546 44.046c-9.941-9.941-26.059-9.941-36 0m-28 0c-9.941-9.941-26.059-9.941-36 0m92.595 7c-6.035-6.036-15.821-6.036-21.857 0m-42.143 0c-6.035-6.036-15.821-6.036-21.857 0"/><g transform="translate(19.5 124)"><rect width="72" height="26" fill="#B4B4B4" fill-opacity=".501" rx="4"/><path fill="#949494" d="M7 17h4v2H7z"/><path fill="#656565" d="M29 17h4v2h-4zm22 0h4v2h-4z"/><path fill="#949494" d="M13 6h2v6h-2z"/><path fill="#656565" d="M35 6h2v6h-2zm22 0h2v6h-2z"/><path fill="#949494" d="M17 17h4v2h-4z"/><path fill="#656565" d="M39 17h4v2h-4zm22 0h4v2h-4z"/></g><path stroke="#9D9C9C" stroke-opacity=".536" stroke-width="3" d="M110.5 228h-19c-8.284 0-15-6.716-15-15v-61"/><path stroke="#9D9C9C" stroke-opacity=".536" stroke-width="3" d="M110.5 236h-40c-8.837 0-16-7.163-16-16v-68"/><g transform="translate(66.5 127)"><rect width="20" height="29" fill="#9D9D9D" rx="5"/><path fill="#FFF" d="m5 15.5 9.167-8-2.5 6.4H15l-9.167 7.6 2.5-6z"/></g><rect width="20" height="29" x="44.5" y="127" fill="#9D9D9D" rx="5"/><path fill="#FFF" d="m49.5 142.5 9.167-8-2.5 6.4H59.5l-9.167 7.6 2.5-6z"/><path stroke="#9D9C9C" stroke-opacity=".536" stroke-width="3" d="M267 217h3.5a5.5 5.5 0 0 1 0 11H266"/></g></svg>