<?xml version="1.0" standalone="no"?><!DOCTYPE svg PUBLIC "-//W3C//DTD SVG 1.1//EN" "http://www.w3.org/Graphics/SVG/1.1/DTD/svg11.dtd"><svg t="1669700480632" class="icon" viewBox="0 0 1024 1024" version="1.1" xmlns="http://www.w3.org/2000/svg" p-id="3055" xmlns:xlink="http://www.w3.org/1999/xlink" width="200" height="200"><path d="M779.28448 307.2c20.43904 0 37.33504 16.32256 39.64928 37.29408l0.26624 4.9152v172.1344c0 21.62688-15.44192 39.50592-35.26656 41.94304l-4.64896 0.28672h-43.37664v127.87712c0 21.6064-15.44192 39.48544-35.26656 41.92256l-4.64896 0.28672H328.00768c-20.41856 0-37.33504-16.32256-39.6288-37.29408l-0.28672-4.9152v-127.87712H244.736c-20.43904 0-37.33504-16.32256-39.64928-37.29408l-0.26624-4.9152v-172.1344c0-21.62688 15.44192-39.50592 35.26656-41.94304l4.64896-0.28672h534.56896z m-5.20192 47.7184H249.91744v161.13664h43.39712c20.43904 0 37.33504 16.32256 39.64928 37.29408l0.26624 4.9152v127.87712H690.7904v-127.87712c0-21.6064 15.42144-39.48544 35.26656-41.94304l4.64896-0.26624h43.37664V354.9184z m-432.31232 9.99424c11.50976 0 21.05344 7.5776 22.8352 17.5104l0.3072 3.3792v65.88416c0 11.53024-10.36288 20.8896-23.1424 20.8896-11.48928 0-21.03296-7.5776-22.8352-17.5104l-0.3072-3.3792v-65.88416c0-11.53024 10.36288-20.8896 23.1424-20.8896z m113.52064 0c11.50976 0 21.05344 7.5776 22.8352 17.5104l0.3072 3.3792v65.88416c0 11.53024-10.36288 20.8896-23.1424 20.8896-11.50976 0-21.05344-7.5776-22.8352-17.5104l-0.3072-3.3792v-65.88416c0-11.53024 10.36288-20.8896 23.1424-20.8896z m113.52064 0c11.50976 0 21.03296 7.5776 22.8352 17.5104l0.3072 3.3792v65.88416c0 11.53024-10.36288 20.8896-23.1424 20.8896-11.50976 0-21.05344-7.5776-22.8352-17.5104l-0.3072-3.3792v-65.88416c0-11.53024 10.36288-20.8896 23.1424-20.8896z m113.52064 0c11.48928 0 21.03296 7.5776 22.8352 17.5104l0.3072 3.3792v65.88416c0 11.53024-10.36288 20.8896-23.1424 20.8896-11.50976 0-21.05344-7.5776-22.8352-17.5104l-0.3072-3.3792v-65.88416c0-11.53024 10.36288-20.8896 23.1424-20.8896z" fill="#20C66E" p-id="3056"></path></svg>