<svg width="240" height="240" viewBox="0 0 240 240" xmlns="http://www.w3.org/2000/svg">
    <g fill-rule="nonzero" fill="none">
        <path d="m114.757 11.28.179.044 47.508 13.436a4 4 0 0 1 2.804 2.93c2.402 10.158 4.087 31.724 5.083 64.835l.03 1.006.151 5.416c.079 2.993-.106 6.439-.569 11.989l-.047.562-.383 4.485c-.255 3.03-.38 4.734-.452 6.29l-.01.212-.066 1.968a282.056 282.056 0 0 0-.117 7.724v1.202c.005 3.269.054 7.083.148 12.196l.012.646.24 11.806c.129 6.442.201 11.118.23 15.67l.003.524.012 4.279c0 .613.022 1.093.151 2.28l.03.265.555 4.59.307 2.573c.31 2.745.466 4.818.46 6.512l-.003.313-.015 1.042a433.696 433.696 0 0 0-.027 4.776v1.12l.003 1.781.002.621.037 6.127c0 2.558-3.555 4.576-10.472 6.86l-.41.135-1.28.407c-7.608 2.382-18.037 4.698-30.029 6.574-6.028.943-15.562 1.826-28.627 2.654l-.773.05-3.172.193a4 4 0 0 1-4.106-2.975l-2.324-.29a.998.998 0 0 1-1.713-.214l-2.287-.286a.999.999 0 0 1-.683.386l-.117.006a1 1 0 0 1-.945-.69c-.904.392-1.503.805-1.813 1.2l-.072.1c-1.076 1.613-3.554.897-3.66-.98l-.004-.155 1-79.975-.004-.692c-.037-3.205-.338-6.106-1.063-11.14l-.433-2.975c-.754-5.249-.986-7.577-1-10.684l-.023-7.113a2429.64 2429.64 0 0 1-.004-3.209v-3.124c.025-32.205.754-50.93 2.037-63.762a2 2 0 0 1 .117-.503c1.288-3.435 3.461-7.383 6.835-12.81l.342-.548c2.67-4.272 7.244-10.317 9.782-12.854a2 2 0 0 1 2.07-.475l10.103 3.513.383-.638a1 1 0 0 1 1.062-.465l.112.03.247.083c.285-.661.563-1.328.834-2l.4-1.011.073-.17a3 3 0 0 1 3.361-1.674zm-.041 4.139-.08.201a91.503 91.503 0 0 1-6.408 12.909 121.728 121.728 0 0 1-8.334 12.18l-.329.417.122 1.613c1.399 19.267 1.74 41.424 1.026 66.472l-.047 1.603-.1 3.163-.054 1.593c-.079 2.252-.387 4.678-.91 7.43-.278 1.471-.593 2.927-1.025 4.771l-.12.513-.622 2.598c-1.305 5.466-1.703 7.372-1.797 9.115l-.012.255-.006.19-.004.192-.003 82.746 3.105-.19c13.119-.82 22.706-1.692 28.735-2.612l.35-.054.906-.143c11.427-1.82 21.333-4.038 28.547-6.296 3.318-1.038 5.934-2.048 7.672-2.944.69-.355 1.213-.68 1.55-.947l.117-.098.014-.014-.019-2.772c-.011-1.82-.017-3.5-.02-5.037l.001-1.67c.001-1.043.005-2.012.011-2.905l.005-.527.026-2.204c.026-1.545-.123-3.574-.436-6.351l-.054-.47-.112-.946-.47-3.815c-.31-2.561-.399-3.442-.421-4.268l-.004-.198-.007-2.798c-.002-.614-.004-1.226-.008-1.839l-.007-1.228c-.026-3.49-.077-7.104-.16-11.58l-.016-.8-.163-8.031c-.252-12.15-.338-18.36-.26-23.996l.01-.624c.002-.208.006-.415.01-.621l.012-.62.02-.93.008-.312.008-.312.07-2.352c.049-1.33.126-2.613.275-4.543l.033-.424.616-7.296c.436-5.232.618-8.531.563-11.278l-.006-.282-.089-3.248c-.946-33.57-2.574-55.696-4.854-66.238l-.069-.316-.147-.642-46.639-13.19zm-13.692 3.678L87.023 41.786l-.98 177.91c.165.192.296.417.38.672.147.439.132.893-.011 1.298l1.613.201V205a1 1 0 0 1 1.994-.117l.007.117v17.117l1.986.248V141c0-2.043.166-3.396 1.044-7.258a.983.983 0 0 1-.024-.13l-.006-.117.5-91.5a1 1 0 0 1 .081-.39l.061-.12 12.514-20.857-1.53-.533-13.13 22.184-.996 103.23a1 1 0 0 1-.893.985l-.117.006a1 1 0 0 1-.984-.893l-.006-.117 1-103.5a1 1 0 0 1 .08-.382l.06-.117 13.058-22.066-.25-.087-1.45-.241zm-2.933-1.283-.072.08c-2.234 2.498-5.54 6.897-7.777 10.35l-.52.816-.961 1.55c-2.678 4.358-4.497 7.68-5.617 10.46l-.155.393-.14 1.47C81.68 55.62 81.017 74.059 81 104.917v3.093c.001 2.09.006 4.233.013 6.434l.014 3.547c.013 2.794.223 4.967.906 9.76l.49 3.37c.747 5.192 1.061 8.228 1.1 11.661l.004.743-.952 76.075.243-.101c.227-.093.463-.182.706-.269l.37-.127c.052-.017.103-.032.155-.045l.978-177.564a1 1 0 0 1 .085-.398l.064-.121 14.047-22.768-1.131-.393zm44.422 84.686a1.5 1.5 0 0 1 1.5 1.5c0 2.43-.122 4.436-.382 6.808l-.628 5.237-.146 1.339c-.546 5.24-.828 10.938-.843 19.385l-.001 57.731a1.5 1.5 0 0 1-2.993.144l-.007-.144v-57c0-9.204.303-15.264.909-20.887l.162-1.427c.155-1.294.482-3.948.565-4.705a56.07 56.07 0 0 0 .364-6.481 1.5 1.5 0 0 1 1.5-1.5zM95.627 42.104l-.104.176-.452 82.879c.186-.834.347-1.596.494-2.344l.108-.56.117-.634c.415-2.304.66-4.335.724-6.19.942-27.008.698-50.742-.73-71.2l-.086-1.199-.07-.928z" fill="#999" opacity=".7"/>
        <path d="M89.538 148.25a1.25 1.25 0 0 1 1.233 1.135l.005.127-.5 50.5a1.25 1.25 0 0 1-2.495.103l-.005-.127.5-50.5a1.25 1.25 0 0 1 1.262-1.238z" fill="#C9C9C9"/>
    </g>
</svg>
