<?xml version="1.0" encoding="UTF-8"?>
<svg width="300px" height="300px" viewBox="0 0 300 300" version="1.1" xmlns="http://www.w3.org/2000/svg" xmlns:xlink="http://www.w3.org/1999/xlink">
    <title>img/常见问题/img_m6_networking</title>
    <defs>
        <filter x="-112.5%" y="-51.4%" width="325.0%" height="202.9%" filterUnits="objectBoundingBox" id="filter-1">
            <feGaussianBlur stdDeviation="6" in="SourceGraphic"></feGaussianBlur>
        </filter>
    </defs>
    <g id="img/常见问题/img_m6_networking" stroke="none" stroke-width="1" fill="none" fill-rule="evenodd">
        <g id="编组-2备份-3" transform="translate(27.468750, 27.596434)">
            <path d="M44.1044871,0 L46.8471627,0.113611542 L47.2747711,2.73692238 C54.1885246,45.3893955 57.6469294,78.4900876 57.6469294,102.059816 C57.6469294,107.275119 57.4285827,110.986641 56.9260331,115.326862 L56.7375566,116.877188 L55.9083014,123.332367 L55.7143562,125.004518 L55.5743459,126.302742 L55.4847681,127.181408 C54.6627489,135.435395 54.2338143,145.220017 54.1931011,160.197719 L54.1898982,162.597975 L54.1973501,165.611722 L54.2138772,167.919775 C54.3598915,183.545662 55.1688221,193.553229 56.5330699,200.734752 L56.667494,201.418341 L56.8448712,202.248393 C57.4019254,204.780885 58.3704841,208.656209 58.4341985,208.954872 C58.8567974,210.935816 59.0531794,212.698479 59.0531794,214.901157 L59.0531794,237.882268 C59.0531794,241.62211 56.0642284,243.826179 50.6853611,244.547344 L49.0922419,243.153566 L9.9609375,243.153566 L8.36781836,244.547344 C3.09872387,243.840897 0.122993386,241.711454 0.00372954103,238.109319 L0,237.882268 L0,214.901157 C0,212.910802 0.139783496,211.283525 0.439009345,209.524522 L0.551136881,208.904151 L1.52653792,204.233787 C1.7153293,203.305139 1.89508709,202.395238 2.02807747,201.666642 L2.12899788,201.094697 L2.29007711,200.105167 L2.45221945,199.030361 L2.61024273,197.894689 C3.5374813,190.947834 4.08735414,181.575718 4.19797707,167.916869 L4.21227929,165.613475 L4.21875,162.597975 L4.21611286,160.183406 L4.20410341,157.04633 C4.12820671,143.276095 3.75718759,134.103556 3.0873793,126.229827 L2.97496252,124.950866 L2.78007765,122.909078 L2.28438652,118.171278 L1.98610925,115.2413 L1.8767885,114.0257 L1.7742926,112.762924 C1.53483146,109.626771 1.42019133,106.606065 1.40745045,102.790262 L1.40742443,101.335083 C1.48109269,78.5117043 5.0204672,46.9043261 12.0223519,6.49285253 L12.6819472,2.7180696 L13.1467993,0.0944177231 L15.8955129,0 L19.49625,14.4028125 L21.5625,14.4028125 L21.5625,0.341065723 L25.3125,0.341065723 L25.3125,14.4028125 L28.125,14.4028125 L28.125,0.341065723 L31.875,0.341065723 L31.875,14.4028125 L34.6875,14.4028125 L34.6875,0.341065723 L38.4375,0.341065723 L38.4375,14.4028125 L40.5028125,14.4028125 L44.1044871,0 Z M8.6646207,48.1908098 L8.83166452,45.3140897 L8.7144974,46.1844945 C5.76961484,68.2442011 4.27178258,86.6103906 4.22013346,101.27761 L4.22004217,102.812853 C4.23554059,107.253598 4.39117663,110.582494 4.72579716,114.318967 L4.78671372,114.982885 L4.91249401,116.270646 L5.65849229,123.44048 L5.78115246,124.754076 C6.51285654,132.840745 6.92139617,142.126143 7.01191282,156.253945 L7.02666458,159.430421 L7.03125,162.597975 L7.02450575,165.679369 L7.01007857,167.973656 C6.88725827,183.011461 6.2328916,192.941025 5.12108484,200.202286 L5.06684718,200.5521 L4.90225212,201.562903 L4.74422016,202.445812 L4.56818994,203.365468 C4.37934161,204.331728 4.15756567,205.414002 3.95260266,206.398131 L3.3144122,209.427914 L3.21251021,209.991277 C2.9660313,211.438819 2.83920616,212.775547 2.81630592,214.362434 L2.8125,214.901157 L2.8125,237.882268 C2.8125,239.528717 4.003812,240.705438 6.71534729,241.383401 L6.99158041,241.449533 L7.1484375,241.483878 L7.14853809,212.654859 C7.10002915,208.59947 7.72790532,205.130669 9.13462171,200.385393 L9.31452513,199.785451 L10.5538946,195.7367 L10.8131301,194.861529 C11.474431,192.595565 11.6592494,191.645726 11.7050785,190.525938 L11.7179199,189.95216 L11.71875,122.216066 L11.7144657,121.68158 C11.6684826,118.826367 11.2478291,115.855378 10.2347265,110.762092 L9.93399077,109.271992 L8.88445319,104.199148 L8.41866911,101.854547 L8.23360168,100.883012 C7.43766048,96.6358144 7.13486367,94.0302311 7.14314228,91.36602 L7.14866322,90.8445221 L7.18027426,89.1379535 L7.25206913,85.6195394 L7.33202766,82.1433299 C7.61216288,70.6263042 8.02836899,59.8126606 8.58074329,49.702118 L8.6646207,48.1908098 Z M50.2781794,42.8013782 L50.4708098,46.5654336 L50.6111039,49.4721452 C51.1835164,61.6655092 51.6041053,74.8847072 51.8729795,89.1301437 L51.9045162,90.8445221 C51.9766033,94.8674323 51.4742778,98.2221055 49.9139609,105.505193 L49.2658447,108.499368 C47.9439237,114.632719 47.3686113,118.285658 47.3359129,121.888596 L47.3370927,190.141853 L47.3469472,190.516436 L47.3587399,190.750265 C47.4303106,191.911991 47.7025114,193.012148 48.6937006,196.288978 L49.7387177,199.712291 C51.2661669,204.785429 51.9552064,208.42758 51.9046413,212.654859 L51.9047419,241.483878 L52.061599,241.449533 C54.9686229,240.783364 56.2406794,239.583599 56.2406794,237.882268 L56.2406794,214.901157 C56.2406794,213.083309 56.0964224,211.623245 55.7827893,210.025586 L55.652194,209.407905 L54.7186948,205.549528 L54.2911284,203.714206 C54.1288893,203.001721 53.9831434,202.337426 53.875305,201.801297 L53.707451,200.926482 L53.5814367,200.229969 C52.1512626,192.124984 51.3773982,180.706861 51.3773982,162.597975 L51.3805712,160.206917 L51.3953236,157.052816 L51.4151075,154.706055 C51.5504461,141.403589 52.0504418,132.485802 52.9209007,124.677405 L53.1568621,122.662022 L53.9836742,116.238642 L54.1315894,115.008661 C54.5731642,111.196466 54.7890029,107.895884 54.8279364,103.556048 L54.8344294,102.059816 L54.8293784,100.494218 L54.8142252,98.900547 C54.6357537,84.699125 53.2748854,67.2120085 50.7310055,46.443384 L50.2781794,42.8013782 Z M45.7221354,17.2146085 L13.8945336,17.2146085 L13.6821363,19.3138431 C11.8653242,37.625195 10.6715941,59.1811871 10.1019079,83.9790395 L10.0378096,86.9092516 L9.96071178,90.8949116 L9.95567821,91.3527261 C9.94615939,94.3275407 10.3705574,97.3306988 11.5394317,103.137789 L11.8225288,104.528925 L12.5006394,107.790586 L12.8909274,109.70134 L13.0950702,110.727279 C14.077251,115.720828 14.486019,118.716282 14.5276677,121.699746 L14.53125,122.216066 L14.5299733,190.056059 L14.5250795,190.397079 C14.4907766,192.003387 14.2883024,193.064082 13.319256,196.308078 L13.0070055,197.342738 L12.1823248,200.025667 C10.6599021,204.952277 9.96486355,208.332746 9.95861019,212.190661 L9.9609375,212.638039 L9.9609375,240.340313 L49.0921875,240.340313 L49.0922419,212.638039 C49.1388294,208.73519 48.4956929,205.337375 47.0414849,200.509378 L45.726219,196.18849 L45.4479304,195.244168 L45.1920135,194.342056 C44.6067161,192.21939 44.5292132,191.412924 44.5224733,189.973393 L44.5219294,122.216066 C44.5219294,118.364202 45.0801223,114.637501 46.3948664,108.473908 L47.2503365,104.511069 L47.7358089,102.183981 L47.9329207,101.200088 C48.8433433,96.5820623 49.1464042,93.9049063 49.0924676,90.8949116 L49.0155938,86.8597265 L48.9282605,82.7771894 L48.8245462,78.4425917 C48.2327834,55.0271212 47.1984646,34.6171178 45.7221354,17.2146085 Z M14.9549807,7.83462998 C14.6909348,9.97230467 14.4368535,12.1618966 14.1927389,14.4034002 L16.5965625,14.4028125 L14.9549807,7.83462998 Z M44.9087151,8.37726939 L43.4025,14.4028125 L45.4774256,14.4029142 C45.3400347,12.8639272 45.1990537,11.3493714 45.0544827,9.85924826 L44.9087151,8.37726939 Z" id="形状" fill-opacity="0.5" fill="#999999" fill-rule="nonzero"></path>
            <path d="M33.28125,92.6535657 L25.78125,92.6535657 C23.4340398,92.6535657 21.53125,94.5563555 21.53125,96.9035657 L21.53125,104.403566 C21.53125,106.750776 23.4340398,108.653566 25.78125,108.653566 L33.28125,108.653566 C35.6284602,108.653566 37.53125,106.750776 37.53125,104.403566 L37.53125,96.9035657 C37.53125,94.5563555 35.6284602,92.6535657 33.28125,92.6535657 Z M25.78125,93.6535657 L33.28125,93.6535657 C35.0761754,93.6535657 36.53125,95.1086403 36.53125,96.9035657 L36.53125,104.403566 C36.53125,106.198491 35.0761754,107.653566 33.28125,107.653566 L25.78125,107.653566 C23.9863246,107.653566 22.53125,106.198491 22.53125,104.403566 L22.53125,96.9035657 C22.53125,95.1086403 23.9863246,93.6535657 25.78125,93.6535657 Z" id="矩形备份-9" fill-opacity="0.7" fill="#999999" fill-rule="nonzero"></path>
            <path d="M22.1325,89.7060657 C22.42125,89.7060657 22.66875,89.6235657 22.875,89.4585657 C23.09625,89.2823157 23.235,89.0385657 23.295,88.7235657 L22.8675,88.7235657 C22.815,88.9260657 22.725,89.0798157 22.5975,89.1810657 C22.4775,89.2710657 22.32,89.3198157 22.12875,89.3198157 C21.83625,89.3198157 21.61875,89.2260657 21.48,89.0460657 C21.3525,88.8773157 21.28875,88.6335657 21.28875,88.3185657 C21.28875,88.0110657 21.3525,87.7710657 21.48375,87.5985657 C21.62625,87.4035657 21.83625,87.3098157 22.1175,87.3098157 C22.305,87.3098157 22.45875,87.3473157 22.57875,87.4298157 C22.7025,87.5123157 22.785,87.6398157 22.83,87.8160657 L23.2575,87.8160657 C23.21625,87.5460657 23.1,87.3285657 22.905,87.1710657 C22.7025,87.0060657 22.44,86.9235657 22.125,86.9235657 C21.6975,86.9235657 21.37125,87.0623157 21.14625,87.3473157 C20.9475,87.5948157 20.85,87.9210657 20.85,88.3185657 C20.85,88.7235657 20.94375,89.0460657 21.135,89.2860657 C21.3525,89.5635657 21.68625,89.7060657 22.1325,89.7060657 Z M24.89625,89.7060657 C25.305,89.7060657 25.6275,89.5748157 25.86375,89.3123157 C26.08875,89.0610657 26.20125,88.7310657 26.20125,88.3185657 C26.20125,87.9060657 26.08875,87.5723157 25.86375,87.3210657 C25.6275,87.0548157 25.305,86.9235657 24.89625,86.9235657 C24.48375,86.9235657 24.16125,87.0548157 23.92875,87.3248157 C23.70375,87.5798157 23.595,87.9098157 23.595,88.3185657 C23.595,88.7235657 23.70375,89.0535657 23.92875,89.3085657 C24.16125,89.5710657 24.48375,89.7060657 24.89625,89.7060657 Z M24.89625,89.3198157 C24.61875,89.3198157 24.40125,89.2260657 24.25125,89.0423157 C24.105,88.8623157 24.03375,88.6223157 24.03375,88.3185657 C24.03375,88.0110657 24.105,87.7710657 24.25125,87.5910657 C24.405,87.4035657 24.61875,87.3098157 24.89625,87.3098157 C25.17375,87.3098157 25.3875,87.3960657 25.5375,87.5760657 C25.68375,87.7560657 25.75875,88.0035657 25.75875,88.3185657 C25.75875,88.6335657 25.68375,88.8773157 25.5375,89.0535657 C25.3875,89.2298157 25.17375,89.3198157 24.89625,89.3198157 Z M27.0525,89.6535657 L27.0525,87.6960657 L27.0675,87.6960657 L28.40625,89.6535657 L28.83375,89.6535657 L28.83375,86.9760657 L28.39125,86.9760657 L28.39125,88.9073157 L28.37625,88.9073157 L27.0525,86.9760657 L26.61375,86.9760657 L26.61375,89.6535657 L27.0525,89.6535657 Z M29.7975,89.6535657 L29.7975,87.6960657 L29.8125,87.6960657 L31.15125,89.6535657 L31.57875,89.6535657 L31.57875,86.9760657 L31.13625,86.9760657 L31.13625,88.9073157 L31.12125,88.9073157 L29.7975,86.9760657 L29.35875,86.9760657 L29.35875,89.6535657 L29.7975,89.6535657 Z M34.09875,89.6535657 L34.09875,89.2785657 L32.5425,89.2785657 L32.5425,88.4685657 L33.945,88.4685657 L33.945,88.0935657 L32.5425,88.0935657 L32.5425,87.3510657 L34.035,87.3510657 L34.035,86.9760657 L32.10375,86.9760657 L32.10375,89.6535657 L34.09875,89.6535657 Z M35.68125,89.7060657 C35.97,89.7060657 36.2175,89.6235657 36.42375,89.4585657 C36.645,89.2823157 36.78375,89.0385657 36.84375,88.7235657 L36.41625,88.7235657 C36.36375,88.9260657 36.27375,89.0798157 36.14625,89.1810657 C36.02625,89.2710657 35.86875,89.3198157 35.6775,89.3198157 C35.385,89.3198157 35.1675,89.2260657 35.02875,89.0460657 C34.90125,88.8773157 34.8375,88.6335657 34.8375,88.3185657 C34.8375,88.0110657 34.90125,87.7710657 35.0325,87.5985657 C35.175,87.4035657 35.385,87.3098157 35.66625,87.3098157 C35.85375,87.3098157 36.0075,87.3473157 36.1275,87.4298157 C36.25125,87.5123157 36.33375,87.6398157 36.37875,87.8160657 L36.80625,87.8160657 C36.765,87.5460657 36.64875,87.3285657 36.45375,87.1710657 C36.25125,87.0060657 35.98875,86.9235657 35.67375,86.9235657 C35.24625,86.9235657 34.92,87.0623157 34.695,87.3473157 C34.49625,87.5948157 34.39875,87.9210657 34.39875,88.3185657 C34.39875,88.7235657 34.4925,89.0460657 34.68375,89.2860657 C34.90125,89.5635657 35.235,89.7060657 35.68125,89.7060657 Z M38.36625,89.6535657 L38.36625,87.3510657 L39.24375,87.3510657 L39.24375,86.9760657 L37.05,86.9760657 L37.05,87.3510657 L37.9275,87.3510657 L37.9275,89.6535657 L38.36625,89.6535657 Z" id="CONNECT" fill="#999999" fill-rule="nonzero"></path>
            <path d="M26.82375,198.403566 L27.34875,196.389816 L27.36375,196.389816 L27.885,198.403566 L28.35,198.403566 L29.1225,195.726066 L28.6275,195.726066 L28.125,197.762316 L28.11,197.762316 L27.58125,195.726066 L27.1275,195.726066 L26.59875,197.762316 L26.58375,197.762316 L26.08125,195.726066 L25.58625,195.726066 L26.355,198.403566 L26.82375,198.403566 Z M29.61,198.403566 L29.85375,197.732316 L30.975,197.732316 L31.21875,198.403566 L31.6875,198.403566 L30.66375,195.726066 L30.165,195.726066 L29.14125,198.403566 L29.61,198.403566 Z M30.84375,197.372316 L29.985,197.372316 L30.40875,196.198566 L30.42375,196.198566 L30.84375,197.372316 Z M32.38875,198.403566 L32.38875,196.446066 L32.40375,196.446066 L33.7425,198.403566 L34.17,198.403566 L34.17,195.726066 L33.7275,195.726066 L33.7275,197.657316 L33.7125,197.657316 L32.38875,195.726066 L31.95,195.726066 L31.95,198.403566 L32.38875,198.403566 Z" id="WAN" fill="#999999" fill-rule="nonzero"></path>
            <path d="M28.389375,119.653566 L28.389375,119.278566 L26.941875,119.278566 L26.941875,116.976066 L26.506875,116.976066 L26.506875,119.653566 L28.389375,119.653566 Z M28.933125,119.653566 L29.176875,118.982316 L30.298125,118.982316 L30.541875,119.653566 L31.010625,119.653566 L29.986875,116.976066 L29.488125,116.976066 L28.464375,119.653566 L28.933125,119.653566 Z M30.166875,118.622316 L29.308125,118.622316 L29.731875,117.448566 L29.746875,117.448566 L30.166875,118.622316 Z M31.711875,119.653566 L31.711875,117.696066 L31.726875,117.696066 L33.065625,119.653566 L33.493125,119.653566 L33.493125,116.976066 L33.050625,116.976066 L33.050625,118.907316 L33.035625,118.907316 L31.711875,116.976066 L31.273125,116.976066 L31.273125,119.653566 L31.711875,119.653566 Z" id="LAN" fill="#999999" fill-rule="nonzero"></path>
            <path d="M24.19125,223.716066 L24.19125,222.688566 L24.855,222.688566 C25.5075,222.688566 25.83375,222.411066 25.83375,221.859816 C25.83375,221.312316 25.5075,221.038566 24.8625,221.038566 L23.7525,221.038566 L23.7525,223.716066 L24.19125,223.716066 Z M24.82875,222.313566 L24.19125,222.313566 L24.19125,221.413566 L24.82875,221.413566 C25.02,221.413566 25.1625,221.447316 25.2525,221.518566 C25.3425,221.586066 25.39125,221.698566 25.39125,221.859816 C25.39125,222.021066 25.34625,222.137316 25.25625,222.208566 C25.16625,222.276066 25.02375,222.313566 24.82875,222.313566 Z M27.3975,223.768566 C27.80625,223.768566 28.12875,223.637316 28.365,223.374816 C28.59,223.123566 28.7025,222.793566 28.7025,222.381066 C28.7025,221.968566 28.59,221.634816 28.365,221.383566 C28.12875,221.117316 27.80625,220.986066 27.3975,220.986066 C26.985,220.986066 26.6625,221.117316 26.43,221.387316 C26.205,221.642316 26.09625,221.972316 26.09625,222.381066 C26.09625,222.786066 26.205,223.116066 26.43,223.371066 C26.6625,223.633566 26.985,223.768566 27.3975,223.768566 Z M27.3975,223.382316 C27.12,223.382316 26.9025,223.288566 26.7525,223.104816 C26.60625,222.924816 26.535,222.684816 26.535,222.381066 C26.535,222.073566 26.60625,221.833566 26.7525,221.653566 C26.90625,221.466066 27.12,221.372316 27.3975,221.372316 C27.675,221.372316 27.88875,221.458566 28.03875,221.638566 C28.185,221.818566 28.26,222.066066 28.26,222.381066 C28.26,222.696066 28.185,222.939816 28.03875,223.116066 C27.88875,223.292316 27.675,223.382316 27.3975,223.382316 Z M30.10875,223.716066 L30.63375,221.702316 L30.64875,221.702316 L31.17,223.716066 L31.635,223.716066 L32.4075,221.038566 L31.9125,221.038566 L31.41,223.074816 L31.395,223.074816 L30.86625,221.038566 L30.4125,221.038566 L29.88375,223.074816 L29.86875,223.074816 L29.36625,221.038566 L28.87125,221.038566 L29.64,223.716066 L30.10875,223.716066 Z M34.68375,223.716066 L34.68375,223.341066 L33.1275,223.341066 L33.1275,222.531066 L34.53,222.531066 L34.53,222.156066 L33.1275,222.156066 L33.1275,221.413566 L34.62,221.413566 L34.62,221.038566 L32.68875,221.038566 L32.68875,223.716066 L34.68375,223.716066 Z M35.535,223.716066 L35.535,222.624816 L36.22875,222.624816 C36.37875,222.624816 36.495,222.654816 36.57375,222.722316 C36.64875,222.786066 36.69375,222.891066 36.70875,223.037316 L36.7425,223.367316 C36.7575,223.517316 36.795,223.633566 36.85875,223.716066 L37.335,223.716066 C37.245,223.618566 37.18875,223.487316 37.17375,223.322316 L37.12875,222.891066 C37.09875,222.628566 36.9675,222.474816 36.735,222.422316 L36.735,222.414816 C36.8775,222.377316 36.99375,222.298566 37.07625,222.178566 C37.15125,222.069816 37.18875,221.946066 37.18875,221.807316 C37.18875,221.552316 37.1025,221.357316 36.9375,221.222316 C36.78,221.098566 36.5625,221.038566 36.28875,221.038566 L35.09625,221.038566 L35.09625,223.716066 L35.535,223.716066 Z M36.22875,222.249816 L35.535,222.249816 L35.535,221.413566 L36.22875,221.413566 C36.40875,221.413566 36.54,221.443566 36.6225,221.511066 C36.705,221.574816 36.74625,221.679816 36.74625,221.826066 C36.74625,221.961066 36.705,222.066066 36.6225,222.141066 C36.5325,222.212316 36.40125,222.249816 36.22875,222.249816 Z" id="POWER" fill="#999999" fill-rule="nonzero"></path>
            <path d="M24.144375,71.8410657 L24.144375,70.7498157 L24.838125,70.7498157 C24.988125,70.7498157 25.104375,70.7798157 25.183125,70.8473157 C25.258125,70.9110657 25.303125,71.0160657 25.318125,71.1623157 L25.351875,71.4923157 C25.366875,71.6423157 25.404375,71.7585657 25.468125,71.8410657 L25.944375,71.8410657 C25.854375,71.7435657 25.798125,71.6123157 25.783125,71.4473157 L25.738125,71.0160657 C25.708125,70.7535657 25.576875,70.5998157 25.344375,70.5473157 L25.344375,70.5398157 C25.486875,70.5023157 25.603125,70.4235657 25.685625,70.3035657 C25.760625,70.1948157 25.798125,70.0710657 25.798125,69.9323157 C25.798125,69.6773157 25.711875,69.4823157 25.546875,69.3473157 C25.389375,69.2235657 25.171875,69.1635657 24.898125,69.1635657 L23.705625,69.1635657 L23.705625,71.8410657 L24.144375,71.8410657 Z M24.838125,70.3748157 L24.144375,70.3748157 L24.144375,69.5385657 L24.838125,69.5385657 C25.018125,69.5385657 25.149375,69.5685657 25.231875,69.6360657 C25.314375,69.6998157 25.355625,69.8048157 25.355625,69.9510657 C25.355625,70.0860657 25.314375,70.1910657 25.231875,70.2660657 C25.141875,70.3373157 25.010625,70.3748157 24.838125,70.3748157 Z M28.314375,71.8410657 L28.314375,71.4660657 L26.758125,71.4660657 L26.758125,70.6560657 L28.160625,70.6560657 L28.160625,70.2810657 L26.758125,70.2810657 L26.758125,69.5385657 L28.250625,69.5385657 L28.250625,69.1635657 L26.319375,69.1635657 L26.319375,71.8410657 L28.314375,71.8410657 Z M29.716875,71.8935657 C30.058125,71.8935657 30.324375,71.8223157 30.511875,71.6873157 C30.699375,71.5485657 30.793125,71.3573157 30.793125,71.1173157 C30.793125,70.8698157 30.676875,70.6785657 30.444375,70.5398157 C30.339375,70.4798157 30.106875,70.3898157 29.743125,70.2773157 C29.495625,70.1985657 29.341875,70.1423157 29.285625,70.1123157 C29.158125,70.0448157 29.098125,69.9510657 29.098125,69.8385657 C29.098125,69.7110657 29.150625,69.6173157 29.263125,69.5610657 C29.353125,69.5123157 29.480625,69.4898157 29.649375,69.4898157 C29.844375,69.4898157 29.994375,69.5235657 30.091875,69.5985657 C30.189375,69.6698157 30.260625,69.7898157 30.298125,69.9548157 L30.733125,69.9548157 C30.706875,69.6623157 30.598125,69.4448157 30.410625,69.3060657 C30.234375,69.1748157 29.986875,69.1110657 29.671875,69.1110657 C29.383125,69.1110657 29.146875,69.1748157 28.959375,69.3060657 C28.756875,69.4410657 28.659375,69.6285657 28.659375,69.8648157 C28.659375,70.1010657 28.760625,70.2810657 28.966875,70.4048157 C29.045625,70.4498157 29.251875,70.5248157 29.581875,70.6298157 C29.878125,70.7198157 30.050625,70.7798157 30.103125,70.8060657 C30.268125,70.8885657 30.354375,71.0010657 30.354375,71.1435657 C30.354375,71.2560657 30.294375,71.3423157 30.181875,71.4098157 C30.069375,71.4735657 29.911875,71.5073157 29.716875,71.5073157 C29.495625,71.5073157 29.334375,71.4660657 29.229375,71.3910657 C29.113125,71.3048157 29.041875,71.1585657 29.011875,70.9560657 L28.576875,70.9560657 C28.595625,71.2973157 28.719375,71.5448157 28.944375,71.7023157 C29.128125,71.8298157 29.386875,71.8935657 29.716875,71.8935657 Z M33.163125,71.8410657 L33.163125,71.4660657 L31.606875,71.4660657 L31.606875,70.6560657 L33.009375,70.6560657 L33.009375,70.2810657 L31.606875,70.2810657 L31.606875,69.5385657 L33.099375,69.5385657 L33.099375,69.1635657 L31.168125,69.1635657 L31.168125,71.8410657 L33.163125,71.8410657 Z M34.685625,71.8410657 L34.685625,69.5385657 L35.563125,69.5385657 L35.563125,69.1635657 L33.369375,69.1635657 L33.369375,69.5385657 L34.246875,69.5385657 L34.246875,71.8410657 L34.685625,71.8410657 Z" id="RESET" fill="#999999" fill-rule="nonzero"></path>
            <circle id="椭圆形备份-2" fill-opacity="0.5" fill="#999999" cx="30" cy="75.8098157" r="1.40625"></circle>
            <circle id="椭圆形备份-3" fill-opacity="0.5" fill="#999999" cx="27.65625" cy="213.153566" r="4.6875"></circle>
            <path d="M30,124.091066 L30.00025,126.059066 L33.0133929,126.059816 L33.01425,129.997066 L35.0223214,129.997316 L35.02325,130.981066 L37.03125,130.981691 L37.03125,136.887941 L35.02325,136.887066 L35.0223214,137.872316 L33.01425,137.872066 L33.0133929,141.809816 L30.00025,141.809066 L30,143.778566 L24.9776786,143.778566 L24.97825,141.809066 L22.96875,141.809816 L22.96875,126.059816 L24.97825,126.059066 L24.9776786,124.091066 L30,124.091066 Z M29.53125,138.537088 L24.84375,138.537088 L24.84375,139.559816 L29.53125,139.559816 L29.53125,138.537088 Z M29.53125,136.491634 L24.84375,136.491634 L24.84375,137.514361 L29.53125,137.514361 L29.53125,136.491634 Z M29.53125,134.446179 L24.84375,134.446179 L24.84375,135.468907 L29.53125,135.468907 L29.53125,134.446179 Z M29.53125,132.400725 L24.84375,132.400725 L24.84375,133.423452 L29.53125,133.423452 L29.53125,132.400725 Z M29.53125,130.35527 L24.84375,130.35527 L24.84375,131.377998 L29.53125,131.377998 L29.53125,130.35527 Z M29.53125,128.309816 L24.84375,128.309816 L24.84375,129.332543 L29.53125,129.332543 L29.53125,128.309816 Z" id="形状结合" fill-opacity="0.5" fill="#999999"></path>
            <path d="M30,147.528566 L30.00025,149.496566 L33.0133929,149.497316 L33.01425,153.434566 L35.0223214,153.434816 L35.02325,154.418566 L37.03125,154.419191 L37.03125,160.325441 L35.02325,160.324566 L35.0223214,161.309816 L33.01425,161.309566 L33.0133929,165.247316 L30.00025,165.246566 L30,167.216066 L24.9776786,167.216066 L24.97825,165.246566 L22.96875,165.247316 L22.96875,149.497316 L24.97825,149.496566 L24.9776786,147.528566 L30,147.528566 Z M29.53125,161.974588 L24.84375,161.974588 L24.84375,162.997316 L29.53125,162.997316 L29.53125,161.974588 Z M29.53125,159.929134 L24.84375,159.929134 L24.84375,160.951861 L29.53125,160.951861 L29.53125,159.929134 Z M29.53125,157.883679 L24.84375,157.883679 L24.84375,158.906407 L29.53125,158.906407 L29.53125,157.883679 Z M29.53125,155.838225 L24.84375,155.838225 L24.84375,156.860952 L29.53125,156.860952 L29.53125,155.838225 Z M29.53125,153.79277 L24.84375,153.79277 L24.84375,154.815498 L29.53125,154.815498 L29.53125,153.79277 Z M29.53125,151.747316 L24.84375,151.747316 L24.84375,152.770043 L29.53125,152.770043 L29.53125,151.747316 Z" id="形状结合" fill-opacity="0.5" fill="#999999"></path>
            <path d="M30,170.966066 L30.00025,172.934066 L33.0133929,172.934816 L33.01425,176.872066 L35.0223214,176.872316 L35.02325,177.856066 L37.03125,177.856691 L37.03125,183.762941 L35.02325,183.762066 L35.0223214,184.747316 L33.01425,184.747066 L33.0133929,188.684816 L30.00025,188.684066 L30,190.653566 L24.9776786,190.653566 L24.97825,188.684066 L22.96875,188.684816 L22.96875,172.934816 L24.97825,172.934066 L24.9776786,170.966066 L30,170.966066 Z M29.53125,185.412088 L24.84375,185.412088 L24.84375,186.434816 L29.53125,186.434816 L29.53125,185.412088 Z M29.53125,183.366634 L24.84375,183.366634 L24.84375,184.389361 L29.53125,184.389361 L29.53125,183.366634 Z M29.53125,181.321179 L24.84375,181.321179 L24.84375,182.343907 L29.53125,182.343907 L29.53125,181.321179 Z M29.53125,179.275725 L24.84375,179.275725 L24.84375,180.298452 L29.53125,180.298452 L29.53125,179.275725 Z M29.53125,177.23027 L24.84375,177.23027 L24.84375,178.252998 L29.53125,178.252998 L29.53125,177.23027 Z M29.53125,175.184816 L24.84375,175.184816 L24.84375,176.207543 L29.53125,176.207543 L29.53125,175.184816 Z" id="形状结合" fill-opacity="0.5" fill="#FF5B5B"></path>
            <polygon id="直线-15" fill="#999999" fill-rule="nonzero" points="21.5625 170.497316 21.5625 171.434816 19.687 171.434 19.687 196.278 23.90625 196.278566 23.90625 197.216066 18.75 197.216066 18.75 170.497316"></polygon>
            <polygon id="直线-15备份" fill="#999999" fill-rule="nonzero" points="40.3125 170.497316 40.3125 197.216066 35.625 197.216066 35.625 196.278566 39.375 196.278 39.375 171.434 37.5 171.434816 37.5 170.497316"></polygon>
            <polygon id="直线-15" fill="#999999" fill-rule="nonzero" transform="translate(21.328125, 143.309816) scale(1, -1) translate(-21.328125, -143.309816) " points="21.5625 117.997316 21.5625 118.934816 19.687 118.934 19.687 167.684 23.90625 167.684816 23.90625 168.622316 18.75 168.622316 18.75 117.997316"></polygon>
            <polygon id="直线-15备份" fill="#999999" fill-rule="nonzero" transform="translate(37.968750, 143.309816) scale(1, -1) translate(-37.968750, -143.309816) " points="40.3125 117.997316 40.3125 168.622316 35.625 168.622316 35.625 167.684816 39.375 167.684 39.375 118.934 37.5 118.934816 37.5 117.997316"></polygon>
        </g>
        <g id="编组-2备份-4" transform="translate(213.468750, 27.596434)">
            <path d="M44.1044871,5.68434189e-14 L46.8471627,0.113611542 L47.2747711,2.73692238 C54.1885246,45.3893955 57.6469294,78.4900876 57.6469294,102.059816 C57.6469294,107.275119 57.4285827,110.986641 56.9260331,115.326862 L56.7375566,116.877188 L55.9083014,123.332367 L55.7143562,125.004518 L55.5743459,126.302742 L55.4847681,127.181408 C54.6627489,135.435395 54.2338143,145.220017 54.1931011,160.197719 L54.1898982,162.597975 L54.1973501,165.611722 L54.2138772,167.919775 C54.3598915,183.545662 55.1688221,193.553229 56.5330699,200.734752 L56.667494,201.418341 L56.8448712,202.248393 C57.4019254,204.780885 58.3704841,208.656209 58.4341985,208.954872 C58.8567974,210.935816 59.0531794,212.698479 59.0531794,214.901157 L59.0532795,216.403579 C59.0459374,216.40357 59.0385942,216.403566 59.03125,216.403566 C58.0813651,216.403566 57.1491562,216.479245 56.2403239,216.624904 L56.2406794,214.901157 C56.2406794,213.083309 56.0964224,211.623245 55.7827893,210.025586 L55.652194,209.407905 L54.7186948,205.549528 L54.2911284,203.714206 C54.1288893,203.001721 53.9831434,202.337426 53.875305,201.801297 L53.707451,200.926482 L53.5814367,200.229969 C52.1512626,192.124984 51.3773982,180.706861 51.3773982,162.597975 L51.3805712,160.206917 L51.3953236,157.052816 L51.4151075,154.706055 C51.5504461,141.403589 52.0504418,132.485802 52.9209007,124.677405 L53.1568621,122.662022 L53.9836742,116.238642 L54.1315894,115.008661 C54.5731642,111.196466 54.7890029,107.895884 54.8279364,103.556048 L54.8344294,102.059816 L54.8293784,100.494218 L54.8142252,98.900547 C54.6357537,84.699125 53.2748854,67.2120085 50.7310055,46.443384 L50.2781794,42.8013782 L50.4708098,46.5654336 L50.6111039,49.4721452 C51.1835164,61.6655092 51.6041053,74.8847072 51.8729795,89.1301437 L51.9045162,90.8445221 C51.9766033,94.8674323 51.4742778,98.2221055 49.9139609,105.505193 L49.2658447,108.499368 C47.9439237,114.632719 47.3686113,118.285658 47.3359129,121.888596 L47.3370927,190.141853 L47.3469472,190.516436 L47.3587399,190.750265 C47.4303106,191.911991 47.7025114,193.012148 48.6937006,196.288978 L49.7387177,199.712291 C51.2661669,204.785429 51.9552064,208.42758 51.9046413,212.654859 L51.9041767,217.915844 C50.9149538,218.357492 49.9742463,218.888254 49.0922585,219.497926 L49.0922419,212.638039 C49.1388294,208.73519 48.4956929,205.337375 47.0414849,200.509378 L45.726219,196.18849 L45.4479304,195.244168 L45.1920135,194.342056 C44.6067161,192.21939 44.5292132,191.412924 44.5224733,189.973393 L44.5219294,122.216066 C44.5219294,118.364202 45.0801223,114.637501 46.3948664,108.473908 L47.2503365,104.511069 L47.7358089,102.183981 L47.9329207,101.200088 C48.8433433,96.5820623 49.1464042,93.9049063 49.0924676,90.8949116 L49.0155938,86.8597265 L48.9282605,82.7771894 L48.8245462,78.4425917 C48.2327834,55.0271212 47.1984646,34.6171178 45.7221354,17.2146085 L13.8945336,17.2146085 L13.6821363,19.3138431 C11.8653242,37.625195 10.6715941,59.1811871 10.1019079,83.9790395 L10.0378096,86.9092516 L9.96071178,90.8949116 L9.95567821,91.3527261 C9.94615939,94.3275407 10.3705574,97.3306988 11.5394317,103.137789 L11.8225288,104.528925 L12.5006394,107.790586 L12.8909274,109.70134 L13.0950702,110.727279 C14.077251,115.720828 14.486019,118.716282 14.5276677,121.699746 L14.53125,122.216066 L14.5299733,190.056059 L14.5250795,190.397079 C14.4907766,192.003387 14.2883024,193.064082 13.319256,196.308078 L13.0070055,197.342738 L12.1823248,200.025667 C10.6599021,204.952277 9.96486355,208.332746 9.95861019,212.190661 L9.9609375,212.638039 L9.9609375,240.340313 L42.753155,240.340744 C43.1428708,241.325424 43.6193482,242.266306 44.1731591,243.153964 L9.9609375,243.153566 L8.36781836,244.547344 C3.09872387,243.840897 0.122993386,241.711454 0.00372954103,238.109319 L1.84741111e-13,237.882268 L1.84741111e-13,214.901157 C1.84741111e-13,212.910802 0.139783496,211.283525 0.439009345,209.524522 L0.551136881,208.904151 L1.52653792,204.233787 C1.7153293,203.305139 1.89508709,202.395238 2.02807747,201.666642 L2.12899788,201.094697 L2.29007711,200.105167 L2.45221945,199.030361 L2.61024273,197.894689 C3.5374813,190.947834 4.08735414,181.575718 4.19797707,167.916869 L4.21227929,165.613475 L4.21875,162.597975 L4.21611286,160.183406 L4.20410341,157.04633 C4.12820671,143.276095 3.75718759,134.103556 3.0873793,126.229827 L2.97496252,124.950866 L2.78007765,122.909078 L2.28438652,118.171278 L1.98610925,115.2413 L1.8767885,114.0257 L1.7742926,112.762924 C1.53483146,109.626771 1.42019133,106.606065 1.40745045,102.790262 L1.40742443,101.335083 C1.48109269,78.5117043 5.0204672,46.9043261 12.0223519,6.49285253 L12.6819472,2.7180696 L13.1467993,0.0944177231 L15.8955129,5.68434189e-14 L19.49625,14.4028125 L21.5625,14.4028125 L21.5625,0.341065723 L25.3125,0.341065723 L25.3125,14.4028125 L28.125,14.4028125 L28.125,0.341065723 L31.875,0.341065723 L31.875,14.4028125 L34.6875,14.4028125 L34.6875,0.341065723 L38.4375,0.341065723 L38.4375,14.4028125 L40.5028125,14.4028125 L44.1044871,5.68434189e-14 Z M8.83166452,45.3140897 L8.7144974,46.1844945 C5.76961484,68.2442011 4.27178258,86.6103906 4.22013346,101.27761 L4.22004217,102.812853 C4.23554059,107.253598 4.39117663,110.582494 4.72579716,114.318967 L4.78671372,114.982885 L4.91249401,116.270646 L5.65849229,123.44048 L5.78115246,124.754076 C6.51285654,132.840745 6.92139617,142.126143 7.01191282,156.253945 L7.02666458,159.430421 L7.03125,162.597975 L7.02450575,165.679369 L7.01007857,167.973656 C6.88725827,183.011461 6.2328916,192.941025 5.12108484,200.202286 L5.06684718,200.5521 L4.90225212,201.562903 L4.74422016,202.445812 L4.56818994,203.365468 C4.37934161,204.331728 4.15756567,205.414002 3.95260266,206.398131 L3.3144122,209.427914 L3.21251021,209.991277 C2.9660313,211.438819 2.83920616,212.775547 2.81630592,214.362434 L2.8125,214.901157 L2.8125,237.882268 C2.8125,239.528717 4.003812,240.705438 6.71534729,241.383401 L6.99158041,241.449533 L7.1484375,241.483878 L7.14853809,212.654859 C7.10002915,208.59947 7.72790532,205.130669 9.13462171,200.385393 L9.31452513,199.785451 L10.5538946,195.7367 L10.8131301,194.861529 C11.474431,192.595565 11.6592494,191.645726 11.7050785,190.525938 L11.7179199,189.95216 L11.71875,122.216066 L11.7144657,121.68158 C11.6684826,118.826367 11.2478291,115.855378 10.2347265,110.762092 L9.93399077,109.271992 L8.88445319,104.199148 L8.41866911,101.854547 L8.23360168,100.883012 C7.43766048,96.6358144 7.13486367,94.0302311 7.14314228,91.36602 L7.14866322,90.8445221 L7.18027426,89.1379535 L7.25206913,85.6195394 L7.33202766,82.1433299 C7.61216288,70.6263042 8.02836899,59.8126606 8.58074329,49.702118 L8.6646207,48.1908098 L8.83166452,45.3140897 Z M14.9549807,7.83462998 C14.6909348,9.97230467 14.4368535,12.1618966 14.1927389,14.4034002 L16.5965625,14.4028125 L14.9549807,7.83462998 Z M44.9087151,8.37726939 L43.4025,14.4028125 L45.4774256,14.4029142 C45.3400347,12.8639272 45.1990537,11.3493714 45.0544827,9.85924826 L44.9087151,8.37726939 Z" id="形状结合" fill-opacity="0.5" fill="#999999" fill-rule="nonzero"></path>
            <path d="M33.28125,92.6535657 L25.78125,92.6535657 C23.4340398,92.6535657 21.53125,94.5563555 21.53125,96.9035657 L21.53125,104.403566 C21.53125,106.750776 23.4340398,108.653566 25.78125,108.653566 L33.28125,108.653566 C35.6284602,108.653566 37.53125,106.750776 37.53125,104.403566 L37.53125,96.9035657 C37.53125,94.5563555 35.6284602,92.6535657 33.28125,92.6535657 Z M25.78125,93.6535657 L33.28125,93.6535657 C35.0761754,93.6535657 36.53125,95.1086403 36.53125,96.9035657 L36.53125,104.403566 C36.53125,106.198491 35.0761754,107.653566 33.28125,107.653566 L25.78125,107.653566 C23.9863246,107.653566 22.53125,106.198491 22.53125,104.403566 L22.53125,96.9035657 C22.53125,95.1086403 23.9863246,93.6535657 25.78125,93.6535657 Z" id="矩形备份-9" fill-opacity="0.7" fill="#999999" fill-rule="nonzero"></path>
            <path d="M22.1325,89.7060657 C22.42125,89.7060657 22.66875,89.6235657 22.875,89.4585657 C23.09625,89.2823157 23.235,89.0385657 23.295,88.7235657 L22.8675,88.7235657 C22.815,88.9260657 22.725,89.0798157 22.5975,89.1810657 C22.4775,89.2710657 22.32,89.3198157 22.12875,89.3198157 C21.83625,89.3198157 21.61875,89.2260657 21.48,89.0460657 C21.3525,88.8773157 21.28875,88.6335657 21.28875,88.3185657 C21.28875,88.0110657 21.3525,87.7710657 21.48375,87.5985657 C21.62625,87.4035657 21.83625,87.3098157 22.1175,87.3098157 C22.305,87.3098157 22.45875,87.3473157 22.57875,87.4298157 C22.7025,87.5123157 22.785,87.6398157 22.83,87.8160657 L23.2575,87.8160657 C23.21625,87.5460657 23.1,87.3285657 22.905,87.1710657 C22.7025,87.0060657 22.44,86.9235657 22.125,86.9235657 C21.6975,86.9235657 21.37125,87.0623157 21.14625,87.3473157 C20.9475,87.5948157 20.85,87.9210657 20.85,88.3185657 C20.85,88.7235657 20.94375,89.0460657 21.135,89.2860657 C21.3525,89.5635657 21.68625,89.7060657 22.1325,89.7060657 Z M24.89625,89.7060657 C25.305,89.7060657 25.6275,89.5748157 25.86375,89.3123157 C26.08875,89.0610657 26.20125,88.7310657 26.20125,88.3185657 C26.20125,87.9060657 26.08875,87.5723157 25.86375,87.3210657 C25.6275,87.0548157 25.305,86.9235657 24.89625,86.9235657 C24.48375,86.9235657 24.16125,87.0548157 23.92875,87.3248157 C23.70375,87.5798157 23.595,87.9098157 23.595,88.3185657 C23.595,88.7235657 23.70375,89.0535657 23.92875,89.3085657 C24.16125,89.5710657 24.48375,89.7060657 24.89625,89.7060657 Z M24.89625,89.3198157 C24.61875,89.3198157 24.40125,89.2260657 24.25125,89.0423157 C24.105,88.8623157 24.03375,88.6223157 24.03375,88.3185657 C24.03375,88.0110657 24.105,87.7710657 24.25125,87.5910657 C24.405,87.4035657 24.61875,87.3098157 24.89625,87.3098157 C25.17375,87.3098157 25.3875,87.3960657 25.5375,87.5760657 C25.68375,87.7560657 25.75875,88.0035657 25.75875,88.3185657 C25.75875,88.6335657 25.68375,88.8773157 25.5375,89.0535657 C25.3875,89.2298157 25.17375,89.3198157 24.89625,89.3198157 Z M27.0525,89.6535657 L27.0525,87.6960657 L27.0675,87.6960657 L28.40625,89.6535657 L28.83375,89.6535657 L28.83375,86.9760657 L28.39125,86.9760657 L28.39125,88.9073157 L28.37625,88.9073157 L27.0525,86.9760657 L26.61375,86.9760657 L26.61375,89.6535657 L27.0525,89.6535657 Z M29.7975,89.6535657 L29.7975,87.6960657 L29.8125,87.6960657 L31.15125,89.6535657 L31.57875,89.6535657 L31.57875,86.9760657 L31.13625,86.9760657 L31.13625,88.9073157 L31.12125,88.9073157 L29.7975,86.9760657 L29.35875,86.9760657 L29.35875,89.6535657 L29.7975,89.6535657 Z M34.09875,89.6535657 L34.09875,89.2785657 L32.5425,89.2785657 L32.5425,88.4685657 L33.945,88.4685657 L33.945,88.0935657 L32.5425,88.0935657 L32.5425,87.3510657 L34.035,87.3510657 L34.035,86.9760657 L32.10375,86.9760657 L32.10375,89.6535657 L34.09875,89.6535657 Z M35.68125,89.7060657 C35.97,89.7060657 36.2175,89.6235657 36.42375,89.4585657 C36.645,89.2823157 36.78375,89.0385657 36.84375,88.7235657 L36.41625,88.7235657 C36.36375,88.9260657 36.27375,89.0798157 36.14625,89.1810657 C36.02625,89.2710657 35.86875,89.3198157 35.6775,89.3198157 C35.385,89.3198157 35.1675,89.2260657 35.02875,89.0460657 C34.90125,88.8773157 34.8375,88.6335657 34.8375,88.3185657 C34.8375,88.0110657 34.90125,87.7710657 35.0325,87.5985657 C35.175,87.4035657 35.385,87.3098157 35.66625,87.3098157 C35.85375,87.3098157 36.0075,87.3473157 36.1275,87.4298157 C36.25125,87.5123157 36.33375,87.6398157 36.37875,87.8160657 L36.80625,87.8160657 C36.765,87.5460657 36.64875,87.3285657 36.45375,87.1710657 C36.25125,87.0060657 35.98875,86.9235657 35.67375,86.9235657 C35.24625,86.9235657 34.92,87.0623157 34.695,87.3473157 C34.49625,87.5948157 34.39875,87.9210657 34.39875,88.3185657 C34.39875,88.7235657 34.4925,89.0460657 34.68375,89.2860657 C34.90125,89.5635657 35.235,89.7060657 35.68125,89.7060657 Z M38.36625,89.6535657 L38.36625,87.3510657 L39.24375,87.3510657 L39.24375,86.9760657 L37.05,86.9760657 L37.05,87.3510657 L37.9275,87.3510657 L37.9275,89.6535657 L38.36625,89.6535657 Z" id="CONNECT" fill="#999999" fill-rule="nonzero"></path>
            <path d="M26.82375,198.403566 L27.34875,196.389816 L27.36375,196.389816 L27.885,198.403566 L28.35,198.403566 L29.1225,195.726066 L28.6275,195.726066 L28.125,197.762316 L28.11,197.762316 L27.58125,195.726066 L27.1275,195.726066 L26.59875,197.762316 L26.58375,197.762316 L26.08125,195.726066 L25.58625,195.726066 L26.355,198.403566 L26.82375,198.403566 Z M29.61,198.403566 L29.85375,197.732316 L30.975,197.732316 L31.21875,198.403566 L31.6875,198.403566 L30.66375,195.726066 L30.165,195.726066 L29.14125,198.403566 L29.61,198.403566 Z M30.84375,197.372316 L29.985,197.372316 L30.40875,196.198566 L30.42375,196.198566 L30.84375,197.372316 Z M32.38875,198.403566 L32.38875,196.446066 L32.40375,196.446066 L33.7425,198.403566 L34.17,198.403566 L34.17,195.726066 L33.7275,195.726066 L33.7275,197.657316 L33.7125,197.657316 L32.38875,195.726066 L31.95,195.726066 L31.95,198.403566 L32.38875,198.403566 Z" id="WAN" fill="#999999" fill-rule="nonzero"></path>
            <path d="M28.389375,119.653566 L28.389375,119.278566 L26.941875,119.278566 L26.941875,116.976066 L26.506875,116.976066 L26.506875,119.653566 L28.389375,119.653566 Z M28.933125,119.653566 L29.176875,118.982316 L30.298125,118.982316 L30.541875,119.653566 L31.010625,119.653566 L29.986875,116.976066 L29.488125,116.976066 L28.464375,119.653566 L28.933125,119.653566 Z M30.166875,118.622316 L29.308125,118.622316 L29.731875,117.448566 L29.746875,117.448566 L30.166875,118.622316 Z M31.711875,119.653566 L31.711875,117.696066 L31.726875,117.696066 L33.065625,119.653566 L33.493125,119.653566 L33.493125,116.976066 L33.050625,116.976066 L33.050625,118.907316 L33.035625,118.907316 L31.711875,116.976066 L31.273125,116.976066 L31.273125,119.653566 L31.711875,119.653566 Z" id="LAN" fill="#999999" fill-rule="nonzero"></path>
            <path d="M24.19125,223.716066 L24.19125,222.688566 L24.855,222.688566 C25.5075,222.688566 25.83375,222.411066 25.83375,221.859816 C25.83375,221.312316 25.5075,221.038566 24.8625,221.038566 L23.7525,221.038566 L23.7525,223.716066 L24.19125,223.716066 Z M24.82875,222.313566 L24.19125,222.313566 L24.19125,221.413566 L24.82875,221.413566 C25.02,221.413566 25.1625,221.447316 25.2525,221.518566 C25.3425,221.586066 25.39125,221.698566 25.39125,221.859816 C25.39125,222.021066 25.34625,222.137316 25.25625,222.208566 C25.16625,222.276066 25.02375,222.313566 24.82875,222.313566 Z M27.3975,223.768566 C27.80625,223.768566 28.12875,223.637316 28.365,223.374816 C28.59,223.123566 28.7025,222.793566 28.7025,222.381066 C28.7025,221.968566 28.59,221.634816 28.365,221.383566 C28.12875,221.117316 27.80625,220.986066 27.3975,220.986066 C26.985,220.986066 26.6625,221.117316 26.43,221.387316 C26.205,221.642316 26.09625,221.972316 26.09625,222.381066 C26.09625,222.786066 26.205,223.116066 26.43,223.371066 C26.6625,223.633566 26.985,223.768566 27.3975,223.768566 Z M27.3975,223.382316 C27.12,223.382316 26.9025,223.288566 26.7525,223.104816 C26.60625,222.924816 26.535,222.684816 26.535,222.381066 C26.535,222.073566 26.60625,221.833566 26.7525,221.653566 C26.90625,221.466066 27.12,221.372316 27.3975,221.372316 C27.675,221.372316 27.88875,221.458566 28.03875,221.638566 C28.185,221.818566 28.26,222.066066 28.26,222.381066 C28.26,222.696066 28.185,222.939816 28.03875,223.116066 C27.88875,223.292316 27.675,223.382316 27.3975,223.382316 Z M30.10875,223.716066 L30.63375,221.702316 L30.64875,221.702316 L31.17,223.716066 L31.635,223.716066 L32.4075,221.038566 L31.9125,221.038566 L31.41,223.074816 L31.395,223.074816 L30.86625,221.038566 L30.4125,221.038566 L29.88375,223.074816 L29.86875,223.074816 L29.36625,221.038566 L28.87125,221.038566 L29.64,223.716066 L30.10875,223.716066 Z M34.68375,223.716066 L34.68375,223.341066 L33.1275,223.341066 L33.1275,222.531066 L34.53,222.531066 L34.53,222.156066 L33.1275,222.156066 L33.1275,221.413566 L34.62,221.413566 L34.62,221.038566 L32.68875,221.038566 L32.68875,223.716066 L34.68375,223.716066 Z M35.535,223.716066 L35.535,222.624816 L36.22875,222.624816 C36.37875,222.624816 36.495,222.654816 36.57375,222.722316 C36.64875,222.786066 36.69375,222.891066 36.70875,223.037316 L36.7425,223.367316 C36.7575,223.517316 36.795,223.633566 36.85875,223.716066 L37.335,223.716066 C37.245,223.618566 37.18875,223.487316 37.17375,223.322316 L37.12875,222.891066 C37.09875,222.628566 36.9675,222.474816 36.735,222.422316 L36.735,222.414816 C36.8775,222.377316 36.99375,222.298566 37.07625,222.178566 C37.15125,222.069816 37.18875,221.946066 37.18875,221.807316 C37.18875,221.552316 37.1025,221.357316 36.9375,221.222316 C36.78,221.098566 36.5625,221.038566 36.28875,221.038566 L35.09625,221.038566 L35.09625,223.716066 L35.535,223.716066 Z M36.22875,222.249816 L35.535,222.249816 L35.535,221.413566 L36.22875,221.413566 C36.40875,221.413566 36.54,221.443566 36.6225,221.511066 C36.705,221.574816 36.74625,221.679816 36.74625,221.826066 C36.74625,221.961066 36.705,222.066066 36.6225,222.141066 C36.5325,222.212316 36.40125,222.249816 36.22875,222.249816 Z" id="POWER" fill="#999999" fill-rule="nonzero"></path>
            <path d="M24.144375,71.8410657 L24.144375,70.7498157 L24.838125,70.7498157 C24.988125,70.7498157 25.104375,70.7798157 25.183125,70.8473157 C25.258125,70.9110657 25.303125,71.0160657 25.318125,71.1623157 L25.351875,71.4923157 C25.366875,71.6423157 25.404375,71.7585657 25.468125,71.8410657 L25.944375,71.8410657 C25.854375,71.7435657 25.798125,71.6123157 25.783125,71.4473157 L25.738125,71.0160657 C25.708125,70.7535657 25.576875,70.5998157 25.344375,70.5473157 L25.344375,70.5398157 C25.486875,70.5023157 25.603125,70.4235657 25.685625,70.3035657 C25.760625,70.1948157 25.798125,70.0710657 25.798125,69.9323157 C25.798125,69.6773157 25.711875,69.4823157 25.546875,69.3473157 C25.389375,69.2235657 25.171875,69.1635657 24.898125,69.1635657 L23.705625,69.1635657 L23.705625,71.8410657 L24.144375,71.8410657 Z M24.838125,70.3748157 L24.144375,70.3748157 L24.144375,69.5385657 L24.838125,69.5385657 C25.018125,69.5385657 25.149375,69.5685657 25.231875,69.6360657 C25.314375,69.6998157 25.355625,69.8048157 25.355625,69.9510657 C25.355625,70.0860657 25.314375,70.1910657 25.231875,70.2660657 C25.141875,70.3373157 25.010625,70.3748157 24.838125,70.3748157 Z M28.314375,71.8410657 L28.314375,71.4660657 L26.758125,71.4660657 L26.758125,70.6560657 L28.160625,70.6560657 L28.160625,70.2810657 L26.758125,70.2810657 L26.758125,69.5385657 L28.250625,69.5385657 L28.250625,69.1635657 L26.319375,69.1635657 L26.319375,71.8410657 L28.314375,71.8410657 Z M29.716875,71.8935657 C30.058125,71.8935657 30.324375,71.8223157 30.511875,71.6873157 C30.699375,71.5485657 30.793125,71.3573157 30.793125,71.1173157 C30.793125,70.8698157 30.676875,70.6785657 30.444375,70.5398157 C30.339375,70.4798157 30.106875,70.3898157 29.743125,70.2773157 C29.495625,70.1985657 29.341875,70.1423157 29.285625,70.1123157 C29.158125,70.0448157 29.098125,69.9510657 29.098125,69.8385657 C29.098125,69.7110657 29.150625,69.6173157 29.263125,69.5610657 C29.353125,69.5123157 29.480625,69.4898157 29.649375,69.4898157 C29.844375,69.4898157 29.994375,69.5235657 30.091875,69.5985657 C30.189375,69.6698157 30.260625,69.7898157 30.298125,69.9548157 L30.733125,69.9548157 C30.706875,69.6623157 30.598125,69.4448157 30.410625,69.3060657 C30.234375,69.1748157 29.986875,69.1110657 29.671875,69.1110657 C29.383125,69.1110657 29.146875,69.1748157 28.959375,69.3060657 C28.756875,69.4410657 28.659375,69.6285657 28.659375,69.8648157 C28.659375,70.1010657 28.760625,70.2810657 28.966875,70.4048157 C29.045625,70.4498157 29.251875,70.5248157 29.581875,70.6298157 C29.878125,70.7198157 30.050625,70.7798157 30.103125,70.8060657 C30.268125,70.8885657 30.354375,71.0010657 30.354375,71.1435657 C30.354375,71.2560657 30.294375,71.3423157 30.181875,71.4098157 C30.069375,71.4735657 29.911875,71.5073157 29.716875,71.5073157 C29.495625,71.5073157 29.334375,71.4660657 29.229375,71.3910657 C29.113125,71.3048157 29.041875,71.1585657 29.011875,70.9560657 L28.576875,70.9560657 C28.595625,71.2973157 28.719375,71.5448157 28.944375,71.7023157 C29.128125,71.8298157 29.386875,71.8935657 29.716875,71.8935657 Z M33.163125,71.8410657 L33.163125,71.4660657 L31.606875,71.4660657 L31.606875,70.6560657 L33.009375,70.6560657 L33.009375,70.2810657 L31.606875,70.2810657 L31.606875,69.5385657 L33.099375,69.5385657 L33.099375,69.1635657 L31.168125,69.1635657 L31.168125,71.8410657 L33.163125,71.8410657 Z M34.685625,71.8410657 L34.685625,69.5385657 L35.563125,69.5385657 L35.563125,69.1635657 L33.369375,69.1635657 L33.369375,69.5385657 L34.246875,69.5385657 L34.246875,71.8410657 L34.685625,71.8410657 Z" id="RESET" fill="#999999" fill-rule="nonzero"></path>
            <circle id="椭圆形备份-2" fill-opacity="0.5" fill="#999999" cx="30" cy="75.8098157" r="1.40625"></circle>
            <circle id="椭圆形备份-3" fill-opacity="0.5" fill="#999999" cx="27.65625" cy="213.153566" r="4.6875"></circle>
            <path d="M30,124.091066 L30.00025,126.059066 L33.0133929,126.059816 L33.01425,129.997066 L35.0223214,129.997316 L35.02325,130.981066 L37.03125,130.981691 L37.03125,136.887941 L35.02325,136.887066 L35.0223214,137.872316 L33.01425,137.872066 L33.0133929,141.809816 L30.00025,141.809066 L30,143.778566 L24.9776786,143.778566 L24.97825,141.809066 L22.96875,141.809816 L22.96875,126.059816 L24.97825,126.059066 L24.9776786,124.091066 L30,124.091066 Z M29.53125,138.537088 L24.84375,138.537088 L24.84375,139.559816 L29.53125,139.559816 L29.53125,138.537088 Z M29.53125,136.491634 L24.84375,136.491634 L24.84375,137.514361 L29.53125,137.514361 L29.53125,136.491634 Z M29.53125,134.446179 L24.84375,134.446179 L24.84375,135.468907 L29.53125,135.468907 L29.53125,134.446179 Z M29.53125,132.400725 L24.84375,132.400725 L24.84375,133.423452 L29.53125,133.423452 L29.53125,132.400725 Z M29.53125,130.35527 L24.84375,130.35527 L24.84375,131.377998 L29.53125,131.377998 L29.53125,130.35527 Z M29.53125,128.309816 L24.84375,128.309816 L24.84375,129.332543 L29.53125,129.332543 L29.53125,128.309816 Z" id="形状结合" fill-opacity="0.5" fill="#999999"></path>
            <path d="M30,147.528566 L30.00025,149.496566 L33.0133929,149.497316 L33.01425,153.434566 L35.0223214,153.434816 L35.02325,154.418566 L37.03125,154.419191 L37.03125,160.325441 L35.02325,160.324566 L35.0223214,161.309816 L33.01425,161.309566 L33.0133929,165.247316 L30.00025,165.246566 L30,167.216066 L24.9776786,167.216066 L24.97825,165.246566 L22.96875,165.247316 L22.96875,149.497316 L24.97825,149.496566 L24.9776786,147.528566 L30,147.528566 Z M29.53125,161.974588 L24.84375,161.974588 L24.84375,162.997316 L29.53125,162.997316 L29.53125,161.974588 Z M29.53125,159.929134 L24.84375,159.929134 L24.84375,160.951861 L29.53125,160.951861 L29.53125,159.929134 Z M29.53125,157.883679 L24.84375,157.883679 L24.84375,158.906407 L29.53125,158.906407 L29.53125,157.883679 Z M29.53125,155.838225 L24.84375,155.838225 L24.84375,156.860952 L29.53125,156.860952 L29.53125,155.838225 Z M29.53125,153.79277 L24.84375,153.79277 L24.84375,154.815498 L29.53125,154.815498 L29.53125,153.79277 Z M29.53125,151.747316 L24.84375,151.747316 L24.84375,152.770043 L29.53125,152.770043 L29.53125,151.747316 Z" id="形状结合" fill-opacity="0.5" fill="#999999"></path>
            <path d="M30,170.966066 L30.00025,172.934066 L33.0133929,172.934816 L33.01425,176.872066 L35.0223214,176.872316 L35.02325,177.856066 L37.03125,177.856691 L37.03125,183.762941 L35.02325,183.762066 L35.0223214,184.747316 L33.01425,184.747066 L33.0133929,188.684816 L30.00025,188.684066 L30,190.653566 L24.9776786,190.653566 L24.97825,188.684066 L22.96875,188.684816 L22.96875,172.934816 L24.97825,172.934066 L24.9776786,170.966066 L30,170.966066 Z M29.53125,185.412088 L24.84375,185.412088 L24.84375,186.434816 L29.53125,186.434816 L29.53125,185.412088 Z M29.53125,183.366634 L24.84375,183.366634 L24.84375,184.389361 L29.53125,184.389361 L29.53125,183.366634 Z M29.53125,181.321179 L24.84375,181.321179 L24.84375,182.343907 L29.53125,182.343907 L29.53125,181.321179 Z M29.53125,179.275725 L24.84375,179.275725 L24.84375,180.298452 L29.53125,180.298452 L29.53125,179.275725 Z M29.53125,177.23027 L24.84375,177.23027 L24.84375,178.252998 L29.53125,178.252998 L29.53125,177.23027 Z M29.53125,175.184816 L24.84375,175.184816 L24.84375,176.207543 L29.53125,176.207543 L29.53125,175.184816 Z" id="形状结合" fill-opacity="0.5" fill="#FF5B5B"></path>
            <polygon id="直线-15" fill="#999999" fill-rule="nonzero" points="21.5625 170.497316 21.5625 171.434816 19.687 171.434 19.687 196.278 23.90625 196.278566 23.90625 197.216066 18.75 197.216066 18.75 170.497316"></polygon>
            <polygon id="直线-15备份" fill="#999999" fill-rule="nonzero" points="40.3125 170.497316 40.3125 197.216066 35.625 197.216066 35.625 196.278566 39.375 196.278 39.375 171.434 37.5 171.434816 37.5 170.497316"></polygon>
            <polygon id="直线-15" fill="#999999" fill-rule="nonzero" transform="translate(21.328125, 143.309816) scale(1, -1) translate(-21.328125, -143.309816) " points="21.5625 117.997316 21.5625 118.934816 19.687 118.934 19.687 167.684 23.90625 167.684816 23.90625 168.622316 18.75 168.622316 18.75 117.997316"></polygon>
            <polygon id="直线-15备份" fill="#999999" fill-rule="nonzero" transform="translate(37.968750, 143.309816) scale(1, -1) translate(-37.968750, -143.309816) " points="40.3125 117.997316 40.3125 168.622316 35.625 168.622316 35.625 167.684816 39.375 167.684 39.375 118.934 37.5 118.934816 37.5 117.997316"></polygon>
        </g>
        <path d="M281.979845,260.000269 C281.927444,258.607498 281.75613,257.265117 281.488075,256.001344 L285.003023,256.001344 C285.525025,257.246977 285.855559,258.593389 285.962378,260.000269 L281.979845,260.000269 Z M281.488075,266.002687 C281.75613,264.736899 281.927444,263.394518 281.979845,261.999731 L285.960363,261.999731 C285.855559,263.408627 285.525025,264.753023 285.003023,266.002687 L281.488075,266.002687 Z M280.966073,268.00215 L283.957004,268.00215 C282.653006,270.035877 280.800806,271.680597 278.61001,272.730718 C279.577427,271.444773 280.381592,269.83835 280.966073,268.00215 Z M274.000672,268.00215 L278.900235,268.00215 C277.825999,271.116232 276.054417,273.3233 274.000672,273.873555 L274.000672,268.00215 Z M274.000672,261.999731 L279.980517,261.999731 C279.922069,263.408627 279.744709,264.753023 279.460531,266.002687 L274.000672,266.002687 L274.000672,261.999731 Z M274.000672,256.001344 L279.460531,256.001344 C279.744709,257.246977 279.918038,258.593389 279.980517,260.000269 L274.000672,260.000269 L274.000672,256.001344 Z M274.000672,248.12846 C276.054417,248.6767 277.825999,250.885783 278.900235,253.99785 L274.000672,253.99785 L274.000672,248.12846 Z M280.966073,253.99785 C280.381592,252.163666 279.581458,250.553212 278.61001,249.269282 C280.800806,250.319403 282.653006,251.966138 283.957004,253.99785 L280.966073,253.99785 Z M271.999328,253.99785 L267.099765,253.99785 C268.174001,250.885783 269.943567,248.6767 271.999328,248.12846 L271.999328,253.99785 Z M271.999328,260.000269 L266.019483,260.000269 C266.077931,258.593389 266.255291,257.246977 266.537454,256.001344 L271.999328,256.001344 L271.999328,260.000269 Z M271.999328,266.002687 L266.537454,266.002687 C266.255291,264.753023 266.077931,263.408627 266.019483,261.999731 L271.999328,261.999731 L271.999328,266.002687 Z M271.999328,273.873555 C269.943567,273.3233 268.174001,271.116232 267.099765,268.00215 L271.999328,268.00215 L271.999328,273.873555 Z M265.035942,268.00215 C265.620423,269.83835 266.422573,271.448804 267.38999,272.730718 C265.197178,271.680597 263.344978,270.035877 262.040981,268.00215 L265.035942,268.00215 Z M264.020155,261.999731 C264.074572,263.394518 264.24387,264.736899 264.511925,266.002687 L260.994961,266.002687 C260.47699,264.753023 260.144441,263.408627 260.037622,261.999731 L264.020155,261.999731 Z M264.511925,256.001344 C264.24387,257.265117 264.074572,258.607498 264.020155,260.000269 L260.037622,260.000269 C260.144441,258.593389 260.47699,257.246977 260.994961,256.001344 L264.511925,256.001344 Z M265.037958,253.99785 L262.040981,253.99785 C263.344978,251.966138 265.197178,250.319403 267.38999,249.269282 C266.424589,250.553212 265.622439,252.163666 265.037958,253.99785 Z M287.963722,260.000269 C287.471952,252.510347 281.488075,246.524053 274.000672,246.032249 L274.000672,246 L272.998992,246 L271.999328,246 L271.999328,246.032249 C264.511925,246.524053 258.526033,252.510347 258.034263,260.000269 L258,260.000269 L258,261 L258,261.999731 L258.034263,261.999731 C258.526033,269.489653 264.511925,275.473932 271.999328,275.965735 L271.999328,276 L272.998992,276 L274.000672,276 L274.000672,275.965735 C281.488075,275.473932 287.471952,269.489653 287.963722,261.999731 L288,261.999731 L288,261 L288,260.000269 L287.963722,260.000269 Z" id="Fill-90" fill="#009FD1"></path>
        <path d="M191.993866,193.00606 L192.00606,192.006134 L190.006209,191.981746 L189.994014,192.981672 L191.993866,193.00606 Z M186.994237,192.945089 L187.006432,191.945163 L185.00658,191.920775 L184.994386,192.9207 L186.994237,192.945089 Z M181.994609,192.884118 L182.006803,191.884192 L180.006952,191.859804 L179.994758,192.859729 L181.994609,192.884118 Z M176.994981,192.823147 L177.007175,191.823221 L175.007324,191.798833 L174.99513,192.798758 L176.994981,192.823147 Z M171.995353,192.762176 L172.007547,191.76225 L170.007696,191.737862 L169.995501,192.737787 L171.995353,192.762176 Z M166.995725,192.701205 L167.007919,191.701279 L165.008067,191.67689 L164.995873,192.676816 L166.995725,192.701205 Z M161.996096,192.640233 L162.00829,191.640308 L160.008439,191.615919 L159.996245,192.615845 L161.996096,192.640233 Z M156.996468,192.579262 L157.008662,191.579337 L155.008811,191.554948 L154.996617,192.554874 L156.996468,192.579262 Z M151.99684,192.518291 L152.009034,191.518366 L150.009183,191.493977 L149.996989,192.493903 L151.99684,192.518291 Z M146.997212,192.45732 L147.009406,191.457395 L145.009554,191.433006 L144.99736,192.432932 L146.997212,192.45732 Z M141.997583,192.396349 L142.009778,191.396424 L140.009926,191.372035 L139.997732,192.371961 L141.997583,192.396349 Z M136.997955,192.335378 L137.010149,191.335452 L135.010298,191.311064 L134.998104,192.31099 L136.997955,192.335378 Z M131.998327,192.274407 L132.010521,191.274481 L130.01067,191.250093 L129.998476,192.250019 L131.998327,192.274407 Z M126.998699,192.213436 L127.010893,191.21351 L125.011042,191.189122 L124.998847,192.189048 L126.998699,192.213436 Z M121.99907,192.152465 L122.011265,191.152539 L120.011413,191.128151 L119.999219,192.128076 L121.99907,192.152465 Z M116.999442,192.091494 L117.011636,191.091568 L115.011785,191.06718 L114.999591,192.067105 L116.999442,192.091494 Z M111.999814,192.030523 L112.012008,191.030597 L110.012157,191.006209 L109.999963,192.006134 L111.999814,192.030523 Z" id="直线-22备份-3" fill="#979797" fill-rule="nonzero"></path>
        <g id="编组" transform="translate(107.000000, 60.000000)">
            <path d="M43,0 C19.2517558,0 0,19.2517558 0,43 L0.00481795141,43.6485819 C0.316025996,64.5851189 15.6694899,82.1592741 36.1063478,85.4501732 L36.239,85.47 L40.6617499,95.7879319 L40.7346527,95.9412064 C41.5123323,97.4219731 43.7163482,97.3437783 44.3568708,95.7429877 L48.389,85.665 L48.4795032,85.6540389 C69.7776374,82.9470037 86,64.7517904 86,43 C86,19.2517558 66.7482442,0 43,0 Z M43,2 C65.6436747,2 84,20.3563253 84,43 C84,64.3017642 67.7548744,81.809276 46.9776321,83.8095264 L42.5,95 L37.63601,83.65228 C17.5269977,81.0247001 2,63.8256124 2,43 C2,20.3563253 20.3563253,2 43,2 Z" id="形状结合" fill-opacity="0.5" fill="#999999" fill-rule="nonzero"></path>
            <path d="M36.4044611,2.52770862 L36.351361,4.9130376 L36.3348408,5.56381198 L36.3174025,6.21709828 L36.2384693,8.85536356 L36.1934948,10.1895688 C36.1574119,11.2218873 36.0286779,12.3259552 35.8130083,13.5546528 L35.7152725,14.0890221 L35.5998451,14.6757495 L35.4730003,15.2801436 L35.3306751,15.922535 L35.1688069,16.623254 L34.7487076,18.3807168 L34.3753585,19.966962 L34.1507229,20.9752227 L33.9930892,21.7640106 L33.9261364,22.1575309 L33.8770273,22.5074796 L33.8530385,22.7231351 L33.822924,23.1298204 L33.8119774,23.5299225 L33.8115818,67.3131285 C33.8115818,67.3262655 33.81868,67.3377421 33.8292454,67.3439336 L33.8472401,67.3488037 L35.1284059,67.2716761 L38.156335,67.0762828 L40.3985934,66.9173422 L42.4806712,66.7560909 L44.4024715,66.5925503 L45.7385813,66.4684055 L46.9844395,66.3429941 L48.1400052,66.2163253 L49.2052375,66.0884081 L50.1800956,65.9592516 L50.7797729,65.8724632 L51.7566608,65.7193676 C52.2157528,65.6457621 52.6701534,65.5709555 53.1195901,65.4950301 L53.7899884,65.3803132 L55.1076302,65.1460916 L56.3930369,64.9058976 L57.6445735,64.6602247 L58.8606052,64.4095664 C59.6091891,64.2514499 60.3360113,64.0907015 61.0392759,63.9278635 L61.7346213,63.7643489 L62.813511,63.5001288 L63.8495388,63.2331442 C64.6607804,63.0185825 65.429305,62.8018408 66.151346,62.5840563 L66.6841023,62.4205402 L67.4177515,62.1851716 L68.1043399,61.9523347 L68.2684434,61.8946113 L68.4294789,61.8371063 L69.042432,61.6095109 C69.7280399,61.3464331 70.3092788,61.092455 70.774548,60.8530798 C71.1370046,60.6666004 71.4171752,60.4947022 71.6066197,60.347594 L71.6937423,60.276153 L71.7210799,60.2528802 C71.7364467,60.2405003 71.7464126,60.2346635 71.7528718,60.2370032 L71.7601672,60.2468493 L71.7631579,60.27 L71.7470412,57.6288426 L71.7426482,55.0046088 L71.7470547,53.8170288 L71.7662691,51.9444819 L71.7582935,51.5002592 L71.7540331,51.3822349 L71.7488705,51.2613088 L71.7192396,50.7474429 L71.6753427,50.1825744 L71.6173166,49.5630441 L71.5452979,48.8851929 L71.4812261,48.3281013 L71.1370847,45.5156288 L71.0348546,44.609609 L70.9857954,44.0303403 L70.971934,43.658442 L70.9641651,41.170192 L70.9406049,38.5649495 L70.8985571,35.7388612 L70.7410668,27.8250753 L70.6537339,22.7372772 L70.6310384,20.3106322 L70.6309543,18.392605 L70.6417176,17.2206563 L70.6503239,16.6495011 L70.6739812,15.5143491 L70.7109859,14.2117292 L70.749029,13.334673 L70.7793629,12.8449918 C71.3550851,13.3756272 71.9155747,13.9225401 72.4601014,14.4850003 L72.4427495,14.9899121 L72.4127986,16.232442 L72.3918823,17.5926765 L72.3831155,19.5180858 L72.4029611,22.3102949 L72.4571284,25.7975928 L72.6535183,35.7572028 L72.7041812,39.3723288 L72.71663,40.8502165 L72.7250456,43.5063606 L72.7315976,43.7956965 L72.7590336,44.2002745 L72.8189477,44.7866122 L73.1992283,47.9184629 L73.3293212,49.0619734 L73.397377,49.7423597 L73.4507357,50.3667865 L73.4892022,50.9399618 L73.5125816,51.4665931 C73.5180212,51.6349026 73.5206701,51.7962395 73.5207396,51.9513882 L73.5189354,52.1795684 L73.5068766,53.1220929 L73.497975,54.5980546 L73.4979767,56.6414484 L73.5190544,60.3550052 C73.5190544,60.9652256 72.8802029,61.6139352 71.7003226,62.2756677 L71.4727787,62.3998889 L71.1134865,62.5840001 L71.019437,62.6301053 L70.9237113,62.6762377 L70.524192,62.8610011 L70.0984333,63.0460488 L69.646898,63.2312602 L69.5300408,63.2775745 L69.4116088,63.3238896 L68.9222766,63.5091206 L68.4083252,63.694214 L67.8702173,63.8790493 L67.7319701,63.9252037 L67.5922493,63.9713325 L67.0187748,64.1555547 L66.4223011,64.3392176 L65.4854797,64.6133995 L64.8335332,64.7951368 L63.8156726,65.0658654 L63.1111465,65.2449239 L62.0165863,65.5110694 L61.2623738,65.686696 L60.0954536,65.9471288 L59.2944476,66.1185702 L58.0595072,66.3721604 L56.7858377,66.6211028 L55.91598,66.7842815 L54.5812336,67.0245737 L53.2119243,67.2591336 L52.2806212,67.4121213 L50.9557395,67.620027 L50.1465407,67.7347254 L49.2700496,67.848315 L48.3262353,67.9608019 L47.3150667,68.072192 L45.9346156,68.2120018 L44.9010255,68.3090715 L43.2502994,68.4530743 L41.4790982,68.595168 L39.5873481,68.7353668 L37.5749752,68.8736852 L35.4419054,69.0101376 L33.9527687,69.1000763 L33.8472401,69.1031897 C33.0305647,69.1031897 32.3415965,68.5562791 32.1266739,67.8087097 L31.2775254,67.7133448 C31.1810358,67.8241398 31.0389324,67.8941663 30.8804735,67.8941663 C30.6807814,67.8941663 30.5070641,67.7829544 30.417879,67.6190876 L29.3366717,67.4979397 C29.2861129,67.69683 29.1223695,67.8502964 28.9183733,67.8861888 L28.823723,67.8941587 C28.565348,67.8927668 28.3514609,67.7054275 28.30822,67.4596655 L28.3002501,67.3650153 L28.3001458,67.082912 C27.7833983,67.3016264 27.4304027,67.5371149 27.2353393,67.7719529 L27.1719124,67.8564613 C26.7071269,68.5494483 25.6524112,68.2576601 25.5711754,67.4675986 L25.5662786,67.3568202 L26.0982469,25.0607068 L26.0941634,24.550089 L26.0815797,24.0470488 L26.059996,23.5439713 L26.0289124,23.0332416 L25.9878291,22.507245 L25.9362462,21.9583664 L25.8736639,21.3789912 L25.7995824,20.7615043 L25.7135018,20.098291 L25.5033439,18.6042256 L25.2368171,16.7759641 L25.0747598,15.595526 L24.9520264,14.5967684 L24.9040543,14.1492232 L24.8473186,13.5243635 L24.8188547,13.1292561 L24.7888467,12.552497 L24.7724421,11.9752644 L24.7681619,11.5793151 L24.7601362,9.51288342 L24.7539231,6.52756189 L24.752797,6.27423679 C25.3307189,5.98654164 25.9163904,5.71208624 26.5094145,5.45126763 L26.5106993,8.07576569 L26.5239705,11.7585303 L26.5357569,12.3065644 L26.5601432,12.8505298 L26.5989352,13.4115653 L26.653939,14.01081 L26.7269603,14.6694027 L26.8198052,15.4084826 L27.023504,16.8765572 L27.2993335,18.7653917 L27.4561258,19.8931289 L27.544609,20.5765512 L27.6208321,21.2144902 L27.6852884,21.8148652 L27.7384717,22.3855952 L27.7808752,22.9345992 L27.7981889,23.2034287 L27.8253483,23.734692 L27.8353175,23.9991057 L27.8483433,24.5304462 L27.8525635,25.0717372 L27.3421579,65.591 L27.5015168,65.5170228 C27.664913,65.4445827 27.8370613,65.3755015 28.0178982,65.3095895 L28.2956622,65.2130747 L28.3119231,65.2085342 L28.6380034,4.58587655 C28.9869058,4.45537381 29.3380618,4.32948834 29.6913969,4.2082945 L29.3616503,65.664459 C29.3778828,65.6982035 29.3921395,65.7333695 29.4042304,65.7698617 C29.4794703,65.9969464 29.4567733,66.2329184 29.3591438,66.4319755 L29.3569231,66.4405342 L30.3539231,66.5515342 L30.3541578,57.7829126 C30.3541578,57.4922364 30.5897974,57.2565968 30.8804735,57.2565968 C31.1388524,57.2565968 31.3537455,57.4427812 31.3983097,57.6883066 L31.4067893,57.7829126 L31.4059231,66.6685342 L32.0569231,66.7405342 L32.0571958,23.5161935 C32.0578882,23.4394306 32.0590225,23.3642534 32.0607607,23.2899897 L32.0679484,23.0692666 L32.0796838,22.8499914 L32.0967055,22.6281311 L32.1197057,22.3996528 L32.1669292,22.0357042 L32.2079032,21.7730365 L32.315745,21.181468 L32.4220085,20.663958 L32.7099258,19.3800979 L32.8709231,18.7025342 L32.9567279,3.23904841 C33.3063514,3.15101278 33.6577596,3.06746753 34.0108876,2.98847756 L33.9499231,13.9715342 L33.991713,13.7615886 C34.2186081,12.5672476 34.3628941,11.5080692 34.4207078,10.5384738 L34.4401795,10.1282847 L34.463032,9.46266727 L34.4849705,8.79956554 L34.5635848,6.17231612 L34.5974084,4.87378647 L34.6275766,3.58532059 L34.6406773,2.85282029 C35.2241627,2.73195389 35.8121866,2.62348739 36.4044611,2.52770862 Z M59.3437582,5.38703553 L59.3288787,5.73646894 C59.3097614,6.12497911 59.2840599,6.51182409 59.2514919,6.91248343 L59.186442,7.63928464 L58.9107658,10.2991408 L58.8159638,11.3266601 L58.7589377,12.0256034 L58.7068552,12.7404649 L58.638007,13.8515543 L58.5802982,15.0214757 L58.5480191,15.8409274 L58.5088976,17.1395906 L58.4890191,18.0576571 L58.4741059,19.02233 L58.4610524,20.5656775 L58.4585651,21.6647683 L58.4585651,51.8493795 C58.4585651,52.3338399 58.0658324,52.7265725 57.5813721,52.7265725 C57.134178,52.7265725 56.7651423,52.3919364 56.7110137,51.9594128 L56.7041791,51.8493795 L56.7048121,21.1016207 L56.7149205,19.4368276 L56.7285008,18.3988511 L56.7591278,16.9382067 L56.8020562,15.5793373 L56.8375057,14.7222941 L56.9009206,13.4985262 L56.9500211,12.7171658 L57.0339023,11.5853448 L57.1300538,10.4879778 L57.4508391,7.36083138 C57.5402317,6.41419855 57.5918545,5.58905768 57.6097898,4.68257616 C58.1937796,4.90224379 58.7721554,5.13831558 59.3437582,5.38703553 Z M31.8554252,3.53281844 L31.6349766,25.8383065 C31.6324301,26.0966728 31.4441369,26.3097205 31.1981841,26.3518628 L31.1034992,26.3594096 C30.8451329,26.3568632 30.6320852,26.1685699 30.589943,25.9226172 L30.5823961,25.8279323 L30.7986161,3.84615341 C31.1488942,3.7371142 31.5011872,3.63264594 31.8554252,3.53281844 Z" id="形状结合" fill="#999999"></path>
            <path d="M30.9994148,27.544715 C31.2829911,27.5471391 31.516491,27.7560284 31.5584087,28.0274791 L31.5650915,28.1200823 L31.3368787,55.0491937 C31.3342085,55.3642785 31.0766171,55.6175406 30.7615323,55.6148913 C30.477956,55.6124672 30.244456,55.4035779 30.2025384,55.1321272 L30.1958556,55.039524 L30.4240684,28.1104126 C30.4267386,27.7953278 30.68433,27.5420657 30.9994148,27.544715 Z" id="直线-11备份-29" fill="#2A75FF" fill-rule="nonzero"></path>
            <ellipse id="椭圆形" fill="#367DFF" opacity="0.5" filter="url(#filter-1)" cx="30.7631579" cy="41.1578947" rx="8" ry="17.5"></ellipse>
        </g>
        <path d="M35.0029476,126.634804 C35.1972402,114.654496 44.972002,105 56.9985477,105 C69.1489582,105 79,114.850002 79,126.998548 C79,139.149478 69.1494783,149 56.9985477,149 C44.9714872,149 35.1972299,139.344994 35.0029474,127.362363 L35,126.998548 L35.0029476,126.634804 Z M38,126.998548 C38,137.492624 46.507376,146 56.9985477,146 C67.492624,146 76,137.492624 76,126.998548 C76,116.507376 67.492624,108 56.9985477,108 C46.507376,108 38,116.507376 38,126.998548 Z" id="Fill-20" fill="#F84343" fill-rule="nonzero"></path>
        <path d="M221.002948,126.634804 C221.19724,114.654496 230.972002,105 242.998548,105 C255.148958,105 265,114.850002 265,126.998548 C265,139.149478 255.149478,149 242.998548,149 C230.971487,149 221.19723,139.344994 221.002947,127.362363 L221,126.998548 L221.002948,126.634804 Z M224,126.998548 C224,137.492624 232.507376,146 242.998548,146 C253.492624,146 262,137.492624 262,126.998548 C262,116.507376 253.492624,108 242.998548,108 C232.507376,108 224,116.507376 224,126.998548 Z" id="Fill-20备份" fill="#F84343" fill-rule="nonzero"></path>
    </g>
</svg>