<?xml version="1.0" encoding="UTF-8"?>
<svg width="300px" height="300px" viewBox="0 0 300 300" version="1.1" xmlns="http://www.w3.org/2000/svg" xmlns:xlink="http://www.w3.org/1999/xlink">
    <title>img/wifi6/img_m6_orangelight</title>
    <defs>
        <filter x="-135.0%" y="-35.5%" width="370.0%" height="171.1%" filterUnits="objectBoundingBox" id="filter-1">
            <feGaussianBlur stdDeviation="9" in="SourceGraphic"></feGaussianBlur>
        </filter>
    </defs>
    <g id="img/wifi6/img_m6_orangelight" stroke="none" stroke-width="1" fill="none" fill-rule="evenodd">
        <g id="编组-2" transform="translate(105.000000, 25.000000)">
            <g id="编组" opacity="0.5" stroke="#999999" stroke-linecap="round" stroke-linejoin="round">
                <path d="M35,7.63461538 L21.5948955,3 C18.6807423,5.89663462 13.4352666,12.8485577 10.5211135,17.4831731 C7.60696032,22.1177885 4.10997653,27.9110577 2.36148464,32.5456731 C1.19582337,44.1322115 -0.225557986,65.8286663 0.0301621094,121.762019 C0.0730042385,131.132827 2.94431527,140.73491 2.94431527,151.307692 L1.778654,244 C2.55576151,242.841346 4.10997653,241.875801 6.44129906,241.103365" id="路径-5备份-2" stroke-width="3"></path>
                <path d="M28,6.5804878 L25.266691,6.11456603 C24.861259,6.0454558 24.4548583,6.23162449 24.2424057,6.58378244 L8.13513514,33.2829268 L8.13513514,33.2829268 L7,244" id="直线-11备份-3" stroke-width="2"></path>
                <path d="M35,6.15625 L30.9961592,5.17500981 C30.5713226,5.0708931 30.1281192,5.25496799 29.9020479,5.62942512 L13.1794872,33.328125 L13.1794872,33.328125 L12,153" id="直线-11" stroke-width="2"></path>
                <line x1="11.5" y1="244" x2="11.5" y2="223" id="直线-11备份-23" stroke-width="2"></line>
                <polyline id="直线-11备份-2" stroke-width="2" points="37 5.57939914 35.2352941 5 17.5882353 33.9699571 17 140"></polyline>
                <line x1="7" y1="243" x2="16" y2="244" id="直线-13" stroke-width="2"></line>
                <path d="M102.996591,228.635294 C102.93092,220.659037 102.93092,214.677861 102.996591,210.691765 C103.089395,205.05872 101.256659,195.252392 101.256659,191.590588 C101.256659,167.28 100.110244,146.18117 100.676682,127.92 C100.926607,119.862748 102.627342,107.549395 102.416614,99.5576471 C101.293332,56.9578745 99.2635785,29.5565496 96.3273518,17.3536722 C96.159709,16.6487444 95.6233128,16.0901885 94.9259367,15.8934823 L39.4987435,0.248289292 C39.0020345,0.10768461 38.4796962,0.367798316 38.2932525,0.849179681 C36.1164816,6.45180874 33.5185413,11.764043 30.4994318,16.7858824 C27.2909275,22.1227518 23.8110639,27.1392224 20.0598409,31.8352941 C21.9930985,56.5317647 22.37975,85.4729412 21.2197955,118.658824 C20.8573888,129.027148 16,141.193153 16,148.178824 C16,184.355929 16,216.348294 16,244.155919 C16.1615088,245.18823 17.076721,245.938918 18.1195556,245.876569 C35.7507601,244.835308 48.3837188,243.718804 56.0184318,242.527059 C85.3760052,237.944469 102.996591,231.655261 102.996591,228.635294 Z" id="直线-11备份-30" stroke-width="3"></path>
                <path d="M72,105 C72,116.022099 70,117.762431 70,143.867403 L70,210" id="直线-12" stroke-width="3"></path>
            </g>
            <line x1="11.75" y1="158" x2="11.25" y2="217" id="直线-11备份-29" stroke="#FF8C31" stroke-width="2.5" stroke-linecap="round" stroke-linejoin="round"></line>
            <path d="M1,184.997095 C1,205.985248 5.47756631,223 10.9992356,223 C16.5224337,223 21,205.985248 21,184.997095 C21,164.014752 16.5224337,147 10.9992356,147 C5.47756631,147 1,164.014752 1,184.997095" id="Fill-20" fill="#FF8C31" opacity="0.359579904" filter="url(#filter-1)"></path>
        </g>
    </g>
</svg>