<?xml version="1.0" encoding="UTF-8"?>
<svg width="300px" height="300px" viewBox="0 0 300 300" version="1.1" xmlns="http://www.w3.org/2000/svg" xmlns:xlink="http://www.w3.org/1999/xlink">
    <title>img/M6s/img_m6s_together</title>
    <g id="img/M6s/img_m6s_together" stroke="none" stroke-width="1" fill="none" fill-rule="evenodd">
        <g id="编组-2" transform="translate(182.000000, 63.000000)">
            <line x1="4.30147779" y1="185.824074" x2="12.6341027" y2="186.694444" id="直线-13" stroke="#999999" stroke-width="2" stroke-linecap="round" stroke-linejoin="round"></line>
            <g id="编组">
                <path d="M27.7979826,5.83458412 L17.4898862,2.29268293 C15.2489957,4.50637117 11.2153928,9.81922295 8.97450227,13.3611241 C6.73361176,16.9030253 4.04454314,21.3304018 2.70000883,24.872303 C2.06965167,42.2352121 1.75447309,63.8271605 1.75447309,89.6481481 C1.78741731,96.8095787 4.80076938,105.068135 4.80076938,113.148148 L4.80076938,186.259259" id="路径-5备份-2" stroke="#999999" stroke-width="3" stroke-linecap="round" stroke-linejoin="round"></path>
                <path d="M0.44891753,89.6481481 C0.481861756,96.8095787 3.49521383,105.068135 3.49521383,113.148148 C3.49521383,147.688704 3.49521383,170.318334 3.49521383,181.037037 C3.49521383,182.758539 3.49521383,184.48004 3.49521383,186.201541 C3.49521383,186.557961 3.55872724,186.911528 3.68277569,187.245664 L3.83294452,187.650157 L3.83294452,187.650157 L2.27959643,186.910114 C0.886997935,186.246656 -7.36060679e-15,184.841557 0,183.298991 L0,90.9537037 L0,90.9537037 C0.299278353,64.2623457 0.44891753,63.8271605 0.44891753,89.6481481 Z" id="路径-5备份-2" fill="#A6A6A6" fill-rule="nonzero" opacity="0.6"></path>
                <path d="M22.4152066,5.02899068 L20.4660599,4.69878596 C20.0619106,4.63031906 19.6569039,4.81542852 19.4441996,5.16583015 L7.13976129,25.4357327 L7.13976129,25.4357327 L6.10632494,185.824074" id="直线-11备份-3" stroke="#999999" stroke-width="2" stroke-linecap="round" stroke-linejoin="round"></path>
                <path d="M27.7979826,4.70477642 L24.8668889,3.99086765 C24.4503478,3.88941326 24.0154804,4.06476305 23.7858235,4.42678126 L10.4581768,25.4357327 L10.4581768,25.4357327 L9.58780642,117.935185" id="直线-11" stroke="#999999" stroke-width="2" stroke-linecap="round" stroke-linejoin="round"></path>
                <line x1="9.58780642" y1="186.259259" x2="9.58780642" y2="170.592593" id="直线-11备份-23" stroke="#999999" stroke-width="2" stroke-linecap="round" stroke-linejoin="round"></line>
                <polyline id="直线-11备份-2" stroke="#999999" stroke-width="2" stroke-linecap="round" stroke-linejoin="round" points="29.3359186 4.26393105 27.9789163 3.82113821 13.9396583 25.4357327 12.6341027 108.361111"></polyline>
                <path d="M80.0851849,174.729412 L82.2637323,146.418824 L82.2637323,87.037037 C82.4780071,77.3946737 80.3095802,53.238514 75.7584518,14.5685578 C75.6651185,13.7729861 75.1059534,13.1099743 74.3376194,12.8834611 L31.4630644,0.259720283 C30.9661191,0.113419395 30.4397292,0.370870271 30.250302,0.853027854 C28.5929135,5.05969046 26.6218761,9.05142628 24.3371897,12.8282353 C21.8699526,16.9068184 19.1940488,20.7405439 16.3094784,24.3294118 C17.0721835,43.0939143 17.0075521,65.1569499 16.1155842,90.5185185 C15.8369051,98.4422787 13.0692879,107.809505 13.0692879,113.148148 C13.0692879,140.492972 13.1062075,164.738752 13.1800466,185.885486 L13.1800397,185.885486 C13.1825785,186.990053 14.0800647,187.883423 15.1846313,187.880884 C15.2221741,187.880798 15.2597069,187.879654 15.2971853,187.877455 C28.6046764,187.089707 38.1591105,186.245869 43.960484,185.345882 C66.5355185,181.843741 80.0851849,177.037354 80.0851849,174.729412 Z" id="直线-11备份-30" stroke="#999999" stroke-width="3" stroke-linecap="round" stroke-linejoin="round"></path>
                <line x1="9.58780642" y1="121.851852" x2="9.58780642" y2="167.111111" id="直线" stroke="#979797" stroke-width="2" stroke-linecap="round"></line>
                <path d="M53.194338,78.8714512 L36.4326816,50.6446759 L36.4326816,50.6446759 L55.8054148,79.2892507 C56.1148161,79.7467322 56.7364974,79.866775 57.1939789,79.5573737 C57.3613965,79.4441468 57.4905754,79.2828475 57.5644888,79.0947363 L64.7222127,60.8781617 L64.7222127,60.8781617 L59.5350539,78.9231888 C58.7346677,81.707563 58.3285472,84.5903902 58.3285472,87.4875195 L58.3285472,147.606615 C58.3285472,148.694078 58.6240942,149.761097 59.1835896,150.693589 L63.5507694,157.972222 L63.5507694,157.972222 L58.6762425,152.749515 C57.9823122,152.006018 56.8409094,151.90168 56.0236769,152.507037 L33.9581768,168.851852 L33.9581768,168.851852 L52.4070834,152.247836 C54.514222,150.351411 55.717436,147.64976 55.717436,144.814894 L55.717436,88.061963 C55.717436,84.8274067 54.8458506,81.6526129 53.194338,78.8714512 Z" id="路径" fill="#979797" fill-rule="nonzero"></path>
            </g>
        </g>
        <g id="编组-2备份" transform="translate(113.000000, 61.000000)">
            <line x1="4.30147779" y1="185.824074" x2="12.6341027" y2="186.694444" id="直线-13" stroke="#999999" stroke-width="2" stroke-linecap="round" stroke-linejoin="round"></line>
            <g id="编组">
                <path d="M27.7979826,5.83458412 L17.4898862,2.29268293 C15.2489957,4.50637117 11.2153928,9.81922295 8.97450227,13.3611241 C6.73361176,16.9030253 4.04454314,21.3304018 2.70000883,24.872303 C2.06965167,42.2352121 1.75447309,63.8271605 1.75447309,89.6481481 C1.78741731,96.8095787 4.80076938,105.068135 4.80076938,113.148148 L4.80076938,186.259259" id="路径-5备份-2" stroke="#999999" stroke-width="3" stroke-linecap="round" stroke-linejoin="round"></path>
                <path d="M0.44891753,89.6481481 C0.481861756,96.8095787 3.49521383,105.068135 3.49521383,113.148148 C3.49521383,147.688704 3.49521383,170.318334 3.49521383,181.037037 C3.49521383,182.758539 3.49521383,184.48004 3.49521383,186.201541 C3.49521383,186.557961 3.55872724,186.911528 3.68277569,187.245664 L3.83294452,187.650157 L3.83294452,187.650157 L2.27959643,186.910114 C0.886997935,186.246656 -7.36060679e-15,184.841557 0,183.298991 L0,90.9537037 L0,90.9537037 C0.299278353,64.2623457 0.44891753,63.8271605 0.44891753,89.6481481 Z" id="路径-5备份-2" fill="#A6A6A6" fill-rule="nonzero" opacity="0.6"></path>
                <path d="M22.4152066,5.02899068 L20.4660599,4.69878596 C20.0619106,4.63031906 19.6569039,4.81542852 19.4441996,5.16583015 L7.13976129,25.4357327 L7.13976129,25.4357327 L6.10632494,185.824074" id="直线-11备份-3" stroke="#999999" stroke-width="2" stroke-linecap="round" stroke-linejoin="round"></path>
                <path d="M27.7979826,4.70477642 L24.8668889,3.99086765 C24.4503478,3.88941326 24.0154804,4.06476305 23.7858235,4.42678126 L10.4581768,25.4357327 L10.4581768,25.4357327 L9.58780642,117.935185" id="直线-11" stroke="#999999" stroke-width="2" stroke-linecap="round" stroke-linejoin="round"></path>
                <line x1="9.58780642" y1="186.259259" x2="9.58780642" y2="170.592593" id="直线-11备份-23" stroke="#999999" stroke-width="2" stroke-linecap="round" stroke-linejoin="round"></line>
                <polyline id="直线-11备份-2" stroke="#999999" stroke-width="2" stroke-linecap="round" stroke-linejoin="round" points="29.3359186 4.26393105 27.9789163 3.82113821 13.9396583 25.4357327 12.6341027 108.361111"></polyline>
                <path d="M72.4040369,12.7252794 L31.4667443,0.269511226 C30.9690137,0.118185199 30.4389233,0.374845101 30.2480343,0.858782763 C28.5911158,5.06333109 26.6208342,9.0531486 24.3371897,12.8282353 C21.8699526,16.9068184 19.1940488,20.7405439 16.3094784,24.3294118 C17.0721835,43.0939143 17.0075521,65.1569499 16.1155842,90.5185185 C15.8369051,98.4422787 13.0692879,107.809505 13.0692879,113.148148 C13.0692879,140.479173 13.1061702,164.71428 13.1799349,185.853469 L13.1799274,185.853469 C13.1823118,186.958036 14.0796731,187.851532 15.18424,187.849147 C15.2305919,187.849047 15.2769264,187.847336 15.3231594,187.844016 C38.2627498,186.153464 54.7291074,184.552564 64.7222127,183.041046" id="直线-11备份-30" stroke="#999999" stroke-width="3" stroke-linecap="round" stroke-linejoin="round"></path>
                <line x1="9.58780642" y1="121.851852" x2="9.58780642" y2="167.111111" id="直线" stroke="#979797" stroke-width="2" stroke-linecap="round"></line>
                <path d="M53.194338,78.8714512 L36.4326816,50.6446759 L36.4326816,50.6446759 L55.8054148,79.2892507 C56.1148161,79.7467322 56.7364974,79.866775 57.1939789,79.5573737 C57.3613965,79.4441468 57.4905754,79.2828475 57.5644888,79.0947363 L64.7222127,60.8781617 L64.7222127,60.8781617 L59.5350539,78.9231888 C58.7346677,81.707563 58.3285472,84.5903902 58.3285472,87.4875195 L58.3285472,147.606615 C58.3285472,148.694078 58.6240942,149.761097 59.1835896,150.693589 L63.5507694,157.972222 L63.5507694,157.972222 L58.6762425,152.749515 C57.9823122,152.006018 56.8409094,151.90168 56.0236769,152.507037 L33.9581768,168.851852 L33.9581768,168.851852 L52.4070834,152.247836 C54.514222,150.351411 55.717436,147.64976 55.717436,144.814894 L55.717436,88.061963 C55.717436,84.8274067 54.8458506,81.6526129 53.194338,78.8714512 Z" id="路径" fill="#979797" fill-rule="nonzero"></path>
            </g>
        </g>
        <path d="M235.273864,31.3180195 C221.214989,31.3180195 209.818019,42.7149891 209.818019,56.7738636" id="椭圆形备份-3" stroke="#999999" stroke-width="3" transform="translate(222.545942, 44.045942) rotate(-315.000000) translate(-222.545942, -44.045942) "></path>
        <path d="M171.273864,31.3180195 C157.214989,31.3180195 145.818019,42.7149891 145.818019,56.7738636" id="椭圆形备份-5" stroke="#999999" stroke-width="3" transform="translate(158.545942, 44.045942) rotate(-315.000000) translate(-158.545942, -44.045942) "></path>
        <path d="M229.94053,43.3180195 C221.404785,43.3180195 214.485196,50.2376082 214.485196,58.7733534" id="椭圆形备份-4" stroke="#999999" stroke-width="3" transform="translate(222.212863, 51.045686) rotate(-315.000000) translate(-222.212863, -51.045686) "></path>
        <path d="M165.94053,43.3180195 C157.404785,43.3180195 150.485196,50.2376082 150.485196,58.7733534" id="椭圆形备份-6" stroke="#999999" stroke-width="3" transform="translate(158.212863, 51.045686) rotate(-315.000000) translate(-158.212863, -51.045686) "></path>
        <g id="编组" transform="translate(19.500000, 124.000000)">
            <rect id="矩形备份-10" fill-opacity="0.500554011" fill="#B4B4B4" x="0" y="0" width="72" height="26" rx="4"></rect>
            <rect id="矩形" fill="#949494" x="7" y="17" width="4" height="2"></rect>
            <rect id="矩形备份-15" fill="#656565" x="29" y="17" width="4" height="2"></rect>
            <rect id="矩形备份-18" fill="#656565" x="51" y="17" width="4" height="2"></rect>
            <rect id="矩形备份-14" fill="#949494" x="13" y="6" width="2" height="6"></rect>
            <rect id="矩形备份-16" fill="#656565" x="35" y="6" width="2" height="6"></rect>
            <rect id="矩形备份-19" fill="#656565" x="57" y="6" width="2" height="6"></rect>
            <rect id="矩形备份-13" fill="#949494" x="17" y="17" width="4" height="2"></rect>
            <rect id="矩形备份-17" fill="#656565" x="39" y="17" width="4" height="2"></rect>
            <rect id="矩形备份-20" fill="#656565" x="61" y="17" width="4" height="2"></rect>
        </g>
        <path d="M110.5,228 L91.5,228 C83.2157288,228 76.5,221.284271 76.5,213 L76.5,152 L76.5,152" id="直线-3" stroke-opacity="0.536104322" stroke="#9D9C9C" stroke-width="3"></path>
        <path d="M110.5,236 L70.5,236 C61.663444,236 54.5,228.836556 54.5,220 L54.5,152 L54.5,152" id="直线-3备份" stroke-opacity="0.536104322" stroke="#9D9C9C" stroke-width="3"></path>
        <g id="编组-2" transform="translate(66.500000, 127.000000)">
            <rect id="矩形备份-23" fill="#9D9D9D" x="0" y="0" width="20" height="29" rx="5"></rect>
            <polygon id="矩形备份-24" fill="#FFFFFF" points="5 15.5 14.1666667 7.5 11.6666667 13.9 15 13.9 5.83333333 21.5 8.33333333 15.5"></polygon>
        </g>
        <rect id="矩形备份-25" fill="#9D9D9D" x="44.5" y="127" width="20" height="29" rx="5"></rect>
        <polygon id="矩形备份-26" fill="#FFFFFF" points="49.5 142.5 58.6666667 134.5 56.1666667 140.9 59.5 140.9 50.3333333 148.5 52.8333333 142.5"></polygon>
        <path d="M267,217 L270.5,217 C273.537566,217 276,219.462434 276,222.5 C276,225.537566 273.537566,228 270.5,228 L266,228 L266,228" id="直线-28" stroke-opacity="0.536104322" stroke="#9D9C9C" stroke-width="3"></path>
    </g>
</svg>