<?xml version="1.0" encoding="UTF-8"?>
<svg width="220px" height="220px" viewBox="0 0 220 220" version="1.1" xmlns="http://www.w3.org/2000/svg" xmlns:xlink="http://www.w3.org/1999/xlink">
    <title>img/default/img_m6s_add_success</title>
    <g id="img/default/img_m6s_add_success" stroke="none" stroke-width="1" fill="none" fill-rule="evenodd">
        <g id="编组" transform="translate(5.000000, 16.000000)">
            <path d="M67.0009121,105.776777 L67,160.999409 L27.5,161 C12.3121694,161 1.85997282e-15,148.687831 0,133.5 C-1.85997282e-15,118.312169 12.3121694,106 27.5,106 L65,106 C65.6877129,106 66.35741,105.922866 67.0009121,105.776777 Z M179.634022,143.000431 L195,143 C199.970563,143 204,147.029437 204,152 C204,156.970563 199.970563,161 195,161 L179.911971,161.000768 C180.621992,158.28613 181,155.437209 181,152.5 C181,149.200316 180.522937,146.012056 179.634022,143.000431 Z M141.750998,104.729646 C143.075041,105.495349 144.601037,105.950696 146.229521,105.996224 L146.5,106 L180,106 C184.970563,106 189,110.029437 189,115 C189,119.970563 184.970563,124 180,124 L166.5,124 C166.074974,124 165.656467,124.027911 165.246212,124.082002 C160.100996,120.861415 154.017876,119 147.5,119 C145.562924,119 143.664247,119.164409 141.817163,119.480033 L141.750998,104.729646 Z M139.577213,48.955756 C139.792627,48.9765203 140.010144,48.9900906 140.229521,48.9962236 L140.5,49 L169.5,49 C180.269553,49 189,57.7304474 189,68.5 C189,77.1097288 183.420181,84.4162211 175.679461,87.0005589 L146.5,87 C144.739341,87 143.09055,87.4789637 141.676815,88.3137032 L141.604556,72.1674407 L141.604234,70.4826213 L139.577213,48.955756 Z M67.275,48.9994094 L67.2641163,49.4252678 L67.1972482,52.5331305 L67.1295123,56.4733626 L67.0920293,59.2327794 L67.0474685,63.5785408 L67.021157,67.3960798 L67.0010896,73.0522842 L67.0003082,78.7003041 L67.0009121,88.2232234 C66.440464,88.0959894 65.8601462,88.0210594 65.2653623,88.0038371 L65,88 L58.5,88 C47.7304474,88 39,79.2695526 39,68.5 C39,57.7304474 47.7304474,49 58.5,49 L67.275,48.9994094 Z M134.585995,12.9979607 L158.5,13 C163.19442,13 167,16.8055796 167,21.5 C167,26.1944204 163.19442,30 158.5,30 L139,30 C139.255047,30 139.507863,30.0095481 139.758112,30.0283062 C139.093272,30.0797534 138.447625,30.1996082 137.8282,30.3808398 L136.398294,15.1880156 C136.166821,14.2058222 135.490269,13.3998876 134.585995,12.9979607 Z M74.187,12.9994094 L74.1704181,13.0268498 L73.5661838,14.0085156 L72.7220993,15.406806 L72.1998833,16.2926111 L71.7092697,17.1437724 L71.5914735,17.3513974 L71.5914735,17.3513974 L71.4755986,17.5570224 L71.0310972,18.3601828 C70.0290562,20.199151 69.2710417,21.7983669 68.7176889,23.2787127 C68.6692374,23.4083315 68.6377523,23.5437084 68.6240218,23.6814543 L68.5904237,24.0218424 L68.4592563,25.4185574 L68.364294,26.5043696 L68.2722857,27.6244419 L68.1832572,28.7800807 L68.1042078,29.8859508 C64.0738482,29.2201275 61,25.7190316 61,21.5 C61,16.8055796 64.8055796,13 69.5,13 L74.187,12.9994094 Z" id="形状结合" fill-opacity="0.3" fill="#B1B1B1"></path>
            <g id="编组-2" transform="translate(67.000000, 0.000000)" fill-rule="nonzero">
                <path d="M28.6401831,0.055263902 L28.8004741,0.0964733666 L67.8352278,11.5936249 C69.0441955,11.949768 69.9244778,12.9926318 70.0732289,14.2460619 L70.1350461,14.7716501 L70.1965389,15.2952629 L70.9091607,21.4245477 L71.4673451,26.3150315 L71.9931074,31.0080413 L72.5812281,36.379026 L72.9473746,39.8017486 L73.4576963,44.6989667 L73.8472344,48.5621308 L74.1535217,51.6974505 L74.3816446,54.1027488 L74.7446938,58.0918807 L74.931482,60.24563 L75.1438268,62.8092473 L75.3326799,65.2300519 L75.4980388,67.5080892 L75.6134086,69.2277568 L75.7137393,70.8561053 L75.7791171,72.0174525 L75.8531265,73.4860483 L75.898762,74.5276075 L75.9359355,75.5178452 L75.9646466,76.4567713 L75.9848947,77.3443955 L75.9987267,78.4481083 L76,78.9657772 L75.9948561,79.6995542 L75.986724,80.1602589 L75.9865949,119.301443 C74.9198265,119.445104 73.8689784,119.638975 72.8365071,119.8806 L72.8379215,80.1252644 L72.8483431,79.4418613 L72.850393,78.7067692 L72.8401025,77.6462838 L72.8149263,76.4940095 L72.7748631,75.2500049 L72.7199111,73.9143288 L72.6689256,72.8524476 L72.5653352,70.9681968 L72.4657081,69.3578584 L72.3511862,67.6560832 L72.221768,65.8629301 L72.039045,63.493078 L71.7890465,60.4610709 L71.6514739,58.8681406 L71.2978695,54.9520347 L70.9584474,51.3735214 L70.561858,47.3551231 L70.1601251,43.4205848 L69.8153936,40.1306344 L69.3553007,35.8403263 L68.8627904,31.3524172 L68.228992,25.7061425 L67.4305753,18.759333 L66.9458203,14.6159436 L28.6002326,3.32173782 L28.5342369,3.4874424 C27.0651242,7.10680395 25.3408882,10.5533642 23.3616586,13.8263564 C21.3002169,17.2353004 19.079341,20.459537 16.6990542,23.4987157 L16.3314876,23.961 L16.3490918,23.9403316 L16.4345113,26.21884 L16.4990134,28.1592947 L16.5573411,30.1242825 L16.6094948,32.1138041 L16.6554745,34.1278603 L16.6660048,34.635208 L16.6761493,35.1440892 L16.7128686,37.1949488 L16.7210839,37.7114975 L16.7289133,38.2295798 L16.7563727,40.3172447 L16.777659,42.4294475 L16.7980144,45.6437618 L16.8044816,48.9132907 L16.8010777,51.1236529 L16.7915017,53.3585569 L16.775754,55.6180035 L16.7538345,57.9019936 L16.7473904,58.4768262 L16.7405605,59.0531927 L16.709384,61.3739996 L16.6720364,63.7193519 L16.6617353,64.3095253 L16.6510485,64.9012328 L16.6044446,67.2834049 L16.55167,69.6901244 L16.4609387,73.346232 L16.3563247,77.057576 L16.2378286,80.8241591 L16.1511193,83.3659042 C16.0937581,84.9974366 15.924506,86.7520081 15.6488374,88.7290434 L15.553014,89.3964309 L15.5115144,89.6748624 L15.3807456,90.5190793 L15.2372246,91.3984554 L15.0185874,92.6740399 L14.6405036,94.7873477 L13.9909568,98.4597976 L13.7996096,99.6122005 L13.6743352,100.4224 L13.5603667,101.249608 L13.5039342,101.731968 L13.4525815,102.278303 L13.4249072,102.684734 L13.410763,102.983814 L13.3998199,103.381779 L13.39655,103.787288 L13.39655,106.698 L13.406871,126.745238 L13.4549428,155.552447 L13.4976143,169.849619 L14.132339,169.811985 L17.8073812,169.584222 L20.1303898,169.430531 L22.8911593,169.236355 L24.9853164,169.079377 L27.4598514,168.881126 L29.7752205,168.68064 L31.5128457,168.518656 L32.3434164,168.437136 L33.9280408,168.273047 L35.4105975,168.107566 L36.7910327,167.940706 L37.7593096,167.814662 L38.6700904,167.687851 L39.5233523,167.56028 L40.9431908,167.335918 L42.3432805,167.106653 L43.7228549,166.872715 L44.4047092,166.754066 L45.752073,166.51355 L47.0770048,166.268938 L48.3787378,166.020459 L49.0206652,165.894841 L49.7242032,165.754198 C50.1556182,166.754589 50.634383,167.729768 51.1576742,168.676913 L50.9437032,168.721936 L49.6560319,168.980425 L48.3441164,169.235204 L47.008718,169.486046 L46.6712884,169.548115 L46.3324506,169.60992 L44.9632549,169.854435 L44.6175544,169.91487 L44.270517,169.97502 L42.8692367,170.212701 L42.5156934,170.271374 L42.1608846,170.329741 L40.7292323,170.560081 L39.7216419,170.716929 L39.1337282,170.80382 L38.204463,170.933364 L37.2183046,171.061962 L35.8148879,171.231961 L34.3102361,171.400295 L33.5199306,171.483841 L32.2869795,171.608387 L30.5543567,171.773013 L28.7203283,171.936009 L26.2851113,172.137475 L24.2227286,172.296839 L21.5019027,172.4938 L19.2109001,172.649585 L16.8182035,172.803796 L13.6842457,172.994364 L13.5151374,172.999951 C12.1915775,173.007243 11.0541843,172.196721 10.581852,171.040659 L5.79973026,170.541408 C5.56430716,171.114718 5.00059577,171.518428 4.34262544,171.518428 C3.51252873,171.518428 2.83245828,170.875867 2.77234877,170.060842 L2.76802986,169.943287 L2.76802986,103.787372 C2.76802986,102.851072 2.72089511,101.877916 2.62899099,100.85168 L2.5621524,100.160761 L2.485194,99.4727678 L2.39607966,98.7725816 L2.3289113,98.29155 L2.21501231,97.5374412 L2.08352767,96.7308184 L1.93242126,95.8565615 L1.69690402,94.5595434 L1.07941361,91.2846535 L0.795866446,89.7275004 L0.605964919,88.6277296 L0.483718204,87.8754224 L0.377791938,87.1762634 L0.287307534,86.5221413 L0.211386407,85.9049448 L0.16842916,85.5099891 L0.114827746,84.9363101 L0.0734467104,84.3779266 C0.0694951874,84.3164333 0.0657536976,84.255073 0.0622168176,84.1937958 L0.0357629324,83.6431886 L0.0194793925,83.0889505 L0.0124876119,82.5229702 L0.0162925258,77.8975372 L0.0362689787,71.1506825 L0.0590999465,66.7803034 L0.098341892,61.4607868 L0.149477086,56.30066 L0.212506346,51.2999152 L0.271494033,47.4140691 L0.338094865,43.6302183 L0.412309261,39.948359 L0.494137642,36.368487 L0.560505856,33.7505098 L0.655659717,30.3491061 L0.732022523,27.8649754 L0.840503147,24.6420276 C0.849860522,24.3776974 0.859297228,24.1144294 0.868813267,23.8522235 C0.875044816,23.6805188 0.90931798,23.5109908 0.970274598,23.3503574 C1.28346263,22.5250417 1.66122151,21.6627422 2.11046561,20.7425456 L2.42062795,20.1202743 C2.52759612,19.9098384 2.63817031,19.6963139 2.75242638,19.4794712 L3.10631615,18.8187595 C3.16716401,18.7069053 3.22895132,18.5941642 3.29168756,18.4805075 L3.67956797,17.7873508 C3.81270773,17.5524831 3.94971908,17.3137236 4.09067789,17.0708428 L4.5254726,16.3296065 L4.98440737,15.562265 L5.46793745,14.7674412 L6.24034469,13.5206641 L6.78735487,12.6511102 L7.19708578,12.0143385 L7.63657187,11.3519155 C7.71206196,11.239688 7.78861395,11.1266272 7.86613889,11.0128509 L8.34225245,10.3225475 C8.50437441,10.090212 8.6696766,9.85595608 8.83744745,9.62072167 L9.34745438,8.91302491 L9.86800374,8.20510875 L10.394826,7.50262474 C10.6590938,7.15368268 10.9241129,6.80889701 11.1874817,6.47144671 L11.7113072,5.80726852 L12.2264625,5.16830286 C13.1603568,4.02343101 14.0290128,3.03416546 14.7140409,2.35721866 C15.109194,1.96672716 15.6780465,1.81553198 16.2102363,1.95161121 L16.3323028,1.98813549 L23.4614876,4.44 L24.4804876,4.688 L24.6482843,4.43184556 C24.6846555,4.37582966 24.7272236,4.32570286 24.7746182,4.28194948 L24.7434876,4.352 L25.0241237,3.7180925 C25.3398995,2.9851914 25.6445667,2.24447747 25.9381351,1.49592204 C26.3659977,0.410786419 27.51632,-0.192406224 28.6401831,0.055263902 Z M18.3027347,6.41820059 L7.24399288,24.6396941 L6.31348761,169.011 L7.88448761,169.175 L7.88546548,155.76702 C7.88546548,155.332057 8.2379507,154.979449 8.67276326,154.979449 C9.07651778,154.979449 9.40928598,155.283483 9.45476432,155.675172 L9.46006105,155.76702 L9.45948761,169.339 L10.3464876,169.432 L10.3120792,158.016638 L10.2687239,136.273389 L10.2473588,103.787372 L10.2485503,103.501133 L10.2524048,103.222643 L10.2576882,103.003237 L10.2750356,102.566361 L10.2875298,102.345552 L10.3110415,102.014344 L10.3656182,101.429829 L10.4087047,101.051035 L10.4796252,100.502287 L10.6181425,99.5601841 L10.6404876,99.415 L11.822052,24.4068029 C11.8239159,24.2883683 11.8524488,24.1722731 11.9050662,24.0669984 L11.9490047,23.9902037 L22.6584876,7.494 L21.3994876,7.061 L10.2443847,24.6515077 L9.4600262,108.126419 C9.45622725,108.530296 9.14918109,108.860304 8.75721687,108.90211 L8.66535554,108.906545 C8.26161889,108.902744 7.9317251,108.595592 7.88993292,108.203492 L7.88550033,108.111599 L8.67279811,24.4117904 C8.67383429,24.3016312 8.6979518,24.1933358 8.74312908,24.0937466 L8.79525141,23.997313 L19.7834876,6.669 L18.3027347,6.41820059 Z M8.67276326,110.875506 C9.07651778,110.875506 9.40928598,111.179539 9.45476432,111.571229 L9.46006105,111.663076 L9.46006105,152.616738 C9.46006105,153.051701 9.10757582,153.404309 8.67276326,153.404309 C8.26900874,153.404309 7.93624055,153.100275 7.8907622,152.708585 L7.88546548,152.616738 L7.88546548,111.663076 C7.88546548,111.228113 8.2379507,110.875506 8.67276326,110.875506 Z M16.2617017,5.29460174 L16.1800712,5.38478265 C15.7071068,5.90717382 15.1750324,6.5332341 14.6146532,7.22246242 L14.04598,7.93124672 L13.4652824,8.67314282 L12.8794062,9.43915047 L12.2951968,10.2202695 C11.3267067,11.5297271 10.3936852,12.8646475 9.63874868,14.037526 L8.92270611,15.17146 L8.42163897,15.9774572 L7.94508705,16.7545111 L7.49270166,17.5037074 L7.06413416,18.226132 C6.9946717,18.3443654 6.92618712,18.4615286 6.85867316,18.5776442 L6.46517874,19.2619469 C6.40151821,19.3739624 6.33881377,19.4849756 6.27705816,19.5950089 L5.91785233,20.2436328 L5.58106974,20.8698281 C5.52678854,20.9723852 5.47342711,21.0740531 5.4209782,21.1748543 L5.11717672,21.7694423 L4.97337961,22.0592757 L4.70177475,22.6246995 C4.4842477,23.0881997 4.28862542,23.5328606 4.11399996,23.96151 L4.00583709,24.2309451 L3.90584114,27.1555646 L3.80334074,30.4467174 L3.68588865,34.7042201 L3.5802966,39.1212052 L3.48656536,43.6976396 L3.40469568,48.4334902 L3.33468834,53.3287242 L3.27654408,58.3833085 L3.23026367,63.59721 L3.20178182,67.8830175 L3.1854038,71.1642624 L3.17021126,75.6284276 L3.16261313,80.1944884 L3.1616621,82.5157242 L3.16820115,83.0276443 L3.17744366,83.3643478 L3.1908895,83.7000093 L3.20879309,84.0368738 L3.23140887,84.3771864 L3.25899124,84.7231921 L3.31023372,85.2577861 L3.35134569,85.6278464 L3.45139529,86.4108642 L3.54303173,87.0445022 L3.64985016,87.7263089 L3.77270927,88.4638613 L3.9629577,89.5470757 L4.1852848,90.760824 L4.7979699,94.0101674 L4.98372575,95.0280027 L5.14679736,95.9578311 L5.20748761,96.324 L5.67109059,24.4141262 C5.67177847,24.3073303 5.6941651,24.2021729 5.73647744,24.1049159 L5.78536601,24.0105243 L16.9567227,5.60084799 L16.9924876,5.545 L16.2617017,5.29460174 Z M13.3404876,27.925 L12.3744876,89.348 L12.5141375,88.4058367 C12.7550304,86.6962186 12.9118006,85.1742277 12.9817275,83.77448 L13.003874,83.255177 L13.0903017,80.7217377 L13.17058,78.212878 L13.2447092,75.7285986 L13.3126894,73.2689004 L13.3745208,70.8337842 L13.4302037,68.4232508 L13.4797382,66.037301 L13.5425123,62.5044722 L13.5914537,59.026961 L13.6163968,56.7393536 L13.6422854,53.3540445 L13.6518606,51.1279076 L13.6532939,50.5752154 L13.6543431,50.0240602 L13.6546981,47.834808 L13.6489066,45.6701467 L13.6369688,43.530077 L13.6188849,41.4145997 L13.6134036,40.889573 L13.6075382,40.3660835 L13.5802355,38.2874964 L13.5467872,36.2335037 L13.5071935,34.2041063 L13.4614546,32.199305 L13.4095707,30.2191005 L13.351542,28.2634937 L13.3404876,27.925 Z" id="形状结合" fill="#999999"></path>
                <g id="编组" transform="translate(0.000000, 47.229970)">
                    <path d="M0,35.2929997 C0.0297998614,41.7731501 2.76828215,49.2460551 2.76828215,56.5574012 C2.76828215,87.8120502 2.76828215,108.288881 2.76828215,117.987894 C2.76828215,119.558166 2.76828215,121.128438 2.76828215,122.69871 C2.76828215,123.039942 2.87926284,123.371917 3.08447861,123.644544 L3.13616408,123.713207 L3.13616408,123.713207 C1.04423791,122.259036 -0.00112812765,120.609439 6.5951859e-05,118.764414 C0.00728267247,107.613541 0.00728267247,80.183522 6.59518587e-05,36.4743554 C2.19839529e-05,12.3221956 0,11.9284104 0,35.2929997 Z" id="路径-5备份-2" fill="#A6A6A6" opacity="0.6"></path>
                    <path d="M32.9554268,0 L50.6035508,26.1035996 C50.8471682,26.4639377 51.3367708,26.5585585 51.6971088,26.3149411 C51.8290383,26.2257462 51.9308284,26.0986515 51.9890502,25.9504242 L58.5448609,9.25995533 L53.7110285,26.0816579 C53.0810771,28.2738842 52.7614393,30.5435731 52.7614393,32.8245147 L52.7604921,86.4819406 C51.3364829,88.5803119 50.1443249,90.8487771 49.2208275,93.2505265 L30.7171013,106.961909 L47.7934178,91.5879015 C49.4523296,90.0943638 50.3995459,87.9670272 50.3995459,85.7348437 L50.3995459,33.2769153 C50.3995459,30.7302056 49.7135048,28.2305223 48.4135285,26.0405927 L32.9554268,0 Z" id="形状结合" fill="#999999" opacity="0.7"></path>
                </g>
            </g>
            <g id="编组-2" transform="translate(117.000000, 122.000000)">
                <path d="M30.5,0 C47.3446849,0 61,13.6553151 61,30.5 C61,47.3446849 47.3446849,61 30.5,61 C13.6553151,61 0,47.3446849 0,30.5 C0,13.6553151 13.6553151,0 30.5,0 Z M30.5,3 C15.3121694,3 3,15.3121694 3,30.5 C3,45.6878306 15.3121694,58 30.5,58 C45.6878306,58 58,45.6878306 58,30.5 C58,15.3121694 45.6878306,3 30.5,3 Z M43.7468093,22.7556184 L43.8819286,22.8819286 C44.8924102,23.8924102 44.9345136,25.5045649 44.0082388,26.565186 L43.8819286,26.7003053 L29.8304643,40.7540191 C29.7791986,40.8152563 29.724792,40.8747551 29.6672447,40.9323024 C29.1400369,41.4595102 28.4490466,41.7231141 27.7580563,41.7231141 L27.7407431,41.7231141 C27.0497528,41.7231141 26.3587625,41.4595102 25.8315547,40.9323024 C25.7730792,40.8738269 25.7178466,40.8133365 25.6658569,40.7510547 L18.8674711,33.9509056 C17.8130555,32.89649 17.8130555,31.1869445 18.8674711,30.1325289 C19.9218867,29.0781133 21.6314322,29.0781133 22.6858478,30.1325289 L27.7486594,35.1951169 L40.0635519,22.8819286 C41.0740335,21.871447 42.6861882,21.8293436 43.7468093,22.7556184 Z" id="形状结合" fill="#00D061" fill-rule="nonzero"></path>
                <path d="M30.8070155,5 C45.2419249,5 56.943731,16.5761829 56.943731,30.8561281 C56.943731,45.1360734 45.2419249,56.7122563 30.8070155,56.7122563 C23.9268663,56.7122563 17.66762,54.0823942 13.0004146,49.7833828 C16.7329444,52.1289971 21.1494113,53.4855012 25.8827068,53.4855012 C39.2716082,53.4855012 50.1254574,42.6316521 50.1254574,29.2427506 C50.1254574,16.6674561 40.5506461,6.32847851 28.2935775,5.11837206 C29.1204315,5.0399519 29.9590072,5 30.8070155,5 Z" id="Combined-Shape" fill-opacity="0.4" fill="#2EDA7E"></path>
            </g>
        </g>
    </g>
</svg>