<?xml version="1.0" encoding="UTF-8"?>
<svg width="300px" height="300px" viewBox="0 0 300 300" version="1.1" xmlns="http://www.w3.org/2000/svg" xmlns:xlink="http://www.w3.org/1999/xlink">
    <title>img/M6s/img_add_m6s_02</title>
    <defs>
        <filter x="-134.6%" y="-32.5%" width="369.3%" height="165.1%" filterUnits="objectBoundingBox" id="filter-1">
            <feGaussianBlur stdDeviation="9.7740742" in="SourceGraphic"></feGaussianBlur>
        </filter>
    </defs>
    <g id="img/M6s/img_add_m6s_02" stroke="none" stroke-width="1" fill="none" fill-rule="evenodd">
        <g id="编组-2" transform="translate(92.000000, 15.000000)">
            <path d="M44.8626707,0.072416749 L45.0340602,0.117151865 L106.717322,18.1741266 C108.228088,18.6167912 109.346683,19.8778677 109.612325,21.4153892 L109.643219,21.6267138 L110.410986,28.149002 L111.145891,34.4722137 L112.018315,42.0963318 L112.839397,49.4095195 L113.609139,56.4118469 L114.327544,63.1033844 L114.733946,66.9691569 L115.247067,71.9495434 L115.842269,77.8954714 L116.38614,83.5308484 L116.784279,87.8156003 L117.149568,91.9016805 L117.482008,95.7891248 L117.7816,99.4779693 L118.048345,102.96825 L118.226848,105.455674 L118.386876,107.831442 L118.528429,110.095568 L118.651507,112.248068 L118.75611,114.288956 L118.84224,116.218249 L118.909896,118.03596 L118.944737,119.185786 L118.981605,120.817563 L119,122.3378 L119,123.746511 L118.998124,123.970455 L118.998124,123.970455 L118.995793,124.191301 L118.981375,125.043712 L118.981375,209.428398 L118.97653,209.553774 L115.865011,249.747988 L115.862987,249.806057 C115.771232,251.266993 114.309536,252.673634 111.565245,254.105503 L111.25505,254.264707 L110.668025,254.552907 L110.515918,254.625091 L110.515918,254.625091 L110.361676,254.697335 L109.723403,254.986937 L109.558521,255.059506 L109.558521,255.059506 L109.391519,255.132147 L108.702351,255.423474 L107.979451,255.716129 L107.222974,256.010255 L106.433077,256.305996 L105.609918,256.603493 L104.753654,256.902891 L103.86444,257.204331 L102.942435,257.507957 L101.987796,257.813911 L101.000679,258.122337 L100.670231,258.223882 L100.670231,258.223882 L100.337009,258.325363 L98.9766557,258.730565 L97.5730387,259.13441 L96.1270624,259.53663 L94.6396318,259.936958 L94.2614029,260.036714 L94.2614029,260.036714 L93.8806538,260.13633 L92.3327378,260.533321 L91.9395997,260.632179 L91.9395997,260.632179 L91.5440261,260.730873 L89.9376606,261.123926 L88.2934596,261.51402 L86.6123279,261.900888 L84.8951703,262.284263 L84.4603578,262.37953 L84.4603578,262.37953 L84.0233644,262.474557 L82.2538642,262.852193 L80.4505998,263.225668 L78.6144761,263.594716 L78.1504169,263.686255 L78.1504169,263.686255 L77.6843747,263.777497 L75.8006583,264.139404 L73.8863444,264.496217 L71.9423377,264.847669 L69.9695429,265.193492 L67.9688649,265.533421 L67.4644447,265.617451 L67.4644447,265.617451 L66.9583524,265.701091 L64.9175459,266.031677 L63.887478,266.194526 L63.887478,266.194526 L62.8511179,266.355701 L61.5704703,266.546532 L60.2111809,266.736103 L58.773231,266.924418 L57.7708879,267.049265 L56.168953,267.239283 L55.055466,267.365241 L53.316925,267.553098 L51.4963935,267.739664 L48.9414426,267.986418 L46.2406476,268.230894 L43.3939607,268.4731 L39.630369,268.772681 L36.4552513,269.009815 L32.2809703,269.303085 L28.7771805,269.535195 L24.1919087,269.822214 L21.2186809,269.999964 L21.1061732,269.999964 C19.5481762,270.00643 18.1888336,269.148234 17.4853209,267.877107 L7.85511702,267.122072 C7.55584933,267.459817 7.11826331,267.672795 6.63080194,267.672795 C5.78180235,267.672795 5.08409635,267.026742 5.004951,266.200667 L4.99747409,266.043783 L4.99747409,162.148994 C4.99747409,160.652442 4.92178681,159.09933 4.77440945,157.463711 L4.70974884,156.779723 L4.60178225,155.762525 L4.52135252,155.081846 L4.38608437,154.042609 L4.2850217,153.329236 L4.11515629,152.213953 L3.92103059,151.02712 L3.70001814,149.749295 L3.44949249,148.361036 L2.95923125,145.749054 L2.34894745,142.541488 L1.92473522,140.236712 L1.70461596,138.991956 L1.50891597,137.838153 L1.39145524,137.114379 L1.2339326,136.089206 L1.14087284,135.441619 L1.05698514,134.81915 L0.981933293,134.218737 L0.91538112,133.63732 L0.830754321,132.794113 L0.783980485,132.24679 L0.744529648,131.707749 L0.698348602,130.908016 L0.67573443,130.376284 L0.65926659,129.842118 L0.645353783,129.02961 C0.644492159,128.938261 0.643851612,128.846493 0.643425139,128.75424 L0.648546269,122.045036 L0.669351224,113.85053 L0.706160741,105.86935 L0.735928921,101.183036 L0.784583009,95.054074 L0.859806218,87.5848509 L0.951036275,80.3289322 L1.01345787,76.0777645 L1.10565114,70.5289854 L1.20808981,65.1167113 L1.3505463,58.543324 L1.44370479,54.7016652 L1.5426269,50.9367849 L1.64731279,47.2486819 L1.83459804,41.2724556 L1.99595453,36.6450218 C2.00245729,36.4669385 2.0382135,36.291126 2.10179821,36.1245906 L2.41061585,35.341314 C2.89306539,34.1543257 3.46260784,32.9112292 4.12719505,31.5880251 L4.58442116,30.6937579 L5.07033226,29.7741749 C5.23714163,29.4632523 5.4088191,29.1478471 5.58545193,28.8276958 L6.13030374,27.8527406 L6.70541128,26.847729 C6.80381294,26.6776345 6.90349706,26.5062219 7.00447457,26.3334582 L7.62594741,25.280399 C7.73214206,25.1020991 7.83965191,24.9223823 7.94848785,24.7412156 L8.61750404,23.6365534 L9.31887027,22.4955139 L10.0531101,21.316517 L10.8207472,20.0979824 C10.9514989,19.8915107 11.0836639,19.6833258 11.2172533,19.4733947 L11.8034787,18.5666849 C11.9046495,18.4125024 12.0074814,18.2568827 12.1118658,18.0999684 L12.7559355,17.1440871 C12.9762574,16.8210415 13.201922,16.4939573 13.4320619,16.1639745 L14.1350398,15.1664704 C14.2541513,14.9991504 14.3741647,14.8313908 14.4949716,14.663334 L15.2284674,13.6525673 L15.9758023,12.6415086 L16.7317711,11.6369977 L17.4911689,10.6458744 L18.2487907,9.67497845 L18.9994314,8.73114974 L19.7378859,7.82122802 L20.4589493,6.95205309 L21.1574166,6.13046474 C21.3858946,5.86529303 21.6097392,5.60919239 21.8280827,5.36330278 L22.4657425,4.657407 C22.8786903,4.20875183 23.266164,3.80550065 23.6212235,3.45677318 C24.0221731,3.06297401 24.5947137,2.90544131 25.1354674,3.03035711 L25.2965365,3.07635149 L33.7950902,5.97814337 C34.2498247,5.75638448 34.7703687,5.6742208 35.2877664,5.75935561 L35.4701345,5.79639495 L38.4544251,6.519 L38.7201316,6.11427537 C38.9965771,5.6911182 39.4990724,5.48259 39.9866147,5.57355962 C40.5286479,4.33543448 41.0493115,3.08152451 41.5496585,1.8135071 C42.0748677,0.489177993 43.4893048,-0.241664443 44.8626707,0.072416749 Z M44.4537398,3.34249097 L44.0990383,4.22945485 C43.7084736,5.18796729 43.3063854,6.13869036 42.8927745,7.08162017 C42.9570151,7.30875902 42.9572276,7.55840738 42.8780091,7.80130276 C42.7702318,8.13176378 42.5361918,8.386064 42.2464977,8.52835056 C40.3713448,12.6486561 38.2727273,16.6172577 35.9504094,20.4341447 C32.641256,25.872963 29.0712134,31.0100209 25.2403111,35.8449311 L24.6774251,36.547 L24.7344251,36.476 L24.8208232,38.6462842 L24.921109,41.4595135 L25.0129449,44.3061545 L25.0345836,45.0230354 L25.0345836,45.0230354 L25.0556941,45.7420046 L25.1348553,48.6387643 L25.205567,51.5689374 L25.2678293,54.5325245 L25.2820747,55.2786423 L25.2820747,55.2786423 L25.295792,56.0268486 L25.3453805,59.040558 L25.3865201,62.0876831 L25.4192109,65.1682245 L25.4434531,68.2821831 L25.4592469,71.4295593 L25.4618753,72.221625 L25.4618753,72.221625 L25.4639756,73.0157793 L25.4670971,76.2132834 L25.4617705,79.4442069 L25.447996,82.7085505 L25.425774,86.0063148 L25.3951044,89.3375006 L25.3559875,92.7021085 L25.3084234,96.1001391 L25.2524124,99.5315932 L25.2370898,100.394679 L25.2370898,100.394679 L25.2212393,101.259854 L25.1525581,104.741445 L25.0336991,110.026503 L24.895836,115.38677 L24.7933696,119.002065 L24.6824574,122.650788 L24.5630995,126.332939 L24.4352961,130.04852 C24.3429304,132.659638 24.0639395,135.481019 23.6072908,138.680843 L23.4987607,139.426058 L23.3751914,140.242979 L23.1780497,141.489798 L22.9617973,142.794422 L22.6340784,144.686222 L21.4553731,151.232611 L20.9271591,154.264637 L20.7007812,155.637515 L20.5857254,156.371187 L20.4257475,157.465264 L20.3240118,158.242446 L20.2616458,158.77848 L20.1953918,159.443385 L20.1572312,159.913342 L20.1200433,160.514319 L20.0926189,161.246545 L20.0831073,161.841706 L20.0831073,170.593549 L20.1040737,203.59865 L20.1571862,236.092869 L20.2419525,265.900748 C20.2437701,266.331359 20.5683511,266.683687 20.9861596,266.735344 L21.0924211,266.741865 L24.8421979,266.51839 L29.2737838,266.23802 L32.661241,266.011421 L35.9083708,265.782787 L39.7698767,265.494143 L43.4119574,265.202349 L46.1675745,264.966657 L48.1420626,264.788577 L50.6517096,264.549397 L53.0207381,264.308236 L55.2491016,264.065104 L56.8280347,263.881466 L58.327798,263.696728 L59.2836472,263.57296 L60.6514169,263.386397 L61.9399643,263.198743 L64.3980303,262.815115 L64.9055926,262.733891 L64.9055926,262.733891 L65.4115355,262.65227 L67.4188297,262.321896 L69.399078,261.985502 L71.3513714,261.643358 L73.2748008,261.295734 L73.7510417,261.208004 L73.7510417,261.208004 L74.2254075,261.119952 L76.1038366,260.764618 L76.5686143,260.675023 L76.5686143,260.675023 L77.0314317,260.585133 L78.8628151,260.222697 L79.3156183,260.13139 L79.3156183,260.13139 L79.766376,260.039813 L81.5486684,259.670885 L81.9889858,259.578019 L81.9889858,259.578019 L82.4271725,259.484908 L84.1583285,259.110096 L85.8542574,258.7317 L87.5140499,258.349992 L89.1367973,257.965242 L89.5365893,257.868611 L89.5365893,257.868611 L89.9339949,257.77181 L91.4994699,257.383004 L93.0256271,256.991833 L94.5115574,256.598568 L95.9563518,256.203479 L97.3591013,255.806837 L98.7188968,255.408913 L99.3824027,255.209554 L99.3824027,255.209554 L100.034829,255.009977 L101.178665,254.650878 L101.457585,254.561409 L101.457585,254.561409 L101.733658,254.472076 L102.809175,254.116249 L103.83791,253.763174 L104.818873,253.413308 C106.891826,252.659072 108.621418,251.93065 109.962363,251.248956 C111.012301,250.715201 111.791694,250.225398 112.271582,249.812087 C112.346349,249.747693 112.410628,249.68788 112.464472,249.633683 L112.537419,249.55673 L112.610333,249.466711 L115.713656,209.373459 L115.715125,125.007407 L115.72919,124.174259 L115.735246,122.832984 L115.729257,121.877774 L115.715246,120.873751 L115.693214,119.82092 L115.645126,118.150174 L115.57899,116.369645 L115.494806,114.479355 L115.428658,113.158193 L115.354489,111.788264 L115.228197,109.641944 L115.133977,108.150123 L114.977608,105.820995 L114.863337,104.20732 L114.610735,100.833786 L114.472404,99.0739389 L114.091491,94.4612187 L113.838884,91.5474905 L113.474008,87.4921173 L113.077055,83.2420437 L112.648027,78.797319 L112.186924,74.1579925 L111.693747,69.3241135 L111.032174,63.0082503 L110.320488,56.388572 L109.71506,50.8741472 L109.077562,45.1653915 L108.235593,37.7562444 L107.343518,30.0436285 L106.399384,22.0111394 C106.363586,21.7124522 106.172213,21.4582448 105.901869,21.3385605 L105.796938,21.3001605 L44.4537398,3.34249097 Z M28.6862979,9.23463208 L11.2111624,37.855833 L9.72642514,264.787 L12.2324251,264.983 L12.2327596,243.780614 C12.2327596,243.097524 12.7879799,242.543771 13.4728789,242.543771 C14.1121179,242.543771 14.6383924,243.026152 14.7057213,243.645846 L14.7129982,243.780614 L14.7124251,265.178 L16.9724251,265.355 L16.9168737,246.937292 L16.8374204,203.602587 L16.815607,162.148994 L16.8215828,161.389124 L16.8297061,161.019538 L16.8460958,160.54747 L16.8602279,160.249113 L16.8983911,159.641638 L16.951294,159.007984 L17.0409678,158.157472 L17.1337966,157.413004 L17.2683489,156.450947 C16.8959376,156.263277 16.6321644,155.89404 16.5921053,155.461693 L16.5869631,155.326828 L18.4529841,37.4854416 C18.4559367,37.2989803 18.5011072,37.1162213 18.5843844,36.9505794 L18.6539231,36.8297671 L36.0524251,10.195 L34.0484251,9.51 L15.9532576,37.8699511 L14.7129429,168.963303 C14.7069094,169.600825 14.2183051,170.121132 13.5963612,170.182431 L13.4611739,170.188416 C12.8219633,170.182399 12.3002773,169.695086 12.2388159,169.074785 L12.2328148,168.939955 L13.4768288,37.4932988 C13.4785796,37.3082983 13.5219059,37.1266539 13.6029044,36.9615023 L13.6706558,36.8409363 L31.0334251,9.629 L28.6862979,9.23463208 Z M51.8420621,73.3282258 L79.7384049,114.338056 C80.1226038,114.902859 80.8919218,115.049267 81.4567246,114.665068 C81.6617931,114.525573 81.8201879,114.327649 81.9113438,114.096992 L92.2760814,87.870555 L84.6462648,114.260064 C83.6455254,117.721356 83.1376621,121.306428 83.1376621,124.909486 L83.1376621,211.412246 C83.1376621,212.763702 83.5067112,214.089503 84.2049874,215.246588 L90.601746,225.846394 L83.3962857,218.170762 C82.5390028,217.257539 81.1344129,217.129228 80.1258525,217.872003 L48.3052705,241.306928 L75.2847805,217.165343 C77.9069394,214.819004 79.4056201,211.466891 79.4056201,207.948224 L79.4056201,125.620328 C79.4056201,121.600485 78.3172376,117.65564 76.2559922,114.204495 L51.8420621,73.3282258 Z M25.2152094,6.49215728 L25.1112431,6.60228638 C24.1711099,7.60486587 23.059336,8.90187085 21.882806,10.3534719 L21.0900321,11.3425747 C20.9566952,11.5107308 20.822852,11.6804119 20.6886493,11.8514262 L19.8802904,12.8919754 L19.0703386,13.9553137 L18.2658315,15.0322342 L17.4738069,16.11353 L16.7013023,17.1899943 C16.1943698,17.9039807 15.7051425,18.6086081 15.2430038,19.2916007 L14.5712852,20.2983291 C14.4631092,20.4629013 14.3569194,20.6257378 14.2528625,20.7866466 L13.9753222,21.2192254 L12.8409771,23.0151218 L12.1256854,24.163532 L11.442632,25.2744355 L10.7913776,26.3491837 L10.1714829,27.3891278 L9.58250868,28.3956193 L9.02401569,29.3700096 C8.93344922,29.5298079 8.84413451,29.688325 8.75606238,29.845589 L8.24246761,30.7743611 L7.75825592,31.6744103 C7.52342263,32.1174795 7.29944327,32.5502842 7.08607076,32.9735848 L6.67339499,33.807739 C6.20826864,34.7666601 5.79999386,35.6765952 5.44543179,36.5472008 L5.25049858,37.0350531 L5.06070401,42.5591615 L4.87693742,48.5681686 L4.7091469,54.7905908 L4.55733309,61.2264013 L4.47391388,65.1903027 L4.37163581,70.5949769 L4.25816863,77.5428093 L4.17889961,83.2546501 L4.10985736,89.102987 L4.02546988,98.1313924 L3.97272557,105.889609 L3.93596245,113.86102 L3.91518116,122.045598 L3.91006346,128.746723 L3.91944093,129.513005 L3.9411422,130.267464 L3.97628486,131.019975 L4.00773263,131.525445 L4.04598219,132.037366 L4.11683425,132.823745 L4.17353702,133.364596 L4.27362108,134.208088 L4.35084665,134.796161 L4.43686083,135.408243 L4.58308511,136.377786 L4.75094641,137.417813 L5.01035069,138.931227 L5.23304453,140.174124 L5.75563674,142.980015 L6.38092279,146.260404 L6.75758487,148.29357 L7.00288396,149.671566 L7.21926391,150.945859 L7.40939268,152.136419 L7.57593825,153.263221 L7.72156859,154.346236 L7.80835343,155.053783 L7.88781888,155.756664 L7.95542514,156.41 L8.73381302,37.4969019 C8.73498642,37.3175629 8.77523896,37.1411761 8.85114758,36.979761 L8.91471107,36.8616947 L26.5679082,7.94807578 C26.753263,7.64448895 26.997171,7.39120833 27.2789859,7.19763455 L25.2152094,6.49215728 Z M21.4884251,37.019 L20.9272854,37.8797252 L19.2274251,145.17 L19.5836756,143.168666 L19.952222,140.976159 L20.1460737,139.750444 L20.3802486,138.172464 C20.8175646,135.099107 21.0832965,132.403682 21.1706715,129.933646 L21.2033438,129.00362 L21.2033438,129.00362 L21.2354894,128.075685 L21.4173023,122.551982 L21.5279769,118.911332 L21.6302245,115.304137 L21.7240452,111.730398 L21.8094393,108.190115 L21.8294712,107.310272 L21.8294712,107.310272 L21.8489765,106.432521 L21.9217309,102.942424 L21.9860592,99.4857863 L22.0419614,96.0626073 L22.0894377,92.672888 L22.1284883,89.316629 L22.1591134,85.9938311 L22.1813131,82.7044948 L22.1950876,79.4486209 L22.2004372,76.22621 L22.1926649,71.4553383 L22.1659373,66.7597622 L22.1375884,63.6712102 L22.1008154,60.6161246 L22.0556184,57.594506 L22.0019976,54.6063552 L21.9399531,51.6516728 L21.9231258,50.9182317 L21.9231258,50.9182317 L21.9057721,50.1868825 L21.8310924,47.282404 L21.8111064,46.561514 L21.8111064,46.561514 L21.7905939,45.842716 L21.7032795,42.9884429 L21.6075422,40.1676409 L21.503382,37.3803107 L21.4884251,37.019 Z" id="形状结合" fill="#999999" fill-rule="nonzero" opacity="0.7"></path>
            <path d="M13.4728789,173.280578 C14.1121179,173.280578 14.6383924,173.762959 14.7057213,174.382653 L14.7129982,174.517421 L14.7129982,238.833243 C14.7129982,239.516332 14.1577778,240.070085 13.4728789,240.070085 C12.8336398,240.070085 12.3073653,239.587705 12.2400364,238.96801 L12.2327596,238.833243 L12.2327596,174.517421 C12.2327596,173.834332 12.7879799,173.280578 13.4728789,173.280578 Z" id="直线" fill="#FF8C31" fill-rule="nonzero"></path>
            <path d="M0.641634533,128.75424 C0.688721474,138.931015 4.99568348,150.666865 4.99568348,162.148994 C4.99568348,211.232966 4.99568348,243.390877 4.99568348,258.622726 C4.99568348,261.052284 4.99568348,263.481841 4.99568348,265.911399 C4.99568348,266.394075 5.17782148,266.858975 5.50569968,267.213196 L5.50569968,267.213196 L5.50569968,267.213196 L3.41938085,266.535717 C1.38052842,265.873652 -4.17837029e-15,263.973871 0,261.830218 L0,130.609504 L0,130.609504 C0.427756355,92.6796609 0.641634533,92.0612396 0.641634533,128.75424 Z" id="路径-5备份-2" fill="#AAAAAA" fill-rule="nonzero" opacity="0.440957932"></path>
            <path d="M1.94686796,203.896533 C1.94686796,228.789223 6.82242381,248.96932 12.834888,248.96932 C18.8490168,248.96932 23.7245727,228.789223 23.7245727,203.896533 C23.7245727,179.010732 18.8490168,158.830635 12.834888,158.830635 C6.82242381,158.830635 1.94686796,179.010732 1.94686796,203.896533" id="Fill-20" fill="#FF8C31" opacity="0.359579904" filter="url(#filter-1)"></path>
        </g>
    </g>
</svg>