<?xml version="1.0" encoding="UTF-8"?>
<svg width="300px" height="300px" viewBox="0 0 300 300" version="1.1" xmlns="http://www.w3.org/2000/svg" xmlns:xlink="http://www.w3.org/1999/xlink">
    <title>img/M6s/img_add_m6s_03</title>
    <defs>
        <filter x="-100.0%" y="-47.3%" width="300.0%" height="194.6%" filterUnits="objectBoundingBox" id="filter-1">
            <feGaussianBlur stdDeviation="6" in="SourceGraphic"></feGaussianBlur>
        </filter>
    </defs>
    <g id="img/M6s/img_add_m6s_03" stroke="none" stroke-width="1" fill="none" fill-rule="evenodd">
        <g id="编组-2" transform="translate(90.500000, 8.497394)">
            <path d="M49.5691841,93.1944638 L41.4409173,93.1944638 C38.920216,93.1944638 36.8767838,95.237896 36.8767838,97.7585973 L36.8767838,105.870142 C36.8767838,108.390843 38.920216,110.434276 41.4409173,110.434276 L49.5691841,110.434276 C52.0898854,110.434276 54.1333175,108.390843 54.1333175,105.870142 L54.1333175,97.7585973 C54.1333175,95.237896 52.0898854,93.1944638 49.5691841,93.1944638 Z M41.4409173,94.1944638 L49.5691841,94.1944638 C51.5376006,94.1944638 53.1333175,95.7901807 53.1333175,97.7585973 L53.1333175,105.870142 C53.1333175,107.838559 51.5376006,109.434276 49.5691841,109.434276 L41.4409173,109.434276 C39.4725007,109.434276 37.8767838,107.838559 37.8767838,105.870142 L37.8767838,97.7585973 C37.8767838,95.7901807 39.4725007,94.1944638 41.4409173,94.1944638 Z" id="矩形备份-9" fill-opacity="0.7" fill="#999999" fill-rule="nonzero"></path>
            <path d="M37.4865154,89.9620138 C37.7994537,89.9620138 38.0676865,89.8726948 38.2912139,89.6940569 C38.5309977,89.5032391 38.6813707,89.2393422 38.7463968,88.8983061 L38.2830856,88.8983061 C38.2261877,89.1175436 38.1286485,89.2840017 37.990468,89.3936204 C37.8604157,89.4910593 37.6897221,89.5438386 37.4824513,89.5438386 C37.1654489,89.5438386 36.9297292,89.4423398 36.7793562,89.2474621 C36.6411757,89.0647642 36.5720854,88.8008673 36.5720854,88.4598312 C36.5720854,88.1269151 36.6411757,87.8670781 36.7834204,87.6803202 C36.9378574,87.4692027 37.1654489,87.3677039 37.4702589,87.3677039 C37.6734656,87.3677039 37.840095,87.4083034 37.9701473,87.4976224 C38.1042637,87.5869413 38.1936747,87.7249797 38.2424443,87.9157975 L38.7057555,87.9157975 C38.66105,87.6234809 38.5350619,87.3880036 38.3237269,87.2174856 C38.1042637,87.0388477 37.8197744,86.9495287 37.4783872,86.9495287 C37.015076,86.9495287 36.6614964,87.099747 36.4176483,87.4083034 C36.2022493,87.6762603 36.0965818,88.0294762 36.0965818,88.4598312 C36.0965818,88.8983061 36.1981851,89.2474621 36.4054559,89.5072991 C36.6411757,89.8077356 37.0028836,89.9620138 37.4865154,89.9620138 Z M40.4817818,89.9620138 C40.9247723,89.9620138 41.2742878,89.8199154 41.5303282,89.5357187 C41.7741762,89.2637019 41.8961002,88.906426 41.8961002,88.4598312 C41.8961002,88.0132364 41.7741762,87.6519006 41.5303282,87.3798837 C41.2742878,87.0916271 40.9247723,86.9495287 40.4817818,86.9495287 C40.0347271,86.9495287 39.6852116,87.0916271 39.4332353,87.3839437 C39.1893873,87.6600205 39.0715275,88.0172963 39.0715275,88.4598312 C39.0715275,88.8983061 39.1893873,89.255582 39.4332353,89.5316588 C39.6852116,89.8158555 40.0347271,89.9620138 40.4817818,89.9620138 Z M40.4817818,89.5438386 C40.1810359,89.5438386 39.9453162,89.4423398 39.7827508,89.2434021 C39.6242496,89.0485244 39.5470311,88.7886874 39.5470311,88.4598312 C39.5470311,88.1269151 39.6242496,87.8670781 39.7827508,87.6722003 C39.9493803,87.4692027 40.1810359,87.3677039 40.4817818,87.3677039 C40.7825276,87.3677039 41.0141832,87.4610828 41.1767486,87.6559605 C41.3352498,87.8508383 41.4165325,88.1187952 41.4165325,88.4598312 C41.4165325,88.8008673 41.3352498,89.0647642 41.1767486,89.255582 C41.0141832,89.4463998 40.7825276,89.5438386 40.4817818,89.5438386 Z M42.8186585,89.9051744 L42.8186585,87.785879 L42.834915,87.785879 L44.2858106,89.9051744 L44.7491219,89.9051744 L44.7491219,87.0063681 L44.2695541,87.0063681 L44.2695541,89.0972438 L44.2532976,89.0972438 L42.8186585,87.0063681 L42.3431549,87.0063681 L42.3431549,89.9051744 L42.8186585,89.9051744 Z M45.7936041,89.9051744 L45.7936041,87.785879 L45.8098607,87.785879 L47.2607563,89.9051744 L47.7240675,89.9051744 L47.7240675,87.0063681 L47.2444998,87.0063681 L47.2444998,89.0972438 L47.2282432,89.0972438 L45.7936041,87.0063681 L45.3181005,87.0063681 L45.3181005,89.9051744 L45.7936041,89.9051744 Z M50.4551652,89.9051744 L50.4551652,89.4991792 L48.7685498,89.4991792 L48.7685498,88.6222293 L50.2885357,88.6222293 L50.2885357,88.216234 L48.7685498,88.216234 L48.7685498,87.4123634 L50.3860749,87.4123634 L50.3860749,87.0063681 L48.2930462,87.0063681 L48.2930462,89.9051744 L50.4551652,89.9051744 Z M52.1702295,89.9620138 C52.4831678,89.9620138 52.7514006,89.8726948 52.9749279,89.6940569 C53.2147118,89.5032391 53.3650847,89.2393422 53.4301108,88.8983061 L52.9667996,88.8983061 C52.9099018,89.1175436 52.8123626,89.2840017 52.674182,89.3936204 C52.5441298,89.4910593 52.3734362,89.5438386 52.1661653,89.5438386 C51.8491629,89.5438386 51.6134432,89.4423398 51.4630703,89.2474621 C51.3248897,89.0647642 51.2557995,88.8008673 51.2557995,88.4598312 C51.2557995,88.1269151 51.3248897,87.8670781 51.4671344,87.6803202 C51.6215715,87.4692027 51.8491629,87.3677039 52.1539729,87.3677039 C52.3571796,87.3677039 52.5238091,87.4083034 52.6538614,87.4976224 C52.7879778,87.5869413 52.8773887,87.7249797 52.9261583,87.9157975 L53.3894695,87.9157975 C53.344764,87.6234809 53.2187759,87.3880036 53.007441,87.2174856 C52.7879778,87.0388477 52.5034884,86.9495287 52.1621012,86.9495287 C51.69879,86.9495287 51.3452104,87.099747 51.1013624,87.4083034 C50.8859633,87.6762603 50.7802959,88.0294762 50.7802959,88.4598312 C50.7802959,88.8983061 50.8818992,89.2474621 51.08917,89.5072991 C51.3248897,89.8077356 51.6865976,89.9620138 52.1702295,89.9620138 Z M55.080149,89.9051744 L55.080149,87.4123634 L56.0311562,87.4123634 L56.0311562,87.0063681 L53.6536382,87.0063681 L53.6536382,87.4123634 L54.6046454,87.4123634 L54.6046454,89.9051744 L55.080149,89.9051744 Z" id="CONNECT" fill="#999999" fill-rule="nonzero"></path>
            <path d="M47.1707463,232.544854 L47.739725,230.364659 L47.7559816,230.364659 L48.3208961,232.544854 L48.8248486,232.544854 L49.6620601,229.646047 L49.1255945,229.646047 L48.5810006,231.850602 L48.5647441,231.850602 L47.9917013,229.646047 L47.4999412,229.646047 L46.9268983,231.850602 L46.9106418,231.850602 L46.3660479,229.646047 L45.8295823,229.646047 L46.6627297,232.544854 L47.1707463,232.544854 Z M50.1903975,232.544854 L50.4545661,231.818122 L51.669742,231.818122 L51.9339107,232.544854 L52.4419274,232.544854 L51.332419,229.646047 L50.7918892,229.646047 L49.6823808,232.544854 L50.1903975,232.544854 Z M51.5274974,231.428367 L50.5968108,231.428367 L51.0560579,230.157602 L51.0723144,230.157602 L51.5274974,231.428367 Z M53.2019203,232.544854 L53.2019203,230.425558 L53.2181769,230.425558 L54.6690725,232.544854 L55.1323837,232.544854 L55.1323837,229.646047 L54.652816,229.646047 L54.652816,231.736923 L54.6365594,231.736923 L53.2019203,229.646047 L52.7264167,229.646047 L52.7264167,232.544854 L53.2019203,232.544854 Z M37.1956892,229.502606 C36.8716722,229.502606 36.6073425,229.603684 36.4112269,229.813926 C36.2193747,230.007996 36.1213169,230.266757 36.1170535,230.590207 L36.5817622,230.590207 C36.590289,230.355705 36.6414495,230.181851 36.7437707,230.060557 C36.8418285,229.93522 36.9867835,229.874573 37.1786357,229.874573 C37.3576978,229.874573 37.4983894,229.915005 37.5921838,229.995867 C37.6859782,230.07673 37.7328754,230.198023 37.7328754,230.359749 C37.7328754,230.52956 37.6603979,230.687242 37.5239697,230.832794 C37.438702,230.9177 37.293747,231.026864 37.0891047,231.164331 C36.7437707,231.390746 36.5135481,231.5646 36.4027001,231.689937 C36.1980578,231.908266 36.1,232.15894 36.1,232.446002 L38.1975841,232.446002 L38.1975841,232.057862 L36.6755566,232.057862 C36.7395073,231.90018 36.9356229,231.718239 37.2639034,231.51204 C37.5666035,231.31797 37.7755092,231.164331 37.8948839,231.04708 C38.0909995,230.840881 38.1933207,230.614465 38.1933207,230.363792 C38.1933207,230.109075 38.0995263,229.902875 37.9162009,229.74115 C37.728612,229.579425 37.4855992,229.502606 37.1956892,229.502606 Z M39.0076267,231.867835 C38.9138323,231.867835 38.8413548,231.896137 38.7859308,231.95274 C38.7219801,232.009344 38.6921364,232.08212 38.6921364,232.171069 C38.6921364,232.251932 38.7219801,232.324708 38.7859308,232.385355 C38.8413548,232.437916 38.9138323,232.466218 39.0076267,232.466218 C39.0928944,232.466218 39.1696352,232.437916 39.233586,232.385355 C39.2932733,232.324708 39.3273804,232.251932 39.3273804,232.171069 C39.3273804,232.08212 39.2932733,232.009344 39.233586,231.95274 C39.1696352,231.896137 39.0928944,231.867835 39.0076267,231.867835 Z M39.992468,229.559209 L39.8261961,231.17646 L40.2610611,231.17646 C40.3207485,231.071339 40.4017527,230.994519 40.5126007,230.946002 C40.6149218,230.897484 40.7300332,230.877269 40.8664614,230.877269 C41.0711037,230.877269 41.2245855,230.933873 41.3354334,231.04708 C41.4462814,231.160288 41.5017054,231.31797 41.5017054,231.520126 C41.5017054,231.70611 41.4377546,231.851662 41.3098532,231.96487 C41.1819517,232.074034 41.0242065,232.130638 40.8366177,232.130638 C40.6660824,232.130638 40.5296542,232.09425 40.427333,232.021474 C40.3122217,231.940611 40.2440076,231.815274 40.2269541,231.653549 L39.7707721,231.653549 C39.7920891,231.920395 39.9114638,232.134681 40.1288963,232.28832 C40.3250118,232.429829 40.5594979,232.502606 40.8323543,232.502606 C41.1350545,232.502606 41.3951208,232.4177 41.6125533,232.247889 C41.8427759,232.057862 41.9621506,231.815274 41.9621506,231.516083 C41.9621506,231.204762 41.8683562,230.962174 41.6892942,230.784277 C41.5102321,230.606379 41.2757461,230.51743 40.9900995,230.51743 C40.8536712,230.51743 40.7257698,230.537646 40.6149218,230.58212 C40.4912838,230.622552 40.3846992,230.687242 40.2909048,230.780234 L40.2781146,230.780234 L40.3676457,229.94735 L41.8257224,229.94735 L41.8257224,229.559209 L39.992468,229.559209 Z M43.761298,229.502606 C43.3136428,229.502606 42.9555187,229.648158 42.691189,229.94735 C42.4396495,230.226325 42.3160114,230.58212 42.3160114,231.014735 C42.3160114,231.443306 42.4396495,231.795058 42.691189,232.065948 C42.9597821,232.357053 43.3349597,232.502606 43.8209853,232.502606 C44.085315,232.502606 44.3283278,232.470261 44.5500237,232.405571 C44.7589294,232.340881 44.9422549,232.251932 45.1,232.134681 L45.1,230.921743 L43.795405,230.921743 L43.795405,231.297754 L44.6352913,231.297754 L44.6352913,231.924439 C44.5329702,231.985085 44.4221222,232.033603 44.2942207,232.065948 C44.1620559,232.098293 44.0213643,232.118509 43.8721459,232.118509 C43.4927049,232.118509 43.2113216,232.01743 43.0322596,231.815274 C42.8617243,231.62929 42.78072,231.362444 42.78072,231.014735 C42.78072,230.65894 42.8702511,230.379964 43.0578399,230.177808 C43.2326386,229.983738 43.4671246,229.890746 43.761298,229.890746 C44.0000474,229.890746 44.196163,229.939263 44.341118,230.040342 C44.486073,230.137377 44.5798674,230.282929 44.6225012,230.476999 L45.0914732,230.476999 C45.0360493,230.153549 44.899621,229.915005 44.6821885,229.75328 C44.4562293,229.583468 44.1492658,229.502606 43.761298,229.502606 Z" id="形状结合" fill="#999999" fill-rule="nonzero"></path>
            <path d="M43.940195,119.136836 L43.940195,118.73084 L42.3714395,118.73084 L42.3714395,116.238029 L41.9,116.238029 L41.9,119.136836 L43.940195,119.136836 Z M44.5294943,119.136836 L44.793663,118.410104 L46.0088389,118.410104 L46.2730076,119.136836 L46.7810242,119.136836 L45.6715158,116.238029 L45.1309861,116.238029 L44.0214776,119.136836 L44.5294943,119.136836 Z M45.8665942,118.020348 L44.9359077,118.020348 L45.3951547,116.749583 L45.4114113,116.749583 L45.8665942,118.020348 Z M47.5410172,119.136836 L47.5410172,117.01754 L47.5572737,117.01754 L49.0081693,119.136836 L49.4714806,119.136836 L49.4714806,116.238029 L48.9919128,116.238029 L48.9919128,118.328905 L48.9756563,118.328905 L47.5410172,116.238029 L47.0655136,116.238029 L47.0655136,119.136836 L47.5410172,119.136836 Z" id="LAN" fill="#999999" fill-rule="nonzero"></path>
            <path d="M38.7177247,259.949536 L38.7177247,258.837109 L39.4370763,258.837109 C40.1442355,258.837109 40.4978151,258.536672 40.4978151,257.939859 C40.4978151,257.347106 40.1442355,257.05073 39.4452046,257.05073 L38.2422211,257.05073 L38.2422211,259.949536 L38.7177247,259.949536 Z M39.4086274,258.431114 L38.7177247,258.431114 L38.7177247,257.456725 L39.4086274,257.456725 C39.6158982,257.456725 39.7703352,257.493265 39.8678744,257.570404 C39.9654136,257.643483 40.0182474,257.765281 40.0182474,257.939859 C40.0182474,258.114437 39.9694778,258.240296 39.8719386,258.317435 C39.7743994,258.390514 39.6199623,258.431114 39.4086274,258.431114 Z M42.1925588,260.006375 C42.6355493,260.006375 42.9850648,259.864277 43.2411052,259.58008 C43.4849532,259.308064 43.6068772,258.950788 43.6068772,258.504193 C43.6068772,258.057598 43.4849532,257.696262 43.2411052,257.424245 C42.9850648,257.135989 42.6355493,256.99389 42.1925588,256.99389 C41.7455041,256.99389 41.3959886,257.135989 41.1440123,257.428305 C40.9001643,257.704382 40.7823045,258.061658 40.7823045,258.504193 C40.7823045,258.942668 40.9001643,259.299944 41.1440123,259.57602 C41.3959886,259.860217 41.7455041,260.006375 42.1925588,260.006375 Z M42.1925588,259.5882 C41.8918129,259.5882 41.6560931,259.486701 41.4935278,259.287764 C41.3350266,259.092886 41.2578081,258.833049 41.2578081,258.504193 C41.2578081,258.171277 41.3350266,257.91144 41.4935278,257.716562 C41.6601573,257.513564 41.8918129,257.412066 42.1925588,257.412066 C42.4933046,257.412066 42.7249602,257.505444 42.8875256,257.700322 C43.0460268,257.8952 43.1273094,258.163157 43.1273094,258.504193 C43.1273094,258.845229 43.0460268,259.109126 42.8875256,259.299944 C42.7249602,259.490761 42.4933046,259.5882 42.1925588,259.5882 Z M45.1309272,259.949536 L45.6999059,257.769341 L45.7161624,257.769341 L46.281077,259.949536 L46.7850295,259.949536 L47.622241,257.05073 L47.0857754,257.05073 L46.5411815,259.255284 L46.524925,259.255284 L45.9518822,257.05073 L45.460122,257.05073 L44.8870792,259.255284 L44.8708227,259.255284 L44.3262288,257.05073 L43.7897632,257.05073 L44.6229105,259.949536 L45.1309272,259.949536 Z M50.08917,259.949536 L50.08917,259.543541 L48.4025546,259.543541 L48.4025546,258.666591 L49.9225405,258.666591 L49.9225405,258.260596 L48.4025546,258.260596 L48.4025546,257.456725 L50.0200797,257.456725 L50.0200797,257.05073 L47.927051,257.05073 L47.927051,259.949536 L50.08917,259.949536 Z M51.0117283,259.949536 L51.0117283,258.76809 L51.763593,258.76809 C51.9261583,258.76809 52.0521464,258.800569 52.1374932,258.873649 C52.2187759,258.942668 52.2675455,259.056346 52.283802,259.214685 L52.3203792,259.57196 C52.3366358,259.734359 52.3772771,259.860217 52.4463674,259.949536 L52.9625123,259.949536 C52.8649731,259.843977 52.8040111,259.701879 52.7877546,259.523241 L52.738985,259.056346 C52.7064719,258.77215 52.5642272,258.605692 52.312251,258.548852 L52.312251,258.540732 C52.466688,258.500133 52.5926762,258.414874 52.6820871,258.284955 C52.7633698,258.167217 52.8040111,258.033238 52.8040111,257.88302 C52.8040111,257.606943 52.710536,257.395826 52.5317142,257.249667 C52.3610206,257.115689 52.1253008,257.05073 51.8286191,257.05073 L50.5362247,257.05073 L50.5362247,259.949536 L51.0117283,259.949536 Z M51.763593,258.362095 L51.0117283,258.362095 L51.0117283,257.456725 L51.763593,257.456725 C51.9586714,257.456725 52.100916,257.489205 52.190327,257.562284 C52.2797379,257.631303 52.3244434,257.744982 52.3244434,257.90332 C52.3244434,258.049478 52.2797379,258.163157 52.190327,258.244356 C52.0927878,258.321495 51.9505431,258.362095 51.763593,258.362095 Z" id="POWER" fill="#999999" fill-rule="nonzero"></path>
            <path d="M39.666923,70.6203981 L39.666923,69.4389518 L40.4187877,69.4389518 C40.581353,69.4389518 40.7073412,69.4714314 40.792688,69.5445105 C40.8739706,69.6135297 40.9227402,69.7272084 40.9389968,69.8855466 L40.975574,70.2428224 C40.9918305,70.4052206 41.0324718,70.5310791 41.1015621,70.6203981 L41.6177071,70.6203981 C41.5201679,70.5148393 41.4592059,70.3727409 41.4429493,70.194103 L41.3941797,69.7272084 C41.3616667,69.4430117 41.219422,69.2765536 40.9674457,69.2197143 L40.9674457,69.2115944 C41.1218828,69.1709949 41.2478709,69.0857359 41.3372819,68.9558174 C41.4185645,68.8380787 41.4592059,68.7041003 41.4592059,68.553882 C41.4592059,68.2778052 41.3657308,68.0666877 41.1869089,67.9205294 C41.0162153,67.7865509 40.7804956,67.7215917 40.4838138,67.7215917 L39.1914194,67.7215917 L39.1914194,70.6203981 L39.666923,70.6203981 Z M40.4187877,69.0329565 L39.666923,69.0329565 L39.666923,68.127587 L40.4187877,68.127587 C40.6138661,68.127587 40.7561108,68.1600666 40.8455217,68.2331457 C40.9349326,68.3021649 40.9796381,68.4158436 40.9796381,68.5741818 C40.9796381,68.7203401 40.9349326,68.8340188 40.8455217,68.9152178 C40.7479825,68.9923569 40.6057378,69.0329565 40.4187877,69.0329565 Z M44.1862394,70.6203981 L44.1862394,70.2144028 L42.499624,70.2144028 L42.499624,69.3374529 L44.0196099,69.3374529 L44.0196099,68.9314576 L42.499624,68.9314576 L42.499624,68.127587 L44.1171491,68.127587 L44.1171491,67.7215917 L42.0241204,67.7215917 L42.0241204,70.6203981 L44.1862394,70.6203981 Z M45.7062253,70.6772374 C46.0760614,70.6772374 46.3646149,70.6000983 46.5678216,70.45394 C46.7710282,70.3037217 46.8726316,70.0966641 46.8726316,69.8368271 C46.8726316,69.5688702 46.7466434,69.3618126 46.4946672,69.2115944 C46.3808714,69.1466351 46.1288952,69.0491963 45.7346742,68.9273977 C45.4664414,68.8421387 45.2998119,68.7812394 45.2388499,68.7487598 C45.1006694,68.6756806 45.0356433,68.5741818 45.0356433,68.4523832 C45.0356433,68.3143448 45.0925411,68.212846 45.2144651,68.1519467 C45.3120043,68.0991673 45.4501849,68.0748076 45.6330709,68.0748076 C45.8444058,68.0748076 46.0069712,68.1113471 46.1126386,68.1925462 C46.2183061,68.2696853 46.2955246,68.3996038 46.336166,68.5782417 L46.8076054,68.5782417 C46.7791565,68.2615654 46.6612966,68.0260881 46.45809,67.8758699 C46.2670757,67.7337715 45.9988429,67.6647523 45.6574557,67.6647523 C45.3445174,67.6647523 45.088477,67.7337715 44.8852703,67.8758699 C44.6658071,68.0220282 44.5601397,68.2250258 44.5601397,68.4808029 C44.5601397,68.7365799 44.6698713,68.9314576 44.8933986,69.0654361 C44.9787454,69.1141555 45.2022727,69.1953546 45.5599165,69.3090333 C45.880983,69.4064721 46.0679332,69.4714314 46.124831,69.499851 C46.3036529,69.58917 46.397128,69.7109686 46.397128,69.8652468 C46.397128,69.9870454 46.3321018,70.0804243 46.2101778,70.1535035 C46.0882538,70.2225227 45.9175602,70.2590622 45.7062253,70.2590622 C45.4664414,70.2590622 45.2916837,70.2144028 45.1778879,70.1332037 C45.0518998,70.0398248 44.9746813,69.8814866 44.9421682,69.6622492 L44.4707287,69.6622492 C44.4910494,70.0317049 44.6251658,70.2996618 44.8690138,70.4701798 C45.0681563,70.6082182 45.3485815,70.6772374 45.7062253,70.6772374 Z M49.4411639,70.6203981 L49.4411639,70.2144028 L47.7545485,70.2144028 L47.7545485,69.3374529 L49.2745344,69.3374529 L49.2745344,68.9314576 L47.7545485,68.9314576 L47.7545485,68.127587 L49.3720736,68.127587 L49.3720736,67.7215917 L47.2790449,67.7215917 L47.2790449,70.6203981 L49.4411639,70.6203981 Z M51.0912021,70.6203981 L51.0912021,68.127587 L52.0422093,68.127587 L52.0422093,67.7215917 L49.6646912,67.7215917 L49.6646912,68.127587 L50.6156984,68.127587 L50.6156984,70.6203981 L51.0912021,70.6203981 Z" id="RESET" fill="#999999" fill-rule="nonzero"></path>
            <ellipse id="椭圆形备份-2" fill-opacity="0.5" fill="#999999" cx="46.0130674" cy="74.9171816" rx="1.52405003" ry="1.52248235"></ellipse>
            <ellipse id="椭圆形备份-3" fill-opacity="0.5" fill="#999999" cx="43.472984" cy="248.514002" rx="5.08016677" ry="5.07494116"></ellipse>
            <path d="M45.0130674,187.719113 L45.0136808,189.559113 L47.7999017,189.559625 L47.8006808,193.240113 L49.6577913,193.240649 L49.6586808,194.160113 L51.5156808,194.160905 L51.5156808,199.682441 L49.6586808,199.682113 L49.6577913,200.602697 L47.8006808,200.602113 L47.7999017,204.283721 L45.0136808,204.283113 L45.0130674,206.124233 L40.3683434,206.124233 L40.3686808,204.283113 L38.5104539,204.283721 L38.5104539,189.559625 L40.3686808,189.559113 L40.3683434,187.719113 L45.0130674,187.719113 Z M44.5795598,201.224169 L40.2444841,201.224169 L40.2444841,202.180279 L44.5795598,202.180279 L44.5795598,201.224169 Z M44.5795598,199.311948 L40.2444841,199.311948 L40.2444841,200.268059 L44.5795598,200.268059 L44.5795598,199.311948 Z M44.5795598,197.399728 L40.2444841,197.399728 L40.2444841,198.355838 L44.5795598,198.355838 L44.5795598,197.399728 Z M44.5795598,195.487508 L40.2444841,195.487508 L40.2444841,196.443618 L44.5795598,196.443618 L44.5795598,195.487508 Z M44.5795598,193.575288 L40.2444841,193.575288 L40.2444841,194.531398 L44.5795598,194.531398 L44.5795598,193.575288 Z M44.5795598,191.663067 L40.2444841,191.663067 L40.2444841,192.619178 L44.5795598,192.619178 L44.5795598,191.663067 Z" id="形状结合备份-2" fill-opacity="0.5" fill="#999999"></path>
            <path d="M45.0130674,166.066031 L45.0136808,167.906031 L47.7999017,167.906543 L47.8006808,171.587031 L49.6577913,171.587567 L49.6586808,172.507031 L51.5156808,172.507823 L51.5156808,178.029359 L49.6586808,178.029031 L49.6577913,178.949615 L47.8006808,178.949031 L47.7999017,182.630639 L45.0136808,182.630031 L45.0130674,184.471151 L40.3683434,184.471151 L40.3686808,182.630031 L38.5104539,182.630639 L38.5104539,167.906543 L40.3686808,167.906031 L40.3683434,166.066031 L45.0130674,166.066031 Z M44.5795598,179.571086 L40.2444841,179.571086 L40.2444841,180.527197 L44.5795598,180.527197 L44.5795598,179.571086 Z M44.5795598,177.658866 L40.2444841,177.658866 L40.2444841,178.614976 L44.5795598,178.614976 L44.5795598,177.658866 Z M44.5795598,175.746646 L40.2444841,175.746646 L40.2444841,176.702756 L44.5795598,176.702756 L44.5795598,175.746646 Z M44.5795598,173.834426 L40.2444841,173.834426 L40.2444841,174.790536 L44.5795598,174.790536 L44.5795598,173.834426 Z M44.5795598,171.922205 L40.2444841,171.922205 L40.2444841,172.878316 L44.5795598,172.878316 L44.5795598,171.922205 Z M44.5795598,170.009985 L40.2444841,170.009985 L40.2444841,170.966095 L44.5795598,170.966095 L44.5795598,170.009985 Z" id="形状结合备份" fill-opacity="0.5" fill="#999999"></path>
            <path d="M45.0130674,144.412949 L45.0136808,146.252949 L47.7999017,146.253461 L47.8006808,149.933949 L49.6577913,149.934485 L49.6586808,150.853949 L51.5156808,150.854741 L51.5156808,156.376277 L49.6586808,156.375949 L49.6577913,157.296533 L47.8006808,157.295949 L47.7999017,160.977557 L45.0136808,160.976949 L45.0130674,162.818069 L40.3683434,162.818069 L40.3686808,160.976949 L38.5104539,160.977557 L38.5104539,146.253461 L40.3686808,146.252949 L40.3683434,144.412949 L45.0130674,144.412949 Z M44.5795598,157.918004 L40.2444841,157.918004 L40.2444841,158.874114 L44.5795598,158.874114 L44.5795598,157.918004 Z M44.5795598,156.005784 L40.2444841,156.005784 L40.2444841,156.961894 L44.5795598,156.961894 L44.5795598,156.005784 Z M44.5795598,154.093564 L40.2444841,154.093564 L40.2444841,155.049674 L44.5795598,155.049674 L44.5795598,154.093564 Z M44.5795598,152.181343 L40.2444841,152.181343 L40.2444841,153.137454 L44.5795598,153.137454 L44.5795598,152.181343 Z M44.5795598,150.269123 L40.2444841,150.269123 L40.2444841,151.225233 L44.5795598,151.225233 L44.5795598,150.269123 Z M44.5795598,148.356903 L40.2444841,148.356903 L40.2444841,149.313013 L44.5795598,149.313013 L44.5795598,148.356903 Z" id="形状结合" fill-opacity="0.5" fill="#999999"></path>
            <path d="M45.0130674,122.759866 L45.0136808,124.599866 L47.7999017,124.600378 L47.8006808,128.280866 L49.6577913,128.281402 L49.6586808,129.200866 L51.5156808,129.201658 L51.5156808,134.723194 L49.6586808,134.722866 L49.6577913,135.64345 L47.8006808,135.642866 L47.7999017,139.324474 L45.0136808,139.323866 L45.0130674,141.164986 L40.3683434,141.164986 L40.3686808,139.323866 L38.5104539,139.324474 L38.5104539,124.600378 L40.3686808,124.599866 L40.3683434,122.759866 L45.0130674,122.759866 Z M44.5795598,136.264922 L40.2444841,136.264922 L40.2444841,137.221032 L44.5795598,137.221032 L44.5795598,136.264922 Z M44.5795598,134.352702 L40.2444841,134.352702 L40.2444841,135.308812 L44.5795598,135.308812 L44.5795598,134.352702 Z M44.5795598,132.440481 L40.2444841,132.440481 L40.2444841,133.396591 L44.5795598,133.396591 L44.5795598,132.440481 Z M44.5795598,130.528261 L40.2444841,130.528261 L40.2444841,131.484371 L44.5795598,131.484371 L44.5795598,130.528261 Z M44.5795598,128.616041 L40.2444841,128.616041 L40.2444841,129.572151 L44.5795598,129.572151 L44.5795598,128.616041 Z M44.5795598,126.703821 L40.2444841,126.703821 L40.2444841,127.659931 L44.5795598,127.659931 L44.5795598,126.703821 Z" id="形状结合" fill-opacity="0.5" fill="#999999"></path>
            <path d="M45.0130674,208.289541 L45.0136808,210.129541 L47.7999017,210.130053 L47.8006808,213.810541 L49.6577913,213.811077 L49.6586808,214.730541 L51.5156808,214.731333 L51.5156808,220.252869 L49.6586808,220.252541 L49.6577913,221.173125 L47.8006808,221.172541 L47.7999017,224.854149 L45.0136808,224.853541 L45.0130674,226.694661 L40.3683434,226.694661 L40.3686808,224.853541 L38.5104539,224.854149 L38.5104539,210.130053 L40.3686808,210.129541 L40.3683434,208.289541 L45.0130674,208.289541 Z M44.5795598,221.794597 L40.2444841,221.794597 L40.2444841,222.750707 L44.5795598,222.750707 L44.5795598,221.794597 Z M44.5795598,219.882377 L40.2444841,219.882377 L40.2444841,220.838487 L44.5795598,220.838487 L44.5795598,219.882377 Z M44.5795598,217.970156 L40.2444841,217.970156 L40.2444841,218.926266 L44.5795598,218.926266 L44.5795598,217.970156 Z M44.5795598,216.057936 L40.2444841,216.057936 L40.2444841,217.014046 L44.5795598,217.014046 L44.5795598,216.057936 Z M44.5795598,214.145716 L40.2444841,214.145716 L40.2444841,215.101826 L44.5795598,215.101826 L44.5795598,214.145716 Z M44.5795598,212.233496 L40.2444841,212.233496 L40.2444841,213.189606 L44.5795598,213.189606 L44.5795598,212.233496 Z" id="形状结合" fill-opacity="0.5" fill="#FF5B5B"></path>
            <polygon id="直线-15" fill="#999999" fill-rule="nonzero" points="35.8687672 207.745308 35.8687672 208.760296 33.8361586 208.759413 33.8361586 230.243601 35.4088505 230.244214 35.4088505 231.259202 32.8206671 231.259202 32.8206671 207.745308"></polygon>
            <polygon id="直线-15备份" fill="#999999" fill-rule="nonzero" points="58.1894343 207.745308 58.1894343 231.259202 56.1092675 231.259202 56.1092675 230.244214 57.1734009 230.243601 57.1734009 208.759413 55.1413342 208.760296 55.1413342 207.745308"></polygon>
            <polygon id="直线-15" fill="#999999" fill-rule="nonzero" transform="translate(35.614759, 161.529511) scale(1, -1) translate(-35.614759, -161.529511) " points="35.8687672 117.34369 35.8687672 118.358678 33.8361586 118.357795 33.8361586 204.69946 38.4088505 204.700343 38.4088505 205.715332 32.8206671 205.715332 32.8206671 117.34369"></polygon>
            <polygon id="直线-15备份" fill="#999999" fill-rule="nonzero" transform="translate(55.649351, 161.529511) scale(1, -1) translate(-55.649351, -161.529511) " points="58.1894343 117.34369 58.1894343 205.715332 53.1092675 205.715332 53.1092675 204.700343 57.1734009 204.69946 57.1734009 118.357795 55.1413342 118.358678 55.1413342 117.34369"></polygon>
            <path d="M61.4473893,1.10113986 L68.8289908,27.5517537 L84.418049,82.9784577 L89.8147002,102.092583 C90.6024906,104.875225 91.0021124,107.755684 91.0021124,110.651585 L91.0021124,216.642307 C91.0021124,218.291967 90.8725233,219.939078 90.6145408,221.568441 L82.1596482,274.967763 C81.6549857,278.155105 79.168059,280.662305 75.9849195,281.192828 L68.2487109,282.482197 C67.361085,282.630134 66.5438662,281.968671 66.5036138,281.069703 L66.476,280.502 L24.525,280.502 L24.4984986,281.069703 C24.4602589,281.923723 23.7208069,282.563394 22.885929,282.498388 L22.7534015,282.482197 L15.0171929,281.192828 C11.922474,280.677042 9.48582648,278.292869 8.88908046,275.231773 L8.84246424,274.967763 L0.387571632,221.568441 C0.166443796,220.171845 0.0396457451,218.762208 0.00793054359,217.349104 L0,216.642307 L0,110.651585 C0,107.978446 0.340506167,105.318464 1.01251022,102.73643 L1.18741223,102.092583 L6.58406343,82.9784577 L22.1731216,27.5517537 L29.5547231,1.10113986 C30.0495194,-0.680126536 32.7002139,-0.163829483 32.490299,1.67292554 C31.5111812,10.2402063 30.6120334,18.897608 29.7928583,27.6451304 L28.6849143,27.5140471 C30.2633003,27.71012 31.868372,27.8770425 33.5001278,28.0147997 L33.5,12.0963557 L37.5,12.0963557 L37.4991834,28.2911276 C39.4625804,28.3974763 41.4626489,28.4637249 43.4993864,28.4898494 L43.5,12.0963557 L47.5,12.0963557 L47.5016136,28.4898366 C49.5383515,28.4636988 51.53842,28.3974364 53.5018165,28.2910734 L53.5,12.0963557 L57.5,12.0963557 L57.5008696,28.0147155 C58.7525567,27.9090349 59.9885424,27.7861929 61.208826,27.6461961 C60.390079,18.897608 59.4909312,10.2402063 58.5118134,1.67292554 C58.3018986,-0.163829483 60.9525931,-0.680126536 61.4473893,1.10113986 Z M27.582,19.3526057 L21.7681007,40.1081896 L4.07417964,102.909022 C3.42086764,105.216659 3.06268503,107.598308 3.00752481,109.997071 L3,110.651661 L3,216.642307 C3,217.921635 3.0861409,219.199269 3.25774135,220.466549 L3.35066005,221.099286 L11.8055527,274.498608 C12.0971354,276.340183 13.4916076,277.803342 15.2999388,278.193437 L15.5103898,278.233647 L21.579,279.244606 L21.6919009,276.981128 L21.7267507,276.313505 L21.7267507,276.313505 L21.7622213,275.6493 L21.9102928,273.025774 L21.9488531,272.377998 L21.9488531,272.377998 L21.9880284,271.733378 L22.1508614,269.185577 L22.2359433,267.929472 L22.2359433,267.929472 L22.3234587,266.684767 L22.505759,264.228157 L22.6005287,263.015554 L22.6005287,263.015554 L22.6977011,261.812954 L22.8992236,259.436365 L23.0035583,258.261679 L23.0035583,258.261679 L23.1102652,257.095599 L23.3307646,254.787861 L23.5606605,252.51036 L23.6736783,251.433217 L23.8207983,250.126868 L25.1702843,239.050927 L25.623128,235.272753 L26.0570083,231.486309 L26.3232185,228.940303 L26.4240384,227.826085 L26.4533452,227.451396 L26.4911726,226.836639 L26.4990048,226.601265 L26.5,142.740593 C26.5,140.314266 26.3059218,137.892314 25.9198524,135.497882 L25.7660809,134.601306 L22.3596849,115.866128 C21.7808357,112.682107 21.5510257,109.44469 21.6743919,106.211353 C22.7568894,77.8231286 24.5877504,50.2755157 27.1670524,23.5684861 L27.4801611,20.3676773 L27.582,19.3526057 Z M63.4201124,19.3526057 L63.5219513,20.3676773 C66.2666957,48.0730517 68.2019232,76.6875996 69.3277205,106.211353 C69.4510868,109.44469 69.2212767,112.682107 68.6424275,115.866128 L65.2360315,134.601306 C64.7477426,137.286894 64.5021124,140.010975 64.5021124,142.740593 L64.5031076,226.601265 L64.5109398,226.836639 L64.5487672,227.451396 L64.5780741,227.826085 L64.6788939,228.940303 L64.9451041,231.486309 L65.3789845,235.272753 L65.8318281,239.050927 L67.1813141,250.126868 L67.3284341,251.433217 L67.4414519,252.51036 L67.6713478,254.787861 L67.8918472,257.095599 C67.9637741,257.870194 68.0341248,258.650295 68.1028888,259.436365 L68.3044113,261.812954 C68.3699922,262.611431 68.4339763,263.416344 68.4963534,264.228157 L68.6786538,266.684767 C68.7378068,267.510849 68.7953426,268.344297 68.851251,269.185577 L69.014084,271.733378 C69.0404057,272.162083 69.066318,272.592862 69.0918197,273.025774 L69.2398911,275.6493 C69.2637449,276.090974 69.2871855,276.534898 69.3102115,276.981128 L69.4231124,279.244606 L75.4917226,278.233647 C77.4016062,277.915333 78.8937623,276.411013 79.1965598,274.498608 L87.6514524,221.099286 C87.8848651,219.6251 88.0021124,218.134857 88.0021124,216.642307 L88.0021124,110.651661 C88.0021124,108.031947 87.6406368,105.426444 86.9279328,102.909022 L69.2340117,40.1081896 L63.4201124,19.3526057 Z M61.4856434,30.6331736 L60.3396603,30.7595654 C55.6125766,31.2550447 50.6660358,31.5026057 45.5,31.5026057 C39.9155314,31.5026057 34.5875546,31.2133173 29.5160217,30.634289 C27.2759279,55.1595817 25.6611863,80.3900936 24.6722119,106.325699 C24.5667511,109.089748 24.7380469,111.856996 25.1831282,114.586158 L25.3112999,115.3295 L28.7176906,134.064649 C29.186126,136.641044 29.4450483,139.250673 29.4921484,141.867927 L29.5,142.740593 L29.5,226.502606 L29.499587,226.569308 L29.499587,226.569308 L29.4983556,226.641281 L29.4854749,226.980327 L29.4604155,227.397488 L29.401593,228.158809 L29.3194876,229.067897 L29.1780681,230.480849 L29.0512482,231.66942 L28.7011029,234.77068 L28.1810969,239.148985 L27.2579931,246.691753 L26.7278209,251.108116 L26.5446379,252.820004 L26.3264494,254.97893 L26.1167531,257.165254 L25.9156021,259.381406 L25.7230491,261.629813 L25.539147,263.912904 L25.3639486,266.233108 L25.197507,268.592853 L25.0398748,270.994568 L25.0018494,271.60184 L25.0018494,271.60184 L24.9643788,272.211924 L24.82006,274.681148 L24.6846829,277.198413 C24.6794775,277.299512 24.6742934,277.40073 24.6691307,277.502069 L66.3329817,277.502069 C66.327819,277.40073 66.3226349,277.299512 66.3174295,277.198413 L66.1820524,274.681148 L66.0377336,272.211924 C66.0129383,271.804255 65.9877726,271.398487 65.9622376,270.994568 L65.8046055,268.592853 L65.6381638,266.233108 L65.4629655,263.912904 L65.2790634,261.629813 L65.0865103,259.381406 L64.8853593,257.165254 L64.6756631,254.97893 L64.4574745,252.820004 L64.2742915,251.108116 L63.7441194,246.691753 L62.8210155,239.148985 L62.3010095,234.77068 L61.9508643,231.66942 L61.8240443,230.480849 L61.6826248,229.067897 L61.6005194,228.158809 L61.541697,227.397488 L61.5166375,226.980327 L61.5037568,226.641281 L61.5025254,226.569308 L61.5021124,142.740593 C61.5021124,139.831 61.763938,136.92731 62.2844218,134.064649 L65.6908126,115.3295 C66.2306336,112.360158 66.4449486,109.341025 66.3299005,106.325699 C65.3409127,80.3897415 63.7261407,55.1588965 61.4856434,30.6331736 Z" id="形状结合" fill-opacity="0.7" fill="#999999" fill-rule="nonzero"></path>
        </g>
        <path d="M111.00335,108.584901 C111.224138,94.9710757 122.331877,84 135.998242,84 C149.805576,84 161,95.193242 161,108.998242 C161,122.806167 149.806167,134 135.998242,134 C122.331292,134 111.224126,123.028345 111.003349,109.41167 L111,108.998242 L111.00335,108.584901 Z M113,108.998242 C113,121.701597 123.298403,132 135.998242,132 C148.701597,132 159,121.701597 159,108.998242 C159,96.2984025 148.701597,86 135.998242,86 C123.298403,86 113,96.2984025 113,108.998242 Z" id="Fill-20" fill-opacity="0.9" fill="#F84343" fill-rule="nonzero"></path>
        <g id="编组" transform="translate(181.999541, 37.999535)">
            <path d="M1.25003667,32.876829 C-4.42090116,56.0143037 9.73865803,79.3677356 32.8767273,85.0400291 L33.5856636,85.2074449 C37.3698879,86.0680646 41.2041539,86.4126196 45.0092694,86.249289 L45.641459,86.2164407 L45.6261565,86.6575101 C45.5491495,88.4680045 45.3416195,90.4545973 45.0400582,92.2044162 L44.3691896,96.0971524 L48.0297099,94.2696705 L48.3208874,94.113623 L48.661947,93.9202914 L49.0496235,93.6896165 L49.4806519,93.4215391 L49.9517671,93.1160003 C51.4320311,92.1364799 52.9102451,90.9657631 54.2948637,89.5986304 L54.685905,89.2045884 C56.3593595,87.4832876 57.7568969,85.5826333 58.7941499,83.4970883 L58.885459,83.3054407 L59.0525533,83.2408727 C71.9173323,78.1288758 81.6725644,67.1501971 85.0400365,53.4121539 C90.7110999,30.2753768 76.5509944,6.92104395 53.4132603,1.25004254 C30.2754919,-4.42096724 6.92106978,9.73896552 1.25003667,32.876829 Z M52.9371571,3.19254756 C75.0021571,8.60062449 88.5056186,30.8721629 83.0975417,52.9360091 C79.7213878,66.7094706 69.775234,77.1460091 57.4106186,81.729086 C56.193519,84.5500696 54.3243068,86.8253935 52.5045233,88.5477491 L52.0510132,88.9668136 C51.9004571,89.1026589 51.7506502,89.2346599 51.6019985,89.3628124 L51.1599152,89.7357201 L50.7271991,90.0855113 C50.6559957,90.141882 50.5852841,90.1972885 50.515115,90.2517303 L50.1010171,90.5667992 C50.0332212,90.6173797 49.9660694,90.6669944 49.8996123,90.7156428 L49.5096134,90.9959323 L49.1387254,91.2530039 L48.6235548,91.595022 L48.1650856,91.8846569 L47.7715391,92.121823 L47.1519216,92.470684 L47.0110032,92.544086 C47.4667725,89.8994706 47.7413878,86.5821629 47.6375417,84.0437014 C42.9840802,84.5560091 38.1633109,84.2756245 33.3529263,83.0975476 C11.2879263,77.6883168 -2.21553523,55.4179322 3.19254169,33.3529322 C8.60061861,11.2879322 30.8721571,-2.21552936 52.9371571,3.19254756 Z" id="Stroke-47" fill-opacity="0.5" fill="#999999" fill-rule="nonzero"></path>
            <g id="编组-2" transform="translate(19.393619, 3.153889)">
                <path d="M14.0821427,1.09912079e-13 L14.0672755,0.565434129 L14.0242224,2.09189205 L13.9776206,3.63246395 L13.9274702,5.18715009 L13.8737713,6.75595078 C13.8372012,7.79481874 13.7310039,8.91251645 13.558332,10.1684582 L13.4802691,10.715356 L13.4283492,11.0602782 L13.3455165,11.5867127 L13.2546542,12.1375541 L13.1169572,12.9363138 L12.6217029,15.700345 L12.3997642,16.9805337 L12.3046474,17.5601931 L12.2563047,17.869966 L12.1890871,18.3319095 L12.146341,18.660053 L12.1201367,18.8863785 L12.0922989,19.1671162 L12.0762651,19.3655425 L12.0606399,19.6192881 L12.049117,19.9284502 L12.0451206,20.1797407 L12.0451206,23.874963 L12.05393,37.8104501 L12.0762462,51.5302317 L12.1118623,64.1157803 C12.1125862,64.2881247 12.2351663,64.4307693 12.3974571,64.4637375 L12.469202,64.4709188 L14.0447385,64.3765625 L15.9067494,64.258184 L17.3300507,64.1625093 L18.694391,64.0659747 L20.3168724,63.9441029 L21.8471584,63.8209009 L23.0049808,63.7213864 L23.8345976,63.6461971 L24.8890711,63.5452101 L25.8844612,63.4433867 L26.8207484,63.3407309 L27.4841657,63.2631949 L28.1143183,63.1851944 L28.5159356,63.1329367 L29.0906288,63.0541655 L29.6320353,62.9749339 L30.6648361,62.8129576 L31.0906787,62.744201 L31.9340796,62.6047098 L32.7661167,62.4626766 L33.586408,62.3182156 L34.3945716,62.1714413 L34.5946728,62.1343996 L34.7939862,62.0972223 L35.5832421,61.9471922 L35.7785269,61.9093634 L35.972988,61.8714097 L36.7424768,61.7183812 L36.9327302,61.6798295 L37.1221243,61.6411637 L37.8709866,61.4853939 L38.0559939,61.4461837 L38.240106,61.4068701 L38.9674824,61.2486163 L39.6800576,61.0888493 L40.3774494,60.9276836 L41.059276,60.7652334 L41.2272559,60.7244336 L41.394233,60.6835624 L42.0519956,60.5193999 L42.6932381,60.3542387 L43.3175786,60.1881933 L43.9246351,60.0213779 L44.5140256,59.8539068 L45.0853682,59.6858944 L45.3641522,59.6017209 L45.638281,59.517455 L46.1188844,59.3658356 L46.2360775,59.3280595 L46.3520747,59.290341 L46.8039727,59.1401029 L47.2362143,58.9910269 L47.6483837,58.8433058 C48.5193722,58.5248505 49.2460915,58.2172948 49.8095136,57.9294685 C50.2506643,57.704105 50.5781401,57.4972992 50.7797738,57.3227904 C50.8111884,57.2956019 50.8381966,57.2703473 50.8608202,57.2474641 L50.8914699,57.2149728 L50.9221064,57.176965 L52.2260235,40.2487029 L52.2269482,10.2962052 C52.6956262,10.7464773 53.1530389,11.2073076 53.5988877,11.6782039 L53.5990144,40.2718995 L53.5969788,40.324836 L52.2896181,57.2957261 L52.2887674,57.3202442 C52.251286,57.9199493 51.6697327,58.4979859 50.577834,59.0852092 L50.3526597,59.2027855 L50.1060104,59.3244697 L50.0420999,59.3549477 L49.9772923,59.3854504 L49.7091104,59.507727 L49.6398323,59.5383673 L49.5696632,59.5690379 L49.2800971,59.6920426 L48.9763573,59.8156081 L48.6585098,59.9397948 L48.3266205,60.0646629 L47.9807554,60.190273 L47.6209803,60.3166852 L47.2473613,60.4439599 L46.8599644,60.5721574 L46.4588553,60.7013382 L46.0441002,60.8315624 L45.9052566,60.8744371 L45.7652473,60.9172848 L45.1936703,61.0883701 L44.6039153,61.2588822 L43.9963622,61.4287084 L43.3713914,61.597736 L43.2124717,61.6398549 L43.052493,61.6819151 L42.4021082,61.8495335 L42.2369241,61.8912737 L42.0707167,61.9329446 L41.3957732,62.0989002 L40.7049325,62.2636065 L39.9985746,62.4269507 L39.2770798,62.5888202 L39.0943855,62.6290439 L38.9107748,62.6691667 L38.1672873,62.8286127 L37.4096132,62.9863022 L36.6381327,63.1421226 L36.4431498,63.1807724 L36.2473338,63.2192966 L35.4558563,63.3721019 L34.6515227,63.5227562 L33.8347132,63.671147 L33.0058078,63.8171614 L32.1651868,63.9606869 L31.9532455,63.9961661 L31.7406017,64.031481 L30.88312,64.1710617 L30.4503184,64.23982 L30.0148729,64.3078716 L29.4767857,64.3884447 L28.9056557,64.4684858 L28.3014751,64.5479967 L27.8803225,64.6007101 L27.2072406,64.6809398 L26.7393889,64.7341218 L26.0089095,64.8134393 L25.2439803,64.8922119 L24.1704716,64.9963969 L23.0356837,65.0996199 L21.8395968,65.2018847 L20.2582558,65.3283743 L18.9241727,65.4284977 L17.1702731,65.5523229 L15.6980925,65.6503248 L13.7715077,65.7715107 L12.5222524,65.8465605 L12.4749802,65.8465605 C11.8202816,65.8492908 11.249071,65.4868548 10.953508,64.9500511 L6.90711496,64.631671 C6.78137718,64.774147 6.59760152,64.8639781 6.39289144,64.8639781 C6.03616892,64.8639781 5.74301513,64.5912 5.70976079,64.2424131 L5.70661923,64.1761729 L5.70661923,20.3094843 C5.70661923,19.6776069 5.67481785,19.0218482 5.61289459,18.3312538 L5.58572627,18.042459 L5.54036215,17.612975 L5.50656815,17.3255775 L5.44973279,16.8867883 L5.40726948,16.5855864 L5.33589746,16.1146892 L5.25433204,15.6135821 L5.16146967,15.074056 L5.05620679,14.487902 L4.85021467,13.3850652 L4.59379291,12.0307596 L4.41555248,11.0576321 L4.32306539,10.5320681 L4.2408385,10.0449069 L4.19148526,9.73931337 L4.12529927,9.30646275 L4.08619853,9.03303717 L4.0509516,8.77021684 L4.01941721,8.51670923 L3.99145411,8.27122182 L3.95589664,7.91520119 L3.93624376,7.68410947 L3.91966778,7.45651412 L3.90026398,7.11884935 L3.89076223,6.89434008 L3.88384297,6.66880333 L3.87799725,6.32574426 L3.8771869,6.20947726 L3.87864345,3.97488326 C4.33162457,3.72479031 4.78936013,3.48315734 5.25159688,3.25013793 L5.2518743,3.37693938 L5.249724,6.2063033 L5.25366412,6.52984466 L5.2627823,6.84839375 L5.27754812,7.1661208 L5.29076147,7.37954152 L5.30683272,7.59568594 L5.33660249,7.92771243 L5.36042718,8.15607196 L5.40247931,8.5122131 L5.43492703,8.76051038 L5.47106744,9.01894509 L5.53250621,9.42830779 L5.60303617,9.8674301 L5.71202956,10.5064271 L5.80559841,11.031206 L6.02517496,12.2159153 L6.28790019,13.6009686 L6.44616157,14.4594164 L6.54922842,15.0412371 L6.64014436,15.5792716 L6.7200304,16.0819528 L6.79000753,16.5577135 L6.85119675,17.0149866 L6.88766097,17.3137287 L6.92104981,17.6105006 L6.9491869,17.8875758 L7.05058797,2.39693049 C7.39677767,2.24284501 7.74520129,2.0934719 8.09575979,1.94887124 L7.6931869,63.6455758 L8.7461869,63.7285758 L8.74665514,54.7761682 C8.74665514,54.4877527 8.97994099,54.2539457 9.26771367,54.2539457 C9.53630151,54.2539457 9.75742526,54.4576175 9.7857147,54.7192663 L9.7887722,54.7761682 L9.7881869,63.8105758 L10.7381869,63.8855758 L10.7147703,56.1089879 L10.6813866,37.8121123 L10.6722213,20.3094843 L10.6747321,19.9886504 L10.6781453,19.8326028 L10.6850317,19.6332854 L10.6909696,19.5073125 L10.7070045,19.2508231 L10.7292326,18.9832802 L10.7669107,18.6241751 L10.8059144,18.3098441 L10.8619998,17.9034143 C10.7057616,17.8241052 10.5951285,17.6683292 10.578313,17.4859573 L10.5761524,17.4290141 L10.8349393,0.93099284 C11.1827043,0.815625648 11.5322158,0.704833899 11.8833854,0.598671352 L11.6851869,13.1455758 L11.8352753,12.2955679 L11.9901268,11.3698431 L12.071577,10.852319 L12.1699699,10.1860607 C12.3307478,9.05062576 12.4363287,8.03736293 12.484806,7.10312428 L12.5020803,6.70744871 L12.5293148,5.92297622 L12.6057067,3.59074616 L12.6522086,2.05358266 L12.6951698,0.530544732 L12.6987636,0.361339413 C13.1572826,0.233003582 13.6184734,0.112518063 14.0821427,1.09912079e-13 Z M38.7969289,1.70129423 L38.7342793,2.06615541 C38.6042022,2.89522776 38.538631,3.73416582 38.538631,4.57541506 L38.538631,41.1131606 C38.538631,41.6814831 38.6932029,42.2391044 38.9857969,42.7263202 L41.6748007,47.2039422 L38.651779,43.9679181 C38.2894584,43.5800683 37.6938648,43.5256292 37.2672342,43.8413662 L23.9031723,53.7317232 L35.2400598,43.5377472 C36.3415085,42.5473395 36.9705461,41.135776 36.9705461,39.6545277 L36.9705461,4.87542654 C36.9705461,3.43204666 36.6382037,2.01147239 36.0034042,0.722478456 C36.9523114,1.01679854 37.883873,1.34384345 38.7969289,1.70129423 Z M9.99491618,1.21975698 L9.78874899,23.186637 C9.7862139,23.4558128 9.58091796,23.6754983 9.31959701,23.7013801 L9.26279561,23.7039072 C8.99421974,23.7013664 8.77502393,23.4956119 8.74919984,23.2337072 L8.74667835,23.1767789 L8.94924579,1.60789165 C9.29586291,1.47387115 9.64445072,1.34447412 9.99491618,1.21975698 Z" id="形状结合" fill="#999999" fill-rule="nonzero" opacity="0.902563186"></path>
                <path d="M9.26771367,25.0094866 C9.53630151,25.0094866 9.75742526,25.2131585 9.7857147,25.4748072 L9.7887722,25.5317091 L9.7887722,52.6872782 C9.7887722,52.9756938 9.55548635,53.2095007 9.26771367,53.2095007 C8.99912584,53.2095007 8.77800209,53.0058289 8.74971264,52.7441801 L8.74665514,52.6872782 L8.74665514,25.5317091 C8.74665514,25.2432936 8.97994099,25.0094866 9.26771367,25.0094866 Z" id="路径" fill="#2A75FF" fill-rule="nonzero"></path>
                <path d="M3.87643454,6.20947726 C3.89621897,10.5063377 5.70586687,15.4614743 5.70586687,20.3094843 C5.70586687,41.0338282 5.70586687,54.6116128 5.70586687,61.042838 C5.70586687,62.068888 5.70586687,63.0949381 5.70586687,64.1209882 C5.70586687,64.3243779 5.78236153,64.5203285 5.92015939,64.6699251 L5.92015939,64.6699251 L5.92015939,64.6699251 L5.0477275,64.3852402 C4.18833128,64.1048091 3.6068402,63.3033951 3.6068402,62.399402 L3.6068402,4.22402958 L3.6068402,4.22402958 L3.87643454,4.00149063 L3.87643454,6.20947726 Z" id="路径-5备份-2" fill="#AAAAAA" fill-rule="nonzero" opacity="0.440957932"></path>
                <path d="M0,37.9362229 C0,48.4464699 4.02980968,56.9669552 8.99931208,56.9669552 C13.9701903,56.9669552 18,48.4464699 18,37.9362229 C18,27.4288849 13.9701903,18.9083996 8.99931208,18.9083996 C4.02980968,18.9083996 0,27.4288849 0,37.9362229" id="Fill-20" fill="#367DFF" opacity="0.5" filter="url(#filter-1)"></path>
            </g>
        </g>
    </g>
</svg>