<svg width="122" height="40" viewBox="0 0 122 40" xmlns="http://www.w3.org/2000/svg">
    <path d="M1.414 0c.742 0 1.35.571 1.41 1.298l.004.116V5.73c2.327-.857 4.82-1.285 7.473-1.285 3.448 0 6.627.723 9.52 2.17.442.221.734.655.776 1.142l.006.123v9.697a1.414 1.414 0 0 1-2.823.116l-.005-.116v-8.8l-.358-.151c-2.055-.848-4.274-1.298-6.665-1.348l-.45-.004c-2.705 0-5.192.501-7.474 1.504v8.799a1.414 1.414 0 0 1-2.823.116L0 17.576V1.414C0 .634.633 0 1.414 0zm65.04 4.444c2.378 0 4.57.783 6.529 2.323.307.241.499.597.534.982l.006.13v9.697a1.414 1.414 0 0 1-2.823.116l-.005-.116V8.597l-.203-.134c-1.172-.745-2.415-1.136-3.75-1.185l-.288-.005c-1.492 0-2.755.414-3.838 1.257v9.046a1.414 1.414 0 0 1-2.823.116l-.005-.116V8.597l-.203-.134c-1.172-.745-2.415-1.136-3.751-1.185l-.288-.005c-1.419 0-2.63.375-3.678 1.137l-.16.12v9.046c0 .742-.57 1.35-1.297 1.41l-.116.004c-.742 0-1.35-.572-1.41-1.298l-.004-.116V7.879c0-.392.163-.767.45-1.035 1.709-1.593 3.805-2.4 6.215-2.4 2.007 0 3.881.558 5.595 1.657 1.526-1.1 3.31-1.657 5.313-1.657zm5.655 17.778c.742 0 1.35.572 1.41 1.298l.004.116v9.697l-.006.13a1.414 1.414 0 0 1-.534.982c-1.96 1.54-4.15 2.323-6.53 2.323-2.001 0-3.786-.556-5.313-1.658-1.713 1.1-3.587 1.658-5.594 1.658-2.41 0-4.506-.807-6.215-2.4a1.414 1.414 0 0 1-.444-.905l-.006-.13v-9.697l.004-.116a1.414 1.414 0 0 1 1.287-1.293l.123-.005.116.005a1.414 1.414 0 0 1 1.292 1.287l.006.122v9.046l.159.12c.977.711 2.099 1.086 3.397 1.132l.281.005.288-.005a7.318 7.318 0 0 0 3.499-1.03l.252-.155.203-.134v-8.979l.005-.116a1.414 1.414 0 0 1 2.818 0l.005.116v9.047c1.015.789 2.189 1.203 3.56 1.251l.278.005.287-.005a7.318 7.318 0 0 0 3.499-1.03l.252-.155.203-.134v-8.979l.005-.116a1.414 1.414 0 0 1 1.41-1.298zm49.581.935c.46.576.398 1.402-.124 1.903l-.097.085-18.178 14.545a1.414 1.414 0 0 1-1.864-2.124l.097-.084 7.394-5.917-8.19-6.411a1.414 1.414 0 0 1 1.638-2.302l.105.075 8.716 6.822 8.516-6.813c.61-.488 1.5-.389 1.987.221zM34.54 4.444c-3.448 0-6.627.723-9.52 2.17-.479.24-.782.73-.782 1.265v8.08c0 .536.303 1.026.782 1.265 2.893 1.447 6.072 2.17 9.52 2.17 3.447 0 6.626-.723 9.52-2.17.478-.24.781-.729.781-1.264V7.879c0-.536-.303-1.026-.782-1.265-2.893-1.447-6.072-2.17-9.52-2.17zm.45 2.833c2.391.05 4.61.5 6.666 1.348l.357.152v6.284l-.357.153c-2.184.9-4.553 1.352-7.116 1.352l-.45-.005c-2.392-.05-4.61-.5-6.666-1.347l-.358-.153V8.777l.358-.152c2.184-.901 4.552-1.352 7.116-1.352l.45.004zm52.874-2.833c-3.448 0-6.627.723-9.52 2.17a1.414 1.414 0 0 0-.776 1.142l-.005.123v8.08c0 .536.302 1.026.781 1.265 2.893 1.447 6.072 2.17 9.52 2.17 3.447 0 6.626-.723 9.52-2.17a1.414 1.414 0 0 0-1.265-2.53c-2.493 1.247-5.239 1.872-8.255 1.872-2.564 0-4.932-.451-7.116-1.352l-.358-.153V12.25l.304.088c2.202.612 4.409.942 6.618.99l.552.005c3.13 0 6.256-.568 9.37-1.701.522-.19.88-.665.926-1.211l.005-.118V7.879c0-.536-.302-1.026-.781-1.265-2.894-1.447-6.073-2.17-9.52-2.17zm0 2.829c2.564 0 4.932.45 7.116 1.352l.357.152v.516l-.06.02c-2.312.743-4.618 1.137-6.92 1.187l-.493.005c-2.302 0-4.607-.345-6.918-1.038l-.556-.174v-.516l.358-.152c2.055-.848 4.274-1.298 6.665-1.348l.45-.004zm0 29.899c3.448 0 6.627-.723 9.52-2.17.442-.22.734-.655.776-1.142l.006-.123v-8.08c0-.536-.303-1.026-.782-1.265-2.893-1.447-6.072-2.17-9.52-2.17-3.447 0-6.626.723-9.52 2.17a1.414 1.414 0 0 0 1.265 2.53c2.493-1.247 5.239-1.872 8.255-1.872 2.564 0 4.932.451 7.116 1.352l.358.153v2.811l-.304-.088a26.771 26.771 0 0 0-6.617-.99l-.553-.005c-3.13 0-6.255.568-9.37 1.701-.522.19-.88.665-.926 1.211l-.005.118v2.424c0 .536.302 1.026.781 1.265 2.894 1.447 6.073 2.17 9.52 2.17zm0-2.829c-2.564 0-4.932-.45-7.116-1.352l-.357-.151v-.517l.06-.02c2.312-.743 4.618-1.137 6.92-1.187l.493-.005c2.302 0 4.607.345 6.918 1.038l.556.174v.517l-.358.151c-2.055.848-4.274 1.298-6.665 1.348l-.45.004z" fill="#FFF" fill-rule="nonzero"/>
</svg>
