<?xml version="1.0" encoding="UTF-8"?>
<svg width="13px" height="12px" viewBox="0 0 13 12" version="1.1" xmlns="http://www.w3.org/2000/svg" xmlns:xlink="http://www.w3.org/1999/xlink">
    <title>ic_wireless_offline</title>
    <g id="My-Wi-Fi" stroke="none" stroke-width="1" fill="none" fill-rule="evenodd">
        <g id="Router-Management_Wireless_Offline" transform="translate(-479.000000, -757.000000)">
            <g id="ic_wireless_offline" transform="translate(479.500000, 757.000000)">
                <rect id="矩形" fill="#FFFFFF" x="0" y="0" width="12" height="12"></rect>
                <path d="M3.78435042,2.28435042 L6,4.5 L8.21712717,2.28435042 C8.625153,1.87632459 9.28669359,1.87632459 9.69471942,2.28435042 C10.1027453,2.69237625 10.1027453,3.35391684 9.69471942,3.76194267 L7.47759225,5.97759225 L9.69471942,8.19471942 C10.1027453,8.60274525 10.1027453,9.26428584 9.69471942,9.67231167 C9.28669359,10.0803375 8.625153,10.0803375 8.21712717,9.67231167 L6,7.4551845 L3.78435042,9.67231167 C3.37632459,10.0803375 2.714784,10.0803375 2.30675817,9.67231167 C1.89873234,9.26428584 1.89873234,8.60274525 2.30675817,8.19471942 L4.52240775,5.97759225 L2.30675817,3.76194267 C1.89873234,3.35391684 1.89873234,2.69237625 2.30675817,2.28435042 C2.714784,1.87632459 3.37632459,1.87632459 3.78435042,2.28435042 Z" id="路径" fill="#999999" fill-rule="nonzero"></path>
            </g>
        </g>
    </g>
</svg>