<svg width="800" height="739" xmlns="http://www.w3.org/2000/svg" xmlns:xlink="http://www.w3.org/1999/xlink"><defs><linearGradient x1="35.568%" y1="50%" x2="71.777%" y2="50%" id="b"><stop stop-color="#53B2FF" offset="0%"/><stop stop-color="#FF5996" offset="100%"/></linearGradient><linearGradient x1="88.603%" y1="21.669%" x2="21.207%" y2="78.68%" id="E"><stop stop-color="#1BC1E9" offset="0%"/><stop stop-color="#D63CDF" offset="100%"/></linearGradient><linearGradient x1="89.385%" y1="51.508%" x2="53.73%" y2="52.687%" id="c"><stop stop-color="#1D2D67" stop-opacity=".122" offset="0%"/><stop stop-color="#172147" stop-opacity=".537" offset="100%"/></linearGradient><linearGradient x1="0%" y1="46.807%" x2="100%" y2="46.807%" id="d"><stop stop-color="#494949" offset="0%"/><stop stop-color="#373636" offset="100%"/></linearGradient><linearGradient x1="0%" y1="46.807%" x2="100%" y2="46.807%" id="e"><stop stop-color="#7D7D7D" offset="0%"/><stop stop-color="#494949" offset="4.122%"/><stop stop-color="#3A3939" offset="53.179%"/><stop stop-color="#585858" offset="56.174%"/><stop stop-color="#373737" offset="68.697%"/><stop stop-color="#717171" offset="71.302%"/><stop stop-color="#646464" offset="100%"/></linearGradient><linearGradient x1="73.499%" y1="39.056%" x2="-7.3%" y2="77.851%" id="f"><stop stop-color="#7B7B7B" offset="0%"/><stop stop-color="#555" offset="100%"/></linearGradient><linearGradient x1="77.651%" y1="30.798%" x2="20.061%" y2="69.202%" id="g"><stop stop-color="#5C5C5C" offset="0%"/><stop stop-color="#2F2F2F" offset="100%"/></linearGradient><linearGradient x1="88.449%" y1="43.403%" x2="76.617%" y2="54.553%" id="h"><stop stop-color="#787878" offset="0%"/><stop stop-color="#878686" offset="57.277%"/><stop stop-color="#474747" offset="62.645%"/><stop stop-color="#545454" offset="73.139%"/><stop stop-color="#999797" offset="100%"/></linearGradient><linearGradient x1="6.028%" y1="50%" x2="100%" y2="49.544%" id="i"><stop stop-color="#0D0D0D" offset=".026%"/><stop stop-color="#545454" offset="57.979%"/><stop stop-color="#7D7D7D" offset="66.905%"/><stop stop-color="#4A4A4A" offset="93.655%"/><stop stop-color="#767676" offset="100%"/></linearGradient><linearGradient x1="100%" y1="47.765%" x2="50%" y2="54.768%" id="j"><stop stop-color="#585858" offset="0%"/><stop stop-color="#777" offset="100%"/></linearGradient><linearGradient x1="14.831%" y1="50.543%" x2="64.414%" y2="47.818%" id="k"><stop stop-color="#474747" offset="0%"/><stop stop-color="#5C5C5C" offset="100%"/></linearGradient><linearGradient x1="95.673%" y1="52.802%" x2="68.703%" y2="57.467%" id="l"><stop stop-color="#393939" offset="0%"/><stop stop-color="#555" offset="17.999%"/><stop stop-color="#8A8A8A" offset="100%"/></linearGradient><linearGradient x1="37.485%" y1="100%" x2="115.486%" y2="100%" id="m"><stop stop-color="#858585" offset="0%"/><stop stop-color="#535353" offset="100%"/></linearGradient><linearGradient x1="139.88%" y1="54.973%" x2="54.012%" y2="48.69%" id="n"><stop stop-color="#161515" offset="0%"/><stop stop-color="#4C4C4C" offset="100%"/></linearGradient><linearGradient x1="53.025%" y1="51.894%" x2="37.086%" y2="40.303%" id="o"><stop stop-color="#A0A0A0" offset="0%"/><stop stop-color="#535353" offset="100%"/></linearGradient><linearGradient x1="50%" y1="46.011%" x2="35.503%" y2="52.349%" id="p"><stop stop-color="#9B9B9B" offset="0%"/><stop stop-color="#6A6A6A" offset="100%"/></linearGradient><linearGradient x1="50%" y1="44.336%" x2="57.3%" y2="54.04%" id="q"><stop stop-color="#FFB7C9" offset="0%"/><stop stop-color="#C6A1E5" offset="100%"/></linearGradient><linearGradient x1="50%" y1="59.673%" x2="41.824%" y2="41.898%" id="t"><stop stop-color="#94DCEB" offset="0%"/><stop stop-color="#0958FC" offset="100%"/></linearGradient><linearGradient x1="50%" y1="43.114%" x2="77.162%" y2="58.045%" id="u"><stop stop-color="#B4BBD2" offset="0%"/><stop stop-color="#9AA5CF" offset="100%"/></linearGradient><linearGradient x1="64.969%" y1="53.862%" x2="57.667%" y2="47.403%" id="v"><stop stop-color="#7EBDFF" offset="0%"/><stop stop-color="#CDD8EC" offset="100%"/></linearGradient><linearGradient x1="38.927%" y1="55.451%" x2="42.139%" y2="50%" id="w"><stop stop-color="#7EBDFF" offset="0%"/><stop stop-color="#CDD8EC" offset="100%"/></linearGradient><linearGradient x1="50%" y1="14.472%" x2="50%" y2="98.409%" id="x"><stop stop-color="#5DD6FF" stop-opacity="0" offset="0%"/><stop stop-color="#5DD6FF" stop-opacity=".602" offset="100%"/></linearGradient><linearGradient x1="50%" y1="0%" x2="50%" y2="100%" id="y"><stop stop-color="#707B99" offset="0%"/><stop stop-color="#46516E" offset="100%"/></linearGradient><linearGradient x1="36.033%" y1="5.542%" x2="50%" y2="100%" id="z"><stop stop-color="#037393" offset="0%"/><stop stop-color="#1A233A" offset="100%"/></linearGradient><linearGradient x1="76.912%" y1="11.803%" x2="91.524%" y2="79.388%" id="A"><stop stop-color="#E562DA" offset="0%"/><stop stop-color="#5BD8FF" offset="100%"/></linearGradient><linearGradient x1="59.507%" y1="42.607%" x2="56.113%" y2="48.895%" id="B"><stop stop-color="#7EBDFF" offset="0%"/><stop stop-color="#CDD8EC" offset="100%"/></linearGradient><linearGradient x1="27.792%" y1="41.817%" x2="33.231%" y2="46.215%" id="C"><stop stop-color="#7EBDFF" offset="0%"/><stop stop-color="#CDD8EC" offset="100%"/></linearGradient><linearGradient x1="80.602%" y1="50.933%" x2="45.155%" y2="52.43%" id="D"><stop stop-color="#1D2D67" stop-opacity=".095" offset="0%"/><stop stop-color="#222D53" stop-opacity=".393" offset="100%"/></linearGradient><linearGradient x1="52.92%" y1="47.167%" x2="61.802%" y2="47.167%" id="a"><stop stop-color="#EEF2FF" offset="0%"/><stop stop-color="#D5D9E4" offset="100%"/></linearGradient><linearGradient x1="1.725%" y1="16.228%" x2="100%" y2="85.639%" id="F"><stop stop-color="#35ABFA" offset="0%"/><stop stop-color="#2B58E0" offset="100%"/></linearGradient><linearGradient x1="1.725%" y1="16.228%" x2="85.138%" y2="75.648%" id="G"><stop stop-color="#BD8FFF" offset="0%"/><stop stop-color="#5D86FF" offset="100%"/></linearGradient><linearGradient x1="89.695%" y1="50%" x2="41.524%" y2="57.4%" id="H"><stop stop-color="#1D2D67" stop-opacity=".139" offset="0%"/><stop stop-color="#222D53" stop-opacity=".587" offset="100%"/></linearGradient><linearGradient x1="0%" y1="46.807%" x2="100%" y2="46.807%" id="I"><stop stop-color="#494949" offset="0%"/><stop stop-color="#545454" offset="54.551%"/><stop stop-color="#585858" offset="69.433%"/><stop stop-color="#4A4A4A" offset="83.983%"/><stop stop-color="#4D4D4D" offset="100%"/></linearGradient><linearGradient x1="100%" y1="46.456%" x2="50%" y2="57.559%" id="J"><stop stop-color="#757575" offset="0%"/><stop stop-color="#484848" offset="100%"/></linearGradient><linearGradient x1="37.297%" y1="64.791%" x2="63.367%" y2="70.835%" id="K"><stop stop-color="#E6EEF6" offset="0%"/><stop stop-color="#DAE5F3" offset="100%"/></linearGradient><linearGradient x1="50%" y1="64.535%" x2="0%" y2="64.535%" id="L"><stop stop-color="#CCDBE8" stop-opacity=".78" offset="0%"/><stop stop-color="#BDCCDA" stop-opacity=".704" offset="100%"/></linearGradient><linearGradient x1="8.027%" y1="52.31%" x2="85.573%" y2="55.983%" id="M"><stop stop-color="#EAEDF6" offset="0%"/><stop stop-color="#B5B9CB" offset="100%"/></linearGradient><linearGradient x1="94.485%" y1="50%" x2="56.231%" y2="55.655%" id="N"><stop stop-color="#1D2D67" stop-opacity=".177" offset="0%"/><stop stop-color="#222D53" stop-opacity=".587" offset="100%"/></linearGradient><linearGradient x1="0%" y1="46.807%" x2="100%" y2="46.807%" id="O"><stop stop-color="#494949" offset="0%"/><stop stop-color="#545454" offset="54.551%"/><stop stop-color="#585858" offset="69.433%"/><stop stop-color="#4A4A4A" offset="83.983%"/><stop stop-color="#4D4D4D" offset="100%"/></linearGradient><linearGradient x1="0%" y1="50%" x2="100%" y2="49.141%" id="P"><stop stop-color="#FFF" offset="0%"/><stop stop-color="#DADADA" offset="18.157%"/><stop stop-color="#9A9A9A" offset="51.284%"/><stop stop-color="#FFF" offset="62.355%"/><stop stop-color="#A1A1A1" offset="77.543%"/><stop stop-color="#FFF" offset="100%"/></linearGradient><linearGradient x1="100%" y1="45.295%" x2="50%" y2="60.036%" id="Q"><stop stop-color="#757575" offset="0%"/><stop stop-color="#484848" offset="100%"/></linearGradient><linearGradient x1="54.908%" y1="73.587%" x2="54.908%" y2="103.189%" id="R"><stop stop-color="#BBF" offset="0%"/><stop stop-color="#6AAFD0" offset="65.347%"/><stop stop-color="#CEF" offset="100%"/></linearGradient><linearGradient x1="50%" y1="12.217%" x2="50%" y2="99.462%" id="S"><stop stop-color="#B54CFA" offset="0%"/><stop stop-color="#2DFFFF" offset="100%"/></linearGradient><linearGradient x1="50%" y1="12.217%" x2="50%" y2="99.462%" id="T"><stop stop-color="#ED765E" offset=".05%"/><stop stop-color="#F84141" offset="100%"/></linearGradient><linearGradient x1="50%" y1="0%" x2="50%" y2="100%" id="U"><stop stop-color="#33B8FF" offset="0%"/><stop stop-color="#33E8FF" stop-opacity="0" offset="100%"/></linearGradient><linearGradient x1="50%" y1="0%" x2="50%" y2="100%" id="V"><stop stop-color="#FC7E36" offset="0%"/><stop stop-color="#FD791B" stop-opacity="0" offset="100%"/></linearGradient><linearGradient x1="50%" y1="0%" x2="50%" y2="100%" id="W"><stop stop-color="#FDC21B" offset="0%"/><stop stop-color="#FDC21B" stop-opacity="0" offset="100%"/></linearGradient><linearGradient x1="50%" y1="0%" x2="50%" y2="100%" id="X"><stop stop-color="#33E8FF" offset="0%"/><stop stop-color="#33E8FF" stop-opacity="0" offset="100%"/></linearGradient><linearGradient x1="50%" y1="0%" x2="50%" y2="100%" id="Y"><stop stop-color="#33E8FF" offset="0%"/><stop stop-color="#33E8FF" stop-opacity="0" offset="100%"/></linearGradient><linearGradient x1="50%" y1="0%" x2="50%" y2="100%" id="Z"><stop stop-color="#33E8FF" offset="0%"/><stop stop-color="#33E8FF" stop-opacity="0" offset="100%"/></linearGradient><linearGradient x1="50%" y1="0%" x2="50%" y2="100%" id="aa"><stop stop-color="#AEF6FF" offset="1.588%"/><stop stop-color="#9DF4FF" stop-opacity="0" offset="100%"/></linearGradient><linearGradient x1="8.313%" y1="42.134%" x2="100%" y2="57.866%" id="ab"><stop stop-color="#46C1F6" offset="0%"/><stop stop-color="#E963C4" offset="61.256%"/><stop stop-color="#F87296" offset="100%"/></linearGradient><linearGradient x1="50%" y1="0%" x2="50%" y2="100%" id="ac"><stop stop-color="#72BFFB" stop-opacity="0" offset="0%"/><stop stop-color="#F63EEA" stop-opacity=".234" offset="100%"/></linearGradient><linearGradient x1="8.313%" y1="42.134%" x2="100%" y2="57.866%" id="ad"><stop stop-color="#46C1F6" offset="0%"/><stop stop-color="#E52BB2" offset="55.664%"/><stop stop-color="#F92626" offset="100%"/></linearGradient><filter x="2.6%" y="-3.2%" width="94.9%" height="106.5%" filterUnits="objectBoundingBox" id="s"><feOffset dy="9" in="SourceAlpha" result="shadowOffsetInner1"/><feComposite in="shadowOffsetInner1" in2="SourceAlpha" operator="arithmetic" k2="-1" k3="1" result="shadowInnerInner1"/><feColorMatrix values="0 0 0 0 0.543242081 0 0 0 0 0.302293567 0 0 0 0 0.429724021 0 0 0 0.289255422 0" in="shadowInnerInner1"/></filter><path d="m585.802 73.056 99.082 20.353a5.773 5.773 0 0 1 1.974 10.502l-28.825 18.649a40.411 40.411 0 0 1-30.082 5.655l-99.082-20.354a5.773 5.773 0 0 1-1.975-10.502l28.825-18.648a40.411 40.411 0 0 1 30.083-5.655z" id="r"/></defs><g fill="none" fill-rule="evenodd"><path d="M7.645 179.184V44.894L96.887 70.49a36.082 36.082 0 0 0 28.92-3.992l60.626-37.478v135.988a8.66 8.66 0 0 1-4.106 7.366l-56.52 34.94a36.082 36.082 0 0 1-28.92 3.992l-82.97-23.798a8.66 8.66 0 0 1-6.272-8.324z" fill="url(#a)" transform="translate(30.309 297.332)"/><path d="m40.758 484.215 71.148-43.464c.343-.21.759-.267 1.146-.157l100.54 28.566a1.443 1.443 0 0 1 .365 2.616l-70.875 43.814a1.443 1.443 0 0 1-1.157.16L41.113 486.833a1.443 1.443 0 0 1-.355-2.62z" fill="#1D2D67" opacity=".392"/><path d="M7.645 179.184V44.894L96.887 70.49a36.082 36.082 0 0 0 28.92-3.992l60.626-37.478v135.988a8.66 8.66 0 0 1-4.106 7.366l-56.52 34.94a36.082 36.082 0 0 1-28.92 3.992l-82.97-23.798a8.66 8.66 0 0 1-6.272-8.324z" fill="url(#a)" transform="translate(30.309 297.332)"/><path d="M7.645 78.759V65.724l89.242 25.597a36.082 36.082 0 0 0 28.92-3.992l60.626-37.478v13.034l-60.625 37.478a36.082 36.082 0 0 1-28.921 3.992L7.645 78.76z" fill="url(#b)" transform="translate(30.309 297.332)"/><path stroke="#AEBCD4" stroke-width="4.33" stroke-linecap="square" d="M185.46 420.739v67.838m-.525-68.264c4.095-2.5 7.414-9.695 7.414-16.073 0-6.377-3.32-9.52-7.414-7.02-4.094 2.499-7.413 9.695-7.413 16.072 0 6.377 3.319 9.52 7.413 7.021z"/><path d="m128.057 300.118 85.467 21.998a4.33 4.33 0 0 1 1.107 7.93l-61.835 36.176a28.865 28.865 0 0 1-21.766 3.04l-89.89-23.12a4.33 4.33 0 0 1-.947-8.02l67.162-35.56a28.865 28.865 0 0 1 20.702-2.444z" fill="#F2F4FF"/><path d="m115.73 7.595 67.39 17.092a4.33 4.33 0 0 1 1.112 7.94L154.627 49.85l-50.686 5.011-55.607-12.71-3.593-7.305L95.886 9.675a28.865 28.865 0 0 1 19.843-2.08z" fill="url(#c)" transform="translate(30.309 297.332)"/><path d="m1.156 17.44 1.961-2.5 5.57-2.089a.914.914 0 0 1 1.217.68l.484 2.408 16.178-7.29.52-3.79A39.219 39.219 0 0 1 52.363.974l47.062 8.551 3.561 2.623v58.337L1.156 72.163V17.44z" fill="url(#d)" transform="translate(75.05 170.322)"/><path d="m103.915 13.504-.159 143.787a4.602 4.602 0 0 1-2.303 3.985l-3.955 2.258v-3.362l-15.26 9.098v3.106l-9.388 5.545-14.29 2.487-54.67-12.512-3.724-5.987L0 18.596h.008a4.595 4.595 0 0 0 3.421 4.177l.132.032 50.108 11.468a35.55 35.55 0 0 0 25.373-3.678l.288-.164 1.552-.741a.915.915 0 0 1 1.3.693l.218 1.495 14.506-8.399.413-2.299a2.288 2.288 0 0 1 1.042-1.537l3.25-2.025a4.597 4.597 0 0 0 2.303-4.114h.001z" fill="url(#e)" transform="translate(75.05 170.322)"/><path fill="#3D3D3D" d="m169.722 332.175 2.826-1.681v3.362z"/><path fill="url(#f)" d="M0 9.235 16.018 0v3.678L0 12.913z" transform="translate(156.378 239.428)"/><path fill="url(#g)" d="m14.66 2.987 1.358.691L0 12.913V11.54z" transform="translate(156.378 239.428)"/><path fill="#3A3A3A" d="m171.039 240.21 1.357-.782v3.678l-1.357-.691z"/><path fill="url(#f)" d="M0 9.235 16.018 0v3.678L0 12.913z" transform="translate(156.378 290.924)"/><path fill="url(#g)" d="m14.66 2.987 1.358.691L0 12.913V11.54z" transform="translate(156.378 290.924)"/><path fill="#3A3A3A" d="m171.039 291.707 1.357-.783v3.678l-1.357-.691z"/><path fill="url(#f)" d="M0 9.235 16.018 0v3.678L0 12.913z" transform="translate(156.378 207.243)"/><path fill="url(#g)" d="m14.66 2.987 1.358.691L0 12.913V11.54z" transform="translate(156.378 207.243)"/><path fill="#3A3A3A" d="m171.039 208.025 1.357-.782v3.678l-1.357-.691z"/><path fill="url(#f)" d="M0 9.235 16.018 0v3.678L0 12.913z" transform="translate(156.378 200.806)"/><path fill="url(#g)" d="m14.66 2.987 1.358.691L0 12.913V11.54z" transform="translate(156.378 200.806)"/><path fill="#3A3A3A" d="m171.039 201.588 1.357-.782v3.678l-1.357-.691z"/><path fill="url(#f)" d="M0 9.235 16.018 0v3.678L0 12.913z" transform="translate(156.378 258.739)"/><path fill="url(#g)" d="m14.66 2.987 1.358.691L0 12.913V11.54z" transform="translate(156.378 258.739)"/><path fill="#3A3A3A" d="m171.039 259.521 1.357-.782v3.678l-1.357-.691z"/><path fill="url(#f)" d="M0 9.235 16.018 0v3.678L0 12.913z" transform="translate(156.378 232.99)"/><path fill="url(#g)" d="m14.66 2.987 1.358.691L0 12.913V11.54z" transform="translate(156.378 232.99)"/><path fill="#3A3A3A" d="m171.039 233.773 1.357-.782v3.678l-1.357-.691z"/><path fill="url(#f)" d="M0 9.235 16.018 0v3.678L0 12.913z" transform="translate(156.378 284.487)"/><path fill="url(#g)" d="m14.66 2.987 1.358.691L0 12.913V11.54z" transform="translate(156.378 284.487)"/><path fill="#3A3A3A" d="m171.039 285.27 1.357-.783v3.678l-1.357-.691z"/><path fill="url(#f)" d="M0 9.235 16.018 0v3.678L0 12.913z" transform="translate(156.378 220.117)"/><path fill="url(#g)" d="m14.66 2.987 1.358.691L0 12.913V11.54z" transform="translate(156.378 220.117)"/><path fill="#3A3A3A" d="m171.039 220.9 1.357-.783v3.678l-1.357-.691z"/><path fill="url(#f)" d="M0 9.235 16.018 0v3.678L0 12.913z" transform="translate(156.378 271.613)"/><path fill="url(#g)" d="m14.66 2.987 1.358.691L0 12.913V11.54z" transform="translate(156.378 271.613)"/><path fill="#3A3A3A" d="m171.039 272.396 1.357-.783v3.678l-1.357-.691z"/><path fill="url(#f)" d="M0 9.235 16.018 0v3.678L0 12.913z" transform="translate(156.378 245.865)"/><path fill="url(#g)" d="m14.66 2.987 1.358.691L0 12.913V11.54z" transform="translate(156.378 245.865)"/><path fill="#3A3A3A" d="m171.039 246.647 1.357-.782v3.678l-1.357-.691z"/><path fill="url(#f)" d="M0 9.235 16.018 0v3.678L0 12.913z" transform="translate(156.378 297.361)"/><path fill="url(#g)" d="m14.66 2.987 1.358.691L0 12.913V11.54z" transform="translate(156.378 297.361)"/><path fill="#3A3A3A" d="m171.039 298.144 1.357-.783v3.678l-1.357-.69z"/><path fill="url(#f)" d="M0 9.235 16.018 0v3.678L0 12.913z" transform="translate(156.378 213.68)"/><path fill="url(#g)" d="m14.66 2.987 1.358.691L0 12.913V11.54z" transform="translate(156.378 213.68)"/><path fill="#3A3A3A" d="m171.039 214.462 1.357-.782v3.678l-1.357-.691z"/><path fill="url(#f)" d="M0 9.235 16.018 0v3.678L0 12.913z" transform="translate(156.378 265.176)"/><path fill="url(#g)" d="m14.66 2.987 1.358.691L0 12.913V11.54z" transform="translate(156.378 265.176)"/><path fill="#3A3A3A" d="m171.039 265.958 1.357-.782v3.678l-1.357-.691z"/><path fill="url(#f)" d="M0 9.235 16.018 0v3.678L0 12.913z" transform="translate(156.378 226.554)"/><path fill="url(#g)" d="m14.66 2.987 1.358.691L0 12.913V11.54z" transform="translate(156.378 226.554)"/><path fill="#3A3A3A" d="m171.039 227.336 1.357-.782v3.678l-1.357-.691z"/><path fill="url(#f)" d="M0 9.235 16.018 0v3.678L0 12.913z" transform="translate(156.378 278.05)"/><path fill="url(#g)" d="m14.66 2.987 1.358.691L0 12.913V11.54z" transform="translate(156.378 278.05)"/><path fill="#3A3A3A" d="m171.039 278.833 1.357-.783v3.678l-1.357-.691z"/><path fill="url(#f)" d="M0 9.235 16.018 0v3.678L0 12.913z" transform="translate(156.378 252.302)"/><path fill="url(#g)" d="m14.66 2.987 1.358.691L0 12.913V11.54z" transform="translate(156.378 252.302)"/><path fill="#3A3A3A" d="m171.039 253.084 1.357-.782v3.678l-1.357-.691z"/><path fill="url(#f)" d="M0 9.235 16.018 0v3.678L0 12.913z" transform="translate(156.378 303.798)"/><path fill="url(#g)" d="m14.66 2.987 1.358.691L0 12.913V11.54z" transform="translate(156.378 303.798)"/><path fill="#3A3A3A" d="m171.039 304.58 1.357-.782v3.678l-1.357-.69z"/><path fill="url(#f)" d="M0 9.235 16.018 0v3.678L0 12.913z" transform="translate(156.378 310.235)"/><path fill="url(#g)" d="m14.66 2.987 1.358.691L0 12.913V11.54z" transform="translate(156.378 310.235)"/><path fill="#3A3A3A" d="m171.039 311.018 1.357-.783v3.678l-1.357-.69z"/><path fill="url(#f)" d="M0 9.235 16.018 0v3.678L0 12.913z" transform="translate(156.378 316.672)"/><path fill="url(#g)" d="m14.66 2.987 1.358.691L0 12.913V11.54z" transform="translate(156.378 316.672)"/><path fill="#3A3A3A" d="m171.039 317.455 1.357-.783v3.679l-1.357-.692z"/><path fill="url(#f)" d="M0 9.235 16.018 0v3.678L0 12.913z" transform="translate(156.378 323.11)"/><path fill="url(#g)" d="m14.66 2.987 1.358.691L0 12.913V11.54z" transform="translate(156.378 323.11)"/><path fill="#3A3A3A" d="m171.039 323.892 1.357-.783v3.679l-1.357-.692z"/><path d="m52.337.69 47.926 8.435c2.475.513 4.068 2.946 3.557 5.432a4.597 4.597 0 0 1-2.209 3.061l-2.89 1.806-.258.142a2.288 2.288 0 0 0-1.155 1.613l-.402 2.3L82.4 31.878l-.226-1.524a.829.829 0 0 0-.193-.42l12.787-7.32.496-2.328c.17-.8.641-1.505 1.315-1.97l2.068-1.425a4.24 4.24 0 0 0 2.091-2.817c.475-2.247-.97-3.56-3.24-4.054l-.127-.027-44.675-7.912a45.564 45.564 0 0 0-24.031 2.236 2.42 2.42 0 0 0-1.754 1.982l-.345 2.35-16.178 7.29-.331-1.659 14.475-6.43.38-1.997a3.105 3.105 0 0 1 1.81-2.267A45.567 45.567 0 0 1 52.337.69z" fill="url(#h)" transform="translate(75.05 170.322)"/><path d="m2.705 15.112 21.119-9.629a42.175 42.175 0 0 1 25.031-3.121l43.875 7.967 3.063 3.745c1.058 1.42-.817 3.217-2.01 3.882l-20.43 11.848a32.896 32.896 0 0 1-23.902 3.597L3.422 22.777c-2.64-.431-4.018-2.35-3.175-4.261l2.458-3.404z" fill="url(#i)" transform="translate(79.037 170.46)"/><path d="m4.646 13.484 19.907-8.777a41.67 41.67 0 0 1 24.15-2.9L89.874 9.16l.26.054.37.082.233.057.223.058.213.06.202.065c1.182.392 1.795.977 1.795 2.274 0 .9-.743 1.604-1.555 2.137l-.188.12a9.45 9.45 0 0 1-.095.058l-.188.111-19.048 10.74a32.52 32.52 0 0 1-23.34 3.363L5.493 18.3l-.397-.091a23.21 23.21 0 0 1-.126-.03l-.241-.06-.229-.062-.215-.062c-1.292-.387-1.862-.869-1.862-2.048 0-.923.7-1.597 1.533-2.096l.195-.112.197-.106.2-.1.099-.048z" fill="url(#j)" transform="translate(79.037 170.46)"/><path d="m33.845 4.21 1.449 6.312-30.959 3.6c-1.527.29-1.913 1.047-1.913 1.948 0 .655 1.094 1.317 2.337 1.317l35.23 1.234 9.806 8.695c1.905 1.284 4.436 2.34 8.757 1.9 3.884-.395 6.026-1.723 4.59-3.931l-2.394-7.583 30.323-4.138c1.144-.23 2.326-.64 2.003-2.474-.172-.975-1.54-1.35-2.65-1.35l-36.52-.324L44.918 3c-1.232-1.126-3.279-1.842-6.996-1.522-2.127.183-4.077 1.522-4.077 2.731z" fill="url(#k)" transform="translate(79.037 170.46)"/><path fill="url(#l)" d="m35.294 10.522-1.45-6.313 3.595 7.946L7.776 13.7z" transform="translate(79.037 170.46)"/><path fill="url(#m)" d="m58.461 17.51 28.516-2.957-26.23 3.149 2.394 7.583z" transform="translate(79.037 170.46)"/><path fill="url(#n)" d="m42.209 18.315 7.586 9.001-9.806-8.695L8.715 17.51z" transform="translate(79.037 170.46)"/><path fill="url(#o)" d="m53.904 9.416 31.69.238-32.443 1.263L44.918 3z" transform="translate(79.037 170.46)"/><path d="m7.719 12.314 1.314.437-4.144 1.895c-1.189.559-2.413 1.848-2.413 3.109 0 1.576.955 2.874 3.18 3.415l47.098 10.838a35.547 35.547 0 0 0 24.117-2.974 1.938 1.938 0 0 1 1.338-.17l3.291.768a.913.913 0 0 0-.63.06l-1.54.739a35.552 35.552 0 0 1-25.66 3.842L3.56 22.805C1.097 22.24-.446 19.776.115 17.3a4.594 4.594 0 0 1 2.476-3.122l4.142-1.819c.312-.137.663-.153.986-.046z" fill="url(#p)" transform="translate(75.05 170.322)"/><path d="m99.7 211.586 9.573 2.264a4.119 4.119 0 0 1 3.172 4.008v80.29a2.288 2.288 0 0 1-2.815 2.226l-9.574-2.263a4.119 4.119 0 0 1-3.171-4.009v-80.289a2.288 2.288 0 0 1 2.814-2.227zm0 99.314 9.573 2.264a4.119 4.119 0 0 1 3.172 4.008v9.482a2.288 2.288 0 0 1-2.815 2.227l-9.574-2.263a4.119 4.119 0 0 1-3.171-4.009v-9.482a2.288 2.288 0 0 1 2.814-2.226z" fill="#000"/><path d="m98.258 316.672 1.18 4.428.721.167.807-2.939.023.005.8 3.31.715.166 1.187-3.881-.76-.176-.773 2.982-.023-.006-.812-3.347-.697-.162-.813 2.973-.023-.006-.772-3.338-.76-.176zm5.865 1.356v4.155l.674.155v-1.594l1.02.236c1.003.231 1.504-.083 1.504-.939 0-.85-.501-1.39-1.492-1.62l-1.706-.393zm.674.737.98.227c.294.068.513.17.65.313.14.137.214.329.214.58 0 .25-.07.414-.207.492-.139.073-.358.08-.657.011l-.98-.226v-1.397zm4.552.389c-.444-.103-.807-.087-1.095.05-.31.137-.46.394-.46.76 0 .367.155.682.472.947.12.098.438.288.945.568.455.245.72.4.8.458.254.187.387.392.387.613 0 .175-.093.287-.265.352-.173.06-.415.056-.715-.014-.34-.078-.588-.2-.749-.353-.179-.175-.288-.427-.334-.752l-.668-.155c.028.536.219.964.564 1.289.283.263.68.454 1.187.57.524.122.934.106 1.222-.037.288-.149.432-.412.432-.785 0-.384-.179-.722-.536-1.02-.161-.13-.519-.352-1.078-.656a7.596 7.596 0 0 1-.702-.418c-.196-.15-.289-.317-.289-.492 0-.198.081-.324.254-.372.138-.044.334-.033.593.027.3.069.53.175.68.326.15.145.26.356.317.626l.669.154c-.04-.463-.208-.84-.496-1.121-.27-.266-.651-.453-1.135-.565z" fill="#B3B3B3" fill-rule="nonzero"/><path d="M104.003 290.118c.899.237 1.627-.303 1.627-1.205 0-.903-.728-1.827-1.627-2.064-.898-.237-1.627.302-1.627 1.205s.729 1.827 1.627 2.064zm0-9.4c.899.238 1.627-.302 1.627-1.205 0-.902-.728-1.826-1.627-2.064-.898-.237-1.627.303-1.627 1.206 0 .902.729 1.826 1.627 2.063zm0-9.399c.899.237 1.627-.302 1.627-1.205s-.728-1.827-1.627-2.064c-.898-.237-1.627.302-1.627 1.205s.729 1.827 1.627 2.064zm0-9.399c.899.237 1.627-.303 1.627-1.206 0-.902-.728-1.826-1.627-2.064-.898-.237-1.627.303-1.627 1.206 0 .902.729 1.826 1.627 2.064z" fill="#515151"/><path d="M104.003 252.52c.899.237 1.627-.302 1.627-1.205s-.728-1.827-1.627-2.064c-.898-.237-1.627.302-1.627 1.205s.729 1.827 1.627 2.064z" fill="#FFF"/><path d="M104.003 243.12c.899.238 1.627-.302 1.627-1.205 0-.902-.728-1.826-1.627-2.063-.898-.238-1.627.302-1.627 1.205 0 .902.729 1.826 1.627 2.064zm0-9.399c.899.237 1.627-.302 1.627-1.205s-.728-1.827-1.627-2.064c-.898-.237-1.627.302-1.627 1.205s.729 1.827 1.627 2.064zm0-9.399c.899.237 1.627-.303 1.627-1.205 0-.903-.728-1.827-1.627-2.064-.898-.238-1.627.302-1.627 1.205 0 .902.729 1.827 1.627 2.064z" fill="#515151"/><path d="M668.135 537.945a7.216 7.216 0 0 1 8.592-5.069l.311.08 84.097 23.7c6.905 1.946 10.925 9.121 8.98 16.027a12.99 12.99 0 0 1-4.591 6.779l-.398.293-169.732 120.387a7.217 7.217 0 0 1-8.622-11.57l.273-.203L754.313 569.73l-81.19-22.88a7.217 7.217 0 0 1-5.068-8.593l.08-.312z" fill="#1D2D67" opacity=".392"/><path fill="#1D2D67" opacity=".392" d="M390.523 395.274 800 479.084 435.525 717.766l-27.205 4.53-314.325-84.24 30.565-28.98-79.335-19.328z"/><path d="M90.568 574.296c4.22-2.25 7.564-3.567 9.813.653a8.66 8.66 0 0 1-3.27 11.55l-.297.166-38.855 20.715 56.335 13.326a8.66 8.66 0 0 1 6.503 10.103l-.07.318a8.66 8.66 0 0 1-10.102 6.503l-.317-.069-60.056-14.205a15.876 15.876 0 0 1-10.355-7.981c-4.057-7.61.609-14.12 8.059-18.355l.383-.21 42.229-22.514z" fill="#1D2D67" opacity=".392"/><path fill="#BEC2D2" d="M765.968 453.301v32.34L407.812 719.015v-32.34z"/><path fill="#A1A6BB" d="m742.83 483.518 14.825 7.538-4.185 2.728-10.422-5.298-18.346 11.479-18.666-7.611 4.414-2.878 13.836 5.641zM478.301 640.742l-10.268 27.524-60.222 38.517v-5.142l56.67-36.244 7.714-20.676z"/><path d="M670.751 542.09c3.335-2.035 6.038-7.896 6.038-13.09s-2.703-7.754-6.038-5.718c-3.334 2.035-6.038 7.896-6.038 13.09s2.704 7.754 6.038 5.718zm27.422-18.763c3.335-2.036 6.038-7.897 6.038-13.09 0-5.194-2.703-7.755-6.038-5.719-3.334 2.036-6.038 7.896-6.038 13.09s2.704 7.754 6.038 5.719z" fill="#777F96"/><path d="M670.751 523.282c1.074-.655 2.082-.834 2.955-.603.319.95.496 2.106.496 3.434 0 5.194-2.704 11.055-6.038 13.09-1.074.656-2.082.835-2.955.603-.319-.95-.496-2.106-.496-3.434 0-5.194 2.704-11.055 6.038-13.09zm27.422-18.764c1.074-.655 2.082-.834 2.955-.603.319.95.496 2.107.496 3.435 0 5.194-2.704 11.054-6.038 13.09-1.074.655-2.082.834-2.955.603-.319-.951-.496-2.107-.496-3.435 0-5.194 2.704-11.054 6.038-13.09z" fill="#3D4457"/><path fill="#E4E9FC" d="M93.995 603.312 408.32 686.54v32.34L93.995 635.651z"/><path d="m311.89 676.715 96.43 24.934v4.473l-95.276-24.636-10.52 9.381-5.016-1.328 14.381-12.824z" fill="#D6DCF3"/><path fill="#E4E9FC" d="m45.225 555.032 88.801 21.704v32.34l-88.8-21.704z"/><path fill="#F2F5FF" d="m372.23 372.473 394.246 80.693L408.32 686.54 93.995 603.312l40.031-26.576-88.8-21.704z"/><g transform="translate(23.594 365.089)"><use fill="url(#q)" xlink:href="#r"/><use fill="#000" filter="url(#s)" xlink:href="#r"/></g><path fill="#D0D5EB" d="m367.564 464.478 131.657 33.205-93.867 57.804-135.603-35.905z"/><path fill="url(#t)" d="m349.366 134.633 84.907 23.298-52.513 32.467-86.024-22.778z" transform="translate(23.594 365.089)"/><path fill="#9AA4CC" d="M367.564 464.478v20.58L296.636 526.7l-26.885-7.118z"/><path fill="#7D89B9" d="M367.564 472.952v6.642l-25.479 14.51v-15.27l5.773-3.254v8.592zm-33.419 10.353.001 14.88-16.17 9.306v6.68l-5.773 3.39v-13.408l16.169-9.307v-8.289z"/><path fill="url(#u)" d="m343.97 99.39 131.656 33.204-25.77 15.654-105.886-28.28z" transform="translate(23.594 365.089)"/><path d="m453.7 486.202 5.052 1.274v21.934l-5.051-1.349v-21.859zm-36.081-9.1 5.05 1.274.002 11.096 12.87 2.947v-10.797l5.052 1.274v15.863l-22.974-5.26v-16.397zm-18.762-4.732 5.05 1.274v21.118l-5.05-1.349V472.37z" fill="#8792BB"/><path d="M207.74 115.55c2.422 0 4.519.812 5.534 1.994l22.209 5.324v13.671l29.258 7.483-5.456 3.074-28.132-7.195v-13.62l-19.048-4.566c-1.119.65-2.661 1.052-4.364 1.052-3.416 0-6.186-1.616-6.186-3.609 0-1.993 2.77-3.608 6.186-3.608zm14.433-8.66c2.66 0 4.928.98 5.802 2.354l21.84 5.013-.001 13.393 30.467 7.618-5.488 3.091-29.309-7.327v-13.326l-19.344-4.44c-1.074.525-2.457.84-3.967.84-3.416 0-6.185-1.615-6.185-3.608s2.77-3.608 6.185-3.608zm43.945 12.28 29.222 7.614-5.43 3.06-28.925-7.537 5.133-3.137zm14.393-7.986 30.194 6.87-.02.086-5.5 3.098-30.21-6.873 5.536-3.18zM235.163 98.23c3.303 0 6.001 1.51 6.176 3.411l19.941 4.502 31.812-4.095 30.605 8.761-5.302 2.987-25.638-7.34-31.68 4.081-23.65-5.34c-.702.161-1.465.25-2.264.25-3.416 0-6.186-1.616-6.186-3.61 0-1.992 2.77-3.607 6.186-3.607zm14.432-7.217c3.207 0 5.843 1.423 6.155 3.246l19.276 3.8 28.886-3.342 32.68 8.828-5.382 3.032-27.626-7.464-28.734 3.326-22.822-4.5a10.08 10.08 0 0 1-2.433.29c-3.416 0-6.185-1.615-6.185-3.608s2.77-3.608 6.185-3.608z" fill="url(#v)" fill-rule="nonzero" transform="translate(23.594 365.089)"/><path d="M499.28 92.456c3.416 0 6.186 1.616 6.186 3.608 0 1.993-2.77 3.609-6.186 3.609-.69 0-1.353-.066-1.973-.188l-42.017 27.98-5.667-1.43 43.664-29.075a2.22 2.22 0 0 1-.192-.896c0-1.992 2.77-3.608 6.185-3.608zm-17.319-21.65c3.416 0 6.186 1.615 6.186 3.608s-2.77 3.608-6.186 3.608c-.348 0-.69-.016-1.023-.049l-15.347 11.175 2.494 12.547-32.634 20.766-5.776-1.456L463.26 99.63l-2.454-12.354 15.556-11.328c-.376-.466-.586-.986-.586-1.535 0-1.993 2.77-3.608 6.185-3.608zM445.18 95.37l5.716 1.548-33.715 20.935-5.836-1.472 33.835-21.01zm18.02-30.338c3.416 0 6.185 1.616 6.185 3.609 0 1.993-2.77 3.608-6.185 3.608-.468 0-.923-.03-1.36-.088l-63.053 41.053-5.719-1.442 42.277-27.528-16.51-.64-38.366 24.99-5.719-1.443 36.596-23.836-15.815-.612-33.965 21.123-5.834-1.471 38.642-24.03 47.253 1.829 15.766-10.267a2.319 2.319 0 0 1-.379-1.246c0-1.993 2.77-3.609 6.186-3.609z" fill="url(#w)" fill-rule="nonzero" transform="translate(23.594 365.089)"/><path fill="url(#x)" d="M231.245 0H492.52l-16.893 132.594-93.866 57.804-135.603-35.905z" transform="translate(23.594 365.089)"/><path fill="#114678" opacity=".281" d="m60.59 575.276 18.77 5.393v15.067l-18.77-4.55z"/><path d="M46.566 223.64c5.889 1.506 10.663-2.444 10.663-8.821s-4.774-12.767-10.663-14.272c-5.889-1.506-10.663 2.444-10.663 8.821s4.774 12.767 10.663 14.272z" fill="url(#y)" transform="translate(23.594 365.089)"/><path d="M43.731 200.235a9.772 9.772 0 0 1 2.835.312c5.889 1.505 10.663 7.895 10.663 14.272 0 .215-.006.428-.017.638-1.349 3.252-4.608 4.955-8.413 3.983-5.014-1.282-9.079-6.722-9.079-12.152 0-3.313 1.514-5.857 3.834-7.045z" fill="url(#z)" transform="translate(23.594 365.089)"/><path d="M47.41 200.798c5.494 1.87 9.819 7.951 9.819 14.02 0 .127-.002.252-.006.376l-37.291 19.88 50.286 11.895v17.798L12.225 251.05a15.876 15.876 0 0 1-10.355-7.982C-2.186 235.46.578 226.035 8.028 221.8l.382-.21 39-20.792z" fill="url(#A)" fill-rule="nonzero" transform="translate(23.594 365.089)"/><path d="m308.908 171.109 5.711 1.512-52.877 33.44-19.12-1.24-42.114 27.04c.277.41.429.856.429 1.323 0 1.992-2.77 3.608-6.186 3.608s-6.185-1.616-6.185-3.608c0-1.993 2.77-3.609 6.185-3.609.409 0 .808.023 1.195.067l45.537-29.233 19.134 1.239 48.291-30.54zm16.875 4.468 5.736 1.519-52.815 33.037 1.52 12.956c4.912.171 9.061 2.721 9.061 6.486 0 3.9-4.45 6.495-9.587 6.495-5.138 0-9.588-2.596-9.588-6.495 0-2.893 2.45-5.068 5.812-5.998l-1.838-15.662 51.7-32.338zm-46.085 51.833c-3.061 0-5.258 1.281-5.258 2.165 0 .884 2.197 2.165 5.258 2.165s5.257-1.281 5.257-2.165c0-.884-2.196-2.165-5.257-2.165zm64.936-46.842 5.765 1.527-24.058 14.872 2.772 11.137 34.593-22.486 5.647 1.495-50.69 32.946c.398.476.621 1.012.621 1.578 0 1.993-2.769 3.608-6.185 3.608-3.416 0-6.185-1.615-6.185-3.608s2.769-3.609 6.185-3.609c.24 0 .475.008.707.024l11.466-7.452-3.895-15.654 23.257-14.378zm-69.802-18.481 5.723 1.515-42.323 26.616-25.657 1.24-22.001 13.263c.169.33.26.678.26 1.039 0 1.993-2.77 3.608-6.186 3.608s-6.185-1.615-6.185-3.608 2.77-3.609 6.185-3.609c.554 0 1.09.043 1.6.122l25.026-15.087 25.615-1.24 37.943-23.86zm-16.037-4.247 5.754 1.524-35.876 22.28-26.074 1.86-26.54 15.296c.222.372.342.77.342 1.186 0 1.993-2.77 3.609-6.185 3.609-3.416 0-6.186-1.616-6.186-3.609 0-1.993 2.77-3.608 6.186-3.608.426 0 .843.025 1.245.073l29.839-17.196 25.997-1.856 31.498-19.56zm33.05 8.75 5.753 1.524-29.384 18.248c.554.826.865 1.767.865 2.8 0 3.898-4.45 6.494-9.587 6.494s-9.587-2.596-9.587-6.495 4.45-6.495 9.587-6.495c1.808 0 3.53.322 5.005.908l27.347-16.983zm-32.353 20.406c-3.061 0-5.258 1.281-5.258 2.165 0 .884 2.197 2.165 5.258 2.165s5.258-1.281 5.258-2.165c0-.884-2.197-2.165-5.258-2.165z" fill="url(#B)" fill-rule="nonzero" transform="translate(23.594 365.089)"/><path d="m396.365 181.403 31.898 9.41-14.756 19.189 38.94 10.117c1.001-.408 2.22-.647 3.535-.647 3.417 0 6.186 1.615 6.186 3.608s-2.77 3.609-6.186 3.609c-2.9 0-5.333-1.165-6.003-2.736l-43.89-11.404 14.892-19.37-29.572-8.724 4.956-3.052zm13.772-8.48 46.268 12.86-14.005 17.683 25.941 6.542c.999-.403 2.21-.64 3.517-.64 3.416 0 6.186 1.616 6.186 3.609 0 1.992-2.77 3.608-6.186 3.608-2.902 0-5.338-1.166-6.004-2.74l-31.004-7.817 14.111-17.82-43.852-12.189 5.028-3.097zm14.36-8.843 64.832 16.596c2.009-1.477 4.932-2.34 8.096-2.34 5.82 0 10.824 2.92 10.824 7.217s-5.004 7.217-10.824 7.217-10.825-2.92-10.825-7.217c0-.37.037-.73.109-1.078l-67.118-17.18.058-.23 4.847-2.985zm72.928 18.586c-3.745 0-6.495 1.604-6.495 2.887 0 1.282 2.75 2.886 6.495 2.886 3.744 0 6.494-1.604 6.494-2.886 0-1.283-2.75-2.887-6.494-2.887zM439.9 154.594l43.055 10.746 29.173-10.098 29.88 7.111c.986-.389 2.175-.616 3.456-.616 3.416 0 6.185 1.616 6.185 3.609 0 1.993-2.769 3.608-6.185 3.608-2.915 0-5.359-1.176-6.013-2.759l-27.1-6.45-29.195 10.109-48.413-12.085 5.157-3.175zm26.59-16.374 32.791 8.263 11.017-3.842 47.172 11.23c1.06-.497 2.405-.794 3.87-.794 3.416 0 6.185 1.616 6.185 3.609 0 1.992-2.77 3.608-6.185 3.608-2.72 0-5.029-1.024-5.858-2.446l-44.955-10.702-31.33 10.932-31.587-8.232 5.106-3.144 26.297 6.853 12.838-4.48-30.506-7.687 5.145-3.168z" fill="url(#C)" fill-rule="nonzero" transform="translate(23.594 365.089)"/><path d="m560.88 93.482.434-.826 94.87-22.498 86.19 18.054-32.816 21.506c-22.49 3.57-43.8 5.051-63.93 4.445-20.115-.605-32.882-2.681-56.233-8.641-9.027-2.305-18.307-5.657-27.84-10.057a1.44 1.44 0 0 1-.676-1.983z" fill="url(#D)" transform="translate(23.594 365.089)"/><path d="m645.762 159.297 87.545 25.033c6.897 1.972 10.89 9.163 8.918 16.06a12.99 12.99 0 0 1-4.58 6.734l-.395.291-169.78 120.422a7.217 7.217 0 0 1-8.622-11.57l.273-.203L726.449 197.38l-85.22-24.366a13.005 13.005 0 0 1-.11-1.73c0-4.447 1.98-9.38 4.643-11.987z" fill="url(#E)" fill-rule="nonzero" transform="translate(23.594 365.089)"/><path d="m40.85.278 379.48 82.018c6.986 1.51 12.65 8.746 12.65 16.162v232.308c0 7.416-5.664 12.204-12.65 10.695L40.85 259.443c-6.986-1.51-12.65-8.746-12.65-16.162V10.972c0-7.416 5.664-12.204 12.65-10.694z" fill="url(#F)" opacity=".334" transform="translate(317.519 11.547)"/><path d="m12.65 15.05 379.48 82.017c6.986 1.51 12.65 8.746 12.65 16.162v232.308c0 7.416-5.664 12.204-12.65 10.695L12.65 274.214C5.662 272.704 0 265.468 0 258.052V25.744c0-7.417 5.663-12.205 12.65-10.695z" fill="url(#G)" transform="translate(317.519 11.547)"/><path d="M418.713 171.959c13.972 3.02 25.299-6.556 25.299-21.389 0-14.832-11.327-29.304-25.299-32.324-13.972-3.02-25.298 6.556-25.298 21.389 0 14.832 11.326 29.304 25.298 32.324z" fill="#FFF" opacity=".8"/><path d="m518.643 147.9 17.71 3.828c1.396.302 2.53 1.75 2.53 3.233v8.057c0 1.483-1.134 2.44-2.53 2.139l-17.71-3.828c-1.397-.302-2.53-1.75-2.53-3.232v-8.057c0-1.484 1.133-2.441 2.53-2.14zm29.094 6.289 17.709 3.827c1.397.302 2.53 1.75 2.53 3.233v8.057c0 1.483-1.133 2.44-2.53 2.139l-17.71-3.828c-1.397-.302-2.53-1.75-2.53-3.232v-8.057c0-1.483 1.133-2.441 2.53-2.14zm29.093 6.288 17.71 3.827c1.396.302 2.53 1.75 2.53 3.233v8.057c0 1.483-1.134 2.44-2.53 2.139l-17.71-3.828c-1.397-.302-2.53-1.749-2.53-3.232v-8.057c0-1.483 1.133-2.441 2.53-2.14z" fill="#FFF"/><path d="m518.643 174.757 163.177 35.268c1.397.302 2.53 1.75 2.53 3.232v8.057c0 1.484-1.133 2.441-2.53 2.14l-163.177-35.268c-1.397-.302-2.53-1.75-2.53-3.233v-8.057c0-1.483 1.133-2.44 2.53-2.139zm0 26.857L681.82 236.88c1.397.302 2.53 1.75 2.53 3.233v8.057c0 1.483-1.133 2.44-2.53 2.139l-163.177-35.268c-1.397-.302-2.53-1.75-2.53-3.232v-8.057c0-1.484 1.133-2.441 2.53-2.14zm0 26.856 80.956 17.497c1.397.302 2.53 1.75 2.53 3.233v8.057c0 1.483-1.133 2.44-2.53 2.139l-80.956-17.498c-1.397-.302-2.53-1.749-2.53-3.232v-8.057c0-1.483 1.133-2.44 2.53-2.139z" fill="#21386C" opacity=".345"/><path d="M418.713 232.386c31.437 6.794 56.922 9.23 56.922-5.602s-25.485-41.316-56.922-48.111c-31.437-6.795-56.922 8.673-56.922 23.506 0 14.832 25.485 23.412 56.922 30.207z" fill="#FFF" opacity=".8"/><path d="M499.22 602.09c14.114 0 21.207-6.117 23.281-12.067 2.91-8.35-10.575-14.32-29.81-14.32-19.234 0-27.96 13.05-27.96 15.859 0 7.021 18.898 10.528 34.49 10.528z" fill="url(#H)"/><path d="m.001 26.03.6-1.813-.6-1.015V9.193h44.196v14.294l-.697 1.077.697 1.2v12.79h-.01c.125 1.603-.857 3.418-4.152 5.506-4.491 2.846-7.997 4.38-11.966 4.572-3.97.19-8.94-.191-17.685-2.427C1.637 43.969 0 40.872 0 38.67V26.03z" fill="url(#I)" transform="translate(464.732 551.365)"/><path d="M479.529 552.076c2.97-.37 6.18-.37 14.433 1.034 8.254 1.404 13.392 3.205 14.44 5.172 1.049 1.968.856 3.699-3.634 6.515-4.49 2.817-7.994 4.336-11.963 4.525-3.969.19-8.936-.189-17.68-2.402-8.743-2.213-10.173-4.023-10.38-6.29-.206-2.268 2.045-4.32 5.522-5.977 3.477-1.656 6.292-2.208 9.262-2.577z" fill="#3E3E3E"/><path d="m475.342 580.795.853.213 1.24.3 1.193.275.771.17.753.16.734.15.716.14.352.067.692.125c.456.08.901.155 1.336.222l.646.098.633.087c.208.028.414.054.618.08l.607.07c.2.021.398.042.594.06l.583.054.572.044.702.044.687.031c.272.01.541.018.807.022l.53.005h.261l.52-.007c.343-.006.684-.018 1.021-.034 3.414-.163 6.554-1.337 10.918-4.008l.617-.383c.498-.312.959-.62 1.381-.923l.353-.259.17-.128.325-.254c1.176-.938 1.814-1.635 2.402-2.364l-.697 1.077.697 1.2c-.943.939-2.18 2.201-3.691 3.149-4.925 3.089-8.464 4.472-12.39 4.659-.177.008-.353.015-.53.021l-.534.015c-.269.005-.54.007-.812.007l-.55-.005-.277-.005-.56-.017-.57-.025-.577-.033-.587-.04-.597-.05-.608-.06a51.996 51.996 0 0 1-.934-.104l-.638-.08-.65-.09-.332-.049-.672-.104-.341-.056-.695-.118-.89-.162-.916-.177-.374-.076-.762-.158-.78-.17-.396-.088-1.22-.281-.84-.201-1.298-.322c-4.682-1.185-8.119-3.02-10.176-5.077l.601-1.85-.601-1.015c1.227 2.32 4.79 4.755 10.61 6.228z" fill="#323232" fill-rule="nonzero"/><path d="M15.135.202c2.892-.359 6.016-.359 14.049 1.007 8.033 1.367 13.035 3.12 14.055 5.035 1.02 1.914.832 3.295-3.538 6.036-4.37 2.742-7.78 4.22-11.644 4.405-3.862.184-8.698-.184-17.208-2.338C2.339 12.193.947 10.735.747 8.528.546 6.321 2.737 4.323 6.12 2.711 9.505 1.1 12.244.561 15.135.202z" fill="url(#J)" transform="translate(464.732 551.365)"/><path d="M482.693 561.196a.384.384 0 0 1 .146.67l-2.17 1.772c-.37.301-.86.409-1.321.289a.384.384 0 0 1-.147-.67l2.17-1.772c.37-.302.86-.41 1.322-.29z" fill="#FFF"/><path d="M476.596 586.252c3.024.721 4.202-2.131 4.202-4.247-1.313-.26-2.552-.526-3.718-.797a74.038 74.038 0 0 1-3.508-.91c0 2.116 0 5.233 3.024 5.954z" fill="#D54646"/><path d="m596.749 308.015 66.24 15.57c.6.14 1.14.47 1.539.941 3.17 3.751 5.885 7.545 8.144 11.384 2.635 4.478 4.787 9.002 6.456 13.572.113.308.172.633.175.96l.475 49.993-1.44 15.932v52.711a2.879 2.879 0 0 1-3.885 2.694c-13.546-5.067-27.19-9.123-40.931-12.167-12.667-2.805-25.023-4.565-37.067-5.278a2.879 2.879 0 0 1-2.711-2.958l.358-12.26c.026-.89-.03-1.782-.17-2.662l-1.078-6.84a12.475 12.475 0 0 1-.152-1.943v-45.8c0-.282.01-.563.029-.844l.894-13.186c.024-.362.035-.725.032-1.088l-.446-55.905a2.879 2.879 0 0 1 3.538-2.826z" fill="#849EB2"/><path d="m602.338 315.47 51.717 11.456a8.157 8.157 0 0 1 5.251 3.803l15.933 26.86a8.157 8.157 0 0 1 1.141 4.161v108.964l-1.44.807-.943-.286c-11.467-3.753-22.65-7.407-35.597-10.274-12.194-2.701-25.187-4.924-38.98-6.667V317.813a2.4 2.4 0 0 1 2.918-2.342z" fill="#464646"/><path d="m598.02 317.864 51.716 11.455a8.157 8.157 0 0 1 5.252 3.803l15.932 26.86a8.157 8.157 0 0 1 1.142 4.161v109.062l-1.44.723-75.52-17.241V320.206a2.4 2.4 0 0 1 2.917-2.342z" fill="#464646"/><path d="m593.7 320.257 51.718 11.455a8.157 8.157 0 0 1 5.251 3.803l15.933 26.86a8.157 8.157 0 0 1 1.141 4.161v109.112l-1.44.881c-14.545-.793-28.294-3.107-41.338-5.996-12.194-2.701-23.588-6.519-34.182-11.453V322.599a2.4 2.4 0 0 1 2.918-2.342z" fill="#464646"/><path d="m672.062 414.864.735 1.868a17.276 17.276 0 0 1 1.2 6.327v48.176l-1.935.958v-57.329zm-4.319 2.609.735 1.868a17.27 17.27 0 0 1 1.2 6.326v48.067l-1.935 1.067v-57.328z" fill="#6B6B6B"/><path d="M671.581 425.203v34.625l-1.439.803v-34.723l1.44-.705z" fill="#FFF"/><path d="M601.819 315.414c.175 0 .349.02.52.057l51.713 11.455a8.156 8.156 0 0 1 5.252 3.8l15.94 26.87a8.12 8.12 0 0 1 1.136 4.143v108.975l-1.44.807V361.739c0-1.13-.286-2.24-.83-3.228l-.106-.184-15.939-26.87a6.716 6.716 0 0 0-4.15-3.089l-.175-.04-51.713-11.455c-.642-.148-1.118-.221-1.427-.221-.47 0-.832.162-1.086.488a2.4 2.4 0 0 1 2.305-1.726z" fill="#8B8B8B" fill-rule="nonzero"/><path d="M672.061 460.306v12.9l-1.439.722V461.11l1.439-.803zm-74.56-142.499c.174 0 .349.02.52.057l51.713 11.455a8.156 8.156 0 0 1 5.252 3.8l15.939 26.87a8.12 8.12 0 0 1 1.137 4.144l-.001 60.59-1.439.705v-61.295c0-1.13-.286-2.24-.83-3.229l-.106-.183-15.94-26.872a6.716 6.716 0 0 0-4.15-3.088l-.174-.04-51.714-11.455c-.561-.16-.97-.266-1.225-.316-.496-.096-.896.014-1.198.33a2.4 2.4 0 0 1 2.215-1.473z" fill="#8B8B8B" fill-rule="nonzero"/><path d="M593.182 320.2c.175 0 .35.02.52.057l51.713 11.455a8.156 8.156 0 0 1 5.252 3.8l15.94 26.87a8.12 8.12 0 0 1 1.136 4.144v109.122l-1.44.88V366.526c0-1.13-.286-2.24-.83-3.229l-.105-.183-15.94-26.871a6.716 6.716 0 0 0-4.15-3.089l-.175-.04-51.713-11.455a22.84 22.84 0 0 0-1.192-.273c-.488-.093-.908.028-1.262.363a2.396 2.396 0 0 1 2.246-1.55z" fill="#8B8B8B" fill-rule="nonzero"/><path d="m5.342.802 62.113 14.547c.85.2 1.565.776 1.94 1.565a153.421 153.421 0 0 0 6.256 11.819 163.54 163.54 0 0 0 8.007 12.338 2.88 2.88 0 0 1 .54 1.676v50.99l1.919 15.932v53.919a2.879 2.879 0 0 1-2.99 2.875c-13.244-.512-26.867-2.318-40.868-5.42-13.068-2.894-26.537-7.162-40.408-12.801a2.877 2.877 0 0 1-1.793-2.75l.384-13.136a14.36 14.36 0 0 1 .302-2.54l1.388-6.604c.178-.844.267-1.704.267-2.567V75.793c0-.699-.059-1.396-.175-2.085L.24 62.013a14.395 14.395 0 0 1-.195-2.862L1.808 3.514A2.879 2.879 0 0 1 5.342.802z" fill="url(#K)" transform="translate(583.106 311.006)"/><path d="M6.457 76.179v45.9a8.677 8.677 0 0 0-4.459 4.862L.48 131.072l1.92-9.13v-47.2L0 60.593l3.53 10.303a15.354 15.354 0 0 0 1.802 3.618l1.125 1.666z" fill="url(#L)" transform="translate(583.106 311.006)"/><g transform="translate(508.831 648.068)"><ellipse fill="#1D2D67" opacity=".392" cx="67.112" cy="62.064" rx="67.112" ry="28.867"/><path d="M58.372 86.602c31.884 0 57.73-11.632 57.73-25.98V25.98H.643v34.641c0 14.349 25.846 25.98 57.73 25.98z" fill="url(#M)"/><path d="M58.372 51.96c31.884 0 57.73-11.63 57.73-25.98C116.103 11.632 90.257 0 58.373 0 26.488 0 .642 11.632.642 25.98c0 14.35 25.846 25.98 57.73 25.98z" fill="#F2F5FF"/><path d="M73.043 39.982c17.632 0 43.06-6.785 43.06-14.002C116.103 11.632 90.256 0 58.373 0 26.487 0 13.23 17.8 13.23 21.691c0 9.725 33.968 18.29 59.812 18.29z" fill="url(#N)"/></g><path d="m85.374 28.679 2.043 76.056c.069 2.709-1.969 5.57-8.23 9.498-8.884 5.572-15.818 8.578-23.67 8.953-7.852.374-17.681-.375-34.98-4.753C3.236 114.054 0 110.298 0 105.987c0-.192.008-.384.024-.576L2.019 28.68h83.355z" fill="url(#O)" transform="translate(523.194 562.72)"/><path d="M553.12 576.555c5.602-.696 11.655-.696 27.221 1.952 15.566 2.647 25.257 6.044 27.235 9.754 1.977 3.71 1.613 6.975-6.855 12.287-8.469 5.312-15.078 8.178-22.563 8.534-7.484.357-16.854-.356-33.344-4.53-16.49-4.174-19.187-7.588-19.576-11.864-.39-4.276 3.856-8.148 10.414-11.271 6.557-3.123 11.865-4.165 17.467-4.862z" fill="#3E3E3E"/><path d="M30.033 14.716c5.41-.673 11.957-.673 26.288 1.884 14.33 2.557 24.39 5.225 26.3 8.808 1.909 3.582.957 6.135-7.22 11.264-8.179 5.13-13.96 7.296-21.188 7.64-7.228.345-16.276-.344-32.2-4.374-15.926-4.03-18.529-6.126-18.905-10.256-.376-4.13 4.926-7.868 11.259-10.884 6.332-3.016 10.256-3.41 15.666-4.082z" fill="url(#P)" transform="translate(523.194 562.72)"/><path d="M554.372 577.993c5.091-.633 11.253-.633 24.741 1.773 13.488 2.407 22.956 4.917 24.753 8.29 1.797 3.371.312 5.184-7.385 10.012s-12.549 6.867-19.352 7.191c-6.803.324-15.318-.324-30.306-4.117-14.988-3.794-18.028-5.177-18.381-9.063-.354-3.887 3.84-7.301 10.041-10.245 6.202-2.943 10.797-3.208 15.889-3.841z" fill="#7A7A7A"/><path d="M559.267 584.966c3.684-.458 8.14-.458 17.898 1.283 9.757 1.74 16.607 3.557 17.907 5.996 1.3 2.44.225 3.75-5.343 7.243-5.568 3.493-9.078 4.968-13.999 5.202-4.921.235-11.081-.234-21.924-2.978-10.842-2.745-13.04-3.745-13.297-6.557-.256-2.811 2.778-5.281 7.264-7.41 4.487-2.13 7.81-2.322 11.494-2.78z" fill="#525252"/><path d="M553.709 565.948c5.602-.696 11.066-1.875 26.632.773s25.257 6.045 27.235 9.755c1.977 3.71.177 10.052-7.195 15.72-7.373 5.667-14.738 9.458-22.223 9.815-7.484.357-16.854-.357-33.344-4.53-16.49-4.174-19.187-7.588-19.576-11.864-.39-4.277 4.413-9.573 10.414-13.04 6-3.466 12.455-5.932 18.057-6.629z" fill="#404040"/><path d="M30.515.872c5.602-.696 11.066-1.875 26.632.773S81.815 7.69 83.792 11.4c1.977 3.71.826 9.86-6.855 15.822-7.68 5.963-14.488 9.356-21.973 9.713-7.485.356-16.854-.357-33.345-4.53C5.13 28.23 2.433 24.817 2.044 20.54 1.654 16.264 6.457 11 12.458 7.501c6-3.499 12.454-5.932 18.057-6.629z" fill="url(#Q)" transform="translate(523.194 562.72)"/><path d="M548.048 662.947a.962.962 0 0 1 .834.992l-.309 7.551a.801.801 0 0 1-.905.762.962.962 0 0 1-.835-.993l.309-7.55a.801.801 0 0 1 .906-.762z" fill="#FFF"/><g fill-rule="nonzero"><path d="M102.997 129.659c4.276 5.734 4.276 13.366 0 17.046l-9.82 6.605-14.668-21.087c.438-.674 8.391-5.755 9.005-6.284 4.275-3.68 11.208-2.015 15.483 3.72zm76.45-67.936c3.206 4.301 3.206 10.025 0 12.785l-8.81 5.873c-29.435-28.665-51.386-45.92-65.852-51.764-31.93-12.9-68.026-6.286-83.936 7.409-3.207 2.76-6.578 2.336-9.784-1.965-3.207-4.3-3.207-10.025 0-12.785C57.562-18.747 132.949-.638 179.446 61.723zm-26.129 24.029c3.207 4.3 3.207 10.025 0 12.785l-9.205 6.08c-21.04-19.462-36.562-31.253-46.569-35.372-19.264-7.93-40.952-5.68-50.565 2.594-3.206 2.76-6.58 3.104-9.786-1.197-3.207-4.3-3.207-10.025 0-12.785C69.26 30.255 121.25 42.744 153.318 85.752zm-26.128 20.952c3.207 4.3 3.207 10.024 0 12.785l-9.583 6.45c-11.224-15.053-31.45-28.664-42.673-19.003-3.207 2.76-8.406 1.511-11.613-2.79-3.207-4.3-3.207-10.024 0-12.785 17.637-15.18 46.232-8.312 63.869 15.343z" fill="url(#R)" transform="translate(295.87 311.766)"/><path d="M94.338 135.432c4.275 5.734 4.275 13.366 0 17.047-4.276 3.68-11.208 2.015-15.484-3.72-4.275-5.734-4.275-13.366 0-17.046 4.276-3.68 11.208-2.016 15.484 3.719zm76.449-67.935c3.207 4.3 3.207 10.024 0 12.785-3.207 2.76-8.406 1.51-11.613-2.79C119.09 23.732 54.102 8.121 14.018 42.624c-3.207 2.76-8.406 1.511-11.613-2.79-3.207-4.3-3.207-10.025 0-12.785C48.902-12.974 124.29 5.135 170.787 67.497zm-26.128 24.028c3.206 4.3 3.206 10.025 0 12.785-3.207 2.76-8.406 1.511-11.613-2.79-25.654-34.406-67.246-44.397-92.9-22.315-3.207 2.76-8.406 1.511-11.613-2.79-3.206-4.3-3.206-10.025 0-12.785C60.6 36.028 112.592 48.517 144.66 91.525zm-26.129 20.952c3.207 4.3 3.207 10.025 0 12.785-3.206 2.76-8.405 1.511-11.612-2.79-11.224-15.052-29.42-19.423-40.644-9.763-3.207 2.76-8.406 1.512-11.613-2.79-3.206-4.3-3.206-10.024 0-12.784 17.637-15.182 46.233-8.313 63.87 15.342z" fill="url(#S)" transform="translate(295.87 311.766)"/></g><path d="m5.418 1.408 57.014 14.81a7.216 7.216 0 0 1 5.401 6.985v49.32a1.443 1.443 0 0 1-2.59.874l-7.003-9.193L5.402 50.478A7.216 7.216 0 0 1 0 43.493V5.598a4.33 4.33 0 0 1 5.418-4.19z" fill="url(#T)" fill-rule="nonzero" transform="translate(225.15)"/><path d="M238.139 32.85c2.391.605 4.33-.843 4.33-3.234 0-2.392-1.939-4.821-4.33-5.426-2.391-.606-4.33.842-4.33 3.234 0 2.391 1.939 4.82 4.33 5.426zm18.762 4.749c2.392.605 4.33-.843 4.33-3.235 0-2.391-1.938-4.82-4.33-5.426-2.39-.605-4.33.843-4.33 3.235 0 2.391 1.94 4.82 4.33 5.426zm18.763 4.748c2.391.606 4.33-.842 4.33-3.234 0-2.391-1.939-4.82-4.33-5.426-2.391-.605-4.33.843-4.33 3.234 0 2.392 1.939 4.821 4.33 5.426z" fill="#FFF"/><path fill="url(#U)" d="m350.714 604.768 38.554 9.864v44.983l-38.554-9.865zM0 252.588l38.554 9.865v44.983L0 297.57z"/><path fill="url(#V)" d="m342.054 632.293 17.32 4.431v20.207l-17.32-4.431z"/><path fill="url(#W)" d="m753.385 44.846 17.319 4.431v27.424l-17.32-4.432z"/><rect fill="url(#X)" x="431.537" y="470.535" width="2.887" height="8.66" rx="1.443"/><rect fill="url(#Y)" x="378.136" y="512.393" width="2.887" height="21.65" rx="1.443"/><rect fill="url(#X)" x="326.178" y="500.846" width="2.887" height="8.66" rx="1.443"/><rect fill="url(#X)" x="431.537" y="482.082" width="2.887" height="8.66" rx="1.443"/><rect fill="url(#Z)" x="386.795" y="534.043" width="2.887" height="14.434" rx="1.443"/><rect fill="url(#aa)" x="336.281" y="518.166" width="2.887" height="8.66" rx="1.443"/><rect fill="url(#Z)" x="458.959" y="450.328" width="2.887" height="14.434" rx="1.443"/><rect fill="url(#Z)" x="292.983" y="405.584" width="2.887" height="14.434" rx="1.443"/><rect fill="url(#aa)" x="405.558" y="486.412" width="2.887" height="8.66" rx="1.443"/><rect fill="url(#aa)" x="336.281" y="495.072" width="2.887" height="8.66" rx="1.443"/><rect fill="url(#X)" x="385.352" y="505.176" width="2.887" height="8.66" rx="1.443"/><path d="m49.738 127.998 41.076 10.334a2.887 2.887 0 0 1 .731 5.304l-32.832 18.818a14.433 14.433 0 0 1-10.698 1.475L6.939 153.596a2.887 2.887 0 0 1-.731-5.304l32.831-18.819a14.433 14.433 0 0 1 10.699-1.475z" stroke="url(#ab)" stroke-width="4.33" stroke-linecap="square" transform="translate(95.184 396.177)"/><path d="M92.908 0v141.836a2.887 2.887 0 0 1-1.363 1.8l-32.832 18.818a14.432 14.432 0 0 1-10.698 1.475L6.94 153.596a2.887 2.887 0 0 1-2.095-3.504V0h88.064z" fill="url(#ac)" transform="translate(95.184 396.177)"/><path d="m49.738 109.235 41.076 10.333a2.887 2.887 0 0 1 .731 5.304L58.713 143.69a14.433 14.433 0 0 1-10.698 1.475L6.939 134.832a2.887 2.887 0 0 1-.731-5.304l32.831-18.818a14.433 14.433 0 0 1 10.699-1.475z" stroke="url(#ad)" stroke-width="2.887" opacity=".268" stroke-linecap="square" transform="translate(95.184 396.177)"/><path d="M49.738 89.028 90.814 99.36a2.887 2.887 0 0 1 .731 5.304l-32.832 18.818a14.433 14.433 0 0 1-10.698 1.475L6.939 114.625a2.887 2.887 0 0 1-.731-5.304l32.831-18.818a14.433 14.433 0 0 1 10.699-1.475z" stroke="url(#ad)" stroke-width="2.887" opacity=".268" stroke-linecap="square" transform="translate(95.184 396.177)"/></g></svg>