<svg width="168" height="68" viewBox="0 0 168 68" xmlns="http://www.w3.org/2000/svg" xmlns:xlink="http://www.w3.org/1999/xlink">
    <defs>
        <path id="bax2zyxc2a" d="M0 0h85v47H0z"/>
        <path id="x75abmj2yc" d="M0 0h69v48H0z"/>
    </defs>
    <g fill="none" fill-rule="evenodd">
        <g transform="translate(12 11)">
            <mask id="1i1r6mqsdb" fill="#fff">
                <use xlink:href="#bax2zyxc2a"/>
            </mask>
            <path d="M8.744 46.917H0c.01-.14-.024-.285.033-.374 1.917-3.03 2.675-6.484 3.638-9.86 2.91-10.204 5.822-20.409 8.685-30.626.39-1.392.513-2.858.742-4.292.084-.527.118-1.062.182-1.662h20.922l5.625 33.873c.456-.567.733-.888.985-1.228 7.685-10.381 15.381-20.754 23.03-31.16C64.668.465 65.516-.026 66.971 0c5.635.1 11.274.042 16.91.042H85c-.339.582-.692 1.025-.875 1.53-.945 2.612-1.972 5.203-2.74 7.867a3250.308 3250.308 0 0 0-9.118 32.231c-.457 1.651-.522 3.41-.784 5.221H54.76c-.015-.073-.058-.152-.035-.191 2.15-3.525 2.965-7.525 4.078-11.414 2.58-9.014 5.13-18.036 7.69-27.056.1-.352.191-.707.094-1.154-1.035 1.392-2.073 2.781-3.106 4.174-8.638 11.646-17.28 23.289-25.9 34.947-.406.55-.823.746-1.497.741A337.39 337.39 0 0 0 27.2 47c-.794.016-1.108-.227-1.235-1.023-1.224-7.66-2.487-15.313-3.738-22.97-.838-5.124-1.676-10.249-2.517-15.373-.025-.15-.088-.293-.18-.587-.137.274-.236.415-.282.572-3.214 11.228-6.454 22.448-9.607 33.692-.496 1.774-.596 3.656-.897 5.607" fill="#014E81" mask="url(#1i1r6mqsdb)"/>
        </g>
        <g transform="translate(85 10)">
            <mask id="t41xehb07d" fill="#fff">
                <use xlink:href="#x75abmj2yc"/>
            </mask>
            <path d="M13.7.017h.885C20.474.017 26.364.03 32.253 0c.768-.004 1.176.205 1.496.942 4.844 11.178 9.719 22.342 14.594 33.506.501 1.148 1.056 2.273 1.707 3.666.62-2.17 1.166-4.054 1.698-5.943 2.45-8.7 4.93-17.392 7.316-26.11.524-1.913.706-3.92 1.062-5.98H69c-.286.525-.625.99-.806 1.509-1.035 2.965-2.156 5.908-3.02 8.924-3.504 12.223-6.925 24.47-10.379 36.707-.06.213-.148.416-.271.758h-2.627c-4.903 0-9.806-.023-14.708.021-.822.008-1.156-.32-1.457-1.013-5.32-12.266-10.664-24.522-16.005-36.78-.133-.305-.291-.6-.55-1.126-.453 1.453-.856 2.647-1.198 3.858-2.757 9.758-5.534 19.511-8.226 29.287-.493 1.789-.627 3.678-.948 5.649H.025c-.003-.064-.048-.179-.01-.24 1.955-3.1 2.739-6.63 3.716-10.088 2.935-10.382 5.89-20.76 8.765-31.159.555-2.008.785-4.107 1.203-6.371" fill="#E51524" mask="url(#t41xehb07d)"/>
        </g>
    </g>
</svg>
