<svg xmlns="http://www.w3.org/2000/svg" width="200" height="200" class="icon" viewBox="0 0 1024 1024"><path fill="#FFA953" d="M109.714 438.857h73.143Q256 438.857 256 512v365.714q0 73.143-73.143 73.143h-73.143q-73.143 0-73.143-73.143V512q0-73.143 73.143-73.143ZM475.429 292.571h73.142q73.143 0 73.143 73.143v512q0 73.143-73.143 73.143H475.43q-73.143 0-73.143-73.143v-512q0-73.143 73.143-73.143ZM841.143 73.143h73.143q73.143 0 73.143 73.143v731.428q0 73.143-73.143 73.143h-73.143q-73.143 0-73.143-73.143V146.286q0-73.143 73.143-73.143Z"/></svg>