<?xml version="1.0" standalone="no"?><!DOCTYPE svg PUBLIC "-//W3C//DTD SVG 1.1//EN" "http://www.w3.org/Graphics/SVG/1.1/DTD/svg11.dtd"><svg t="1671523072456" class="icon" viewBox="0 0 1024 1024" version="1.1" xmlns="http://www.w3.org/2000/svg" p-id="3282" xmlns:xlink="http://www.w3.org/1999/xlink" width="200" height="200"><path d="M905.846154 406.961231v77.075692a275.692308 275.692308 0 0 0-328.979692 380.258462H144.187077a26.624 26.624 0 0 1-26.033231-27.175385V406.961231h787.692308z" fill="#EFCE4A" p-id="3283"></path><path d="M493.213538 274.904615V187.155692c0-16.344615-11.657846-29.617231-25.993846-29.61723H144.147692C129.811692 157.538462 118.153846 170.811077 118.153846 187.155692v219.805539h787.692308v-102.4c0-16.384-11.657846-29.656615-26.033231-29.656616h-386.599385z" fill="#EBBA16" p-id="3284"></path><path d="M827.076923 551.384615a196.923077 196.923077 0 1 0 0 393.846154 196.923077 196.923077 0 0 0 0-393.846154z" fill="#FF000D" p-id="3285"></path><path d="M937.590154 637.794462a26.033231 26.033231 0 0 1 0 36.824615L863.940923 748.307692l73.649231 73.649231a26.033231 26.033231 0 1 1-36.824616 36.864L827.076923 785.171692l-73.649231 73.649231a26.033231 26.033231 0 1 1-36.864-36.824615L790.212923 748.307692l-73.649231-73.64923a26.033231 26.033231 0 0 1 36.824616-36.864L827.076923 711.443692l73.649231-73.64923a26.033231 26.033231 0 0 1 36.864 0z" fill="#FFFFFF" p-id="3286"></path></svg>