<svg xmlns="http://www.w3.org/2000/svg" width="200" height="200" class="icon" viewBox="0 0 1024 1024"><path fill="#EFCE4A" d="M905.846 406.961v77.076a275.692 275.692 0 0 0-328.98 380.258H144.187a26.624 26.624 0 0 1-26.033-27.175V406.961h787.692z"/><path fill="#EBBA16" d="M493.214 274.905v-87.75c0-16.344-11.658-29.617-25.994-29.617H144.148c-14.336 0-25.994 13.273-25.994 29.618V406.96h787.692v-102.4c0-16.384-11.658-29.656-26.033-29.656h-386.6z"/><path fill="#FF000D" d="M827.077 551.385a196.923 196.923 0 1 0 0 393.846 196.923 196.923 0 0 0 0-393.846z"/><path fill="#FFF" d="M937.59 637.794a26.033 26.033 0 0 1 0 36.825l-73.65 73.689 73.65 73.649a26.033 26.033 0 1 1-36.824 36.864l-73.69-73.65-73.648 73.65a26.033 26.033 0 1 1-36.864-36.825l73.649-73.688-73.65-73.65a26.033 26.033 0 0 1 36.825-36.864l73.689 73.65 73.65-73.65a26.033 26.033 0 0 1 36.863 0z"/></svg>