<?xml version="1.0" standalone="no"?><!DOCTYPE svg PUBLIC "-//W3C//DTD SVG 1.1//EN" "http://www.w3.org/Graphics/SVG/1.1/DTD/svg11.dtd"><svg t="1670311373877" class="icon" viewBox="0 0 1691 1024" version="1.1" xmlns="http://www.w3.org/2000/svg" p-id="3255" xmlns:xlink="http://www.w3.org/1999/xlink" width="330.2734375" height="200"><path d="M1169.381053 410.727175a25.822014 25.822014 0 0 1 26.17818 25.510369 25.822014 25.822014 0 0 1-26.17818 25.510369H130.890897c-43.274133 0-78.490017 34.369991-78.490018 76.575627v357.278723c0 42.205636 35.171363 76.575627 78.490018 76.575627h1290.343831c43.274133 0 78.490017-34.369991 78.490017-76.575627v-357.278723a25.822014 25.822014 0 0 1 26.17818-25.510369 25.822014 25.822014 0 0 1 26.178179 25.510369v357.278723c0 70.387248-58.6783 127.596364-130.890897 127.596364H130.890897C58.6783 1023.198627 0 965.989511 0 895.602263v-357.278723c0-70.342727 58.6783-127.596364 130.890897-127.596365h1038.490156zM298.199737 569.888725c53.113211 0 87.572243 27.602842 105.068883 69.585875 1.825349 4.006864 2.537681 7.568521 2.537681 11.753468a25.59941 25.59941 0 0 1-16.161019 23.595978 31.965872 31.965872 0 0 1-12.065113 2.671243c-10.106202 0-18.208972-5.520568-22.43844-16.027457-10.59593-26.267221-27.335718-40.246725-56.630347-40.246724-46.924832 0-77.020834 43.05153-77.020834 113.572339 0 71.455745 30.852854 113.216174 78.400976 113.216174 33.256973 0 59.034466-23.373374 61.928312-58.05501l0.267125-6.589066v-9.304829l0.222603-1.202059-0.267124 0.133562H316.809395c-14.291149 0-22.705564-10.417847-22.705563-25.065162 0-13.356214 6.767148-23.595978 18.609658-25.554889l4.095905-0.311645h55.56185c23.685019 0 35.483008 12.154155 37.041234 36.551506l0.178083 5.876734v108.63054c0 15.58225-8.993184 25.465848-23.417896 25.465848-12.554841 0-21.548025-7.345918-23.373374-18.6987l-0.311645-3.650698-4.897278 3.962343c-16.116498 11.88703-36.774109 19.143907-58.366655 19.143907-80.181805 0-130.045003-65.579011-130.045004-164.904722 0-97.277758 50.174844-164.548556 129.021027-164.548556z m352.0698 0c13.979504 0 24.219268 7.47948 26.133659 20.345966l0.311645 4.452071v177.637646c0 81.650988-42.873447 127.017595-120.384009 127.017595-73.815343 0-116.777831-41.938512-119.84976-118.113452l-0.178082-8.904143v-177.637646c0-15.62677 10.996616-24.798037 26.801469-24.798037 13.489776 0 23.818582 7.568521 25.777493 20.390487l0.311645 4.452071v176.391066c0 51.911152 22.126794 76.575627 66.78107 76.575627 43.140571 0 65.445448-22.260357 67.671484-68.918064l0.178083-8.013729v-176.0349c0-15.58225 10.907575-24.842558 26.445303-24.842558z m264.00783 0c15.62677 0 25.777493 10.907575 25.777493 26.089138 0 13.7569-8.236332 24.219268-21.236381 26.178179l-4.496592 0.356166H766.201474c-4.229468 0-5.164403 0.222604-5.342485 3.071929l-0.089042 75.907816h134.630637c12.198675 0 21.058297 7.034273 24.130227 17.585682l0.890414 4.140426 0.267124 4.407551a24.887079 24.887079 0 0 1-21.013776 25.376807l-4.273989 0.311645h-134.630637v89.486633c0 1.86987 0.445207 2.893846 1.958912 3.428095l1.914391 0.400687 2.804804 0.089041h150.658094c15.58225 0 25.732972 10.907575 25.732972 26.133659 0 13.445255-8.280853 24.130227-21.23638 26.133658l-4.496592 0.356166h-162.856769c-32.811766 0-49.640595-14.602794-51.644027-45.322086l-0.178083-6.366462V621.97796c0-33.212452 14.691835-49.95224 45.455648-51.911152l6.366462-0.178083h159.072508z m143.979986 0c59.123507 0 93.181853 25.065162 107.562043 63.66462l2.226036 6.589066c1.157539 2.938367 1.780829 5.965776 1.780829 9.037704 0 12.287717-9.304829 21.726108-21.369943 24.130227a41.003577 41.003577 0 0 1-8.325373 0.934935 26.044617 26.044617 0 0 1-25.465848-17.630202c-6.678107-23.72954-23.195292-36.952192-56.407744-36.952192-36.640547 0-56.096099 15.938415-56.096098 38.73302 0 22.215836 9.839078 32.767245 42.116594 40.157683l35.794654 7.345918c69.763958 14.780877 99.726398 40.870015 99.726397 97.589403 0 57.209116-45.054962 95.853096-115.753854 95.853096-76.308502 0-107.38396-28.493256-123.723062-83.698941l-0.890414-5.03084c-0.089041-0.489728-0.044521-0.890414-0.044521-1.780829 0-12.4658 9.037705-21.815149 22.037753-24.931599l3.561657-0.534249a32.322038 32.322038 0 0 1 4.452071-0.311645c11.84251 0 22.171315 6.366462 25.510369 18.11993 8.993184 33.479576 24.397351 48.08237 67.137236 48.082371 39.178228 0 62.239957-17.674723 62.239957-45.411128 0-24.397351-11.575385-35.794653-47.993329-44.253589l-38.332334-8.191811c-63.66462-13.13361-90.911296-39.489873-90.911297-92.959249 0-51.688548 40.959056-88.551699 111.168221-88.551699z m330.655337 0c13.801421 0 22.393919 12.198675 22.393919 26.756949 0 12.643883-7.301397 23.595978-18.520617 25.643931l-3.873302 0.356165-71.722869-0.04452v251.542029a23.818582 23.818582 0 0 1-17.49664 24.041185l-4.051385 0.890415-4.36303 0.267124c-13.400735 0-23.685019-8.013728-25.643931-20.746652l-0.311645-4.452072v-251.542029h-71.678348c-11.130178 0-19.010345-7.47948-21.726108-17.808286l-0.756852-3.962343-0.267124-4.184947c0-13.08909 6.989752-24.308309 18.431575-26.400783l3.962343-0.356166h195.624014z m-5.921255-198.028132c26.267221 0 47.637163 20.880214 47.637164 46.479624 0 25.59941-21.369942 46.479625-47.637164 46.479625-26.267221 0-47.681684-20.880214-47.681683-46.479625 0-25.59941 21.369942-46.479625 47.637163-46.479624z m0.311645-185.918499a234.401555 234.401555 0 0 1 169.178711 65.623532 34.280949 34.280949 0 0 1 0.801372 49.32895 36.417943 36.417943 0 0 1-50.57553 0.712331 167.353361 167.353361 0 0 0-118.247014-45.900855 167.30884 167.30884 0 0 0-116.866872 49.32895 36.506985 36.506985 0 0 1-50.57553 0.667811 34.280949 34.280949 0 0 1-0.756853-49.28443 239.120751 239.120751 0 0 1 167.041716-70.476289zM1380.854441 0.023596c104.356552-1.157539 203.815825 40.691932 278.610624 119.270991a34.236428 34.236428 0 0 1-1.914391 49.239909 36.417943 36.417943 0 0 1-50.53101-1.82535 306.747714 306.747714 0 0 0-224.963164-96.966113c-84.366752 1.335621-163.346497 38.376855-222.380962 104.26751a36.373423 36.373423 0 0 1-50.486489 3.250012 34.236428 34.236428 0 0 1-3.339053-49.195388C1178.463279 47.215552 1276.052682 1.804425 1380.854441 0.068117z" fill="#333333" p-id="3256"></path></svg>