<?xml version="1.0" encoding="UTF-8"?>
<svg width="80px" height="80px" viewBox="0 0 80 80" version="1.1" xmlns="http://www.w3.org/2000/svg" xmlns:xlink="http://www.w3.org/1999/xlink">
    <title>Icons/Mesh/ic_gateway_m2</title>
    <g id="Icons/Mesh/ic_gateway_m2" stroke="none" stroke-width="1" fill="none" fill-rule="evenodd">
        <rect id="Rectangle-7" fill="#00D061" x="0" y="0" width="80" height="80" rx="40"></rect>
        <path d="M56.0044602,23.1000918 L58.0044602,23.1000918 L58.0044602,54.2863096 C58.0044602,59.6883439 53.6270776,64.1012777 48.3755629,65.0381408 C46.582425,65.3579806 43.1477836,65.6820634 40.3338473,65.6946315 L40.0765032,65.6946315 C36.7629307,65.6946315 33.3149875,65.4058637 31.8170564,65.0444839 C26.1193931,63.6681197 21.9851376,59.7857863 21.9851376,54.2863096 L21.9851376,23.666743 C21.9851376,23.276944 22.1046235,22.9048632 22.3234528,22.5665195 L24.0028172,23.6526757 C23.9851376,23.6800251 23.9851376,23.6799967 23.9851376,23.666743 L23.9851376,54.2863096 C23.9851376,58.7163117 27.3954922,61.9188554 32.286393,63.1003329 C33.6025677,63.4178635 36.9072313,63.6946315 40.0765032,63.6946315 L40.3293774,63.6946415 C43.0215828,63.6826076 46.3419525,63.3693071 48.0243398,63.0692218 C52.3835369,62.2915469 56.0044602,58.6412159 56.0044602,54.2863096 L56.0044602,23.1000918 Z M40.530303,56.8337925 C41.1160596,56.8337925 41.5909091,57.308642 41.5909091,57.8943985 L41.5909091,59.989899 C41.5909091,60.5756555 41.1160596,61.0505051 40.530303,61.0505051 C39.9445465,61.0505051 39.469697,60.5756555 39.469697,59.989899 L39.469697,57.8943985 C39.469697,57.308642 39.9445465,56.8337925 40.530303,56.8337925 Z M40,15.2464646 C49.9410104,15.2464646 58,18.9172806 58,23.4460895 C58,24.5155616 57.5505809,25.5372439 56.7330879,26.474067 L57.0743555,26.3984847 C57.1399872,26.6974558 57.173657,27.0011115 57.173657,27.3086146 C57.173657,31.9568763 49.4834815,35.7253879 39.998028,35.7253879 C30.5125745,35.7253879 22.8223989,31.9568763 22.8223989,27.3086146 C22.8223989,27.0469197 22.8467844,26.7880113 22.8945028,26.5324055 L23.4057329,26.6285235 C22.5004386,25.6499657 22,24.5746351 22,23.4460895 C22,18.9172806 30.0589896,15.2464646 40,15.2464646 Z M24.9023336,27.9129793 L24.9383604,28.0371293 C25.8573307,30.9464533 32.1331334,33.7253879 39.998028,33.7253879 C47.9723078,33.7253879 54.3129861,30.8686166 55.09292,27.9156717 C51.8814397,30.1620968 46.3212004,31.6467394 40,31.6467394 C33.6754744,31.6467394 28.1127107,30.1605344 24.9023336,27.9129793 Z M40,17.2464646 C31.0359185,17.2464646 24,20.4514797 24,23.4460895 C24,26.4409914 31.0363123,29.6467394 40,29.6467394 C48.9636877,29.6467394 56,26.4409914 56,23.4460895 C56,20.4514797 48.9640815,17.2464646 40,17.2464646 Z" id="形状结合" fill="#FFFFFF" fill-rule="nonzero"></path>
    </g>
</svg>