<?xml version="1.0" standalone="no"?><!DOCTYPE svg PUBLIC "-//W3C//DTD SVG 1.1//EN" "http://www.w3.org/Graphics/SVG/1.1/DTD/svg11.dtd"><svg t="1669967997310" class="icon" viewBox="0 0 1024 1024" version="1.1" xmlns="http://www.w3.org/2000/svg" p-id="3122" xmlns:xlink="http://www.w3.org/1999/xlink" width="200" height="200"><path d="M295.03488 246.92736l2.17088 2.00704 477.85984 477.85984a34.14016 34.14016 0 0 1-46.08 50.2784l-2.19136-2.00704-477.85984-477.85984a34.14016 34.14016 0 0 1 46.08-50.2784z m-67.72736 64.53248l1.72032 1.9456 1.80224 1.90464 39.60832 39.60832h-20.52096v161.13664h43.39712c20.43904 0 37.33504 16.32256 39.64928 37.29408l0.26624 4.9152v127.87712l268.41088-0.02048 47.73888 47.73888H328.00768c-20.41856 0-37.33504-16.32256-39.6288-37.29408l-0.28672-4.9152v-127.87712H244.736c-20.43904 0-37.33504-16.32256-39.64928-37.29408l-0.26624-4.9152v-172.1344c0-15.93344 8.3968-29.83936 20.72576-37.02784l1.78176-0.94208zM779.28448 307.2c20.43904 0 37.33504 16.32256 39.64928 37.29408l0.26624 4.9152v172.1344c0 21.62688-15.44192 39.50592-35.26656 41.94304l-4.64896 0.28672h-43.37664l-0.02048 87.63392-45.11744-45.11744v-48.0256c0-21.6064 15.44192-39.48544 35.28704-41.94304l4.64896-0.26624h43.37664V354.9184H439.37792L391.65952 307.2h387.62496z m-460.65664 95.90784l46.26432 46.26432v2.31424c0 11.53024-10.3424 20.8896-23.12192 20.8896-11.48928 0-21.03296-7.5776-22.8352-17.5104l-0.3072-3.3792v-48.57856z m250.18368-38.1952c11.50976 0 21.03296 7.5776 22.8352 17.5104l0.3072 3.3792v65.88416c0 11.53024-10.36288 20.8896-23.1424 20.8896-11.50976 0-21.05344-7.5776-22.8352-17.5104l-0.3072-3.3792v-65.88416c0-11.53024 10.36288-20.8896 23.1424-20.8896z m113.52064 0c11.48928 0 21.03296 7.5776 22.8352 17.5104l0.3072 3.3792v65.88416c0 11.53024-10.36288 20.8896-23.1424 20.8896-11.50976 0-21.05344-7.5776-22.8352-17.5104l-0.3072-3.3792v-65.88416c0-11.53024 10.36288-20.8896 23.1424-20.8896z m-227.04128 0c11.50976 0 21.05344 7.5776 22.8352 17.5104l0.3072 3.3792-0.02048 8.15104-28.4672-28.4672a25.6 25.6 0 0 1 5.3248-0.57344z" fill="#A3A3A3" fill-opacity=".7" p-id="3123"></path></svg>