<?xml version="1.0" standalone="no"?><!DOCTYPE svg PUBLIC "-//W3C//DTD SVG 1.1//EN" "http://www.w3.org/Graphics/SVG/1.1/DTD/svg11.dtd"><svg t="1669700484574" class="icon" viewBox="0 0 1024 1024" version="1.1" xmlns="http://www.w3.org/2000/svg" p-id="3190" xmlns:xlink="http://www.w3.org/1999/xlink" width="200" height="200"><path d="M542.208 695.68512a42.10688 42.10688 0 0 1 0 59.904 43.008 43.008 0 0 1-60.416 0 42.10688 42.10688 0 0 1 0-59.904 43.008 43.008 0 0 1 60.416 0z m90.66496-101.84704a33.6896 33.6896 0 0 1 0 47.9232 34.4064 34.4064 0 0 1-48.35328 0 103.19872 103.19872 0 0 0-145.03936 0 34.4064 34.4064 0 0 1-48.3328 0 33.6896 33.6896 0 0 1 0-47.9232c66.74432-66.19136 174.96064-66.19136 241.72544 0z" fill="#EE3A52" p-id="3191"></path><path d="M729.55904 497.9712a33.6896 33.6896 0 0 1 0 47.9232 34.4064 34.4064 0 0 1-48.3328 0c-93.47072-92.65152-244.98176-92.65152-338.432 0a34.4064 34.4064 0 0 1-48.35328 0 33.6896 33.6896 0 0 1 0-47.9232c120.15616-119.11168 314.9824-119.11168 435.11808 0z m96.68608-95.8464a33.6896 33.6896 0 0 1 0 47.9232 34.4064 34.4064 0 0 1-48.3328 0c-146.86208-145.6128-384.96256-145.6128-531.82464 0a34.4064 34.4064 0 0 1-48.3328 0 33.6896 33.6896 0 0 1 0-47.9232c173.54752-172.07296 454.94272-172.07296 628.49024 0z" fill="#AAAAAA" fill-opacity=".4" p-id="3192"></path></svg>