<svg width="280" height="92" viewBox="0 0 280 92" xmlns="http://www.w3.org/2000/svg">
    <path d="M3.245 0a3.248 3.248 0 0 1 3.234 2.986l.011.267v9.923c5.341-1.97 11.064-2.954 17.152-2.954 7.912 0 15.209 1.662 21.849 4.99a3.253 3.253 0 0 1 1.782 2.627l.012.282v22.303a3.249 3.249 0 0 1-3.245 3.253 3.248 3.248 0 0 1-3.235-2.986l-.01-.267V20.186l-.82-.35c-4.718-1.95-9.81-2.983-15.299-3.098l-1.034-.01c-6.206 0-11.914 1.153-17.153 3.459l.001 20.237a3.249 3.249 0 0 1-3.245 3.253A3.248 3.248 0 0 1 .011 40.69L0 40.424V3.253A3.249 3.249 0 0 1 3.245 0zm149.271 10.222c5.46 0 10.49 1.8 14.985 5.342a3.255 3.255 0 0 1 1.227 2.26l.014.297v22.303a3.249 3.249 0 0 1-3.245 3.253 3.248 3.248 0 0 1-3.235-2.986l-.01-.267v-20.65l-.467-.31c-2.69-1.714-5.542-2.612-8.608-2.725l-.66-.012c-3.423 0-6.322.954-8.809 2.89v20.807a3.249 3.249 0 0 1-3.244 3.253 3.248 3.248 0 0 1-3.235-2.986l-.01-.267v-20.65l-.467-.31c-2.69-1.714-5.543-2.612-8.608-2.725l-.66-.012c-3.257 0-6.04.864-8.443 2.615l-.366.277v20.805a3.25 3.25 0 0 1-2.978 3.242l-.267.01a3.248 3.248 0 0 1-3.234-2.985l-.01-.267V18.121c0-.902.373-1.764 1.032-2.379 3.923-3.665 8.733-5.52 14.265-5.52 4.607 0 8.908 1.282 12.84 3.81 3.503-2.531 7.6-3.81 12.193-3.81zm12.98 40.889a3.248 3.248 0 0 1 3.235 2.986l.01.267v22.303l-.013.297a3.255 3.255 0 0 1-1.227 2.26c-4.496 3.541-9.526 5.342-14.985 5.342-4.594 0-8.69-1.28-12.194-3.812-3.931 2.53-8.232 3.812-12.839 3.812-5.532 0-10.342-1.855-14.265-5.52a3.255 3.255 0 0 1-1.019-2.08l-.014-.3V54.365l.011-.267a3.25 3.25 0 0 1 2.954-2.974l.28-.012.267.01a3.25 3.25 0 0 1 2.966 2.961l.012.282v20.805l.366.276c2.243 1.635 4.817 2.496 7.797 2.604l.645.012.66-.013c2.847-.104 5.51-.886 8.03-2.37l.579-.355.466-.309v-20.65l.011-.267a3.248 3.248 0 0 1 3.235-2.986 3.248 3.248 0 0 1 3.234 2.986l.01.267V75.17c2.331 1.816 5.025 2.767 8.173 2.88l.635.01.66-.012c2.848-.104 5.511-.886 8.03-2.37l.579-.355.467-.309v-20.65l.01-.267a3.248 3.248 0 0 1 3.235-2.986zm113.793 2.15a3.258 3.258 0 0 1-.285 4.376l-.222.196-41.722 33.454a3.24 3.24 0 0 1-4.56-.508 3.258 3.258 0 0 1 .284-4.376l.222-.195 16.97-13.608-18.797-14.746a3.258 3.258 0 0 1-.556-4.566 3.24 3.24 0 0 1 4.315-.729l.24.172 20.005 15.693 19.545-15.67a3.24 3.24 0 0 1 4.56.507zM79.27 10.222c-7.912 0-15.208 1.662-21.848 4.99a3.253 3.253 0 0 0-1.794 2.91v18.585c0 1.232.695 2.358 1.794 2.91 6.64 3.327 13.936 4.989 21.848 4.989 7.913 0 15.209-1.662 21.85-4.99a3.253 3.253 0 0 0 1.793-2.909V18.121a3.253 3.253 0 0 0-1.794-2.909c-6.64-3.328-13.936-4.99-21.849-4.99zm1.034 6.516c5.489.115 10.581 1.148 15.298 3.099l.82.35V34.64l-.82.352C90.591 37.064 85.156 38.1 79.271 38.1l-1.033-.01c-5.489-.116-10.581-1.15-15.299-3.1l-.82-.35V20.185l.82-.35c5.013-2.072 10.448-3.109 16.332-3.109l1.034.011zm121.35-6.516c-7.912 0-15.209 1.662-21.849 4.99a3.253 3.253 0 0 0-1.781 2.627l-.013.282v18.586c0 1.232.695 2.358 1.794 2.91 6.64 3.327 13.937 4.989 21.849 4.989 7.912 0 15.208-1.662 21.848-4.99a3.256 3.256 0 0 0 1.452-4.364 3.242 3.242 0 0 0-4.354-1.454c-5.722 2.867-12.024 4.303-18.946 4.303-5.884 0-11.32-1.037-16.332-3.11l-.82-.35v-6.467l.696.203c5.054 1.408 10.118 2.168 15.188 2.276l1.268.014c7.183 0 14.357-1.308 21.506-3.913a3.252 3.252 0 0 0 2.125-2.786l.011-.271V18.12a3.253 3.253 0 0 0-1.794-2.909c-6.64-3.328-13.936-4.99-21.848-4.99zm0 6.505c5.884 0 11.32 1.037 16.332 3.11l.82.35v1.187l-.139.047c-5.306 1.707-10.597 2.615-15.881 2.728l-1.132.013c-5.283 0-10.572-.794-15.877-2.388l-1.275-.4v-1.188l.82-.35c4.717-1.95 9.81-2.983 15.298-3.098l1.034-.01zm0 68.768c7.913 0 15.209-1.662 21.85-4.99a3.253 3.253 0 0 0 1.78-2.627l.013-.282V59.01a3.253 3.253 0 0 0-1.794-2.91c-6.64-3.327-13.936-4.989-21.848-4.989-7.913 0-15.209 1.662-21.849 4.99a3.256 3.256 0 0 0-1.451 4.364 3.242 3.242 0 0 0 4.353 1.454c5.722-2.867 12.024-4.303 18.947-4.303 5.884 0 11.32 1.037 16.332 3.11l.82.35v6.467l-.696-.203c-5.054-1.408-10.119-2.167-15.189-2.276l-1.267-.014c-7.184 0-14.358 1.308-21.507 3.913a3.252 3.252 0 0 0-2.125 2.786l-.01.271v5.576c0 1.232.694 2.358 1.793 2.909 6.64 3.328 13.936 4.99 21.849 4.99zm0-6.505c-5.883 0-11.32-1.037-16.331-3.11l-.82-.349v-1.188l.138-.047c5.307-1.707 10.598-2.615 15.881-2.728l1.133-.013c5.282 0 10.572.794 15.876 2.388l1.276.4v1.188l-.82.35c-4.718 1.95-9.81 2.983-15.299 3.098l-1.033.01z" fill="#153264" fill-rule="nonzero"/>
</svg>
