<?xml version="1.0" encoding="UTF-8"?>
<svg width="60px" height="60px" viewBox="0 0 60 60" version="1.1" xmlns="http://www.w3.org/2000/svg" xmlns:xlink="http://www.w3.org/1999/xlink">
    <title>Icons/Mesh/ic_node_m6_bad</title>
    <g id="Icons/Mesh/ic_node_m6_bad" stroke="none" stroke-width="1" fill="none" fill-rule="evenodd">
        <path d="M30,0 C46.5685425,0 60,13.4314575 60,30 C60,46.5685425 46.5685425,60 30,60 C13.4314575,60 0,46.5685425 0,30 C0,13.4314575 13.4314575,0 30,0 Z M30,2 C14.536027,2 2,14.536027 2,30 C2,45.463973 14.536027,58 30,58 C45.463973,58 58,45.463973 58,30 C58,14.536027 45.463973,2 30,2 Z M29.1247108,6.69198081 L29.2715268,6.7267304 L38.3157893,9.28470364 C38.9399928,9.46124603 39.4123812,9.9730496 39.5384388,10.6093683 C39.9864683,12.8708759 40.3099526,17.1152906 40.5133771,23.3647132 L40.5310149,23.9213367 L40.5776806,25.5576436 C40.5908349,26.0575083 40.5704498,26.6129056 40.5151469,27.3856815 L40.4927688,27.6859782 L40.3397725,29.5126903 C40.3063041,29.9209506 40.2856869,30.2039989 40.2720448,30.4516691 L40.2657778,30.5729719 L40.2536606,30.8816415 C40.2203888,31.9564183 40.2136685,32.8601724 40.2337991,34.3528241 L40.2389214,34.7080819 L40.3365343,39.8209381 C40.3450498,40.3438172 40.3512386,40.8165474 40.3553724,41.2729513 L40.3580917,41.6127215 L40.3619171,42.741784 C40.3619171,42.8401675 40.3648941,42.9237826 40.3790636,43.0741746 L40.3919177,43.2007634 L40.6015289,44.9604159 C40.6539496,45.4460033 40.682723,45.8315985 40.686175,46.1568416 L40.6857831,46.3146173 L40.676745,47.5754802 L40.6858608,49.6525822 C40.6858608,50.709445 37.4220333,51.8000394 32.5057973,52.6401434 L32.1601433,52.6983453 L31.4532356,52.8122248 C30.2861831,52.9947597 28.5160709,53.1667171 26.1379542,53.3290454 L25.6849311,53.3593694 L23.9467107,53.4660691 C23.6467077,53.4833325 23.3896581,53.2679673 23.3454012,52.9803208 L23.3386777,52.8920188 L23.3377703,52.6553275 L22.8326734,52.6292748 C22.7848841,52.7217543 22.6883737,52.784972 22.577098,52.784972 C22.4553652,52.784972 22.3513033,52.7093144 22.3093687,52.6024556 L21.9272819,52.5814482 C21.8883356,52.6248418 21.8363954,52.6563104 21.7776262,52.6697567 L21.7116642,52.6769864 C21.5755676,52.6762366 21.4620792,52.5810414 21.4329824,52.4538687 L21.4332548,52.4428176 C21.4145398,52.4513795 21.3951803,52.4590248 21.3752125,52.4656807 C21.0993297,52.5576416 20.9238906,52.655796 20.8414598,52.7388666 L20.8079607,52.7790465 C20.5090057,53.227479 19.8333481,53.0501109 19.7608605,52.5503217 L19.7545767,52.452907 L19.9704942,35.1830986 C19.9704942,34.4486259 19.9102042,33.825706 19.7490273,32.7006835 L19.597333,31.6467122 C19.4838279,30.8246652 19.4406138,30.363295 19.4320865,29.8270898 L19.4247703,27.5667322 L19.425074,26.4681912 C19.4343411,20.0194958 19.5771264,16.1116544 19.8268955,13.3911421 L19.8653666,12.9897337 L19.8991237,12.8450524 C20.1910329,12.066628 20.6857912,11.176063 21.4616511,9.93468723 C22.0435801,9.00360089 23.0377491,7.68987753 23.5943069,7.1333197 C23.7502143,6.97741232 23.981544,6.92438614 24.1897927,6.99682045 L26.6733607,7.86067021 L26.6857703,7.86632753 L26.760507,7.74888759 C26.8191521,7.65502597 26.925014,7.60481922 27.0315867,7.61499572 L27.0952435,7.62848143 L27.2317703,7.67432753 L27.287175,7.56132537 C27.6448302,6.90363849 28.3894235,6.55136929 29.1247108,6.69198081 Z M28.2749931,8.15669571 C27.931204,8.94479028 27.5416176,9.70170558 27.1062667,10.4272905 C26.6180004,11.2410675 26.0964288,12.0161494 25.5415557,12.7524496 L25.259,13.117 L25.2948925,13.5946854 C25.5768047,17.5839186 25.6510245,22.1398174 25.517886,27.2631655 L25.4904927,28.2304432 L25.4601592,29.1561962 C25.4429102,29.6506668 25.3753977,30.1816271 25.2614403,30.7826766 C25.2323728,30.9359887 25.2015107,31.0884635 25.1669326,31.2497499 L25.1120385,31.4994943 L24.7253426,33.1405799 C24.5681611,33.8222059 24.5112919,34.1375297 24.4946035,34.4230875 L24.4907422,34.5081984 L24.4889589,52.1972363 C24.5157741,52.219252 24.5384781,52.2459902 24.5558566,52.2760995 L25.6912013,52.2064506 C27.9398576,52.0577724 29.6605896,51.9014846 30.8493941,51.7383551 L31.0800615,51.7056382 L31.2755283,51.6760381 C33.8191289,51.2782017 36.0237897,50.788559 37.6155418,50.2902964 C38.3247469,50.0682955 38.8825901,49.852973 39.249387,49.6638844 C39.3021201,49.6366998 39.3498183,49.6105836 39.3922201,49.5858866 L39.4518177,49.5499495 L39.534,49.493 L39.5307712,48.9421675 C39.5287279,48.6001058 39.5274516,48.2812997 39.5269432,47.9857215 L39.5269506,47.4255274 L39.5361252,46.160918 C39.5326364,45.8796175 39.5060278,45.5265671 39.4572381,45.0753731 L39.4309992,44.8414753 L39.3097561,43.8481438 C39.2469304,43.3332217 39.2240337,43.1195111 39.2160111,42.9492582 L39.2138534,42.8937632 L39.208109,41.619762 C39.2063814,41.3710025 39.204043,41.1197409 39.2010469,40.8602016 L39.1960539,40.4639626 L39.0819321,34.2193604 C39.0655925,32.9257751 39.0702805,32.0715002 39.0958982,31.1312407 L39.1042112,30.846058 L39.1168649,30.5216456 C39.121486,30.4248763 39.1270157,30.3254691 39.13381,30.217923 L39.1449942,30.0498121 L39.3230677,27.8884878 C39.3857037,27.1184315 39.4206705,26.5516172 39.4293428,26.0815395 L39.431365,25.9095868 L39.4280786,25.5878963 C39.2981762,20.6516069 39.1028937,16.8142549 38.84407,14.0849014 L38.7832143,13.4747233 C38.7005717,12.6873884 38.6119268,12.0050187 38.517333,11.4278783 L38.4815816,11.2163837 L38.4103624,10.8328489 C38.3743461,10.6510443 38.2535146,10.4997332 38.0886983,10.4231534 L38.0028138,10.3912958 L28.9585155,7.83331249 C28.6818788,7.75505251 28.3899535,7.89316319 28.2749931,8.15669571 Z M25.2324825,8.57561446 C25.1527313,8.61656684 25.0807843,8.67311205 25.0214822,8.74305098 L24.9604358,8.82713966 L22.216,13.274 L22.0017703,52.0093275 L22.2887703,52.0243275 L22.289598,48.5021668 C22.289598,48.343385 22.4183161,48.2146668 22.577098,48.2146668 C22.7131967,48.2146668 22.8272078,48.3092353 22.8570049,48.4362457 L22.864598,48.5021668 L22.8637703,52.0543275 L23.3377703,52.0793275 L23.3386777,34.6431925 C23.3386777,34.2382336 23.3671038,33.9594787 23.5090231,33.3059947 C23.4429423,33.2674582 23.3946397,33.202667 23.3768661,33.1261882 L23.3694108,33.0602513 L23.4109421,13.1917067 L23.4546204,13.0399674 L26.0617703,8.86532753 L25.8837703,8.80332753 L25.8343661,8.87323671 L23.101,13.275 L22.9725745,35.6540496 C22.9717944,35.7901461 22.876574,35.9036132 22.7493948,35.9326818 L22.6834312,35.9398969 C22.5473347,35.9391167 22.4338676,35.8438963 22.404799,35.7167171 L22.3975839,35.6507536 L22.5263308,13.1906597 L22.5695878,13.0406373 L25.3217703,8.60732753 L25.2324825,8.57561446 Z M24.166,8.206 L24.1532982,8.22118707 C23.6860691,8.75507445 23.0270074,9.63455066 22.5681186,10.3387165 L22.4368491,10.544186 L22.0909168,11.1058882 C21.6046481,11.9091457 21.263506,12.5409884 21.0444361,13.0745355 L21.001,13.181 L20.9163237,14.1468644 C20.7038408,16.8070298 20.5827679,20.5776102 20.5749862,26.5253472 L20.5805822,29.6734433 C20.583262,30.2631267 20.6274379,30.7252727 20.7709073,31.7343634 L20.9283822,32.8285052 C21.054106,33.7388752 21.1100057,34.3336679 21.1191016,34.9908735 L21.1204493,35.1902855 L20.917,51.408 L21.0115506,51.3746949 C21.1547456,51.3269632 21.3034455,51.3387022 21.4308503,51.3965118 L21.641715,13.1907237 L21.6845378,13.0413393 L24.4710901,8.52520295 C24.5087314,8.46419796 24.5509982,8.4072145 24.5972434,8.35454649 L24.166,8.206 Z M22.6879256,36.2287511 C22.8240177,36.2301129 22.9370869,36.3258054 22.9656251,36.4531047 L22.9725651,36.5190977 L22.8645839,47.425201 C22.8630119,47.5839751 22.7330257,47.7114126 22.5742516,47.7098549 C22.4381595,47.7084931 22.3250903,47.6128005 22.2965521,47.4855013 L22.2896121,47.4195082 L22.3975933,36.513405 C22.3991653,36.3546309 22.5291515,36.2271934 22.6879256,36.2287511 Z M34.3878561,26.2500822 C34.6101507,26.2500822 34.7903561,26.4302875 34.7903561,26.6525822 C34.7903561,27.0483394 34.7754841,27.3925732 34.7442423,27.7572366 L34.7074884,28.1313748 C34.6993948,28.2052471 34.681241,28.3569962 34.6606033,28.5275129 L34.6182608,28.8760559 C34.5976784,29.0453252 34.5796629,29.1939559 34.5717906,29.2628387 L34.5187467,29.7653741 C34.4202088,30.784455 34.3669869,31.9070596 34.3593819,33.4835442 L34.3584312,46.1971831 C34.3584312,46.4194777 34.1782258,46.5996831 33.9559312,46.5996831 C33.7614234,46.5996831 33.5991402,46.4617133 33.5616086,46.2783009 L33.5534312,46.1971831 L33.5534312,33.8873239 C33.5534312,31.9291252 33.6169958,30.6279318 33.743846,29.4273614 L33.9072769,28.0437018 C33.9606694,27.5563767 33.9853561,27.1491995 33.9853561,26.6525822 C33.9853561,26.4302875 34.1655615,26.2500822 34.3878561,26.2500822 Z M24.103,13.084 L23.985,13.275 L23.9471983,31.435132 L23.9899765,31.2474941 L23.9899765,31.2474941 L24.0290205,31.0709691 L24.1315689,30.5684561 C24.2354541,30.0205301 24.2958885,29.5452367 24.3108582,29.1161043 C24.5153494,23.2540231 24.4608602,18.107382 24.147862,13.6772865 L24.103,13.084 Z" id="形状结合" fill="#FF6F00" fill-rule="nonzero"></path>
    </g>
</svg>