<?xml version="1.0" encoding="UTF-8"?>
<svg width="300px" height="300px" viewBox="0 0 300 300" version="1.1" xmlns="http://www.w3.org/2000/svg" xmlns:xlink="http://www.w3.org/1999/xlink">
    <title>img/常见问题/img_m6_power_on</title>
    <defs>
        <filter x="-150.0%" y="-39.7%" width="400.0%" height="179.4%" filterUnits="objectBoundingBox" id="filter-1">
            <feGaussianBlur stdDeviation="9" in="SourceGraphic"></feGaussianBlur>
        </filter>
    </defs>
    <g id="img/常见问题/img_m6_power_on" stroke="none" stroke-width="1" fill="none" fill-rule="evenodd">
        <g id="编组-2备份-2" transform="translate(20.837464, 54.001373)">
            <path d="M31.8910575,0.0349412239 L32.051872,0.073065349 L74.957309,12.1837967 C75.9003069,12.4499725 76.6260993,13.204575 76.8553721,14.1571997 C77.0996743,15.1722047 77.3351508,16.3154986 77.5627097,17.5910366 L77.6597529,18.1458038 L77.7859694,18.9007174 L77.9036762,19.6400363 L78.0198551,20.4045034 L78.1345067,21.1941211 L78.3036211,22.4257099 L78.5237653,24.1558766 L78.631549,25.0587003 L78.8425422,26.9398397 L78.9457524,27.91816 L79.1476026,29.9503137 L79.2949928,31.5405119 L79.4389585,33.1873613 L79.6255881,35.4712981 L79.7615689,37.250364 L79.9375574,39.7106179 L80.0655615,41.621943 L80.2309199,44.2585708 L80.4675783,48.402538 L80.5807902,50.5596 L80.7619006,54.2807725 L80.933547,58.1595629 L81.0957362,62.1960073 L81.2186832,65.5386979 L81.3355858,68.9823289 L81.4996139,74.3370788 L81.6014208,78.0331415 L81.6127875,78.607058 L81.6169664,79.1969361 L81.609691,80.1186172 L81.5957674,80.7622714 L81.5745495,81.4329849 L81.5289797,82.4967275 L81.4668271,83.6391894 L81.3579846,85.3034203 L81.2567405,86.6711772 L81.1385721,88.1533247 L80.6303845,94.1366547 L80.5053383,95.6947351 L80.4104389,96.9862505 L80.3726528,97.5571612 L80.3131249,98.5995181 L80.2664197,99.6924158 L80.2283773,100.932379 L80.191397,102.368922 L80.1633051,103.746197 L80.1564986,104.15111 L80.1564986,104.15111 L80.1503395,104.557616 L80.1321812,106.211039 L80.1243971,107.935845 L80.1244804,108.890411 L80.1383635,111.556624 L80.1835271,115.376487 L80.2885336,121.441458 L80.535567,133.644358 L80.6198457,138.561943 L80.6738484,142.906979 L80.6985813,146.55497 C80.7009886,147.159825 80.7025642,147.766323 80.7033472,148.379285 L80.703932,149.304178 L80.707325,149.656949 L80.7304052,150.18889 L80.7983262,150.985201 L80.9293952,152.170982 L81.5246436,157.043333 L81.6473072,158.098865 L81.7489365,159.033799 L81.8362187,159.909293 L81.9090108,160.728829 L81.924928,160.925378 L81.924928,160.925378 L81.9399284,161.118702 L81.9907171,161.860832 L82.0105525,162.213961 L82.0105525,162.213961 L82.0266581,162.555713 L82.0476082,163.206827 C82.0520773,163.416958 82.054024,163.620374 82.0534245,163.817657 L82.0506128,164.109055 L82.034322,165.30478 L82.0172466,167.605596 L82.0130521,170.606043 L82.0172561,172.42982 L82.0507703,177.979572 C82.0507703,178.816958 81.4255959,179.629213 80.2079926,180.445075 L79.9727574,180.598098 L79.5820126,180.834853 C79.3275062,180.982952 79.0537389,181.131319 78.7609054,181.280125 L78.4617235,181.429084 L77.9567019,181.668121 L77.6920854,181.788006 L77.6920854,181.788006 L77.419428,181.908161 L76.8500791,182.149357 L76.2488321,182.391866 L75.6158642,182.635843 L74.9513523,182.881444 L74.2554736,183.128823 L73.5284051,183.378136 L72.7703238,183.629539 L71.9814067,183.883187 L71.0030105,184.187771 L70.7124401,184.276097 L70.7124401,184.276097 L70.4189901,184.364342 L69.2167585,184.716414 L68.5988383,184.891828 L68.5988383,184.891828 L67.9699089,185.06677 L66.6796046,185.415063 L65.3470091,185.760946 L64.6652156,185.932875 L64.6652156,185.932875 L63.9732856,186.104071 L62.5595976,186.444092 L61.8381305,186.612829 L61.8381305,186.612829 L61.1071085,186.78066 L59.6169816,187.113429 L59.2387053,187.195987 L59.2387053,187.195987 L58.8581675,187.27828 L57.3137654,187.604698 L55.7346339,187.926449 L54.1219365,188.243185 L53.7136538,188.321544 L53.7136538,188.321544 L53.3033641,188.399563 L51.6424992,188.708125 L49.9509768,189.010803 L49.5234423,189.085513 L49.5234423,189.085513 L49.0940826,189.159827 L47.3587554,189.45303 L46.038986,189.668519 L46.038986,189.668519 L44.7040987,189.880065 L44.3692507,189.93165 L43.3171226,190.085632 L42.5760431,190.187643 L41.4049176,190.3397 L39.732307,190.540654 L38.8483697,190.640368 L37.4629067,190.788987 L35.5044182,190.985377 L33.4187947,191.179752 L30.6329086,191.419904 L28.2610558,191.609784 L25.7619117,191.79768 L22.4589052,192.029775 L18.9568372,192.258804 L15.2556139,192.484786 L15.155079,192.4888 L14.9308497,192.484554 C13.7697822,192.414784 12.805868,191.613791 12.4934243,190.535926 L10.6858578,190.334596 C10.544772,190.524237 10.3189336,190.647087 10.064402,190.647087 C9.748573,190.647087 9.47692134,190.457941 9.35654448,190.186747 L7.348,189.963 L7.34749496,189.982179 C7.29904842,190.325402 7.02569196,190.595829 6.68196706,190.640575 L6.57689308,190.647076 C6.18501459,190.644965 5.86271986,190.352013 5.81349932,189.973916 L5.80699885,189.868842 L5.8087979,189.153788 C5.80558513,189.107808 5.80645099,189.060894 5.81172207,189.013454 L5.80982657,188.987394 C4.7190282,189.418232 3.98314049,189.899794 3.59123584,190.399361 L3.50365397,190.519771 C2.88343826,191.444501 1.46962236,191.044469 1.3824457,189.97945 L1.37832654,189.858411 L2.28054438,118.122182 L2.27647638,117.452602 L2.26401803,116.792564 L2.24278785,116.136225 C2.23849731,116.026819 2.23382538,115.917324 2.22876411,115.807618 L2.19366087,115.145876 L2.14883206,114.47323 L2.09389618,113.783838 L1.99170708,112.705574 L1.90983449,111.948762 L1.76545206,110.741985 L1.59403691,109.431814 L1.39430149,107.998533 L0.778918036,103.761337 L0.573488509,102.265711 L0.44448212,101.263757 L0.335511554,100.347044 L0.245272613,99.4998998 L0.172461097,98.7066507 L0.132957941,98.2000198 L0.100234234,97.7057326 L0.063014825,96.9772873 L0.0388755116,96.2504931 L0.0265120943,95.5096766 L0.00923941618,91.1176948 L0,85.8238371 L0.00149303089,82.0926322 L0.0154269378,77.0454257 L0.0375000581,73.0338475 L0.0763860271,68.4454682 L0.14897826,62.6955305 L0.206216208,59.3067503 L0.272458413,56.069354 L0.380126597,51.7813994 L0.449373637,49.4542659 L0.604463538,45.0559609 L0.712478224,42.472648 L0.85317594,39.5321329 L0.979535399,37.2084711 L1.08651187,35.4287637 L1.22750622,33.2987784 L1.37648544,31.2690934 L1.5333455,29.3344961 L1.66443787,27.8517786 L1.83522133,26.0752035 C1.8453276,25.9747484 1.86849279,25.8760404 1.90413076,25.7815771 C2.27080921,24.809646 2.7201022,23.7879337 3.26102898,22.6888874 L3.63532118,21.9444307 L4.037358,21.175246 L4.46773328,20.3795192 L4.9270409,19.5554361 L5.41587471,18.7011826 L5.93482857,17.8149444 L6.48449635,16.8949075 L7.06547189,15.9392576 L7.67834907,14.9461806 L8.32372173,13.9138622 C8.63155519,13.4242896 8.96792714,12.9082305 9.32518304,12.3758649 L9.87577303,11.5663591 L10.451948,10.7400285 L11.0479672,9.90450777 L11.6580895,9.067432 L12.2765741,8.23643605 C12.3800328,8.09886754 12.4836007,7.96187048 12.5871583,7.82560392 L13.2074222,7.01804315 L13.8216961,6.23564947 C14.4310614,5.4683843 15.0228304,4.75032211 15.5711691,4.11581997 L16.1040741,3.51044368 C16.4484172,3.12712502 16.7696306,2.78603411 17.0600598,2.49735082 C17.3429527,2.21615853 17.747703,2.10197312 18.1311744,2.18751827 L18.2580137,2.22347564 L24.3615518,4.33343158 C24.6207464,4.2223042 24.9100581,4.18188791 25.1989115,4.22488161 L25.3401519,4.25264811 L27.573,4.8 L27.7762275,4.46630652 C27.9391804,4.19879805 28.2439137,4.05972203 28.5455888,4.10247765 C28.8178906,3.47326613 29.0830552,2.83851857 29.3409731,2.19854043 L29.7224012,1.23468846 L29.7847013,1.09151408 C30.1657428,0.303594719 31.0322559,-0.13058549 31.8910575,0.0349412239 Z M31.7575355,2.40262719 L31.48677,3.08665804 C31.1921641,3.81714306 30.8882721,4.54127715 30.5750945,5.25905695 C30.5829196,5.35734602 30.5715625,5.45910113 30.538773,5.55896988 C30.4891151,5.71021534 30.3973034,5.83580782 30.2806453,5.92699569 C28.9399985,8.92643536 27.4352695,11.814702 25.7665145,14.5904275 C23.4658021,18.4173202 20.9860109,22.0346364 18.3271539,25.4421124 L17.882,26.005 L18.0221962,27.8663768 C18.0970847,28.9024656 18.1685592,29.9478882 18.2366197,31.0026452 L18.33615,32.5917815 L18.4758442,35.0017394 L18.604017,37.4432024 C18.6805247,38.9789622 18.7502819,40.5331826 18.8132891,42.1058647 L18.8740462,43.6847007 L18.9618979,46.2364391 L19.0382302,48.819687 C19.0617544,49.6860213 19.0833589,50.5576074 19.1030435,51.4344454 L19.1311307,52.7536414 L19.1786665,55.4156675 L19.2146843,58.1092066 L19.2391848,60.8342597 L19.2471161,62.2086044 L19.2471161,62.2086044 L19.2521682,63.5908279 L19.253635,66.3789122 L19.2435856,69.1985134 L19.2220205,72.0496327 C19.2129129,73.0052589 19.2018861,73.9661383 19.1889402,74.9322711 L19.1680819,76.3854102 L19.1177293,79.315329 L19.0558626,82.2767693 L19.0206115,83.7693103 L19.0206115,83.7693103 L18.982482,85.2697322 L18.897588,88.2942186 L18.8508237,89.8182834 L18.8508237,89.8182834 L18.8011811,91.3502295 L18.7486604,92.890057 C18.6856721,94.6921295 18.4542001,96.6278271 18.0647287,98.7962039 L17.9431578,99.4537964 L17.814932,100.113116 L17.607703,101.120986 L17.4566532,101.820347 L17.205641,102.936024 L17.0190378,103.739088 L16.175517,107.269286 L15.5663811,109.87789 L15.2691113,111.228223 L15.0793212,112.16449 L14.9612043,112.81362 L14.8903213,113.253325 L14.8332118,113.660566 L14.7763106,114.165413 L14.7552666,114.406257 L14.7319075,114.759006 L14.7212609,114.991584 L14.7212609,114.991584 L14.714119,115.224564 L14.710108,115.460064 L14.7088541,189.780239 C14.7088541,189.967271 14.8415205,190.123319 15.017889,190.159409 L15.0958918,190.167272 L15.871072,190.121873 L20.2181917,189.851036 L22.9571181,189.668126 L26.2016442,189.43686 L28.6539008,189.249754 L30.9786706,189.060799 L32.6385557,188.917874 L34.7401077,188.725705 L36.7140405,188.531711 L38.5603063,188.335904 L39.861195,188.187863 L41.0902237,188.03881 L42.247372,187.88875 L43.3326197,187.737687 L44.0161633,187.636422 L45.2286535,187.446441 L46.9739352,187.162903 C47.5511245,187.067271 48.1236775,186.970538 48.6913994,186.872764 L49.5393346,186.725329 L51.2128806,186.425949 L52.8556868,186.120848 L54.4665841,185.810379 L56.0444037,185.494895 L57.5879765,185.174747 L58.3465551,185.013035 L58.3465551,185.013035 L59.0961337,184.850289 L60.5677063,184.521872 L62.0015255,184.189849 L62.3539443,184.106321 L62.3539443,184.106321 L62.7039122,184.022595 L64.0789092,183.685824 L64.4163486,183.601192 L64.4163486,183.601192 L64.7512274,183.516395 L66.0647723,183.175669 L67.335888,182.832746 L68.5634054,182.487979 C69.0991071,182.334392 69.6215444,182.180363 70.1302556,182.026031 L70.88297,181.794324 L71.3788848,181.637796 C72.1629403,181.387735 72.901633,181.13961 73.5920302,180.894792 L74.1007269,180.71182 L74.9075619,180.409972 L75.1011416,180.335173 L75.1011416,180.335173 L75.2914299,180.260659 L76.0192714,179.96563 C76.7201984,179.673148 77.3397454,179.3886 77.872185,179.114666 C78.6108174,178.734649 79.1589466,178.386035 79.496267,178.092017 C79.5487895,178.046236 79.5939412,178.003717 79.6317653,177.965185 L79.6830113,177.910469 L79.7275355,177.854627 L79.7171561,176.50878 L79.6974589,173.076779 L79.6908276,169.169092 L79.7004077,166.62124 L79.7312884,163.801813 L79.731139,163.663539 L79.731139,163.663539 L79.7300935,163.522686 L79.7169408,162.932585 L79.7113928,162.778164 L79.7113928,162.778164 L79.7049443,162.620896 L79.6701787,161.962449 L79.6211401,161.25486 L79.5579371,160.495268 L79.5399359,160.296908 L79.5399359,160.296908 L79.5210578,160.095075 L79.4368117,159.25211 L79.3386724,158.349984 L79.2186854,157.317728 L78.8024154,153.933844 L78.5402583,151.721252 L78.4702482,151.051673 L78.4114252,150.34073 L78.3883724,149.849722 L78.3821174,149.463201 L78.3778592,146.969788 L78.35876,143.715452 L78.3157663,139.845048 L78.2380022,135.000238 L77.9404937,120.100599 L77.8529917,114.8133 L77.8102951,110.807525 L77.8020738,107.915647 L77.8085187,106.381214 L77.8230885,104.9052 L77.8512886,103.175397 L77.8837117,101.738655 L77.933318,99.9823466 L77.9659443,99.0842918 L78.0202612,97.9868409 L78.0974399,96.7706355 L78.2474693,94.7864701 L78.7807489,88.4871577 L78.9025755,86.989534 L79.00771,85.6089826 L79.0685852,84.7486277 L79.1221301,83.9327636 L79.1887804,82.7857893 L79.2241541,82.0679553 L79.2637133,81.0538861 L79.2871769,80.1059857 L79.2946643,79.2140733 L79.290839,78.6455421 L79.2800016,78.0943532 L79.1255847,72.6075916 L78.9865963,68.2085516 L78.8686643,64.8027565 L78.6805403,59.8831742 L78.547646,56.7295568 L78.4087737,53.6768472 L78.2267828,50.0028934 L77.9960831,45.8023716 L77.7935836,42.4755037 L77.5817744,39.3064674 L77.4056292,36.8849046 L77.2696159,35.1350515 L77.177082,34.0000682 L76.9875565,31.8059183 L76.8905659,30.7467569 L76.7920906,29.7128747 L76.6415952,28.2094557 L76.4877622,26.7629296 L76.3305933,25.3733052 L76.2239616,24.4785053 L76.1158485,23.6090017 L75.9509023,22.3521823 L75.7826258,21.1522941 L75.6685922,20.3840014 L75.4947688,19.279018 L75.3701442,18.5336206 C75.1216789,17.0853311 74.8639936,15.80731 74.5976193,14.7006019 C74.5714177,14.591735 74.4998218,14.5009721 74.4032583,14.4495528 L74.3264734,14.4186971 L31.7575355,2.40262719 Z M20.5907849,6.49483055 L8.23253554,26.9796272 L7.363,188.406 L9.29,188.621 L9.29032668,173.617429 C9.29032668,173.189919 9.63689202,172.843354 10.064402,172.843354 C10.4562862,172.843354 10.7801544,173.134565 10.831411,173.512392 L10.8384774,173.617429 L10.838,188.792 L12.386,188.964 L12.3866281,115.566565 C12.3873686,115.433943 12.388962,115.304233 12.3916555,115.176211 L12.403284,114.795981 L12.4154256,114.544492 L12.4315351,114.292062 L12.4519872,114.036517 L12.5074174,113.507374 L12.5631752,113.086153 L12.6324964,112.635891 L12.7482084,111.977671 L12.8540941,111.431085 L13.0231474,110.61778 L13.2834731,109.440828 L13.553,108.274 L14.0030914,27.2896391 C14.0036764,27.1841911 14.0257933,27.080356 14.0676728,26.984372 L14.1160744,26.8912361 L26.012,7.361 L24.349,6.786 L12.1355355,27.0166272 L11.2254775,119.439784 C11.2216152,119.831649 10.9272263,120.152632 10.5489128,120.200162 L10.4438108,120.206193 C10.0519456,120.202331 9.73096324,119.907942 9.6834328,119.529628 L9.67740195,119.424526 L10.5904139,26.7894782 C10.5914371,26.6856632 10.6133254,26.5834786 10.6543886,26.4888806 L10.7017807,26.3970322 L22.519,6.823 L20.5907849,6.49483055 Z M18.1985355,4.65962719 L18.0347042,4.83764686 C17.2370901,5.70759159 16.2751438,6.86492208 15.2738079,8.14421959 L14.6017862,9.01333849 C14.3767479,9.30785766 14.1511355,9.6065846 13.9263202,9.90770401 L13.2556366,10.8164244 L12.5979619,11.7286078 L11.9615229,12.6333625 C11.4422905,13.381204 10.953748,14.1099617 10.5173191,14.7912715 L9.971155,15.6578816 L9.35818489,16.6444186 L8.7767414,17.5932251 L8.22632559,18.5058542 L7.70643847,19.383859 L7.2165811,20.2287929 L6.75625451,21.042209 C6.68196659,21.1752382 6.60888833,21.3070188 6.53700933,21.4375833 L6.12004335,22.206635 C5.3145611,23.716586 4.67877909,25.0607285 4.1947347,26.2949783 L4.13053554,26.4616272 L4.00551947,27.7551849 L3.84242082,29.5874127 L3.71746771,31.1177288 L3.5974851,32.7082832 L3.48252712,34.3617301 L3.34597804,36.5210242 L3.2174703,38.787918 L3.12052496,40.682388 L2.98500192,43.6652384 L2.86151529,46.825425 L2.7502478,50.171905 L2.65138222,53.7136353 L2.59245201,56.1876845 L2.50294558,60.7436418 L2.44021109,64.8872235 L2.37697822,70.7706809 L2.34947871,74.6645408 L2.32502112,81.2565294 L2.32222064,85.8333017 L2.33146741,91.1156756 L2.35143042,95.7241707 L2.36707287,96.4247618 L2.38404217,96.8875731 L2.42026586,97.5866693 L2.45215376,98.0625508 L2.53622743,99.0581318 L2.58917976,99.586834 L2.68333065,100.431187 L2.83835918,101.676383 L2.97842798,102.719517 L3.19937567,104.284896 L3.6215577,107.17165 L3.83531438,108.681524 L4.01988208,110.061299 L4.1765356,111.331303 L4.30654976,112.511863 L4.37905576,113.259251 L4.44066634,113.981943 L4.49175923,114.685964 L4.53271216,115.377334 L4.56390284,116.062079 L4.585709,116.746219 L4.60164851,117.784474 L4.60267862,118.136782 L3.73053554,187.392627 L3.86881825,187.319143 C4.33611947,187.076612 4.85742718,186.853898 5.43215564,186.649246 L5.78339852,186.528609 L5.824,186.517 L6.68567898,26.7579504 C6.68624265,26.6533155 6.70800784,26.5502535 6.74925915,26.4548652 L6.79694231,26.3622606 L19.2651834,5.69511118 C19.3890466,5.48979748 19.5554926,5.32092791 19.748405,5.19588519 L18.1985355,4.65962719 Z M56.8959605,81.1154255 C57.5372255,81.1154255 58.0570735,81.6352736 58.0570735,82.2765386 C58.0570735,84.1739222 57.9854834,85.7810723 57.8335488,87.5726126 L57.6856447,89.1300204 L57.2774057,93.0552806 L57.1944867,93.9242293 L57.1162894,94.801528 L57.0078512,96.1395363 L56.9414671,97.0505182 L56.850758,98.4527746 L56.7961995,99.4157373 L56.7463748,100.404616 L56.6805179,101.942929 L56.6253232,103.556021 L56.5944534,104.677838 L56.5683274,105.840209 L56.5380372,107.666208 L56.5184315,109.599921 L56.5095172,111.651228 L56.5089228,163.55445 C56.5089228,164.195715 55.9890748,164.715563 55.3478098,164.715563 C54.7492958,164.715563 54.2565495,164.262718 54.19351,163.680966 L54.1866968,163.55445 L54.1872994,111.645033 L54.1923348,110.21137 L54.202477,108.834521 L54.2272622,106.868788 L54.263529,105.01292 L54.311272,103.256138 L54.3494738,102.134676 L54.4163323,100.519085 L54.4672727,99.4817682 L54.5233059,98.472521 L54.5844303,97.4881491 L54.6856593,96.051246 L54.7595047,95.1150893 L54.8384358,94.1926296 L54.9224509,93.2806729 L55.1615207,90.9455661 L55.4515488,88.1347668 C55.6451025,86.0851097 55.7348475,84.3677139 55.7348475,82.2765386 C55.7348475,81.6352736 56.2546955,81.1154255 56.8959605,81.1154255 Z M15.653,27.341 L15.5495355,27.5126272 L15.138,101.538 L15.2618978,100.985252 L15.4716305,99.9864335 L15.6617357,99.0203829 C16.0641411,96.9021827 16.3146107,95.0308231 16.4054098,93.3180874 L16.4278517,92.8089372 L16.5296896,89.7470441 L16.5533563,88.9865022 L16.5533563,88.9865022 L16.576306,88.2279329 L16.6609341,85.2133814 L16.7340895,82.2303922 L16.7957727,79.2789664 L16.8459841,76.3591049 C16.8657511,75.0684031 16.8821191,73.787054 16.8950883,72.515058 L16.9119932,70.6140789 L16.9277917,67.7889164 L16.9321202,64.9953222 C16.9316513,64.0693856 16.9292709,63.1487106 16.9249789,62.2332973 L16.9171073,60.8641237 L16.8927624,58.1494547 L16.8569489,55.4663575 C16.8384833,54.280886 16.8166197,53.1047694 16.7913583,51.9380081 L16.7509178,50.1948827 L16.6807011,47.606507 L16.5990175,45.0497072 C16.5698785,44.2027034 16.5388284,43.3609623 16.5058674,42.5244842 L16.4549926,41.2737144 L16.3446436,38.7958585 L16.2228293,36.3495821 C16.1661418,35.2693658 16.1060573,34.1985068 16.0425759,33.1370052 L15.9448062,31.5517711 L15.7885983,29.2002387 L15.653,27.341 Z" id="形状结合" fill="#999999" fill-rule="nonzero"></path>
            <path d="M1.16253554,142.996028 C1.16253554,161.774902 5.19234522,176.998627 10.1618476,176.998627 C15.1327259,176.998627 19.1625355,161.774902 19.1625355,142.996028 C19.1625355,124.222353 15.1327259,108.998627 10.1618476,108.998627 C5.19234522,108.998627 1.16253554,124.222353 1.16253554,142.996028" id="Fill-20" fill="#FF6868" opacity="0.359579904" filter="url(#filter-1)"></path>
            <path d="M10.2661205,122.334937 C10.7623197,122.339178 11.1681139,122.71616 11.2199271,123.197839 L11.2254803,123.310732 L10.8384426,168.981177 C10.8339141,169.515545 10.3970519,169.945065 9.86268353,169.940572 C9.36648438,169.936332 8.96069015,169.559349 8.90887698,169.077671 L8.90332375,168.964778 L9.29036142,123.294332 C9.29488997,122.759964 9.7317522,122.330444 10.2661205,122.334937 Z" id="直线-11备份-29" fill="#FF6868" fill-rule="nonzero"></path>
        </g>
        <g id="编组-2备份-3" transform="translate(200.837464, 54.001373)" fill-rule="nonzero">
            <path d="M31.8910575,0.0349412239 L32.051872,0.073065349 L74.957309,12.1837967 C75.9003069,12.4499725 76.6260993,13.204575 76.8553721,14.1571997 C77.0996743,15.1722047 77.3351508,16.3154986 77.5627097,17.5910366 L77.6597529,18.1458038 L77.7859694,18.9007174 L77.9036762,19.6400363 L78.0198551,20.4045034 L78.1345067,21.1941211 L78.3036211,22.4257099 L78.5237653,24.1558766 L78.631549,25.0587003 L78.8425422,26.9398397 L78.9457524,27.91816 L79.1476026,29.9503137 L79.2949928,31.5405119 L79.4389585,33.1873613 L79.6255881,35.4712981 L79.7615689,37.250364 L79.9375574,39.7106179 L80.0655615,41.621943 L80.2309199,44.2585708 L80.4675783,48.402538 L80.5807902,50.5596 L80.7619006,54.2807725 L80.933547,58.1595629 L81.0957362,62.1960073 L81.2186832,65.5386979 L81.3355858,68.9823289 L81.4996139,74.3370788 L81.6014208,78.0331415 L81.6127875,78.607058 L81.6169664,79.1969361 L81.609691,80.1186172 L81.5957674,80.7622714 L81.5745495,81.4329849 L81.5289797,82.4967275 L81.4668271,83.6391894 L81.3579846,85.3034203 L81.2567405,86.6711772 L81.1385721,88.1533247 L80.6303845,94.1366547 L80.5053383,95.6947351 L80.4104389,96.9862505 L80.3726528,97.5571612 L80.3131249,98.5995181 L80.2664197,99.6924158 L80.2283773,100.932379 L80.191397,102.368922 L80.1633051,103.746197 L80.1564986,104.15111 L80.1503395,104.557616 L80.1321812,106.211039 L80.1243971,107.935845 L80.1244804,108.890411 L80.1383635,111.556624 L80.1835271,115.376487 L80.2885336,121.441458 L80.535567,133.644358 L80.6198457,138.561943 L80.6738484,142.906979 L80.6985813,146.55497 C80.7009886,147.159825 80.7025642,147.766323 80.7033472,148.379285 L80.703932,149.304178 L80.707325,149.656949 L80.7304052,150.18889 L80.7983262,150.985201 L80.9293952,152.170982 L81.1554603,154.024859 C80.3719834,154.065775 79.6010729,154.154152 78.8455499,154.28717 L78.8024154,153.933844 L78.5402583,151.721252 L78.4702482,151.051673 L78.4114252,150.34073 L78.3883724,149.849722 L78.3821174,149.463201 L78.3778592,146.969788 L78.35876,143.715452 L78.3157663,139.845048 L78.2380022,135.000238 L77.9404937,120.100599 L77.8529917,114.8133 L77.8102951,110.807525 L77.8020738,107.915647 L77.8085187,106.381214 L77.8230885,104.9052 L77.8512886,103.175397 L77.8837117,101.738655 L77.933318,99.9823466 L77.9659443,99.0842918 L78.0202612,97.9868409 L78.0974399,96.7706355 L78.2474693,94.7864701 L78.7807489,88.4871577 L78.9025755,86.989534 L79.00771,85.6089826 L79.0685852,84.7486277 L79.1221301,83.9327636 L79.1887804,82.7857893 L79.2241541,82.0679553 L79.2637133,81.0538861 L79.2871769,80.1059857 L79.2946643,79.2140733 L79.290839,78.6455421 L79.2800016,78.0943532 L79.1255847,72.6075916 L78.9865963,68.2085516 L78.8686643,64.8027565 L78.6805403,59.8831742 L78.547646,56.7295568 L78.4087737,53.6768472 L78.2267828,50.0028934 L77.9960831,45.8023716 L77.7935836,42.4755037 L77.5817744,39.3064674 L77.4056292,36.8849046 L77.2696159,35.1350515 L77.177082,34.0000682 L76.9875565,31.8059183 L76.8905659,30.7467569 L76.7920906,29.7128747 L76.6415952,28.2094557 L76.4877622,26.7629296 L76.3305933,25.3733052 L76.2239616,24.4785053 L76.1158485,23.6090017 L75.9509023,22.3521823 L75.7826258,21.1522941 L75.6685922,20.3840014 L75.4947688,19.279018 L75.3701442,18.5336206 C75.1216789,17.0853311 74.8639936,15.80731 74.5976193,14.7006019 C74.5714177,14.591735 74.4998218,14.5009721 74.4032583,14.4495528 L74.3264734,14.4186971 L31.7575355,2.40262719 L31.48677,3.08665804 C31.1921641,3.81714306 30.8882721,4.54127715 30.5750945,5.25905695 C30.5829196,5.35734602 30.5715625,5.45910113 30.538773,5.55896988 C30.4891151,5.71021534 30.3973034,5.83580782 30.2806453,5.92699569 C28.9399985,8.92643536 27.4352695,11.814702 25.7665145,14.5904275 C23.4658021,18.4173202 20.9860109,22.0346364 18.3271539,25.4421124 L17.882,26.005 L18.0221962,27.8663768 C18.0970847,28.9024656 18.1685592,29.9478882 18.2366197,31.0026452 L18.33615,32.5917815 L18.4758442,35.0017394 L18.604017,37.4432024 C18.6805247,38.9789622 18.7502819,40.5331826 18.8132891,42.1058647 L18.8740462,43.6847007 L18.9618979,46.2364391 L19.0382302,48.819687 C19.0617544,49.6860213 19.0833589,50.5576074 19.1030435,51.4344454 L19.1311307,52.7536414 L19.1786665,55.4156675 L19.2146843,58.1092066 L19.2391848,60.8342597 L19.2471161,62.2086044 L19.2521682,63.5908279 L19.253635,66.3789122 L19.2435856,69.1985134 L19.2220205,72.0496327 C19.2129129,73.0052589 19.2018861,73.9661383 19.1889402,74.9322711 L19.1680819,76.3854102 L19.1177293,79.315329 L19.0558626,82.2767693 L19.0206115,83.7693103 L18.982482,85.2697322 L18.897588,88.2942186 L18.8508237,89.8182834 L18.8011811,91.3502295 L18.7486604,92.890057 C18.6856721,94.6921295 18.4542001,96.6278271 18.0647287,98.7962039 L17.9431578,99.4537964 L17.814932,100.113116 L17.607703,101.120986 L17.4566532,101.820347 L17.205641,102.936024 L17.0190378,103.739088 L16.175517,107.269286 L15.5663811,109.87789 L15.2691113,111.228223 L15.0793212,112.16449 L14.9612043,112.81362 L14.8903213,113.253325 L14.8332118,113.660566 L14.7763106,114.165413 L14.7552666,114.406257 L14.7319075,114.759006 L14.7212609,114.991584 L14.714119,115.224564 L14.710108,115.460064 L14.7088541,189.780239 C14.7088541,189.967271 14.8415205,190.123319 15.017889,190.159409 L15.0958918,190.167272 L15.871072,190.121873 L20.2181917,189.851036 L22.9571181,189.668126 L26.2016442,189.43686 L28.6539008,189.249754 L30.9786706,189.060799 L32.6385557,188.917874 L34.7401077,188.725705 L36.7140405,188.531711 L38.5603063,188.335904 L39.861195,188.187863 L41.0902237,188.03881 L42.247372,187.88875 L43.3326197,187.737687 L44.0161633,187.636422 L45.2286535,187.446441 L46.9739352,187.162903 C47.5511245,187.067271 48.1236775,186.970538 48.6913994,186.872764 L49.5393346,186.725329 L51.2128806,186.425949 L52.8556868,186.120848 L54.4665841,185.810379 L56.0444037,185.494895 L57.5879765,185.174747 L58.3465551,185.013035 L59.0961337,184.850289 L60.5677063,184.521872 L62.0015255,184.189849 L62.3539443,184.106321 L62.7039122,184.022595 L64.0789092,183.685824 L64.4163486,183.601192 L64.7512274,183.516395 L66.0647723,183.175669 L66.1073504,183.163438 C66.5532335,183.866232 67.0439909,184.537751 67.5755921,185.173962 L66.6796046,185.415063 L65.3470091,185.760946 L64.6652156,185.932875 L63.9732856,186.104071 L62.5595976,186.444092 L61.8381305,186.612829 L61.1071085,186.78066 L59.6169816,187.113429 L59.2387053,187.195987 L58.8581675,187.27828 L57.3137654,187.604698 L55.7346339,187.926449 L54.1219365,188.243185 L53.7136538,188.321544 L53.3033641,188.399563 L51.6424992,188.708125 L49.9509768,189.010803 L49.5234423,189.085513 L49.0940826,189.159827 L47.3587554,189.45303 L46.038986,189.668519 L44.7040987,189.880065 L44.3692507,189.93165 L43.3171226,190.085632 L42.5760431,190.187643 L41.4049176,190.3397 L39.732307,190.540654 L38.8483697,190.640368 L37.4629067,190.788987 L35.5044182,190.985377 L33.4187947,191.179752 L30.6329086,191.419904 L28.2610558,191.609784 L25.7619117,191.79768 L22.4589052,192.029775 L18.9568372,192.258804 L15.2556139,192.484786 L15.155079,192.4888 L14.9308497,192.484554 C13.7697822,192.414784 12.805868,191.613791 12.4934243,190.535926 L10.6858578,190.334596 C10.544772,190.524237 10.3189336,190.647087 10.064402,190.647087 C9.748573,190.647087 9.47692134,190.457941 9.35654448,190.186747 L7.348,189.963 L7.34749496,189.982179 C7.29904842,190.325402 7.02569196,190.595829 6.68196706,190.640575 L6.57689308,190.647076 C6.18501459,190.644965 5.86271986,190.352013 5.81349932,189.973916 L5.80699885,189.868842 L5.8087979,189.153788 C5.80558513,189.107808 5.80645099,189.060894 5.81172207,189.013454 L5.80982657,188.987394 C4.7190282,189.418232 3.98314049,189.899794 3.59123584,190.399361 L3.50365397,190.519771 C2.88343826,191.444501 1.46962236,191.044469 1.3824457,189.97945 L1.37832654,189.858411 L2.28054438,118.122182 L2.27647638,117.452602 L2.26401803,116.792564 L2.24278785,116.136225 C2.23849731,116.026819 2.23382538,115.917324 2.22876411,115.807618 L2.19366087,115.145876 L2.14883206,114.47323 L2.09389618,113.783838 L1.99170708,112.705574 L1.90983449,111.948762 L1.76545206,110.741985 L1.59403691,109.431814 L1.39430149,107.998533 L0.778918036,103.761337 L0.573488509,102.265711 L0.44448212,101.263757 L0.335511554,100.347044 L0.245272613,99.4998998 L0.172461097,98.7066507 L0.132957941,98.2000198 L0.100234234,97.7057326 L0.063014825,96.9772873 L0.0388755116,96.2504931 L0.0265120943,95.5096766 L0.00923941618,91.1176948 L-9.9475983e-14,85.8238371 L0.00149303089,82.0926322 L0.0154269378,77.0454257 L0.0375000581,73.0338475 L0.0763860271,68.4454682 L0.14897826,62.6955305 L0.206216208,59.3067503 L0.272458413,56.069354 L0.380126597,51.7813994 L0.449373637,49.4542659 L0.604463538,45.0559609 L0.712478224,42.472648 L0.85317594,39.5321329 L0.979535399,37.2084711 L1.08651187,35.4287637 L1.22750622,33.2987784 L1.37648544,31.2690934 L1.5333455,29.3344961 L1.66443787,27.8517786 L1.83522133,26.0752035 C1.8453276,25.9747484 1.86849279,25.8760404 1.90413076,25.7815771 C2.27080921,24.809646 2.7201022,23.7879337 3.26102898,22.6888874 L3.63532118,21.9444307 L4.037358,21.175246 L4.46773328,20.3795192 L4.9270409,19.5554361 L5.41587471,18.7011826 L5.93482857,17.8149444 L6.48449635,16.8949075 L7.06547189,15.9392576 L7.67834907,14.9461806 L8.32372173,13.9138622 C8.63155519,13.4242896 8.96792714,12.9082305 9.32518304,12.3758649 L9.87577303,11.5663591 L10.451948,10.7400285 L11.0479672,9.90450777 L11.6580895,9.067432 L12.2765741,8.23643605 C12.3800328,8.09886754 12.4836007,7.96187048 12.5871583,7.82560392 L13.2074222,7.01804315 L13.8216961,6.23564947 C14.4310614,5.4683843 15.0228304,4.75032211 15.5711691,4.11581997 L16.1040741,3.51044368 C16.4484172,3.12712502 16.7696306,2.78603411 17.0600598,2.49735082 C17.3429527,2.21615853 17.747703,2.10197312 18.1311744,2.18751827 L18.2580137,2.22347564 L24.3615518,4.33343158 C24.6207464,4.2223042 24.9100581,4.18188791 25.1989115,4.22488161 L25.3401519,4.25264811 L27.573,4.8 L27.7762275,4.46630652 C27.9391804,4.19879805 28.2439137,4.05972203 28.5455888,4.10247765 C28.8178906,3.47326613 29.0830552,2.83851857 29.3409731,2.19854043 L29.7224012,1.23468846 L29.7847013,1.09151408 C30.1657428,0.303594719 31.0322559,-0.13058549 31.8910575,0.0349412239 Z M20.5907849,6.49483055 L8.23253554,26.9796272 L7.363,188.406 L9.29,188.621 L9.29032668,173.617429 C9.29032668,173.189919 9.63689202,172.843354 10.064402,172.843354 C10.4562862,172.843354 10.7801544,173.134565 10.831411,173.512392 L10.8384774,173.617429 L10.838,188.792 L12.386,188.964 L12.3866281,115.566565 C12.3873686,115.433943 12.388962,115.304233 12.3916555,115.176211 L12.403284,114.795981 L12.4154256,114.544492 L12.4315351,114.292062 L12.4519872,114.036517 L12.5074174,113.507374 L12.5631752,113.086153 L12.6324964,112.635891 L12.7482084,111.977671 L12.8540941,111.431085 L13.0231474,110.61778 L13.2834731,109.440828 L13.553,108.274 L14.0030914,27.2896391 C14.0036764,27.1841911 14.0257933,27.080356 14.0676728,26.984372 L14.1160744,26.8912361 L26.012,7.361 L24.349,6.786 L12.1355355,27.0166272 L11.2254775,119.439784 C11.2216152,119.831649 10.9272263,120.152632 10.5489128,120.200162 L10.4438108,120.206193 C10.0519456,120.202331 9.73096324,119.907942 9.6834328,119.529628 L9.67740195,119.424526 L10.5904139,26.7894782 C10.5914371,26.6856632 10.6133254,26.5834786 10.6543886,26.4888806 L10.7017807,26.3970322 L22.519,6.823 L20.5907849,6.49483055 Z M18.1985355,4.65962719 L18.0347042,4.83764686 C17.2370901,5.70759159 16.2751438,6.86492208 15.2738079,8.14421959 L14.6017862,9.01333849 C14.3767479,9.30785766 14.1511355,9.6065846 13.9263202,9.90770401 L13.2556366,10.8164244 L12.5979619,11.7286078 L11.9615229,12.6333625 C11.4422905,13.381204 10.953748,14.1099617 10.5173191,14.7912715 L9.971155,15.6578816 L9.35818489,16.6444186 L8.7767414,17.5932251 L8.22632559,18.5058542 L7.70643847,19.383859 L7.2165811,20.2287929 L6.75625451,21.042209 C6.68196659,21.1752382 6.60888833,21.3070188 6.53700933,21.4375833 L6.12004335,22.206635 C5.3145611,23.716586 4.67877909,25.0607285 4.1947347,26.2949783 L4.13053554,26.4616272 L4.00551947,27.7551849 L3.84242082,29.5874127 L3.71746771,31.1177288 L3.5974851,32.7082832 L3.48252712,34.3617301 L3.34597804,36.5210242 L3.2174703,38.787918 L3.12052496,40.682388 L2.98500192,43.6652384 L2.86151529,46.825425 L2.7502478,50.171905 L2.65138222,53.7136353 L2.59245201,56.1876845 L2.50294558,60.7436418 L2.44021109,64.8872235 L2.37697822,70.7706809 L2.34947871,74.6645408 L2.32502112,81.2565294 L2.32222064,85.8333017 L2.33146741,91.1156756 L2.35143042,95.7241707 L2.36707287,96.4247618 L2.38404217,96.8875731 L2.42026586,97.5866693 L2.45215376,98.0625508 L2.53622743,99.0581318 L2.58917976,99.586834 L2.68333065,100.431187 L2.83835918,101.676383 L2.97842798,102.719517 L3.19937567,104.284896 L3.6215577,107.17165 L3.83531438,108.681524 L4.01988208,110.061299 L4.1765356,111.331303 L4.30654976,112.511863 L4.37905576,113.259251 L4.44066634,113.981943 L4.49175923,114.685964 L4.53271216,115.377334 L4.56390284,116.062079 L4.585709,116.746219 L4.60164851,117.784474 L4.60267862,118.136782 L3.73053554,187.392627 L3.86881825,187.319143 C4.33611947,187.076612 4.85742718,186.853898 5.43215564,186.649246 L5.78339852,186.528609 L5.824,186.517 L6.68567898,26.7579504 C6.68624265,26.6533155 6.70800784,26.5502535 6.74925915,26.4548652 L6.79694231,26.3622606 L19.2651834,5.69511118 C19.3890466,5.48979748 19.5554926,5.32092791 19.748405,5.19588519 L18.1985355,4.65962719 Z M56.8959605,81.1154255 C57.5372255,81.1154255 58.0570735,81.6352736 58.0570735,82.2765386 C58.0570735,84.1739222 57.9854834,85.7810723 57.8335488,87.5726126 L57.6856447,89.1300204 L57.2774057,93.0552806 L57.1944867,93.9242293 L57.1162894,94.801528 L57.0078512,96.1395363 L56.9414671,97.0505182 L56.850758,98.4527746 L56.7961995,99.4157373 L56.7463748,100.404616 L56.6805179,101.942929 L56.6253232,103.556021 L56.5944534,104.677838 L56.5683274,105.840209 L56.5380372,107.666208 L56.5184315,109.599921 L56.5095172,111.651228 L56.5089228,163.55445 C56.5089228,164.195715 55.9890748,164.715563 55.3478098,164.715563 C54.7492958,164.715563 54.2565495,164.262718 54.19351,163.680966 L54.1866968,163.55445 L54.1872994,111.645033 L54.1923348,110.21137 L54.202477,108.834521 L54.2272622,106.868788 L54.263529,105.01292 L54.311272,103.256138 L54.3494738,102.134676 L54.4163323,100.519085 L54.4672727,99.4817682 L54.5233059,98.472521 L54.5844303,97.4881491 L54.6856593,96.051246 L54.7595047,95.1150893 L54.8384358,94.1926296 L54.9224509,93.2806729 L55.1615207,90.9455661 L55.4515488,88.1347668 C55.6451025,86.0851097 55.7348475,84.3677139 55.7348475,82.2765386 C55.7348475,81.6352736 56.2546955,81.1154255 56.8959605,81.1154255 Z M15.653,27.341 L15.5495355,27.5126272 L15.138,101.538 L15.2618978,100.985252 L15.4716305,99.9864335 L15.6617357,99.0203829 C16.0641411,96.9021827 16.3146107,95.0308231 16.4054098,93.3180874 L16.4278517,92.8089372 L16.5296896,89.7470441 L16.5533563,88.9865022 L16.576306,88.2279329 L16.6609341,85.2133814 L16.7340895,82.2303922 L16.7957727,79.2789664 L16.8459841,76.3591049 C16.8657511,75.0684031 16.8821191,73.787054 16.8950883,72.515058 L16.9119932,70.6140789 L16.9277917,67.7889164 L16.9321202,64.9953222 C16.9316513,64.0693856 16.9292709,63.1487106 16.9249789,62.2332973 L16.9171073,60.8641237 L16.8927624,58.1494547 L16.8569489,55.4663575 C16.8384833,54.280886 16.8166197,53.1047694 16.7913583,51.9380081 L16.7509178,50.1948827 L16.6807011,47.606507 L16.5990175,45.0497072 C16.5698785,44.2027034 16.5388284,43.3609623 16.5058674,42.5244842 L16.4549926,41.2737144 L16.3446436,38.7958585 L16.2228293,36.3495821 C16.1661418,35.2693658 16.1060573,34.1985068 16.0425759,33.1370052 L15.9448062,31.5517711 L15.7885983,29.2002387 L15.653,27.341 Z" id="形状结合" fill-opacity="0.7" fill="#999999"></path>
            <path d="M10.2661205,122.334937 C10.7623197,122.339178 11.1681139,122.71616 11.2199271,123.197839 L11.2254803,123.310732 L10.8384426,168.981177 C10.8339141,169.515545 10.3970519,169.945065 9.86268353,169.940572 C9.36648438,169.936332 8.96069015,169.559349 8.90887698,169.077671 L8.90332375,168.964778 L9.29036142,123.294332 C9.29488997,122.759964 9.7317522,122.330444 10.2661205,122.334937 Z" id="直线-11备份-29" fill="#C7C7C7"></path>
        </g>
        <path d="M291.979845,226.000269 C291.927444,224.607498 291.75613,223.265117 291.488075,222.001344 L295.003023,222.001344 C295.525025,223.246977 295.855559,224.593389 295.962378,226.000269 L291.979845,226.000269 Z M291.488075,232.002687 C291.75613,230.736899 291.927444,229.394518 291.979845,227.999731 L295.960363,227.999731 C295.855559,229.408627 295.525025,230.753023 295.003023,232.002687 L291.488075,232.002687 Z M290.966073,234.00215 L293.957004,234.00215 C292.653006,236.035877 290.800806,237.680597 288.61001,238.730718 C289.577427,237.444773 290.381592,235.83835 290.966073,234.00215 Z M284.000672,234.00215 L288.900235,234.00215 C287.825999,237.116232 286.054417,239.3233 284.000672,239.873555 L284.000672,234.00215 Z M284.000672,227.999731 L289.980517,227.999731 C289.922069,229.408627 289.744709,230.753023 289.460531,232.002687 L284.000672,232.002687 L284.000672,227.999731 Z M284.000672,222.001344 L289.460531,222.001344 C289.744709,223.246977 289.918038,224.593389 289.980517,226.000269 L284.000672,226.000269 L284.000672,222.001344 Z M284.000672,214.12846 C286.054417,214.6767 287.825999,216.885783 288.900235,219.99785 L284.000672,219.99785 L284.000672,214.12846 Z M290.966073,219.99785 C290.381592,218.163666 289.581458,216.553212 288.61001,215.269282 C290.800806,216.319403 292.653006,217.966138 293.957004,219.99785 L290.966073,219.99785 Z M281.999328,219.99785 L277.099765,219.99785 C278.174001,216.885783 279.943567,214.6767 281.999328,214.12846 L281.999328,219.99785 Z M281.999328,226.000269 L276.019483,226.000269 C276.077931,224.593389 276.255291,223.246977 276.537454,222.001344 L281.999328,222.001344 L281.999328,226.000269 Z M281.999328,232.002687 L276.537454,232.002687 C276.255291,230.753023 276.077931,229.408627 276.019483,227.999731 L281.999328,227.999731 L281.999328,232.002687 Z M281.999328,239.873555 C279.943567,239.3233 278.174001,237.116232 277.099765,234.00215 L281.999328,234.00215 L281.999328,239.873555 Z M275.035942,234.00215 C275.620423,235.83835 276.422573,237.448804 277.38999,238.730718 C275.197178,237.680597 273.344978,236.035877 272.040981,234.00215 L275.035942,234.00215 Z M274.020155,227.999731 C274.074572,229.394518 274.24387,230.736899 274.511925,232.002687 L270.994961,232.002687 C270.47699,230.753023 270.144441,229.408627 270.037622,227.999731 L274.020155,227.999731 Z M274.511925,222.001344 C274.24387,223.265117 274.074572,224.607498 274.020155,226.000269 L270.037622,226.000269 C270.144441,224.593389 270.47699,223.246977 270.994961,222.001344 L274.511925,222.001344 Z M275.037958,219.99785 L272.040981,219.99785 C273.344978,217.966138 275.197178,216.319403 277.38999,215.269282 C276.424589,216.553212 275.622439,218.163666 275.037958,219.99785 Z M297.963722,226.000269 C297.471952,218.510347 291.488075,212.524053 284.000672,212.032249 L284.000672,212 L282.998992,212 L281.999328,212 L281.999328,212.032249 C274.511925,212.524053 268.526033,218.510347 268.034263,226.000269 L268,226.000269 L268,227 L268,227.999731 L268.034263,227.999731 C268.526033,235.489653 274.511925,241.473932 281.999328,241.965735 L281.999328,242 L282.998992,242 L284.000672,242 L284.000672,241.965735 C291.488075,241.473932 297.471952,235.489653 297.963722,227.999731 L298,227.999731 L298,227 L298,226.000269 L297.963722,226.000269 Z" id="Fill-90" fill="#009FD1"></path>
        <path d="M184,150 L184,149 L182,149 L182,150 L184,150 Z M179,150 L179,149 L177,149 L177,150 L179,150 Z M174,150 L174,149 L172,149 L172,150 L174,150 Z M169,150 L169,149 L167,149 L167,150 L169,150 Z M164,150 L164,149 L162,149 L162,150 L164,150 Z M159,150 L159,149 L157,149 L157,150 L159,150 Z M154,150 L154,149 L152,149 L152,150 L154,150 Z M149,150 L149,149 L147,149 L147,150 L149,150 Z M144,150 L144,149 L142,149 L142,150 L144,150 Z M139,150 L139,149 L137,149 L137,150 L139,150 Z M134,150 L134,149 L132,149 L132,150 L134,150 Z M129,150 L129,149 L127,149 L127,150 L129,150 Z M124,150 L124,149 L122,149 L122,150 L124,150 Z" id="直线-22备份-3" fill="#979797" fill-rule="nonzero"></path>
    </g>
</svg>