<?xml version="1.0" encoding="UTF-8"?>
<svg width="300px" height="300px" viewBox="0 0 300 300" version="1.1" xmlns="http://www.w3.org/2000/svg" xmlns:xlink="http://www.w3.org/1999/xlink">
    <title>img/M6s/img_add_m6s_01</title>
    <g id="img/M6s/img_add_m6s_01" stroke="none" stroke-width="1" fill="none" fill-rule="evenodd">
        <g id="编组-2" transform="translate(114.000000, 13.998170)">
            <path d="M54.4703664,61.5971474 L45.5384124,61.5971474 C42.7684753,61.5971474 40.5229976,63.8467077 40.5229976,66.621681 L40.5229976,75.551466 C40.5229976,78.3264393 42.7684753,80.5759996 45.5384124,80.5759996 L54.4703664,80.5759996 C57.2403035,80.5759996 59.4857812,78.3264393 59.4857812,75.551466 L59.4857812,66.621681 C59.4857812,63.8467077 57.2403035,61.5971474 54.4703664,61.5971474 Z M45.5384124,62.6980209 L54.4703664,62.6980209 C56.6334113,62.6980209 58.3869056,64.4547034 58.3869056,66.621681 L58.3869056,75.551466 C58.3869056,77.7184436 56.6334113,79.4751261 54.4703664,79.4751261 L45.5384124,79.4751261 C43.3753675,79.4751261 41.6218732,77.7184436 41.6218732,75.551466 L41.6218732,66.621681 C41.6218732,64.4547034 43.3753675,62.6980209 45.5384124,62.6980209 Z" id="矩形备份-9" fill-opacity="0.7" fill="#999999" fill-rule="nonzero"></path>
            <path d="M41.1930168,58.0386288 C41.536897,58.0386288 41.8316515,57.9402999 42.0772802,57.7436421 C42.3407729,57.5335759 42.506014,57.2430587 42.5774696,56.8676212 L42.0683483,56.8676212 C42.0058246,57.1089739 41.8986411,57.2922231 41.7467979,57.4128995 C41.6038867,57.5201674 41.4163156,57.5782708 41.1885508,57.5782708 C40.8402046,57.5782708 40.5811779,57.4665334 40.4159368,57.2519977 C40.2640936,57.0508704 40.1881719,56.7603533 40.1881719,56.3849157 C40.1881719,56.0184172 40.2640936,55.7323695 40.4204028,55.5267728 C40.5901099,55.294359 40.8402046,55.1826217 41.1751529,55.1826217 C41.3984517,55.1826217 41.5815568,55.2273166 41.724468,55.3256455 C41.8718453,55.4239744 41.9700968,55.5759372 42.0236885,55.7860034 L42.5328099,55.7860034 C42.4836841,55.4641998 42.3452388,55.2049691 42.113008,55.0172504 C41.8718453,54.8205926 41.5592269,54.7222637 41.1840848,54.7222637 C40.6749634,54.7222637 40.2864234,54.887635 40.0184648,55.2273166 C39.781768,55.5223033 39.6656526,55.9111493 39.6656526,56.3849157 C39.6656526,56.8676212 39.7773021,57.2519977 40.0050669,57.5380454 C40.2640936,57.868788 40.6615655,58.0386288 41.1930168,58.0386288 Z M44.4844418,58.0386288 C44.9712333,58.0386288 45.3553073,57.8821964 45.6366639,57.5693318 C45.9046225,57.2698757 46.0386018,56.8765601 46.0386018,56.3849157 C46.0386018,55.8932713 45.9046225,55.4954863 45.6366639,55.1960302 C45.3553073,54.878696 44.9712333,54.7222637 44.4844418,54.7222637 C43.9931844,54.7222637 43.6091103,54.878696 43.3322198,55.2004996 C43.0642611,55.5044253 42.9347478,55.8977408 42.9347478,56.3849157 C42.9347478,56.8676212 43.0642611,57.2609367 43.3322198,57.5648623 C43.6091103,57.8777269 43.9931844,58.0386288 44.4844418,58.0386288 Z M44.4844418,57.5782708 C44.1539595,57.5782708 43.8949329,57.4665334 43.7162938,57.2475282 C43.5421207,57.0329925 43.4572671,56.7469448 43.4572671,56.3849157 C43.4572671,56.0184172 43.5421207,55.7323695 43.7162938,55.5178338 C43.8993988,55.294359 44.1539595,55.1826217 44.4844418,55.1826217 C44.8149241,55.1826217 45.0694848,55.28542 45.2481239,55.4999558 C45.422297,55.7144915 45.5116165,56.0094782 45.5116165,56.3849157 C45.5116165,56.7603533 45.422297,57.0508704 45.2481239,57.2609367 C45.0694848,57.4710029 44.8149241,57.5782708 44.4844418,57.5782708 Z M47.0523786,57.9760558 L47.0523786,55.6429796 L47.0702425,55.6429796 L48.6645963,57.9760558 L49.1737177,57.9760558 L49.1737177,54.7848366 L48.6467324,54.7848366 L48.6467324,57.0866264 L48.6288685,57.0866264 L47.0523786,54.7848366 L46.5298593,54.7848366 L46.5298593,57.9760558 L47.0523786,57.9760558 Z M50.3214738,57.9760558 L50.3214738,55.6429796 L50.3393377,55.6429796 L51.9336915,57.9760558 L52.4428129,57.9760558 L52.4428129,54.7848366 L51.9158276,54.7848366 L51.9158276,57.0866264 L51.8979637,57.0866264 L50.3214738,54.7848366 L49.7989545,54.7848366 L49.7989545,57.9760558 L50.3214738,57.9760558 Z M55.4439494,57.9760558 L55.4439494,57.5291064 L53.590569,57.5291064 L53.590569,56.5636955 L55.2608444,56.5636955 L55.2608444,56.1167461 L53.590569,56.1167461 L53.590569,55.2317861 L55.3680278,55.2317861 L55.3680278,54.7848366 L53.0680496,54.7848366 L53.0680496,57.9760558 L55.4439494,57.9760558 Z M57.3285917,58.0386288 C57.6724719,58.0386288 57.9672264,57.9402999 58.2128552,57.7436421 C58.4763478,57.5335759 58.641589,57.2430587 58.7130446,56.8676212 L58.2039232,56.8676212 C58.1413995,57.1089739 58.0342161,57.2922231 57.8823729,57.4128995 C57.7394616,57.5201674 57.5518906,57.5782708 57.3241257,57.5782708 C56.9757795,57.5782708 56.7167529,57.4665334 56.5515117,57.2519977 C56.3996685,57.0508704 56.3237469,56.7603533 56.3237469,56.3849157 C56.3237469,56.0184172 56.3996685,55.7323695 56.5559777,55.5267728 C56.7256848,55.294359 56.9757795,55.1826217 57.3107278,55.1826217 C57.5340267,55.1826217 57.7171317,55.2273166 57.860043,55.3256455 C58.0074202,55.4239744 58.1056717,55.5759372 58.1592634,55.7860034 L58.6683848,55.7860034 C58.6192591,55.4641998 58.4808138,55.2049691 58.248583,55.0172504 C58.0074202,54.8205926 57.6948018,54.7222637 57.3196598,54.7222637 C56.8105384,54.7222637 56.4219984,54.887635 56.1540398,55.2273166 C55.917343,55.5223033 55.8012276,55.9111493 55.8012276,56.3849157 C55.8012276,56.8676212 55.912877,57.2519977 56.1406418,57.5380454 C56.3996685,57.868788 56.7971404,58.0386288 57.3285917,58.0386288 Z M60.5262312,57.9760558 L60.5262312,55.2317861 L61.5712699,55.2317861 L61.5712699,54.7848366 L58.9586733,54.7848366 L58.9586733,55.2317861 L60.0037119,55.2317861 L60.0037119,57.9760558 L60.5262312,57.9760558 Z" id="CONNECT" fill="#999999" fill-rule="nonzero"></path>
            <path d="M51.8347817,215.004302 L52.4600185,212.604183 L52.4778824,212.604183 L53.0986532,215.004302 L53.6524344,215.004302 L54.5724256,211.813082 L53.9829167,211.813082 L53.3844758,214.240018 L53.3666118,214.240018 L52.7369091,211.813082 L52.1965259,211.813082 L51.5668231,214.240018 L51.5489592,214.240018 L50.9505183,211.813082 L50.3610093,211.813082 L51.2765346,215.004302 L51.8347817,215.004302 Z M55.1530026,215.004302 L55.4432912,214.204262 L56.7786183,214.204262 L57.0689068,215.004302 L57.6271539,215.004302 L56.4079422,211.813082 L55.8139672,211.813082 L54.5947555,215.004302 L55.1530026,215.004302 Z M56.6223091,213.775191 L55.5996003,213.775191 L56.1042558,212.376239 L56.1221197,212.376239 L56.6223091,213.775191 Z M58.4622916,215.004302 L58.4622916,212.671225 L58.4801555,212.671225 L60.0745093,215.004302 L60.5836307,215.004302 L60.5836307,211.813082 L60.0566454,211.813082 L60.0566454,214.114872 L60.0387815,214.114872 L58.4622916,211.813082 L57.9397723,211.813082 L57.9397723,215.004302 L58.4622916,215.004302 Z M40.873435,211.655171 C40.5173805,211.655171 40.2269151,211.766445 40.0114085,211.997896 C39.8005868,212.211542 39.6928334,212.496405 39.6881485,212.852482 L40.1988055,212.852482 C40.2081754,212.594326 40.2643945,212.402934 40.3768327,212.269405 C40.4845861,212.131425 40.6438736,212.06466 40.8546953,212.06466 C41.0514622,212.06466 41.2060648,212.10917 41.3091332,212.19819 C41.4122015,212.287209 41.4637357,212.420738 41.4637357,212.598777 C41.4637357,212.785718 41.384092,212.959306 41.2341743,213.119541 C41.1404758,213.213011 40.9811883,213.333187 40.7563118,213.48452 C40.3768327,213.733775 40.1238467,213.925166 40.0020386,214.063146 C39.7771621,214.303499 39.6694088,214.579459 39.6694088,214.895478 L41.9743928,214.895478 L41.9743928,214.468185 L40.3018739,214.468185 C40.3721478,214.294597 40.5876544,214.094303 40.9483938,213.867304 C41.2810236,213.653657 41.510585,213.48452 41.641763,213.355442 C41.8572696,213.128442 41.9697078,212.879188 41.9697078,212.603228 C41.9697078,212.322817 41.8666394,212.095817 41.6651876,211.917778 C41.4590508,211.739739 41.19201,211.655171 40.873435,211.655171 Z M42.8645288,214.258989 C42.7614604,214.258989 42.6818167,214.290146 42.6209126,214.35246 C42.5506387,214.414773 42.5178443,214.494891 42.5178443,214.592812 C42.5178443,214.681831 42.5506387,214.761949 42.6209126,214.828713 C42.6818167,214.886576 42.7614604,214.917733 42.8645288,214.917733 C42.9582274,214.917733 43.042556,214.886576 43.1128299,214.828713 C43.1784189,214.761949 43.2158983,214.681831 43.2158983,214.592812 C43.2158983,214.494891 43.1784189,214.414773 43.1128299,214.35246 C43.042556,214.290146 42.9582274,214.258989 42.8645288,214.258989 Z M43.9467469,211.717485 L43.7640348,213.497873 L44.2418973,213.497873 C44.3074863,213.382148 44.3964999,213.297579 44.518308,213.244168 C44.6307462,213.190756 44.7572392,213.168501 44.9071569,213.168501 C45.1320334,213.168501 45.3006907,213.230815 45.4224988,213.355442 C45.5443069,213.480069 45.605211,213.653657 45.605211,213.876206 C45.605211,214.08095 45.5349371,214.241185 45.3943893,214.365812 C45.2538415,214.485989 45.0804992,214.548302 44.8743624,214.548302 C44.6869653,214.548302 44.5370477,214.508244 44.4246094,214.428126 C44.2981164,214.339107 44.2231576,214.201127 44.2044179,214.023088 L43.7031307,214.023088 C43.7265553,214.316852 43.8577333,214.552753 44.0966646,214.72189 C44.3121712,214.877674 44.5698422,214.957792 44.8696775,214.957792 C45.2023073,214.957792 45.4880878,214.864321 45.7270191,214.67738 C45.9800051,214.468185 46.111183,214.201127 46.111183,213.871755 C46.111183,213.52903 46.0081147,213.261972 45.8113477,213.066129 C45.6145808,212.870286 45.3569098,212.772365 45.0430198,212.772365 C44.8931021,212.772365 44.7525543,212.79462 44.6307462,212.84358 C44.4948833,212.88809 44.3777602,212.959306 44.2746918,213.061678 L44.260637,213.061678 L44.3590205,212.144778 L45.9612654,212.144778 L45.9612654,211.717485 L43.9467469,211.717485 Z M48.0882221,211.655171 C47.5963048,211.655171 47.202771,211.815406 46.9123055,212.144778 C46.6358948,212.451895 46.500032,212.84358 46.500032,213.319834 C46.500032,213.791637 46.6358948,214.178872 46.9123055,214.477087 C47.2074559,214.797557 47.6197295,214.957792 48.1538111,214.957792 C48.4442766,214.957792 48.7113174,214.922184 48.9549336,214.850968 C49.184495,214.779753 49.3859468,214.681831 49.5592891,214.552753 L49.5592891,213.217462 L48.1257015,213.217462 L48.1257015,213.631402 L49.0486321,213.631402 L49.0486321,214.321303 C48.9361939,214.388067 48.8143858,214.441479 48.673838,214.477087 C48.5286052,214.512694 48.3740027,214.534949 48.2100302,214.534949 C47.7930717,214.534949 47.4838666,214.423675 47.2870997,214.201127 C47.0997026,213.996382 47.010689,213.702618 47.010689,213.319834 C47.010689,212.928149 47.1090724,212.621032 47.3152092,212.398483 C47.5072912,212.184837 47.7649622,212.082464 48.0882221,212.082464 C48.350578,212.082464 48.5660847,212.135876 48.7253722,212.24715 C48.8846597,212.353974 48.9877281,212.514208 49.0345773,212.727855 L49.5499193,212.727855 C49.4890152,212.371777 49.3390976,212.10917 49.1001663,211.931131 C48.8518652,211.74419 48.5145505,211.655171 48.0882221,211.655171 Z" id="形状结合" fill="#999999" fill-rule="nonzero"></path>
            <path d="M48.2848077,90.1564174 L48.2848077,89.7094679 L46.5609406,89.7094679 L46.5609406,86.9651982 L46.0428872,86.9651982 L46.0428872,90.1564174 L48.2848077,90.1564174 Z M48.9323744,90.1564174 L49.2226629,89.3563778 L50.55799,89.3563778 L50.8482785,90.1564174 L51.4065256,90.1564174 L50.1873139,86.9651982 L49.593339,86.9651982 L48.3741272,90.1564174 L48.9323744,90.1564174 Z M50.4016808,88.9273064 L49.3789721,88.9273064 L49.8836275,87.5283545 L49.9014914,87.5283545 L50.4016808,88.9273064 Z M52.2416633,90.1564174 L52.2416633,87.8233412 L52.2595272,87.8233412 L53.853881,90.1564174 L54.3630024,90.1564174 L54.3630024,86.9651982 L53.8360171,86.9651982 L53.8360171,89.2669879 L53.8181532,89.2669879 L52.2416633,86.9651982 L51.719144,86.9651982 L51.719144,90.1564174 L52.2416633,90.1564174 Z" id="LAN" fill="#999999" fill-rule="nonzero"></path>
            <path d="M42.5459626,245.173391 L42.5459626,243.948749 L43.3364405,243.948749 C44.1135205,243.948749 44.5020605,243.618006 44.5020605,242.960991 C44.5020605,242.308444 44.1135205,241.982171 43.3453724,241.982171 L42.0234433,241.982171 L42.0234433,245.173391 L42.5459626,245.173391 Z M43.3051787,243.501799 L42.5459626,243.501799 L42.5459626,242.429121 L43.3051787,242.429121 C43.5329435,242.429121 43.7026506,242.469346 43.8098341,242.554267 C43.9170175,242.634718 43.9750752,242.768802 43.9750752,242.960991 C43.9750752,243.153179 43.9214835,243.291733 43.8143,243.376654 C43.7071166,243.457105 43.5374095,243.501799 43.3051787,243.501799 Z M46.3643729,245.235963 C46.8511644,245.235963 47.2352384,245.079531 47.516595,244.766666 C47.7845536,244.46721 47.9185329,244.073895 47.9185329,243.58225 C47.9185329,243.090606 47.7845536,242.692821 47.516595,242.393365 C47.2352384,242.076031 46.8511644,241.919598 46.3643729,241.919598 C45.8731154,241.919598 45.4890414,242.076031 45.2121508,242.397834 C44.9441922,242.70176 44.8146789,243.095075 44.8146789,243.58225 C44.8146789,244.064956 44.9441922,244.458271 45.2121508,244.762197 C45.4890414,245.075062 45.8731154,245.235963 46.3643729,245.235963 Z M46.3643729,244.775605 C46.0338906,244.775605 45.7748639,244.663868 45.5962249,244.444863 C45.4220518,244.230327 45.3371982,243.944279 45.3371982,243.58225 C45.3371982,243.215752 45.4220518,242.929704 45.5962249,242.715168 C45.7793299,242.491694 46.0338906,242.379956 46.3643729,242.379956 C46.6948552,242.379956 46.9494159,242.482755 47.128055,242.69729 C47.3022281,242.911826 47.3915476,243.206813 47.3915476,243.58225 C47.3915476,243.957688 47.3022281,244.248205 47.128055,244.458271 C46.9494159,244.668338 46.6948552,244.775605 46.3643729,244.775605 Z M49.5932743,245.173391 L50.2185111,242.773272 L50.236375,242.773272 L50.8571458,245.173391 L51.4109269,245.173391 L52.3309182,241.982171 L51.7414092,241.982171 L51.1429683,244.409107 L51.1251044,244.409107 L50.4954016,241.982171 L49.9550184,241.982171 L49.3253157,244.409107 L49.3074518,244.409107 L48.7090108,241.982171 L48.1195019,241.982171 L49.0350272,245.173391 L49.5932743,245.173391 Z M55.0417662,245.173391 L55.0417662,244.726441 L53.1883858,244.726441 L53.1883858,243.76103 L54.8586612,243.76103 L54.8586612,243.314081 L53.1883858,243.314081 L53.1883858,242.429121 L54.9658446,242.429121 L54.9658446,241.982171 L52.6658665,241.982171 L52.6658665,245.173391 L55.0417662,245.173391 Z M56.055543,245.173391 L56.055543,243.872768 L56.8817488,243.872768 C57.0603878,243.872768 57.1988331,243.908524 57.2926186,243.988974 C57.3819382,244.064956 57.4355299,244.190102 57.4533938,244.364412 L57.4935876,244.757727 C57.5114515,244.936507 57.5561113,245.075062 57.6320329,245.173391 L58.199212,245.173391 C58.0920285,245.057184 58.0250389,244.900751 58.007175,244.704094 L57.9535832,244.190102 C57.9178554,243.877237 57.7615462,243.693988 57.4846557,243.631415 L57.4846557,243.622476 C57.6543628,243.577781 57.7928081,243.483922 57.8910596,243.340898 C57.9803791,243.211282 58.0250389,243.063789 58.0250389,242.898418 C58.0250389,242.594492 57.9223214,242.362078 57.7258184,242.201177 C57.5382474,242.053683 57.2792207,241.982171 56.9532044,241.982171 L55.5330237,241.982171 L55.5330237,245.173391 L56.055543,245.173391 Z M56.8817488,243.425818 L56.055543,243.425818 L56.055543,242.429121 L56.8817488,242.429121 C57.0961157,242.429121 57.2524249,242.464877 57.3506764,242.545328 C57.4489278,242.621309 57.4980536,242.746455 57.4980536,242.920765 C57.4980536,243.081667 57.4489278,243.206813 57.3506764,243.296203 C57.2434929,243.381123 57.0871837,243.425818 56.8817488,243.425818 Z" id="POWER" fill="#999999" fill-rule="nonzero"></path>
            <path d="M43.5890134,36.7459562 L43.5890134,35.4453333 L44.4152192,35.4453333 C44.5938583,35.4453333 44.7323036,35.4810892 44.8260891,35.5615401 C44.9154086,35.6375215 44.9690003,35.7626674 44.9868642,35.9369777 L45.027058,36.3302932 C45.0449219,36.509073 45.0895817,36.6476273 45.1655033,36.7459562 L45.7326824,36.7459562 C45.625499,36.6297493 45.5585093,36.473317 45.5406454,36.2766593 L45.4870537,35.7626674 C45.4513259,35.4498027 45.2950167,35.2665535 45.0181261,35.2039805 L45.0181261,35.1950415 C45.1878332,35.1503466 45.3262785,35.0564872 45.42453,34.9134634 C45.5138495,34.783848 45.5585093,34.6363547 45.5585093,34.4709834 C45.5585093,34.1670578 45.4557918,33.9346441 45.2592888,33.7737422 C45.0717178,33.6262489 44.8126911,33.554737 44.4866748,33.554737 L43.0664941,33.554737 L43.0664941,36.7459562 L43.5890134,36.7459562 Z M44.4152192,34.9983838 L43.5890134,34.9983838 L43.5890134,34.0016865 L44.4152192,34.0016865 C44.6295861,34.0016865 44.7858953,34.0374424 44.8841468,34.1178933 C44.9823983,34.1938747 45.031524,34.3190206 45.031524,34.4933309 C45.031524,34.6542327 44.9823983,34.7793785 44.8841468,34.8687684 C44.7769633,34.9536888 44.6206541,34.9983838 44.4152192,34.9983838 Z M48.5551799,36.7459562 L48.5551799,36.2990067 L46.7017994,36.2990067 L46.7017994,35.3335959 L48.3720748,35.3335959 L48.3720748,34.8866464 L46.7017994,34.8866464 L46.7017994,34.0016865 L48.4792583,34.0016865 L48.4792583,33.554737 L46.1792801,33.554737 L46.1792801,36.7459562 L48.5551799,36.7459562 Z M50.2254553,36.8085291 C50.6318592,36.8085291 50.9489436,36.7236087 51.1722424,36.5627069 C51.3955413,36.3973356 51.5071907,36.1693914 51.5071907,35.8833437 C51.5071907,35.5883571 51.3687454,35.3604129 51.0918548,35.1950415 C50.9668075,35.1235296 50.6899169,35.0162618 50.2567171,34.8821769 C49.9619626,34.7883175 49.7788576,34.7212751 49.7118679,34.6855192 C49.5600247,34.6050683 49.4885691,34.4933309 49.4885691,34.359246 C49.4885691,34.2072832 49.5510927,34.0955459 49.6850721,34.0285034 C49.7922555,33.9704 49.9440987,33.943583 50.1450677,33.943583 C50.3772985,33.943583 50.5559376,33.9838085 50.672053,34.0731984 C50.7881684,34.1581188 50.8730219,34.3011426 50.9176817,34.4978004 L51.435735,34.4978004 C51.4044732,34.1491798 51.2749599,33.8899491 51.051661,33.7245778 C50.8417601,33.5681455 50.5470056,33.4921641 50.1718636,33.4921641 C49.8279833,33.4921641 49.5466268,33.5681455 49.3233279,33.7245778 C49.0821652,33.8854796 48.9660498,34.1089543 48.9660498,34.3905325 C48.9660498,34.6721107 49.0866311,34.8866464 49.3322599,35.0341397 C49.4260454,35.0877737 49.6716741,35.1771636 50.0646801,35.3023094 C50.4174923,35.4095773 50.6229272,35.4810892 50.6854509,35.5123757 C50.8819539,35.6107046 50.9846714,35.7447894 50.9846714,35.9146302 C50.9846714,36.048715 50.9132157,36.1515134 50.7792364,36.2319643 C50.6452571,36.3079457 50.4576861,36.3481712 50.2254553,36.3481712 C49.9619626,36.3481712 49.7699256,36.2990067 49.6448783,36.2096168 C49.506433,36.1068185 49.4215794,35.9325082 49.3858516,35.6911555 L48.8677983,35.6911555 C48.8901282,36.0978795 49.0375054,36.3928661 49.305464,36.5805849 C49.5242969,36.7325477 49.8324493,36.8085291 50.2254553,36.8085291 Z M54.3296881,36.7459562 L54.3296881,36.2990067 L52.4763077,36.2990067 L52.4763077,35.3335959 L54.1465831,35.3335959 L54.1465831,34.8866464 L52.4763077,34.8866464 L52.4763077,34.0016865 L54.2537665,34.0016865 L54.2537665,33.554737 L51.9537884,33.554737 L51.9537884,36.7459562 L54.3296881,36.7459562 Z M56.1428748,36.7459562 L56.1428748,34.0016865 L57.1879134,34.0016865 L57.1879134,33.554737 L54.5753169,33.554737 L54.5753169,34.0016865 L55.6203555,34.0016865 L55.6203555,36.7459562 L56.1428748,36.7459562 Z" id="RESET" fill="#999999" fill-rule="nonzero"></path>
            <ellipse id="椭圆形备份-2" fill-opacity="0.7" fill="#999999" fill-rule="nonzero" cx="50.5626365" cy="41.4761714" rx="1.67474138" ry="1.6760605"></ellipse>
            <ellipse id="椭圆形备份-3" fill-opacity="0.7" fill="#999999" fill-rule="nonzero" cx="47.7714009" cy="232.584314" rx="5.58247126" ry="5.58686832"></ellipse>
            <path d="M49.463761,165.656831 L49.4643242,167.682831 L52.5261452,167.683002 L52.5263242,171.734831 L54.5677347,171.735343 L54.5683242,172.747831 L56.6093242,172.748429 L56.6093242,178.826942 L54.5683242,178.826831 L54.5677347,179.840027 L52.5263242,179.839831 L52.5261452,183.892369 L49.4643242,183.891831 L49.463761,185.91854 L44.3597872,185.91854 L44.3603242,183.891831 L42.3181977,183.892369 L42.3181977,167.683002 L44.3603242,167.682831 L44.3597872,165.656831 L49.463761,165.656831 Z M48.9873901,180.524189 L44.2236813,180.524189 L44.2236813,181.576745 L48.9873901,181.576745 L48.9873901,180.524189 Z M48.9873901,178.419076 L44.2236813,178.419076 L44.2236813,179.471632 L48.9873901,179.471632 L48.9873901,178.419076 Z M48.9873901,176.313963 L44.2236813,176.313963 L44.2236813,177.36652 L48.9873901,177.36652 L48.9873901,176.313963 Z M48.9873901,174.208851 L44.2236813,174.208851 L44.2236813,175.261407 L48.9873901,175.261407 L48.9873901,174.208851 Z M48.9873901,172.103738 L44.2236813,172.103738 L44.2236813,173.156294 L48.9873901,173.156294 L48.9873901,172.103738 Z M48.9873901,169.998625 L44.2236813,169.998625 L44.2236813,171.051182 L48.9873901,171.051182 L48.9873901,169.998625 Z" id="形状结合备份-2" fill-opacity="0.5" fill="#999999"></path>
            <path d="M49.463761,141.819526 L49.4643242,143.845526 L52.5261452,143.845697 L52.5263242,147.897526 L54.5677347,147.898039 L54.5683242,148.910526 L56.6093242,148.911124 L56.6093242,154.989637 L54.5683242,154.989526 L54.5677347,156.002722 L52.5263242,156.002526 L52.5261452,160.055064 L49.4643242,160.054526 L49.463761,162.081235 L44.3597872,162.081235 L44.3603242,160.054526 L42.3181977,160.055064 L42.3181977,143.845697 L44.3603242,143.845526 L44.3597872,141.819526 L49.463761,141.819526 Z M48.9873901,156.686884 L44.2236813,156.686884 L44.2236813,157.73944 L48.9873901,157.73944 L48.9873901,156.686884 Z M48.9873901,154.581771 L44.2236813,154.581771 L44.2236813,155.634327 L48.9873901,155.634327 L48.9873901,154.581771 Z M48.9873901,152.476659 L44.2236813,152.476659 L44.2236813,153.529215 L48.9873901,153.529215 L48.9873901,152.476659 Z M48.9873901,150.371546 L44.2236813,150.371546 L44.2236813,151.424102 L48.9873901,151.424102 L48.9873901,150.371546 Z M48.9873901,148.266433 L44.2236813,148.266433 L44.2236813,149.31899 L48.9873901,149.31899 L48.9873901,148.266433 Z M48.9873901,146.161321 L44.2236813,146.161321 L44.2236813,147.213877 L48.9873901,147.213877 L48.9873901,146.161321 Z" id="形状结合备份" fill-opacity="0.5" fill="#999999"></path>
            <path d="M49.463761,117.982221 L49.4643242,120.008221 L52.5261452,120.008392 L52.5263242,124.060221 L54.5677347,124.060734 L54.5683242,125.073221 L56.6093242,125.073819 L56.6093242,131.152332 L54.5683242,131.152221 L54.5677347,132.165417 L52.5263242,132.165221 L52.5261452,136.217759 L49.4643242,136.217221 L49.463761,138.24393 L44.3597872,138.24393 L44.3603242,136.217221 L42.3181977,136.217759 L42.3181977,120.008392 L44.3603242,120.008221 L44.3597872,117.982221 L49.463761,117.982221 Z M48.9873901,132.849579 L44.2236813,132.849579 L44.2236813,133.902135 L48.9873901,133.902135 L48.9873901,132.849579 Z M48.9873901,130.744466 L44.2236813,130.744466 L44.2236813,131.797023 L48.9873901,131.797023 L48.9873901,130.744466 Z M48.9873901,128.639354 L44.2236813,128.639354 L44.2236813,129.69191 L48.9873901,129.69191 L48.9873901,128.639354 Z M48.9873901,126.534241 L44.2236813,126.534241 L44.2236813,127.586797 L48.9873901,127.586797 L48.9873901,126.534241 Z M48.9873901,124.429128 L44.2236813,124.429128 L44.2236813,125.481685 L48.9873901,125.481685 L48.9873901,124.429128 Z M48.9873901,122.324016 L44.2236813,122.324016 L44.2236813,123.376572 L48.9873901,123.376572 L48.9873901,122.324016 Z" id="形状结合" fill-opacity="0.5" fill="#999999"></path>
            <path d="M49.463761,94.1449161 L49.4643242,96.1709161 L52.5261452,96.171087 L52.5263242,100.222916 L54.5677347,100.223429 L54.5683242,101.235916 L56.6093242,101.236514 L56.6093242,107.315027 L54.5683242,107.314916 L54.5677347,108.328112 L52.5263242,108.327916 L52.5261452,112.380454 L49.4643242,112.379916 L49.463761,114.406625 L44.3597872,114.406625 L44.3603242,112.379916 L42.3181977,112.380454 L42.3181977,96.171087 L44.3603242,96.1709161 L44.3597872,94.1449161 L49.463761,94.1449161 Z M48.9873901,109.012274 L44.2236813,109.012274 L44.2236813,110.06483 L48.9873901,110.06483 L48.9873901,109.012274 Z M48.9873901,106.907161 L44.2236813,106.907161 L44.2236813,107.959718 L48.9873901,107.959718 L48.9873901,106.907161 Z M48.9873901,104.802049 L44.2236813,104.802049 L44.2236813,105.854605 L48.9873901,105.854605 L48.9873901,104.802049 Z M48.9873901,102.696936 L44.2236813,102.696936 L44.2236813,103.749492 L48.9873901,103.749492 L48.9873901,102.696936 Z M48.9873901,100.591824 L44.2236813,100.591824 L44.2236813,101.64438 L48.9873901,101.64438 L48.9873901,100.591824 Z M48.9873901,98.4867109 L44.2236813,98.4867109 L44.2236813,99.5392672 L48.9873901,99.5392672 L48.9873901,98.4867109 Z" id="形状结合" fill-opacity="0.5" fill="#999999"></path>
            <path d="M49.463761,188.30227 L49.4643242,190.32827 L52.5261452,190.328441 L52.5263242,194.38027 L54.5677347,194.380783 L54.5683242,195.39327 L56.6093242,195.393868 L56.6093242,201.472381 L54.5683242,201.47227 L54.5677347,202.485467 L52.5263242,202.48527 L52.5261452,206.537808 L49.4643242,206.53727 L49.463761,208.563979 L44.3597872,208.563979 L44.3603242,206.53727 L42.3181977,206.537808 L42.3181977,190.328441 L44.3603242,190.32827 L44.3597872,188.30227 L49.463761,188.30227 Z M48.9873901,203.169628 L44.2236813,203.169628 L44.2236813,204.222185 L48.9873901,204.222185 L48.9873901,203.169628 Z M48.9873901,201.064516 L44.2236813,201.064516 L44.2236813,202.117072 L48.9873901,202.117072 L48.9873901,201.064516 Z M48.9873901,198.959403 L44.2236813,198.959403 L44.2236813,200.011959 L48.9873901,200.011959 L48.9873901,198.959403 Z M48.9873901,196.85429 L44.2236813,196.85429 L44.2236813,197.906847 L48.9873901,197.906847 L48.9873901,196.85429 Z M48.9873901,194.749178 L44.2236813,194.749178 L44.2236813,195.801734 L48.9873901,195.801734 L48.9873901,194.749178 Z M48.9873901,192.644065 L44.2236813,192.644065 L44.2236813,193.696621 L48.9873901,193.696621 L48.9873901,192.644065 Z" id="形状结合" fill-opacity="0.5" fill="#FF5B5B"></path>
            <polygon id="直线-15" fill="#999999" fill-rule="nonzero" points="39.4153127 187.703138 39.4153127 188.820512 37.1817287 188.81954 37.1817287 212.470914 38.9099215 212.471588 38.9099215 213.588962 36.0658299 213.588962 36.0658299 187.703138"></polygon>
            <polygon id="直线-15备份" fill="#999999" fill-rule="nonzero" points="63.9429489 187.703138 63.9429489 213.588962 61.6571044 213.588962 61.6571044 212.471588 62.8264547 212.470914 62.8264547 188.81954 60.5934662 188.820512 60.5934662 187.703138"></polygon>
            <polygon id="直线-15" fill="#999999" fill-rule="nonzero" transform="translate(39.136189, 136.825391) scale(1, -1) translate(-39.136189, -136.825391) " points="39.4153127 88.1823906 39.4153127 89.2997642 37.1817287 89.298792 37.1817287 184.350045 42.2065483 184.351017 42.2065483 185.468391 36.0658299 185.468391 36.0658299 88.1823906"></polygon>
            <polygon id="直线-15备份" fill="#999999" fill-rule="nonzero" transform="translate(61.151713, 136.825391) scale(1, -1) translate(-61.151713, -136.825391) " points="63.9429489 88.1823906 63.9429489 185.468391 58.3604776 185.468391 58.3604776 184.351017 62.8264547 184.350045 62.8264547 89.298792 60.5934662 89.2997642 60.5934662 88.1823906"></polygon>
            <path d="M78.629,0.001 L92.7649334,50.3506168 L98.6951817,71.392851 C99.5608653,74.4561884 100,77.6272095 100,80.8152301 L100,197.497609 C100,199.313676 99.8575976,201.126937 99.574107,202.92066 L90.2832319,261.706559 C89.7286707,265.215419 86.9958475,267.975529 83.4979733,268.559568 L74.9968425,269.979 C74.0214521,270.14186 73.1234302,269.413673 73.0791979,268.424022 L73.05,267.79883 L26.949,267.79883 L26.9208021,268.424022 C26.8786761,269.366547 26.0621378,270.071916 25.1418889,269.996272 L25.0031575,269.979 L16.5020267,268.559568 C13.0938416,267.990505 10.4119771,265.355533 9.76369922,261.97497 L9.71676811,261.706559 L0.425893006,202.92066 C0.182901024,201.383183 0.0435657416,199.831352 0.00871468077,198.275703 L0,197.497609 L0,80.8152301 C0,77.8549253 0.378641624,74.9092782 1.12584807,72.0508956 L1.30481832,71.392851 L7.23506659,50.3506168 L21.37,0.001 L24.802,0.001 L23.9204345,3.15587395 L4.47701656,72.2916475 C3.75408761,74.849829 3.36002081,77.4906322 3.30367283,80.1500959 L3.29662677,80.8153136 L3.29662677,197.497609 C3.29662677,198.905987 3.3912849,200.312501 3.57985245,201.707615 L3.68195854,202.404179 L12.9728336,261.190078 C13.2936869,263.220204 14.8298103,264.832597 16.8209206,265.259381 L17.0439888,265.301884 L23.7126364,266.414822 L23.8367004,263.923019 L23.874996,263.188051 L23.9139738,262.456844 L24.0766859,259.568674 L24.1190589,258.855555 L24.1621077,258.14591 L24.3410409,255.341103 L24.4345353,253.958291 L24.5307038,252.588028 L24.7310292,249.883611 L24.8351693,248.548689 L24.9419497,247.224778 L25.1633978,244.608455 L25.2780487,243.315273 L25.3953063,242.031566 L25.6376077,239.491039 L25.8902347,236.983798 L26.0144272,235.798 L26.1760938,234.359875 L27.6590111,222.166665 L28.1566299,218.007373 L28.6334104,213.838978 L28.9259423,211.036146 L29.0367308,209.809534 L29.0689353,209.397049 L29.1105029,208.720279 L29.1191096,208.461162 L29.1202031,116.141169 C29.1202031,113.436701 28.9015703,110.737171 28.4666852,108.069026 L28.3137174,107.180843 L24.570512,86.5557818 C23.9344287,83.0505778 23.6818961,79.4865911 23.8174602,75.9270958 C24.8050698,49.9801923 26.3595461,24.6711886 28.4809377,6.69513593e-05 L31.7899953,-6.88338275e-14 C29.6605235,24.7071546 28.101117,50.058364 27.1116914,76.0529767 C26.9958032,79.0958446 27.1840359,82.1422343 27.6731249,85.1466972 L27.8139696,85.9650225 L31.5571693,106.590052 C32.0719215,109.426337 32.3564448,112.299208 32.408202,115.180475 L32.4168299,116.141169 L32.4163761,208.425981 L32.4150229,208.505215 L32.4008687,208.878462 L32.3733314,209.337703 L32.3086928,210.175821 L32.2184693,211.176612 L32.0630668,212.732093 L31.9237075,214.040559 L31.5389414,217.454654 L30.9675195,222.274614 L29.9531432,230.578249 L29.37055,235.440105 L29.1692546,237.324677 L28.9294926,239.701382 L28.6990625,242.108248 L28.4780225,244.547951 L28.2664307,247.023162 L28.0643452,249.536557 L27.871824,252.090808 L27.6889253,254.688589 L27.5157072,257.332574 L27.473922,258.001103 L27.4327465,258.672728 L27.2741581,261.391032 L27.1253955,264.162223 C27.1196676,264.273671 27.1139632,264.385252 27.1082823,264.496966 L72.8917177,264.496966 C72.8860368,264.385252 72.8803324,264.273671 72.8746045,264.162223 L72.7258419,261.391032 L72.5672535,258.672728 C72.5400065,258.223936 72.5123526,257.777237 72.4842928,257.332574 L72.3110747,254.688589 L72.128176,252.090808 L71.9356548,249.536557 L71.7335693,247.023162 L71.5219775,244.547951 L71.3009375,242.108248 L71.0705074,239.701382 L70.8307454,237.324677 L70.62945,235.440105 L70.0468568,230.578249 L69.0324805,222.274614 L68.4610586,217.454654 L68.0762925,214.040559 L67.9369332,212.732093 L67.7815307,211.176612 L67.6913072,210.175821 L67.6266686,209.337703 L67.5991313,208.878462 L67.5849771,208.505215 L67.5836239,208.425981 L67.5831701,116.141169 C67.5831701,112.938075 67.8708839,109.74148 68.4428307,106.590052 L72.1860304,85.9650225 C72.7792266,82.6961525 73.0147321,79.372469 72.8883086,76.0529767 C71.8988967,50.0587226 70.3395196,24.707854 68.210226,0.000378731846 L71.5190623,6.69513594e-05 C73.6404539,24.6711886 75.1949302,49.9801923 76.1825398,75.9270958 C76.3181039,79.4865911 76.0655713,83.0505778 75.429488,86.5557818 L71.6862826,107.180843 C71.1497139,110.137337 70.8797969,113.136205 70.8797969,116.141169 L70.8808904,208.461162 L70.8894971,208.720279 L70.9310647,209.397049 L70.9632692,209.809534 L71.0740577,211.036146 L71.3665896,213.838978 L71.8433701,218.007373 L72.3409889,222.166665 L73.8239062,234.359875 L73.9855728,235.798 L74.1097653,236.983798 L74.3623923,239.491039 L74.6046937,242.031566 C74.6837324,242.884298 74.761039,243.74309 74.8366022,244.608455 L75.0580503,247.224778 C75.1301155,248.1038 75.2004261,248.989907 75.2689708,249.883611 L75.4692962,252.588028 C75.534298,253.497439 75.5975227,254.41496 75.6589591,255.341103 L75.8378923,258.14591 C75.8668166,258.61786 75.895291,259.092093 75.9233141,259.568674 L76.0860262,262.456844 C76.1122386,262.943072 76.1379968,263.431776 76.1632996,263.923019 L76.2873636,266.414822 L82.9560112,265.301884 C85.0547357,264.95146 86.6944296,263.295394 87.0271664,261.190078 L96.3180415,202.404179 C96.574533,200.781287 96.7033732,199.140717 96.7033732,197.497609 L96.7033732,80.8153136 C96.7033732,77.9313398 96.3061565,75.0630108 95.5229834,72.2916475 L76.0795655,3.15587395 L75.197,0.001 L78.629,0.001 Z" id="形状结合" fill-opacity="0.7" fill="#999999" fill-rule="nonzero"></path>
        </g>
        <g id="编组-3" transform="translate(41.000000, 27.000000)" fill="#999999">
            <g id="编组-2" transform="translate(15.000000, 20.121597)">
                <text id="RESET备份" font-family="PingFangSC-Semibold, PingFang SC" font-size="11.4285714" font-weight="500">
                    <tspan x="1.44571429" y="12">RESET</tspan>
                </text>
                <ellipse id="椭圆形备份-2" fill-opacity="0.5" cx="17.4285714" cy="24.5286995" rx="4.28571429" ry="4.34970302"></ellipse>
            </g>
            <path d="M34,0 C48.5527032,0 60.9699664,9.14290505 65.8210043,21.9979297 L83.5,24 L67.9394756,31.9543706 C67.9796349,32.6311099 68,33.3131767 68,34 C68,52.7776815 52.7776815,68 34,68 C15.2223185,68 0,52.7776815 0,34 C0,15.2223185 15.2223185,0 34,0 Z M34,2 C16.326888,2 2,16.326888 2,34 C2,51.673112 16.326888,66 34,66 C51.673112,66 66,51.673112 66,34 C66,33.5700243 65.9915311,33.1411169 65.9746386,32.7134338 L65.9429878,32.0728469 L65.8655765,30.7683602 L76.679,25.24 L64.3813695,23.8476809 L63.949805,22.704055 C59.2869689,10.3477566 47.4282538,2 34,2 Z" id="形状结合" fill-rule="nonzero" opacity="0.6"></path>
        </g>
        <path d="M146,248.498739 C146,257.612016 153.387984,265 162.498739,265 C171.612016,265 179,257.612016 179,248.498739 C179,239.387984 171.612016,232 162.498739,232 C153.387984,232 146,239.387984 146,248.498739" id="Fill-20备份-2" stroke="#F84343" stroke-width="2" stroke-linejoin="round"></path>
        <path d="M149,51.4987388 C149,60.6120156 156.387984,68 165.498739,68 C174.612016,68 182,60.6120156 182,51.4987388 C182,42.3879844 174.612016,35 165.498739,35 C156.387984,35 149,42.3879844 149,51.4987388" id="Fill-20备份-3" stroke="#F84343" stroke-width="2" stroke-linejoin="round"></path>
        <path d="M84.5,140.596923 L84.5,175.286024 L78.5357464,175.499361 L78.5357133,175.477751 C77.3146605,177.351521 75.0590573,178.596923 72.5,178.596923 C69.9513878,178.596923 67.7037577,177.361667 66.4792901,175.500663 L60.5,175.5 L60.5,140.596923 L84.5,140.596923 Z M72.5,159.596923 C69.713541,159.596923 67.5,161.564522 67.5,163.930276 L67.5,163.930276 L67.5,172.26357 C67.5,174.629324 69.713541,176.596923 72.5,176.596923 C75.286459,176.596923 77.5,174.629324 77.5,172.26357 L77.5,172.26357 L77.5,163.930276 C77.5,161.564522 75.286459,159.596923 72.5,159.596923 Z M82.499,142.596 L62.499,142.596 L62.499,173.5 L65.6326558,173.500659 C65.545652,173.101111 65.5,172.687538 65.5,172.26357 L65.5,172.26357 L65.5,163.930276 C65.5,160.404052 68.658008,157.596923 72.5,157.596923 C76.341992,157.596923 79.5,160.404052 79.5,163.930276 L79.5,163.930276 L79.5,172.26357 C79.5,172.676213 79.4567543,173.079009 79.3742275,173.468612 L82.499,173.356 L82.499,142.596 Z M77.67,147.773462 L77.67,151.424231 L76.2819231,151.424231 L76.2819231,147.773462 L77.67,147.773462 Z M69.3426923,147.773462 L69.3426923,151.424231 L67.9546154,151.424231 L67.9546154,147.773462 L69.3426923,147.773462 Z" id="形状结合" fill="#999999" fill-rule="nonzero"></path>
        <path d="M72.5,178.5 L72.5,225.5 C72.5,237.650264 82.3497355,247.5 94.5,247.5 L106,247.5 L106,247.5" id="直线" stroke="#979797" stroke-width="2" stroke-linecap="square"></path>
        <path d="M127.597346,224 C128.544423,224 129.320719,224.728942 129.395981,225.656573 L129.401962,225.804615 L129.400308,235.775 L129.997462,235.775115 C130.918231,235.775115 131.673426,236.485313 131.746644,237.386338 L131.752462,237.530115 L131.752462,252.077808 C131.752462,252.999673 131.043305,253.754923 130.141395,253.828143 L129.997462,253.833962 L129.780308,253.833 L129.780654,263.003462 C129.780654,263.665481 129.277649,264.209862 128.632921,264.275323 L128.502192,264.281923 L127.961308,264.281 L127.961846,271.001229 C127.961846,271.18581 127.690692,271.335385 127.354923,271.335385 L123.109923,271.335385 C122.775308,271.335385 122.504154,271.18581 122.504154,271.001229 L122.503308,264.281 L122.405269,264.281923 C121.74325,264.281923 121.198869,263.778918 121.133407,263.13419 L121.126808,263.003462 L121.126308,253.833 L120.862462,253.833962 C119.940596,253.833962 119.185346,253.124805 119.112126,252.221906 L119.106308,252.077808 L119.106308,237.530115 C119.106308,236.610442 119.815464,235.854261 120.718364,235.780942 L120.862462,235.775115 L121.510308,235.775 L121.511962,225.804615 C121.511962,224.857538 122.240904,224.081242 123.169524,224.00598 L123.317731,224 L127.597346,224 Z M128.473308,253.833 L122.404308,253.833 L122.407308,254.803 L124.273115,254.803769 C124.584654,254.803769 124.836192,255.054154 124.836192,255.365692 C124.836192,255.677231 124.584654,255.927615 124.273115,255.927615 L122.411308,255.927 L122.416191,257.36266 C122.432737,257.361205 122.449492,257.360462 122.466423,257.360462 L124.357577,257.360462 C124.667962,257.360462 124.9195,257.612 124.9195,257.923538 C124.9195,258.233923 124.667962,258.485462 124.357577,258.485462 L122.466423,258.485462 L122.419308,258.481 L122.424149,259.919855 C122.438103,259.91883 122.452201,259.918308 122.466423,259.918308 L124.357577,259.918308 C124.667962,259.918308 124.9195,260.168692 124.9195,260.480231 C124.9195,260.791769 124.667962,261.043308 124.357577,261.043308 L122.466423,261.043308 L122.428308,261.04 L122.435269,263.003462 L128.502192,262.973462 L128.495308,261.043 L126.615885,261.043308 C126.304346,261.043308 126.052808,260.791769 126.052808,260.480231 C126.052808,260.168692 126.304346,259.918308 126.615885,259.918308 L128.491308,259.918 L128.487308,258.485 L126.615885,258.485462 C126.304346,258.485462 126.052808,258.233923 126.052808,257.923538 C126.052808,257.612 126.304346,257.360462 126.615885,257.360462 L128.484308,257.36 L128.480308,255.927 L126.760115,255.927615 C126.448577,255.927615 126.197038,255.677231 126.197038,255.365692 C126.197038,255.054154 126.448577,254.803769 126.760115,254.803769 L128.476308,254.803 L128.473308,253.833 Z M129.997462,237.410115 L120.862462,237.410115 C120.808923,237.410115 120.763508,237.444823 120.747483,237.49238 L120.741308,237.530115 L120.741308,252.077808 C120.741308,252.131346 120.776015,252.176023 120.824163,252.191752 L120.862462,252.197808 L129.997462,252.197808 C130.051,252.197808 130.095677,252.163838 130.111406,252.115986 L130.117462,252.077808 L130.117462,237.530115 C130.117462,237.464346 130.064385,237.410115 129.997462,237.410115 Z M127.597346,225.635 L123.317731,225.635 C123.242038,225.635 123.178162,225.683738 123.155638,225.751086 L123.146962,225.804615 L123.145308,235.775 L127.765308,235.775 L127.766962,225.804615 C127.766962,225.729846 127.718223,225.666154 127.650875,225.643668 L127.597346,225.635 Z" id="形状结合" fill="#999999" fill-rule="nonzero" transform="translate(125.429385, 247.667692) rotate(-270.000000) translate(-125.429385, -247.667692) "></path>
    </g>
</svg>