<?xml version="1.0" encoding="UTF-8"?>
<svg width="300px" height="300px" viewBox="0 0 300 300" version="1.1" xmlns="http://www.w3.org/2000/svg" xmlns:xlink="http://www.w3.org/1999/xlink">
    <title>img/M6s/img_m6a_lantolan</title>
    <defs>
        <path d="M9.26771367,25.0094866 C9.53630151,25.0094866 9.75742526,25.2131585 9.7857147,25.4748072 L9.7887722,25.5317091 L9.7887722,52.6872782 C9.7887722,52.9756938 9.55548635,53.2095007 9.26771367,53.2095007 C8.99912584,53.2095007 8.77800209,53.0058289 8.74971264,52.7441801 L8.74665514,52.6872782 L8.74665514,25.5317091 C8.74665514,25.2432936 8.97994099,25.0094866 9.26771367,25.0094866 Z" id="path-1"></path>
        <filter x="-575.8%" y="-21.3%" width="1251.5%" height="142.6%" filterUnits="objectBoundingBox" id="filter-2">
            <feOffset dx="0" dy="0" in="SourceAlpha" result="shadowOffsetOuter1"></feOffset>
            <feGaussianBlur stdDeviation="2" in="shadowOffsetOuter1" result="shadowBlurOuter1"></feGaussianBlur>
            <feColorMatrix values="0 0 0 0 1   0 0 0 0 1   0 0 0 0 1  0 0 0 0.975914695 0" type="matrix" in="shadowBlurOuter1"></feColorMatrix>
        </filter>
        <filter x="-100.0%" y="-47.3%" width="300.0%" height="194.6%" filterUnits="objectBoundingBox" id="filter-3">
            <feGaussianBlur stdDeviation="6" in="SourceGraphic"></feGaussianBlur>
        </filter>
    </defs>
    <g id="img/M6s/img_m6a_lantolan" stroke="none" stroke-width="1" fill="none" fill-rule="evenodd">
        <g id="编组-2" transform="translate(15.000000, 20.000000)">
            <path d="M45.7551078,85.7710048 L38.2522664,85.7710048 C35.9255192,85.7710048 34.039318,87.6516662 34.039318,89.9715795 L34.039318,97.4369946 C34.039318,99.7569079 35.9255192,101.637569 38.2522664,101.637569 L45.7551078,101.637569 C48.081855,101.637569 49.9680562,99.7569079 49.9680562,97.4369946 L49.9680562,89.9715795 C49.9680562,87.6516662 48.081855,85.7710048 45.7551078,85.7710048 Z M38.2522664,86.6913492 L45.7551078,86.6913492 C47.5720655,86.6913492 49.0450007,88.1599584 49.0450007,89.9715795 L49.0450007,97.4369946 C49.0450007,99.2486158 47.5720655,100.717225 45.7551078,100.717225 L38.2522664,100.717225 C36.4353087,100.717225 34.9623735,99.2486158 34.9623735,97.4369946 L34.9623735,89.9715795 C34.9623735,88.1599584 36.4353087,86.6913492 38.2522664,86.6913492 Z" id="矩形备份-9" fill-opacity="0.7" fill="#999999" fill-rule="nonzero"></path>
            <path d="M34.6021341,82.7960374 C34.8909935,82.7960374 35.1385873,82.7138332 35.3449154,82.5494248 C35.5662492,82.3738067 35.7050518,82.1309306 35.7650745,81.81706 L35.3374125,81.81706 C35.2848927,82.018834 35.1948586,82.1720327 35.0673103,82.2729197 C34.9472648,82.362597 34.7897051,82.4111723 34.5983827,82.4111723 C34.3057719,82.4111723 34.0881895,82.3177584 33.9493869,82.1384037 C33.8218386,81.9702588 33.7580644,81.7273827 33.7580644,81.4135121 C33.7580644,81.1071146 33.8218386,80.867975 33.9531383,80.6960935 C34.0956923,80.5017926 34.3057719,80.4083788 34.5871284,80.4083788 C34.7746994,80.4083788 34.9285077,80.4457443 35.0485532,80.5279485 C35.17235,80.6101527 35.2548813,80.7371956 35.2998983,80.9128137 L35.7275603,80.9128137 C35.6862947,80.6437817 35.5700006,80.4270615 35.3749268,80.2701262 C35.17235,80.1057178 34.9097506,80.0235136 34.5946313,80.0235136 C34.1669693,80.0235136 33.8405957,80.1617661 33.6155105,80.4457443 C33.4166852,80.692357 33.3191482,81.0174372 33.3191482,81.4135121 C33.3191482,81.81706 33.4129337,82.1384037 33.6042562,82.3775433 C33.8218386,82.6540483 34.155715,82.7960374 34.6021341,82.7960374 Z M37.3669311,82.7960374 C37.775836,82.7960374 38.0984582,82.665258 38.3347977,82.4036992 C38.5598829,82.15335 38.6724255,81.8245331 38.6724255,81.4135121 C38.6724255,81.002491 38.5598829,80.6699376 38.3347977,80.4195884 C38.0984582,80.154293 37.775836,80.0235136 37.3669311,80.0235136 C36.9542749,80.0235136 36.6316527,80.154293 36.3990646,80.423325 C36.1739794,80.6774107 36.0651882,81.0062276 36.0651882,81.4135121 C36.0651882,81.81706 36.1739794,82.1458769 36.3990646,82.3999626 C36.6316527,82.6615215 36.9542749,82.7960374 37.3669311,82.7960374 Z M37.3669311,82.4111723 C37.089326,82.4111723 36.8717436,82.3177584 36.7216868,82.1346672 C36.5753814,81.9553126 36.5041044,81.716173 36.5041044,81.4135121 C36.5041044,81.1071146 36.5753814,80.867975 36.7216868,80.6886204 C36.875495,80.5017926 37.089326,80.4083788 37.3669311,80.4083788 C37.6445363,80.4083788 37.8583672,80.4943195 38.0084241,80.6736742 C38.1547295,80.8530288 38.2297579,81.0996415 38.2297579,81.4135121 C38.2297579,81.7273827 38.1547295,81.9702588 38.0084241,82.1458769 C37.8583672,82.3214949 37.6445363,82.4111723 37.3669311,82.4111723 Z M39.523998,82.7437257 L39.523998,80.7932439 L39.5390037,80.7932439 L40.8782609,82.7437257 L41.3059229,82.7437257 L41.3059229,80.0758254 L40.8632552,80.0758254 L40.8632552,82.0001512 L40.8482495,82.0001512 L39.523998,80.0758254 L39.0850818,80.0758254 L39.0850818,82.7437257 L39.523998,82.7437257 Z M42.270038,82.7437257 L42.270038,80.7932439 L42.2850437,80.7932439 L43.6243008,82.7437257 L44.0519628,82.7437257 L44.0519628,80.0758254 L43.6092952,80.0758254 L43.6092952,82.0001512 L43.5942895,82.0001512 L42.270038,80.0758254 L41.8311218,80.0758254 L41.8311218,82.7437257 L42.270038,82.7437257 Z M46.5729175,82.7437257 L46.5729175,82.3700702 L45.0160779,82.3700702 L45.0160779,81.5629743 L46.4191093,81.5629743 L46.4191093,81.1893188 L45.0160779,81.1893188 L45.0160779,80.4494809 L46.5091434,80.4494809 L46.5091434,80.0758254 L44.5771617,80.0758254 L44.5771617,82.7437257 L46.5729175,82.7437257 Z M48.156017,82.7960374 C48.4448764,82.7960374 48.6924702,82.7138332 48.8987983,82.5494248 C49.1201322,82.3738067 49.2589347,82.1309306 49.3189575,81.81706 L48.8912955,81.81706 C48.8387756,82.018834 48.7487415,82.1720327 48.6211932,82.2729197 C48.5011477,82.362597 48.3435881,82.4111723 48.1522656,82.4111723 C47.8596548,82.4111723 47.6420724,82.3177584 47.5032698,82.1384037 C47.3757215,81.9702588 47.3119474,81.7273827 47.3119474,81.4135121 C47.3119474,81.1071146 47.3757215,80.867975 47.5070213,80.6960935 C47.6495752,80.5017926 47.8596548,80.4083788 48.1410114,80.4083788 C48.3285824,80.4083788 48.4823906,80.4457443 48.6024361,80.5279485 C48.726233,80.6101527 48.8087642,80.7371956 48.8537813,80.9128137 L49.2814432,80.9128137 C49.2401776,80.6437817 49.1238836,80.4270615 48.9288097,80.2701262 C48.726233,80.1057178 48.4636335,80.0235136 48.1485142,80.0235136 C47.7208522,80.0235136 47.3944786,80.1617661 47.1693934,80.4457443 C46.9705681,80.692357 46.8730312,81.0174372 46.8730312,81.4135121 C46.8730312,81.81706 46.9668167,82.1384037 47.1581391,82.3775433 C47.3757215,82.6540483 47.709598,82.7960374 48.156017,82.7960374 Z M50.8420342,82.7437257 L50.8420342,80.4494809 L51.7198667,80.4494809 L51.7198667,80.0758254 L49.5252856,80.0758254 L49.5252856,80.4494809 L50.403118,80.4494809 L50.403118,82.7437257 L50.8420342,82.7437257 Z" id="CONNECT" fill="#999999" fill-rule="nonzero"></path>
            <path d="M43.5412167,214.021359 L44.0664155,212.014829 L44.0814212,212.014829 L44.6028687,214.021359 L45.0680449,214.021359 L45.8408375,211.353458 L45.34565,211.353458 L44.8429596,213.382408 L44.8279539,213.382408 L44.2990036,211.353458 L43.8450817,211.353458 L43.3161314,213.382408 L43.3011257,213.382408 L42.7984354,211.353458 L42.3032478,211.353458 L43.0722891,214.021359 L43.5412167,214.021359 Z M46.3285222,214.021359 L46.5723646,213.352515 L47.6940394,213.352515 L47.9378817,214.021359 L48.4068093,214.021359 L47.3826714,211.353458 L46.8837325,211.353458 L45.8595946,214.021359 L46.3285222,214.021359 Z M47.5627396,212.993806 L46.7036643,212.993806 L47.1275748,211.824264 L47.1425805,211.824264 L47.5627396,212.993806 Z M49.108325,214.021359 L49.108325,212.070877 L49.1233306,212.070877 L50.4625878,214.021359 L50.8902498,214.021359 L50.8902498,211.353458 L50.4475821,211.353458 L50.4475821,213.277784 L50.4325765,213.277784 L49.108325,211.353458 L48.6694087,211.353458 L48.6694087,214.021359 L49.108325,214.021359 Z M34.3336854,211.221443 C34.0345997,211.221443 33.7906087,211.314469 33.6095831,211.507965 C33.4324929,211.686576 33.3419801,211.924725 33.3380448,212.22241 L33.7669966,212.22241 C33.7748673,212.006588 33.8220914,211.846582 33.9165395,211.73495 C34.0070523,211.619597 34.1408538,211.563781 34.317944,211.563781 C34.4832282,211.563781 34.6130944,211.600992 34.6996719,211.675413 C34.7862493,211.749834 34.829538,211.861466 34.829538,212.010309 C34.829538,212.166594 34.7626373,212.311716 34.6367064,212.445674 C34.5579997,212.523817 34.4241982,212.624286 34.2353019,212.750802 C33.9165395,212.959182 33.7040312,213.119188 33.6017124,213.234541 C33.4128162,213.435479 33.3223034,213.666185 33.3223034,213.930381 L35.2584899,213.930381 L35.2584899,213.573158 L33.8535741,213.573158 C33.9126042,213.428037 34.0936297,213.260588 34.3966508,213.070814 C34.6760598,212.892203 34.8688914,212.750802 34.9790809,212.642891 C35.1601065,212.453116 35.2545546,212.244737 35.2545546,212.01403 C35.2545546,211.779603 35.1679771,211.589828 34.9987576,211.440986 C34.8256027,211.292143 34.6012884,211.221443 34.3336854,211.221443 Z M36.0062042,213.398268 C35.9196268,213.398268 35.852726,213.424315 35.8015666,213.47641 C35.7425365,213.528505 35.7149892,213.595485 35.7149892,213.677348 C35.7149892,213.75177 35.7425365,213.818749 35.8015666,213.874565 C35.852726,213.922939 35.9196268,213.948986 36.0062042,213.948986 C36.084911,213.948986 36.1557471,213.922939 36.2147772,213.874565 C36.2698719,213.818749 36.3013546,213.75177 36.3013546,213.677348 C36.3013546,213.595485 36.2698719,213.528505 36.2147772,213.47641 C36.1557471,213.424315 36.084911,213.398268 36.0062042,213.398268 Z M36.9152674,211.273538 L36.7617892,212.761965 L37.1631937,212.761965 C37.2182885,212.665217 37.2930599,212.594517 37.3953787,212.549864 C37.4898268,212.505211 37.596081,212.486606 37.7220118,212.486606 C37.910908,212.486606 38.0525802,212.538701 38.154899,212.642891 C38.2572178,212.747081 38.3083772,212.892203 38.3083772,213.078256 C38.3083772,213.249425 38.2493471,213.383384 38.131287,213.487574 C38.0132268,213.588043 37.8676193,213.640137 37.6944644,213.640137 C37.5370509,213.640137 37.41112,213.606648 37.3166719,213.539669 C37.2104178,213.465247 37.1474524,213.349894 37.131711,213.201051 L36.7106298,213.201051 C36.7303065,213.446642 36.840496,213.643859 37.0411982,213.785259 C37.2222238,213.915497 37.4386674,213.982476 37.6905291,213.982476 C37.9699381,213.982476 38.2099937,213.904333 38.410696,213.748048 C38.6232043,213.573158 38.7333938,213.349894 38.7333938,213.074535 C38.7333938,212.788013 38.6468163,212.564749 38.4815321,212.401021 C38.3162479,212.237294 38.0998043,212.155431 37.8361366,212.155431 C37.7102058,212.155431 37.5921456,212.174036 37.4898268,212.214968 C37.375702,212.252179 37.2773185,212.311716 37.1907411,212.3973 L37.1789351,212.3973 L37.2615772,211.63076 L38.6074629,211.63076 L38.6074629,211.273538 L36.9152674,211.273538 Z M40.3941066,211.221443 C39.980896,211.221443 39.6503276,211.355401 39.4063366,211.63076 C39.1741517,211.887514 39.0600269,212.214968 39.0600269,212.613122 C39.0600269,213.007556 39.1741517,213.331289 39.4063366,213.5806 C39.654263,213.848517 40.0005727,213.982476 40.4492013,213.982476 C40.6931923,213.982476 40.9175066,213.952707 41.1221442,213.89317 C41.3149758,213.833633 41.4841953,213.75177 41.6298029,213.643859 L41.6298029,212.527538 L40.4255893,212.527538 L40.4255893,212.873597 L41.200851,212.873597 L41.200851,213.450363 C41.1064028,213.506179 41.004084,213.550832 40.8860239,213.5806 C40.7640284,213.610369 40.6341622,213.628974 40.4964254,213.628974 C40.1461803,213.628974 39.8864479,213.535948 39.7211637,213.349894 C39.5637502,213.178725 39.4889787,212.933134 39.4889787,212.613122 C39.4889787,212.285668 39.5716209,212.028915 39.7447757,211.842861 C39.9061246,211.66425 40.1225682,211.578665 40.3941066,211.578665 C40.6144855,211.578665 40.7955111,211.623318 40.9293126,211.716345 C41.0631141,211.80565 41.1496916,211.939609 41.189045,212.11822 L41.6219322,212.11822 C41.5707728,211.820535 41.444842,211.600992 41.2441397,211.452149 C41.0355668,211.295864 40.7522224,211.221443 40.3941066,211.221443 Z" id="形状结合" fill="#999999" fill-rule="nonzero"></path>
            <path d="M40.5592385,109.646922 L40.5592385,109.273266 L39.1111901,109.273266 L39.1111901,106.979022 L38.6760253,106.979022 L38.6760253,109.646922 L40.5592385,109.646922 Z M41.1031945,109.646922 L41.3470368,108.978078 L42.4687116,108.978078 L42.7125539,109.646922 L43.1814815,109.646922 L42.1573437,106.979022 L41.6584047,106.979022 L40.6342669,109.646922 L41.1031945,109.646922 Z M42.3374119,108.619369 L41.4783365,108.619369 L41.9022471,107.449827 L41.9172527,107.449827 L42.3374119,108.619369 Z M43.8829972,109.646922 L43.8829972,107.69644 L43.8980029,107.69644 L45.2372601,109.646922 L45.664922,109.646922 L45.664922,106.979022 L45.2222544,106.979022 L45.2222544,108.903347 L45.2072487,108.903347 L43.8829972,106.979022 L43.444081,106.979022 L43.444081,109.646922 L43.8829972,109.646922 Z" id="LAN" fill="#999999" fill-rule="nonzero"></path>
            <path d="M35.7386086,239.243105 L35.7386086,238.219289 L36.40261,238.219289 C37.0553572,238.219289 37.3817308,237.942784 37.3817308,237.39351 C37.3817308,236.847973 37.0553572,236.575205 36.4101129,236.575205 L35.2996923,236.575205 L35.2996923,239.243105 L35.7386086,239.243105 Z M36.3763501,237.845634 L35.7386086,237.845634 L35.7386086,236.94886 L36.3763501,236.94886 C36.5676725,236.94886 36.7102265,236.982489 36.8002606,237.053484 C36.8902947,237.120742 36.9390632,237.232839 36.9390632,237.39351 C36.9390632,237.554182 36.8940461,237.670015 36.804012,237.74101 C36.7139779,237.808268 36.5714239,237.845634 36.3763501,237.845634 Z M38.9460732,239.295417 C39.3549781,239.295417 39.6776003,239.164637 39.9139398,238.903079 C40.139025,238.652729 40.2515676,238.323913 40.2515676,237.912892 C40.2515676,237.50187 40.139025,237.169317 39.9139398,236.918968 C39.6776003,236.653673 39.3549781,236.522893 38.9460732,236.522893 C38.533417,236.522893 38.2107948,236.653673 37.9782067,236.922704 C37.7531215,237.17679 37.6443303,237.505607 37.6443303,237.912892 C37.6443303,238.316439 37.7531215,238.645256 37.9782067,238.899342 C38.2107948,239.160901 38.533417,239.295417 38.9460732,239.295417 Z M38.9460732,238.910552 C38.6684681,238.910552 38.4508857,238.817138 38.3008289,238.634047 C38.1545235,238.454692 38.0832465,238.215552 38.0832465,237.912892 C38.0832465,237.606494 38.1545235,237.367355 38.3008289,237.188 C38.4546371,237.001172 38.6684681,236.907758 38.9460732,236.907758 C39.2236784,236.907758 39.4375094,236.993699 39.5875662,237.173054 C39.7338716,237.352408 39.8089,237.599021 39.8089,237.912892 C39.8089,238.226762 39.7338716,238.469638 39.5875662,238.645256 C39.4375094,238.820874 39.2236784,238.910552 38.9460732,238.910552 Z M41.6583504,239.243105 L42.1835493,237.236575 L42.198555,237.236575 L42.7200025,239.243105 L43.1851786,239.243105 L43.9579713,236.575205 L43.4627838,236.575205 L42.9600934,238.604154 L42.9450877,238.604154 L42.4161374,236.575205 L41.9622155,236.575205 L41.4332652,238.604154 L41.4182595,238.604154 L40.9155691,236.575205 L40.4203816,236.575205 L41.1894228,239.243105 L41.6583504,239.243105 Z M46.2350836,239.243105 L46.2350836,238.86945 L44.6782441,238.86945 L44.6782441,238.062354 L46.0812754,238.062354 L46.0812754,237.688698 L44.6782441,237.688698 L44.6782441,236.94886 L46.1713095,236.94886 L46.1713095,236.575205 L44.2393278,236.575205 L44.2393278,239.243105 L46.2350836,239.243105 Z M47.0866561,239.243105 L47.0866561,238.155768 L47.780669,238.155768 C47.9307258,238.155768 48.0470198,238.18566 48.1257997,238.252918 C48.2008281,238.316439 48.2458451,238.421063 48.2608508,238.566789 L48.2946136,238.895606 C48.3096193,239.045068 48.3471335,239.160901 48.4109076,239.243105 L48.8873381,239.243105 C48.797304,239.145955 48.7410327,239.015175 48.726027,238.850767 L48.6810099,238.421063 C48.6509986,238.159504 48.5196988,238.006305 48.2871108,237.953994 L48.2871108,237.946521 C48.4296647,237.909155 48.5459588,237.830687 48.62849,237.711118 C48.7035185,237.602757 48.7410327,237.479451 48.7410327,237.341199 C48.7410327,237.087113 48.65475,236.892812 48.4896875,236.758296 C48.3321278,236.63499 48.1145454,236.575205 47.8406917,236.575205 L46.6477399,236.575205 L46.6477399,239.243105 L47.0866561,239.243105 Z M47.780669,237.782112 L47.0866561,237.782112 L47.0866561,236.94886 L47.780669,236.94886 C47.9607372,236.94886 48.0920369,236.978753 48.1745681,237.046011 C48.2570994,237.109532 48.298365,237.214156 48.298365,237.359881 C48.298365,237.494397 48.2570994,237.599021 48.1745681,237.673752 C48.084534,237.744747 47.9532343,237.782112 47.780669,237.782112 Z" id="POWER" fill="#999999" fill-rule="nonzero"></path>
            <path d="M36.6147713,64.9950893 L36.6147713,63.9077518 L37.3087841,63.9077518 C37.4588409,63.9077518 37.575135,63.9376442 37.6539148,64.0049022 C37.7289432,64.0684237 37.7739603,64.1730472 37.788966,64.3187729 L37.8227288,64.6475897 C37.8377344,64.7970519 37.8752486,64.9128851 37.9390228,64.9950893 L38.4154532,64.9950893 C38.3254191,64.8979389 38.2691478,64.7671595 38.2541421,64.602751 L38.2091251,64.1730472 C38.1791137,63.9114884 38.047814,63.7582896 37.8152259,63.7059778 L37.8152259,63.6985047 C37.9577799,63.6611392 38.0740739,63.5826715 38.1566052,63.4631018 C38.2316336,63.3547417 38.2691478,63.2314353 38.2691478,63.0931828 C38.2691478,62.8390971 38.1828651,62.6447962 38.0178026,62.5102802 C37.860243,62.3869739 37.6426606,62.327189 37.3688068,62.327189 L36.1758551,62.327189 L36.1758551,64.9950893 L36.6147713,64.9950893 Z M37.3087841,63.5340963 L36.6147713,63.5340963 L36.6147713,62.7008445 L37.3087841,62.7008445 C37.4888523,62.7008445 37.620152,62.730737 37.7026833,62.797995 C37.7852145,62.8615164 37.8264802,62.9661399 37.8264802,63.1118656 C37.8264802,63.2463816 37.7852145,63.3510051 37.7026833,63.4257362 C37.6126492,63.4967307 37.4813495,63.5340963 37.3087841,63.5340963 Z M40.7863511,64.9950893 L40.7863511,64.6214338 L39.2295115,64.6214338 L39.2295115,63.8143379 L40.6325428,63.8143379 L40.6325428,63.4406824 L39.2295115,63.4406824 L39.2295115,62.7008445 L40.7225769,62.7008445 L40.7225769,62.327189 L38.7905953,62.327189 L38.7905953,64.9950893 L40.7863511,64.9950893 Z M42.1893824,65.0474011 C42.5307617,65.0474011 42.7971126,64.9764065 42.9846836,64.8418906 C43.1722547,64.703638 43.2660402,64.5130737 43.2660402,64.2739342 C43.2660402,64.0273216 43.1497461,63.8367573 42.917158,63.6985047 C42.8121183,63.6387198 42.5795302,63.5490425 42.2156424,63.4369459 C41.9680486,63.3584782 41.8142404,63.3024299 41.7579691,63.2725374 C41.6304208,63.2052795 41.570398,63.1118656 41.570398,62.9997689 C41.570398,62.8727261 41.6229179,62.7793122 41.7354605,62.7232639 C41.8254946,62.6746886 41.9530429,62.6522693 42.1218569,62.6522693 C42.3169307,62.6522693 42.4669876,62.6858983 42.5645245,62.7606294 C42.6620614,62.831624 42.7333384,62.9511937 42.7708526,63.1156021 L43.2060174,63.1156021 C43.1797575,62.8241508 43.0709663,62.6074307 42.8833953,62.4691781 C42.7070785,62.3383987 42.4594847,62.2748773 42.1443654,62.2748773 C41.855506,62.2748773 41.6191665,62.3383987 41.4315955,62.4691781 C41.2290187,62.6036941 41.1314818,62.7905218 41.1314818,63.0259248 C41.1314818,63.2613278 41.2327702,63.4406824 41.4390983,63.5639887 C41.5178781,63.6088274 41.7242063,63.6835585 42.0543313,63.788182 C42.3506935,63.8778594 42.5232589,63.9376442 42.5757788,63.9638001 C42.7408413,64.0460043 42.827124,64.158101 42.827124,64.3000901 C42.827124,64.4121867 42.7671012,64.4981275 42.6545586,64.5653855 C42.542016,64.6289069 42.3844563,64.6625359 42.1893824,64.6625359 C41.9680486,64.6625359 41.8067375,64.6214338 41.7016977,64.5467027 C41.5854037,64.4607619 41.5141267,64.3150363 41.4841153,64.1132623 L41.0489505,64.1132623 C41.0677076,64.4532888 41.1915045,64.6999015 41.4165898,64.8568368 C41.6004094,64.9838796 41.8592574,65.0474011 42.1893824,65.0474011 Z M45.636938,64.9950893 L45.636938,64.6214338 L44.0800985,64.6214338 L44.0800985,63.8143379 L45.4831298,63.8143379 L45.4831298,63.4406824 L44.0800985,63.4406824 L44.0800985,62.7008445 L45.5731639,62.7008445 L45.5731639,62.327189 L43.6411822,62.327189 L43.6411822,64.9950893 L45.636938,64.9950893 Z M47.1600148,64.9950893 L47.1600148,62.7008445 L48.0378473,62.7008445 L48.0378473,62.327189 L45.8432662,62.327189 L45.8432662,62.7008445 L46.7210986,62.7008445 L46.7210986,64.9950893 L47.1600148,64.9950893 Z" id="RESET" fill="#999999" fill-rule="nonzero"></path>
            <ellipse id="椭圆形备份-2" fill-opacity="0.5" fill="#999999" cx="42.4726147" cy="68.94961" rx="1.40678276" ry="1.40120813"></ellipse>
            <ellipse id="椭圆形备份-3" fill-opacity="0.5" fill="#999999" cx="40.1279768" cy="228.718475" rx="4.68927586" ry="4.67069378"></ellipse>
            <path d="M41.5495592,172.766238 L41.5498323,174.459238 L44.121962,174.460143 L44.1228323,177.847238 L45.8368971,177.847953 L45.8378323,178.694238 L47.5518323,178.694906 L47.5518323,183.77662 L45.8378323,183.776238 L45.8368971,184.623573 L44.1228323,184.623238 L44.121962,188.011383 L41.5498323,188.011238 L41.5495592,189.705288 L37.2622213,189.705288 L37.2628323,188.011238 L35.5472861,188.011383 L35.5472861,174.460143 L37.2628323,174.459238 L37.2622213,172.766238 L41.5495592,172.766238 Z M41.1494077,185.195541 L37.1478923,185.195541 L37.1478923,186.075491 L41.1494077,186.075491 L41.1494077,185.195541 Z M41.1494077,183.43564 L37.1478923,183.43564 L37.1478923,184.31559 L41.1494077,184.31559 L41.1494077,183.43564 Z M41.1494077,181.675738 L37.1478923,181.675738 L37.1478923,182.555689 L41.1494077,182.555689 L41.1494077,181.675738 Z M41.1494077,179.915837 L37.1478923,179.915837 L37.1478923,180.795788 L41.1494077,180.795788 L41.1494077,179.915837 Z M41.1494077,178.155936 L37.1478923,178.155936 L37.1478923,179.035887 L41.1494077,179.035887 L41.1494077,178.155936 Z M41.1494077,176.396035 L37.1478923,176.396035 L37.1478923,177.275985 L41.1494077,177.275985 L41.1494077,176.396035 Z" id="形状结合备份-2" fill-opacity="0.5" fill="#999999"></path>
            <path d="M41.5495592,152.837945 L41.5498323,154.530945 L44.121962,154.53185 L44.1228323,157.918945 L45.8368971,157.91966 L45.8378323,158.765945 L47.5518323,158.766612 L47.5518323,163.848327 L45.8378323,163.847945 L45.8368971,164.69528 L44.1228323,164.694945 L44.121962,168.083089 L41.5498323,168.082945 L41.5495592,169.776994 L37.2622213,169.776994 L37.2628323,168.082945 L35.5472861,168.083089 L35.5472861,154.53185 L37.2628323,154.530945 L37.2622213,152.837945 L41.5495592,152.837945 Z M41.1494077,165.267247 L37.1478923,165.267247 L37.1478923,166.147198 L41.1494077,166.147198 L41.1494077,165.267247 Z M41.1494077,163.507346 L37.1478923,163.507346 L37.1478923,164.387297 L41.1494077,164.387297 L41.1494077,163.507346 Z M41.1494077,161.747445 L37.1478923,161.747445 L37.1478923,162.627396 L41.1494077,162.627396 L41.1494077,161.747445 Z M41.1494077,159.987544 L37.1478923,159.987544 L37.1478923,160.867494 L41.1494077,160.867494 L41.1494077,159.987544 Z M41.1494077,158.227642 L37.1478923,158.227642 L37.1478923,159.107593 L41.1494077,159.107593 L41.1494077,158.227642 Z M41.1494077,156.467741 L37.1478923,156.467741 L37.1478923,157.347692 L41.1494077,157.347692 L41.1494077,156.467741 Z" id="形状结合备份" fill-opacity="0.5" fill="#999999"></path>
            <path d="M41.5495592,132.909651 L41.5498323,134.602651 L44.121962,134.603556 L44.1228323,137.990651 L45.8368971,137.991366 L45.8378323,138.837651 L47.5518323,138.838319 L47.5518323,143.920034 L45.8378323,143.919651 L45.8368971,144.766986 L44.1228323,144.766651 L44.121962,148.154796 L41.5498323,148.154651 L41.5495592,149.848701 L37.2622213,149.848701 L37.2628323,148.154651 L35.5472861,148.154796 L35.5472861,134.603556 L37.2628323,134.602651 L37.2622213,132.909651 L41.5495592,132.909651 Z M41.1494077,145.338954 L37.1478923,145.338954 L37.1478923,146.218905 L41.1494077,146.218905 L41.1494077,145.338954 Z M41.1494077,143.579053 L37.1478923,143.579053 L37.1478923,144.459003 L41.1494077,144.459003 L41.1494077,143.579053 Z M41.1494077,141.819151 L37.1478923,141.819151 L37.1478923,142.699102 L41.1494077,142.699102 L41.1494077,141.819151 Z M41.1494077,140.05925 L37.1478923,140.05925 L37.1478923,140.939201 L41.1494077,140.939201 L41.1494077,140.05925 Z M41.1494077,138.299349 L37.1478923,138.299349 L37.1478923,139.1793 L41.1494077,139.1793 L41.1494077,138.299349 Z M41.1494077,136.539448 L37.1478923,136.539448 L37.1478923,137.419398 L41.1494077,137.419398 L41.1494077,136.539448 Z" id="形状结合" fill-opacity="0.5" fill="#999999"></path>
            <path d="M41.5495592,112.981358 L41.5498323,114.674358 L44.121962,114.675263 L44.1228323,118.062358 L45.8368971,118.063073 L45.8378323,118.909358 L47.5518323,118.910025 L47.5518323,123.99174 L45.8378323,123.991358 L45.8368971,124.838693 L44.1228323,124.838358 L44.121962,128.226503 L41.5498323,128.226358 L41.5495592,129.920407 L37.2622213,129.920407 L37.2628323,128.226358 L35.5472861,128.226503 L35.5472861,114.675263 L37.2628323,114.674358 L37.2622213,112.981358 L41.5495592,112.981358 Z M41.1494077,125.410661 L37.1478923,125.410661 L37.1478923,126.290611 L41.1494077,126.290611 L41.1494077,125.410661 Z M41.1494077,123.650759 L37.1478923,123.650759 L37.1478923,124.53071 L41.1494077,124.53071 L41.1494077,123.650759 Z M41.1494077,121.890858 L37.1478923,121.890858 L37.1478923,122.770809 L41.1494077,122.770809 L41.1494077,121.890858 Z M41.1494077,120.130957 L37.1478923,120.130957 L37.1478923,121.010907 L41.1494077,121.010907 L41.1494077,120.130957 Z M41.1494077,118.371056 L37.1478923,118.371056 L37.1478923,119.251006 L41.1494077,119.251006 L41.1494077,118.371056 Z M41.1494077,116.611154 L37.1478923,116.611154 L37.1478923,117.491105 L41.1494077,117.491105 L41.1494077,116.611154 Z" id="形状结合" fill-opacity="0.5" fill="#999999"></path>
            <path d="M41.5495592,191.698117 L41.5498323,193.391117 L44.121962,193.392022 L44.1228323,196.779117 L45.8368971,196.779832 L45.8378323,197.626117 L47.5518323,197.626784 L47.5518323,202.708499 L45.8378323,202.708117 L45.8368971,203.555452 L44.1228323,203.555117 L44.121962,206.943262 L41.5498323,206.943117 L41.5495592,208.637167 L37.2622213,208.637167 L37.2628323,206.943117 L35.5472861,206.943262 L35.5472861,193.392022 L37.2628323,193.391117 L37.2622213,191.698117 L41.5495592,191.698117 Z M41.1494077,204.12742 L37.1478923,204.12742 L37.1478923,205.00737 L41.1494077,205.00737 L41.1494077,204.12742 Z M41.1494077,202.367518 L37.1478923,202.367518 L37.1478923,203.247469 L41.1494077,203.247469 L41.1494077,202.367518 Z M41.1494077,200.607617 L37.1478923,200.607617 L37.1478923,201.487568 L41.1494077,201.487568 L41.1494077,200.607617 Z M41.1494077,198.847716 L37.1478923,198.847716 L37.1478923,199.727667 L41.1494077,199.727667 L41.1494077,198.847716 Z M41.1494077,197.087815 L37.1478923,197.087815 L37.1478923,197.967765 L41.1494077,197.967765 L41.1494077,197.087815 Z M41.1494077,195.327913 L37.1478923,195.327913 L37.1478923,196.207864 L41.1494077,196.207864 L41.1494077,195.327913 Z" id="形状结合" fill-opacity="0.5" fill="#FF5B5B"></path>
            <polygon id="直线-15" fill="#999999" fill-rule="nonzero" points="33.1088627 191.197235 33.1088627 192.131374 31.2326521 192.130561 31.2326521 211.903414 32.6843341 211.903978 32.6843341 212.838116 30.2952971 212.838116 30.2952971 191.197235"></polygon>
            <polygon id="直线-15备份" fill="#999999" fill-rule="nonzero" points="53.7120771 191.197235 53.7120771 212.838116 51.7919677 212.838116 51.7919677 211.903978 52.7742219 211.903414 52.7742219 192.130561 50.8985116 192.131374 50.8985116 191.197235"></polygon>
            <polygon id="直线-15" fill="#999999" fill-rule="nonzero" transform="translate(32.874399, 148.662784) scale(1, -1) translate(-32.874399, -148.662784) " points="33.1088627 107.99661 33.1088627 108.930749 31.2326521 108.929936 31.2326521 188.394006 35.4535006 188.394819 35.4535006 189.328958 30.2952971 189.328958 30.2952971 107.99661"></polygon>
            <polygon id="直线-15备份" fill="#999999" fill-rule="nonzero" transform="translate(51.367439, 148.662784) scale(1, -1) translate(-51.367439, -148.662784) " points="53.7120771 107.99661 53.7120771 189.328958 49.0228012 189.328958 49.0228012 188.394819 52.7742219 188.394006 52.7742219 108.929936 50.8985116 108.930749 50.8985116 107.99661"></polygon>
            <path d="M56.7193504,1.01342793 L63.5329783,25.3571028 L77.9225441,76.3687606 L82.9039526,93.960339 C83.6311269,96.5213285 84,99.1723429 84,101.837569 L84,199.385538 C84,200.903794 83.880382,202.419704 83.6422499,203.919279 L75.8379148,253.065047 C75.3720833,255.998499 73.0765119,258.305987 70.1382976,258.794251 L62.9973477,259.980913 C62.1780197,260.117067 61.4236814,259.508293 61.3865262,258.680933 L61.362,258.159 L22.637,258.159 L22.6134738,258.680933 C22.5783828,259.462329 21.9035821,260.048751 21.1384934,259.996798 L21.0026523,259.980913 L13.8617024,258.794251 C11.0099061,258.320347 8.76350619,256.13266 8.20790625,253.322226 L8.16208521,253.065047 L0.357750125,203.919279 C0.153636861,202.633929 0.0365952229,201.336578 0.00732033184,200.036035 L0,199.385538 L0,101.837569 C0,99.3944451 0.309955884,96.9632629 0.921724545,94.602418 L1.09604739,93.960339 L6.07745593,76.3687606 L20.4670217,25.3571028 L27.2806496,1.01342793 C27.737374,-0.625950662 30.1841121,-0.150779551 29.9903491,1.53966769 C29.0865497,9.42468498 28.2565702,17.3926482 27.5004131,25.4435569 L26.4777677,25.3223997 C27.9346197,25.5028437 29.4161012,25.6564624 30.9222106,25.7832422 L30.9223591,11.1328134 L34.6145811,11.1328134 L34.6139715,26.0375892 C36.425966,26.1354468 38.2717979,26.196412 40.151465,26.2204627 L40.1529141,11.1328134 L43.845136,11.1328134 L43.8465851,26.2204627 C45.7259088,26.1964164 47.5714098,26.135469 49.3830856,26.0376428 L49.383469,11.1328134 L53.075691,11.1328134 L53.0758395,25.7832422 C54.2315073,25.6859616 55.3726747,25.5728787 56.4993409,25.4439997 C55.7434298,17.3926482 54.9134503,9.42468498 54.0096509,1.53966769 C53.8158879,-0.150779551 56.262626,-0.625950662 56.7193504,1.01342793 Z M25.4597167,17.8110626 L20.093165,36.9133485 L3.76069391,94.7117444 C3.15765068,96.8355652 2.82702825,99.0275027 2.77611231,101.235191 L2.76916649,101.837639 L2.76916649,199.385538 C2.76916649,200.530255 2.84432329,201.673497 2.99405894,202.807942 L3.09284517,203.487494 L10.8971803,252.633262 C11.1659292,254.325638 12.4496966,255.670771 14.1152874,256.032178 L14.3169506,256.070784 L19.9186145,257.001215 L20.0228283,254.918036 L20.0549966,254.303593 L20.0549966,254.303593 L20.087738,253.692295 L20.2244162,251.277747 L20.2600095,250.681571 L20.2600095,250.681571 L20.2961705,250.088298 L20.4464743,247.743443 L20.5250097,246.587395 L20.5250097,246.587395 L20.6057912,245.441837 L20.7740645,243.18091 L20.8615422,242.064898 L20.8615422,242.064898 L20.9512377,240.958092 L21.1372542,238.770811 L21.2335609,237.689695 L21.2335609,237.689695 L21.3320573,236.6165 L21.5355905,234.492586 L21.7477972,232.396501 L21.8521188,231.405158 L21.9879188,230.202867 L23.2335693,220.009186 L23.6515691,216.531965 L24.0520647,213.047133 L24.2977915,210.70393 L24.3908538,209.678466 L24.4179057,209.333623 L24.4528225,208.767835 L24.460052,208.55121 L24.4609706,131.370508 C24.4609706,129.137452 24.2818257,126.908422 23.9254622,124.70472 L23.7835226,123.879561 L20.6392301,106.636744 C20.1049201,103.706349 19.8927927,100.72681 20.0066666,97.7510259 C21.0025411,71.711172 22.6845993,46.4398209 25.0529116,21.9369471 L25.3657138,18.7452782 L25.4597167,17.8110626 Z M58.5402833,17.8110626 L58.6342862,18.7452782 C61.1678377,44.2437649 62.95416,70.5790044 63.9933334,97.7510259 C64.1072073,100.72681 63.8950799,103.706349 63.3607699,106.636744 L60.2164774,123.879561 C59.7657597,126.351227 59.5390294,128.85832 59.5390294,131.370508 L59.539948,208.55121 L59.5471775,208.767835 L59.5820943,209.333623 L59.6091462,209.678466 L59.7022085,210.70393 L59.9479353,213.047133 L60.3484309,216.531965 L60.7664307,220.009186 L62.0120812,230.202867 L62.1478812,231.405158 L62.2522028,232.396501 L62.4644095,234.492586 L62.6679427,236.6165 C62.7343352,237.329394 62.7992728,238.047356 62.8627458,238.770811 L63.0487623,240.958092 C63.109297,241.692965 63.1683579,242.433762 63.2259355,243.18091 L63.3942088,245.441837 C63.4488103,246.202117 63.5019191,246.969176 63.5535257,247.743443 L63.7038295,250.088298 C63.7281259,250.482854 63.7520444,250.87932 63.7755838,251.277747 L63.912262,253.692295 C63.9342804,254.098788 63.9559173,254.50735 63.9771717,254.918036 L64.0813855,257.001215 L69.6830494,256.070784 C71.445978,255.777826 72.8233209,254.393333 73.1028197,252.633262 L80.9071548,203.487494 C81.1226077,202.130736 81.2308335,200.759198 81.2308335,199.385538 L81.2308335,101.837639 C81.2308335,99.4265997 80.8971714,97.0286398 80.2393061,94.7117444 L63.906835,36.9133485 L58.5402833,17.8110626 Z M56.7547398,28.1939299 L57.8616546,28.0623729 C52.8498438,28.68313 47.5623191,28.9932473 41.9990251,28.9932473 C36.8445095,28.9932473 31.9267263,28.7270291 27.2456313,28.1941772 C25.1771978,50.7657721 23.6866999,73.986553 22.7738208,97.856264 C22.6772792,100.379117 22.8319941,102.904866 23.2352907,105.396449 L23.3637344,106.142862 L26.5080222,123.385652 C26.9350758,125.727549 27.173483,128.099282 27.22119,130.478145 L27.2301371,131.370508 L27.2301371,208.460409 L27.2297559,208.521798 L27.2297559,208.521798 L27.2286192,208.588038 L27.2167297,208.900078 L27.1935984,209.284009 L27.139302,209.984687 L27.0635142,210.821361 L26.9329761,212.121764 L26.8159143,213.215658 L26.4927107,216.069885 L26.0127164,220.099434 L25.1606403,227.041379 L24.671262,231.105953 L24.5021739,232.68148 L24.3007738,234.668435 L24.1072125,236.680607 L23.9215389,238.720229 L23.7438018,240.789538 L23.57405,242.890768 L23.4123322,245.026155 L23.2586973,247.197934 L23.113194,249.408339 L23.0780945,249.967238 L23.0780945,249.967238 L23.043507,250.528725 L22.9102928,252.801262 L22.7853322,255.118013 L22.7710105,255.39682 L22.7710105,255.39682 L61.2289895,255.39682 L61.2146678,255.118013 L61.2146678,255.118013 L61.0897072,252.801262 L60.956493,250.528725 C60.9336055,250.153529 60.9103762,249.780083 60.886806,249.408339 L60.7413027,247.197934 L60.5876678,245.026155 L60.42595,242.890768 L60.2561982,240.789538 L60.0784611,238.720229 L59.8927875,236.680607 L59.6992262,234.668435 L59.4978261,232.68148 L59.328738,231.105953 L58.8393597,227.041379 L57.9872836,220.099434 L57.5072893,216.069885 L57.1840857,213.215658 L57.0670239,212.121764 L56.9364858,210.821361 L56.860698,209.984687 L56.8064016,209.284009 L56.7832703,208.900078 L56.7713808,208.588038 C56.7703735,208.542277 56.7698629,208.499702 56.7698629,208.460409 L56.7698629,131.370508 C56.7698629,128.692681 57.0115424,126.020286 57.4919778,123.385652 L60.6362656,106.142862 C61.1345504,103.410044 61.332375,100.631402 61.2261792,97.856264 C60.3133001,73.986553 58.8228022,50.7657721 56.7547398,28.1939299 Z" id="形状结合" fill-opacity="0.7" fill="#999999" fill-rule="nonzero"></path>
        </g>
        <g id="编组-2备份" transform="translate(201.000000, 20.000000)">
            <path d="M45.7551078,85.7710048 L38.2522664,85.7710048 C35.9255192,85.7710048 34.039318,87.6516662 34.039318,89.9715795 L34.039318,97.4369946 C34.039318,99.7569079 35.9255192,101.637569 38.2522664,101.637569 L45.7551078,101.637569 C48.081855,101.637569 49.9680562,99.7569079 49.9680562,97.4369946 L49.9680562,89.9715795 C49.9680562,87.6516662 48.081855,85.7710048 45.7551078,85.7710048 Z M38.2522664,86.6913492 L45.7551078,86.6913492 C47.5720655,86.6913492 49.0450007,88.1599584 49.0450007,89.9715795 L49.0450007,97.4369946 C49.0450007,99.2486158 47.5720655,100.717225 45.7551078,100.717225 L38.2522664,100.717225 C36.4353087,100.717225 34.9623735,99.2486158 34.9623735,97.4369946 L34.9623735,89.9715795 C34.9623735,88.1599584 36.4353087,86.6913492 38.2522664,86.6913492 Z" id="矩形备份-9" fill-opacity="0.7" fill="#999999" fill-rule="nonzero"></path>
            <path d="M34.6021341,82.7960374 C34.8909935,82.7960374 35.1385873,82.7138332 35.3449154,82.5494248 C35.5662492,82.3738067 35.7050518,82.1309306 35.7650745,81.81706 L35.3374125,81.81706 C35.2848927,82.018834 35.1948586,82.1720327 35.0673103,82.2729197 C34.9472648,82.362597 34.7897051,82.4111723 34.5983827,82.4111723 C34.3057719,82.4111723 34.0881895,82.3177584 33.9493869,82.1384037 C33.8218386,81.9702588 33.7580644,81.7273827 33.7580644,81.4135121 C33.7580644,81.1071146 33.8218386,80.867975 33.9531383,80.6960935 C34.0956923,80.5017926 34.3057719,80.4083788 34.5871284,80.4083788 C34.7746994,80.4083788 34.9285077,80.4457443 35.0485532,80.5279485 C35.17235,80.6101527 35.2548813,80.7371956 35.2998983,80.9128137 L35.7275603,80.9128137 C35.6862947,80.6437817 35.5700006,80.4270615 35.3749268,80.2701262 C35.17235,80.1057178 34.9097506,80.0235136 34.5946313,80.0235136 C34.1669693,80.0235136 33.8405957,80.1617661 33.6155105,80.4457443 C33.4166852,80.692357 33.3191482,81.0174372 33.3191482,81.4135121 C33.3191482,81.81706 33.4129337,82.1384037 33.6042562,82.3775433 C33.8218386,82.6540483 34.155715,82.7960374 34.6021341,82.7960374 Z M37.3669311,82.7960374 C37.775836,82.7960374 38.0984582,82.665258 38.3347977,82.4036992 C38.5598829,82.15335 38.6724255,81.8245331 38.6724255,81.4135121 C38.6724255,81.002491 38.5598829,80.6699376 38.3347977,80.4195884 C38.0984582,80.154293 37.775836,80.0235136 37.3669311,80.0235136 C36.9542749,80.0235136 36.6316527,80.154293 36.3990646,80.423325 C36.1739794,80.6774107 36.0651882,81.0062276 36.0651882,81.4135121 C36.0651882,81.81706 36.1739794,82.1458769 36.3990646,82.3999626 C36.6316527,82.6615215 36.9542749,82.7960374 37.3669311,82.7960374 Z M37.3669311,82.4111723 C37.089326,82.4111723 36.8717436,82.3177584 36.7216868,82.1346672 C36.5753814,81.9553126 36.5041044,81.716173 36.5041044,81.4135121 C36.5041044,81.1071146 36.5753814,80.867975 36.7216868,80.6886204 C36.875495,80.5017926 37.089326,80.4083788 37.3669311,80.4083788 C37.6445363,80.4083788 37.8583672,80.4943195 38.0084241,80.6736742 C38.1547295,80.8530288 38.2297579,81.0996415 38.2297579,81.4135121 C38.2297579,81.7273827 38.1547295,81.9702588 38.0084241,82.1458769 C37.8583672,82.3214949 37.6445363,82.4111723 37.3669311,82.4111723 Z M39.523998,82.7437257 L39.523998,80.7932439 L39.5390037,80.7932439 L40.8782609,82.7437257 L41.3059229,82.7437257 L41.3059229,80.0758254 L40.8632552,80.0758254 L40.8632552,82.0001512 L40.8482495,82.0001512 L39.523998,80.0758254 L39.0850818,80.0758254 L39.0850818,82.7437257 L39.523998,82.7437257 Z M42.270038,82.7437257 L42.270038,80.7932439 L42.2850437,80.7932439 L43.6243008,82.7437257 L44.0519628,82.7437257 L44.0519628,80.0758254 L43.6092952,80.0758254 L43.6092952,82.0001512 L43.5942895,82.0001512 L42.270038,80.0758254 L41.8311218,80.0758254 L41.8311218,82.7437257 L42.270038,82.7437257 Z M46.5729175,82.7437257 L46.5729175,82.3700702 L45.0160779,82.3700702 L45.0160779,81.5629743 L46.4191093,81.5629743 L46.4191093,81.1893188 L45.0160779,81.1893188 L45.0160779,80.4494809 L46.5091434,80.4494809 L46.5091434,80.0758254 L44.5771617,80.0758254 L44.5771617,82.7437257 L46.5729175,82.7437257 Z M48.156017,82.7960374 C48.4448764,82.7960374 48.6924702,82.7138332 48.8987983,82.5494248 C49.1201322,82.3738067 49.2589347,82.1309306 49.3189575,81.81706 L48.8912955,81.81706 C48.8387756,82.018834 48.7487415,82.1720327 48.6211932,82.2729197 C48.5011477,82.362597 48.3435881,82.4111723 48.1522656,82.4111723 C47.8596548,82.4111723 47.6420724,82.3177584 47.5032698,82.1384037 C47.3757215,81.9702588 47.3119474,81.7273827 47.3119474,81.4135121 C47.3119474,81.1071146 47.3757215,80.867975 47.5070213,80.6960935 C47.6495752,80.5017926 47.8596548,80.4083788 48.1410114,80.4083788 C48.3285824,80.4083788 48.4823906,80.4457443 48.6024361,80.5279485 C48.726233,80.6101527 48.8087642,80.7371956 48.8537813,80.9128137 L49.2814432,80.9128137 C49.2401776,80.6437817 49.1238836,80.4270615 48.9288097,80.2701262 C48.726233,80.1057178 48.4636335,80.0235136 48.1485142,80.0235136 C47.7208522,80.0235136 47.3944786,80.1617661 47.1693934,80.4457443 C46.9705681,80.692357 46.8730312,81.0174372 46.8730312,81.4135121 C46.8730312,81.81706 46.9668167,82.1384037 47.1581391,82.3775433 C47.3757215,82.6540483 47.709598,82.7960374 48.156017,82.7960374 Z M50.8420342,82.7437257 L50.8420342,80.4494809 L51.7198667,80.4494809 L51.7198667,80.0758254 L49.5252856,80.0758254 L49.5252856,80.4494809 L50.403118,80.4494809 L50.403118,82.7437257 L50.8420342,82.7437257 Z" id="CONNECT" fill="#999999" fill-rule="nonzero"></path>
            <path d="M43.5412167,214.021359 L44.0664155,212.014829 L44.0814212,212.014829 L44.6028687,214.021359 L45.0680449,214.021359 L45.8408375,211.353458 L45.34565,211.353458 L44.8429596,213.382408 L44.8279539,213.382408 L44.2990036,211.353458 L43.8450817,211.353458 L43.3161314,213.382408 L43.3011257,213.382408 L42.7984354,211.353458 L42.3032478,211.353458 L43.0722891,214.021359 L43.5412167,214.021359 Z M46.3285222,214.021359 L46.5723646,213.352515 L47.6940394,213.352515 L47.9378817,214.021359 L48.4068093,214.021359 L47.3826714,211.353458 L46.8837325,211.353458 L45.8595946,214.021359 L46.3285222,214.021359 Z M47.5627396,212.993806 L46.7036643,212.993806 L47.1275748,211.824264 L47.1425805,211.824264 L47.5627396,212.993806 Z M49.108325,214.021359 L49.108325,212.070877 L49.1233306,212.070877 L50.4625878,214.021359 L50.8902498,214.021359 L50.8902498,211.353458 L50.4475821,211.353458 L50.4475821,213.277784 L50.4325765,213.277784 L49.108325,211.353458 L48.6694087,211.353458 L48.6694087,214.021359 L49.108325,214.021359 Z M34.3336854,211.221443 C34.0345997,211.221443 33.7906087,211.314469 33.6095831,211.507965 C33.4324929,211.686576 33.3419801,211.924725 33.3380448,212.22241 L33.7669966,212.22241 C33.7748673,212.006588 33.8220914,211.846582 33.9165395,211.73495 C34.0070523,211.619597 34.1408538,211.563781 34.317944,211.563781 C34.4832282,211.563781 34.6130944,211.600992 34.6996719,211.675413 C34.7862493,211.749834 34.829538,211.861466 34.829538,212.010309 C34.829538,212.166594 34.7626373,212.311716 34.6367064,212.445674 C34.5579997,212.523817 34.4241982,212.624286 34.2353019,212.750802 C33.9165395,212.959182 33.7040312,213.119188 33.6017124,213.234541 C33.4128162,213.435479 33.3223034,213.666185 33.3223034,213.930381 L35.2584899,213.930381 L35.2584899,213.573158 L33.8535741,213.573158 C33.9126042,213.428037 34.0936297,213.260588 34.3966508,213.070814 C34.6760598,212.892203 34.8688914,212.750802 34.9790809,212.642891 C35.1601065,212.453116 35.2545546,212.244737 35.2545546,212.01403 C35.2545546,211.779603 35.1679771,211.589828 34.9987576,211.440986 C34.8256027,211.292143 34.6012884,211.221443 34.3336854,211.221443 Z M36.0062042,213.398268 C35.9196268,213.398268 35.852726,213.424315 35.8015666,213.47641 C35.7425365,213.528505 35.7149892,213.595485 35.7149892,213.677348 C35.7149892,213.75177 35.7425365,213.818749 35.8015666,213.874565 C35.852726,213.922939 35.9196268,213.948986 36.0062042,213.948986 C36.084911,213.948986 36.1557471,213.922939 36.2147772,213.874565 C36.2698719,213.818749 36.3013546,213.75177 36.3013546,213.677348 C36.3013546,213.595485 36.2698719,213.528505 36.2147772,213.47641 C36.1557471,213.424315 36.084911,213.398268 36.0062042,213.398268 Z M36.9152674,211.273538 L36.7617892,212.761965 L37.1631937,212.761965 C37.2182885,212.665217 37.2930599,212.594517 37.3953787,212.549864 C37.4898268,212.505211 37.596081,212.486606 37.7220118,212.486606 C37.910908,212.486606 38.0525802,212.538701 38.154899,212.642891 C38.2572178,212.747081 38.3083772,212.892203 38.3083772,213.078256 C38.3083772,213.249425 38.2493471,213.383384 38.131287,213.487574 C38.0132268,213.588043 37.8676193,213.640137 37.6944644,213.640137 C37.5370509,213.640137 37.41112,213.606648 37.3166719,213.539669 C37.2104178,213.465247 37.1474524,213.349894 37.131711,213.201051 L36.7106298,213.201051 C36.7303065,213.446642 36.840496,213.643859 37.0411982,213.785259 C37.2222238,213.915497 37.4386674,213.982476 37.6905291,213.982476 C37.9699381,213.982476 38.2099937,213.904333 38.410696,213.748048 C38.6232043,213.573158 38.7333938,213.349894 38.7333938,213.074535 C38.7333938,212.788013 38.6468163,212.564749 38.4815321,212.401021 C38.3162479,212.237294 38.0998043,212.155431 37.8361366,212.155431 C37.7102058,212.155431 37.5921456,212.174036 37.4898268,212.214968 C37.375702,212.252179 37.2773185,212.311716 37.1907411,212.3973 L37.1789351,212.3973 L37.2615772,211.63076 L38.6074629,211.63076 L38.6074629,211.273538 L36.9152674,211.273538 Z M40.3941066,211.221443 C39.980896,211.221443 39.6503276,211.355401 39.4063366,211.63076 C39.1741517,211.887514 39.0600269,212.214968 39.0600269,212.613122 C39.0600269,213.007556 39.1741517,213.331289 39.4063366,213.5806 C39.654263,213.848517 40.0005727,213.982476 40.4492013,213.982476 C40.6931923,213.982476 40.9175066,213.952707 41.1221442,213.89317 C41.3149758,213.833633 41.4841953,213.75177 41.6298029,213.643859 L41.6298029,212.527538 L40.4255893,212.527538 L40.4255893,212.873597 L41.200851,212.873597 L41.200851,213.450363 C41.1064028,213.506179 41.004084,213.550832 40.8860239,213.5806 C40.7640284,213.610369 40.6341622,213.628974 40.4964254,213.628974 C40.1461803,213.628974 39.8864479,213.535948 39.7211637,213.349894 C39.5637502,213.178725 39.4889787,212.933134 39.4889787,212.613122 C39.4889787,212.285668 39.5716209,212.028915 39.7447757,211.842861 C39.9061246,211.66425 40.1225682,211.578665 40.3941066,211.578665 C40.6144855,211.578665 40.7955111,211.623318 40.9293126,211.716345 C41.0631141,211.80565 41.1496916,211.939609 41.189045,212.11822 L41.6219322,212.11822 C41.5707728,211.820535 41.444842,211.600992 41.2441397,211.452149 C41.0355668,211.295864 40.7522224,211.221443 40.3941066,211.221443 Z" id="形状结合" fill="#999999" fill-rule="nonzero"></path>
            <path d="M40.5592385,109.646922 L40.5592385,109.273266 L39.1111901,109.273266 L39.1111901,106.979022 L38.6760253,106.979022 L38.6760253,109.646922 L40.5592385,109.646922 Z M41.1031945,109.646922 L41.3470368,108.978078 L42.4687116,108.978078 L42.7125539,109.646922 L43.1814815,109.646922 L42.1573437,106.979022 L41.6584047,106.979022 L40.6342669,109.646922 L41.1031945,109.646922 Z M42.3374119,108.619369 L41.4783365,108.619369 L41.9022471,107.449827 L41.9172527,107.449827 L42.3374119,108.619369 Z M43.8829972,109.646922 L43.8829972,107.69644 L43.8980029,107.69644 L45.2372601,109.646922 L45.664922,109.646922 L45.664922,106.979022 L45.2222544,106.979022 L45.2222544,108.903347 L45.2072487,108.903347 L43.8829972,106.979022 L43.444081,106.979022 L43.444081,109.646922 L43.8829972,109.646922 Z" id="LAN" fill="#999999" fill-rule="nonzero"></path>
            <path d="M35.7386086,239.243105 L35.7386086,238.219289 L36.40261,238.219289 C37.0553572,238.219289 37.3817308,237.942784 37.3817308,237.39351 C37.3817308,236.847973 37.0553572,236.575205 36.4101129,236.575205 L35.2996923,236.575205 L35.2996923,239.243105 L35.7386086,239.243105 Z M36.3763501,237.845634 L35.7386086,237.845634 L35.7386086,236.94886 L36.3763501,236.94886 C36.5676725,236.94886 36.7102265,236.982489 36.8002606,237.053484 C36.8902947,237.120742 36.9390632,237.232839 36.9390632,237.39351 C36.9390632,237.554182 36.8940461,237.670015 36.804012,237.74101 C36.7139779,237.808268 36.5714239,237.845634 36.3763501,237.845634 Z M38.9460732,239.295417 C39.3549781,239.295417 39.6776003,239.164637 39.9139398,238.903079 C40.139025,238.652729 40.2515676,238.323913 40.2515676,237.912892 C40.2515676,237.50187 40.139025,237.169317 39.9139398,236.918968 C39.6776003,236.653673 39.3549781,236.522893 38.9460732,236.522893 C38.533417,236.522893 38.2107948,236.653673 37.9782067,236.922704 C37.7531215,237.17679 37.6443303,237.505607 37.6443303,237.912892 C37.6443303,238.316439 37.7531215,238.645256 37.9782067,238.899342 C38.2107948,239.160901 38.533417,239.295417 38.9460732,239.295417 Z M38.9460732,238.910552 C38.6684681,238.910552 38.4508857,238.817138 38.3008289,238.634047 C38.1545235,238.454692 38.0832465,238.215552 38.0832465,237.912892 C38.0832465,237.606494 38.1545235,237.367355 38.3008289,237.188 C38.4546371,237.001172 38.6684681,236.907758 38.9460732,236.907758 C39.2236784,236.907758 39.4375094,236.993699 39.5875662,237.173054 C39.7338716,237.352408 39.8089,237.599021 39.8089,237.912892 C39.8089,238.226762 39.7338716,238.469638 39.5875662,238.645256 C39.4375094,238.820874 39.2236784,238.910552 38.9460732,238.910552 Z M41.6583504,239.243105 L42.1835493,237.236575 L42.198555,237.236575 L42.7200025,239.243105 L43.1851786,239.243105 L43.9579713,236.575205 L43.4627838,236.575205 L42.9600934,238.604154 L42.9450877,238.604154 L42.4161374,236.575205 L41.9622155,236.575205 L41.4332652,238.604154 L41.4182595,238.604154 L40.9155691,236.575205 L40.4203816,236.575205 L41.1894228,239.243105 L41.6583504,239.243105 Z M46.2350836,239.243105 L46.2350836,238.86945 L44.6782441,238.86945 L44.6782441,238.062354 L46.0812754,238.062354 L46.0812754,237.688698 L44.6782441,237.688698 L44.6782441,236.94886 L46.1713095,236.94886 L46.1713095,236.575205 L44.2393278,236.575205 L44.2393278,239.243105 L46.2350836,239.243105 Z M47.0866561,239.243105 L47.0866561,238.155768 L47.780669,238.155768 C47.9307258,238.155768 48.0470198,238.18566 48.1257997,238.252918 C48.2008281,238.316439 48.2458451,238.421063 48.2608508,238.566789 L48.2946136,238.895606 C48.3096193,239.045068 48.3471335,239.160901 48.4109076,239.243105 L48.8873381,239.243105 C48.797304,239.145955 48.7410327,239.015175 48.726027,238.850767 L48.6810099,238.421063 C48.6509986,238.159504 48.5196988,238.006305 48.2871108,237.953994 L48.2871108,237.946521 C48.4296647,237.909155 48.5459588,237.830687 48.62849,237.711118 C48.7035185,237.602757 48.7410327,237.479451 48.7410327,237.341199 C48.7410327,237.087113 48.65475,236.892812 48.4896875,236.758296 C48.3321278,236.63499 48.1145454,236.575205 47.8406917,236.575205 L46.6477399,236.575205 L46.6477399,239.243105 L47.0866561,239.243105 Z M47.780669,237.782112 L47.0866561,237.782112 L47.0866561,236.94886 L47.780669,236.94886 C47.9607372,236.94886 48.0920369,236.978753 48.1745681,237.046011 C48.2570994,237.109532 48.298365,237.214156 48.298365,237.359881 C48.298365,237.494397 48.2570994,237.599021 48.1745681,237.673752 C48.084534,237.744747 47.9532343,237.782112 47.780669,237.782112 Z" id="POWER" fill="#999999" fill-rule="nonzero"></path>
            <path d="M36.6147713,64.9950893 L36.6147713,63.9077518 L37.3087841,63.9077518 C37.4588409,63.9077518 37.575135,63.9376442 37.6539148,64.0049022 C37.7289432,64.0684237 37.7739603,64.1730472 37.788966,64.3187729 L37.8227288,64.6475897 C37.8377344,64.7970519 37.8752486,64.9128851 37.9390228,64.9950893 L38.4154532,64.9950893 C38.3254191,64.8979389 38.2691478,64.7671595 38.2541421,64.602751 L38.2091251,64.1730472 C38.1791137,63.9114884 38.047814,63.7582896 37.8152259,63.7059778 L37.8152259,63.6985047 C37.9577799,63.6611392 38.0740739,63.5826715 38.1566052,63.4631018 C38.2316336,63.3547417 38.2691478,63.2314353 38.2691478,63.0931828 C38.2691478,62.8390971 38.1828651,62.6447962 38.0178026,62.5102802 C37.860243,62.3869739 37.6426606,62.327189 37.3688068,62.327189 L36.1758551,62.327189 L36.1758551,64.9950893 L36.6147713,64.9950893 Z M37.3087841,63.5340963 L36.6147713,63.5340963 L36.6147713,62.7008445 L37.3087841,62.7008445 C37.4888523,62.7008445 37.620152,62.730737 37.7026833,62.797995 C37.7852145,62.8615164 37.8264802,62.9661399 37.8264802,63.1118656 C37.8264802,63.2463816 37.7852145,63.3510051 37.7026833,63.4257362 C37.6126492,63.4967307 37.4813495,63.5340963 37.3087841,63.5340963 Z M40.7863511,64.9950893 L40.7863511,64.6214338 L39.2295115,64.6214338 L39.2295115,63.8143379 L40.6325428,63.8143379 L40.6325428,63.4406824 L39.2295115,63.4406824 L39.2295115,62.7008445 L40.7225769,62.7008445 L40.7225769,62.327189 L38.7905953,62.327189 L38.7905953,64.9950893 L40.7863511,64.9950893 Z M42.1893824,65.0474011 C42.5307617,65.0474011 42.7971126,64.9764065 42.9846836,64.8418906 C43.1722547,64.703638 43.2660402,64.5130737 43.2660402,64.2739342 C43.2660402,64.0273216 43.1497461,63.8367573 42.917158,63.6985047 C42.8121183,63.6387198 42.5795302,63.5490425 42.2156424,63.4369459 C41.9680486,63.3584782 41.8142404,63.3024299 41.7579691,63.2725374 C41.6304208,63.2052795 41.570398,63.1118656 41.570398,62.9997689 C41.570398,62.8727261 41.6229179,62.7793122 41.7354605,62.7232639 C41.8254946,62.6746886 41.9530429,62.6522693 42.1218569,62.6522693 C42.3169307,62.6522693 42.4669876,62.6858983 42.5645245,62.7606294 C42.6620614,62.831624 42.7333384,62.9511937 42.7708526,63.1156021 L43.2060174,63.1156021 C43.1797575,62.8241508 43.0709663,62.6074307 42.8833953,62.4691781 C42.7070785,62.3383987 42.4594847,62.2748773 42.1443654,62.2748773 C41.855506,62.2748773 41.6191665,62.3383987 41.4315955,62.4691781 C41.2290187,62.6036941 41.1314818,62.7905218 41.1314818,63.0259248 C41.1314818,63.2613278 41.2327702,63.4406824 41.4390983,63.5639887 C41.5178781,63.6088274 41.7242063,63.6835585 42.0543313,63.788182 C42.3506935,63.8778594 42.5232589,63.9376442 42.5757788,63.9638001 C42.7408413,64.0460043 42.827124,64.158101 42.827124,64.3000901 C42.827124,64.4121867 42.7671012,64.4981275 42.6545586,64.5653855 C42.542016,64.6289069 42.3844563,64.6625359 42.1893824,64.6625359 C41.9680486,64.6625359 41.8067375,64.6214338 41.7016977,64.5467027 C41.5854037,64.4607619 41.5141267,64.3150363 41.4841153,64.1132623 L41.0489505,64.1132623 C41.0677076,64.4532888 41.1915045,64.6999015 41.4165898,64.8568368 C41.6004094,64.9838796 41.8592574,65.0474011 42.1893824,65.0474011 Z M45.636938,64.9950893 L45.636938,64.6214338 L44.0800985,64.6214338 L44.0800985,63.8143379 L45.4831298,63.8143379 L45.4831298,63.4406824 L44.0800985,63.4406824 L44.0800985,62.7008445 L45.5731639,62.7008445 L45.5731639,62.327189 L43.6411822,62.327189 L43.6411822,64.9950893 L45.636938,64.9950893 Z M47.1600148,64.9950893 L47.1600148,62.7008445 L48.0378473,62.7008445 L48.0378473,62.327189 L45.8432662,62.327189 L45.8432662,62.7008445 L46.7210986,62.7008445 L46.7210986,64.9950893 L47.1600148,64.9950893 Z" id="RESET" fill="#999999" fill-rule="nonzero"></path>
            <ellipse id="椭圆形备份-2" fill-opacity="0.5" fill="#999999" cx="42.4726147" cy="68.94961" rx="1.40678276" ry="1.40120813"></ellipse>
            <ellipse id="椭圆形备份-3" fill-opacity="0.5" fill="#999999" cx="40.1279768" cy="228.718475" rx="4.68927586" ry="4.67069378"></ellipse>
            <path d="M41.5495592,172.766238 L41.5498323,174.459238 L44.121962,174.460143 L44.1228323,177.847238 L45.8368971,177.847953 L45.8378323,178.694238 L47.5518323,178.694906 L47.5518323,183.77662 L45.8378323,183.776238 L45.8368971,184.623573 L44.1228323,184.623238 L44.121962,188.011383 L41.5498323,188.011238 L41.5495592,189.705288 L37.2622213,189.705288 L37.2628323,188.011238 L35.5472861,188.011383 L35.5472861,174.460143 L37.2628323,174.459238 L37.2622213,172.766238 L41.5495592,172.766238 Z M41.1494077,185.195541 L37.1478923,185.195541 L37.1478923,186.075491 L41.1494077,186.075491 L41.1494077,185.195541 Z M41.1494077,183.43564 L37.1478923,183.43564 L37.1478923,184.31559 L41.1494077,184.31559 L41.1494077,183.43564 Z M41.1494077,181.675738 L37.1478923,181.675738 L37.1478923,182.555689 L41.1494077,182.555689 L41.1494077,181.675738 Z M41.1494077,179.915837 L37.1478923,179.915837 L37.1478923,180.795788 L41.1494077,180.795788 L41.1494077,179.915837 Z M41.1494077,178.155936 L37.1478923,178.155936 L37.1478923,179.035887 L41.1494077,179.035887 L41.1494077,178.155936 Z M41.1494077,176.396035 L37.1478923,176.396035 L37.1478923,177.275985 L41.1494077,177.275985 L41.1494077,176.396035 Z" id="形状结合备份-2" fill-opacity="0.5" fill="#999999"></path>
            <path d="M41.5495592,152.837945 L41.5498323,154.530945 L44.121962,154.53185 L44.1228323,157.918945 L45.8368971,157.91966 L45.8378323,158.765945 L47.5518323,158.766612 L47.5518323,163.848327 L45.8378323,163.847945 L45.8368971,164.69528 L44.1228323,164.694945 L44.121962,168.083089 L41.5498323,168.082945 L41.5495592,169.776994 L37.2622213,169.776994 L37.2628323,168.082945 L35.5472861,168.083089 L35.5472861,154.53185 L37.2628323,154.530945 L37.2622213,152.837945 L41.5495592,152.837945 Z M41.1494077,165.267247 L37.1478923,165.267247 L37.1478923,166.147198 L41.1494077,166.147198 L41.1494077,165.267247 Z M41.1494077,163.507346 L37.1478923,163.507346 L37.1478923,164.387297 L41.1494077,164.387297 L41.1494077,163.507346 Z M41.1494077,161.747445 L37.1478923,161.747445 L37.1478923,162.627396 L41.1494077,162.627396 L41.1494077,161.747445 Z M41.1494077,159.987544 L37.1478923,159.987544 L37.1478923,160.867494 L41.1494077,160.867494 L41.1494077,159.987544 Z M41.1494077,158.227642 L37.1478923,158.227642 L37.1478923,159.107593 L41.1494077,159.107593 L41.1494077,158.227642 Z M41.1494077,156.467741 L37.1478923,156.467741 L37.1478923,157.347692 L41.1494077,157.347692 L41.1494077,156.467741 Z" id="形状结合备份" fill-opacity="0.5" fill="#999999"></path>
            <path d="M41.5495592,132.909651 L41.5498323,134.602651 L44.121962,134.603556 L44.1228323,137.990651 L45.8368971,137.991366 L45.8378323,138.837651 L47.5518323,138.838319 L47.5518323,143.920034 L45.8378323,143.919651 L45.8368971,144.766986 L44.1228323,144.766651 L44.121962,148.154796 L41.5498323,148.154651 L41.5495592,149.848701 L37.2622213,149.848701 L37.2628323,148.154651 L35.5472861,148.154796 L35.5472861,134.603556 L37.2628323,134.602651 L37.2622213,132.909651 L41.5495592,132.909651 Z M41.1494077,145.338954 L37.1478923,145.338954 L37.1478923,146.218905 L41.1494077,146.218905 L41.1494077,145.338954 Z M41.1494077,143.579053 L37.1478923,143.579053 L37.1478923,144.459003 L41.1494077,144.459003 L41.1494077,143.579053 Z M41.1494077,141.819151 L37.1478923,141.819151 L37.1478923,142.699102 L41.1494077,142.699102 L41.1494077,141.819151 Z M41.1494077,140.05925 L37.1478923,140.05925 L37.1478923,140.939201 L41.1494077,140.939201 L41.1494077,140.05925 Z M41.1494077,138.299349 L37.1478923,138.299349 L37.1478923,139.1793 L41.1494077,139.1793 L41.1494077,138.299349 Z M41.1494077,136.539448 L37.1478923,136.539448 L37.1478923,137.419398 L41.1494077,137.419398 L41.1494077,136.539448 Z" id="形状结合" fill-opacity="0.5" fill="#999999"></path>
            <path d="M41.5495592,112.981358 L41.5498323,114.674358 L44.121962,114.675263 L44.1228323,118.062358 L45.8368971,118.063073 L45.8378323,118.909358 L47.5518323,118.910025 L47.5518323,123.99174 L45.8378323,123.991358 L45.8368971,124.838693 L44.1228323,124.838358 L44.121962,128.226503 L41.5498323,128.226358 L41.5495592,129.920407 L37.2622213,129.920407 L37.2628323,128.226358 L35.5472861,128.226503 L35.5472861,114.675263 L37.2628323,114.674358 L37.2622213,112.981358 L41.5495592,112.981358 Z M41.1494077,125.410661 L37.1478923,125.410661 L37.1478923,126.290611 L41.1494077,126.290611 L41.1494077,125.410661 Z M41.1494077,123.650759 L37.1478923,123.650759 L37.1478923,124.53071 L41.1494077,124.53071 L41.1494077,123.650759 Z M41.1494077,121.890858 L37.1478923,121.890858 L37.1478923,122.770809 L41.1494077,122.770809 L41.1494077,121.890858 Z M41.1494077,120.130957 L37.1478923,120.130957 L37.1478923,121.010907 L41.1494077,121.010907 L41.1494077,120.130957 Z M41.1494077,118.371056 L37.1478923,118.371056 L37.1478923,119.251006 L41.1494077,119.251006 L41.1494077,118.371056 Z M41.1494077,116.611154 L37.1478923,116.611154 L37.1478923,117.491105 L41.1494077,117.491105 L41.1494077,116.611154 Z" id="形状结合" fill-opacity="0.5" fill="#999999"></path>
            <path d="M41.5495592,191.698117 L41.5498323,193.391117 L44.121962,193.392022 L44.1228323,196.779117 L45.8368971,196.779832 L45.8378323,197.626117 L47.5518323,197.626784 L47.5518323,202.708499 L45.8378323,202.708117 L45.8368971,203.555452 L44.1228323,203.555117 L44.121962,206.943262 L41.5498323,206.943117 L41.5495592,208.637167 L37.2622213,208.637167 L37.2628323,206.943117 L35.5472861,206.943262 L35.5472861,193.392022 L37.2628323,193.391117 L37.2622213,191.698117 L41.5495592,191.698117 Z M41.1494077,204.12742 L37.1478923,204.12742 L37.1478923,205.00737 L41.1494077,205.00737 L41.1494077,204.12742 Z M41.1494077,202.367518 L37.1478923,202.367518 L37.1478923,203.247469 L41.1494077,203.247469 L41.1494077,202.367518 Z M41.1494077,200.607617 L37.1478923,200.607617 L37.1478923,201.487568 L41.1494077,201.487568 L41.1494077,200.607617 Z M41.1494077,198.847716 L37.1478923,198.847716 L37.1478923,199.727667 L41.1494077,199.727667 L41.1494077,198.847716 Z M41.1494077,197.087815 L37.1478923,197.087815 L37.1478923,197.967765 L41.1494077,197.967765 L41.1494077,197.087815 Z M41.1494077,195.327913 L37.1478923,195.327913 L37.1478923,196.207864 L41.1494077,196.207864 L41.1494077,195.327913 Z" id="形状结合" fill-opacity="0.5" fill="#FF5B5B"></path>
            <polygon id="直线-15" fill="#999999" fill-rule="nonzero" points="33.1088627 191.197235 33.1088627 192.131374 31.2326521 192.130561 31.2326521 211.903414 32.6843341 211.903978 32.6843341 212.838116 30.2952971 212.838116 30.2952971 191.197235"></polygon>
            <polygon id="直线-15备份" fill="#999999" fill-rule="nonzero" points="53.7120771 191.197235 53.7120771 212.838116 51.7919677 212.838116 51.7919677 211.903978 52.7742219 211.903414 52.7742219 192.130561 50.8985116 192.131374 50.8985116 191.197235"></polygon>
            <polygon id="直线-15" fill="#999999" fill-rule="nonzero" transform="translate(32.874399, 148.662784) scale(1, -1) translate(-32.874399, -148.662784) " points="33.1088627 107.99661 33.1088627 108.930749 31.2326521 108.929936 31.2326521 188.394006 35.4535006 188.394819 35.4535006 189.328958 30.2952971 189.328958 30.2952971 107.99661"></polygon>
            <polygon id="直线-15备份" fill="#999999" fill-rule="nonzero" transform="translate(51.367439, 148.662784) scale(1, -1) translate(-51.367439, -148.662784) " points="53.7120771 107.99661 53.7120771 189.328958 49.0228012 189.328958 49.0228012 188.394819 52.7742219 188.394006 52.7742219 108.929936 50.8985116 108.930749 50.8985116 107.99661"></polygon>
            <path d="M56.7193504,1.01342793 L63.5329783,25.3571028 L77.9225441,76.3687606 L82.9039526,93.960339 C83.6311269,96.5213285 84,99.1723429 84,101.837569 L84,199.385538 C84,200.903794 83.880382,202.419704 83.6422499,203.919279 L80.1237528,226.080181 C79.2752213,225.67024 78.3949139,225.3157 77.4875267,225.021258 L80.9071548,203.487494 C81.1226077,202.130736 81.2308335,200.759198 81.2308335,199.385538 L81.2308335,101.837639 C81.2308335,99.4265997 80.8971714,97.0286398 80.2393061,94.7117444 L63.906835,36.9133485 L58.5402833,17.8110626 L58.6342862,18.7452782 C61.1678377,44.2437649 62.95416,70.5790044 63.9933334,97.7510259 C64.1072073,100.72681 63.8950799,103.706349 63.3607699,106.636744 L60.2164774,123.879561 C59.7657597,126.351227 59.5390294,128.85832 59.5390294,131.370508 L59.539948,208.55121 L59.5471775,208.767835 L59.5820943,209.333623 L59.6091462,209.678466 L59.7022085,210.70393 L59.9479353,213.047133 L60.3484309,216.531965 L60.7664307,220.009186 L61.5292014,226.251825 C60.6239293,226.710035 59.7563344,227.231883 58.9323006,227.811488 L58.8393597,227.041379 L57.9872836,220.099434 L57.5072893,216.069885 L57.1840857,213.215658 L57.0670239,212.121764 L56.9364858,210.821361 L56.860698,209.984687 L56.8064016,209.284009 L56.7832703,208.900078 L56.7713808,208.588038 C56.7703735,208.542277 56.7698629,208.499702 56.7698629,208.460409 L56.7698629,131.370508 C56.7698629,128.692681 57.0115424,126.020286 57.4919778,123.385652 L60.6362656,106.142862 C61.1345504,103.410044 61.332375,100.631402 61.2261792,97.856264 C60.3589441,75.1800385 58.970408,53.0894725 57.0606174,31.5845733 L56.754,28.194 L56.7001885,28.2001105 C52.0347467,28.7290053 47.1343734,28.9932473 41.9990251,28.9932473 C36.8445095,28.9932473 31.9267263,28.7270291 27.2456313,28.1941772 C25.1771978,50.7657721 23.6866999,73.986553 22.7738208,97.856264 C22.6772792,100.379117 22.8319941,102.904866 23.2352907,105.396449 L23.3637344,106.142862 L26.5080222,123.385652 C26.9350758,125.727549 27.173483,128.099282 27.22119,130.478145 L27.2301371,131.370508 L27.2301371,208.460409 L27.2297559,208.521798 L27.2286192,208.588038 L27.2167297,208.900078 L27.1935984,209.284009 L27.139302,209.984687 L27.0635142,210.821361 L26.9329761,212.121764 L26.8159143,213.215658 L26.4927107,216.069885 L26.0127164,220.099434 L25.1606403,227.041379 L24.671262,231.105953 L24.5021739,232.68148 L24.3007738,234.668435 L24.1072125,236.680607 L23.9215389,238.720229 L23.7438018,240.789538 L23.57405,242.890768 L23.4123322,245.026155 L23.2586973,247.197934 L23.113194,249.408339 L23.0780945,249.967238 L23.043507,250.528725 L22.9102928,252.801262 L22.7853322,255.118013 L22.7710105,255.39682 L52.7501968,255.396938 C53.3052417,256.369115 53.9357296,257.292655 54.6336864,258.159586 L22.637,258.159 L22.6134738,258.680933 C22.5783828,259.462329 21.9035821,260.048751 21.1384934,259.996798 L21.0026523,259.980913 L13.8617024,258.794251 C11.0099061,258.320347 8.76350619,256.13266 8.20790625,253.322226 L8.16208521,253.065047 L0.357750125,203.919279 C0.153636861,202.633929 0.0365952229,201.336578 0.00732033184,200.036035 L0,199.385538 L0,101.837569 C0,99.3944451 0.309955884,96.9632629 0.921724545,94.602418 L1.09604739,93.960339 L6.07745593,76.3687606 L20.4670217,25.3571028 L27.2806496,1.01342793 C27.737374,-0.625950662 30.1841121,-0.150779551 29.9903491,1.53966769 C29.0865497,9.42468498 28.2565702,17.3926482 27.5004131,25.4435569 L26.773,25.357 L27.5750247,25.4527027 C28.6768997,25.5779756 29.7926285,25.6881574 30.9222106,25.7832422 L30.9223591,11.1328134 L34.6145811,11.1328134 L34.6139715,26.0375892 C36.425966,26.1354468 38.2717979,26.196412 40.151465,26.2204627 L40.1529141,11.1328134 L43.845136,11.1328134 L43.8465851,26.2204627 C45.7259088,26.1964164 47.5714098,26.135469 49.3830856,26.0376428 L49.383469,11.1328134 L53.075691,11.1328134 L53.0758395,25.7832422 C54.2315073,25.6859616 55.3726747,25.5728787 56.4993409,25.4439997 C55.7434298,17.3926482 54.9134503,9.42468498 54.0096509,1.53966769 C53.8158879,-0.150779551 56.262626,-0.625950662 56.7193504,1.01342793 Z M25.4597167,17.8110626 L20.093165,36.9133485 L3.76069391,94.7117444 C3.15765068,96.8355652 2.82702825,99.0275027 2.77611231,101.235191 L2.76916649,101.837639 L2.76916649,199.385538 C2.76916649,200.530255 2.84432329,201.673497 2.99405894,202.807942 L3.09284517,203.487494 L10.8971803,252.633262 C11.1659292,254.325638 12.4496966,255.670771 14.1152874,256.032178 L14.3169506,256.070784 L19.9186145,257.001215 L20.0228283,254.918036 L20.0549966,254.303593 L20.087738,253.692295 L20.2244162,251.277747 L20.2600095,250.681571 L20.2961705,250.088298 L20.4464743,247.743443 L20.5250097,246.587395 L20.6057912,245.441837 L20.7740645,243.18091 L20.8615422,242.064898 L20.9512377,240.958092 L21.1372542,238.770811 L21.2335609,237.689695 L21.3320573,236.6165 L21.5355905,234.492586 L21.7477972,232.396501 L21.8521188,231.405158 L21.9879188,230.202867 L23.2335693,220.009186 L23.6515691,216.531965 L24.0520647,213.047133 L24.2977915,210.70393 L24.3908538,209.678466 L24.4179057,209.333623 L24.4528225,208.767835 L24.460052,208.55121 L24.4609706,131.370508 C24.4609706,129.137452 24.2818257,126.908422 23.9254622,124.70472 L23.7835226,123.879561 L20.6392301,106.636744 C20.1049201,103.706349 19.8927927,100.72681 20.0066666,97.7510259 C21.0025411,71.711172 22.6845993,46.4398209 25.0529116,21.9369471 L25.3657138,18.7452782 L25.4597167,17.8110626 Z" id="形状结合" fill-opacity="0.7" fill="#999999" fill-rule="nonzero"></path>
        </g>
        <path d="M280.979845,264.000269 C280.927444,262.607498 280.75613,261.265117 280.488075,260.001344 L284.003023,260.001344 C284.525025,261.246977 284.855559,262.593389 284.962378,264.000269 L280.979845,264.000269 Z M280.488075,270.002687 C280.75613,268.736899 280.927444,267.394518 280.979845,265.999731 L284.960363,265.999731 C284.855559,267.408627 284.525025,268.753023 284.003023,270.002687 L280.488075,270.002687 Z M279.966073,272.00215 L282.957004,272.00215 C281.653006,274.035877 279.800806,275.680597 277.61001,276.730718 C278.577427,275.444773 279.381592,273.83835 279.966073,272.00215 Z M273.000672,272.00215 L277.900235,272.00215 C276.825999,275.116232 275.054417,277.3233 273.000672,277.873555 L273.000672,272.00215 Z M273.000672,265.999731 L278.980517,265.999731 C278.922069,267.408627 278.744709,268.753023 278.460531,270.002687 L273.000672,270.002687 L273.000672,265.999731 Z M273.000672,260.001344 L278.460531,260.001344 C278.744709,261.246977 278.918038,262.593389 278.980517,264.000269 L273.000672,264.000269 L273.000672,260.001344 Z M273.000672,252.12846 C275.054417,252.6767 276.825999,254.885783 277.900235,257.99785 L273.000672,257.99785 L273.000672,252.12846 Z M279.966073,257.99785 C279.381592,256.163666 278.581458,254.553212 277.61001,253.269282 C279.800806,254.319403 281.653006,255.966138 282.957004,257.99785 L279.966073,257.99785 Z M270.999328,257.99785 L266.099765,257.99785 C267.174001,254.885783 268.943567,252.6767 270.999328,252.12846 L270.999328,257.99785 Z M270.999328,264.000269 L265.019483,264.000269 C265.077931,262.593389 265.255291,261.246977 265.537454,260.001344 L270.999328,260.001344 L270.999328,264.000269 Z M270.999328,270.002687 L265.537454,270.002687 C265.255291,268.753023 265.077931,267.408627 265.019483,265.999731 L270.999328,265.999731 L270.999328,270.002687 Z M270.999328,277.873555 C268.943567,277.3233 267.174001,275.116232 266.099765,272.00215 L270.999328,272.00215 L270.999328,277.873555 Z M264.035942,272.00215 C264.620423,273.83835 265.422573,275.448804 266.38999,276.730718 C264.197178,275.680597 262.344978,274.035877 261.040981,272.00215 L264.035942,272.00215 Z M263.020155,265.999731 C263.074572,267.394518 263.24387,268.736899 263.511925,270.002687 L259.994961,270.002687 C259.47699,268.753023 259.144441,267.408627 259.037622,265.999731 L263.020155,265.999731 Z M263.511925,260.001344 C263.24387,261.265117 263.074572,262.607498 263.020155,264.000269 L259.037622,264.000269 C259.144441,262.593389 259.47699,261.246977 259.994961,260.001344 L263.511925,260.001344 Z M264.037958,257.99785 L261.040981,257.99785 C262.344978,255.966138 264.197178,254.319403 266.38999,253.269282 C265.424589,254.553212 264.622439,256.163666 264.037958,257.99785 Z M286.963722,264.000269 C286.471952,256.510347 280.488075,250.524053 273.000672,250.032249 L273.000672,250 L271.998992,250 L270.999328,250 L270.999328,250.032249 C263.511925,250.524053 257.526033,256.510347 257.034263,264.000269 L257,264.000269 L257,265 L257,265.999731 L257.034263,265.999731 C257.526033,273.489653 263.511925,279.473932 270.999328,279.965735 L270.999328,280 L271.998992,280 L273.000672,280 L273.000672,279.965735 C280.488075,279.473932 286.471952,273.489653 286.963722,265.999731 L287,265.999731 L287,265 L287,264.000269 L286.963722,264.000269 Z" id="Fill-90" fill="#009FD1"></path>
        <rect id="矩形" fill="#79CDFF" x="51" y="175" width="7" height="12"></rect>
        <rect id="矩形备份-9" fill="#79CDFF" x="237" y="175" width="7" height="12"></rect>
        <path d="M54.5,181 L54.5,273 C54.5,280.179702 60.3202983,286 67.5,286 L227.5,286 C234.679702,286 240.5,280.179702 240.5,273 L240.5,181 L240.5,181" id="直线-19" stroke="#5BAADA" stroke-width="5" stroke-linecap="round"></path>
        <g id="编组" transform="translate(106.999541, 32.999535)">
            <path d="M1.25003667,32.876829 C-4.42090116,56.0143037 9.73865803,79.3677356 32.8767273,85.0400291 L33.5856636,85.2074449 C37.3698879,86.0680646 41.2041539,86.4126196 45.0092694,86.249289 L45.641459,86.2164407 L45.6261565,86.6575101 C45.5491495,88.4680045 45.3416195,90.4545973 45.0400582,92.2044162 L44.3691896,96.0971524 L48.0297099,94.2696705 L48.3208874,94.113623 L48.661947,93.9202914 L49.0496235,93.6896165 L49.4806519,93.4215391 L49.9517671,93.1160003 C51.4320311,92.1364799 52.9102451,90.9657631 54.2948637,89.5986304 L54.685905,89.2045884 C56.3593595,87.4832876 57.7568969,85.5826333 58.7941499,83.4970883 L58.885459,83.3054407 L59.0525533,83.2408727 C71.9173323,78.1288758 81.6725644,67.1501971 85.0400365,53.4121539 C90.7110999,30.2753768 76.5509944,6.92104395 53.4132603,1.25004254 C30.2754919,-4.42096724 6.92106978,9.73896552 1.25003667,32.876829 Z M52.9371571,3.19254756 C75.0021571,8.60062449 88.5056186,30.8721629 83.0975417,52.9360091 C79.7213878,66.7094706 69.775234,77.1460091 57.4106186,81.729086 C56.193519,84.5500696 54.3243068,86.8253935 52.5045233,88.5477491 L52.0510132,88.9668136 C51.9004571,89.1026589 51.7506502,89.2346599 51.6019985,89.3628124 L51.1599152,89.7357201 L50.7271991,90.0855113 C50.6559957,90.141882 50.5852841,90.1972885 50.515115,90.2517303 L50.1010171,90.5667992 C50.0332212,90.6173797 49.9660694,90.6669944 49.8996123,90.7156428 L49.5096134,90.9959323 L49.1387254,91.2530039 L48.6235548,91.595022 L48.1650856,91.8846569 L47.7715391,92.121823 L47.1519216,92.470684 L47.0110032,92.544086 C47.4667725,89.8994706 47.7413878,86.5821629 47.6375417,84.0437014 C42.9840802,84.5560091 38.1633109,84.2756245 33.3529263,83.0975476 C11.2879263,77.6883168 -2.21553523,55.4179322 3.19254169,33.3529322 C8.60061861,11.2879322 30.8721571,-2.21552936 52.9371571,3.19254756 Z" id="Stroke-47" fill-opacity="0.5" fill="#999999" fill-rule="nonzero"></path>
            <g id="编组-2" transform="translate(19.393619, 3.153889)">
                <path d="M14.0821427,1.09912079e-13 L14.0672755,0.565434129 L14.0242224,2.09189205 L13.9776206,3.63246395 L13.9274702,5.18715009 L13.8737713,6.75595078 C13.8372012,7.79481874 13.7310039,8.91251645 13.558332,10.1684582 L13.4802691,10.715356 L13.4283492,11.0602782 L13.3455165,11.5867127 L13.2546542,12.1375541 L13.1169572,12.9363138 L12.6217029,15.700345 L12.3997642,16.9805337 L12.3046474,17.5601931 L12.2563047,17.869966 L12.1890871,18.3319095 L12.146341,18.660053 L12.1201367,18.8863785 L12.0922989,19.1671162 L12.0762651,19.3655425 L12.0606399,19.6192881 L12.049117,19.9284502 L12.0451206,20.1797407 L12.0451206,23.874963 L12.05393,37.8104501 L12.0762462,51.5302317 L12.1118623,64.1157803 C12.1125862,64.2881247 12.2351663,64.4307693 12.3974571,64.4637375 L12.469202,64.4709188 L14.0447385,64.3765625 L15.9067494,64.258184 L17.3300507,64.1625093 L18.694391,64.0659747 L20.3168724,63.9441029 L21.8471584,63.8209009 L23.0049808,63.7213864 L23.8345976,63.6461971 L24.8890711,63.5452101 L25.8844612,63.4433867 L26.8207484,63.3407309 L27.4841657,63.2631949 L28.1143183,63.1851944 L28.5159356,63.1329367 L29.0906288,63.0541655 L29.6320353,62.9749339 L30.6648361,62.8129576 L31.0906787,62.744201 L31.9340796,62.6047098 L32.7661167,62.4626766 L33.586408,62.3182156 L34.3945716,62.1714413 L34.5946728,62.1343996 L34.7939862,62.0972223 L35.5832421,61.9471922 L35.7785269,61.9093634 L35.972988,61.8714097 L36.7424768,61.7183812 L36.9327302,61.6798295 L37.1221243,61.6411637 L37.8709866,61.4853939 L38.0559939,61.4461837 L38.240106,61.4068701 L38.9674824,61.2486163 L39.6800576,61.0888493 L40.3774494,60.9276836 L41.059276,60.7652334 L41.2272559,60.7244336 L41.394233,60.6835624 L42.0519956,60.5193999 L42.6932381,60.3542387 L43.3175786,60.1881933 L43.9246351,60.0213779 L44.5140256,59.8539068 L45.0853682,59.6858944 L45.3641522,59.6017209 L45.638281,59.517455 L46.1188844,59.3658356 L46.2360775,59.3280595 L46.3520747,59.290341 L46.8039727,59.1401029 L47.2362143,58.9910269 L47.6483837,58.8433058 C48.5193722,58.5248505 49.2460915,58.2172948 49.8095136,57.9294685 C50.2506643,57.704105 50.5781401,57.4972992 50.7797738,57.3227904 C50.8111884,57.2956019 50.8381966,57.2703473 50.8608202,57.2474641 L50.8914699,57.2149728 L50.9221064,57.176965 L52.2260235,40.2487029 L52.2269482,10.2962052 C52.6956262,10.7464773 53.1530389,11.2073076 53.5988877,11.6782039 L53.5990144,40.2718995 L53.5969788,40.324836 L52.2896181,57.2957261 L52.2887674,57.3202442 C52.251286,57.9199493 51.6697327,58.4979859 50.577834,59.0852092 L50.3526597,59.2027855 L50.1060104,59.3244697 L50.0420999,59.3549477 L49.9772923,59.3854504 L49.7091104,59.507727 L49.6398323,59.5383673 L49.5696632,59.5690379 L49.2800971,59.6920426 L48.9763573,59.8156081 L48.6585098,59.9397948 L48.3266205,60.0646629 L47.9807554,60.190273 L47.6209803,60.3166852 L47.2473613,60.4439599 L46.8599644,60.5721574 L46.4588553,60.7013382 L46.0441002,60.8315624 L45.9052566,60.8744371 L45.7652473,60.9172848 L45.1936703,61.0883701 L44.6039153,61.2588822 L43.9963622,61.4287084 L43.3713914,61.597736 L43.2124717,61.6398549 L43.052493,61.6819151 L42.4021082,61.8495335 L42.2369241,61.8912737 L42.0707167,61.9329446 L41.3957732,62.0989002 L40.7049325,62.2636065 L39.9985746,62.4269507 L39.2770798,62.5888202 L39.0943855,62.6290439 L38.9107748,62.6691667 L38.1672873,62.8286127 L37.4096132,62.9863022 L36.6381327,63.1421226 L36.4431498,63.1807724 L36.2473338,63.2192966 L35.4558563,63.3721019 L34.6515227,63.5227562 L33.8347132,63.671147 L33.0058078,63.8171614 L32.1651868,63.9606869 L31.9532455,63.9961661 L31.7406017,64.031481 L30.88312,64.1710617 L30.4503184,64.23982 L30.0148729,64.3078716 L29.4767857,64.3884447 L28.9056557,64.4684858 L28.3014751,64.5479967 L27.8803225,64.6007101 L27.2072406,64.6809398 L26.7393889,64.7341218 L26.0089095,64.8134393 L25.2439803,64.8922119 L24.1704716,64.9963969 L23.0356837,65.0996199 L21.8395968,65.2018847 L20.2582558,65.3283743 L18.9241727,65.4284977 L17.1702731,65.5523229 L15.6980925,65.6503248 L13.7715077,65.7715107 L12.5222524,65.8465605 L12.4749802,65.8465605 C11.8202816,65.8492908 11.249071,65.4868548 10.953508,64.9500511 L6.90711496,64.631671 C6.78137718,64.774147 6.59760152,64.8639781 6.39289144,64.8639781 C6.03616892,64.8639781 5.74301513,64.5912 5.70976079,64.2424131 L5.70661923,64.1761729 L5.70661923,20.3094843 C5.70661923,19.6776069 5.67481785,19.0218482 5.61289459,18.3312538 L5.58572627,18.042459 L5.54036215,17.612975 L5.50656815,17.3255775 L5.44973279,16.8867883 L5.40726948,16.5855864 L5.33589746,16.1146892 L5.25433204,15.6135821 L5.16146967,15.074056 L5.05620679,14.487902 L4.85021467,13.3850652 L4.59379291,12.0307596 L4.41555248,11.0576321 L4.32306539,10.5320681 L4.2408385,10.0449069 L4.19148526,9.73931337 L4.12529927,9.30646275 L4.08619853,9.03303717 L4.0509516,8.77021684 L4.01941721,8.51670923 L3.99145411,8.27122182 L3.95589664,7.91520119 L3.93624376,7.68410947 L3.91966778,7.45651412 L3.90026398,7.11884935 L3.89076223,6.89434008 L3.88384297,6.66880333 L3.87799725,6.32574426 L3.8771869,6.20947726 L3.87864345,3.97488326 C4.33162457,3.72479031 4.78936013,3.48315734 5.25159688,3.25013793 L5.2518743,3.37693938 L5.249724,6.2063033 L5.25366412,6.52984466 L5.2627823,6.84839375 L5.27754812,7.1661208 L5.29076147,7.37954152 L5.30683272,7.59568594 L5.33660249,7.92771243 L5.36042718,8.15607196 L5.40247931,8.5122131 L5.43492703,8.76051038 L5.47106744,9.01894509 L5.53250621,9.42830779 L5.60303617,9.8674301 L5.71202956,10.5064271 L5.80559841,11.031206 L6.02517496,12.2159153 L6.28790019,13.6009686 L6.44616157,14.4594164 L6.54922842,15.0412371 L6.64014436,15.5792716 L6.7200304,16.0819528 L6.79000753,16.5577135 L6.85119675,17.0149866 L6.88766097,17.3137287 L6.92104981,17.6105006 L6.9491869,17.8875758 L7.05058797,2.39693049 C7.39677767,2.24284501 7.74520129,2.0934719 8.09575979,1.94887124 L7.6931869,63.6455758 L8.7461869,63.7285758 L8.74665514,54.7761682 C8.74665514,54.4877527 8.97994099,54.2539457 9.26771367,54.2539457 C9.53630151,54.2539457 9.75742526,54.4576175 9.7857147,54.7192663 L9.7887722,54.7761682 L9.7881869,63.8105758 L10.7381869,63.8855758 L10.7147703,56.1089879 L10.6813866,37.8121123 L10.6722213,20.3094843 L10.6747321,19.9886504 L10.6781453,19.8326028 L10.6850317,19.6332854 L10.6909696,19.5073125 L10.7070045,19.2508231 L10.7292326,18.9832802 L10.7669107,18.6241751 L10.8059144,18.3098441 L10.8619998,17.9034143 C10.7057616,17.8241052 10.5951285,17.6683292 10.578313,17.4859573 L10.5761524,17.4290141 L10.8349393,0.93099284 C11.1827043,0.815625648 11.5322158,0.704833899 11.8833854,0.598671352 L11.6851869,13.1455758 L11.8352753,12.2955679 L11.9901268,11.3698431 L12.071577,10.852319 L12.1699699,10.1860607 C12.3307478,9.05062576 12.4363287,8.03736293 12.484806,7.10312428 L12.5020803,6.70744871 L12.5293148,5.92297622 L12.6057067,3.59074616 L12.6522086,2.05358266 L12.6951698,0.530544732 L12.6987636,0.361339413 C13.1572826,0.233003582 13.6184734,0.112518063 14.0821427,1.09912079e-13 Z M38.7969289,1.70129423 L38.7342793,2.06615541 C38.6042022,2.89522776 38.538631,3.73416582 38.538631,4.57541506 L38.538631,41.1131606 C38.538631,41.6814831 38.6932029,42.2391044 38.9857969,42.7263202 L41.6748007,47.2039422 L38.651779,43.9679181 C38.2894584,43.5800683 37.6938648,43.5256292 37.2672342,43.8413662 L23.9031723,53.7317232 L35.2400598,43.5377472 C36.3415085,42.5473395 36.9705461,41.135776 36.9705461,39.6545277 L36.9705461,4.87542654 C36.9705461,3.43204666 36.6382037,2.01147239 36.0034042,0.722478456 C36.9523114,1.01679854 37.883873,1.34384345 38.7969289,1.70129423 Z M9.99491618,1.21975698 L9.78874899,23.186637 C9.7862139,23.4558128 9.58091796,23.6754983 9.31959701,23.7013801 L9.26279561,23.7039072 C8.99421974,23.7013664 8.77502393,23.4956119 8.74919984,23.2337072 L8.74667835,23.1767789 L8.94924579,1.60789165 C9.29586291,1.47387115 9.64445072,1.34447412 9.99491618,1.21975698 Z" id="形状结合" fill="#999999" fill-rule="nonzero" opacity="0.902563186"></path>
                <g id="路径" fill-rule="nonzero">
                    <use fill="black" fill-opacity="1" filter="url(#filter-2)" xlink:href="#path-1"></use>
                    <use fill="#E0E0E0" xlink:href="#path-1"></use>
                </g>
                <path d="M3.87643454,6.20947726 C3.89621897,10.5063377 5.70586687,15.4614743 5.70586687,20.3094843 C5.70586687,41.0338282 5.70586687,54.6116128 5.70586687,61.042838 C5.70586687,62.068888 5.70586687,63.0949381 5.70586687,64.1209882 C5.70586687,64.3243779 5.78236153,64.5203285 5.92015939,64.6699251 L5.92015939,64.6699251 L5.92015939,64.6699251 L5.0477275,64.3852402 C4.18833128,64.1048091 3.6068402,63.3033951 3.6068402,62.399402 L3.6068402,4.22402958 L3.6068402,4.22402958 L3.87643454,4.00149063 L3.87643454,6.20947726 Z" id="路径-5备份-2" fill="#AAAAAA" fill-rule="nonzero" opacity="0.440957932"></path>
                <path d="M0,37.9362229 C0,48.4464699 4.02980968,56.9669552 8.99931208,56.9669552 C13.9701903,56.9669552 18,48.4464699 18,37.9362229 C18,27.4288849 13.9701903,18.9083996 8.99931208,18.9083996 C4.02980968,18.9083996 0,27.4288849 0,37.9362229" id="Fill-20" fill="#FFFFFF" opacity="0.5" filter="url(#filter-3)"></path>
            </g>
        </g>
    </g>
</svg>