<?xml version="1.0" encoding="UTF-8"?>
<svg width="300px" height="300px" viewBox="0 0 300 300" version="1.1" xmlns="http://www.w3.org/2000/svg" xmlns:xlink="http://www.w3.org/1999/xlink">
    <title>img/常见问题/img_m6s_networking</title>
    <defs>
        <filter x="-112.5%" y="-51.4%" width="325.0%" height="202.9%" filterUnits="objectBoundingBox" id="filter-1">
            <feGaussianBlur stdDeviation="6" in="SourceGraphic"></feGaussianBlur>
        </filter>
    </defs>
    <g id="img/常见问题/img_m6s_networking" stroke="none" stroke-width="1" fill="none" fill-rule="evenodd">
        <g id="编组-2" transform="translate(15.000000, 20.000000)">
            <path d="M45.7551078,85.7710048 L38.2522664,85.7710048 C35.9255192,85.7710048 34.039318,87.6516662 34.039318,89.9715795 L34.039318,97.4369946 C34.039318,99.7569079 35.9255192,101.637569 38.2522664,101.637569 L45.7551078,101.637569 C48.081855,101.637569 49.9680562,99.7569079 49.9680562,97.4369946 L49.9680562,89.9715795 C49.9680562,87.6516662 48.081855,85.7710048 45.7551078,85.7710048 Z M38.2522664,86.6913492 L45.7551078,86.6913492 C47.5720655,86.6913492 49.0450007,88.1599584 49.0450007,89.9715795 L49.0450007,97.4369946 C49.0450007,99.2486158 47.5720655,100.717225 45.7551078,100.717225 L38.2522664,100.717225 C36.4353087,100.717225 34.9623735,99.2486158 34.9623735,97.4369946 L34.9623735,89.9715795 C34.9623735,88.1599584 36.4353087,86.6913492 38.2522664,86.6913492 Z" id="矩形备份-9" fill-opacity="0.7" fill="#999999" fill-rule="nonzero"></path>
            <path d="M34.6021341,82.7960374 C34.8909935,82.7960374 35.1385873,82.7138332 35.3449154,82.5494248 C35.5662492,82.3738067 35.7050518,82.1309306 35.7650745,81.81706 L35.3374125,81.81706 C35.2848927,82.018834 35.1948586,82.1720327 35.0673103,82.2729197 C34.9472648,82.362597 34.7897051,82.4111723 34.5983827,82.4111723 C34.3057719,82.4111723 34.0881895,82.3177584 33.9493869,82.1384037 C33.8218386,81.9702588 33.7580644,81.7273827 33.7580644,81.4135121 C33.7580644,81.1071146 33.8218386,80.867975 33.9531383,80.6960935 C34.0956923,80.5017926 34.3057719,80.4083788 34.5871284,80.4083788 C34.7746994,80.4083788 34.9285077,80.4457443 35.0485532,80.5279485 C35.17235,80.6101527 35.2548813,80.7371956 35.2998983,80.9128137 L35.7275603,80.9128137 C35.6862947,80.6437817 35.5700006,80.4270615 35.3749268,80.2701262 C35.17235,80.1057178 34.9097506,80.0235136 34.5946313,80.0235136 C34.1669693,80.0235136 33.8405957,80.1617661 33.6155105,80.4457443 C33.4166852,80.692357 33.3191482,81.0174372 33.3191482,81.4135121 C33.3191482,81.81706 33.4129337,82.1384037 33.6042562,82.3775433 C33.8218386,82.6540483 34.155715,82.7960374 34.6021341,82.7960374 Z M37.3669311,82.7960374 C37.775836,82.7960374 38.0984582,82.665258 38.3347977,82.4036992 C38.5598829,82.15335 38.6724255,81.8245331 38.6724255,81.4135121 C38.6724255,81.002491 38.5598829,80.6699376 38.3347977,80.4195884 C38.0984582,80.154293 37.775836,80.0235136 37.3669311,80.0235136 C36.9542749,80.0235136 36.6316527,80.154293 36.3990646,80.423325 C36.1739794,80.6774107 36.0651882,81.0062276 36.0651882,81.4135121 C36.0651882,81.81706 36.1739794,82.1458769 36.3990646,82.3999626 C36.6316527,82.6615215 36.9542749,82.7960374 37.3669311,82.7960374 Z M37.3669311,82.4111723 C37.089326,82.4111723 36.8717436,82.3177584 36.7216868,82.1346672 C36.5753814,81.9553126 36.5041044,81.716173 36.5041044,81.4135121 C36.5041044,81.1071146 36.5753814,80.867975 36.7216868,80.6886204 C36.875495,80.5017926 37.089326,80.4083788 37.3669311,80.4083788 C37.6445363,80.4083788 37.8583672,80.4943195 38.0084241,80.6736742 C38.1547295,80.8530288 38.2297579,81.0996415 38.2297579,81.4135121 C38.2297579,81.7273827 38.1547295,81.9702588 38.0084241,82.1458769 C37.8583672,82.3214949 37.6445363,82.4111723 37.3669311,82.4111723 Z M39.523998,82.7437257 L39.523998,80.7932439 L39.5390037,80.7932439 L40.8782609,82.7437257 L41.3059229,82.7437257 L41.3059229,80.0758254 L40.8632552,80.0758254 L40.8632552,82.0001512 L40.8482495,82.0001512 L39.523998,80.0758254 L39.0850818,80.0758254 L39.0850818,82.7437257 L39.523998,82.7437257 Z M42.270038,82.7437257 L42.270038,80.7932439 L42.2850437,80.7932439 L43.6243008,82.7437257 L44.0519628,82.7437257 L44.0519628,80.0758254 L43.6092952,80.0758254 L43.6092952,82.0001512 L43.5942895,82.0001512 L42.270038,80.0758254 L41.8311218,80.0758254 L41.8311218,82.7437257 L42.270038,82.7437257 Z M46.5729175,82.7437257 L46.5729175,82.3700702 L45.0160779,82.3700702 L45.0160779,81.5629743 L46.4191093,81.5629743 L46.4191093,81.1893188 L45.0160779,81.1893188 L45.0160779,80.4494809 L46.5091434,80.4494809 L46.5091434,80.0758254 L44.5771617,80.0758254 L44.5771617,82.7437257 L46.5729175,82.7437257 Z M48.156017,82.7960374 C48.4448764,82.7960374 48.6924702,82.7138332 48.8987983,82.5494248 C49.1201322,82.3738067 49.2589347,82.1309306 49.3189575,81.81706 L48.8912955,81.81706 C48.8387756,82.018834 48.7487415,82.1720327 48.6211932,82.2729197 C48.5011477,82.362597 48.3435881,82.4111723 48.1522656,82.4111723 C47.8596548,82.4111723 47.6420724,82.3177584 47.5032698,82.1384037 C47.3757215,81.9702588 47.3119474,81.7273827 47.3119474,81.4135121 C47.3119474,81.1071146 47.3757215,80.867975 47.5070213,80.6960935 C47.6495752,80.5017926 47.8596548,80.4083788 48.1410114,80.4083788 C48.3285824,80.4083788 48.4823906,80.4457443 48.6024361,80.5279485 C48.726233,80.6101527 48.8087642,80.7371956 48.8537813,80.9128137 L49.2814432,80.9128137 C49.2401776,80.6437817 49.1238836,80.4270615 48.9288097,80.2701262 C48.726233,80.1057178 48.4636335,80.0235136 48.1485142,80.0235136 C47.7208522,80.0235136 47.3944786,80.1617661 47.1693934,80.4457443 C46.9705681,80.692357 46.8730312,81.0174372 46.8730312,81.4135121 C46.8730312,81.81706 46.9668167,82.1384037 47.1581391,82.3775433 C47.3757215,82.6540483 47.709598,82.7960374 48.156017,82.7960374 Z M50.8420342,82.7437257 L50.8420342,80.4494809 L51.7198667,80.4494809 L51.7198667,80.0758254 L49.5252856,80.0758254 L49.5252856,80.4494809 L50.403118,80.4494809 L50.403118,82.7437257 L50.8420342,82.7437257 Z" id="CONNECT" fill="#999999" fill-rule="nonzero"></path>
            <path d="M43.5412167,214.021359 L44.0664155,212.014829 L44.0814212,212.014829 L44.6028687,214.021359 L45.0680449,214.021359 L45.8408375,211.353458 L45.34565,211.353458 L44.8429596,213.382408 L44.8279539,213.382408 L44.2990036,211.353458 L43.8450817,211.353458 L43.3161314,213.382408 L43.3011257,213.382408 L42.7984354,211.353458 L42.3032478,211.353458 L43.0722891,214.021359 L43.5412167,214.021359 Z M46.3285222,214.021359 L46.5723646,213.352515 L47.6940394,213.352515 L47.9378817,214.021359 L48.4068093,214.021359 L47.3826714,211.353458 L46.8837325,211.353458 L45.8595946,214.021359 L46.3285222,214.021359 Z M47.5627396,212.993806 L46.7036643,212.993806 L47.1275748,211.824264 L47.1425805,211.824264 L47.5627396,212.993806 Z M49.108325,214.021359 L49.108325,212.070877 L49.1233306,212.070877 L50.4625878,214.021359 L50.8902498,214.021359 L50.8902498,211.353458 L50.4475821,211.353458 L50.4475821,213.277784 L50.4325765,213.277784 L49.108325,211.353458 L48.6694087,211.353458 L48.6694087,214.021359 L49.108325,214.021359 Z M34.3336854,211.221443 C34.0345997,211.221443 33.7906087,211.314469 33.6095831,211.507965 C33.4324929,211.686576 33.3419801,211.924725 33.3380448,212.22241 L33.7669966,212.22241 C33.7748673,212.006588 33.8220914,211.846582 33.9165395,211.73495 C34.0070523,211.619597 34.1408538,211.563781 34.317944,211.563781 C34.4832282,211.563781 34.6130944,211.600992 34.6996719,211.675413 C34.7862493,211.749834 34.829538,211.861466 34.829538,212.010309 C34.829538,212.166594 34.7626373,212.311716 34.6367064,212.445674 C34.5579997,212.523817 34.4241982,212.624286 34.2353019,212.750802 C33.9165395,212.959182 33.7040312,213.119188 33.6017124,213.234541 C33.4128162,213.435479 33.3223034,213.666185 33.3223034,213.930381 L35.2584899,213.930381 L35.2584899,213.573158 L33.8535741,213.573158 C33.9126042,213.428037 34.0936297,213.260588 34.3966508,213.070814 C34.6760598,212.892203 34.8688914,212.750802 34.9790809,212.642891 C35.1601065,212.453116 35.2545546,212.244737 35.2545546,212.01403 C35.2545546,211.779603 35.1679771,211.589828 34.9987576,211.440986 C34.8256027,211.292143 34.6012884,211.221443 34.3336854,211.221443 Z M36.0062042,213.398268 C35.9196268,213.398268 35.852726,213.424315 35.8015666,213.47641 C35.7425365,213.528505 35.7149892,213.595485 35.7149892,213.677348 C35.7149892,213.75177 35.7425365,213.818749 35.8015666,213.874565 C35.852726,213.922939 35.9196268,213.948986 36.0062042,213.948986 C36.084911,213.948986 36.1557471,213.922939 36.2147772,213.874565 C36.2698719,213.818749 36.3013546,213.75177 36.3013546,213.677348 C36.3013546,213.595485 36.2698719,213.528505 36.2147772,213.47641 C36.1557471,213.424315 36.084911,213.398268 36.0062042,213.398268 Z M36.9152674,211.273538 L36.7617892,212.761965 L37.1631937,212.761965 C37.2182885,212.665217 37.2930599,212.594517 37.3953787,212.549864 C37.4898268,212.505211 37.596081,212.486606 37.7220118,212.486606 C37.910908,212.486606 38.0525802,212.538701 38.154899,212.642891 C38.2572178,212.747081 38.3083772,212.892203 38.3083772,213.078256 C38.3083772,213.249425 38.2493471,213.383384 38.131287,213.487574 C38.0132268,213.588043 37.8676193,213.640137 37.6944644,213.640137 C37.5370509,213.640137 37.41112,213.606648 37.3166719,213.539669 C37.2104178,213.465247 37.1474524,213.349894 37.131711,213.201051 L36.7106298,213.201051 C36.7303065,213.446642 36.840496,213.643859 37.0411982,213.785259 C37.2222238,213.915497 37.4386674,213.982476 37.6905291,213.982476 C37.9699381,213.982476 38.2099937,213.904333 38.410696,213.748048 C38.6232043,213.573158 38.7333938,213.349894 38.7333938,213.074535 C38.7333938,212.788013 38.6468163,212.564749 38.4815321,212.401021 C38.3162479,212.237294 38.0998043,212.155431 37.8361366,212.155431 C37.7102058,212.155431 37.5921456,212.174036 37.4898268,212.214968 C37.375702,212.252179 37.2773185,212.311716 37.1907411,212.3973 L37.1789351,212.3973 L37.2615772,211.63076 L38.6074629,211.63076 L38.6074629,211.273538 L36.9152674,211.273538 Z M40.3941066,211.221443 C39.980896,211.221443 39.6503276,211.355401 39.4063366,211.63076 C39.1741517,211.887514 39.0600269,212.214968 39.0600269,212.613122 C39.0600269,213.007556 39.1741517,213.331289 39.4063366,213.5806 C39.654263,213.848517 40.0005727,213.982476 40.4492013,213.982476 C40.6931923,213.982476 40.9175066,213.952707 41.1221442,213.89317 C41.3149758,213.833633 41.4841953,213.75177 41.6298029,213.643859 L41.6298029,212.527538 L40.4255893,212.527538 L40.4255893,212.873597 L41.200851,212.873597 L41.200851,213.450363 C41.1064028,213.506179 41.004084,213.550832 40.8860239,213.5806 C40.7640284,213.610369 40.6341622,213.628974 40.4964254,213.628974 C40.1461803,213.628974 39.8864479,213.535948 39.7211637,213.349894 C39.5637502,213.178725 39.4889787,212.933134 39.4889787,212.613122 C39.4889787,212.285668 39.5716209,212.028915 39.7447757,211.842861 C39.9061246,211.66425 40.1225682,211.578665 40.3941066,211.578665 C40.6144855,211.578665 40.7955111,211.623318 40.9293126,211.716345 C41.0631141,211.80565 41.1496916,211.939609 41.189045,212.11822 L41.6219322,212.11822 C41.5707728,211.820535 41.444842,211.600992 41.2441397,211.452149 C41.0355668,211.295864 40.7522224,211.221443 40.3941066,211.221443 Z" id="形状结合" fill="#999999" fill-rule="nonzero"></path>
            <path d="M40.5592385,109.646922 L40.5592385,109.273266 L39.1111901,109.273266 L39.1111901,106.979022 L38.6760253,106.979022 L38.6760253,109.646922 L40.5592385,109.646922 Z M41.1031945,109.646922 L41.3470368,108.978078 L42.4687116,108.978078 L42.7125539,109.646922 L43.1814815,109.646922 L42.1573437,106.979022 L41.6584047,106.979022 L40.6342669,109.646922 L41.1031945,109.646922 Z M42.3374119,108.619369 L41.4783365,108.619369 L41.9022471,107.449827 L41.9172527,107.449827 L42.3374119,108.619369 Z M43.8829972,109.646922 L43.8829972,107.69644 L43.8980029,107.69644 L45.2372601,109.646922 L45.664922,109.646922 L45.664922,106.979022 L45.2222544,106.979022 L45.2222544,108.903347 L45.2072487,108.903347 L43.8829972,106.979022 L43.444081,106.979022 L43.444081,109.646922 L43.8829972,109.646922 Z" id="LAN" fill="#999999" fill-rule="nonzero"></path>
            <path d="M35.7386086,239.243105 L35.7386086,238.219289 L36.40261,238.219289 C37.0553572,238.219289 37.3817308,237.942784 37.3817308,237.39351 C37.3817308,236.847973 37.0553572,236.575205 36.4101129,236.575205 L35.2996923,236.575205 L35.2996923,239.243105 L35.7386086,239.243105 Z M36.3763501,237.845634 L35.7386086,237.845634 L35.7386086,236.94886 L36.3763501,236.94886 C36.5676725,236.94886 36.7102265,236.982489 36.8002606,237.053484 C36.8902947,237.120742 36.9390632,237.232839 36.9390632,237.39351 C36.9390632,237.554182 36.8940461,237.670015 36.804012,237.74101 C36.7139779,237.808268 36.5714239,237.845634 36.3763501,237.845634 Z M38.9460732,239.295417 C39.3549781,239.295417 39.6776003,239.164637 39.9139398,238.903079 C40.139025,238.652729 40.2515676,238.323913 40.2515676,237.912892 C40.2515676,237.50187 40.139025,237.169317 39.9139398,236.918968 C39.6776003,236.653673 39.3549781,236.522893 38.9460732,236.522893 C38.533417,236.522893 38.2107948,236.653673 37.9782067,236.922704 C37.7531215,237.17679 37.6443303,237.505607 37.6443303,237.912892 C37.6443303,238.316439 37.7531215,238.645256 37.9782067,238.899342 C38.2107948,239.160901 38.533417,239.295417 38.9460732,239.295417 Z M38.9460732,238.910552 C38.6684681,238.910552 38.4508857,238.817138 38.3008289,238.634047 C38.1545235,238.454692 38.0832465,238.215552 38.0832465,237.912892 C38.0832465,237.606494 38.1545235,237.367355 38.3008289,237.188 C38.4546371,237.001172 38.6684681,236.907758 38.9460732,236.907758 C39.2236784,236.907758 39.4375094,236.993699 39.5875662,237.173054 C39.7338716,237.352408 39.8089,237.599021 39.8089,237.912892 C39.8089,238.226762 39.7338716,238.469638 39.5875662,238.645256 C39.4375094,238.820874 39.2236784,238.910552 38.9460732,238.910552 Z M41.6583504,239.243105 L42.1835493,237.236575 L42.198555,237.236575 L42.7200025,239.243105 L43.1851786,239.243105 L43.9579713,236.575205 L43.4627838,236.575205 L42.9600934,238.604154 L42.9450877,238.604154 L42.4161374,236.575205 L41.9622155,236.575205 L41.4332652,238.604154 L41.4182595,238.604154 L40.9155691,236.575205 L40.4203816,236.575205 L41.1894228,239.243105 L41.6583504,239.243105 Z M46.2350836,239.243105 L46.2350836,238.86945 L44.6782441,238.86945 L44.6782441,238.062354 L46.0812754,238.062354 L46.0812754,237.688698 L44.6782441,237.688698 L44.6782441,236.94886 L46.1713095,236.94886 L46.1713095,236.575205 L44.2393278,236.575205 L44.2393278,239.243105 L46.2350836,239.243105 Z M47.0866561,239.243105 L47.0866561,238.155768 L47.780669,238.155768 C47.9307258,238.155768 48.0470198,238.18566 48.1257997,238.252918 C48.2008281,238.316439 48.2458451,238.421063 48.2608508,238.566789 L48.2946136,238.895606 C48.3096193,239.045068 48.3471335,239.160901 48.4109076,239.243105 L48.8873381,239.243105 C48.797304,239.145955 48.7410327,239.015175 48.726027,238.850767 L48.6810099,238.421063 C48.6509986,238.159504 48.5196988,238.006305 48.2871108,237.953994 L48.2871108,237.946521 C48.4296647,237.909155 48.5459588,237.830687 48.62849,237.711118 C48.7035185,237.602757 48.7410327,237.479451 48.7410327,237.341199 C48.7410327,237.087113 48.65475,236.892812 48.4896875,236.758296 C48.3321278,236.63499 48.1145454,236.575205 47.8406917,236.575205 L46.6477399,236.575205 L46.6477399,239.243105 L47.0866561,239.243105 Z M47.780669,237.782112 L47.0866561,237.782112 L47.0866561,236.94886 L47.780669,236.94886 C47.9607372,236.94886 48.0920369,236.978753 48.1745681,237.046011 C48.2570994,237.109532 48.298365,237.214156 48.298365,237.359881 C48.298365,237.494397 48.2570994,237.599021 48.1745681,237.673752 C48.084534,237.744747 47.9532343,237.782112 47.780669,237.782112 Z" id="POWER" fill="#999999" fill-rule="nonzero"></path>
            <path d="M36.6147713,64.9950893 L36.6147713,63.9077518 L37.3087841,63.9077518 C37.4588409,63.9077518 37.575135,63.9376442 37.6539148,64.0049022 C37.7289432,64.0684237 37.7739603,64.1730472 37.788966,64.3187729 L37.8227288,64.6475897 C37.8377344,64.7970519 37.8752486,64.9128851 37.9390228,64.9950893 L38.4154532,64.9950893 C38.3254191,64.8979389 38.2691478,64.7671595 38.2541421,64.602751 L38.2091251,64.1730472 C38.1791137,63.9114884 38.047814,63.7582896 37.8152259,63.7059778 L37.8152259,63.6985047 C37.9577799,63.6611392 38.0740739,63.5826715 38.1566052,63.4631018 C38.2316336,63.3547417 38.2691478,63.2314353 38.2691478,63.0931828 C38.2691478,62.8390971 38.1828651,62.6447962 38.0178026,62.5102802 C37.860243,62.3869739 37.6426606,62.327189 37.3688068,62.327189 L36.1758551,62.327189 L36.1758551,64.9950893 L36.6147713,64.9950893 Z M37.3087841,63.5340963 L36.6147713,63.5340963 L36.6147713,62.7008445 L37.3087841,62.7008445 C37.4888523,62.7008445 37.620152,62.730737 37.7026833,62.797995 C37.7852145,62.8615164 37.8264802,62.9661399 37.8264802,63.1118656 C37.8264802,63.2463816 37.7852145,63.3510051 37.7026833,63.4257362 C37.6126492,63.4967307 37.4813495,63.5340963 37.3087841,63.5340963 Z M40.7863511,64.9950893 L40.7863511,64.6214338 L39.2295115,64.6214338 L39.2295115,63.8143379 L40.6325428,63.8143379 L40.6325428,63.4406824 L39.2295115,63.4406824 L39.2295115,62.7008445 L40.7225769,62.7008445 L40.7225769,62.327189 L38.7905953,62.327189 L38.7905953,64.9950893 L40.7863511,64.9950893 Z M42.1893824,65.0474011 C42.5307617,65.0474011 42.7971126,64.9764065 42.9846836,64.8418906 C43.1722547,64.703638 43.2660402,64.5130737 43.2660402,64.2739342 C43.2660402,64.0273216 43.1497461,63.8367573 42.917158,63.6985047 C42.8121183,63.6387198 42.5795302,63.5490425 42.2156424,63.4369459 C41.9680486,63.3584782 41.8142404,63.3024299 41.7579691,63.2725374 C41.6304208,63.2052795 41.570398,63.1118656 41.570398,62.9997689 C41.570398,62.8727261 41.6229179,62.7793122 41.7354605,62.7232639 C41.8254946,62.6746886 41.9530429,62.6522693 42.1218569,62.6522693 C42.3169307,62.6522693 42.4669876,62.6858983 42.5645245,62.7606294 C42.6620614,62.831624 42.7333384,62.9511937 42.7708526,63.1156021 L43.2060174,63.1156021 C43.1797575,62.8241508 43.0709663,62.6074307 42.8833953,62.4691781 C42.7070785,62.3383987 42.4594847,62.2748773 42.1443654,62.2748773 C41.855506,62.2748773 41.6191665,62.3383987 41.4315955,62.4691781 C41.2290187,62.6036941 41.1314818,62.7905218 41.1314818,63.0259248 C41.1314818,63.2613278 41.2327702,63.4406824 41.4390983,63.5639887 C41.5178781,63.6088274 41.7242063,63.6835585 42.0543313,63.788182 C42.3506935,63.8778594 42.5232589,63.9376442 42.5757788,63.9638001 C42.7408413,64.0460043 42.827124,64.158101 42.827124,64.3000901 C42.827124,64.4121867 42.7671012,64.4981275 42.6545586,64.5653855 C42.542016,64.6289069 42.3844563,64.6625359 42.1893824,64.6625359 C41.9680486,64.6625359 41.8067375,64.6214338 41.7016977,64.5467027 C41.5854037,64.4607619 41.5141267,64.3150363 41.4841153,64.1132623 L41.0489505,64.1132623 C41.0677076,64.4532888 41.1915045,64.6999015 41.4165898,64.8568368 C41.6004094,64.9838796 41.8592574,65.0474011 42.1893824,65.0474011 Z M45.636938,64.9950893 L45.636938,64.6214338 L44.0800985,64.6214338 L44.0800985,63.8143379 L45.4831298,63.8143379 L45.4831298,63.4406824 L44.0800985,63.4406824 L44.0800985,62.7008445 L45.5731639,62.7008445 L45.5731639,62.327189 L43.6411822,62.327189 L43.6411822,64.9950893 L45.636938,64.9950893 Z M47.1600148,64.9950893 L47.1600148,62.7008445 L48.0378473,62.7008445 L48.0378473,62.327189 L45.8432662,62.327189 L45.8432662,62.7008445 L46.7210986,62.7008445 L46.7210986,64.9950893 L47.1600148,64.9950893 Z" id="RESET" fill="#999999" fill-rule="nonzero"></path>
            <ellipse id="椭圆形备份-2" fill-opacity="0.5" fill="#999999" cx="42.4726147" cy="68.94961" rx="1.40678276" ry="1.40120813"></ellipse>
            <ellipse id="椭圆形备份-3" fill-opacity="0.5" fill="#999999" cx="40.1279768" cy="228.718475" rx="4.68927586" ry="4.67069378"></ellipse>
            <path d="M41.5495592,172.766238 L41.5498323,174.459238 L44.121962,174.460143 L44.1228323,177.847238 L45.8368971,177.847953 L45.8378323,178.694238 L47.5518323,178.694906 L47.5518323,183.77662 L45.8378323,183.776238 L45.8368971,184.623573 L44.1228323,184.623238 L44.121962,188.011383 L41.5498323,188.011238 L41.5495592,189.705288 L37.2622213,189.705288 L37.2628323,188.011238 L35.5472861,188.011383 L35.5472861,174.460143 L37.2628323,174.459238 L37.2622213,172.766238 L41.5495592,172.766238 Z M41.1494077,185.195541 L37.1478923,185.195541 L37.1478923,186.075491 L41.1494077,186.075491 L41.1494077,185.195541 Z M41.1494077,183.43564 L37.1478923,183.43564 L37.1478923,184.31559 L41.1494077,184.31559 L41.1494077,183.43564 Z M41.1494077,181.675738 L37.1478923,181.675738 L37.1478923,182.555689 L41.1494077,182.555689 L41.1494077,181.675738 Z M41.1494077,179.915837 L37.1478923,179.915837 L37.1478923,180.795788 L41.1494077,180.795788 L41.1494077,179.915837 Z M41.1494077,178.155936 L37.1478923,178.155936 L37.1478923,179.035887 L41.1494077,179.035887 L41.1494077,178.155936 Z M41.1494077,176.396035 L37.1478923,176.396035 L37.1478923,177.275985 L41.1494077,177.275985 L41.1494077,176.396035 Z" id="形状结合备份-2" fill-opacity="0.5" fill="#999999"></path>
            <path d="M41.5495592,152.837945 L41.5498323,154.530945 L44.121962,154.53185 L44.1228323,157.918945 L45.8368971,157.91966 L45.8378323,158.765945 L47.5518323,158.766612 L47.5518323,163.848327 L45.8378323,163.847945 L45.8368971,164.69528 L44.1228323,164.694945 L44.121962,168.083089 L41.5498323,168.082945 L41.5495592,169.776994 L37.2622213,169.776994 L37.2628323,168.082945 L35.5472861,168.083089 L35.5472861,154.53185 L37.2628323,154.530945 L37.2622213,152.837945 L41.5495592,152.837945 Z M41.1494077,165.267247 L37.1478923,165.267247 L37.1478923,166.147198 L41.1494077,166.147198 L41.1494077,165.267247 Z M41.1494077,163.507346 L37.1478923,163.507346 L37.1478923,164.387297 L41.1494077,164.387297 L41.1494077,163.507346 Z M41.1494077,161.747445 L37.1478923,161.747445 L37.1478923,162.627396 L41.1494077,162.627396 L41.1494077,161.747445 Z M41.1494077,159.987544 L37.1478923,159.987544 L37.1478923,160.867494 L41.1494077,160.867494 L41.1494077,159.987544 Z M41.1494077,158.227642 L37.1478923,158.227642 L37.1478923,159.107593 L41.1494077,159.107593 L41.1494077,158.227642 Z M41.1494077,156.467741 L37.1478923,156.467741 L37.1478923,157.347692 L41.1494077,157.347692 L41.1494077,156.467741 Z" id="形状结合备份" fill-opacity="0.5" fill="#999999"></path>
            <path d="M41.5495592,132.909651 L41.5498323,134.602651 L44.121962,134.603556 L44.1228323,137.990651 L45.8368971,137.991366 L45.8378323,138.837651 L47.5518323,138.838319 L47.5518323,143.920034 L45.8378323,143.919651 L45.8368971,144.766986 L44.1228323,144.766651 L44.121962,148.154796 L41.5498323,148.154651 L41.5495592,149.848701 L37.2622213,149.848701 L37.2628323,148.154651 L35.5472861,148.154796 L35.5472861,134.603556 L37.2628323,134.602651 L37.2622213,132.909651 L41.5495592,132.909651 Z M41.1494077,145.338954 L37.1478923,145.338954 L37.1478923,146.218905 L41.1494077,146.218905 L41.1494077,145.338954 Z M41.1494077,143.579053 L37.1478923,143.579053 L37.1478923,144.459003 L41.1494077,144.459003 L41.1494077,143.579053 Z M41.1494077,141.819151 L37.1478923,141.819151 L37.1478923,142.699102 L41.1494077,142.699102 L41.1494077,141.819151 Z M41.1494077,140.05925 L37.1478923,140.05925 L37.1478923,140.939201 L41.1494077,140.939201 L41.1494077,140.05925 Z M41.1494077,138.299349 L37.1478923,138.299349 L37.1478923,139.1793 L41.1494077,139.1793 L41.1494077,138.299349 Z M41.1494077,136.539448 L37.1478923,136.539448 L37.1478923,137.419398 L41.1494077,137.419398 L41.1494077,136.539448 Z" id="形状结合" fill-opacity="0.5" fill="#999999"></path>
            <path d="M41.5495592,112.981358 L41.5498323,114.674358 L44.121962,114.675263 L44.1228323,118.062358 L45.8368971,118.063073 L45.8378323,118.909358 L47.5518323,118.910025 L47.5518323,123.99174 L45.8378323,123.991358 L45.8368971,124.838693 L44.1228323,124.838358 L44.121962,128.226503 L41.5498323,128.226358 L41.5495592,129.920407 L37.2622213,129.920407 L37.2628323,128.226358 L35.5472861,128.226503 L35.5472861,114.675263 L37.2628323,114.674358 L37.2622213,112.981358 L41.5495592,112.981358 Z M41.1494077,125.410661 L37.1478923,125.410661 L37.1478923,126.290611 L41.1494077,126.290611 L41.1494077,125.410661 Z M41.1494077,123.650759 L37.1478923,123.650759 L37.1478923,124.53071 L41.1494077,124.53071 L41.1494077,123.650759 Z M41.1494077,121.890858 L37.1478923,121.890858 L37.1478923,122.770809 L41.1494077,122.770809 L41.1494077,121.890858 Z M41.1494077,120.130957 L37.1478923,120.130957 L37.1478923,121.010907 L41.1494077,121.010907 L41.1494077,120.130957 Z M41.1494077,118.371056 L37.1478923,118.371056 L37.1478923,119.251006 L41.1494077,119.251006 L41.1494077,118.371056 Z M41.1494077,116.611154 L37.1478923,116.611154 L37.1478923,117.491105 L41.1494077,117.491105 L41.1494077,116.611154 Z" id="形状结合" fill-opacity="0.5" fill="#999999"></path>
            <path d="M41.5495592,191.698117 L41.5498323,193.391117 L44.121962,193.392022 L44.1228323,196.779117 L45.8368971,196.779832 L45.8378323,197.626117 L47.5518323,197.626784 L47.5518323,202.708499 L45.8378323,202.708117 L45.8368971,203.555452 L44.1228323,203.555117 L44.121962,206.943262 L41.5498323,206.943117 L41.5495592,208.637167 L37.2622213,208.637167 L37.2628323,206.943117 L35.5472861,206.943262 L35.5472861,193.392022 L37.2628323,193.391117 L37.2622213,191.698117 L41.5495592,191.698117 Z M41.1494077,204.12742 L37.1478923,204.12742 L37.1478923,205.00737 L41.1494077,205.00737 L41.1494077,204.12742 Z M41.1494077,202.367518 L37.1478923,202.367518 L37.1478923,203.247469 L41.1494077,203.247469 L41.1494077,202.367518 Z M41.1494077,200.607617 L37.1478923,200.607617 L37.1478923,201.487568 L41.1494077,201.487568 L41.1494077,200.607617 Z M41.1494077,198.847716 L37.1478923,198.847716 L37.1478923,199.727667 L41.1494077,199.727667 L41.1494077,198.847716 Z M41.1494077,197.087815 L37.1478923,197.087815 L37.1478923,197.967765 L41.1494077,197.967765 L41.1494077,197.087815 Z M41.1494077,195.327913 L37.1478923,195.327913 L37.1478923,196.207864 L41.1494077,196.207864 L41.1494077,195.327913 Z" id="形状结合" fill-opacity="0.5" fill="#FF5B5B"></path>
            <polygon id="直线-15" fill="#999999" fill-rule="nonzero" points="33.1088627 191.197235 33.1088627 192.131374 31.2326521 192.130561 31.2326521 211.903414 32.6843341 211.903978 32.6843341 212.838116 30.2952971 212.838116 30.2952971 191.197235"></polygon>
            <polygon id="直线-15备份" fill="#999999" fill-rule="nonzero" points="53.7120771 191.197235 53.7120771 212.838116 51.7919677 212.838116 51.7919677 211.903978 52.7742219 211.903414 52.7742219 192.130561 50.8985116 192.131374 50.8985116 191.197235"></polygon>
            <polygon id="直线-15" fill="#999999" fill-rule="nonzero" transform="translate(32.874399, 148.662784) scale(1, -1) translate(-32.874399, -148.662784) " points="33.1088627 107.99661 33.1088627 108.930749 31.2326521 108.929936 31.2326521 188.394006 35.4535006 188.394819 35.4535006 189.328958 30.2952971 189.328958 30.2952971 107.99661"></polygon>
            <polygon id="直线-15备份" fill="#999999" fill-rule="nonzero" transform="translate(51.367439, 148.662784) scale(1, -1) translate(-51.367439, -148.662784) " points="53.7120771 107.99661 53.7120771 189.328958 49.0228012 189.328958 49.0228012 188.394819 52.7742219 188.394006 52.7742219 108.929936 50.8985116 108.930749 50.8985116 107.99661"></polygon>
            <path d="M56.7193504,1.01342793 L63.5329783,25.3571028 L77.9225441,76.3687606 L82.9039526,93.960339 C83.6311269,96.5213285 84,99.1723429 84,101.837569 L84,199.385538 C84,200.903794 83.880382,202.419704 83.6422499,203.919279 L75.8379148,253.065047 C75.3720833,255.998499 73.0765119,258.305987 70.1382976,258.794251 L62.9973477,259.980913 C62.1780197,260.117067 61.4236814,259.508293 61.3865262,258.680933 L61.362,258.159 L22.637,258.159 L22.6134738,258.680933 C22.5783828,259.462329 21.9035821,260.048751 21.1384934,259.996798 L21.0026523,259.980913 L13.8617024,258.794251 C11.0099061,258.320347 8.76350619,256.13266 8.20790625,253.322226 L8.16208521,253.065047 L0.357750125,203.919279 C0.153636861,202.633929 0.0365952229,201.336578 0.00732033184,200.036035 L0,199.385538 L0,101.837569 C0,99.3944451 0.309955884,96.9632629 0.921724545,94.602418 L1.09604739,93.960339 L6.07745593,76.3687606 L20.4670217,25.3571028 L27.2806496,1.01342793 C27.737374,-0.625950662 30.1841121,-0.150779551 29.9903491,1.53966769 C29.0865497,9.42468498 28.2565702,17.3926482 27.5004131,25.4435569 L26.4777677,25.3223997 C27.9346197,25.5028437 29.4161012,25.6564624 30.9222106,25.7832422 L30.9223591,11.1328134 L34.6145811,11.1328134 L34.6139715,26.0375892 C36.425966,26.1354468 38.2717979,26.196412 40.151465,26.2204627 L40.1529141,11.1328134 L43.845136,11.1328134 L43.8465851,26.2204627 C45.7259088,26.1964164 47.5714098,26.135469 49.3830856,26.0376428 L49.383469,11.1328134 L53.075691,11.1328134 L53.0758395,25.7832422 C54.2315073,25.6859616 55.3726747,25.5728787 56.4993409,25.4439997 C55.7434298,17.3926482 54.9134503,9.42468498 54.0096509,1.53966769 C53.8158879,-0.150779551 56.262626,-0.625950662 56.7193504,1.01342793 Z M25.4597167,17.8110626 L20.093165,36.9133485 L3.76069391,94.7117444 C3.15765068,96.8355652 2.82702825,99.0275027 2.77611231,101.235191 L2.76916649,101.837639 L2.76916649,199.385538 C2.76916649,200.530255 2.84432329,201.673497 2.99405894,202.807942 L3.09284517,203.487494 L10.8971803,252.633262 C11.1659292,254.325638 12.4496966,255.670771 14.1152874,256.032178 L14.3169506,256.070784 L19.9186145,257.001215 L20.0228283,254.918036 L20.0549966,254.303593 L20.0549966,254.303593 L20.087738,253.692295 L20.2244162,251.277747 L20.2600095,250.681571 L20.2600095,250.681571 L20.2961705,250.088298 L20.4464743,247.743443 L20.5250097,246.587395 L20.5250097,246.587395 L20.6057912,245.441837 L20.7740645,243.18091 L20.8615422,242.064898 L20.8615422,242.064898 L20.9512377,240.958092 L21.1372542,238.770811 L21.2335609,237.689695 L21.2335609,237.689695 L21.3320573,236.6165 L21.5355905,234.492586 L21.7477972,232.396501 L21.8521188,231.405158 L21.9879188,230.202867 L23.2335693,220.009186 L23.6515691,216.531965 L24.0520647,213.047133 L24.2977915,210.70393 L24.3908538,209.678466 L24.4179057,209.333623 L24.4528225,208.767835 L24.460052,208.55121 L24.4609706,131.370508 C24.4609706,129.137452 24.2818257,126.908422 23.9254622,124.70472 L23.7835226,123.879561 L20.6392301,106.636744 C20.1049201,103.706349 19.8927927,100.72681 20.0066666,97.7510259 C21.0025411,71.711172 22.6845993,46.4398209 25.0529116,21.9369471 L25.3657138,18.7452782 L25.4597167,17.8110626 Z M58.5402833,17.8110626 L58.6342862,18.7452782 C61.1678377,44.2437649 62.95416,70.5790044 63.9933334,97.7510259 C64.1072073,100.72681 63.8950799,103.706349 63.3607699,106.636744 L60.2164774,123.879561 C59.7657597,126.351227 59.5390294,128.85832 59.5390294,131.370508 L59.539948,208.55121 L59.5471775,208.767835 L59.5820943,209.333623 L59.6091462,209.678466 L59.7022085,210.70393 L59.9479353,213.047133 L60.3484309,216.531965 L60.7664307,220.009186 L62.0120812,230.202867 L62.1478812,231.405158 L62.2522028,232.396501 L62.4644095,234.492586 L62.6679427,236.6165 C62.7343352,237.329394 62.7992728,238.047356 62.8627458,238.770811 L63.0487623,240.958092 C63.109297,241.692965 63.1683579,242.433762 63.2259355,243.18091 L63.3942088,245.441837 C63.4488103,246.202117 63.5019191,246.969176 63.5535257,247.743443 L63.7038295,250.088298 C63.7281259,250.482854 63.7520444,250.87932 63.7755838,251.277747 L63.912262,253.692295 C63.9342804,254.098788 63.9559173,254.50735 63.9771717,254.918036 L64.0813855,257.001215 L69.6830494,256.070784 C71.445978,255.777826 72.8233209,254.393333 73.1028197,252.633262 L80.9071548,203.487494 C81.1226077,202.130736 81.2308335,200.759198 81.2308335,199.385538 L81.2308335,101.837639 C81.2308335,99.4265997 80.8971714,97.0286398 80.2393061,94.7117444 L63.906835,36.9133485 L58.5402833,17.8110626 Z M56.7547398,28.1939299 L57.8616546,28.0623729 C52.8498438,28.68313 47.5623191,28.9932473 41.9990251,28.9932473 C36.8445095,28.9932473 31.9267263,28.7270291 27.2456313,28.1941772 C25.1771978,50.7657721 23.6866999,73.986553 22.7738208,97.856264 C22.6772792,100.379117 22.8319941,102.904866 23.2352907,105.396449 L23.3637344,106.142862 L26.5080222,123.385652 C26.9350758,125.727549 27.173483,128.099282 27.22119,130.478145 L27.2301371,131.370508 L27.2301371,208.460409 L27.2297559,208.521798 L27.2297559,208.521798 L27.2286192,208.588038 L27.2167297,208.900078 L27.1935984,209.284009 L27.139302,209.984687 L27.0635142,210.821361 L26.9329761,212.121764 L26.8159143,213.215658 L26.4927107,216.069885 L26.0127164,220.099434 L25.1606403,227.041379 L24.671262,231.105953 L24.5021739,232.68148 L24.3007738,234.668435 L24.1072125,236.680607 L23.9215389,238.720229 L23.7438018,240.789538 L23.57405,242.890768 L23.4123322,245.026155 L23.2586973,247.197934 L23.113194,249.408339 L23.0780945,249.967238 L23.0780945,249.967238 L23.043507,250.528725 L22.9102928,252.801262 L22.7853322,255.118013 L22.7710105,255.39682 L22.7710105,255.39682 L61.2289895,255.39682 L61.2146678,255.118013 L61.2146678,255.118013 L61.0897072,252.801262 L60.956493,250.528725 C60.9336055,250.153529 60.9103762,249.780083 60.886806,249.408339 L60.7413027,247.197934 L60.5876678,245.026155 L60.42595,242.890768 L60.2561982,240.789538 L60.0784611,238.720229 L59.8927875,236.680607 L59.6992262,234.668435 L59.4978261,232.68148 L59.328738,231.105953 L58.8393597,227.041379 L57.9872836,220.099434 L57.5072893,216.069885 L57.1840857,213.215658 L57.0670239,212.121764 L56.9364858,210.821361 L56.860698,209.984687 L56.8064016,209.284009 L56.7832703,208.900078 L56.7713808,208.588038 C56.7703735,208.542277 56.7698629,208.499702 56.7698629,208.460409 L56.7698629,131.370508 C56.7698629,128.692681 57.0115424,126.020286 57.4919778,123.385652 L60.6362656,106.142862 C61.1345504,103.410044 61.332375,100.631402 61.2261792,97.856264 C60.3133001,73.986553 58.8228022,50.7657721 56.7547398,28.1939299 Z" id="形状结合" fill-opacity="0.7" fill="#999999" fill-rule="nonzero"></path>
        </g>
        <g id="编组-2备份" transform="translate(201.000000, 20.000000)">
            <path d="M45.7551078,85.7710048 L38.2522664,85.7710048 C35.9255192,85.7710048 34.039318,87.6516662 34.039318,89.9715795 L34.039318,97.4369946 C34.039318,99.7569079 35.9255192,101.637569 38.2522664,101.637569 L45.7551078,101.637569 C48.081855,101.637569 49.9680562,99.7569079 49.9680562,97.4369946 L49.9680562,89.9715795 C49.9680562,87.6516662 48.081855,85.7710048 45.7551078,85.7710048 Z M38.2522664,86.6913492 L45.7551078,86.6913492 C47.5720655,86.6913492 49.0450007,88.1599584 49.0450007,89.9715795 L49.0450007,97.4369946 C49.0450007,99.2486158 47.5720655,100.717225 45.7551078,100.717225 L38.2522664,100.717225 C36.4353087,100.717225 34.9623735,99.2486158 34.9623735,97.4369946 L34.9623735,89.9715795 C34.9623735,88.1599584 36.4353087,86.6913492 38.2522664,86.6913492 Z" id="矩形备份-9" fill-opacity="0.7" fill="#999999" fill-rule="nonzero"></path>
            <path d="M34.6021341,82.7960374 C34.8909935,82.7960374 35.1385873,82.7138332 35.3449154,82.5494248 C35.5662492,82.3738067 35.7050518,82.1309306 35.7650745,81.81706 L35.3374125,81.81706 C35.2848927,82.018834 35.1948586,82.1720327 35.0673103,82.2729197 C34.9472648,82.362597 34.7897051,82.4111723 34.5983827,82.4111723 C34.3057719,82.4111723 34.0881895,82.3177584 33.9493869,82.1384037 C33.8218386,81.9702588 33.7580644,81.7273827 33.7580644,81.4135121 C33.7580644,81.1071146 33.8218386,80.867975 33.9531383,80.6960935 C34.0956923,80.5017926 34.3057719,80.4083788 34.5871284,80.4083788 C34.7746994,80.4083788 34.9285077,80.4457443 35.0485532,80.5279485 C35.17235,80.6101527 35.2548813,80.7371956 35.2998983,80.9128137 L35.7275603,80.9128137 C35.6862947,80.6437817 35.5700006,80.4270615 35.3749268,80.2701262 C35.17235,80.1057178 34.9097506,80.0235136 34.5946313,80.0235136 C34.1669693,80.0235136 33.8405957,80.1617661 33.6155105,80.4457443 C33.4166852,80.692357 33.3191482,81.0174372 33.3191482,81.4135121 C33.3191482,81.81706 33.4129337,82.1384037 33.6042562,82.3775433 C33.8218386,82.6540483 34.155715,82.7960374 34.6021341,82.7960374 Z M37.3669311,82.7960374 C37.775836,82.7960374 38.0984582,82.665258 38.3347977,82.4036992 C38.5598829,82.15335 38.6724255,81.8245331 38.6724255,81.4135121 C38.6724255,81.002491 38.5598829,80.6699376 38.3347977,80.4195884 C38.0984582,80.154293 37.775836,80.0235136 37.3669311,80.0235136 C36.9542749,80.0235136 36.6316527,80.154293 36.3990646,80.423325 C36.1739794,80.6774107 36.0651882,81.0062276 36.0651882,81.4135121 C36.0651882,81.81706 36.1739794,82.1458769 36.3990646,82.3999626 C36.6316527,82.6615215 36.9542749,82.7960374 37.3669311,82.7960374 Z M37.3669311,82.4111723 C37.089326,82.4111723 36.8717436,82.3177584 36.7216868,82.1346672 C36.5753814,81.9553126 36.5041044,81.716173 36.5041044,81.4135121 C36.5041044,81.1071146 36.5753814,80.867975 36.7216868,80.6886204 C36.875495,80.5017926 37.089326,80.4083788 37.3669311,80.4083788 C37.6445363,80.4083788 37.8583672,80.4943195 38.0084241,80.6736742 C38.1547295,80.8530288 38.2297579,81.0996415 38.2297579,81.4135121 C38.2297579,81.7273827 38.1547295,81.9702588 38.0084241,82.1458769 C37.8583672,82.3214949 37.6445363,82.4111723 37.3669311,82.4111723 Z M39.523998,82.7437257 L39.523998,80.7932439 L39.5390037,80.7932439 L40.8782609,82.7437257 L41.3059229,82.7437257 L41.3059229,80.0758254 L40.8632552,80.0758254 L40.8632552,82.0001512 L40.8482495,82.0001512 L39.523998,80.0758254 L39.0850818,80.0758254 L39.0850818,82.7437257 L39.523998,82.7437257 Z M42.270038,82.7437257 L42.270038,80.7932439 L42.2850437,80.7932439 L43.6243008,82.7437257 L44.0519628,82.7437257 L44.0519628,80.0758254 L43.6092952,80.0758254 L43.6092952,82.0001512 L43.5942895,82.0001512 L42.270038,80.0758254 L41.8311218,80.0758254 L41.8311218,82.7437257 L42.270038,82.7437257 Z M46.5729175,82.7437257 L46.5729175,82.3700702 L45.0160779,82.3700702 L45.0160779,81.5629743 L46.4191093,81.5629743 L46.4191093,81.1893188 L45.0160779,81.1893188 L45.0160779,80.4494809 L46.5091434,80.4494809 L46.5091434,80.0758254 L44.5771617,80.0758254 L44.5771617,82.7437257 L46.5729175,82.7437257 Z M48.156017,82.7960374 C48.4448764,82.7960374 48.6924702,82.7138332 48.8987983,82.5494248 C49.1201322,82.3738067 49.2589347,82.1309306 49.3189575,81.81706 L48.8912955,81.81706 C48.8387756,82.018834 48.7487415,82.1720327 48.6211932,82.2729197 C48.5011477,82.362597 48.3435881,82.4111723 48.1522656,82.4111723 C47.8596548,82.4111723 47.6420724,82.3177584 47.5032698,82.1384037 C47.3757215,81.9702588 47.3119474,81.7273827 47.3119474,81.4135121 C47.3119474,81.1071146 47.3757215,80.867975 47.5070213,80.6960935 C47.6495752,80.5017926 47.8596548,80.4083788 48.1410114,80.4083788 C48.3285824,80.4083788 48.4823906,80.4457443 48.6024361,80.5279485 C48.726233,80.6101527 48.8087642,80.7371956 48.8537813,80.9128137 L49.2814432,80.9128137 C49.2401776,80.6437817 49.1238836,80.4270615 48.9288097,80.2701262 C48.726233,80.1057178 48.4636335,80.0235136 48.1485142,80.0235136 C47.7208522,80.0235136 47.3944786,80.1617661 47.1693934,80.4457443 C46.9705681,80.692357 46.8730312,81.0174372 46.8730312,81.4135121 C46.8730312,81.81706 46.9668167,82.1384037 47.1581391,82.3775433 C47.3757215,82.6540483 47.709598,82.7960374 48.156017,82.7960374 Z M50.8420342,82.7437257 L50.8420342,80.4494809 L51.7198667,80.4494809 L51.7198667,80.0758254 L49.5252856,80.0758254 L49.5252856,80.4494809 L50.403118,80.4494809 L50.403118,82.7437257 L50.8420342,82.7437257 Z" id="CONNECT" fill="#999999" fill-rule="nonzero"></path>
            <path d="M43.5412167,214.021359 L44.0664155,212.014829 L44.0814212,212.014829 L44.6028687,214.021359 L45.0680449,214.021359 L45.8408375,211.353458 L45.34565,211.353458 L44.8429596,213.382408 L44.8279539,213.382408 L44.2990036,211.353458 L43.8450817,211.353458 L43.3161314,213.382408 L43.3011257,213.382408 L42.7984354,211.353458 L42.3032478,211.353458 L43.0722891,214.021359 L43.5412167,214.021359 Z M46.3285222,214.021359 L46.5723646,213.352515 L47.6940394,213.352515 L47.9378817,214.021359 L48.4068093,214.021359 L47.3826714,211.353458 L46.8837325,211.353458 L45.8595946,214.021359 L46.3285222,214.021359 Z M47.5627396,212.993806 L46.7036643,212.993806 L47.1275748,211.824264 L47.1425805,211.824264 L47.5627396,212.993806 Z M49.108325,214.021359 L49.108325,212.070877 L49.1233306,212.070877 L50.4625878,214.021359 L50.8902498,214.021359 L50.8902498,211.353458 L50.4475821,211.353458 L50.4475821,213.277784 L50.4325765,213.277784 L49.108325,211.353458 L48.6694087,211.353458 L48.6694087,214.021359 L49.108325,214.021359 Z M34.3336854,211.221443 C34.0345997,211.221443 33.7906087,211.314469 33.6095831,211.507965 C33.4324929,211.686576 33.3419801,211.924725 33.3380448,212.22241 L33.7669966,212.22241 C33.7748673,212.006588 33.8220914,211.846582 33.9165395,211.73495 C34.0070523,211.619597 34.1408538,211.563781 34.317944,211.563781 C34.4832282,211.563781 34.6130944,211.600992 34.6996719,211.675413 C34.7862493,211.749834 34.829538,211.861466 34.829538,212.010309 C34.829538,212.166594 34.7626373,212.311716 34.6367064,212.445674 C34.5579997,212.523817 34.4241982,212.624286 34.2353019,212.750802 C33.9165395,212.959182 33.7040312,213.119188 33.6017124,213.234541 C33.4128162,213.435479 33.3223034,213.666185 33.3223034,213.930381 L35.2584899,213.930381 L35.2584899,213.573158 L33.8535741,213.573158 C33.9126042,213.428037 34.0936297,213.260588 34.3966508,213.070814 C34.6760598,212.892203 34.8688914,212.750802 34.9790809,212.642891 C35.1601065,212.453116 35.2545546,212.244737 35.2545546,212.01403 C35.2545546,211.779603 35.1679771,211.589828 34.9987576,211.440986 C34.8256027,211.292143 34.6012884,211.221443 34.3336854,211.221443 Z M36.0062042,213.398268 C35.9196268,213.398268 35.852726,213.424315 35.8015666,213.47641 C35.7425365,213.528505 35.7149892,213.595485 35.7149892,213.677348 C35.7149892,213.75177 35.7425365,213.818749 35.8015666,213.874565 C35.852726,213.922939 35.9196268,213.948986 36.0062042,213.948986 C36.084911,213.948986 36.1557471,213.922939 36.2147772,213.874565 C36.2698719,213.818749 36.3013546,213.75177 36.3013546,213.677348 C36.3013546,213.595485 36.2698719,213.528505 36.2147772,213.47641 C36.1557471,213.424315 36.084911,213.398268 36.0062042,213.398268 Z M36.9152674,211.273538 L36.7617892,212.761965 L37.1631937,212.761965 C37.2182885,212.665217 37.2930599,212.594517 37.3953787,212.549864 C37.4898268,212.505211 37.596081,212.486606 37.7220118,212.486606 C37.910908,212.486606 38.0525802,212.538701 38.154899,212.642891 C38.2572178,212.747081 38.3083772,212.892203 38.3083772,213.078256 C38.3083772,213.249425 38.2493471,213.383384 38.131287,213.487574 C38.0132268,213.588043 37.8676193,213.640137 37.6944644,213.640137 C37.5370509,213.640137 37.41112,213.606648 37.3166719,213.539669 C37.2104178,213.465247 37.1474524,213.349894 37.131711,213.201051 L36.7106298,213.201051 C36.7303065,213.446642 36.840496,213.643859 37.0411982,213.785259 C37.2222238,213.915497 37.4386674,213.982476 37.6905291,213.982476 C37.9699381,213.982476 38.2099937,213.904333 38.410696,213.748048 C38.6232043,213.573158 38.7333938,213.349894 38.7333938,213.074535 C38.7333938,212.788013 38.6468163,212.564749 38.4815321,212.401021 C38.3162479,212.237294 38.0998043,212.155431 37.8361366,212.155431 C37.7102058,212.155431 37.5921456,212.174036 37.4898268,212.214968 C37.375702,212.252179 37.2773185,212.311716 37.1907411,212.3973 L37.1789351,212.3973 L37.2615772,211.63076 L38.6074629,211.63076 L38.6074629,211.273538 L36.9152674,211.273538 Z M40.3941066,211.221443 C39.980896,211.221443 39.6503276,211.355401 39.4063366,211.63076 C39.1741517,211.887514 39.0600269,212.214968 39.0600269,212.613122 C39.0600269,213.007556 39.1741517,213.331289 39.4063366,213.5806 C39.654263,213.848517 40.0005727,213.982476 40.4492013,213.982476 C40.6931923,213.982476 40.9175066,213.952707 41.1221442,213.89317 C41.3149758,213.833633 41.4841953,213.75177 41.6298029,213.643859 L41.6298029,212.527538 L40.4255893,212.527538 L40.4255893,212.873597 L41.200851,212.873597 L41.200851,213.450363 C41.1064028,213.506179 41.004084,213.550832 40.8860239,213.5806 C40.7640284,213.610369 40.6341622,213.628974 40.4964254,213.628974 C40.1461803,213.628974 39.8864479,213.535948 39.7211637,213.349894 C39.5637502,213.178725 39.4889787,212.933134 39.4889787,212.613122 C39.4889787,212.285668 39.5716209,212.028915 39.7447757,211.842861 C39.9061246,211.66425 40.1225682,211.578665 40.3941066,211.578665 C40.6144855,211.578665 40.7955111,211.623318 40.9293126,211.716345 C41.0631141,211.80565 41.1496916,211.939609 41.189045,212.11822 L41.6219322,212.11822 C41.5707728,211.820535 41.444842,211.600992 41.2441397,211.452149 C41.0355668,211.295864 40.7522224,211.221443 40.3941066,211.221443 Z" id="形状结合" fill="#999999" fill-rule="nonzero"></path>
            <path d="M40.5592385,109.646922 L40.5592385,109.273266 L39.1111901,109.273266 L39.1111901,106.979022 L38.6760253,106.979022 L38.6760253,109.646922 L40.5592385,109.646922 Z M41.1031945,109.646922 L41.3470368,108.978078 L42.4687116,108.978078 L42.7125539,109.646922 L43.1814815,109.646922 L42.1573437,106.979022 L41.6584047,106.979022 L40.6342669,109.646922 L41.1031945,109.646922 Z M42.3374119,108.619369 L41.4783365,108.619369 L41.9022471,107.449827 L41.9172527,107.449827 L42.3374119,108.619369 Z M43.8829972,109.646922 L43.8829972,107.69644 L43.8980029,107.69644 L45.2372601,109.646922 L45.664922,109.646922 L45.664922,106.979022 L45.2222544,106.979022 L45.2222544,108.903347 L45.2072487,108.903347 L43.8829972,106.979022 L43.444081,106.979022 L43.444081,109.646922 L43.8829972,109.646922 Z" id="LAN" fill="#999999" fill-rule="nonzero"></path>
            <path d="M35.7386086,239.243105 L35.7386086,238.219289 L36.40261,238.219289 C37.0553572,238.219289 37.3817308,237.942784 37.3817308,237.39351 C37.3817308,236.847973 37.0553572,236.575205 36.4101129,236.575205 L35.2996923,236.575205 L35.2996923,239.243105 L35.7386086,239.243105 Z M36.3763501,237.845634 L35.7386086,237.845634 L35.7386086,236.94886 L36.3763501,236.94886 C36.5676725,236.94886 36.7102265,236.982489 36.8002606,237.053484 C36.8902947,237.120742 36.9390632,237.232839 36.9390632,237.39351 C36.9390632,237.554182 36.8940461,237.670015 36.804012,237.74101 C36.7139779,237.808268 36.5714239,237.845634 36.3763501,237.845634 Z M38.9460732,239.295417 C39.3549781,239.295417 39.6776003,239.164637 39.9139398,238.903079 C40.139025,238.652729 40.2515676,238.323913 40.2515676,237.912892 C40.2515676,237.50187 40.139025,237.169317 39.9139398,236.918968 C39.6776003,236.653673 39.3549781,236.522893 38.9460732,236.522893 C38.533417,236.522893 38.2107948,236.653673 37.9782067,236.922704 C37.7531215,237.17679 37.6443303,237.505607 37.6443303,237.912892 C37.6443303,238.316439 37.7531215,238.645256 37.9782067,238.899342 C38.2107948,239.160901 38.533417,239.295417 38.9460732,239.295417 Z M38.9460732,238.910552 C38.6684681,238.910552 38.4508857,238.817138 38.3008289,238.634047 C38.1545235,238.454692 38.0832465,238.215552 38.0832465,237.912892 C38.0832465,237.606494 38.1545235,237.367355 38.3008289,237.188 C38.4546371,237.001172 38.6684681,236.907758 38.9460732,236.907758 C39.2236784,236.907758 39.4375094,236.993699 39.5875662,237.173054 C39.7338716,237.352408 39.8089,237.599021 39.8089,237.912892 C39.8089,238.226762 39.7338716,238.469638 39.5875662,238.645256 C39.4375094,238.820874 39.2236784,238.910552 38.9460732,238.910552 Z M41.6583504,239.243105 L42.1835493,237.236575 L42.198555,237.236575 L42.7200025,239.243105 L43.1851786,239.243105 L43.9579713,236.575205 L43.4627838,236.575205 L42.9600934,238.604154 L42.9450877,238.604154 L42.4161374,236.575205 L41.9622155,236.575205 L41.4332652,238.604154 L41.4182595,238.604154 L40.9155691,236.575205 L40.4203816,236.575205 L41.1894228,239.243105 L41.6583504,239.243105 Z M46.2350836,239.243105 L46.2350836,238.86945 L44.6782441,238.86945 L44.6782441,238.062354 L46.0812754,238.062354 L46.0812754,237.688698 L44.6782441,237.688698 L44.6782441,236.94886 L46.1713095,236.94886 L46.1713095,236.575205 L44.2393278,236.575205 L44.2393278,239.243105 L46.2350836,239.243105 Z M47.0866561,239.243105 L47.0866561,238.155768 L47.780669,238.155768 C47.9307258,238.155768 48.0470198,238.18566 48.1257997,238.252918 C48.2008281,238.316439 48.2458451,238.421063 48.2608508,238.566789 L48.2946136,238.895606 C48.3096193,239.045068 48.3471335,239.160901 48.4109076,239.243105 L48.8873381,239.243105 C48.797304,239.145955 48.7410327,239.015175 48.726027,238.850767 L48.6810099,238.421063 C48.6509986,238.159504 48.5196988,238.006305 48.2871108,237.953994 L48.2871108,237.946521 C48.4296647,237.909155 48.5459588,237.830687 48.62849,237.711118 C48.7035185,237.602757 48.7410327,237.479451 48.7410327,237.341199 C48.7410327,237.087113 48.65475,236.892812 48.4896875,236.758296 C48.3321278,236.63499 48.1145454,236.575205 47.8406917,236.575205 L46.6477399,236.575205 L46.6477399,239.243105 L47.0866561,239.243105 Z M47.780669,237.782112 L47.0866561,237.782112 L47.0866561,236.94886 L47.780669,236.94886 C47.9607372,236.94886 48.0920369,236.978753 48.1745681,237.046011 C48.2570994,237.109532 48.298365,237.214156 48.298365,237.359881 C48.298365,237.494397 48.2570994,237.599021 48.1745681,237.673752 C48.084534,237.744747 47.9532343,237.782112 47.780669,237.782112 Z" id="POWER" fill="#999999" fill-rule="nonzero"></path>
            <path d="M36.6147713,64.9950893 L36.6147713,63.9077518 L37.3087841,63.9077518 C37.4588409,63.9077518 37.575135,63.9376442 37.6539148,64.0049022 C37.7289432,64.0684237 37.7739603,64.1730472 37.788966,64.3187729 L37.8227288,64.6475897 C37.8377344,64.7970519 37.8752486,64.9128851 37.9390228,64.9950893 L38.4154532,64.9950893 C38.3254191,64.8979389 38.2691478,64.7671595 38.2541421,64.602751 L38.2091251,64.1730472 C38.1791137,63.9114884 38.047814,63.7582896 37.8152259,63.7059778 L37.8152259,63.6985047 C37.9577799,63.6611392 38.0740739,63.5826715 38.1566052,63.4631018 C38.2316336,63.3547417 38.2691478,63.2314353 38.2691478,63.0931828 C38.2691478,62.8390971 38.1828651,62.6447962 38.0178026,62.5102802 C37.860243,62.3869739 37.6426606,62.327189 37.3688068,62.327189 L36.1758551,62.327189 L36.1758551,64.9950893 L36.6147713,64.9950893 Z M37.3087841,63.5340963 L36.6147713,63.5340963 L36.6147713,62.7008445 L37.3087841,62.7008445 C37.4888523,62.7008445 37.620152,62.730737 37.7026833,62.797995 C37.7852145,62.8615164 37.8264802,62.9661399 37.8264802,63.1118656 C37.8264802,63.2463816 37.7852145,63.3510051 37.7026833,63.4257362 C37.6126492,63.4967307 37.4813495,63.5340963 37.3087841,63.5340963 Z M40.7863511,64.9950893 L40.7863511,64.6214338 L39.2295115,64.6214338 L39.2295115,63.8143379 L40.6325428,63.8143379 L40.6325428,63.4406824 L39.2295115,63.4406824 L39.2295115,62.7008445 L40.7225769,62.7008445 L40.7225769,62.327189 L38.7905953,62.327189 L38.7905953,64.9950893 L40.7863511,64.9950893 Z M42.1893824,65.0474011 C42.5307617,65.0474011 42.7971126,64.9764065 42.9846836,64.8418906 C43.1722547,64.703638 43.2660402,64.5130737 43.2660402,64.2739342 C43.2660402,64.0273216 43.1497461,63.8367573 42.917158,63.6985047 C42.8121183,63.6387198 42.5795302,63.5490425 42.2156424,63.4369459 C41.9680486,63.3584782 41.8142404,63.3024299 41.7579691,63.2725374 C41.6304208,63.2052795 41.570398,63.1118656 41.570398,62.9997689 C41.570398,62.8727261 41.6229179,62.7793122 41.7354605,62.7232639 C41.8254946,62.6746886 41.9530429,62.6522693 42.1218569,62.6522693 C42.3169307,62.6522693 42.4669876,62.6858983 42.5645245,62.7606294 C42.6620614,62.831624 42.7333384,62.9511937 42.7708526,63.1156021 L43.2060174,63.1156021 C43.1797575,62.8241508 43.0709663,62.6074307 42.8833953,62.4691781 C42.7070785,62.3383987 42.4594847,62.2748773 42.1443654,62.2748773 C41.855506,62.2748773 41.6191665,62.3383987 41.4315955,62.4691781 C41.2290187,62.6036941 41.1314818,62.7905218 41.1314818,63.0259248 C41.1314818,63.2613278 41.2327702,63.4406824 41.4390983,63.5639887 C41.5178781,63.6088274 41.7242063,63.6835585 42.0543313,63.788182 C42.3506935,63.8778594 42.5232589,63.9376442 42.5757788,63.9638001 C42.7408413,64.0460043 42.827124,64.158101 42.827124,64.3000901 C42.827124,64.4121867 42.7671012,64.4981275 42.6545586,64.5653855 C42.542016,64.6289069 42.3844563,64.6625359 42.1893824,64.6625359 C41.9680486,64.6625359 41.8067375,64.6214338 41.7016977,64.5467027 C41.5854037,64.4607619 41.5141267,64.3150363 41.4841153,64.1132623 L41.0489505,64.1132623 C41.0677076,64.4532888 41.1915045,64.6999015 41.4165898,64.8568368 C41.6004094,64.9838796 41.8592574,65.0474011 42.1893824,65.0474011 Z M45.636938,64.9950893 L45.636938,64.6214338 L44.0800985,64.6214338 L44.0800985,63.8143379 L45.4831298,63.8143379 L45.4831298,63.4406824 L44.0800985,63.4406824 L44.0800985,62.7008445 L45.5731639,62.7008445 L45.5731639,62.327189 L43.6411822,62.327189 L43.6411822,64.9950893 L45.636938,64.9950893 Z M47.1600148,64.9950893 L47.1600148,62.7008445 L48.0378473,62.7008445 L48.0378473,62.327189 L45.8432662,62.327189 L45.8432662,62.7008445 L46.7210986,62.7008445 L46.7210986,64.9950893 L47.1600148,64.9950893 Z" id="RESET" fill="#999999" fill-rule="nonzero"></path>
            <ellipse id="椭圆形备份-2" fill-opacity="0.5" fill="#999999" cx="42.4726147" cy="68.94961" rx="1.40678276" ry="1.40120813"></ellipse>
            <ellipse id="椭圆形备份-3" fill-opacity="0.5" fill="#999999" cx="40.1279768" cy="228.718475" rx="4.68927586" ry="4.67069378"></ellipse>
            <path d="M41.5495592,172.766238 L41.5498323,174.459238 L44.121962,174.460143 L44.1228323,177.847238 L45.8368971,177.847953 L45.8378323,178.694238 L47.5518323,178.694906 L47.5518323,183.77662 L45.8378323,183.776238 L45.8368971,184.623573 L44.1228323,184.623238 L44.121962,188.011383 L41.5498323,188.011238 L41.5495592,189.705288 L37.2622213,189.705288 L37.2628323,188.011238 L35.5472861,188.011383 L35.5472861,174.460143 L37.2628323,174.459238 L37.2622213,172.766238 L41.5495592,172.766238 Z M41.1494077,185.195541 L37.1478923,185.195541 L37.1478923,186.075491 L41.1494077,186.075491 L41.1494077,185.195541 Z M41.1494077,183.43564 L37.1478923,183.43564 L37.1478923,184.31559 L41.1494077,184.31559 L41.1494077,183.43564 Z M41.1494077,181.675738 L37.1478923,181.675738 L37.1478923,182.555689 L41.1494077,182.555689 L41.1494077,181.675738 Z M41.1494077,179.915837 L37.1478923,179.915837 L37.1478923,180.795788 L41.1494077,180.795788 L41.1494077,179.915837 Z M41.1494077,178.155936 L37.1478923,178.155936 L37.1478923,179.035887 L41.1494077,179.035887 L41.1494077,178.155936 Z M41.1494077,176.396035 L37.1478923,176.396035 L37.1478923,177.275985 L41.1494077,177.275985 L41.1494077,176.396035 Z" id="形状结合备份-2" fill-opacity="0.5" fill="#999999"></path>
            <path d="M41.5495592,152.837945 L41.5498323,154.530945 L44.121962,154.53185 L44.1228323,157.918945 L45.8368971,157.91966 L45.8378323,158.765945 L47.5518323,158.766612 L47.5518323,163.848327 L45.8378323,163.847945 L45.8368971,164.69528 L44.1228323,164.694945 L44.121962,168.083089 L41.5498323,168.082945 L41.5495592,169.776994 L37.2622213,169.776994 L37.2628323,168.082945 L35.5472861,168.083089 L35.5472861,154.53185 L37.2628323,154.530945 L37.2622213,152.837945 L41.5495592,152.837945 Z M41.1494077,165.267247 L37.1478923,165.267247 L37.1478923,166.147198 L41.1494077,166.147198 L41.1494077,165.267247 Z M41.1494077,163.507346 L37.1478923,163.507346 L37.1478923,164.387297 L41.1494077,164.387297 L41.1494077,163.507346 Z M41.1494077,161.747445 L37.1478923,161.747445 L37.1478923,162.627396 L41.1494077,162.627396 L41.1494077,161.747445 Z M41.1494077,159.987544 L37.1478923,159.987544 L37.1478923,160.867494 L41.1494077,160.867494 L41.1494077,159.987544 Z M41.1494077,158.227642 L37.1478923,158.227642 L37.1478923,159.107593 L41.1494077,159.107593 L41.1494077,158.227642 Z M41.1494077,156.467741 L37.1478923,156.467741 L37.1478923,157.347692 L41.1494077,157.347692 L41.1494077,156.467741 Z" id="形状结合备份" fill-opacity="0.5" fill="#999999"></path>
            <path d="M41.5495592,132.909651 L41.5498323,134.602651 L44.121962,134.603556 L44.1228323,137.990651 L45.8368971,137.991366 L45.8378323,138.837651 L47.5518323,138.838319 L47.5518323,143.920034 L45.8378323,143.919651 L45.8368971,144.766986 L44.1228323,144.766651 L44.121962,148.154796 L41.5498323,148.154651 L41.5495592,149.848701 L37.2622213,149.848701 L37.2628323,148.154651 L35.5472861,148.154796 L35.5472861,134.603556 L37.2628323,134.602651 L37.2622213,132.909651 L41.5495592,132.909651 Z M41.1494077,145.338954 L37.1478923,145.338954 L37.1478923,146.218905 L41.1494077,146.218905 L41.1494077,145.338954 Z M41.1494077,143.579053 L37.1478923,143.579053 L37.1478923,144.459003 L41.1494077,144.459003 L41.1494077,143.579053 Z M41.1494077,141.819151 L37.1478923,141.819151 L37.1478923,142.699102 L41.1494077,142.699102 L41.1494077,141.819151 Z M41.1494077,140.05925 L37.1478923,140.05925 L37.1478923,140.939201 L41.1494077,140.939201 L41.1494077,140.05925 Z M41.1494077,138.299349 L37.1478923,138.299349 L37.1478923,139.1793 L41.1494077,139.1793 L41.1494077,138.299349 Z M41.1494077,136.539448 L37.1478923,136.539448 L37.1478923,137.419398 L41.1494077,137.419398 L41.1494077,136.539448 Z" id="形状结合" fill-opacity="0.5" fill="#999999"></path>
            <path d="M41.5495592,112.981358 L41.5498323,114.674358 L44.121962,114.675263 L44.1228323,118.062358 L45.8368971,118.063073 L45.8378323,118.909358 L47.5518323,118.910025 L47.5518323,123.99174 L45.8378323,123.991358 L45.8368971,124.838693 L44.1228323,124.838358 L44.121962,128.226503 L41.5498323,128.226358 L41.5495592,129.920407 L37.2622213,129.920407 L37.2628323,128.226358 L35.5472861,128.226503 L35.5472861,114.675263 L37.2628323,114.674358 L37.2622213,112.981358 L41.5495592,112.981358 Z M41.1494077,125.410661 L37.1478923,125.410661 L37.1478923,126.290611 L41.1494077,126.290611 L41.1494077,125.410661 Z M41.1494077,123.650759 L37.1478923,123.650759 L37.1478923,124.53071 L41.1494077,124.53071 L41.1494077,123.650759 Z M41.1494077,121.890858 L37.1478923,121.890858 L37.1478923,122.770809 L41.1494077,122.770809 L41.1494077,121.890858 Z M41.1494077,120.130957 L37.1478923,120.130957 L37.1478923,121.010907 L41.1494077,121.010907 L41.1494077,120.130957 Z M41.1494077,118.371056 L37.1478923,118.371056 L37.1478923,119.251006 L41.1494077,119.251006 L41.1494077,118.371056 Z M41.1494077,116.611154 L37.1478923,116.611154 L37.1478923,117.491105 L41.1494077,117.491105 L41.1494077,116.611154 Z" id="形状结合" fill-opacity="0.5" fill="#999999"></path>
            <path d="M41.5495592,191.698117 L41.5498323,193.391117 L44.121962,193.392022 L44.1228323,196.779117 L45.8368971,196.779832 L45.8378323,197.626117 L47.5518323,197.626784 L47.5518323,202.708499 L45.8378323,202.708117 L45.8368971,203.555452 L44.1228323,203.555117 L44.121962,206.943262 L41.5498323,206.943117 L41.5495592,208.637167 L37.2622213,208.637167 L37.2628323,206.943117 L35.5472861,206.943262 L35.5472861,193.392022 L37.2628323,193.391117 L37.2622213,191.698117 L41.5495592,191.698117 Z M41.1494077,204.12742 L37.1478923,204.12742 L37.1478923,205.00737 L41.1494077,205.00737 L41.1494077,204.12742 Z M41.1494077,202.367518 L37.1478923,202.367518 L37.1478923,203.247469 L41.1494077,203.247469 L41.1494077,202.367518 Z M41.1494077,200.607617 L37.1478923,200.607617 L37.1478923,201.487568 L41.1494077,201.487568 L41.1494077,200.607617 Z M41.1494077,198.847716 L37.1478923,198.847716 L37.1478923,199.727667 L41.1494077,199.727667 L41.1494077,198.847716 Z M41.1494077,197.087815 L37.1478923,197.087815 L37.1478923,197.967765 L41.1494077,197.967765 L41.1494077,197.087815 Z M41.1494077,195.327913 L37.1478923,195.327913 L37.1478923,196.207864 L41.1494077,196.207864 L41.1494077,195.327913 Z" id="形状结合" fill-opacity="0.5" fill="#FF5B5B"></path>
            <polygon id="直线-15" fill="#999999" fill-rule="nonzero" points="33.1088627 191.197235 33.1088627 192.131374 31.2326521 192.130561 31.2326521 211.903414 32.6843341 211.903978 32.6843341 212.838116 30.2952971 212.838116 30.2952971 191.197235"></polygon>
            <polygon id="直线-15备份" fill="#999999" fill-rule="nonzero" points="53.7120771 191.197235 53.7120771 212.838116 51.7919677 212.838116 51.7919677 211.903978 52.7742219 211.903414 52.7742219 192.130561 50.8985116 192.131374 50.8985116 191.197235"></polygon>
            <polygon id="直线-15" fill="#999999" fill-rule="nonzero" transform="translate(32.874399, 148.662784) scale(1, -1) translate(-32.874399, -148.662784) " points="33.1088627 107.99661 33.1088627 108.930749 31.2326521 108.929936 31.2326521 188.394006 35.4535006 188.394819 35.4535006 189.328958 30.2952971 189.328958 30.2952971 107.99661"></polygon>
            <polygon id="直线-15备份" fill="#999999" fill-rule="nonzero" transform="translate(51.367439, 148.662784) scale(1, -1) translate(-51.367439, -148.662784) " points="53.7120771 107.99661 53.7120771 189.328958 49.0228012 189.328958 49.0228012 188.394819 52.7742219 188.394006 52.7742219 108.929936 50.8985116 108.930749 50.8985116 107.99661"></polygon>
            <path d="M56.7193504,1.01342793 L63.5329783,25.3571028 L77.9225441,76.3687606 L82.9039526,93.960339 C83.6311269,96.5213285 84,99.1723429 84,101.837569 L84,199.385538 C84,200.903794 83.880382,202.419704 83.6422499,203.919279 L80.1237528,226.080181 C79.2752213,225.67024 78.3949139,225.3157 77.4875267,225.021258 L80.9071548,203.487494 C81.1226077,202.130736 81.2308335,200.759198 81.2308335,199.385538 L81.2308335,101.837639 C81.2308335,99.4265997 80.8971714,97.0286398 80.2393061,94.7117444 L63.906835,36.9133485 L58.5402833,17.8110626 L58.6342862,18.7452782 C61.1678377,44.2437649 62.95416,70.5790044 63.9933334,97.7510259 C64.1072073,100.72681 63.8950799,103.706349 63.3607699,106.636744 L60.2164774,123.879561 C59.7657597,126.351227 59.5390294,128.85832 59.5390294,131.370508 L59.539948,208.55121 L59.5471775,208.767835 L59.5820943,209.333623 L59.6091462,209.678466 L59.7022085,210.70393 L59.9479353,213.047133 L60.3484309,216.531965 L60.7664307,220.009186 L61.5292014,226.251825 C60.6239293,226.710035 59.7563344,227.231883 58.9323006,227.811488 L58.8393597,227.041379 L57.9872836,220.099434 L57.5072893,216.069885 L57.1840857,213.215658 L57.0670239,212.121764 L56.9364858,210.821361 L56.860698,209.984687 L56.8064016,209.284009 L56.7832703,208.900078 L56.7713808,208.588038 C56.7703735,208.542277 56.7698629,208.499702 56.7698629,208.460409 L56.7698629,131.370508 C56.7698629,128.692681 57.0115424,126.020286 57.4919778,123.385652 L60.6362656,106.142862 C61.1345504,103.410044 61.332375,100.631402 61.2261792,97.856264 C60.3589441,75.1800385 58.970408,53.0894725 57.0606174,31.5845733 L56.754,28.194 L56.7001885,28.2001105 C52.0347467,28.7290053 47.1343734,28.9932473 41.9990251,28.9932473 C36.8445095,28.9932473 31.9267263,28.7270291 27.2456313,28.1941772 C25.1771978,50.7657721 23.6866999,73.986553 22.7738208,97.856264 C22.6772792,100.379117 22.8319941,102.904866 23.2352907,105.396449 L23.3637344,106.142862 L26.5080222,123.385652 C26.9350758,125.727549 27.173483,128.099282 27.22119,130.478145 L27.2301371,131.370508 L27.2301371,208.460409 L27.2297559,208.521798 L27.2286192,208.588038 L27.2167297,208.900078 L27.1935984,209.284009 L27.139302,209.984687 L27.0635142,210.821361 L26.9329761,212.121764 L26.8159143,213.215658 L26.4927107,216.069885 L26.0127164,220.099434 L25.1606403,227.041379 L24.671262,231.105953 L24.5021739,232.68148 L24.3007738,234.668435 L24.1072125,236.680607 L23.9215389,238.720229 L23.7438018,240.789538 L23.57405,242.890768 L23.4123322,245.026155 L23.2586973,247.197934 L23.113194,249.408339 L23.0780945,249.967238 L23.043507,250.528725 L22.9102928,252.801262 L22.7853322,255.118013 L22.7710105,255.39682 L52.7501968,255.396938 C53.3052417,256.369115 53.9357296,257.292655 54.6336864,258.159586 L22.637,258.159 L22.6134738,258.680933 C22.5783828,259.462329 21.9035821,260.048751 21.1384934,259.996798 L21.0026523,259.980913 L13.8617024,258.794251 C11.0099061,258.320347 8.76350619,256.13266 8.20790625,253.322226 L8.16208521,253.065047 L0.357750125,203.919279 C0.153636861,202.633929 0.0365952229,201.336578 0.00732033184,200.036035 L0,199.385538 L0,101.837569 C0,99.3944451 0.309955884,96.9632629 0.921724545,94.602418 L1.09604739,93.960339 L6.07745593,76.3687606 L20.4670217,25.3571028 L27.2806496,1.01342793 C27.737374,-0.625950662 30.1841121,-0.150779551 29.9903491,1.53966769 C29.0865497,9.42468498 28.2565702,17.3926482 27.5004131,25.4435569 L26.773,25.357 L27.5750247,25.4527027 C28.6768997,25.5779756 29.7926285,25.6881574 30.9222106,25.7832422 L30.9223591,11.1328134 L34.6145811,11.1328134 L34.6139715,26.0375892 C36.425966,26.1354468 38.2717979,26.196412 40.151465,26.2204627 L40.1529141,11.1328134 L43.845136,11.1328134 L43.8465851,26.2204627 C45.7259088,26.1964164 47.5714098,26.135469 49.3830856,26.0376428 L49.383469,11.1328134 L53.075691,11.1328134 L53.0758395,25.7832422 C54.2315073,25.6859616 55.3726747,25.5728787 56.4993409,25.4439997 C55.7434298,17.3926482 54.9134503,9.42468498 54.0096509,1.53966769 C53.8158879,-0.150779551 56.262626,-0.625950662 56.7193504,1.01342793 Z M25.4597167,17.8110626 L20.093165,36.9133485 L3.76069391,94.7117444 C3.15765068,96.8355652 2.82702825,99.0275027 2.77611231,101.235191 L2.76916649,101.837639 L2.76916649,199.385538 C2.76916649,200.530255 2.84432329,201.673497 2.99405894,202.807942 L3.09284517,203.487494 L10.8971803,252.633262 C11.1659292,254.325638 12.4496966,255.670771 14.1152874,256.032178 L14.3169506,256.070784 L19.9186145,257.001215 L20.0228283,254.918036 L20.0549966,254.303593 L20.087738,253.692295 L20.2244162,251.277747 L20.2600095,250.681571 L20.2961705,250.088298 L20.4464743,247.743443 L20.5250097,246.587395 L20.6057912,245.441837 L20.7740645,243.18091 L20.8615422,242.064898 L20.9512377,240.958092 L21.1372542,238.770811 L21.2335609,237.689695 L21.3320573,236.6165 L21.5355905,234.492586 L21.7477972,232.396501 L21.8521188,231.405158 L21.9879188,230.202867 L23.2335693,220.009186 L23.6515691,216.531965 L24.0520647,213.047133 L24.2977915,210.70393 L24.3908538,209.678466 L24.4179057,209.333623 L24.4528225,208.767835 L24.460052,208.55121 L24.4609706,131.370508 C24.4609706,129.137452 24.2818257,126.908422 23.9254622,124.70472 L23.7835226,123.879561 L20.6392301,106.636744 C20.1049201,103.706349 19.8927927,100.72681 20.0066666,97.7510259 C21.0025411,71.711172 22.6845993,46.4398209 25.0529116,21.9369471 L25.3657138,18.7452782 L25.4597167,17.8110626 Z" id="形状结合" fill-opacity="0.7" fill="#999999" fill-rule="nonzero"></path>
        </g>
        <path d="M280.979845,264.000269 C280.927444,262.607498 280.75613,261.265117 280.488075,260.001344 L284.003023,260.001344 C284.525025,261.246977 284.855559,262.593389 284.962378,264.000269 L280.979845,264.000269 Z M280.488075,270.002687 C280.75613,268.736899 280.927444,267.394518 280.979845,265.999731 L284.960363,265.999731 C284.855559,267.408627 284.525025,268.753023 284.003023,270.002687 L280.488075,270.002687 Z M279.966073,272.00215 L282.957004,272.00215 C281.653006,274.035877 279.800806,275.680597 277.61001,276.730718 C278.577427,275.444773 279.381592,273.83835 279.966073,272.00215 Z M273.000672,272.00215 L277.900235,272.00215 C276.825999,275.116232 275.054417,277.3233 273.000672,277.873555 L273.000672,272.00215 Z M273.000672,265.999731 L278.980517,265.999731 C278.922069,267.408627 278.744709,268.753023 278.460531,270.002687 L273.000672,270.002687 L273.000672,265.999731 Z M273.000672,260.001344 L278.460531,260.001344 C278.744709,261.246977 278.918038,262.593389 278.980517,264.000269 L273.000672,264.000269 L273.000672,260.001344 Z M273.000672,252.12846 C275.054417,252.6767 276.825999,254.885783 277.900235,257.99785 L273.000672,257.99785 L273.000672,252.12846 Z M279.966073,257.99785 C279.381592,256.163666 278.581458,254.553212 277.61001,253.269282 C279.800806,254.319403 281.653006,255.966138 282.957004,257.99785 L279.966073,257.99785 Z M270.999328,257.99785 L266.099765,257.99785 C267.174001,254.885783 268.943567,252.6767 270.999328,252.12846 L270.999328,257.99785 Z M270.999328,264.000269 L265.019483,264.000269 C265.077931,262.593389 265.255291,261.246977 265.537454,260.001344 L270.999328,260.001344 L270.999328,264.000269 Z M270.999328,270.002687 L265.537454,270.002687 C265.255291,268.753023 265.077931,267.408627 265.019483,265.999731 L270.999328,265.999731 L270.999328,270.002687 Z M270.999328,277.873555 C268.943567,277.3233 267.174001,275.116232 266.099765,272.00215 L270.999328,272.00215 L270.999328,277.873555 Z M264.035942,272.00215 C264.620423,273.83835 265.422573,275.448804 266.38999,276.730718 C264.197178,275.680597 262.344978,274.035877 261.040981,272.00215 L264.035942,272.00215 Z M263.020155,265.999731 C263.074572,267.394518 263.24387,268.736899 263.511925,270.002687 L259.994961,270.002687 C259.47699,268.753023 259.144441,267.408627 259.037622,265.999731 L263.020155,265.999731 Z M263.511925,260.001344 C263.24387,261.265117 263.074572,262.607498 263.020155,264.000269 L259.037622,264.000269 C259.144441,262.593389 259.47699,261.246977 259.994961,260.001344 L263.511925,260.001344 Z M264.037958,257.99785 L261.040981,257.99785 C262.344978,255.966138 264.197178,254.319403 266.38999,253.269282 C265.424589,254.553212 264.622439,256.163666 264.037958,257.99785 Z M286.963722,264.000269 C286.471952,256.510347 280.488075,250.524053 273.000672,250.032249 L273.000672,250 L271.998992,250 L270.999328,250 L270.999328,250.032249 C263.511925,250.524053 257.526033,256.510347 257.034263,264.000269 L257,264.000269 L257,265 L257,265.999731 L257.034263,265.999731 C257.526033,273.489653 263.511925,279.473932 270.999328,279.965735 L270.999328,280 L271.998992,280 L273.000672,280 L273.000672,279.965735 C280.488075,279.473932 286.471952,273.489653 286.963722,265.999731 L287,265.999731 L287,265 L287,264.000269 L286.963722,264.000269 Z" id="Fill-90" fill="#009FD1"></path>
        <path d="M191.993866,193.00606 L192.00606,192.006134 L190.006209,191.981746 L189.994014,192.981672 L191.993866,193.00606 Z M186.994237,192.945089 L187.006432,191.945163 L185.00658,191.920775 L184.994386,192.9207 L186.994237,192.945089 Z M181.994609,192.884118 L182.006803,191.884192 L180.006952,191.859804 L179.994758,192.859729 L181.994609,192.884118 Z M176.994981,192.823147 L177.007175,191.823221 L175.007324,191.798833 L174.99513,192.798758 L176.994981,192.823147 Z M171.995353,192.762176 L172.007547,191.76225 L170.007696,191.737862 L169.995501,192.737787 L171.995353,192.762176 Z M166.995725,192.701205 L167.007919,191.701279 L165.008067,191.67689 L164.995873,192.676816 L166.995725,192.701205 Z M161.996096,192.640233 L162.00829,191.640308 L160.008439,191.615919 L159.996245,192.615845 L161.996096,192.640233 Z M156.996468,192.579262 L157.008662,191.579337 L155.008811,191.554948 L154.996617,192.554874 L156.996468,192.579262 Z M151.99684,192.518291 L152.009034,191.518366 L150.009183,191.493977 L149.996989,192.493903 L151.99684,192.518291 Z M146.997212,192.45732 L147.009406,191.457395 L145.009554,191.433006 L144.99736,192.432932 L146.997212,192.45732 Z M141.997583,192.396349 L142.009778,191.396424 L140.009926,191.372035 L139.997732,192.371961 L141.997583,192.396349 Z M136.997955,192.335378 L137.010149,191.335452 L135.010298,191.311064 L134.998104,192.31099 L136.997955,192.335378 Z M131.998327,192.274407 L132.010521,191.274481 L130.01067,191.250093 L129.998476,192.250019 L131.998327,192.274407 Z M126.998699,192.213436 L127.010893,191.21351 L125.011042,191.189122 L124.998847,192.189048 L126.998699,192.213436 Z M121.99907,192.152465 L122.011265,191.152539 L120.011413,191.128151 L119.999219,192.128076 L121.99907,192.152465 Z M116.999442,192.091494 L117.011636,191.091568 L115.011785,191.06718 L114.999591,192.067105 L116.999442,192.091494 Z M111.999814,192.030523 L112.012008,191.030597 L110.012157,191.006209 L109.999963,192.006134 L111.999814,192.030523 Z" id="直线-22备份-3" fill="#979797" fill-rule="nonzero"></path>
        <g id="编组" transform="translate(109.000000, 62.000000)">
            <path d="M41,-2 C17.2517558,-2 -2,17.2517558 -2,41 L-1.99518205,41.6485819 C-1.683974,62.5851189 13.6694899,80.1592741 34.1063478,83.4501732 L34.239,83.47 L38.6617499,93.7879319 L38.7346527,93.9412064 C39.5123323,95.4219731 41.7163482,95.3437783 42.3568708,93.7429877 L46.389,83.665 L46.4795032,83.6540389 C67.7776374,80.9470037 84,62.7517904 84,41 C84,17.2517558 64.7482442,-2 41,-2 Z M41,0 C63.6436747,0 82,18.3563253 82,41 C82,62.3017642 65.7548744,79.809276 44.9776321,81.8095264 L40.5,93 L35.63601,81.65228 C15.5269977,79.0247001 0,61.8256124 0,41 C0,18.3563253 18.3563253,0 41,0 Z" id="形状结合" fill-opacity="0.5" fill="#999999" fill-rule="nonzero"></path>
            <path d="M34.4044611,0.527708622 L34.351361,2.9130376 L34.3348408,3.56381198 L34.3174025,4.21709828 L34.2384693,6.85536356 L34.1934948,8.18956876 C34.1574119,9.22188726 34.0286779,10.3259552 33.8130083,11.5546528 L33.7152725,12.0890221 L33.5998451,12.6757495 L33.4730003,13.2801436 L33.3306751,13.922535 L33.1688069,14.623254 L32.7487076,16.3807168 L32.3753585,17.966962 L32.1507229,18.9752227 L31.9930892,19.7640106 L31.9261364,20.1575309 L31.8770273,20.5074796 L31.8530385,20.7231351 L31.822924,21.1298204 L31.8119774,21.5299225 L31.8115818,65.3131285 C31.8115818,65.3262655 31.81868,65.3377421 31.8292454,65.3439336 L31.8472401,65.3488037 L33.1284059,65.2716761 L36.156335,65.0762828 L38.3985934,64.9173422 L40.4806712,64.7560909 L42.4024715,64.5925503 L43.7385813,64.4684055 L44.9844395,64.3429941 L46.1400052,64.2163253 L47.2052375,64.0884081 L48.1800956,63.9592516 L48.7797729,63.8724632 L49.7566608,63.7193676 C50.2157528,63.6457621 50.6701534,63.5709555 51.1195901,63.4950301 L51.7899884,63.3803132 L53.1076302,63.1460916 L54.3930369,62.9058976 L55.6445735,62.6602247 L56.8606052,62.4095664 C57.6091891,62.2514499 58.3360113,62.0907015 59.0392759,61.9278635 L59.7346213,61.7643489 L60.813511,61.5001288 L61.8495388,61.2331442 C62.6607804,61.0185825 63.429305,60.8018408 64.151346,60.5840563 L64.6841023,60.4205402 L65.4177515,60.1851716 L66.1043399,59.9523347 L66.2684434,59.8946113 L66.4294789,59.8371063 L67.042432,59.6095109 C67.7280399,59.3464331 68.3092788,59.092455 68.774548,58.8530798 C69.1370046,58.6666004 69.4171752,58.4947022 69.6066197,58.347594 L69.6937423,58.276153 L69.7210799,58.2528802 C69.7364467,58.2405003 69.7464126,58.2346635 69.7528718,58.2370032 L69.7601672,58.2468493 L69.7631579,58.27 L69.7470412,55.6288426 L69.7426482,53.0046088 L69.7470547,51.8170288 L69.7662691,49.9444819 L69.7582935,49.5002592 L69.7540331,49.3822349 L69.7488705,49.2613088 L69.7192396,48.7474429 L69.6753427,48.1825744 L69.6173166,47.5630441 L69.5452979,46.8851929 L69.4812261,46.3281013 L69.1370847,43.5156288 L69.0348546,42.609609 L68.9857954,42.0303403 L68.971934,41.658442 L68.9641651,39.170192 L68.9406049,36.5649495 L68.8985571,33.7388612 L68.7410668,25.8250753 L68.6537339,20.7372772 L68.6310384,18.3106322 L68.6309543,16.392605 L68.6417176,15.2206563 L68.6503239,14.6495011 L68.6739812,13.5143491 L68.7109859,12.2117292 L68.749029,11.334673 L68.7793629,10.8449918 C69.3550851,11.3756272 69.9155747,11.9225401 70.4601014,12.4850003 L70.4427495,12.9899121 L70.4127986,14.232442 L70.3918823,15.5926765 L70.3831155,17.5180858 L70.4029611,20.3102949 L70.4571284,23.7975928 L70.6535183,33.7572028 L70.7041812,37.3723288 L70.71663,38.8502165 L70.7250456,41.5063606 L70.7315976,41.7956965 L70.7590336,42.2002745 L70.8189477,42.7866122 L71.1992283,45.9184629 L71.3293212,47.0619734 L71.397377,47.7423597 L71.4507357,48.3667865 L71.4892022,48.9399618 L71.5125816,49.4665931 C71.5180212,49.6349026 71.5206701,49.7962395 71.5207396,49.9513882 L71.5189354,50.1795684 L71.5068766,51.1220929 L71.497975,52.5980546 L71.4979767,54.6414484 L71.5190544,58.3550052 C71.5190544,58.9652256 70.8802029,59.6139352 69.7003226,60.2756677 L69.4727787,60.3998889 L69.1134865,60.5840001 L69.019437,60.6301053 L68.9237113,60.6762377 L68.524192,60.8610011 L68.0984333,61.0460488 L67.646898,61.2312602 L67.5300408,61.2775745 L67.4116088,61.3238896 L66.9222766,61.5091206 L66.4083252,61.694214 L65.8702173,61.8790493 L65.7319701,61.9252037 L65.5922493,61.9713325 L65.0187748,62.1555547 L64.4223011,62.3392176 L63.4854797,62.6133995 L62.8335332,62.7951368 L61.8156726,63.0658654 L61.1111465,63.2449239 L60.0165863,63.5110694 L59.2623738,63.686696 L58.0954536,63.9471288 L57.2944476,64.1185702 L56.0595072,64.3721604 L54.7858377,64.6211028 L53.91598,64.7842815 L52.5812336,65.0245737 L51.2119243,65.2591336 L50.2806212,65.4121213 L48.9557395,65.620027 L48.1465407,65.7347254 L47.2700496,65.848315 L46.3262353,65.9608019 L45.3150667,66.072192 L43.9346156,66.2120018 L42.9010255,66.3090715 L41.2502994,66.4530743 L39.4790982,66.595168 L37.5873481,66.7353668 L35.5749752,66.8736852 L33.4419054,67.0101376 L31.9527687,67.1000763 L31.8472401,67.1031897 C31.0305647,67.1031897 30.3415965,66.5562791 30.1266739,65.8087097 L29.2775254,65.7133448 C29.1810358,65.8241398 29.0389324,65.8941663 28.8804735,65.8941663 C28.6807814,65.8941663 28.5070641,65.7829544 28.417879,65.6190876 L27.3366717,65.4979397 C27.2861129,65.69683 27.1223695,65.8502964 26.9183733,65.8861888 L26.823723,65.8941587 C26.565348,65.8927668 26.3514609,65.7054275 26.30822,65.4596655 L26.3002501,65.3650153 L26.3001458,65.082912 C25.7833983,65.3016264 25.4304027,65.5371149 25.2353393,65.7719529 L25.1719124,65.8564613 C24.7071269,66.5494483 23.6524112,66.2576601 23.5711754,65.4675986 L23.5662786,65.3568202 L24.0982469,23.0607068 L24.0941634,22.550089 L24.0815797,22.0470488 L24.059996,21.5439713 L24.0289124,21.0332416 L23.9878291,20.507245 L23.9362462,19.9583664 L23.8736639,19.3789912 L23.7995824,18.7615043 L23.7135018,18.098291 L23.5033439,16.6042256 L23.2368171,14.7759641 L23.0747598,13.595526 L22.9520264,12.5967684 L22.9040543,12.1492232 L22.8473186,11.5243635 L22.8188547,11.1292561 L22.7888467,10.552497 L22.7724421,9.9752644 L22.7681619,9.57931511 L22.7601362,7.51288342 L22.7539231,4.52756189 L22.752797,4.27423679 C23.3307189,3.98654164 23.9163904,3.71208624 24.5094145,3.45126763 L24.5106993,6.07576569 L24.5239705,9.75853027 L24.5357569,10.3065644 L24.5601432,10.8505298 L24.5989352,11.4115653 L24.653939,12.01081 L24.7269603,12.6694027 L24.8198052,13.4084826 L25.023504,14.8765572 L25.2993335,16.7653917 L25.4561258,17.8931289 L25.544609,18.5765512 L25.6208321,19.2144902 L25.6852884,19.8148652 L25.7384717,20.3855952 L25.7808752,20.9345992 L25.7981889,21.2034287 L25.8253483,21.734692 L25.8353175,21.9991057 L25.8483433,22.5304462 L25.8525635,23.0717372 L25.3421579,63.591 L25.5015168,63.5170228 C25.664913,63.4445827 25.8370613,63.3755015 26.0178982,63.3095895 L26.2956622,63.2130747 L26.3119231,63.2085342 L26.6380034,2.58587655 C26.9869058,2.45537381 27.3380618,2.32948834 27.6913969,2.2082945 L27.3616503,63.664459 C27.3778828,63.6982035 27.3921395,63.7333695 27.4042304,63.7698617 C27.4794703,63.9969464 27.4567733,64.2329184 27.3591438,64.4319755 L27.3569231,64.4405342 L28.3539231,64.5515342 L28.3541578,55.7829126 C28.3541578,55.4922364 28.5897974,55.2565968 28.8804735,55.2565968 C29.1388524,55.2565968 29.3537455,55.4427812 29.3983097,55.6883066 L29.4067893,55.7829126 L29.4059231,64.6685342 L30.0569231,64.7405342 L30.0571958,21.5161935 C30.0578882,21.4394306 30.0590225,21.3642534 30.0607607,21.2899897 L30.0679484,21.0692666 L30.0796838,20.8499914 L30.0967055,20.6281311 L30.1197057,20.3996528 L30.1669292,20.0357042 L30.2079032,19.7730365 L30.315745,19.181468 L30.4220085,18.663958 L30.7099258,17.3800979 L30.8709231,16.7025342 L30.9567279,1.23904841 C31.3063514,1.15101278 31.6577596,1.06746753 32.0108876,0.988477557 L31.9499231,11.9715342 L31.991713,11.7615886 C32.2186081,10.5672476 32.3628941,9.50806925 32.4207078,8.53847381 L32.4401795,8.12828469 L32.463032,7.46266727 L32.4849705,6.79956554 L32.5635848,4.17231612 L32.5974084,2.87378647 L32.6275766,1.58532059 L32.6406773,0.852820294 C33.2241627,0.731953893 33.8121866,0.62348739 34.4044611,0.527708622 Z M57.3437582,3.38703553 L57.3288787,3.73646894 C57.3097614,4.12497911 57.2840599,4.51182409 57.2514919,4.91248343 L57.186442,5.63928464 L56.9107658,8.29914077 L56.8159638,9.32666011 L56.7589377,10.0256034 L56.7068552,10.7404649 L56.638007,11.8515543 L56.5802982,13.0214757 L56.5480191,13.8409274 L56.5088976,15.1395906 L56.4890191,16.0576571 L56.4741059,17.02233 L56.4610524,18.5656775 L56.4585651,19.6647683 L56.4585651,49.8493795 C56.4585651,50.3338399 56.0658324,50.7265725 55.5813721,50.7265725 C55.134178,50.7265725 54.7651423,50.3919364 54.7110137,49.9594128 L54.7041791,49.8493795 L54.7048121,19.1016207 L54.7149205,17.4368276 L54.7285008,16.3988511 L54.7591278,14.9382067 L54.8020562,13.5793373 L54.8375057,12.7222941 L54.9009206,11.4985262 L54.9500211,10.7171658 L55.0339023,9.58534481 L55.1300538,8.48797784 L55.4508391,5.36083138 C55.5402317,4.41419855 55.5918545,3.58905768 55.6097898,2.68257616 C56.1937796,2.90224379 56.7721554,3.13831558 57.3437582,3.38703553 Z M29.8554252,1.53281844 L29.6349766,23.8383065 C29.6324301,24.0966728 29.4441369,24.3097205 29.1981841,24.3518628 L29.1034992,24.3594096 C28.8451329,24.3568632 28.6320852,24.1685699 28.589943,23.9226172 L28.5823961,23.8279323 L28.7986161,1.84615341 C29.1488942,1.7371142 29.5011872,1.63264594 29.8554252,1.53281844 Z" id="形状结合" fill="#999999"></path>
            <path d="M28.9994148,25.544715 C29.2829911,25.5471391 29.516491,25.7560284 29.5584087,26.0274791 L29.5650915,26.1200823 L29.3368787,53.0491937 C29.3342085,53.3642785 29.0766171,53.6175406 28.7615323,53.6148913 C28.477956,53.6124672 28.244456,53.4035779 28.2025384,53.1321272 L28.1958556,53.039524 L28.4240684,26.1104126 C28.4267386,25.7953278 28.68433,25.5420657 28.9994148,25.544715 Z" id="直线-11备份-29" fill="#2A75FF" fill-rule="nonzero"></path>
            <ellipse id="椭圆形" fill="#367DFF" opacity="0.5" filter="url(#filter-1)" cx="28.7631579" cy="39.1578947" rx="8" ry="17.5"></ellipse>
        </g>
        <path d="M35.0029476,112.634804 C35.1972402,100.654496 44.972002,91 56.9985477,91 C69.1489582,91 79,100.850002 79,112.998548 C79,125.149478 69.1494783,135 56.9985477,135 C44.9714872,135 35.1972299,125.344994 35.0029474,113.362363 L35,112.998548 L35.0029476,112.634804 Z M38,112.998548 C38,123.492624 46.507376,132 56.9985477,132 C67.492624,132 76,123.492624 76,112.998548 C76,102.507376 67.492624,94 56.9985477,94 C46.507376,94 38,102.507376 38,112.998548 Z" id="Fill-20" fill-opacity="0.9" fill="#F84343" fill-rule="nonzero"></path>
        <path d="M221.002948,112.634804 C221.19724,100.654496 230.972002,91 242.998548,91 C255.148958,91 265,100.850002 265,112.998548 C265,125.149478 255.149478,135 242.998548,135 C230.971487,135 221.19723,125.344994 221.002947,113.362363 L221,112.998548 L221.002948,112.634804 Z M224,112.998548 C224,123.492624 232.507376,132 242.998548,132 C253.492624,132 262,123.492624 262,112.998548 C262,102.507376 253.492624,94 242.998548,94 C232.507376,94 224,102.507376 224,112.998548 Z" id="Fill-20备份" fill-opacity="0.9" fill="#F84343" fill-rule="nonzero"></path>
    </g>
</svg>