<?xml version="1.0" standalone="no"?><!DOCTYPE svg PUBLIC "-//W3C//DTD SVG 1.1//EN" "http://www.w3.org/Graphics/SVG/1.1/DTD/svg11.dtd"><svg t="1669692065603" class="icon" viewBox="0 0 1024 1024" version="1.1" xmlns="http://www.w3.org/2000/svg" p-id="2229" xmlns:xlink="http://www.w3.org/1999/xlink" width="200" height="200"><path d="M494.61696 67.392a202.112 202.112 0 1 1 0 404.16 202.112 202.112 0 0 1 0-404.16zM494.61696 0a269.44 269.44 0 1 0 0 538.944A269.44 269.44 0 0 0 494.61696 0z" fill="#333333" p-id="2230"></path><path d="M33.17696 954.112a32.512 32.512 0 0 0 32-27.648c34.24-217.344 216.064-376.96 429.44-376.96 213.248 0 395.136 159.616 429.44 376.96 2.56 16 16.128 27.712 31.936 27.648a32.448 32.448 0 0 0 24.832-12.032 34.688 34.688 0 0 0 7.36-27.264c-40.064-249.28-248.896-432-493.632-432-244.736 0-453.568 182.72-493.568 432a34.688 34.688 0 0 0 7.296 27.264 32.448 32.448 0 0 0 24.896 12.032z" fill="#333333" p-id="2231"></path><path d="M448.53696 640m32 0l32 0q32 0 32 32l0 192q0 32-32 32l-32 0q-32 0-32-32l0-192q0-32 32-32Z" fill="#D6001C" p-id="2232"></path></svg>