<?xml version="1.0" encoding="UTF-8"?>
<svg width="80px" height="80px" viewBox="0 0 80 80" version="1.1" xmlns="http://www.w3.org/2000/svg" xmlns:xlink="http://www.w3.org/1999/xlink">
    <title>Icons/Mesh/ic_router_large_m6@2x</title>
    <g id="Icons/Mesh/ic_router_large_m6" stroke="none" stroke-width="1" fill="none" fill-rule="evenodd">
        <rect id="Rectangle-7" fill="#00D061" x="0" y="0" width="80" height="80" rx="40"></rect>
        <path d="M36.4909132,10.4618316 C36.9283502,9.61837413 37.9041706,9.18729072 38.8323423,9.44984559 L38.8323423,9.44984559 L51.1243097,12.9263616 C51.8464372,13.1305997 52.3957285,13.7184718 52.5505696,14.452802 C52.5644106,14.5184515 52.5781628,14.5854957 52.5918261,14.653935 L52.5918261,14.653935 L52.6727407,15.0813156 L52.7515281,15.5422001 L52.8281926,16.0366107 L52.9027389,16.5645691 L52.9751714,17.1260975 L53.0454946,17.7212176 L53.1470347,18.6769304 L53.2121047,19.356126 L53.2750814,20.0689902 L53.3359692,20.8155449 L53.4233942,21.9985946 L53.5061447,23.2575715 L53.5842361,24.5925494 L53.6811368,26.490872 L53.7484162,28.0034738 L53.8503156,30.6939531 L53.9053404,32.4100473 L53.9593913,34.3816307 L53.9601448,34.7537871 C53.959553,34.8176865 53.9586015,34.8826258 53.9572893,34.9487602 L53.9572893,34.9487602 L53.9450755,35.3611474 L53.9241405,35.8096579 L53.8944231,36.3017339 L53.8332463,37.1378131 L53.654452,39.2607764 L53.5754464,40.2929377 L53.5466539,40.8001543 L53.5167815,41.7391934 L53.5005402,42.5721396 L53.4928495,43.5048628 L53.4956539,44.5805475 L53.5174422,46.3613517 L53.6202194,51.6199705 L53.6633559,54.4428842 L53.6763605,56.7508207 L53.6938653,57.0159708 L53.9283971,58.9935888 L54.0115359,59.7432375 L54.0571634,60.2487883 C54.0882223,60.6452226 54.1017488,60.9823856 54.0968252,61.2818325 L54.0968252,61.2818325 L54.0904525,61.7807604 L54.0854698,63.5400683 L54.0969422,65.6338028 C54.0969422,66.17749 53.5158377,66.7152599 52.4553743,67.2331998 L52.4553743,67.2331998 L52.1046755,67.3960844 C52.0436095,67.4231165 51.9812453,67.4500897 51.9175978,67.4770019 L51.9175978,67.4770019 L51.5204309,67.6377264 C51.3829876,67.6910464 51.2405295,67.744106 51.0931753,67.7968892 L51.0931753,67.7968892 L50.6365431,67.9543929 L50.1512463,68.1101402 C50.0680143,68.1359462 49.9836176,68.1616751 49.8980711,68.1873247 L49.8980711,68.1873247 L49.3711125,68.3402547 L48.8172692,68.4911848 L48.2372535,68.6400177 L47.319714,68.8591219 L46.6773821,69.0022858 L46.0113697,69.1430117 L44.969508,69.3493164 L43.8783705,69.549588 L42.7403603,69.7434978 L41.7334225,69.9030851 L41.254493,69.970535 L40.7327201,70.0372292 L40.1680653,70.1031751 L39.5604898,70.1683802 L38.9099551,70.2328519 L37.8535201,70.3282004 L37.0954184,70.3908709 L35.4498934,70.5140968 L34.1024411,70.6046945 L32.1545123,70.7231103 C31.6578518,70.7516901 31.2394124,70.356637 31.2394124,69.8591549 L31.2394124,69.8591549 L31.2387423,69.4572835 L30.6381779,69.4261703 C30.6029648,69.5457236 30.4923896,69.6329902 30.3614322,69.6329902 C30.2248782,69.6329902 30.1104858,69.5381055 30.0805891,69.4106703 L30.0777423,69.3962835 L29.4741317,69.3645775 C29.4338434,69.4244198 29.3717279,69.4683074 29.2992649,69.4848869 L29.2330823,69.4921408 C29.1251895,69.4915463 29.0314581,69.431793 28.982466,69.3437972 C28.9360051,69.3713968 28.8846228,69.3943987 28.8302433,69.4125252 C28.4325075,69.5451038 28.2116389,69.6831467 28.1498676,69.7758037 C27.6925995,70.4617059 26.6497496,70.1748051 26.5693585,69.3943921 L26.5645071,69.2849582 L26.8461296,46.7605634 L26.8410711,46.3548803 L26.8252564,45.9526656 L26.8130158,45.7483552 L26.8130158,45.7483552 L26.7792688,45.3243207 L26.7323682,44.8677245 L26.6713553,44.3641547 L26.5952709,43.7991993 L26.374762,42.2665437 L26.2788248,41.5446784 L26.2309784,41.1343338 L26.1946774,40.764212 L26.16877,40.4201732 L26.1468767,39.92209 L26.1419132,39.5813974 L26.1347423,37.2065199 L26.1417448,33.2821833 L26.1629122,30.7008867 L26.1819763,29.2653032 L26.2146795,27.4760826 L26.2555609,25.822083 L26.3179194,23.9322556 L26.3766165,22.5525449 L26.4429716,21.2814255 L26.5168246,20.1107033 L26.6194411,18.7760017 L26.7095793,17.801215 L26.7603843,17.5834671 C27.0166,16.9002253 27.3899807,16.1541221 27.9114706,15.2509752 L28.2423853,14.6894883 L28.6103314,14.0857902 C28.6748242,13.9814051 28.7409219,13.8750728 28.8086555,13.7666992 C29.1648637,13.1967659 29.6383403,12.5181781 30.1165447,11.8819813 L30.5249671,11.3505741 L30.9199561,10.8610674 C31.1753044,10.5533937 31.4111977,10.2877455 31.6066372,10.092306 C31.8412804,9.85766281 32.1894355,9.77785751 32.5028532,9.88687235 L35.7422898,11.0136329 C35.7848547,11.0284381 35.8255279,11.0462326 35.8641562,11.0666994 L35.8914436,11.0226648 C35.9502848,10.9284893 36.0565007,10.8781146 36.1634298,10.8883252 L36.2272996,10.901856 L36.2847423,10.9202835 L36.4230925,10.6061779 Z M38.3612742,11.1152756 C38.2213203,11.0756864 38.073782,11.1464979 38.0171112,11.2804676 C37.5384909,12.4119243 36.9887628,13.495114 36.367985,14.5297438 C35.5692965,15.8608912 34.7024258,17.1130378 33.7673839,18.2859289 L33.9777423,18.0142835 L34.0105285,18.4400032 C34.3019046,22.492826 34.4281253,26.9956959 34.3894296,31.9491736 L34.3786135,33.0175304 L34.3472124,34.9365196 L34.3000941,36.8984769 L34.2372612,38.9034089 C34.2145339,39.5549263 34.1257639,40.2530684 33.9761133,41.0423762 L33.9761133,41.0423762 L33.8974325,41.439774 L33.8084693,41.8555151 L33.7049626,42.3110116 L33.3629517,43.7493448 L33.2017625,44.4490232 L33.0905097,44.9744803 L33.0346829,45.2829767 L32.9985048,45.5404966 L32.9783582,45.7671928 L32.9706257,45.9832178 L32.97,68.941 L33.5354078,68.9064125 L35.4031212,68.7822996 L36.680412,68.6874694 L37.8516861,68.5911745 L38.9167954,68.4934433 L39.8755919,68.3943043 L40.4556537,68.3274435 L41.2369329,68.2260212 L41.6893806,68.1590945 C45.0018252,67.6410057 47.8720127,67.0035532 49.9423244,66.3554883 L49.9423244,66.3554883 L50.5253231,66.165299 C51.1700149,65.9456647 51.6881864,65.7350965 52.0550257,65.545986 C52.1742801,65.4845088 52.2723276,65.4278339 52.3469943,65.3789596 L52.3469943,65.3789596 L52.364,65.366 L52.3568163,64.1865861 L52.355784,62.3412615 L52.366735,61.0999092 C52.3662246,61.0467229 52.3650567,60.9914709 52.3632351,60.9340456 L52.3632351,60.9340456 L52.3444904,60.5625534 C52.3400687,60.4960045 52.3350008,60.427067 52.3292904,60.3556334 L52.3292904,60.3556334 L52.2873476,59.8962169 L52.2301638,59.3717272 L51.9816535,57.2985768 L51.9516955,56.9467905 L51.9442439,56.7306341 L51.9401396,55.3869087 L51.925151,53.8152032 L51.7759236,45.6458106 L51.7617928,43.9199251 L51.7659288,42.8734467 L51.7819071,41.8919393 L51.8115314,40.8635537 L51.828417,40.5065042 L51.8739713,39.8171581 L52.1480382,36.4678916 L52.1941431,35.7454829 L52.2143764,35.3208998 L52.2263097,34.9342198 L52.2300307,34.57883 C52.2299121,34.464847 52.2284395,34.3549769 52.2256274,34.2481175 L52.2256274,34.2481175 L52.2094881,33.6485383 L52.1213003,30.7768525 L52.0624151,29.1549081 L51.9543679,26.6203505 L51.8590561,24.7447167 L51.7824197,23.4267803 L51.7013836,22.1850311 L51.6159632,21.0195432 L51.5261738,19.9303905 L51.4320306,18.9176473 L51.333549,17.9813875 L51.2654919,17.3997416 L51.1955179,16.8521433 L51.1236316,16.3386145 L51.0122263,15.6322495 L50.9355789,15.2039903 L50.857035,14.8098775 C50.8349133,14.7049657 50.756438,14.6209785 50.6532762,14.5918014 L50.6532762,14.5918014 Z M33.5066605,12.1739683 L33.4393176,12.2683674 L29.804,18.159 L29.5247423,68.7892835 L30.0727423,68.8182835 L30.0729706,64.1332611 C30.0729706,63.9739482 30.2021193,63.8447996 30.3614322,63.8447996 C30.4979861,63.8447996 30.6123785,63.9396843 30.6422752,64.0671195 L30.6498937,64.1332611 L30.6497423,68.8482835 L31.2387423,68.8792835 L31.2398197,45.963179 L31.2518731,45.6098201 L31.2756855,45.3424306 L31.300645,45.1509289 L31.3341479,44.9412963 L31.4028129,44.57872 L31.5043689,44.1053668 C31.4979066,44.0901865 31.4927071,44.0743431 31.4889022,44.0579704 L31.481422,43.9918131 L31.5355931,18.0763201 L31.5794176,17.9240733 L34.9277423,12.5632835 L34.5207423,12.4212835 L30.958,18.161 L30.790734,47.3743512 C30.7899513,47.5109029 30.6944124,47.6247495 30.5668079,47.6539153 L30.5006237,47.6611545 C30.3640721,47.6603718 30.2502254,47.5648329 30.2210597,47.4372284 L30.2138204,47.3710442 L30.3817511,18.0752696 L30.4251528,17.9247454 L33.9617423,12.2272835 L33.5807239,12.0944084 C33.554548,12.1191958 33.5297959,12.145745 33.5066605,12.1739683 Z M32.47,11.708 L32.3905967,11.800371 C31.7873081,12.5084586 30.9835871,13.5892834 30.4229005,14.4539797 L30.0897855,14.9841559 L29.7439368,15.5513437 L29.4336316,16.0769811 L29.1578897,16.5641901 C28.8559716,17.1113981 28.6226194,17.586522 28.4508295,18.0118708 L28.42,18.088 L28.3089358,19.3472941 L28.2347773,20.3562514 L28.1669598,21.447523 L28.1056224,22.6278586 L28.0509038,23.9040076 L28.002943,25.2827194 L27.9439766,27.5578574 L27.9135182,29.2225058 L27.8856483,31.4815566 L27.8675272,34.4712381 L27.8665648,37.7866013 L27.8741385,39.7268516 L27.8889088,40.1761798 L27.9087919,40.4832947 L27.9564958,40.9881539 L28.0018659,41.3733427 L28.1302529,42.3195157 L28.3120729,43.578779 L28.3920159,44.1741678 L28.4562953,44.7084277 L28.5058478,45.197046 C28.5129314,45.2755393 28.5194404,45.3527762 28.5253943,45.4290793 L28.5546128,45.8782738 C28.5660478,46.0998495 28.5728383,46.3188291 28.5755113,46.5439239 L28.5768313,46.7713798 L28.314,67.761 L28.3880397,67.7426428 C28.5856982,67.7031406 28.7848129,67.7351009 28.954959,67.8233114 L29.2279046,18.0753338 L29.2708706,17.9254498 L32.9483353,11.9654208 L32.9987423,11.8912835 L32.47,11.708 Z M30.5051331,48.2109965 C30.6416804,48.2123628 30.7551278,48.3083754 30.7837614,48.4361004 L30.7907246,48.5023142 L30.6498796,62.7276663 C30.6483023,62.8869714 30.5178814,63.0148351 30.3585762,63.0132722 C30.222029,63.0119058 30.1085816,62.9158932 30.079948,62.7881683 L30.0729848,62.7219545 L30.2138298,48.4966024 C30.2154071,48.3372973 30.345828,48.2094336 30.5051331,48.2109965 Z M45.7667688,35.0568797 C46.0853947,35.0568797 46.3436919,35.315177 46.3436919,35.6338028 C46.3436919,36.1860242 46.3215487,36.6616928 46.2749067,37.1747419 L46.2242232,37.6657381 L46.0582706,39.0443809 L45.9967874,39.6211179 L45.9429628,40.2142169 L45.8968046,40.8323981 L45.8583203,41.4843817 C45.8525462,41.596347 45.8470922,41.710084 45.8419583,41.8257744 L45.8149994,42.544812 L45.7957335,43.3194523 C45.793164,43.4536771 45.7909154,43.590582 45.7889879,43.7303487 L45.781276,44.6047437 L45.7803116,61.1267606 C45.7803116,61.4453864 45.5220144,61.7036836 45.2033886,61.7036836 C44.9166253,61.7036836 44.6787282,61.4944629 44.6340164,61.2203405 L44.6264655,61.1267606 L44.6274545,44.5971808 L44.6353651,43.7076068 L44.6511823,42.8866449 L44.6749017,42.1255743 L44.7065194,41.4156742 L44.7460309,40.748224 C44.7532737,40.6400353 44.7608453,40.533252 44.7687456,40.4276924 L44.82009,39.8075657 C44.8293045,39.7061742 44.8388475,39.605643 44.8487188,39.5057904 L44.9244999,38.8058405 L45.0883122,37.4426518 C45.1577587,36.8087977 45.1898458,36.2795613 45.1898458,35.6338028 C45.1898458,35.315177 45.448143,35.0568797 45.7667688,35.0568797 Z M32.2387423,17.9562835 L32.112,18.159 L32.0627423,41.7272835 L32.0693643,41.7008168 L32.1607843,41.2876475 L32.2396416,40.9056448 L32.3381746,40.3730523 C32.4345349,39.8075267 32.4914632,39.3040551 32.5075441,38.84307 C32.5192367,38.5078804 32.5302799,38.1744864 32.5406737,37.8428879 L32.5406737,37.8428879 L32.5952439,35.874845 L32.6342311,33.9499027 C32.7330205,27.9225019 32.5974588,22.5435072 32.2279568,17.8138817 L32.2387423,17.9562835 Z" id="形状结合" fill="#FFFFFF" fill-rule="nonzero"></path>
    </g>
</svg>