<?xml version="1.0" standalone="no"?><!DOCTYPE svg PUBLIC "-//W3C//DTD SVG 1.1//EN" "http://www.w3.org/Graphics/SVG/1.1/DTD/svg11.dtd"><svg t="1637131397217" class="icon" viewBox="0 0 1024 1024" version="1.1" xmlns="http://www.w3.org/2000/svg" p-id="3085" xmlns:xlink="http://www.w3.org/1999/xlink" width="200" height="200"><defs><style type="text/css"></style></defs><path d="M514.901333 42.666667C678.528 44.245333 810.666667 179.413333 810.666667 345.941333a304.512 304.512 0 0 1-101.845334 228.053334A365.013333 365.013333 0 0 0 625.792 682.666667H397.696a396.117333 396.117333 0 0 0-85.376-111.232A304.554667 304.554667 0 0 1 213.333333 345.941333C213.333333 178.090667 349.610667 41.088 514.901333 42.666667z m35.754667 221.013333l-85.376 85.290667L375.466667 281.6 324.266667 349.866667l149.077333 111.786666 85.333333-85.333333L648.533333 443.733333l51.2-68.266666-149.077333-111.786667zM512 981.333333a42.666667 42.666667 0 0 1-42.666667-42.666666v-21.333334h85.333334v21.333334a42.666667 42.666667 0 0 1-42.666667 42.666666zM554.666667 896h-85.333334a85.333333 85.333333 0 0 1-85.333333-85.333333v-85.333334h256v85.333334a85.333333 85.333333 0 0 1-85.333333 85.333333z" fill="#FFBE00" p-id="3086"></path></svg>