<?xml version="1.0" encoding="UTF-8"?>
<svg width="300px" height="300px" viewBox="0 0 300 300" version="1.1" xmlns="http://www.w3.org/2000/svg" xmlns:xlink="http://www.w3.org/1999/xlink">
    <title>img/常见问题/img_m6aplus_wired</title>
    <defs>
        <path d="M30.9998738,27.5451799 C31.2834501,27.547604 31.5169501,27.7564933 31.5588677,28.027944 L31.5655505,28.1205472 L31.3373377,55.0496586 C31.3346675,55.3647434 31.0770761,55.6180055 30.7619913,55.6153562 C30.478415,55.6129321 30.2449151,55.4040428 30.2029974,55.1325921 L30.1963146,55.0399889 L30.4245274,28.1108775 C30.4271976,27.7957927 30.684789,27.5425306 30.9998738,27.5451799 Z" id="path-1"></path>
        <filter x="-438.2%" y="-21.4%" width="976.4%" height="142.8%" filterUnits="objectBoundingBox" id="filter-2">
            <feOffset dx="0" dy="0" in="SourceAlpha" result="shadowOffsetOuter1"></feOffset>
            <feGaussianBlur stdDeviation="2" in="shadowOffsetOuter1" result="shadowBlurOuter1"></feGaussianBlur>
            <feColorMatrix values="0 0 0 0 1   0 0 0 0 1   0 0 0 0 1  0 0 0 0.975914695 0" type="matrix" in="shadowBlurOuter1"></feColorMatrix>
        </filter>
        <filter x="-112.5%" y="-51.4%" width="325.0%" height="202.9%" filterUnits="objectBoundingBox" id="filter-3">
            <feGaussianBlur stdDeviation="6" in="SourceGraphic"></feGaussianBlur>
        </filter>
    </defs>
    <g id="img/常见问题/img_m6aplus_wired" stroke="none" stroke-width="1" fill="none" fill-rule="evenodd">
        <g id="编组-2备份-3" transform="translate(27.468750, 20.596434)">
            <path d="M44.1044871,0 L46.8471627,0.113611542 L47.2747711,2.73692238 C54.1885246,45.3893955 57.6469294,93.4900876 57.6469294,117.059816 C57.6469294,122.275119 57.4285827,125.986641 56.9260331,130.326862 L56.7375566,131.877188 L55.9083014,138.332367 L55.7143562,140.004518 L55.5743459,141.302742 L55.4847681,142.181408 C54.6627489,150.435395 54.2338143,160.220017 54.1931011,175.197719 L54.1898982,177.597975 L54.1973501,180.611722 L54.2138772,182.919775 C54.3598915,198.545662 55.1688221,208.553229 56.5330699,215.734752 L56.667494,216.418341 L56.8448712,217.248393 C57.4019254,219.780885 58.3704841,223.656209 58.4341985,223.954872 C58.8567974,225.935816 59.0531794,227.698479 59.0531794,229.901157 L59.0531794,252.882268 C59.0531794,256.62211 56.0642284,258.826179 50.6853611,259.547344 L49.0922419,258.153566 L9.9609375,258.153566 L8.36781836,259.547344 C3.09872387,258.840897 0.122993386,256.711454 0.00372954103,253.109319 L0,252.882268 L0,229.901157 C0,227.910802 0.139783496,226.283525 0.439009345,224.524522 L0.551136881,223.904151 L1.52653792,219.233787 C1.7153293,218.305139 1.89508709,217.395238 2.02807747,216.666642 L2.12899788,216.094697 L2.29007711,215.105167 L2.45221945,214.030361 L2.61024273,212.894689 C3.5374813,205.947834 4.08735414,196.575718 4.19797707,182.916869 L4.21227929,180.613475 L4.21875,177.597975 L4.21611286,175.183406 L4.20410341,172.04633 C4.12820671,158.276095 3.75718759,149.103556 3.0873793,141.229827 L2.97496252,139.950866 L2.78007765,137.909078 L2.28438652,133.171278 L1.98610925,130.2413 L1.8767885,129.0257 L1.7742926,127.762924 C1.53483146,124.626771 1.42019133,121.606065 1.40745045,117.790262 L1.40742443,116.335083 C1.48109269,93.5117043 5.0204672,46.9043261 12.0223519,6.49285253 L12.6819472,2.7180696 L13.1467993,0.0944177231 L15.8955129,0 L19.49625,14.4028125 L21.5625,14.4028125 L21.5625,0.341065723 L25.3125,0.341065723 L25.3125,14.4028125 L28.125,14.4028125 L28.125,0.341065723 L31.875,0.341065723 L31.875,14.4028125 L34.6875,14.4028125 L34.6875,0.341065723 L38.4375,0.341065723 L38.4375,14.4028125 L40.5028125,14.4028125 L44.1044871,0 Z M8.6646207,63.1908098 L8.83166452,60.3140897 L8.7144974,61.1844945 C5.76961484,83.2442011 4.27178258,101.610391 4.22013346,116.27761 L4.22004217,117.812853 C4.23554059,122.253598 4.39117663,125.582494 4.72579716,129.318967 L4.78671372,129.982885 L4.91249401,131.270646 L5.65849229,138.44048 L5.78115246,139.754076 C6.51285654,147.840745 6.92139617,157.126143 7.01191282,171.253945 L7.02666458,174.430421 L7.03125,177.597975 L7.02450575,180.679369 L7.01007857,182.973656 C6.88725827,198.011461 6.2328916,207.941025 5.12108484,215.202286 L5.06684718,215.5521 L4.90225212,216.562903 L4.74422016,217.445812 L4.56818994,218.365468 C4.37934161,219.331728 4.15756567,220.414002 3.95260266,221.398131 L3.3144122,224.427914 L3.21251021,224.991277 C2.9660313,226.438819 2.83920616,227.775547 2.81630592,229.362434 L2.8125,229.901157 L2.8125,252.882268 C2.8125,254.528717 4.003812,255.705438 6.71534729,256.383401 L6.99158041,256.449533 L7.1484375,256.483878 L7.14853809,227.654859 C7.10002915,223.59947 7.72790532,220.130669 9.13462171,215.385393 L9.31452513,214.785451 L10.5538946,210.7367 L10.8131301,209.861529 C11.474431,207.595565 11.6592494,206.645726 11.7050785,205.525938 L11.7179199,204.95216 L11.71875,137.216066 L11.7144657,136.68158 C11.6684826,133.826367 11.2478291,130.855378 10.2347265,125.762092 L9.93399077,124.271992 L8.88445319,119.199148 L8.41866911,116.854547 L8.23360168,115.883012 C7.43766048,111.635814 7.13486367,109.030231 7.14314228,106.36602 L7.14866322,105.844522 L7.18027426,104.137953 L7.25206913,100.619539 L7.33202766,97.1433299 C7.61216288,85.6263042 8.02836899,74.8126606 8.58074329,64.702118 L8.6646207,63.1908098 Z M50.2781794,57.8013782 L50.4708098,61.5654336 L50.6111039,64.4721452 C51.1835164,76.6655092 51.6041053,89.8847072 51.8729795,104.130144 L51.9045162,105.844522 C51.9766033,109.867432 51.4742778,113.222106 49.9139609,120.505193 L49.2658447,123.499368 C47.9439237,129.632719 47.3686113,133.285658 47.3359129,136.888596 L47.3370927,205.141853 L47.3469472,205.516436 L47.3587399,205.750265 C47.4303106,206.911991 47.7025114,208.012148 48.6937006,211.288978 L49.7387177,214.712291 C51.2661669,219.785429 51.9552064,223.42758 51.9046413,227.654859 L51.9047419,256.483878 L52.061599,256.449533 C54.9686229,255.783364 56.2406794,254.583599 56.2406794,252.882268 L56.2406794,229.901157 C56.2406794,228.083309 56.0964224,226.623245 55.7827893,225.025586 L55.652194,224.407905 L54.7186948,220.549528 L54.2911284,218.714206 C54.1288893,218.001721 53.9831434,217.337426 53.875305,216.801297 L53.707451,215.926482 L53.5814367,215.229969 C52.1512626,207.124984 51.3773982,195.706861 51.3773982,177.597975 L51.3805712,175.206917 L51.3953236,172.052816 L51.4151075,169.706055 C51.5504461,156.403589 52.0504418,147.485802 52.9209007,139.677405 L53.1568621,137.662022 L53.9836742,131.238642 L54.1315894,130.008661 C54.5731642,126.196466 54.7890029,122.895884 54.8279364,118.556048 L54.8344294,117.059816 L54.8293784,115.494218 L54.8142252,113.900547 C54.6357537,99.699125 53.2748854,82.2120085 50.7310055,61.443384 L50.2781794,57.8013782 Z M45.7221354,17.2146085 L13.8945336,17.2146085 L13.6821363,19.3138431 C11.8653242,37.625195 10.6715941,74.1811871 10.1019079,98.9790395 L10.0378096,101.909252 L9.96071178,105.894912 L9.95567821,106.352726 C9.94615939,109.327541 10.3705574,112.330699 11.5394317,118.137789 L11.8225288,119.528925 L12.5006394,122.790586 L12.8909274,124.70134 L13.0950702,125.727279 C14.077251,130.720828 14.486019,133.716282 14.5276677,136.699746 L14.53125,137.216066 L14.5299733,205.056059 L14.5250795,205.397079 C14.4907766,207.003387 14.2883024,208.064082 13.319256,211.308078 L13.0070055,212.342738 L12.1823248,215.025667 C10.6599021,219.952277 9.96486355,223.332746 9.95861019,227.190661 L9.9609375,227.638039 L9.9609375,255.340313 L49.0921875,255.340313 L49.0922419,227.638039 C49.1388294,223.73519 48.4956929,220.337375 47.0414849,215.509378 L45.726219,211.18849 L45.4479304,210.244168 L45.1920135,209.342056 C44.6067161,207.21939 44.5292132,206.412924 44.5224733,204.973393 L44.5219294,137.216066 C44.5219294,133.364202 45.0801223,129.637501 46.3948664,123.473908 L47.2503365,119.511069 L47.7358089,117.183981 L47.9329207,116.200088 C48.8433433,111.582062 49.1464042,108.904906 49.0924676,105.894912 L49.0155938,101.859727 L48.9282605,97.7771894 L48.8245462,93.4425917 C48.2327834,70.0271212 47.1984646,34.6171178 45.7221354,17.2146085 Z M14.9549807,7.83462998 C14.6909348,9.97230467 14.4368535,12.1618966 14.1927389,14.4034002 L16.5965625,14.4028125 L14.9549807,7.83462998 Z M44.9087151,8.37726939 L43.4025,14.4028125 L45.4774256,14.4029142 C45.3400347,12.8639272 45.1990537,11.3493714 45.0544827,9.85924826 L44.9087151,8.37726939 Z" id="形状" fill-opacity="0.7" fill="#999999" fill-rule="nonzero"></path>
            <path d="M33.28125,84.6535657 L25.78125,84.6535657 C23.4340398,84.6535657 21.53125,86.5563555 21.53125,88.9035657 L21.53125,96.4035657 C21.53125,98.7507759 23.4340398,100.653566 25.78125,100.653566 L33.28125,100.653566 C35.6284602,100.653566 37.53125,98.7507759 37.53125,96.4035657 L37.53125,88.9035657 C37.53125,86.5563555 35.6284602,84.6535657 33.28125,84.6535657 Z M25.78125,85.6535657 L33.28125,85.6535657 C35.0761754,85.6535657 36.53125,87.1086403 36.53125,88.9035657 L36.53125,96.4035657 C36.53125,98.1984912 35.0761754,99.6535657 33.28125,99.6535657 L25.78125,99.6535657 C23.9863246,99.6535657 22.53125,98.1984912 22.53125,96.4035657 L22.53125,88.9035657 C22.53125,87.1086403 23.9863246,85.6535657 25.78125,85.6535657 Z" id="矩形备份-9" fill-opacity="0.7" fill="#999999" fill-rule="nonzero"></path>
            <path d="M22.1325,81.7060657 C22.42125,81.7060657 22.66875,81.6235657 22.875,81.4585657 C23.09625,81.2823157 23.235,81.0385657 23.295,80.7235657 L22.8675,80.7235657 C22.815,80.9260657 22.725,81.0798157 22.5975,81.1810657 C22.4775,81.2710657 22.32,81.3198157 22.12875,81.3198157 C21.83625,81.3198157 21.61875,81.2260657 21.48,81.0460657 C21.3525,80.8773157 21.28875,80.6335657 21.28875,80.3185657 C21.28875,80.0110657 21.3525,79.7710657 21.48375,79.5985657 C21.62625,79.4035657 21.83625,79.3098157 22.1175,79.3098157 C22.305,79.3098157 22.45875,79.3473157 22.57875,79.4298157 C22.7025,79.5123157 22.785,79.6398157 22.83,79.8160657 L23.2575,79.8160657 C23.21625,79.5460657 23.1,79.3285657 22.905,79.1710657 C22.7025,79.0060657 22.44,78.9235657 22.125,78.9235657 C21.6975,78.9235657 21.37125,79.0623157 21.14625,79.3473157 C20.9475,79.5948157 20.85,79.9210657 20.85,80.3185657 C20.85,80.7235657 20.94375,81.0460657 21.135,81.2860657 C21.3525,81.5635657 21.68625,81.7060657 22.1325,81.7060657 Z M24.89625,81.7060657 C25.305,81.7060657 25.6275,81.5748157 25.86375,81.3123157 C26.08875,81.0610657 26.20125,80.7310657 26.20125,80.3185657 C26.20125,79.9060657 26.08875,79.5723157 25.86375,79.3210657 C25.6275,79.0548157 25.305,78.9235657 24.89625,78.9235657 C24.48375,78.9235657 24.16125,79.0548157 23.92875,79.3248157 C23.70375,79.5798157 23.595,79.9098157 23.595,80.3185657 C23.595,80.7235657 23.70375,81.0535657 23.92875,81.3085657 C24.16125,81.5710657 24.48375,81.7060657 24.89625,81.7060657 Z M24.89625,81.3198157 C24.61875,81.3198157 24.40125,81.2260657 24.25125,81.0423157 C24.105,80.8623157 24.03375,80.6223157 24.03375,80.3185657 C24.03375,80.0110657 24.105,79.7710657 24.25125,79.5910657 C24.405,79.4035657 24.61875,79.3098157 24.89625,79.3098157 C25.17375,79.3098157 25.3875,79.3960657 25.5375,79.5760657 C25.68375,79.7560657 25.75875,80.0035657 25.75875,80.3185657 C25.75875,80.6335657 25.68375,80.8773157 25.5375,81.0535657 C25.3875,81.2298157 25.17375,81.3198157 24.89625,81.3198157 Z M27.0525,81.6535657 L27.0525,79.6960657 L27.0675,79.6960657 L28.40625,81.6535657 L28.83375,81.6535657 L28.83375,78.9760657 L28.39125,78.9760657 L28.39125,80.9073157 L28.37625,80.9073157 L27.0525,78.9760657 L26.61375,78.9760657 L26.61375,81.6535657 L27.0525,81.6535657 Z M29.7975,81.6535657 L29.7975,79.6960657 L29.8125,79.6960657 L31.15125,81.6535657 L31.57875,81.6535657 L31.57875,78.9760657 L31.13625,78.9760657 L31.13625,80.9073157 L31.12125,80.9073157 L29.7975,78.9760657 L29.35875,78.9760657 L29.35875,81.6535657 L29.7975,81.6535657 Z M34.09875,81.6535657 L34.09875,81.2785657 L32.5425,81.2785657 L32.5425,80.4685657 L33.945,80.4685657 L33.945,80.0935657 L32.5425,80.0935657 L32.5425,79.3510657 L34.035,79.3510657 L34.035,78.9760657 L32.10375,78.9760657 L32.10375,81.6535657 L34.09875,81.6535657 Z M35.68125,81.7060657 C35.97,81.7060657 36.2175,81.6235657 36.42375,81.4585657 C36.645,81.2823157 36.78375,81.0385657 36.84375,80.7235657 L36.41625,80.7235657 C36.36375,80.9260657 36.27375,81.0798157 36.14625,81.1810657 C36.02625,81.2710657 35.86875,81.3198157 35.6775,81.3198157 C35.385,81.3198157 35.1675,81.2260657 35.02875,81.0460657 C34.90125,80.8773157 34.8375,80.6335657 34.8375,80.3185657 C34.8375,80.0110657 34.90125,79.7710657 35.0325,79.5985657 C35.175,79.4035657 35.385,79.3098157 35.66625,79.3098157 C35.85375,79.3098157 36.0075,79.3473157 36.1275,79.4298157 C36.25125,79.5123157 36.33375,79.6398157 36.37875,79.8160657 L36.80625,79.8160657 C36.765,79.5460657 36.64875,79.3285657 36.45375,79.1710657 C36.25125,79.0060657 35.98875,78.9235657 35.67375,78.9235657 C35.24625,78.9235657 34.92,79.0623157 34.695,79.3473157 C34.49625,79.5948157 34.39875,79.9210657 34.39875,80.3185657 C34.39875,80.7235657 34.4925,81.0460657 34.68375,81.2860657 C34.90125,81.5635657 35.235,81.7060657 35.68125,81.7060657 Z M38.36625,81.6535657 L38.36625,79.3510657 L39.24375,79.3510657 L39.24375,78.9760657 L37.05,78.9760657 L37.05,79.3510657 L37.9275,79.3510657 L37.9275,81.6535657 L38.36625,81.6535657 Z" id="CONNECT" fill="#999999" fill-rule="nonzero"></path>
            <path d="M26.82375,213.403566 L27.34875,211.389816 L27.36375,211.389816 L27.885,213.403566 L28.35,213.403566 L29.1225,210.726066 L28.6275,210.726066 L28.125,212.762316 L28.11,212.762316 L27.58125,210.726066 L27.1275,210.726066 L26.59875,212.762316 L26.58375,212.762316 L26.08125,210.726066 L25.58625,210.726066 L26.355,213.403566 L26.82375,213.403566 Z M29.61,213.403566 L29.85375,212.732316 L30.975,212.732316 L31.21875,213.403566 L31.6875,213.403566 L30.66375,210.726066 L30.165,210.726066 L29.14125,213.403566 L29.61,213.403566 Z M30.84375,212.372316 L29.985,212.372316 L30.40875,211.198566 L30.42375,211.198566 L30.84375,212.372316 Z M32.38875,213.403566 L32.38875,211.446066 L32.40375,211.446066 L33.7425,213.403566 L34.17,213.403566 L34.17,210.726066 L33.7275,210.726066 L33.7275,212.657316 L33.7125,212.657316 L32.38875,210.726066 L31.95,210.726066 L31.95,213.403566 L32.38875,213.403566 Z" id="WAN" fill="#999999" fill-rule="nonzero"></path>
            <path d="M28.389375,108.653566 L28.389375,108.278566 L26.941875,108.278566 L26.941875,105.976066 L26.506875,105.976066 L26.506875,108.653566 L28.389375,108.653566 Z M28.933125,108.653566 L29.176875,107.982316 L30.298125,107.982316 L30.541875,108.653566 L31.010625,108.653566 L29.986875,105.976066 L29.488125,105.976066 L28.464375,108.653566 L28.933125,108.653566 Z M30.166875,107.622316 L29.308125,107.622316 L29.731875,106.448566 L29.746875,106.448566 L30.166875,107.622316 Z M31.711875,108.653566 L31.711875,106.696066 L31.726875,106.696066 L33.065625,108.653566 L33.493125,108.653566 L33.493125,105.976066 L33.050625,105.976066 L33.050625,107.907316 L33.035625,107.907316 L31.711875,105.976066 L31.273125,105.976066 L31.273125,108.653566 L31.711875,108.653566 Z" id="LAN" fill="#999999" fill-rule="nonzero"></path>
            <path d="M24.19125,238.716066 L24.19125,237.688566 L24.855,237.688566 C25.5075,237.688566 25.83375,237.411066 25.83375,236.859816 C25.83375,236.312316 25.5075,236.038566 24.8625,236.038566 L23.7525,236.038566 L23.7525,238.716066 L24.19125,238.716066 Z M24.82875,237.313566 L24.19125,237.313566 L24.19125,236.413566 L24.82875,236.413566 C25.02,236.413566 25.1625,236.447316 25.2525,236.518566 C25.3425,236.586066 25.39125,236.698566 25.39125,236.859816 C25.39125,237.021066 25.34625,237.137316 25.25625,237.208566 C25.16625,237.276066 25.02375,237.313566 24.82875,237.313566 Z M27.3975,238.768566 C27.80625,238.768566 28.12875,238.637316 28.365,238.374816 C28.59,238.123566 28.7025,237.793566 28.7025,237.381066 C28.7025,236.968566 28.59,236.634816 28.365,236.383566 C28.12875,236.117316 27.80625,235.986066 27.3975,235.986066 C26.985,235.986066 26.6625,236.117316 26.43,236.387316 C26.205,236.642316 26.09625,236.972316 26.09625,237.381066 C26.09625,237.786066 26.205,238.116066 26.43,238.371066 C26.6625,238.633566 26.985,238.768566 27.3975,238.768566 Z M27.3975,238.382316 C27.12,238.382316 26.9025,238.288566 26.7525,238.104816 C26.60625,237.924816 26.535,237.684816 26.535,237.381066 C26.535,237.073566 26.60625,236.833566 26.7525,236.653566 C26.90625,236.466066 27.12,236.372316 27.3975,236.372316 C27.675,236.372316 27.88875,236.458566 28.03875,236.638566 C28.185,236.818566 28.26,237.066066 28.26,237.381066 C28.26,237.696066 28.185,237.939816 28.03875,238.116066 C27.88875,238.292316 27.675,238.382316 27.3975,238.382316 Z M30.10875,238.716066 L30.63375,236.702316 L30.64875,236.702316 L31.17,238.716066 L31.635,238.716066 L32.4075,236.038566 L31.9125,236.038566 L31.41,238.074816 L31.395,238.074816 L30.86625,236.038566 L30.4125,236.038566 L29.88375,238.074816 L29.86875,238.074816 L29.36625,236.038566 L28.87125,236.038566 L29.64,238.716066 L30.10875,238.716066 Z M34.68375,238.716066 L34.68375,238.341066 L33.1275,238.341066 L33.1275,237.531066 L34.53,237.531066 L34.53,237.156066 L33.1275,237.156066 L33.1275,236.413566 L34.62,236.413566 L34.62,236.038566 L32.68875,236.038566 L32.68875,238.716066 L34.68375,238.716066 Z M35.535,238.716066 L35.535,237.624816 L36.22875,237.624816 C36.37875,237.624816 36.495,237.654816 36.57375,237.722316 C36.64875,237.786066 36.69375,237.891066 36.70875,238.037316 L36.7425,238.367316 C36.7575,238.517316 36.795,238.633566 36.85875,238.716066 L37.335,238.716066 C37.245,238.618566 37.18875,238.487316 37.17375,238.322316 L37.12875,237.891066 C37.09875,237.628566 36.9675,237.474816 36.735,237.422316 L36.735,237.414816 C36.8775,237.377316 36.99375,237.298566 37.07625,237.178566 C37.15125,237.069816 37.18875,236.946066 37.18875,236.807316 C37.18875,236.552316 37.1025,236.357316 36.9375,236.222316 C36.78,236.098566 36.5625,236.038566 36.28875,236.038566 L35.09625,236.038566 L35.09625,238.716066 L35.535,238.716066 Z M36.22875,237.249816 L35.535,237.249816 L35.535,236.413566 L36.22875,236.413566 C36.40875,236.413566 36.54,236.443566 36.6225,236.511066 C36.705,236.574816 36.74625,236.679816 36.74625,236.826066 C36.74625,236.961066 36.705,237.066066 36.6225,237.141066 C36.5325,237.212316 36.40125,237.249816 36.22875,237.249816 Z" id="POWER" fill="#999999" fill-rule="nonzero"></path>
            <path d="M24.144375,63.8410657 L24.144375,62.7498157 L24.838125,62.7498157 C24.988125,62.7498157 25.104375,62.7798157 25.183125,62.8473157 C25.258125,62.9110657 25.303125,63.0160657 25.318125,63.1623157 L25.351875,63.4923157 C25.366875,63.6423157 25.404375,63.7585657 25.468125,63.8410657 L25.944375,63.8410657 C25.854375,63.7435657 25.798125,63.6123157 25.783125,63.4473157 L25.738125,63.0160657 C25.708125,62.7535657 25.576875,62.5998157 25.344375,62.5473157 L25.344375,62.5398157 C25.486875,62.5023157 25.603125,62.4235657 25.685625,62.3035657 C25.760625,62.1948157 25.798125,62.0710657 25.798125,61.9323157 C25.798125,61.6773157 25.711875,61.4823157 25.546875,61.3473157 C25.389375,61.2235657 25.171875,61.1635657 24.898125,61.1635657 L23.705625,61.1635657 L23.705625,63.8410657 L24.144375,63.8410657 Z M24.838125,62.3748157 L24.144375,62.3748157 L24.144375,61.5385657 L24.838125,61.5385657 C25.018125,61.5385657 25.149375,61.5685657 25.231875,61.6360657 C25.314375,61.6998157 25.355625,61.8048157 25.355625,61.9510657 C25.355625,62.0860657 25.314375,62.1910657 25.231875,62.2660657 C25.141875,62.3373157 25.010625,62.3748157 24.838125,62.3748157 Z M28.314375,63.8410657 L28.314375,63.4660657 L26.758125,63.4660657 L26.758125,62.6560657 L28.160625,62.6560657 L28.160625,62.2810657 L26.758125,62.2810657 L26.758125,61.5385657 L28.250625,61.5385657 L28.250625,61.1635657 L26.319375,61.1635657 L26.319375,63.8410657 L28.314375,63.8410657 Z M29.716875,63.8935657 C30.058125,63.8935657 30.324375,63.8223157 30.511875,63.6873157 C30.699375,63.5485657 30.793125,63.3573157 30.793125,63.1173157 C30.793125,62.8698157 30.676875,62.6785657 30.444375,62.5398157 C30.339375,62.4798157 30.106875,62.3898157 29.743125,62.2773157 C29.495625,62.1985657 29.341875,62.1423157 29.285625,62.1123157 C29.158125,62.0448157 29.098125,61.9510657 29.098125,61.8385657 C29.098125,61.7110657 29.150625,61.6173157 29.263125,61.5610657 C29.353125,61.5123157 29.480625,61.4898157 29.649375,61.4898157 C29.844375,61.4898157 29.994375,61.5235657 30.091875,61.5985657 C30.189375,61.6698157 30.260625,61.7898157 30.298125,61.9548157 L30.733125,61.9548157 C30.706875,61.6623157 30.598125,61.4448157 30.410625,61.3060657 C30.234375,61.1748157 29.986875,61.1110657 29.671875,61.1110657 C29.383125,61.1110657 29.146875,61.1748157 28.959375,61.3060657 C28.756875,61.4410657 28.659375,61.6285657 28.659375,61.8648157 C28.659375,62.1010657 28.760625,62.2810657 28.966875,62.4048157 C29.045625,62.4498157 29.251875,62.5248157 29.581875,62.6298157 C29.878125,62.7198157 30.050625,62.7798157 30.103125,62.8060657 C30.268125,62.8885657 30.354375,63.0010657 30.354375,63.1435657 C30.354375,63.2560657 30.294375,63.3423157 30.181875,63.4098157 C30.069375,63.4735657 29.911875,63.5073157 29.716875,63.5073157 C29.495625,63.5073157 29.334375,63.4660657 29.229375,63.3910657 C29.113125,63.3048157 29.041875,63.1585657 29.011875,62.9560657 L28.576875,62.9560657 C28.595625,63.2973157 28.719375,63.5448157 28.944375,63.7023157 C29.128125,63.8298157 29.386875,63.8935657 29.716875,63.8935657 Z M33.163125,63.8410657 L33.163125,63.4660657 L31.606875,63.4660657 L31.606875,62.6560657 L33.009375,62.6560657 L33.009375,62.2810657 L31.606875,62.2810657 L31.606875,61.5385657 L33.099375,61.5385657 L33.099375,61.1635657 L31.168125,61.1635657 L31.168125,63.8410657 L33.163125,63.8410657 Z M34.685625,63.8410657 L34.685625,61.5385657 L35.563125,61.5385657 L35.563125,61.1635657 L33.369375,61.1635657 L33.369375,61.5385657 L34.246875,61.5385657 L34.246875,63.8410657 L34.685625,63.8410657 Z" id="RESET" fill="#999999" fill-rule="nonzero"></path>
            <circle id="椭圆形备份-2" fill-opacity="0.5" fill="#999999" cx="30" cy="67.8098157" r="1.40625"></circle>
            <circle id="椭圆形备份-3" fill-opacity="0.5" fill="#999999" cx="27.65625" cy="228.153566" r="4.6875"></circle>
            <path d="M30,172 L30,173.699 L32.5714286,173.7 L32.572,177.099 L34.2857143,177.1 L34.286,177.95 L36,177.95 L36,183.05 L34.286,183.05 L34.2857143,183.9 L32.572,183.899 L32.5714286,187.3 L30,187.299 L30,189 L25.7142857,189 L25.715,187.299 L24,187.3 L24,173.7 L25.715,173.699 L25.7142857,172 L30,172 Z M29.6,184.474026 L25.6,184.474026 L25.6,185.357143 L29.6,185.357143 L29.6,184.474026 Z M29.6,182.707792 L25.6,182.707792 L25.6,183.590909 L29.6,183.590909 L29.6,182.707792 Z M29.6,180.941558 L25.6,180.941558 L25.6,181.824675 L29.6,181.824675 L29.6,180.941558 Z M29.6,179.175325 L25.6,179.175325 L25.6,180.058442 L29.6,180.058442 L29.6,179.175325 Z M29.6,177.409091 L25.6,177.409091 L25.6,178.292208 L29.6,178.292208 L29.6,177.409091 Z M29.6,175.642857 L25.6,175.642857 L25.6,176.525974 L29.6,176.525974 L29.6,175.642857 Z" id="形状结合备份-2" fill-opacity="0.5" fill="#999999"></path>
            <path d="M30,152 L30,153.699 L32.5714286,153.7 L32.572,157.099 L34.2857143,157.1 L34.286,157.95 L36,157.95 L36,163.05 L34.286,163.05 L34.2857143,163.9 L32.572,163.899 L32.5714286,167.3 L30,167.299 L30,169 L25.7142857,169 L25.715,167.299 L24,167.3 L24,153.7 L25.715,153.699 L25.7142857,152 L30,152 Z M29.6,164.474026 L25.6,164.474026 L25.6,165.357143 L29.6,165.357143 L29.6,164.474026 Z M29.6,162.707792 L25.6,162.707792 L25.6,163.590909 L29.6,163.590909 L29.6,162.707792 Z M29.6,160.941558 L25.6,160.941558 L25.6,161.824675 L29.6,161.824675 L29.6,160.941558 Z M29.6,159.175325 L25.6,159.175325 L25.6,160.058442 L29.6,160.058442 L29.6,159.175325 Z M29.6,157.409091 L25.6,157.409091 L25.6,158.292208 L29.6,158.292208 L29.6,157.409091 Z M29.6,155.642857 L25.6,155.642857 L25.6,156.525974 L29.6,156.525974 L29.6,155.642857 Z" id="形状结合备份" fill="#A2A2A2"></path>
            <path d="M30,132 L30,133.699 L32.5714286,133.7 L32.572,137.099 L34.2857143,137.1 L34.286,137.95 L36,137.95 L36,143.05 L34.286,143.05 L34.2857143,143.9 L32.572,143.899 L32.5714286,147.3 L30,147.299 L30,149 L25.7142857,149 L25.715,147.299 L24,147.3 L24,133.7 L25.715,133.699 L25.7142857,132 L30,132 Z M29.6,144.474026 L25.6,144.474026 L25.6,145.357143 L29.6,145.357143 L29.6,144.474026 Z M29.6,142.707792 L25.6,142.707792 L25.6,143.590909 L29.6,143.590909 L29.6,142.707792 Z M29.6,140.941558 L25.6,140.941558 L25.6,141.824675 L29.6,141.824675 L29.6,140.941558 Z M29.6,139.175325 L25.6,139.175325 L25.6,140.058442 L29.6,140.058442 L29.6,139.175325 Z M29.6,137.409091 L25.6,137.409091 L25.6,138.292208 L29.6,138.292208 L29.6,137.409091 Z M29.6,135.642857 L25.6,135.642857 L25.6,136.525974 L29.6,136.525974 L29.6,135.642857 Z" id="形状结合" fill-opacity="0.5" fill="#999999"></path>
            <path d="M30,112 L30,113.699 L32.5714286,113.7 L32.572,117.099 L34.2857143,117.1 L34.286,117.95 L36,117.95 L36,123.05 L34.286,123.05 L34.2857143,123.9 L32.572,123.899 L32.5714286,127.3 L30,127.299 L30,129 L25.7142857,129 L25.715,127.299 L24,127.3 L24,113.7 L25.715,113.699 L25.7142857,112 L30,112 Z M29.6,124.474026 L25.6,124.474026 L25.6,125.357143 L29.6,125.357143 L29.6,124.474026 Z M29.6,122.707792 L25.6,122.707792 L25.6,123.590909 L29.6,123.590909 L29.6,122.707792 Z M29.6,120.941558 L25.6,120.941558 L25.6,121.824675 L29.6,121.824675 L29.6,120.941558 Z M29.6,119.175325 L25.6,119.175325 L25.6,120.058442 L29.6,120.058442 L29.6,119.175325 Z M29.6,117.409091 L25.6,117.409091 L25.6,118.292208 L29.6,118.292208 L29.6,117.409091 Z M29.6,115.642857 L25.6,115.642857 L25.6,116.525974 L29.6,116.525974 L29.6,115.642857 Z" id="形状结合" fill-opacity="0.5" fill="#999999"></path>
            <path d="M30,191 L30,192.699 L32.5714286,192.7 L32.572,196.099 L34.2857143,196.1 L34.286,196.95 L36,196.95 L36,202.05 L34.286,202.05 L34.2857143,202.9 L32.572,202.899 L32.5714286,206.3 L30,206.299 L30,208 L25.7142857,208 L25.715,206.299 L24,206.3 L24,192.7 L25.715,192.699 L25.7142857,191 L30,191 Z M29.6,203.474026 L25.6,203.474026 L25.6,204.357143 L29.6,204.357143 L29.6,203.474026 Z M29.6,201.707792 L25.6,201.707792 L25.6,202.590909 L29.6,202.590909 L29.6,201.707792 Z M29.6,199.941558 L25.6,199.941558 L25.6,200.824675 L29.6,200.824675 L29.6,199.941558 Z M29.6,198.175325 L25.6,198.175325 L25.6,199.058442 L29.6,199.058442 L29.6,198.175325 Z M29.6,196.409091 L25.6,196.409091 L25.6,197.292208 L29.6,197.292208 L29.6,196.409091 Z M29.6,194.642857 L25.6,194.642857 L25.6,195.525974 L29.6,195.525974 L29.6,194.642857 Z" id="形状结合" fill-opacity="0.5" fill="#FF5B5B"></path>
            <polygon id="直线-15" fill="#999999" fill-rule="nonzero" points="21.5625 190.497316 21.5625 191.434816 19.687 191.434 19.687 211.278 23.90625 211.278566 23.90625 212.216066 18.75 212.216066 18.75 190.497316"></polygon>
            <polygon id="直线-15备份" fill="#999999" fill-rule="nonzero" points="40.3125 190.497316 40.3125 212.216066 35.625 212.216066 35.625 211.278566 39.375 211.278 39.375 191.434 37.5 191.434816 37.5 190.497316"></polygon>
            <polygon id="直线-15" fill="#999999" fill-rule="nonzero" transform="translate(21.328125, 147.809816) scale(1, -1) translate(-21.328125, -147.809816) " points="21.5625 106.997316 21.5625 107.934816 19.687 107.934 19.687 187.684 23.90625 187.684816 23.90625 188.622316 18.75 188.622316 18.75 106.997316"></polygon>
            <polygon id="直线-15备份" fill="#999999" fill-rule="nonzero" transform="translate(37.968750, 147.809816) scale(1, -1) translate(-37.968750, -147.809816) " points="40.3125 106.997316 40.3125 188.622316 35.625 188.622316 35.625 187.684816 39.375 187.684 39.375 107.934 37.5 107.934816 37.5 106.997316"></polygon>
        </g>
        <g id="编组-2备份-3" transform="translate(213.468750, 20.596434)">
            <path d="M44.1044871,0 L46.8471627,0.113611542 L47.2747711,2.73692238 C54.1885246,45.3893955 57.6469294,93.4900876 57.6469294,117.059816 C57.6469294,122.275119 57.4285827,125.986641 56.9260331,130.326862 L56.7375566,131.877188 L55.9083014,138.332367 L55.7143562,140.004518 L55.5743459,141.302742 L55.4847681,142.181408 C54.6627489,150.435395 54.2338143,160.220017 54.1931011,175.197719 L54.1898982,177.597975 L54.1973501,180.611722 L54.2138772,182.919775 C54.3598915,198.545662 55.1688221,208.553229 56.5330699,215.734752 L56.667494,216.418341 L56.8448712,217.248393 C57.4019254,219.780885 58.3704841,223.656209 58.4341985,223.954872 C58.5843245,224.658592 58.7059023,225.334765 58.8002693,226.012904 C57.8474099,226.04848 56.9140731,226.15582 56.0043888,226.329781 C55.943391,225.899225 55.8695745,225.467673 55.7827893,225.025586 L55.652194,224.407905 L54.7186948,220.549528 L54.2911284,218.714206 C54.1288893,218.001721 53.9831434,217.337426 53.875305,216.801297 L53.707451,215.926482 L53.5814367,215.229969 C52.1512626,207.124984 51.3773982,195.706861 51.3773982,177.597975 L51.3805712,175.206917 L51.3953236,172.052816 L51.4151075,169.706055 C51.5504461,156.403589 52.0504418,147.485802 52.9209007,139.677405 L53.1568621,137.662022 L53.9836742,131.238642 L54.1315894,130.008661 C54.5731642,126.196466 54.7890029,122.895884 54.8279364,118.556048 L54.8344294,117.059816 L54.8293784,115.494218 L54.8142252,113.900547 C54.6357537,99.699125 53.2748854,82.2120085 50.7310055,61.443384 L50.2781794,57.8013782 L50.4708098,61.5654336 L50.6111039,64.4721452 C51.1835164,76.6655092 51.6041053,89.8847072 51.8729795,104.130144 L51.9045162,105.844522 C51.9766033,109.867432 51.4742778,113.222106 49.9139609,120.505193 L49.2658447,123.499368 C47.9439237,129.632719 47.3686113,133.285658 47.3359129,136.888596 L47.3370927,205.141853 L47.3469472,205.516436 L47.3587399,205.750265 C47.4303106,206.911991 47.7025114,208.012148 48.6937006,211.288978 L49.7387177,214.712291 C51.2627725,219.774156 51.9521398,223.411385 51.9049675,227.626685 C50.9178543,228.070981 49.9776013,228.599564 49.0924315,229.202971 L49.0922419,227.638039 C49.1388294,223.73519 48.4956929,220.337375 47.0414849,215.509378 L45.726219,211.18849 L45.4479304,210.244168 L45.1920135,209.342056 C44.6067161,207.21939 44.5292132,206.412924 44.5224733,204.973393 L44.5219294,137.216066 C44.5219294,133.364202 45.0801223,129.637501 46.3948664,123.473908 L47.2503365,119.511069 L47.7358089,117.183981 L47.9329207,116.200088 C48.8433433,111.582062 49.1464042,108.904906 49.0924676,105.894912 L49.0155938,101.859727 L48.9282605,97.7771894 L48.8245462,93.4425917 C48.2327834,70.0271212 47.1984646,34.6171178 45.7221354,17.2146085 L13.8945336,17.2146085 L13.6821363,19.3138431 C12.6498567,29.7180203 11.818727,46.0121253 11.1889237,62.6928541 L11.0777335,65.6983721 C10.653783,77.3934904 10.3284876,89.1162573 10.1019079,98.9790395 L10.0378096,101.909252 L9.96071178,105.894912 L9.95567821,106.352726 C9.94615939,109.327541 10.3705574,112.330699 11.5394317,118.137789 L11.8225288,119.528925 L12.5006394,122.790586 L12.8909274,124.70134 L13.0950702,125.727279 C14.077251,130.720828 14.486019,133.716282 14.5276677,136.699746 L14.53125,137.216066 L14.5299733,205.056059 L14.5250795,205.397079 C14.4907766,207.003387 14.2883024,208.064082 13.319256,211.308078 L13.0070055,212.342738 L12.1823248,215.025667 C10.6599021,219.952277 9.96486355,223.332746 9.95861019,227.190661 L9.9609375,227.638039 L9.9609375,255.340313 L44.507422,255.340766 C45.2469978,256.361808 46.0883214,257.30433 47.0165157,258.153456 L9.9609375,258.153566 L8.36781836,259.547344 C3.09872387,258.840897 0.122993386,256.711454 0.00372954103,253.109319 L0,252.882268 L0,229.901157 C0,227.910802 0.139783496,226.283525 0.439009345,224.524522 L0.551136881,223.904151 L1.52653792,219.233787 C1.7153293,218.305139 1.89508709,217.395238 2.02807747,216.666642 L2.12899788,216.094697 L2.29007711,215.105167 L2.45221945,214.030361 L2.61024273,212.894689 C3.5374813,205.947834 4.08735414,196.575718 4.19797707,182.916869 L4.21227929,180.613475 L4.21875,177.597975 L4.21611286,175.183406 L4.20410341,172.04633 C4.12820671,158.276095 3.75718759,149.103556 3.0873793,141.229827 L2.97496252,139.950866 L2.78007765,137.909078 L2.28438652,133.171278 L1.98610925,130.2413 L1.8767885,129.0257 L1.7742926,127.762924 C1.53483146,124.626771 1.42019133,121.606065 1.40745045,117.790262 L1.40742443,116.335083 C1.48109269,93.5117043 5.0204672,46.9043261 12.0223519,6.49285253 L12.6819472,2.7180696 L13.1467993,0.0944177231 L15.8955129,0 L19.49625,14.4028125 L21.5625,14.4028125 L21.5625,0.341065723 L25.3125,0.341065723 L25.3125,14.4028125 L28.125,14.4028125 L28.125,0.341065723 L31.875,0.341065723 L31.875,14.4028125 L34.6875,14.4028125 L34.6875,0.341065723 L38.4375,0.341065723 L38.4375,14.4028125 L40.5028125,14.4028125 L44.1044871,0 Z M8.83166452,60.3140897 L8.7144974,61.1844945 C5.76961484,83.2442011 4.27178258,101.610391 4.22013346,116.27761 L4.22004217,117.812853 C4.23554059,122.253598 4.39117663,125.582494 4.72579716,129.318967 L4.78671372,129.982885 L4.91249401,131.270646 L5.65849229,138.44048 L5.78115246,139.754076 C6.51285654,147.840745 6.92139617,157.126143 7.01191282,171.253945 L7.02666458,174.430421 L7.03125,177.597975 L7.02450575,180.679369 L7.01007857,182.973656 C6.88725827,198.011461 6.2328916,207.941025 5.12108484,215.202286 L5.06684718,215.5521 L4.90225212,216.562903 L4.74422016,217.445812 L4.56818994,218.365468 C4.37934161,219.331728 4.15756567,220.414002 3.95260266,221.398131 L3.3144122,224.427914 L3.21251021,224.991277 C2.9660313,226.438819 2.83920616,227.775547 2.81630592,229.362434 L2.8125,229.901157 L2.8125,252.882268 C2.8125,254.528717 4.003812,255.705438 6.71534729,256.383401 L6.99158041,256.449533 L7.1484375,256.483878 L7.14853809,227.654859 C7.10002915,223.59947 7.72790532,220.130669 9.13462171,215.385393 L9.31452513,214.785451 L10.5538946,210.7367 L10.8131301,209.861529 C11.474431,207.595565 11.6592494,206.645726 11.7050785,205.525938 L11.7179199,204.95216 L11.71875,137.216066 L11.7144657,136.68158 C11.6684826,133.826367 11.2478291,130.855378 10.2347265,125.762092 L9.93399077,124.271992 L8.88445319,119.199148 L8.41866911,116.854547 L8.23360168,115.883012 C7.43766048,111.635814 7.13486367,109.030231 7.14314228,106.36602 L7.14866322,105.844522 L7.18027426,104.137953 L7.25206913,100.619539 L7.33202766,97.1433299 C7.61216288,85.6263042 8.02836899,74.8126606 8.58074329,64.702118 L8.6646207,63.1908098 L8.83166452,60.3140897 Z M14.9549807,7.83462998 C14.6909348,9.97230467 14.4368535,12.1618966 14.1927389,14.4034002 L16.5965625,14.4028125 L14.9549807,7.83462998 Z M44.9087151,8.37726939 L43.4025,14.4028125 L45.4774256,14.4029142 C45.3400347,12.8639272 45.1990537,11.3493714 45.0544827,9.85924826 L44.9087151,8.37726939 Z" id="形状结合" fill-opacity="0.7" fill="#999999" fill-rule="nonzero"></path>
            <path d="M33.28125,84.6535657 L25.78125,84.6535657 C23.4340398,84.6535657 21.53125,86.5563555 21.53125,88.9035657 L21.53125,96.4035657 C21.53125,98.7507759 23.4340398,100.653566 25.78125,100.653566 L33.28125,100.653566 C35.6284602,100.653566 37.53125,98.7507759 37.53125,96.4035657 L37.53125,88.9035657 C37.53125,86.5563555 35.6284602,84.6535657 33.28125,84.6535657 Z M25.78125,85.6535657 L33.28125,85.6535657 C35.0761754,85.6535657 36.53125,87.1086403 36.53125,88.9035657 L36.53125,96.4035657 C36.53125,98.1984912 35.0761754,99.6535657 33.28125,99.6535657 L25.78125,99.6535657 C23.9863246,99.6535657 22.53125,98.1984912 22.53125,96.4035657 L22.53125,88.9035657 C22.53125,87.1086403 23.9863246,85.6535657 25.78125,85.6535657 Z" id="矩形备份-9" fill-opacity="0.7" fill="#999999" fill-rule="nonzero"></path>
            <path d="M22.1325,81.7060657 C22.42125,81.7060657 22.66875,81.6235657 22.875,81.4585657 C23.09625,81.2823157 23.235,81.0385657 23.295,80.7235657 L22.8675,80.7235657 C22.815,80.9260657 22.725,81.0798157 22.5975,81.1810657 C22.4775,81.2710657 22.32,81.3198157 22.12875,81.3198157 C21.83625,81.3198157 21.61875,81.2260657 21.48,81.0460657 C21.3525,80.8773157 21.28875,80.6335657 21.28875,80.3185657 C21.28875,80.0110657 21.3525,79.7710657 21.48375,79.5985657 C21.62625,79.4035657 21.83625,79.3098157 22.1175,79.3098157 C22.305,79.3098157 22.45875,79.3473157 22.57875,79.4298157 C22.7025,79.5123157 22.785,79.6398157 22.83,79.8160657 L23.2575,79.8160657 C23.21625,79.5460657 23.1,79.3285657 22.905,79.1710657 C22.7025,79.0060657 22.44,78.9235657 22.125,78.9235657 C21.6975,78.9235657 21.37125,79.0623157 21.14625,79.3473157 C20.9475,79.5948157 20.85,79.9210657 20.85,80.3185657 C20.85,80.7235657 20.94375,81.0460657 21.135,81.2860657 C21.3525,81.5635657 21.68625,81.7060657 22.1325,81.7060657 Z M24.89625,81.7060657 C25.305,81.7060657 25.6275,81.5748157 25.86375,81.3123157 C26.08875,81.0610657 26.20125,80.7310657 26.20125,80.3185657 C26.20125,79.9060657 26.08875,79.5723157 25.86375,79.3210657 C25.6275,79.0548157 25.305,78.9235657 24.89625,78.9235657 C24.48375,78.9235657 24.16125,79.0548157 23.92875,79.3248157 C23.70375,79.5798157 23.595,79.9098157 23.595,80.3185657 C23.595,80.7235657 23.70375,81.0535657 23.92875,81.3085657 C24.16125,81.5710657 24.48375,81.7060657 24.89625,81.7060657 Z M24.89625,81.3198157 C24.61875,81.3198157 24.40125,81.2260657 24.25125,81.0423157 C24.105,80.8623157 24.03375,80.6223157 24.03375,80.3185657 C24.03375,80.0110657 24.105,79.7710657 24.25125,79.5910657 C24.405,79.4035657 24.61875,79.3098157 24.89625,79.3098157 C25.17375,79.3098157 25.3875,79.3960657 25.5375,79.5760657 C25.68375,79.7560657 25.75875,80.0035657 25.75875,80.3185657 C25.75875,80.6335657 25.68375,80.8773157 25.5375,81.0535657 C25.3875,81.2298157 25.17375,81.3198157 24.89625,81.3198157 Z M27.0525,81.6535657 L27.0525,79.6960657 L27.0675,79.6960657 L28.40625,81.6535657 L28.83375,81.6535657 L28.83375,78.9760657 L28.39125,78.9760657 L28.39125,80.9073157 L28.37625,80.9073157 L27.0525,78.9760657 L26.61375,78.9760657 L26.61375,81.6535657 L27.0525,81.6535657 Z M29.7975,81.6535657 L29.7975,79.6960657 L29.8125,79.6960657 L31.15125,81.6535657 L31.57875,81.6535657 L31.57875,78.9760657 L31.13625,78.9760657 L31.13625,80.9073157 L31.12125,80.9073157 L29.7975,78.9760657 L29.35875,78.9760657 L29.35875,81.6535657 L29.7975,81.6535657 Z M34.09875,81.6535657 L34.09875,81.2785657 L32.5425,81.2785657 L32.5425,80.4685657 L33.945,80.4685657 L33.945,80.0935657 L32.5425,80.0935657 L32.5425,79.3510657 L34.035,79.3510657 L34.035,78.9760657 L32.10375,78.9760657 L32.10375,81.6535657 L34.09875,81.6535657 Z M35.68125,81.7060657 C35.97,81.7060657 36.2175,81.6235657 36.42375,81.4585657 C36.645,81.2823157 36.78375,81.0385657 36.84375,80.7235657 L36.41625,80.7235657 C36.36375,80.9260657 36.27375,81.0798157 36.14625,81.1810657 C36.02625,81.2710657 35.86875,81.3198157 35.6775,81.3198157 C35.385,81.3198157 35.1675,81.2260657 35.02875,81.0460657 C34.90125,80.8773157 34.8375,80.6335657 34.8375,80.3185657 C34.8375,80.0110657 34.90125,79.7710657 35.0325,79.5985657 C35.175,79.4035657 35.385,79.3098157 35.66625,79.3098157 C35.85375,79.3098157 36.0075,79.3473157 36.1275,79.4298157 C36.25125,79.5123157 36.33375,79.6398157 36.37875,79.8160657 L36.80625,79.8160657 C36.765,79.5460657 36.64875,79.3285657 36.45375,79.1710657 C36.25125,79.0060657 35.98875,78.9235657 35.67375,78.9235657 C35.24625,78.9235657 34.92,79.0623157 34.695,79.3473157 C34.49625,79.5948157 34.39875,79.9210657 34.39875,80.3185657 C34.39875,80.7235657 34.4925,81.0460657 34.68375,81.2860657 C34.90125,81.5635657 35.235,81.7060657 35.68125,81.7060657 Z M38.36625,81.6535657 L38.36625,79.3510657 L39.24375,79.3510657 L39.24375,78.9760657 L37.05,78.9760657 L37.05,79.3510657 L37.9275,79.3510657 L37.9275,81.6535657 L38.36625,81.6535657 Z" id="CONNECT" fill="#999999" fill-rule="nonzero"></path>
            <path d="M26.82375,213.403566 L27.34875,211.389816 L27.36375,211.389816 L27.885,213.403566 L28.35,213.403566 L29.1225,210.726066 L28.6275,210.726066 L28.125,212.762316 L28.11,212.762316 L27.58125,210.726066 L27.1275,210.726066 L26.59875,212.762316 L26.58375,212.762316 L26.08125,210.726066 L25.58625,210.726066 L26.355,213.403566 L26.82375,213.403566 Z M29.61,213.403566 L29.85375,212.732316 L30.975,212.732316 L31.21875,213.403566 L31.6875,213.403566 L30.66375,210.726066 L30.165,210.726066 L29.14125,213.403566 L29.61,213.403566 Z M30.84375,212.372316 L29.985,212.372316 L30.40875,211.198566 L30.42375,211.198566 L30.84375,212.372316 Z M32.38875,213.403566 L32.38875,211.446066 L32.40375,211.446066 L33.7425,213.403566 L34.17,213.403566 L34.17,210.726066 L33.7275,210.726066 L33.7275,212.657316 L33.7125,212.657316 L32.38875,210.726066 L31.95,210.726066 L31.95,213.403566 L32.38875,213.403566 Z" id="WAN" fill="#999999" fill-rule="nonzero"></path>
            <path d="M28.389375,108.653566 L28.389375,108.278566 L26.941875,108.278566 L26.941875,105.976066 L26.506875,105.976066 L26.506875,108.653566 L28.389375,108.653566 Z M28.933125,108.653566 L29.176875,107.982316 L30.298125,107.982316 L30.541875,108.653566 L31.010625,108.653566 L29.986875,105.976066 L29.488125,105.976066 L28.464375,108.653566 L28.933125,108.653566 Z M30.166875,107.622316 L29.308125,107.622316 L29.731875,106.448566 L29.746875,106.448566 L30.166875,107.622316 Z M31.711875,108.653566 L31.711875,106.696066 L31.726875,106.696066 L33.065625,108.653566 L33.493125,108.653566 L33.493125,105.976066 L33.050625,105.976066 L33.050625,107.907316 L33.035625,107.907316 L31.711875,105.976066 L31.273125,105.976066 L31.273125,108.653566 L31.711875,108.653566 Z" id="LAN" fill="#999999" fill-rule="nonzero"></path>
            <path d="M24.19125,238.716066 L24.19125,237.688566 L24.855,237.688566 C25.5075,237.688566 25.83375,237.411066 25.83375,236.859816 C25.83375,236.312316 25.5075,236.038566 24.8625,236.038566 L23.7525,236.038566 L23.7525,238.716066 L24.19125,238.716066 Z M24.82875,237.313566 L24.19125,237.313566 L24.19125,236.413566 L24.82875,236.413566 C25.02,236.413566 25.1625,236.447316 25.2525,236.518566 C25.3425,236.586066 25.39125,236.698566 25.39125,236.859816 C25.39125,237.021066 25.34625,237.137316 25.25625,237.208566 C25.16625,237.276066 25.02375,237.313566 24.82875,237.313566 Z M27.3975,238.768566 C27.80625,238.768566 28.12875,238.637316 28.365,238.374816 C28.59,238.123566 28.7025,237.793566 28.7025,237.381066 C28.7025,236.968566 28.59,236.634816 28.365,236.383566 C28.12875,236.117316 27.80625,235.986066 27.3975,235.986066 C26.985,235.986066 26.6625,236.117316 26.43,236.387316 C26.205,236.642316 26.09625,236.972316 26.09625,237.381066 C26.09625,237.786066 26.205,238.116066 26.43,238.371066 C26.6625,238.633566 26.985,238.768566 27.3975,238.768566 Z M27.3975,238.382316 C27.12,238.382316 26.9025,238.288566 26.7525,238.104816 C26.60625,237.924816 26.535,237.684816 26.535,237.381066 C26.535,237.073566 26.60625,236.833566 26.7525,236.653566 C26.90625,236.466066 27.12,236.372316 27.3975,236.372316 C27.675,236.372316 27.88875,236.458566 28.03875,236.638566 C28.185,236.818566 28.26,237.066066 28.26,237.381066 C28.26,237.696066 28.185,237.939816 28.03875,238.116066 C27.88875,238.292316 27.675,238.382316 27.3975,238.382316 Z M30.10875,238.716066 L30.63375,236.702316 L30.64875,236.702316 L31.17,238.716066 L31.635,238.716066 L32.4075,236.038566 L31.9125,236.038566 L31.41,238.074816 L31.395,238.074816 L30.86625,236.038566 L30.4125,236.038566 L29.88375,238.074816 L29.86875,238.074816 L29.36625,236.038566 L28.87125,236.038566 L29.64,238.716066 L30.10875,238.716066 Z M34.68375,238.716066 L34.68375,238.341066 L33.1275,238.341066 L33.1275,237.531066 L34.53,237.531066 L34.53,237.156066 L33.1275,237.156066 L33.1275,236.413566 L34.62,236.413566 L34.62,236.038566 L32.68875,236.038566 L32.68875,238.716066 L34.68375,238.716066 Z M35.535,238.716066 L35.535,237.624816 L36.22875,237.624816 C36.37875,237.624816 36.495,237.654816 36.57375,237.722316 C36.64875,237.786066 36.69375,237.891066 36.70875,238.037316 L36.7425,238.367316 C36.7575,238.517316 36.795,238.633566 36.85875,238.716066 L37.335,238.716066 C37.245,238.618566 37.18875,238.487316 37.17375,238.322316 L37.12875,237.891066 C37.09875,237.628566 36.9675,237.474816 36.735,237.422316 L36.735,237.414816 C36.8775,237.377316 36.99375,237.298566 37.07625,237.178566 C37.15125,237.069816 37.18875,236.946066 37.18875,236.807316 C37.18875,236.552316 37.1025,236.357316 36.9375,236.222316 C36.78,236.098566 36.5625,236.038566 36.28875,236.038566 L35.09625,236.038566 L35.09625,238.716066 L35.535,238.716066 Z M36.22875,237.249816 L35.535,237.249816 L35.535,236.413566 L36.22875,236.413566 C36.40875,236.413566 36.54,236.443566 36.6225,236.511066 C36.705,236.574816 36.74625,236.679816 36.74625,236.826066 C36.74625,236.961066 36.705,237.066066 36.6225,237.141066 C36.5325,237.212316 36.40125,237.249816 36.22875,237.249816 Z" id="POWER" fill="#999999" fill-rule="nonzero"></path>
            <path d="M24.144375,63.8410657 L24.144375,62.7498157 L24.838125,62.7498157 C24.988125,62.7498157 25.104375,62.7798157 25.183125,62.8473157 C25.258125,62.9110657 25.303125,63.0160657 25.318125,63.1623157 L25.351875,63.4923157 C25.366875,63.6423157 25.404375,63.7585657 25.468125,63.8410657 L25.944375,63.8410657 C25.854375,63.7435657 25.798125,63.6123157 25.783125,63.4473157 L25.738125,63.0160657 C25.708125,62.7535657 25.576875,62.5998157 25.344375,62.5473157 L25.344375,62.5398157 C25.486875,62.5023157 25.603125,62.4235657 25.685625,62.3035657 C25.760625,62.1948157 25.798125,62.0710657 25.798125,61.9323157 C25.798125,61.6773157 25.711875,61.4823157 25.546875,61.3473157 C25.389375,61.2235657 25.171875,61.1635657 24.898125,61.1635657 L23.705625,61.1635657 L23.705625,63.8410657 L24.144375,63.8410657 Z M24.838125,62.3748157 L24.144375,62.3748157 L24.144375,61.5385657 L24.838125,61.5385657 C25.018125,61.5385657 25.149375,61.5685657 25.231875,61.6360657 C25.314375,61.6998157 25.355625,61.8048157 25.355625,61.9510657 C25.355625,62.0860657 25.314375,62.1910657 25.231875,62.2660657 C25.141875,62.3373157 25.010625,62.3748157 24.838125,62.3748157 Z M28.314375,63.8410657 L28.314375,63.4660657 L26.758125,63.4660657 L26.758125,62.6560657 L28.160625,62.6560657 L28.160625,62.2810657 L26.758125,62.2810657 L26.758125,61.5385657 L28.250625,61.5385657 L28.250625,61.1635657 L26.319375,61.1635657 L26.319375,63.8410657 L28.314375,63.8410657 Z M29.716875,63.8935657 C30.058125,63.8935657 30.324375,63.8223157 30.511875,63.6873157 C30.699375,63.5485657 30.793125,63.3573157 30.793125,63.1173157 C30.793125,62.8698157 30.676875,62.6785657 30.444375,62.5398157 C30.339375,62.4798157 30.106875,62.3898157 29.743125,62.2773157 C29.495625,62.1985657 29.341875,62.1423157 29.285625,62.1123157 C29.158125,62.0448157 29.098125,61.9510657 29.098125,61.8385657 C29.098125,61.7110657 29.150625,61.6173157 29.263125,61.5610657 C29.353125,61.5123157 29.480625,61.4898157 29.649375,61.4898157 C29.844375,61.4898157 29.994375,61.5235657 30.091875,61.5985657 C30.189375,61.6698157 30.260625,61.7898157 30.298125,61.9548157 L30.733125,61.9548157 C30.706875,61.6623157 30.598125,61.4448157 30.410625,61.3060657 C30.234375,61.1748157 29.986875,61.1110657 29.671875,61.1110657 C29.383125,61.1110657 29.146875,61.1748157 28.959375,61.3060657 C28.756875,61.4410657 28.659375,61.6285657 28.659375,61.8648157 C28.659375,62.1010657 28.760625,62.2810657 28.966875,62.4048157 C29.045625,62.4498157 29.251875,62.5248157 29.581875,62.6298157 C29.878125,62.7198157 30.050625,62.7798157 30.103125,62.8060657 C30.268125,62.8885657 30.354375,63.0010657 30.354375,63.1435657 C30.354375,63.2560657 30.294375,63.3423157 30.181875,63.4098157 C30.069375,63.4735657 29.911875,63.5073157 29.716875,63.5073157 C29.495625,63.5073157 29.334375,63.4660657 29.229375,63.3910657 C29.113125,63.3048157 29.041875,63.1585657 29.011875,62.9560657 L28.576875,62.9560657 C28.595625,63.2973157 28.719375,63.5448157 28.944375,63.7023157 C29.128125,63.8298157 29.386875,63.8935657 29.716875,63.8935657 Z M33.163125,63.8410657 L33.163125,63.4660657 L31.606875,63.4660657 L31.606875,62.6560657 L33.009375,62.6560657 L33.009375,62.2810657 L31.606875,62.2810657 L31.606875,61.5385657 L33.099375,61.5385657 L33.099375,61.1635657 L31.168125,61.1635657 L31.168125,63.8410657 L33.163125,63.8410657 Z M34.685625,63.8410657 L34.685625,61.5385657 L35.563125,61.5385657 L35.563125,61.1635657 L33.369375,61.1635657 L33.369375,61.5385657 L34.246875,61.5385657 L34.246875,63.8410657 L34.685625,63.8410657 Z" id="RESET" fill="#999999" fill-rule="nonzero"></path>
            <circle id="椭圆形备份-2" fill-opacity="0.5" fill="#999999" cx="30" cy="67.8098157" r="1.40625"></circle>
            <circle id="椭圆形备份-3" fill-opacity="0.5" fill="#999999" cx="27.65625" cy="228.153566" r="4.6875"></circle>
            <path d="M30,172 L30,173.699 L32.5714286,173.7 L32.572,177.099 L34.2857143,177.1 L34.286,177.95 L36,177.95 L36,183.05 L34.286,183.05 L34.2857143,183.9 L32.572,183.899 L32.5714286,187.3 L30,187.299 L30,189 L25.7142857,189 L25.715,187.299 L24,187.3 L24,173.7 L25.715,173.699 L25.7142857,172 L30,172 Z M29.6,184.474026 L25.6,184.474026 L25.6,185.357143 L29.6,185.357143 L29.6,184.474026 Z M29.6,182.707792 L25.6,182.707792 L25.6,183.590909 L29.6,183.590909 L29.6,182.707792 Z M29.6,180.941558 L25.6,180.941558 L25.6,181.824675 L29.6,181.824675 L29.6,180.941558 Z M29.6,179.175325 L25.6,179.175325 L25.6,180.058442 L29.6,180.058442 L29.6,179.175325 Z M29.6,177.409091 L25.6,177.409091 L25.6,178.292208 L29.6,178.292208 L29.6,177.409091 Z M29.6,175.642857 L25.6,175.642857 L25.6,176.525974 L29.6,176.525974 L29.6,175.642857 Z" id="形状结合备份-2" fill-opacity="0.5" fill="#999999"></path>
            <path d="M30,152 L30,153.699 L32.5714286,153.7 L32.572,157.099 L34.2857143,157.1 L34.286,157.95 L36,157.95 L36,163.05 L34.286,163.05 L34.2857143,163.9 L32.572,163.899 L32.5714286,167.3 L30,167.299 L30,169 L25.7142857,169 L25.715,167.299 L24,167.3 L24,153.7 L25.715,153.699 L25.7142857,152 L30,152 Z M29.6,164.474026 L25.6,164.474026 L25.6,165.357143 L29.6,165.357143 L29.6,164.474026 Z M29.6,162.707792 L25.6,162.707792 L25.6,163.590909 L29.6,163.590909 L29.6,162.707792 Z M29.6,160.941558 L25.6,160.941558 L25.6,161.824675 L29.6,161.824675 L29.6,160.941558 Z M29.6,159.175325 L25.6,159.175325 L25.6,160.058442 L29.6,160.058442 L29.6,159.175325 Z M29.6,157.409091 L25.6,157.409091 L25.6,158.292208 L29.6,158.292208 L29.6,157.409091 Z M29.6,155.642857 L25.6,155.642857 L25.6,156.525974 L29.6,156.525974 L29.6,155.642857 Z" id="形状结合备份" fill="#A2A2A2"></path>
            <path d="M30,132 L30,133.699 L32.5714286,133.7 L32.572,137.099 L34.2857143,137.1 L34.286,137.95 L36,137.95 L36,143.05 L34.286,143.05 L34.2857143,143.9 L32.572,143.899 L32.5714286,147.3 L30,147.299 L30,149 L25.7142857,149 L25.715,147.299 L24,147.3 L24,133.7 L25.715,133.699 L25.7142857,132 L30,132 Z M29.6,144.474026 L25.6,144.474026 L25.6,145.357143 L29.6,145.357143 L29.6,144.474026 Z M29.6,142.707792 L25.6,142.707792 L25.6,143.590909 L29.6,143.590909 L29.6,142.707792 Z M29.6,140.941558 L25.6,140.941558 L25.6,141.824675 L29.6,141.824675 L29.6,140.941558 Z M29.6,139.175325 L25.6,139.175325 L25.6,140.058442 L29.6,140.058442 L29.6,139.175325 Z M29.6,137.409091 L25.6,137.409091 L25.6,138.292208 L29.6,138.292208 L29.6,137.409091 Z M29.6,135.642857 L25.6,135.642857 L25.6,136.525974 L29.6,136.525974 L29.6,135.642857 Z" id="形状结合" fill-opacity="0.5" fill="#999999"></path>
            <path d="M30,112 L30,113.699 L32.5714286,113.7 L32.572,117.099 L34.2857143,117.1 L34.286,117.95 L36,117.95 L36,123.05 L34.286,123.05 L34.2857143,123.9 L32.572,123.899 L32.5714286,127.3 L30,127.299 L30,129 L25.7142857,129 L25.715,127.299 L24,127.3 L24,113.7 L25.715,113.699 L25.7142857,112 L30,112 Z M29.6,124.474026 L25.6,124.474026 L25.6,125.357143 L29.6,125.357143 L29.6,124.474026 Z M29.6,122.707792 L25.6,122.707792 L25.6,123.590909 L29.6,123.590909 L29.6,122.707792 Z M29.6,120.941558 L25.6,120.941558 L25.6,121.824675 L29.6,121.824675 L29.6,120.941558 Z M29.6,119.175325 L25.6,119.175325 L25.6,120.058442 L29.6,120.058442 L29.6,119.175325 Z M29.6,117.409091 L25.6,117.409091 L25.6,118.292208 L29.6,118.292208 L29.6,117.409091 Z M29.6,115.642857 L25.6,115.642857 L25.6,116.525974 L29.6,116.525974 L29.6,115.642857 Z" id="形状结合" fill-opacity="0.5" fill="#999999"></path>
            <path d="M30,191 L30,192.699 L32.5714286,192.7 L32.572,196.099 L34.2857143,196.1 L34.286,196.95 L36,196.95 L36,202.05 L34.286,202.05 L34.2857143,202.9 L32.572,202.899 L32.5714286,206.3 L30,206.299 L30,208 L25.7142857,208 L25.715,206.299 L24,206.3 L24,192.7 L25.715,192.699 L25.7142857,191 L30,191 Z M29.6,203.474026 L25.6,203.474026 L25.6,204.357143 L29.6,204.357143 L29.6,203.474026 Z M29.6,201.707792 L25.6,201.707792 L25.6,202.590909 L29.6,202.590909 L29.6,201.707792 Z M29.6,199.941558 L25.6,199.941558 L25.6,200.824675 L29.6,200.824675 L29.6,199.941558 Z M29.6,198.175325 L25.6,198.175325 L25.6,199.058442 L29.6,199.058442 L29.6,198.175325 Z M29.6,196.409091 L25.6,196.409091 L25.6,197.292208 L29.6,197.292208 L29.6,196.409091 Z M29.6,194.642857 L25.6,194.642857 L25.6,195.525974 L29.6,195.525974 L29.6,194.642857 Z" id="形状结合" fill-opacity="0.5" fill="#FF5B5B"></path>
            <polygon id="直线-15" fill="#999999" fill-rule="nonzero" points="21.5625 190.497316 21.5625 191.434816 19.687 191.434 19.687 211.278 23.90625 211.278566 23.90625 212.216066 18.75 212.216066 18.75 190.497316"></polygon>
            <polygon id="直线-15备份" fill="#999999" fill-rule="nonzero" points="40.3125 190.497316 40.3125 212.216066 35.625 212.216066 35.625 211.278566 39.375 211.278 39.375 191.434 37.5 191.434816 37.5 190.497316"></polygon>
            <polygon id="直线-15" fill="#999999" fill-rule="nonzero" transform="translate(21.328125, 147.809816) scale(1, -1) translate(-21.328125, -147.809816) " points="21.5625 106.997316 21.5625 107.934816 19.687 107.934 19.687 187.684 23.90625 187.684816 23.90625 188.622316 18.75 188.622316 18.75 106.997316"></polygon>
            <polygon id="直线-15备份" fill="#999999" fill-rule="nonzero" transform="translate(37.968750, 147.809816) scale(1, -1) translate(-37.968750, -147.809816) " points="40.3125 106.997316 40.3125 188.622316 35.625 188.622316 35.625 187.684816 39.375 187.684 39.375 107.934 37.5 107.934816 37.5 106.997316"></polygon>
        </g>
        <path d="M281.979845,264.000269 C281.927444,262.607498 281.75613,261.265117 281.488075,260.001344 L285.003023,260.001344 C285.525025,261.246977 285.855559,262.593389 285.962378,264.000269 L281.979845,264.000269 Z M281.488075,270.002687 C281.75613,268.736899 281.927444,267.394518 281.979845,265.999731 L285.960363,265.999731 C285.855559,267.408627 285.525025,268.753023 285.003023,270.002687 L281.488075,270.002687 Z M280.966073,272.00215 L283.957004,272.00215 C282.653006,274.035877 280.800806,275.680597 278.61001,276.730718 C279.577427,275.444773 280.381592,273.83835 280.966073,272.00215 Z M274.000672,272.00215 L278.900235,272.00215 C277.825999,275.116232 276.054417,277.3233 274.000672,277.873555 L274.000672,272.00215 Z M274.000672,265.999731 L279.980517,265.999731 C279.922069,267.408627 279.744709,268.753023 279.460531,270.002687 L274.000672,270.002687 L274.000672,265.999731 Z M274.000672,260.001344 L279.460531,260.001344 C279.744709,261.246977 279.918038,262.593389 279.980517,264.000269 L274.000672,264.000269 L274.000672,260.001344 Z M274.000672,252.12846 C276.054417,252.6767 277.825999,254.885783 278.900235,257.99785 L274.000672,257.99785 L274.000672,252.12846 Z M280.966073,257.99785 C280.381592,256.163666 279.581458,254.553212 278.61001,253.269282 C280.800806,254.319403 282.653006,255.966138 283.957004,257.99785 L280.966073,257.99785 Z M271.999328,257.99785 L267.099765,257.99785 C268.174001,254.885783 269.943567,252.6767 271.999328,252.12846 L271.999328,257.99785 Z M271.999328,264.000269 L266.019483,264.000269 C266.077931,262.593389 266.255291,261.246977 266.537454,260.001344 L271.999328,260.001344 L271.999328,264.000269 Z M271.999328,270.002687 L266.537454,270.002687 C266.255291,268.753023 266.077931,267.408627 266.019483,265.999731 L271.999328,265.999731 L271.999328,270.002687 Z M271.999328,277.873555 C269.943567,277.3233 268.174001,275.116232 267.099765,272.00215 L271.999328,272.00215 L271.999328,277.873555 Z M265.035942,272.00215 C265.620423,273.83835 266.422573,275.448804 267.38999,276.730718 C265.197178,275.680597 263.344978,274.035877 262.040981,272.00215 L265.035942,272.00215 Z M264.020155,265.999731 C264.074572,267.394518 264.24387,268.736899 264.511925,270.002687 L260.994961,270.002687 C260.47699,268.753023 260.144441,267.408627 260.037622,265.999731 L264.020155,265.999731 Z M264.511925,260.001344 C264.24387,261.265117 264.074572,262.607498 264.020155,264.000269 L260.037622,264.000269 C260.144441,262.593389 260.47699,261.246977 260.994961,260.001344 L264.511925,260.001344 Z M265.037958,257.99785 L262.040981,257.99785 C263.344978,255.966138 265.197178,254.319403 267.38999,253.269282 C266.424589,254.553212 265.622439,256.163666 265.037958,257.99785 Z M287.963722,264.000269 C287.471952,256.510347 281.488075,250.524053 274.000672,250.032249 L274.000672,250 L272.998992,250 L271.999328,250 L271.999328,250.032249 C264.511925,250.524053 258.526033,256.510347 258.034263,264.000269 L258,264.000269 L258,265 L258,265.999731 L258.034263,265.999731 C258.526033,273.489653 264.511925,279.473932 271.999328,279.965735 L271.999328,280 L272.998992,280 L274.000672,280 L274.000672,279.965735 C281.488075,279.473932 287.471952,273.489653 287.963722,265.999731 L288,265.999731 L288,265 L288,264.000269 L287.963722,264.000269 Z" id="Fill-90" fill="#009FD1"></path>
        <g id="编组" transform="translate(106.999541, 44.999535)">
            <path d="M1.25003667,32.876829 C-4.42090116,56.0143037 9.73865803,79.3677356 32.8767273,85.0400291 L33.5856636,85.2074449 C37.3698879,86.0680646 41.2041539,86.4126196 45.0092694,86.249289 L45.641459,86.2164407 L45.6261565,86.6575101 C45.5491495,88.4680045 45.3416195,90.4545973 45.0400582,92.2044162 L44.3691896,96.0971524 L48.0297099,94.2696705 L48.3208874,94.113623 L48.661947,93.9202914 L49.0496235,93.6896165 L49.4806519,93.4215391 L49.9517671,93.1160003 C51.4320311,92.1364799 52.9102451,90.9657631 54.2948637,89.5986304 L54.685905,89.2045884 C56.3593595,87.4832876 57.7568969,85.5826333 58.7941499,83.4970883 L58.885459,83.3054407 L59.0525533,83.2408727 C71.9173323,78.1288758 81.6725644,67.1501971 85.0400365,53.4121539 C90.7110999,30.2753768 76.5509944,6.92104395 53.4132603,1.25004254 C30.2754919,-4.42096724 6.92106978,9.73896552 1.25003667,32.876829 Z M52.9371571,3.19254756 C75.0021571,8.60062449 88.5056186,30.8721629 83.0975417,52.9360091 C79.7213878,66.7094706 69.775234,77.1460091 57.4106186,81.729086 C56.193519,84.5500696 54.3243068,86.8253935 52.5045233,88.5477491 L52.0510132,88.9668136 C51.9004571,89.1026589 51.7506502,89.2346599 51.6019985,89.3628124 L51.1599152,89.7357201 L50.7271991,90.0855113 C50.6559957,90.141882 50.5852841,90.1972885 50.515115,90.2517303 L50.1010171,90.5667992 C50.0332212,90.6173797 49.9660694,90.6669944 49.8996123,90.7156428 L49.5096134,90.9959323 L49.1387254,91.2530039 L48.6235548,91.595022 L48.1650856,91.8846569 L47.7715391,92.121823 L47.1519216,92.470684 L47.0110032,92.544086 C47.4667725,89.8994706 47.7413878,86.5821629 47.6375417,84.0437014 C42.9840802,84.5560091 38.1633109,84.2756245 33.3529263,83.0975476 C11.2879263,77.6883168 -2.21553523,55.4179322 3.19254169,33.3529322 C8.60061861,11.2879322 30.8721571,-2.21552936 52.9371571,3.19254756 Z" id="Stroke-47" fill-opacity="0.5" fill="#999999" fill-rule="nonzero"></path>
            <path d="M36.4021874,2.55579195 L36.3821061,3.61948938 L36.3674221,4.26524001 L36.35182,4.91350249 L36.280231,7.53167173 L36.1939538,10.1900337 C36.1578709,11.2223522 36.0291369,12.3264201 35.8134673,13.5551177 L35.7157315,14.089487 L35.6003041,14.6762144 L35.4734593,15.2806085 L35.3311341,15.9229998 L35.1692659,16.6237189 L34.4868733,19.4888884 L34.2323856,20.6021655 L34.0806985,21.3140941 L33.9935482,21.7644755 L33.9265955,22.1579958 L33.8774863,22.5079445 L33.8438668,22.8276112 L33.8288967,23.0304616 L33.8136812,23.4292563 L33.812038,67.3284649 L33.82929,67.3441912 L33.8513171,67.349117 L34.175241,67.3298941 L34.4966686,67.3106341 L36.978198,67.1552256 L39.2998397,66.9974706 L40.9360769,66.8776277 L42.4822662,66.7564864 L44.4036951,66.5929613 L45.7395875,66.4688269 L46.9852732,66.3434251 L48.1407047,66.2167652 L49.2058343,66.0888565 L50.1806145,65.9597082 L50.7802502,65.8729253 L51.7571199,65.7198325 C52.2162118,65.6462269 52.6706124,65.5714204 53.1200491,65.495495 L53.7904474,65.3807781 L55.1080893,65.1465565 L56.3934959,64.9063625 L57.6450325,64.6606896 L58.8610642,64.4100313 C59.6096481,64.2519148 60.3364704,64.0911664 61.0397349,63.9283284 L61.7350803,63.7648138 L62.81397,63.5005937 L63.8499978,63.2336091 C64.6612394,63.0190474 65.429764,62.8023057 66.1518051,62.5845212 L66.6845613,62.4210051 L67.4182105,62.1856365 C67.655007,62.1075595 67.88396,62.0299044 68.1047989,61.9527996 L68.4299379,61.8375712 L69.042891,61.6099758 C69.7284989,61.346898 70.3097378,61.0929199 70.775007,60.8535447 C71.1374636,60.6670653 71.4176342,60.4951671 71.6070787,60.3480589 L71.6942013,60.2766179 L71.7215389,60.253345 C71.7369057,60.2409652 71.7468717,60.2351284 71.7533308,60.2374681 L71.7606262,60.2473142 L71.764038,60.2704649 L71.7508304,58.2993051 L71.7428785,55.1689262 L71.7508757,53.3465618 L71.7667281,51.9449468 L71.7661417,51.8379579 L71.7645577,51.728296 L71.7493295,51.2617737 L71.7432667,51.1378886 L71.7363058,51.0109874 L71.6995249,50.4720776 L71.6485463,49.8803355 L71.5835067,49.2321022 L71.504543,48.5237184 L71.1247468,45.4083148 L71.0239536,44.4960329 L70.9839755,43.9912523 L70.9735106,43.7191329 L70.9601696,40.4960777 L70.9370567,38.2454287 L70.8920972,35.3423179 L70.7816926,29.8004372 L70.6717433,23.9598702 L70.6368332,21.1232821 L70.6298622,18.7565687 L70.6407132,17.3362141 L70.6639465,15.969312 L70.6927562,14.8262191 L70.728154,13.7769045 L70.7669081,13.027365 L70.791456,12.6752811 C71.365874,13.1973991 71.9245181,13.7349395 72.4668822,14.2870673 L72.4380086,15.180348 L72.4195725,15.9332464 L72.4049214,16.6829093 L72.3869889,18.2148796 L72.3837151,19.0183628 L72.3840175,19.77464 L72.4008316,22.0886529 L72.4478423,25.2520874 L72.6675935,36.5820169 L72.7111931,40.0688368 L72.7225643,41.9178576 L72.7259671,43.5652789 L72.7298939,43.7403826 L72.7485525,44.0678002 L72.8128871,44.7284154 L73.2472224,48.321385 L73.3297803,49.0624383 L73.3978361,49.7428245 L73.4511947,50.3672514 L73.4622151,50.5151662 L73.4723017,50.6599513 L73.503249,51.2092661 L73.5086208,51.3395062 L73.5130406,51.467058 L73.5211377,51.9518531 L73.5148572,52.4788884 L73.4998796,54.2091329 L73.4999128,57.1285804 L73.5195135,60.3554701 C73.5195135,60.8528139 73.095148,61.3757247 72.2993774,61.9104153 L72.1091692,62.0340082 L71.8051332,62.216828 L71.642639,62.3085102 L71.4732377,62.4003538 L71.1139455,62.584465 L70.9241703,62.6767025 L70.524651,62.861466 L70.0988923,63.0465137 L69.647357,63.2317251 L69.5304998,63.2780394 L69.4120678,63.3243545 L68.9227356,63.5095855 L68.4087842,63.6946789 L67.8706763,63.8795142 L67.3088749,64.0639709 L66.7238429,64.2479285 L66.1160432,64.4312665 L65.4859387,64.6138644 L64.8339923,64.7956016 L63.8161316,65.0663303 L63.1116056,65.2453888 L62.0170453,65.5115343 L61.2628328,65.6871609 L60.0959126,65.9475937 L59.2949067,66.1190351 L58.0599662,66.3726253 L56.7862967,66.6215677 L55.916439,66.7847464 L54.5816927,67.0250386 L53.2123833,67.2595985 L52.2810802,67.4125862 L51.335573,67.5627249 L50.7449937,67.6514761 L50.1146162,67.7395685 L49.0944,67.8704779 L47.9845651,67.9999202 L46.7850681,68.1279046 L45.9355697,68.212422 L44.1169137,68.3795354 L42.6481693,68.5031999 L40.5500907,68.6658756 L38.8716608,68.7862364 L36.4938437,68.94454 L33.9560342,69.1003745 C33.1082259,69.1516938 32.3541524,68.6025614 32.1202101,67.8077702 L31.2779844,67.7138097 C31.1814948,67.8246047 31.0393915,67.8946312 30.8809326,67.8946312 C30.6808465,67.8946312 30.506838,67.7829801 30.4178113,67.6185822 L29.3371307,67.4984046 C29.286572,67.6972949 29.1228285,67.8507613 28.9188323,67.8866537 L28.8241821,67.8946236 C28.565807,67.8932317 28.3519199,67.7058924 28.308679,67.4601304 L28.3007091,67.3654802 L28.3001748,67.0835589 C27.7836615,67.302222 27.4308076,67.5376449 27.2357983,67.7724178 L27.1723714,67.8569262 C26.7075859,68.5499132 25.6528703,68.258125 25.5716344,67.4680635 L25.5667376,67.3572851 L26.0987059,25.0611717 L26.0946224,24.5505539 L26.0820387,24.0475137 L26.060455,23.5444361 L26.0293714,23.0337065 L25.9882881,22.5077098 L25.9367052,21.9588313 L25.874123,21.3794561 L25.8000414,20.7619692 L25.6153812,19.3822013 L25.1928386,16.461435 L25.0410178,15.3313061 L24.9524854,14.5972333 L24.8836393,13.9360219 L24.8477776,13.5248284 L24.8076869,12.9361625 L24.7824162,12.3616901 L24.7729011,11.9757293 L24.7686209,11.57978 L24.7542898,6.3492431 C25.3324067,6.05994352 25.917512,5.78409531 26.5091126,5.52199753 L26.5087676,6.53372387 L26.5149809,9.51080977 L26.5229885,11.5717593 L26.5309763,12.1258473 L26.5428555,12.4877593 L26.5597014,12.8350894 L26.5823838,13.1891117 L26.6283756,13.7446836 L26.6676984,14.1394177 L26.7408457,14.7817517 L26.8672719,15.7607425 L26.9858125,16.610876 L27.3553478,19.1567694 L27.5023898,20.2414853 L27.6212911,21.2149551 L27.6857475,21.8153301 L27.7389307,22.3860601 L27.7813343,22.9350641 L27.8134517,23.4702612 L27.8357766,23.9995705 C27.8387087,24.0877381 27.8412534,24.1759902 27.843421,24.264492 L27.8519823,24.7998179 L27.8530225,25.072202 L27.342038,65.5914649 L27.5019758,65.5174877 C27.6653721,65.4450476 27.8375203,65.3759664 28.0183572,65.3100544 L28.2961212,65.2135396 L28.3119256,65.2094407 L28.6392155,4.64850435 C28.9884517,4.51655079 29.339649,4.38927702 29.6927131,4.26674017 L29.3630954,65.6669806 C29.3789197,65.7000966 29.3928439,65.7345752 29.4046894,65.7703265 C29.4798032,65.9970309 29.457308,66.2325928 29.3600928,66.4314398 L29.3579256,66.4404407 L30.3539256,66.5514407 L30.3546168,57.7833775 C30.3546168,57.4927013 30.5902564,57.2570617 30.8809326,57.2570617 C31.1393114,57.2570617 31.3542045,57.443246 31.3987687,57.6887715 L31.4072483,57.7833775 L31.4069256,66.6684407 L32.0569256,66.7404407 L32.0576549,23.5166583 C32.0584738,23.4207048 32.0600356,23.3272288 32.0626121,23.2349175 L32.0736576,22.960165 L32.0879496,22.7401014 L32.118862,22.411761 L32.1637263,22.0614508 L32.2488949,21.5389448 L32.3676189,20.9263802 L32.5248993,20.1946132 L32.8719256,18.6964407 L32.9575166,3.28323002 C33.3071194,3.19355616 33.6581841,3.10842367 34.0106269,3.02788338 L33.9499256,13.9744407 L33.992172,13.7620535 C34.2190671,12.5677125 34.3633531,11.5085341 34.4211668,10.5389387 L34.4406386,10.1287496 L34.463491,9.46313217 L34.4854295,8.80003043 L34.5640438,6.17278101 L34.5814126,5.52225824 L34.5978675,4.87425136 L34.6415493,2.88892927 C35.2249477,2.76525709 35.8119521,2.65413551 36.4021874,2.55579195 Z M59.3457584,5.32779091 L59.3293378,5.73693384 C59.3102204,6.125444 59.2845189,6.51228898 59.2519509,6.91294832 L59.1723932,7.78462762 L58.9112248,10.2996057 L58.8467888,10.9823439 L58.7593967,12.0260683 L58.7073142,12.7409298 L58.638466,13.8520191 L58.5987552,14.6245774 L58.5639981,15.427375 L58.521157,16.6972211 L58.4987969,17.5935187 L58.4745649,19.0227949 L58.4646199,20.0381662 L58.4590241,21.6652332 L58.4590241,51.8498444 C58.4590241,52.3343047 58.0662915,52.7270374 57.5818311,52.7270374 C57.134637,52.7270374 56.7656013,52.3924013 56.7114727,51.9598777 L56.7046382,51.8498444 L56.7052711,21.1020856 L56.714763,19.4988629 L56.7356398,18.0142286 L56.7558793,17.0835346 L56.7957164,15.7658563 L56.8469212,14.5299369 L56.9094872,13.3619651 L56.9575065,12.6142457 L57.0389938,11.5288288 L57.1318251,10.4745299 L57.4512981,7.36129628 C57.5422462,6.39819112 57.5940986,5.56084287 57.6111545,4.63564514 C58.1961735,4.85228111 58.7747914,5.08400651 59.3457584,5.32779091 Z M31.8543676,3.58262049 L31.6354356,25.8387714 C31.6328891,26.0971377 31.4445959,26.3101854 31.1986432,26.3523277 L31.1039582,26.3598745 C30.845592,26.357328 30.6325442,26.1690348 30.590402,25.9230821 L30.5828551,25.8283972 L30.7986444,3.90035859 C31.1488778,3.78980756 31.5008153,3.68387685 31.8543676,3.58262049 Z" id="形状结合" fill="#999999"></path>
            <g id="路径" fill-rule="nonzero">
                <use fill="black" fill-opacity="1" filter="url(#filter-2)" xlink:href="#path-1"></use>
                <use fill="#E0E0E0" xlink:href="#path-1"></use>
            </g>
            <ellipse id="椭圆形" fill="#FFFFFF" opacity="0.5" filter="url(#filter-3)" cx="30.7636169" cy="41.1583596" rx="8" ry="17.5"></ellipse>
        </g>
        <rect id="矩形" fill="#79CDFF" x="52" y="175" width="7" height="12"></rect>
        <rect id="矩形备份-9" fill="#79CDFF" x="238" y="175" width="7" height="12"></rect>
        <path d="M55.5,181 L55.5,273 C55.5,280.179702 61.3202983,286 68.5,286 L228.5,286 C235.679702,286 241.5,280.179702 241.5,273 L241.5,181 L241.5,181" id="直线-19" stroke="#5BAADA" stroke-width="5" stroke-linecap="round"></path>
    </g>
</svg>