<?xml version="1.0" encoding="UTF-8"?>
<svg width="300px" height="300px" viewBox="0 0 300 300" version="1.1" xmlns="http://www.w3.org/2000/svg" xmlns:xlink="http://www.w3.org/1999/xlink">
    <title>img/wifi6/img_add_m6plus_03</title>
    <defs>
        <filter x="-112.5%" y="-51.4%" width="325.0%" height="202.9%" filterUnits="objectBoundingBox" id="filter-1">
            <feGaussianBlur stdDeviation="6" in="SourceGraphic"></feGaussianBlur>
        </filter>
    </defs>
    <g id="img/wifi6/img_add_m6plus_03" stroke="none" stroke-width="1" fill="none" fill-rule="evenodd">
        <g id="编组-2备份-3" transform="translate(99.000000, 10.000000)">
            <path d="M47.799072,0 L50.7714985,0.123002003 L51.2349272,2.96314027 C58.7278383,49.1410157 62.47595,101.217428 62.47595,126.735291 C62.47595,132.381661 62.2393125,136.399955 61.694665,141.098913 L61.4904,142.77738 L60.5916789,149.766106 L60.3814872,151.576468 L60.2297484,152.981995 L60.1326667,153.933286 C59.2417878,162.869499 58.7769219,173.462861 58.7327982,189.678531 L58.729327,192.277178 L58.7374031,195.540023 L58.7553147,198.038846 C58.9135605,214.956277 59.7902543,225.791011 61.2687837,233.566116 L61.4144683,234.306207 L61.6067042,235.204867 C62.2104223,237.946679 63.260116,242.142315 63.3291677,242.465664 C63.7871673,244.610341 64,246.518695 64,248.903433 L64,273.784027 C64,277.832983 60.7606678,280.219228 54.9312186,281 L53.2046456,279.49102 L10.7953544,279.49102 L9.0687814,281 C3.3583006,280.235162 0.133296409,277.929712 0.00404196062,274.029845 L0,273.784027 L0,248.903433 C0,246.748567 0.151493007,244.986789 0.47578468,243.082397 L0.597305018,242.410751 L1.65441434,237.354361 C1.85902056,236.348957 2.05383647,235.363849 2.19796731,234.575031 L2.30734171,233.955813 L2.48191438,232.884494 L2.6576392,231.720851 L2.82889992,230.491311 C3.83381226,222.97027 4.42974735,212.82351 4.54963704,198.035701 L4.56513735,195.541922 L4.5721501,192.277178 L4.56929204,189.663035 L4.55627658,186.266667 C4.47402209,171.358266 4.07192311,161.427578 3.3460057,152.903053 L3.22417189,151.51838 L3.01296173,149.307831 L2.47574709,144.178432 L2.15248346,141.006279 L2.03400503,139.690205 L1.92292316,138.323055 C1.66340263,134.927686 1.53915921,131.657307 1.52535104,127.526112 L1.52532285,125.950657 C1.60516222,101.240831 5.44102627,50.7811616 13.0294512,7.0295135 L13.7443001,2.94272924 L14.2480923,0.102221736 L17.2270627,0 L21.1294296,15.5932642 L23.3687672,15.5932642 L23.3687672,0.369256208 L27.4329006,0.369256208 L27.4329006,15.5932642 L30.4810006,15.5932642 L30.4810006,0.369256208 L34.5451341,0.369256208 L34.5451341,15.5932642 L37.5932341,15.5932642 L37.5932341,0.369256208 L41.6573675,0.369256208 L41.6573675,15.5932642 L43.895689,15.5932642 L47.799072,0 Z M9.39044655,68.4137902 L9.57148344,65.2992973 L9.44450136,66.2416447 C6.2529292,90.1246767 4.62962516,110.008907 4.57364944,125.888433 L4.57355051,127.55057 C4.59034721,132.35836 4.75902072,135.962404 5.12167205,140.007711 L5.18769152,140.726505 L5.32400829,142.120705 L6.13249803,149.883155 L6.26543331,151.305325 C7.05843144,160.060391 7.50119399,170.113265 7.59929312,185.408788 L7.61528062,188.847813 L7.62025016,192.277178 L7.61294095,195.613262 L7.59730522,198.097181 C7.4641964,214.377923 6.75501415,225.128206 5.55007254,232.98964 L5.49129146,233.368367 L5.31290845,234.462718 L5.14163832,235.418603 L4.95086224,236.414273 C4.74619429,237.460398 4.50584042,238.632126 4.28370788,239.697597 L3.5920569,242.977805 L3.48161869,243.587731 C3.21449251,245.154918 3.07704337,246.602133 3.0522248,248.320183 L3.04810006,248.903433 L3.04810006,273.784027 C3.04810006,275.566563 4.33920698,276.840544 7.27788462,277.574543 L7.57725749,277.646142 L7.74725433,277.683326 L7.74736335,246.471469 C7.69479086,242.080886 8.37526354,238.325375 9.89981903,233.187882 L10.0947928,232.538352 L11.4379828,228.154955 L11.7189343,227.207447 C12.4356316,224.754192 12.6359321,223.725846 12.6856002,222.513502 L12.6995173,221.892299 L12.7004169,148.557538 L12.6957737,147.978875 C12.6459387,144.887666 12.1900475,141.671114 11.0920784,136.156846 L10.7661504,134.543584 L9.62869416,129.051448 L9.12389186,126.513056 L8.92332153,125.46122 C8.0607052,120.862974 7.73254343,118.042028 7.74151553,115.157609 L7.74749895,114.593007 L7.78175802,112.745384 L7.85956706,108.936158 L7.94622364,105.172626 C8.24982548,92.7036705 8.70089672,80.9962348 9.29954281,70.0500142 L9.39044655,68.4137902 Z M54.4899278,62.5788999 L54.6986946,66.6540699 L54.850741,69.8010332 C55.4711039,83.0022289 55.926925,97.3140479 56.2183226,112.736928 L56.252501,114.593007 C56.3306268,118.948428 55.786222,122.580378 54.0951991,130.465443 L53.3927909,133.707099 C51.960134,140.347396 51.3366283,144.302266 51.3011908,148.203002 L51.3024694,222.097671 L51.3131494,222.503215 L51.32593,222.756371 C51.403496,224.014118 51.6984989,225.205208 52.7727189,228.752881 L53.905276,232.459145 C55.5606779,237.951599 56.3074375,241.894788 56.2526367,246.471469 L56.2527457,277.683326 L56.4227425,277.646142 C59.5732847,276.924911 60.9518999,275.625981 60.9518999,273.784027 L60.9518999,248.903433 C60.9518999,246.935333 60.7955587,245.354589 60.4556528,243.624876 L60.3141177,242.956141 L59.3024203,238.778854 L58.8390372,236.791835 C58.6632074,236.02046 58.5052526,235.301258 58.3883807,234.720816 L58.2064658,233.773694 L58.0698954,233.019612 C56.5199171,224.244715 55.6812269,211.882838 55.6812269,192.277178 L55.6846658,189.688489 L55.7006539,186.273689 L55.7220951,183.732958 C55.8687709,169.330989 56.4106506,159.676111 57.354027,151.222317 L57.6097546,149.040354 L58.5058279,142.086056 L58.6661337,140.754412 C59.1446988,136.627123 59.378618,133.053735 59.420813,128.355193 L59.4278499,126.735291 L59.4223758,125.040291 L59.4059532,123.314896 C59.2125314,107.939668 57.7376646,89.0071692 54.9806867,66.5219325 L54.4899278,62.5788999 Z M49.5522289,18.6374668 L15.0584636,18.6374668 L14.828274,20.9102116 C12.8592695,40.7350722 11.5655419,80.3125673 10.9481337,107.160064 L10.878666,110.33247 L10.7951098,114.647562 L10.7896545,115.143216 C10.7793383,118.363912 11.2392877,121.615293 12.5060774,127.902364 L12.8128892,129.408482 L13.5478043,132.939733 L13.9707864,135.008418 L14.19203,136.119156 C15.256487,141.525443 15.6994971,144.768483 15.7446346,147.998542 L15.748517,148.557538 L15.7471334,222.004786 L15.7418296,222.373992 C15.7046532,224.113068 15.485218,225.261434 14.4349956,228.773559 L14.0965882,229.893739 L13.2028249,232.798423 C11.5528705,238.132237 10.7996093,241.792116 10.7928321,245.968904 L10.7953544,246.453259 L10.7953544,276.44524 L53.2045866,276.44524 L53.2046456,246.453259 C53.2551356,242.227824 52.5581243,238.549165 50.9820989,233.322115 L49.5566547,228.644088 L49.2550541,227.621713 L48.9776993,226.645037 C48.3433722,224.346925 48.259377,223.473801 48.2520724,221.915287 L48.251483,148.557538 C48.251483,144.387302 48.8564351,140.352573 50.2813139,133.679535 L51.2084457,129.38915 L51.7345857,126.869719 L51.9482093,125.804503 C52.9348971,120.804779 53.263345,117.906345 53.2048902,114.647562 L53.1215767,110.278852 L53.0269277,105.858876 L52.9145253,101.166006 C52.2731912,75.8151508 51.1522286,37.4783649 49.5522289,18.6374668 Z M16.2077432,8.48219438 C15.9215784,10.7965567 15.6462131,13.1671274 15.3816492,15.5939005 L17.9868385,15.5932642 L16.2077432,8.48219438 Z M48.6706693,9.06968516 L47.0382802,15.5932642 L49.28702,15.5933743 C49.1381201,13.9271837 48.9853292,12.2874436 48.8286477,10.6741557 L48.6706693,9.06968516 Z" id="形状" fill-opacity="0.7" fill="#999999" fill-rule="nonzero"></path>
            <path d="M36.0691841,91.6918582 L27.9409173,91.6918582 C25.420216,91.6918582 23.3767838,93.7352903 23.3767838,96.2559916 L23.3767838,104.367536 C23.3767838,106.888238 25.420216,108.93167 27.9409173,108.93167 L36.0691841,108.93167 C38.5898854,108.93167 40.6333175,106.888238 40.6333175,104.367536 L40.6333175,96.2559916 C40.6333175,93.7352903 38.5898854,91.6918582 36.0691841,91.6918582 Z M27.9409173,92.6918582 L36.0691841,92.6918582 C38.0376006,92.6918582 39.6333175,94.2875751 39.6333175,96.2559916 L39.6333175,104.367536 C39.6333175,106.335953 38.0376006,107.93167 36.0691841,107.93167 L27.9409173,107.93167 C25.9725007,107.93167 24.3767838,106.335953 24.3767838,104.367536 L24.3767838,96.2559916 C24.3767838,94.2875751 25.9725007,92.6918582 27.9409173,92.6918582 Z" id="矩形备份-9" fill-opacity="0.7" fill="#999999" fill-rule="nonzero"></path>
            <path d="M23.9865154,88.4594081 C24.2994537,88.4594081 24.5676865,88.3700892 24.7912139,88.1914512 C25.0309977,88.0006335 25.1813707,87.7367365 25.2463968,87.3957005 L24.7830856,87.3957005 C24.7261877,87.6149379 24.6286485,87.781396 24.490468,87.8910147 C24.3604157,87.9884536 24.1897221,88.041233 23.9824513,88.041233 C23.6654489,88.041233 23.4297292,87.9397342 23.2793562,87.7448564 C23.1411757,87.5621585 23.0720854,87.2982616 23.0720854,86.9572256 C23.0720854,86.6243094 23.1411757,86.3644724 23.2834204,86.1777146 C23.4378574,85.966597 23.6654489,85.8650982 23.9702589,85.8650982 C24.1734656,85.8650982 24.340095,85.9056977 24.4701473,85.9950167 C24.6042637,86.0843357 24.6936747,86.2223741 24.7424443,86.4131919 L25.2057555,86.4131919 C25.16105,86.1208752 25.0350619,85.885398 24.8237269,85.71488 C24.6042637,85.536242 24.3197744,85.4469231 23.9783872,85.4469231 C23.515076,85.4469231 23.1614964,85.5971413 22.9176483,85.9056977 C22.7022493,86.1736546 22.5965818,86.5268705 22.5965818,86.9572256 C22.5965818,87.3957005 22.6981851,87.7448564 22.9054559,88.0046934 C23.1411757,88.3051299 23.5028836,88.4594081 23.9865154,88.4594081 Z M26.9817818,88.4594081 C27.4247723,88.4594081 27.7742878,88.3173098 28.0303282,88.0331131 C28.2741762,87.7610962 28.3961002,87.4038204 28.3961002,86.9572256 C28.3961002,86.5106307 28.2741762,86.1492949 28.0303282,85.8772781 C27.7742878,85.5890214 27.4247723,85.4469231 26.9817818,85.4469231 C26.5347271,85.4469231 26.1852116,85.5890214 25.9332353,85.881338 C25.6893873,86.1574148 25.5715275,86.5146907 25.5715275,86.9572256 C25.5715275,87.3957005 25.6893873,87.7529763 25.9332353,88.0290531 C26.1852116,88.3132498 26.5347271,88.4594081 26.9817818,88.4594081 Z M26.9817818,88.041233 C26.6810359,88.041233 26.4453162,87.9397342 26.2827508,87.7407965 C26.1242496,87.5459187 26.0470311,87.2860817 26.0470311,86.9572256 C26.0470311,86.6243094 26.1242496,86.3644724 26.2827508,86.1695947 C26.4493803,85.966597 26.6810359,85.8650982 26.9817818,85.8650982 C27.2825276,85.8650982 27.5141832,85.9584771 27.6767486,86.1533549 C27.8352498,86.3482326 27.9165325,86.6161895 27.9165325,86.9572256 C27.9165325,87.2982616 27.8352498,87.5621585 27.6767486,87.7529763 C27.5141832,87.9437941 27.2825276,88.041233 26.9817818,88.041233 Z M29.3186585,88.4025688 L29.3186585,86.2832734 L29.334915,86.2832734 L30.7858106,88.4025688 L31.2491219,88.4025688 L31.2491219,85.5037624 L30.7695541,85.5037624 L30.7695541,87.5946382 L30.7532976,87.5946382 L29.3186585,85.5037624 L28.8431549,85.5037624 L28.8431549,88.4025688 L29.3186585,88.4025688 Z M32.2936041,88.4025688 L32.2936041,86.2832734 L32.3098607,86.2832734 L33.7607563,88.4025688 L34.2240675,88.4025688 L34.2240675,85.5037624 L33.7444998,85.5037624 L33.7444998,87.5946382 L33.7282432,87.5946382 L32.2936041,85.5037624 L31.8181005,85.5037624 L31.8181005,88.4025688 L32.2936041,88.4025688 Z M36.9551652,88.4025688 L36.9551652,87.9965735 L35.2685498,87.9965735 L35.2685498,87.1196237 L36.7885357,87.1196237 L36.7885357,86.7136284 L35.2685498,86.7136284 L35.2685498,85.9097577 L36.8860749,85.9097577 L36.8860749,85.5037624 L34.7930462,85.5037624 L34.7930462,88.4025688 L36.9551652,88.4025688 Z M38.6702295,88.4594081 C38.9831678,88.4594081 39.2514006,88.3700892 39.4749279,88.1914512 C39.7147118,88.0006335 39.8650847,87.7367365 39.9301108,87.3957005 L39.4667996,87.3957005 C39.4099018,87.6149379 39.3123626,87.781396 39.174182,87.8910147 C39.0441298,87.9884536 38.8734362,88.041233 38.6661653,88.041233 C38.3491629,88.041233 38.1134432,87.9397342 37.9630703,87.7448564 C37.8248897,87.5621585 37.7557995,87.2982616 37.7557995,86.9572256 C37.7557995,86.6243094 37.8248897,86.3644724 37.9671344,86.1777146 C38.1215715,85.966597 38.3491629,85.8650982 38.6539729,85.8650982 C38.8571796,85.8650982 39.0238091,85.9056977 39.1538614,85.9950167 C39.2879778,86.0843357 39.3773887,86.2223741 39.4261583,86.4131919 L39.8894695,86.4131919 C39.844764,86.1208752 39.7187759,85.885398 39.507441,85.71488 C39.2879778,85.536242 39.0034884,85.4469231 38.6621012,85.4469231 C38.19879,85.4469231 37.8452104,85.5971413 37.6013624,85.9056977 C37.3859633,86.1736546 37.2802959,86.5268705 37.2802959,86.9572256 C37.2802959,87.3957005 37.3818992,87.7448564 37.58917,88.0046934 C37.8248897,88.3051299 38.1865976,88.4594081 38.6702295,88.4594081 Z M41.580149,88.4025688 L41.580149,85.9097577 L42.5311562,85.9097577 L42.5311562,85.5037624 L40.1536382,85.5037624 L40.1536382,85.9097577 L41.1046454,85.9097577 L41.1046454,88.4025688 L41.580149,88.4025688 Z" id="CONNECT" fill="#999999" fill-rule="nonzero"></path>
            <path d="M29.0707463,231.042248 L29.639725,228.862053 L29.6559816,228.862053 L30.2208961,231.042248 L30.7248486,231.042248 L31.5620601,228.143442 L31.0255945,228.143442 L30.4810006,230.347996 L30.4647441,230.347996 L29.8917013,228.143442 L29.3999412,228.143442 L28.8268983,230.347996 L28.8106418,230.347996 L28.2660479,228.143442 L27.7295823,228.143442 L28.5627297,231.042248 L29.0707463,231.042248 Z M32.0903975,231.042248 L32.3545661,230.315517 L33.569742,230.315517 L33.8339107,231.042248 L34.3419274,231.042248 L33.232419,228.143442 L32.6918892,228.143442 L31.5823808,231.042248 L32.0903975,231.042248 Z M33.4274974,229.925761 L32.4968108,229.925761 L32.9560579,228.654996 L32.9723144,228.654996 L33.4274974,229.925761 Z M35.1019203,231.042248 L35.1019203,228.922953 L35.1181769,228.922953 L36.5690725,231.042248 L37.0323837,231.042248 L37.0323837,228.143442 L36.552816,228.143442 L36.552816,230.234318 L36.5365594,230.234318 L35.1019203,228.143442 L34.6264167,228.143442 L34.6264167,231.042248 L35.1019203,231.042248 Z" id="WAN" fill="#999999" fill-rule="nonzero"></path>
            <path d="M30.767522,117.63423 L30.767522,117.228235 L29.1987665,117.228235 L29.1987665,114.735423 L28.7273271,114.735423 L28.7273271,117.63423 L30.767522,117.63423 Z M31.3568214,117.63423 L31.6209901,116.907498 L32.836166,116.907498 L33.1003346,117.63423 L33.6083513,117.63423 L32.4988429,114.735423 L31.9583131,114.735423 L30.8488047,117.63423 L31.3568214,117.63423 Z M32.6939213,116.517743 L31.7632347,116.517743 L32.2224818,115.246978 L32.2387383,115.246978 L32.6939213,116.517743 Z M34.3683443,117.63423 L34.3683443,115.514934 L34.3846008,115.514934 L35.8354964,117.63423 L36.2988076,117.63423 L36.2988076,114.735423 L35.8192399,114.735423 L35.8192399,116.826299 L35.8029834,116.826299 L34.3683443,114.735423 L33.8928406,114.735423 L33.8928406,117.63423 L34.3683443,117.63423 Z" id="LAN" fill="#999999" fill-rule="nonzero"></path>
            <path d="M26.2177247,258.44693 L26.2177247,257.334503 L26.9370763,257.334503 C27.6442355,257.334503 27.9978151,257.034067 27.9978151,256.437254 C27.9978151,255.844501 27.6442355,255.548124 26.9452046,255.548124 L25.7422211,255.548124 L25.7422211,258.44693 L26.2177247,258.44693 Z M26.9086274,256.928508 L26.2177247,256.928508 L26.2177247,255.954119 L26.9086274,255.954119 C27.1158982,255.954119 27.2703352,255.990659 27.3678744,256.067798 C27.4654136,256.140877 27.5182474,256.262676 27.5182474,256.437254 C27.5182474,256.611832 27.4694778,256.73769 27.3719386,256.814829 C27.2743994,256.887909 27.1199623,256.928508 26.9086274,256.928508 Z M29.6925588,258.50377 C30.1355493,258.50377 30.4850648,258.361671 30.7411052,258.077475 C30.9849532,257.805458 31.1068772,257.448182 31.1068772,257.001587 C31.1068772,256.554992 30.9849532,256.193657 30.7411052,255.92164 C30.4850648,255.633383 30.1355493,255.491285 29.6925588,255.491285 C29.2455041,255.491285 28.8959886,255.633383 28.6440123,255.9257 C28.4001643,256.201776 28.2823045,256.559052 28.2823045,257.001587 C28.2823045,257.440062 28.4001643,257.797338 28.6440123,258.073415 C28.8959886,258.357611 29.2455041,258.50377 29.6925588,258.50377 Z M29.6925588,258.085595 C29.3918129,258.085595 29.1560931,257.984096 28.9935278,257.785158 C28.8350266,257.59028 28.7578081,257.330443 28.7578081,257.001587 C28.7578081,256.668671 28.8350266,256.408834 28.9935278,256.213956 C29.1601573,256.010959 29.3918129,255.90946 29.6925588,255.90946 C29.9933046,255.90946 30.2249602,256.002839 30.3875256,256.197717 C30.5460268,256.392594 30.6273094,256.660551 30.6273094,257.001587 C30.6273094,257.342623 30.5460268,257.60652 30.3875256,257.797338 C30.2249602,257.988156 29.9933046,258.085595 29.6925588,258.085595 Z M32.6309272,258.44693 L33.1999059,256.266736 L33.2161624,256.266736 L33.781077,258.44693 L34.2850295,258.44693 L35.122241,255.548124 L34.5857754,255.548124 L34.0411815,257.752679 L34.024925,257.752679 L33.4518822,255.548124 L32.960122,255.548124 L32.3870792,257.752679 L32.3708227,257.752679 L31.8262288,255.548124 L31.2897632,255.548124 L32.1229105,258.44693 L32.6309272,258.44693 Z M37.58917,258.44693 L37.58917,258.040935 L35.9025546,258.040935 L35.9025546,257.163985 L37.4225405,257.163985 L37.4225405,256.75799 L35.9025546,256.75799 L35.9025546,255.954119 L37.5200797,255.954119 L37.5200797,255.548124 L35.427051,255.548124 L35.427051,258.44693 L37.58917,258.44693 Z M38.5117283,258.44693 L38.5117283,257.265484 L39.263593,257.265484 C39.4261583,257.265484 39.5521464,257.297964 39.6374932,257.371043 C39.7187759,257.440062 39.7675455,257.553741 39.783802,257.712079 L39.8203792,258.069355 C39.8366358,258.231753 39.8772771,258.357611 39.9463674,258.44693 L40.4625123,258.44693 C40.3649731,258.341372 40.3040111,258.199273 40.2877546,258.020635 L40.238985,257.553741 C40.2064719,257.269544 40.0642272,257.103086 39.812251,257.046247 L39.812251,257.038127 C39.966688,256.997527 40.0926762,256.912268 40.1820871,256.78235 C40.2633698,256.664611 40.3040111,256.530633 40.3040111,256.380414 C40.3040111,256.104338 40.210536,255.89322 40.0317142,255.747062 C39.8610206,255.613083 39.6253008,255.548124 39.3286191,255.548124 L38.0362247,255.548124 L38.0362247,258.44693 L38.5117283,258.44693 Z M39.263593,256.859489 L38.5117283,256.859489 L38.5117283,255.954119 L39.263593,255.954119 C39.4586714,255.954119 39.600916,255.986599 39.690327,256.059678 C39.7797379,256.128697 39.8244434,256.242376 39.8244434,256.400714 C39.8244434,256.546872 39.7797379,256.660551 39.690327,256.74175 C39.5927878,256.818889 39.4505431,256.859489 39.263593,256.859489 Z" id="POWER" fill="#999999" fill-rule="nonzero"></path>
            <path d="M26.166923,69.1177924 L26.166923,67.9363461 L26.9187877,67.9363461 C27.081353,67.9363461 27.2073412,67.9688257 27.292688,68.0419049 C27.3739706,68.1109241 27.4227402,68.2246028 27.4389968,68.3829409 L27.475574,68.7402168 C27.4918305,68.9026149 27.5324718,69.0284734 27.6015621,69.1177924 L28.1177071,69.1177924 C28.0201679,69.0122336 27.9592059,68.8701353 27.9429493,68.6914973 L27.8941797,68.2246028 C27.8616667,67.9404061 27.719422,67.773948 27.4674457,67.7171086 L27.4674457,67.7089887 C27.6218828,67.6683892 27.7478709,67.5831302 27.8372819,67.4532117 C27.9185645,67.3354731 27.9592059,67.2014946 27.9592059,67.0512764 C27.9592059,66.7751996 27.8657308,66.564082 27.6869089,66.4179237 C27.5162153,66.2839453 27.2804956,66.218986 26.9838138,66.218986 L25.6914194,66.218986 L25.6914194,69.1177924 L26.166923,69.1177924 Z M26.9187877,67.5303508 L26.166923,67.5303508 L26.166923,66.6249813 L26.9187877,66.6249813 C27.1138661,66.6249813 27.2561108,66.6574609 27.3455217,66.7305401 C27.4349326,66.7995593 27.4796381,66.913238 27.4796381,67.0715761 C27.4796381,67.2177344 27.4349326,67.3314131 27.3455217,67.4126122 C27.2479825,67.4897513 27.1057378,67.5303508 26.9187877,67.5303508 Z M30.6862394,69.1177924 L30.6862394,68.7117971 L28.999624,68.7117971 L28.999624,67.8348473 L30.5196099,67.8348473 L30.5196099,67.428852 L28.999624,67.428852 L28.999624,66.6249813 L30.6171491,66.6249813 L30.6171491,66.218986 L28.5241204,66.218986 L28.5241204,69.1177924 L30.6862394,69.1177924 Z M32.2062253,69.1746317 C32.5760614,69.1746317 32.8646149,69.0974926 33.0678216,68.9513343 C33.2710282,68.8011161 33.3726316,68.5940585 33.3726316,68.3342215 C33.3726316,68.0662646 33.2466434,67.859207 32.9946672,67.7089887 C32.8808714,67.6440295 32.6288952,67.5465906 32.2346742,67.424792 C31.9664414,67.339533 31.7998119,67.2786337 31.7388499,67.2461541 C31.6006694,67.1730749 31.5356433,67.0715761 31.5356433,66.9497775 C31.5356433,66.8117391 31.5925411,66.7102403 31.7144651,66.649341 C31.8120043,66.5965616 31.9501849,66.5722019 32.1330709,66.5722019 C32.3444058,66.5722019 32.5069712,66.6087415 32.6126386,66.6899406 C32.7183061,66.7670797 32.7955246,66.8969982 32.836166,67.0756361 L33.3076054,67.0756361 C33.2791565,66.7589598 33.1612966,66.5234825 32.95809,66.3732642 C32.7670757,66.2311659 32.4988429,66.1621467 32.1574557,66.1621467 C31.8445174,66.1621467 31.588477,66.2311659 31.3852703,66.3732642 C31.1658071,66.5194225 31.0601397,66.7224202 31.0601397,66.9781972 C31.0601397,67.2339742 31.1698713,67.428852 31.3933986,67.5628304 C31.4787454,67.6115499 31.7022727,67.6927489 32.0599165,67.8064276 C32.380983,67.9038665 32.5679332,67.9688257 32.624831,67.9972454 C32.8036529,68.0865644 32.897128,68.2083629 32.897128,68.3626412 C32.897128,68.4844397 32.8321018,68.5778187 32.7101778,68.6508978 C32.5882538,68.719917 32.4175602,68.7564566 32.2062253,68.7564566 C31.9664414,68.7564566 31.7916837,68.7117971 31.6778879,68.630598 C31.5518998,68.5372191 31.4746813,68.378881 31.4421682,68.1596435 L30.9707287,68.1596435 C30.9910494,68.5290992 31.1251658,68.7970561 31.3690138,68.9675741 C31.5681563,69.1056125 31.8485815,69.1746317 32.2062253,69.1746317 Z M35.9411639,69.1177924 L35.9411639,68.7117971 L34.2545485,68.7117971 L34.2545485,67.8348473 L35.7745344,67.8348473 L35.7745344,67.428852 L34.2545485,67.428852 L34.2545485,66.6249813 L35.8720736,66.6249813 L35.8720736,66.218986 L33.7790449,66.218986 L33.7790449,69.1177924 L35.9411639,69.1177924 Z M37.5912021,69.1177924 L37.5912021,66.6249813 L38.5422093,66.6249813 L38.5422093,66.218986 L36.1646912,66.218986 L36.1646912,66.6249813 L37.1156984,66.6249813 L37.1156984,69.1177924 L37.5912021,69.1177924 Z" id="RESET" fill="#999999" fill-rule="nonzero"></path>
            <ellipse id="椭圆形备份-2" fill-opacity="0.5" fill="#999999" cx="32.5130674" cy="73.4145759" rx="1.52405003" ry="1.52248235"></ellipse>
            <ellipse id="椭圆形备份-3" fill-opacity="0.5" fill="#999999" cx="29.972984" cy="247.011396" rx="5.08016677" ry="5.07494116"></ellipse>
            <path d="M32.5130674,186.216507 L32.5136808,188.056507 L35.2999017,188.057019 L35.3006808,191.737507 L37.1577913,191.738043 L37.1586808,192.657507 L39.0156808,192.658299 L39.0156808,198.179835 L37.1586808,198.179507 L37.1577913,199.100091 L35.3006808,199.099507 L35.2999017,202.781115 L32.5136808,202.780507 L32.5130674,204.621627 L27.8683434,204.621627 L27.8686808,202.780507 L26.0104539,202.781115 L26.0104539,188.057019 L27.8686808,188.056507 L27.8683434,186.216507 L32.5130674,186.216507 Z M32.0795598,199.721563 L27.7444841,199.721563 L27.7444841,200.677673 L32.0795598,200.677673 L32.0795598,199.721563 Z M32.0795598,197.809343 L27.7444841,197.809343 L27.7444841,198.765453 L32.0795598,198.765453 L32.0795598,197.809343 Z M32.0795598,195.897123 L27.7444841,195.897123 L27.7444841,196.853233 L32.0795598,196.853233 L32.0795598,195.897123 Z M32.0795598,193.984902 L27.7444841,193.984902 L27.7444841,194.941012 L32.0795598,194.941012 L32.0795598,193.984902 Z M32.0795598,192.072682 L27.7444841,192.072682 L27.7444841,193.028792 L32.0795598,193.028792 L32.0795598,192.072682 Z M32.0795598,190.160462 L27.7444841,190.160462 L27.7444841,191.116572 L32.0795598,191.116572 L32.0795598,190.160462 Z" id="形状结合备份-2" fill-opacity="0.5" fill="#999999"></path>
            <path d="M32.5130674,164.563425 L32.5136808,166.403425 L35.2999017,166.403937 L35.3006808,170.084425 L37.1577913,170.084961 L37.1586808,171.004425 L39.0156808,171.005217 L39.0156808,176.526753 L37.1586808,176.526425 L37.1577913,177.447009 L35.3006808,177.446425 L35.2999017,181.128033 L32.5136808,181.127425 L32.5130674,182.968545 L27.8683434,182.968545 L27.8686808,181.127425 L26.0104539,181.128033 L26.0104539,166.403937 L27.8686808,166.403425 L27.8683434,164.563425 L32.5130674,164.563425 Z M32.0795598,178.068481 L27.7444841,178.068481 L27.7444841,179.024591 L32.0795598,179.024591 L32.0795598,178.068481 Z M32.0795598,176.15626 L27.7444841,176.15626 L27.7444841,177.112371 L32.0795598,177.112371 L32.0795598,176.15626 Z M32.0795598,174.24404 L27.7444841,174.24404 L27.7444841,175.20015 L32.0795598,175.20015 L32.0795598,174.24404 Z M32.0795598,172.33182 L27.7444841,172.33182 L27.7444841,173.28793 L32.0795598,173.28793 L32.0795598,172.33182 Z M32.0795598,170.4196 L27.7444841,170.4196 L27.7444841,171.37571 L32.0795598,171.37571 L32.0795598,170.4196 Z M32.0795598,168.507379 L27.7444841,168.507379 L27.7444841,169.46349 L32.0795598,169.46349 L32.0795598,168.507379 Z" id="形状结合备份" fill-opacity="0.5" fill="#999999"></path>
            <path d="M32.5130674,142.910343 L32.5136808,144.750343 L35.2999017,144.750855 L35.3006808,148.431343 L37.1577913,148.431879 L37.1586808,149.351343 L39.0156808,149.352135 L39.0156808,154.873671 L37.1586808,154.873343 L37.1577913,155.793927 L35.3006808,155.793343 L35.2999017,159.474951 L32.5136808,159.474343 L32.5130674,161.315463 L27.8683434,161.315463 L27.8686808,159.474343 L26.0104539,159.474951 L26.0104539,144.750855 L27.8686808,144.750343 L27.8683434,142.910343 L32.5130674,142.910343 Z M32.0795598,156.415398 L27.7444841,156.415398 L27.7444841,157.371509 L32.0795598,157.371509 L32.0795598,156.415398 Z M32.0795598,154.503178 L27.7444841,154.503178 L27.7444841,155.459288 L32.0795598,155.459288 L32.0795598,154.503178 Z M32.0795598,152.590958 L27.7444841,152.590958 L27.7444841,153.547068 L32.0795598,153.547068 L32.0795598,152.590958 Z M32.0795598,150.678738 L27.7444841,150.678738 L27.7444841,151.634848 L32.0795598,151.634848 L32.0795598,150.678738 Z M32.0795598,148.766517 L27.7444841,148.766517 L27.7444841,149.722628 L32.0795598,149.722628 L32.0795598,148.766517 Z M32.0795598,146.854297 L27.7444841,146.854297 L27.7444841,147.810407 L32.0795598,147.810407 L32.0795598,146.854297 Z" id="形状结合" fill-opacity="0.5" fill="#999999"></path>
            <path d="M32.5130674,121.257261 L32.5136808,123.097261 L35.2999017,123.097773 L35.3006808,126.778261 L37.1577913,126.778797 L37.1586808,127.698261 L39.0156808,127.699053 L39.0156808,133.220589 L37.1586808,133.220261 L37.1577913,134.140845 L35.3006808,134.140261 L35.2999017,137.821869 L32.5136808,137.821261 L32.5130674,139.662381 L27.8683434,139.662381 L27.8686808,137.821261 L26.0104539,137.821869 L26.0104539,123.097773 L27.8686808,123.097261 L27.8683434,121.257261 L32.5130674,121.257261 Z M32.0795598,134.762316 L27.7444841,134.762316 L27.7444841,135.718426 L32.0795598,135.718426 L32.0795598,134.762316 Z M32.0795598,132.850096 L27.7444841,132.850096 L27.7444841,133.806206 L32.0795598,133.806206 L32.0795598,132.850096 Z M32.0795598,130.937876 L27.7444841,130.937876 L27.7444841,131.893986 L32.0795598,131.893986 L32.0795598,130.937876 Z M32.0795598,129.025655 L27.7444841,129.025655 L27.7444841,129.981766 L32.0795598,129.981766 L32.0795598,129.025655 Z M32.0795598,127.113435 L27.7444841,127.113435 L27.7444841,128.069545 L32.0795598,128.069545 L32.0795598,127.113435 Z M32.0795598,125.201215 L27.7444841,125.201215 L27.7444841,126.157325 L32.0795598,126.157325 L32.0795598,125.201215 Z" id="形状结合" fill-opacity="0.5" fill="#999999"></path>
            <path d="M32.5130674,206.786936 L32.5136808,208.626936 L35.2999017,208.627448 L35.3006808,212.307936 L37.1577913,212.308472 L37.1586808,213.227936 L39.0156808,213.228728 L39.0156808,218.750264 L37.1586808,218.749936 L37.1577913,219.67052 L35.3006808,219.669936 L35.2999017,223.351544 L32.5136808,223.350936 L32.5130674,225.192056 L27.8683434,225.192056 L27.8686808,223.350936 L26.0104539,223.351544 L26.0104539,208.627448 L27.8686808,208.626936 L27.8683434,206.786936 L32.5130674,206.786936 Z M32.0795598,220.291991 L27.7444841,220.291991 L27.7444841,221.248101 L32.0795598,221.248101 L32.0795598,220.291991 Z M32.0795598,218.379771 L27.7444841,218.379771 L27.7444841,219.335881 L32.0795598,219.335881 L32.0795598,218.379771 Z M32.0795598,216.467551 L27.7444841,216.467551 L27.7444841,217.423661 L32.0795598,217.423661 L32.0795598,216.467551 Z M32.0795598,214.55533 L27.7444841,214.55533 L27.7444841,215.511441 L32.0795598,215.511441 L32.0795598,214.55533 Z M32.0795598,212.64311 L27.7444841,212.64311 L27.7444841,213.59922 L32.0795598,213.59922 L32.0795598,212.64311 Z M32.0795598,210.73089 L27.7444841,210.73089 L27.7444841,211.687 L32.0795598,211.687 L32.0795598,210.73089 Z" id="形状结合" fill-opacity="0.5" fill="#FF5B5B"></path>
            <polygon id="直线-15" fill="#999999" fill-rule="nonzero" points="23.3687672 206.242702 23.3687672 207.257691 21.3361586 207.256808 21.3361586 228.740996 25.9088505 228.741608 25.9088505 229.756596 20.3206671 229.756596 20.3206671 206.242702"></polygon>
            <polygon id="直线-15备份" fill="#999999" fill-rule="nonzero" points="43.6894343 206.242702 43.6894343 229.756596 38.6092675 229.756596 38.6092675 228.741608 42.6734009 228.740996 42.6734009 207.256808 40.6413342 207.257691 40.6413342 206.242702"></polygon>
            <polygon id="直线-15" fill="#999999" fill-rule="nonzero" transform="translate(23.114759, 160.026905) scale(1, -1) translate(-23.114759, -160.026905) " points="23.3687672 115.841084 23.3687672 116.856072 21.3361586 116.855189 21.3361586 203.196855 25.9088505 203.197738 25.9088505 204.212726 20.3206671 204.212726 20.3206671 115.841084"></polygon>
            <polygon id="直线-15备份" fill="#999999" fill-rule="nonzero" transform="translate(41.149351, 160.026905) scale(1, -1) translate(-41.149351, -160.026905) " points="43.6894343 115.841084 43.6894343 204.212726 38.6092675 204.212726 38.6092675 203.197738 42.6734009 203.196855 42.6734009 116.855189 40.6413342 116.856072 40.6413342 115.841084"></polygon>
        </g>
        <path d="M106.00335,109.584901 C106.224138,95.9710757 117.331877,85 130.998242,85 C144.805576,85 156,96.193242 156,109.998242 C156,123.806167 144.806167,135 130.998242,135 C117.331292,135 106.224126,124.028345 106.003349,110.41167 L106,109.998242 L106.00335,109.584901 Z M108,109.998242 C108,122.701597 118.298403,133 130.998242,133 C143.701597,133 154,122.701597 154,109.998242 C154,97.2984025 143.701597,87 130.998242,87 C118.298403,87 108,97.2984025 108,109.998242 Z" id="Fill-20" fill-opacity="0.9" fill="#F84343" fill-rule="nonzero"></path>
        <g id="编组" transform="translate(173.999541, 42.999535)">
            <path d="M1.25003667,32.876829 C-4.42090116,56.0143037 9.73865803,79.3677356 32.8767273,85.0400291 L33.5856636,85.2074449 C37.3698879,86.0680646 41.2041539,86.4126196 45.0092694,86.249289 L45.641459,86.2164407 L45.6261565,86.6575101 C45.5491495,88.4680045 45.3416195,90.4545973 45.0400582,92.2044162 L44.3691896,96.0971524 L48.0297099,94.2696705 L48.3208874,94.113623 L48.661947,93.9202914 L49.0496235,93.6896165 L49.4806519,93.4215391 L49.9517671,93.1160003 C51.4320311,92.1364799 52.9102451,90.9657631 54.2948637,89.5986304 L54.685905,89.2045884 C56.3593595,87.4832876 57.7568969,85.5826333 58.7941499,83.4970883 L58.885459,83.3054407 L59.0525533,83.2408727 C71.9173323,78.1288758 81.6725644,67.1501971 85.0400365,53.4121539 C90.7110999,30.2753768 76.5509944,6.92104395 53.4132603,1.25004254 C30.2754919,-4.42096724 6.92106978,9.73896552 1.25003667,32.876829 Z M52.9371571,3.19254756 C75.0021571,8.60062449 88.5056186,30.8721629 83.0975417,52.9360091 C79.7213878,66.7094706 69.775234,77.1460091 57.4106186,81.729086 C56.193519,84.5500696 54.3243068,86.8253935 52.5045233,88.5477491 L52.0510132,88.9668136 C51.9004571,89.1026589 51.7506502,89.2346599 51.6019985,89.3628124 L51.1599152,89.7357201 L50.7271991,90.0855113 C50.6559957,90.141882 50.5852841,90.1972885 50.515115,90.2517303 L50.1010171,90.5667992 C50.0332212,90.6173797 49.9660694,90.6669944 49.8996123,90.7156428 L49.5096134,90.9959323 L49.1387254,91.2530039 L48.6235548,91.595022 L48.1650856,91.8846569 L47.7715391,92.121823 L47.1519216,92.470684 L47.0110032,92.544086 C47.4667725,89.8994706 47.7413878,86.5821629 47.6375417,84.0437014 C42.9840802,84.5560091 38.1633109,84.2756245 33.3529263,83.0975476 C11.2879263,77.6883168 -2.21553523,55.4179322 3.19254169,33.3529322 C8.60061861,11.2879322 30.8721571,-2.21552936 52.9371571,3.19254756 Z" id="Stroke-47" fill-opacity="0.5" fill="#999999" fill-rule="nonzero"></path>
            <path d="M36.4021874,2.55579195 L36.3821061,3.61948938 L36.3674221,4.26524001 L36.35182,4.91350249 L36.280231,7.53167173 L36.1939538,10.1900337 C36.1578709,11.2223522 36.0291369,12.3264201 35.8134673,13.5551177 L35.7157315,14.089487 L35.6003041,14.6762144 L35.4734593,15.2806085 L35.3311341,15.9229998 L35.1692659,16.6237189 L34.4868733,19.4888884 L34.2323856,20.6021655 L34.0806985,21.3140941 L33.9935482,21.7644755 L33.9265955,22.1579958 L33.8774863,22.5079445 L33.8438668,22.8276112 L33.8288967,23.0304616 L33.8136812,23.4292563 L33.812038,67.3284649 L33.82929,67.3441912 L33.8513171,67.349117 L34.175241,67.3298941 L34.4966686,67.3106341 L36.978198,67.1552256 L39.2998397,66.9974706 L40.9360769,66.8776277 L42.4822662,66.7564864 L44.4036951,66.5929613 L45.7395875,66.4688269 L46.9852732,66.3434251 L48.1407047,66.2167652 L49.2058343,66.0888565 L50.1806145,65.9597082 L50.7802502,65.8729253 L51.7571199,65.7198325 C52.2162118,65.6462269 52.6706124,65.5714204 53.1200491,65.495495 L53.7904474,65.3807781 L55.1080893,65.1465565 L56.3934959,64.9063625 L57.6450325,64.6606896 L58.8610642,64.4100313 C59.6096481,64.2519148 60.3364704,64.0911664 61.0397349,63.9283284 L61.7350803,63.7648138 L62.81397,63.5005937 L63.8499978,63.2336091 C64.6612394,63.0190474 65.429764,62.8023057 66.1518051,62.5845212 L66.6845613,62.4210051 L67.4182105,62.1856365 C67.655007,62.1075595 67.88396,62.0299044 68.1047989,61.9527996 L68.4299379,61.8375712 L69.042891,61.6099758 C69.7284989,61.346898 70.3097378,61.0929199 70.775007,60.8535447 C71.1374636,60.6670653 71.4176342,60.4951671 71.6070787,60.3480589 L71.6942013,60.2766179 L71.7215389,60.253345 C71.7369057,60.2409652 71.7468717,60.2351284 71.7533308,60.2374681 L71.7606262,60.2473142 L71.764038,60.2704649 L71.7508304,58.2993051 L71.7428785,55.1689262 L71.7508757,53.3465618 L71.7667281,51.9449468 L71.7661417,51.8379579 L71.7645577,51.728296 L71.7493295,51.2617737 L71.7432667,51.1378886 L71.7363058,51.0109874 L71.6995249,50.4720776 L71.6485463,49.8803355 L71.5835067,49.2321022 L71.504543,48.5237184 L71.1247468,45.4083148 L71.0239536,44.4960329 L70.9839755,43.9912523 L70.9735106,43.7191329 L70.9601696,40.4960777 L70.9370567,38.2454287 L70.8920972,35.3423179 L70.7816926,29.8004372 L70.6717433,23.9598702 L70.6368332,21.1232821 L70.6298622,18.7565687 L70.6407132,17.3362141 L70.6639465,15.969312 L70.6927562,14.8262191 L70.728154,13.7769045 L70.7669081,13.027365 L70.791456,12.6752811 C71.365874,13.1973991 71.9245181,13.7349395 72.4668822,14.2870673 L72.4380086,15.180348 L72.4195725,15.9332464 L72.4049214,16.6829093 L72.3869889,18.2148796 L72.3837151,19.0183628 L72.3840175,19.77464 L72.4008316,22.0886529 L72.4478423,25.2520874 L72.6675935,36.5820169 L72.7111931,40.0688368 L72.7225643,41.9178576 L72.7259671,43.5652789 L72.7298939,43.7403826 L72.7485525,44.0678002 L72.8128871,44.7284154 L73.2472224,48.321385 L73.3297803,49.0624383 L73.3978361,49.7428245 L73.4511947,50.3672514 L73.4622151,50.5151662 L73.4723017,50.6599513 L73.503249,51.2092661 L73.5086208,51.3395062 L73.5130406,51.467058 L73.5211377,51.9518531 L73.5148572,52.4788884 L73.4998796,54.2091329 L73.4999128,57.1285804 L73.5195135,60.3554701 C73.5195135,60.8528139 73.095148,61.3757247 72.2993774,61.9104153 L72.1091692,62.0340082 L71.8051332,62.216828 L71.642639,62.3085102 L71.4732377,62.4003538 L71.1139455,62.584465 L70.9241703,62.6767025 L70.524651,62.861466 L70.0988923,63.0465137 L69.647357,63.2317251 L69.5304998,63.2780394 L69.4120678,63.3243545 L68.9227356,63.5095855 L68.4087842,63.6946789 L67.8706763,63.8795142 L67.3088749,64.0639709 L66.7238429,64.2479285 L66.1160432,64.4312665 L65.4859387,64.6138644 L64.8339923,64.7956016 L63.8161316,65.0663303 L63.1116056,65.2453888 L62.0170453,65.5115343 L61.2628328,65.6871609 L60.0959126,65.9475937 L59.2949067,66.1190351 L58.0599662,66.3726253 L56.7862967,66.6215677 L55.916439,66.7847464 L54.5816927,67.0250386 L53.2123833,67.2595985 L52.2810802,67.4125862 L51.335573,67.5627249 L50.7449937,67.6514761 L50.1146162,67.7395685 L49.0944,67.8704779 L47.9845651,67.9999202 L46.7850681,68.1279046 L45.9355697,68.212422 L44.1169137,68.3795354 L42.6481693,68.5031999 L40.5500907,68.6658756 L38.8716608,68.7862364 L36.4938437,68.94454 L33.9560342,69.1003745 C33.1082259,69.1516938 32.3541524,68.6025614 32.1202101,67.8077702 L31.2779844,67.7138097 C31.1814948,67.8246047 31.0393915,67.8946312 30.8809326,67.8946312 C30.6808465,67.8946312 30.506838,67.7829801 30.4178113,67.6185822 L29.3371307,67.4984046 C29.286572,67.6972949 29.1228285,67.8507613 28.9188323,67.8866537 L28.8241821,67.8946236 C28.565807,67.8932317 28.3519199,67.7058924 28.308679,67.4601304 L28.3007091,67.3654802 L28.3001748,67.0835589 C27.7836615,67.302222 27.4308076,67.5376449 27.2357983,67.7724178 L27.1723714,67.8569262 C26.7075859,68.5499132 25.6528703,68.258125 25.5716344,67.4680635 L25.5667376,67.3572851 L26.0987059,25.0611717 L26.0946224,24.5505539 L26.0820387,24.0475137 L26.060455,23.5444361 L26.0293714,23.0337065 L25.9882881,22.5077098 L25.9367052,21.9588313 L25.874123,21.3794561 L25.8000414,20.7619692 L25.6153812,19.3822013 L25.1928386,16.461435 L25.0410178,15.3313061 L24.9524854,14.5972333 L24.8836393,13.9360219 L24.8477776,13.5248284 L24.8076869,12.9361625 L24.7824162,12.3616901 L24.7729011,11.9757293 L24.7686209,11.57978 L24.7542898,6.3492431 C25.3324067,6.05994352 25.917512,5.78409531 26.5091126,5.52199753 L26.5087676,6.53372387 L26.5149809,9.51080977 L26.5229885,11.5717593 L26.5309763,12.1258473 L26.5428555,12.4877593 L26.5597014,12.8350894 L26.5823838,13.1891117 L26.6283756,13.7446836 L26.6676984,14.1394177 L26.7408457,14.7817517 L26.8672719,15.7607425 L26.9858125,16.610876 L27.3553478,19.1567694 L27.5023898,20.2414853 L27.6212911,21.2149551 L27.6857475,21.8153301 L27.7389307,22.3860601 L27.7813343,22.9350641 L27.8134517,23.4702612 L27.8357766,23.9995705 C27.8387087,24.0877381 27.8412534,24.1759902 27.843421,24.264492 L27.8519823,24.7998179 L27.8530225,25.072202 L27.342038,65.5914649 L27.5019758,65.5174877 C27.6653721,65.4450476 27.8375203,65.3759664 28.0183572,65.3100544 L28.2961212,65.2135396 L28.3119256,65.2094407 L28.6392155,4.64850435 C28.9884517,4.51655079 29.339649,4.38927702 29.6927131,4.26674017 L29.3630954,65.6669806 C29.3789197,65.7000966 29.3928439,65.7345752 29.4046894,65.7703265 C29.4798032,65.9970309 29.457308,66.2325928 29.3600928,66.4314398 L29.3579256,66.4404407 L30.3539256,66.5514407 L30.3546168,57.7833775 C30.3546168,57.4927013 30.5902564,57.2570617 30.8809326,57.2570617 C31.1393114,57.2570617 31.3542045,57.443246 31.3987687,57.6887715 L31.4072483,57.7833775 L31.4069256,66.6684407 L32.0569256,66.7404407 L32.0576549,23.5166583 C32.0584738,23.4207048 32.0600356,23.3272288 32.0626121,23.2349175 L32.0736576,22.960165 L32.0879496,22.7401014 L32.118862,22.411761 L32.1637263,22.0614508 L32.2488949,21.5389448 L32.3676189,20.9263802 L32.5248993,20.1946132 L32.8719256,18.6964407 L32.9575166,3.28323002 C33.3071194,3.19355616 33.6581841,3.10842367 34.0106269,3.02788338 L33.9499256,13.9744407 L33.992172,13.7620535 C34.2190671,12.5677125 34.3633531,11.5085341 34.4211668,10.5389387 L34.4406386,10.1287496 L34.463491,9.46313217 L34.4854295,8.80003043 L34.5640438,6.17278101 L34.5814126,5.52225824 L34.5978675,4.87425136 L34.6415493,2.88892927 C35.2249477,2.76525709 35.8119521,2.65413551 36.4021874,2.55579195 Z M59.3457584,5.32779091 L59.3293378,5.73693384 C59.3102204,6.125444 59.2845189,6.51228898 59.2519509,6.91294832 L59.1723932,7.78462762 L58.9112248,10.2996057 L58.8467888,10.9823439 L58.7593967,12.0260683 L58.7073142,12.7409298 L58.638466,13.8520191 L58.5987552,14.6245774 L58.5639981,15.427375 L58.521157,16.6972211 L58.4987969,17.5935187 L58.4745649,19.0227949 L58.4646199,20.0381662 L58.4590241,21.6652332 L58.4590241,51.8498444 C58.4590241,52.3343047 58.0662915,52.7270374 57.5818311,52.7270374 C57.134637,52.7270374 56.7656013,52.3924013 56.7114727,51.9598777 L56.7046382,51.8498444 L56.7052711,21.1020856 L56.714763,19.4988629 L56.7356398,18.0142286 L56.7558793,17.0835346 L56.7957164,15.7658563 L56.8469212,14.5299369 L56.9094872,13.3619651 L56.9575065,12.6142457 L57.0389938,11.5288288 L57.1318251,10.4745299 L57.4512981,7.36129628 C57.5422462,6.39819112 57.5940986,5.56084287 57.6111545,4.63564514 C58.1961735,4.85228111 58.7747914,5.08400651 59.3457584,5.32779091 Z M31.8543676,3.58262049 L31.6354356,25.8387714 C31.6328891,26.0971377 31.4445959,26.3101854 31.1986432,26.3523277 L31.1039582,26.3598745 C30.845592,26.357328 30.6325442,26.1690348 30.590402,25.9230821 L30.5828551,25.8283972 L30.7986444,3.90035859 C31.1488778,3.78980756 31.5008153,3.68387685 31.8543676,3.58262049 Z" id="形状结合" fill="#999999"></path>
            <path d="M30.9998738,27.5451799 C31.2834501,27.547604 31.5169501,27.7564933 31.5588677,28.027944 L31.5655505,28.1205472 L31.3373377,55.0496586 C31.3346675,55.3647434 31.0770761,55.6180055 30.7619913,55.6153562 C30.478415,55.6129321 30.2449151,55.4040428 30.2029974,55.1325921 L30.1963146,55.0399889 L30.4245274,28.1108775 C30.4271976,27.7957927 30.684789,27.5425306 30.9998738,27.5451799 Z" id="直线-11备份-29" fill="#2A75FF" fill-rule="nonzero"></path>
            <ellipse id="椭圆形" fill="#367DFF" opacity="0.5" filter="url(#filter-1)" cx="30.7636169" cy="41.1583596" rx="8" ry="17.5"></ellipse>
        </g>
    </g>
</svg>