<?xml version="1.0" encoding="UTF-8"?>
<svg width="300px" height="300px" viewBox="0 0 300 300" version="1.1" xmlns="http://www.w3.org/2000/svg" xmlns:xlink="http://www.w3.org/1999/xlink">
    <title>img/wifi6/img_add_m6aplus_01</title>
    <g id="img/wifi6/img_add_m6aplus_01" stroke="none" stroke-width="1" fill="none" fill-rule="evenodd">
        <g id="编组-2备份-3" transform="translate(138.998292, 18.782114)">
            <path d="M55.5048085,-2.42472709e-13 L61.3364791,0.00140617907 C66.0014936,39.0216102 68.3347786,76.7472947 68.3347786,97.8797993 C68.3347786,104.077882 68.0759564,108.488809 67.4802481,113.646907 L67.2568334,115.489379 L66.2738572,123.160981 L66.0439599,125.148235 L65.8779957,126.691099 L65.7718125,127.735341 C64.7974138,137.544722 64.2889666,149.173172 64.2407064,166.973294 L64.2369097,169.825858 L64.245743,173.407519 L64.2653338,176.150505 C64.4384151,194.720957 65.397299,206.614365 67.0144405,215.149185 L67.173783,215.96159 L67.3840411,216.948059 C67.5404319,217.660887 67.7241846,218.463235 67.9145691,219.277428 L68.0422471,219.821125 L68.1705252,220.363219 C68.7043714,222.611495 69.2182978,224.684801 69.2679855,224.918317 C69.7689226,227.272553 70.0017083,229.367374 70.0017083,231.985128 L70.0017083,259.296833 C70.0017083,263.741417 66.4586887,266.360824 60.0827287,267.217886 L58.1942895,265.561462 L11.8091272,265.561462 L9.92068799,267.217886 C3.67484962,266.378315 0.147501286,263.847597 0.0061292336,259.56667 L0.00170833917,259.296833 L7.49983409e-13,235.831012 C0.347493549,235.956059 0.882323246,236.03631 1.48113861,236.03631 L1.48113861,236.03631 L3.335,236.036 L3.33556778,259.296833 C3.33556778,261.253542 4.74771597,262.652006 7.96189465,263.457724 L8.28933372,263.536319 L8.47526776,263.577136 L8.475,236.036 L9.69143191,236.03631 C10.6747973,236.03631 11.485608,235.819893 11.5775948,235.544069 L11.5862853,235.491694 L11.5862853,224.580289 C11.5862853,224.279987 10.7362576,224.03631 9.69143191,224.03631 L9.69143191,224.03631 L8.75952536,224.036643 C9.11131224,221.16755 9.79158236,218.244723 10.8296354,214.733993 L11.0428879,214.020996 L12.5120021,209.209293 L12.8192927,208.169203 C13.6031804,205.476238 13.822259,204.34741 13.8765835,203.016607 L13.8918054,202.334706 L13.8927894,121.834323 L13.8877108,121.199118 C13.8332037,117.805864 13.3345728,114.275018 12.1336691,108.221945 L11.7771853,106.451049 L10.5330926,100.42227 L9.98096506,97.6358499 L9.76159127,96.4812372 C8.81810466,91.4336912 8.45917772,88.337108 8.46899095,85.170849 L8.47553532,84.5510793 L8.51300617,82.5229224 L8.59810982,78.3414932 L8.69289045,74.2102217 C9.02495496,60.5229108 9.51831413,47.6715284 10.1730833,35.6557403 L10.2725093,33.859639 L10.4705184,30.4408256 L10.3316317,31.4752507 C6.84084965,57.6919207 5.06536085,79.5190618 5.00413742,96.950194 L5.00402921,98.7747399 C5.0224006,104.052305 5.20688725,108.008504 5.60353714,112.449083 L5.67574594,113.23811 L5.8248424,114.768539 L6.70912806,123.289467 L6.85452603,124.850599 C7.72186773,134.461132 8.20613927,145.496284 8.31343519,162.286349 L8.33092152,166.061405 L8.33635695,169.825858 L8.32836251,173.487914 L8.31126092,176.21454 C8.16567315,194.086091 7.39000506,205.886797 6.07210018,214.516381 L6.00780837,214.932113 L5.81270196,216.133394 L5.62537525,217.182679 L5.41671391,218.275637 C5.19285834,219.42398 4.9299713,220.7102 4.68701383,221.879779 L4.234,224.036 L1.48113861,224.03631 C1.24833431,224.03631 1.02520118,224.048407 0.818987501,224.070534 L1.81122402,219.307583 C2.03501208,218.203939 2.24809198,217.122575 2.40573509,216.256682 L2.52536333,215.576959 L2.71630219,214.40096 L2.90850122,213.123616 L3.09581763,211.773936 C4.1949405,203.518006 4.8467445,192.379795 4.97787385,176.147052 L4.99482731,173.409603 L5.00249751,169.825858 L4.99937151,166.956283 L4.98513585,163.228053 C4.89517,146.862935 4.45537424,135.961909 3.66140208,126.604443 L3.52814635,125.084472 L3.29713523,122.657927 L2.70955672,117.027329 L2.35598712,113.545222 L2.22640134,112.100552 L2.10490554,110.599816 C1.82105496,106.872683 1.68516373,103.282751 1.67006104,98.7478918 L1.6700302,97.0184973 C1.73747515,76.0690782 4.25553457,38.2583548 9.22246302,0.00170046908 L14.8354327,0.000461861366 C14.2151085,10.2606895 13.6816201,22.0931005 13.2350132,34.0610402 L13.156965,36.1779085 L13.0522827,39.0991 C12.5889619,52.2420557 12.2302573,65.3056622 11.9762296,76.3918551 L11.9002493,79.8742406 L11.8088597,84.6109643 L11.802893,85.15505 C11.7916096,88.690443 12.2946793,92.2595207 13.6802305,99.160908 L14.0158059,100.814191 L14.8196193,104.690484 L15.2822559,106.961303 L15.5242411,108.180572 C16.688491,114.115113 17.1730333,117.675035 17.2224025,121.220707 L17.2266488,121.834323 L17.2251355,202.458184 L17.2193344,202.863466 C17.1786728,204.772468 16.9386655,206.033042 15.7899848,209.888342 L15.4198517,211.117975 L14.4422981,214.306479 C12.6376604,220.161466 11.813781,224.178956 11.8063685,228.763862 L11.8091272,229.295545 L11.8091272,262.218075 L58.194225,262.218075 L58.1942895,229.295545 C58.2495129,224.657237 57.4871568,220.619133 55.763379,214.881341 L54.2042994,209.746219 L53.8744238,208.623947 L53.571067,207.551839 C52.8772717,205.029176 52.7854019,204.070738 52.7774126,202.35994 L52.7767679,121.834323 C52.7767679,117.256608 53.4384342,112.827642 54.9968954,105.502573 L56.0109458,100.79297 L56.5864115,98.027362 L56.8200622,96.8580627 C57.899252,91.3698099 58.2584919,88.1881667 58.194557,84.6109643 L58.1034329,79.815383 L57.9999105,74.9635266 L57.8769704,69.812111 C57.6238666,59.7711104 57.3024635,47.8742132 56.9127917,35.7964292 L56.845322,33.7244926 L56.7391986,30.5427941 C56.3802061,19.9381116 55.9687359,9.3808523 55.5048085,-2.42472709e-13 Z M59.6000669,27.4546151 L59.8284056,31.9279746 L59.9947063,35.3824311 C60.6732282,49.8735305 61.1717826,65.5837735 61.4904986,82.5136409 L61.5278814,84.5510793 C61.6133314,89.3320726 61.0178887,93.3189053 59.1683323,101.974428 L58.4000734,105.532831 C56.8331049,112.821959 56.1511455,117.163263 56.1123858,121.445144 L56.1137843,202.560144 L56.1254655,203.005314 L56.1394442,203.283207 C56.2242821,204.66385 56.5469415,205.971322 57.7218697,209.865642 L58.960604,213.93405 C60.7711998,219.963178 61.5879681,224.29166 61.5280297,229.315534 L61.5281489,263.577136 L61.714083,263.536319 C65.1599884,262.744616 66.6678489,261.318766 66.6678489,259.296833 L66.6678489,231.985128 C66.6678489,229.824722 66.4968507,228.089522 66.1250786,226.190797 L65.9702746,225.456719 L64.8637306,220.871265 L64.3569053,218.690092 C64.1645915,217.843345 63.9918283,217.053869 63.8639997,216.416711 L63.6650303,215.377045 L63.5156564,214.549281 C61.8203677,204.916979 60.9030503,191.347209 60.9030503,169.825858 L60.9068115,166.984225 L60.9242985,163.235761 L60.9477498,160.446773 C61.1081765,144.637571 61.7008575,134.039304 62.7326754,124.75948 L63.0123774,122.364315 L63.9924576,114.730504 L64.1677921,113.268744 C64.6912226,108.738173 64.9470718,104.815625 64.9932225,99.6579834 L65.0009192,97.8797993 L64.9949318,96.0191785 L64.9769697,94.1251933 C64.7654145,77.2476346 63.1522789,56.4652203 60.1368344,31.7829258 L59.6000669,27.4546151 Z" id="形状结合" fill-opacity="0.7" fill="#999999" fill-rule="nonzero"></path>
            <path d="M39.4523784,59.4610888 L30.5620866,59.4610888 C27.8309579,59.4610888 25.6169407,61.6751061 25.6169407,64.4062347 L25.6169407,73.3425648 C25.6169407,76.0736935 27.8309579,78.2877108 30.5620866,78.2877108 L39.4523784,78.2877108 C42.1835071,78.2877108 44.3975244,76.0736935 44.3975244,73.3425648 L44.3975244,64.4062347 C44.3975244,61.6751061 42.1835071,59.4610888 39.4523784,59.4610888 Z M30.5620866,60.4610888 L39.4523784,60.4610888 C41.6312224,60.4610888 43.3975244,62.2273908 43.3975244,64.4062347 L43.3975244,73.3425648 C43.3975244,75.5214088 41.6312224,77.2877108 39.4523784,77.2877108 L30.5620866,77.2877108 C28.3832427,77.2877108 26.6169407,75.5214088 26.6169407,73.3425648 L26.6169407,64.4062347 C26.6169407,62.2273908 28.3832427,60.4610888 30.5620866,60.4610888 Z" id="矩形备份-9" fill-opacity="0.7" fill="#999999" fill-rule="nonzero"></path>
            <path d="M26.2369596,55.8639369 C26.5792358,55.8639369 26.8726155,55.7658904 27.1170985,55.5697976 C27.3793621,55.3603348 27.5438325,55.0706522 27.6149548,54.6962931 L27.1082082,54.6962931 C27.0459762,54.9369525 26.9392927,55.1196754 26.7881577,55.2400051 C26.645913,55.3469648 26.4592169,55.4049013 26.2325145,55.4049013 C25.8857931,55.4049013 25.6279746,55.293485 25.4635042,55.0795655 C25.3123692,54.879016 25.2368018,54.5893334 25.2368018,54.2149743 C25.2368018,53.8495286 25.3123692,53.5643026 25.4679494,53.3592965 C25.6368649,53.1275504 25.8857931,53.016134 26.219179,53.016134 C26.4414363,53.016134 26.6236873,53.0607006 26.765932,53.158747 C26.9126218,53.2567934 27.010415,53.4083197 27.0637567,53.6177825 L27.5705034,53.6177825 C27.5216068,53.2969033 27.3838072,53.0384173 27.1526597,52.8512377 C26.9126218,52.6551449 26.6014616,52.5570985 26.2280693,52.5570985 C25.7213227,52.5570985 25.334595,52.7219947 25.0678862,53.0607006 C24.8322935,53.3548398 24.7167197,53.7425688 24.7167197,54.2149743 C24.7167197,54.6962931 24.8278483,55.0795655 25.0545508,55.3647914 C25.3123692,55.694584 25.7079872,55.8639369 26.2369596,55.8639369 Z M29.5130321,55.8639369 C29.9975531,55.8639369 30.3798356,55.7079539 30.6598798,55.395988 C30.9265886,55.0973921 31.0599429,54.7052064 31.0599429,54.2149743 C31.0599429,53.7247422 30.9265886,53.3280999 30.6598798,53.029504 C30.3798356,52.7130814 29.9975531,52.5570985 29.5130321,52.5570985 C29.0240661,52.5570985 28.6417835,52.7130814 28.3661845,53.0339606 C28.0994757,53.3370132 27.9705665,53.7291989 27.9705665,54.2149743 C27.9705665,54.6962931 28.0994757,55.0884788 28.3661845,55.3915314 C28.6417835,55.7034973 29.0240661,55.8639369 29.5130321,55.8639369 Z M29.5130321,55.4049013 C29.1840913,55.4049013 28.9262729,55.293485 28.748467,55.0751088 C28.5751064,54.8611894 28.4906486,54.5759634 28.4906486,54.2149743 C28.4906486,53.8495286 28.5751064,53.5643026 28.748467,53.3503832 C28.930718,53.1275504 29.1840913,53.016134 29.5130321,53.016134 C29.8419729,53.016134 30.0953463,53.1186371 30.2731521,53.3325565 C30.4465128,53.546476 30.5354157,53.8406153 30.5354157,54.2149743 C30.5354157,54.5893334 30.4465128,54.879016 30.2731521,55.0884788 C30.0953463,55.2979416 29.8419729,55.4049013 29.5130321,55.4049013 Z M32.0689911,55.8015437 L32.0689911,53.4751695 L32.0867716,53.4751695 L33.6736887,55.8015437 L34.1804354,55.8015437 L34.1804354,52.6194917 L33.6559082,52.6194917 L33.6559082,54.9146692 L33.6381276,54.9146692 L32.0689911,52.6194917 L31.548909,52.6194917 L31.548909,55.8015437 L32.0689911,55.8015437 Z M35.3228379,55.8015437 L35.3228379,53.4751695 L35.3406185,53.4751695 L36.9275356,55.8015437 L37.4342822,55.8015437 L37.4342822,52.6194917 L36.909755,52.6194917 L36.909755,54.9146692 L36.8919744,54.9146692 L35.3228379,52.6194917 L34.8027558,52.6194917 L34.8027558,55.8015437 L35.3228379,55.8015437 Z M40.4214203,55.8015437 L40.4214203,55.3558781 L38.5766847,55.3558781 L38.5766847,54.3932405 L40.2391693,54.3932405 L40.2391693,53.947575 L38.5766847,53.947575 L38.5766847,53.0651572 L40.3458528,53.0651572 L40.3458528,52.6194917 L38.0566026,52.6194917 L38.0566026,55.8015437 L40.4214203,55.8015437 Z M42.2972718,55.8639369 C42.6395481,55.8639369 42.9329277,55.7658904 43.1774107,55.5697976 C43.4396743,55.3603348 43.6041447,55.0706522 43.6752671,54.6962931 L43.1685204,54.6962931 C43.1062884,54.9369525 42.9996049,55.1196754 42.8484699,55.2400051 C42.7062253,55.3469648 42.5195291,55.4049013 42.2928267,55.4049013 C41.9461053,55.4049013 41.6882868,55.293485 41.5238164,55.0795655 C41.3726815,54.879016 41.297114,54.5893334 41.297114,54.2149743 C41.297114,53.8495286 41.3726815,53.5643026 41.5282616,53.3592965 C41.6971771,53.1275504 41.9461053,53.016134 42.2794913,53.016134 C42.5017485,53.016134 42.6839995,53.0607006 42.8262442,53.158747 C42.972934,53.2567934 43.0707272,53.4083197 43.124069,53.6177825 L43.6308156,53.6177825 C43.581919,53.2969033 43.4441195,53.0384173 43.2129719,52.8512377 C42.972934,52.6551449 42.6617738,52.5570985 42.2883815,52.5570985 C41.7816349,52.5570985 41.3949072,52.7219947 41.1281985,53.0607006 C40.8926057,53.3548398 40.7770319,53.7425688 40.7770319,54.2149743 C40.7770319,54.6962931 40.8881606,55.0795655 41.114863,55.3647914 C41.3726815,55.694584 41.7682995,55.8639369 42.2972718,55.8639369 Z M45.4799963,55.8015437 L45.4799963,53.0651572 L46.5201605,53.0651572 L46.5201605,52.6194917 L43.9197501,52.6194917 L43.9197501,53.0651572 L44.9599142,53.0651572 L44.9599142,55.8015437 L45.4799963,55.8015437 Z" id="CONNECT" fill="#999999" fill-rule="nonzero"></path>
            <path d="M31.7978372,212.378707 L32.4201576,209.985483 L32.4379382,209.985483 L33.0558135,212.378707 L33.6070115,212.378707 L34.5227116,209.196655 L33.9359523,209.196655 L33.3403028,211.616618 L33.3225222,211.616618 L32.6957566,209.196655 L32.157894,209.196655 L31.5311284,211.616618 L31.5133478,211.616618 L30.9176983,209.196655 L30.330939,209.196655 L31.2421939,212.378707 L31.7978372,212.378707 Z M35.1005806,212.378707 L35.3895151,211.580965 L36.7186137,211.580965 L37.0075482,212.378707 L37.5631914,212.378707 L36.3496666,209.196655 L35.7584622,209.196655 L34.5449373,212.378707 L35.1005806,212.378707 Z M36.5630336,211.153126 L35.5450952,211.153126 L36.0473967,209.758193 L36.0651772,209.758193 L36.5630336,211.153126 Z M38.3944337,212.378707 L38.3944337,210.052332 L38.4122143,210.052332 L39.9991314,212.378707 L40.505878,212.378707 L40.505878,209.196655 L39.9813508,209.196655 L39.9813508,211.491832 L39.9635702,211.491832 L38.3944337,209.196655 L37.8743516,209.196655 L37.8743516,212.378707 L38.3944337,212.378707 Z" id="WAN" fill="#999999" fill-rule="nonzero"></path>
            <path d="M33.6536856,87.8894632 L33.6536856,87.4437977 L31.9378593,87.4437977 L31.9378593,84.7074112 L31.4222223,84.7074112 L31.4222223,87.8894632 L33.6536856,87.8894632 Z M34.2982317,87.8894632 L34.5871662,87.0917219 L35.9162649,87.0917219 L36.2051993,87.8894632 L36.7608426,87.8894632 L35.5473177,84.7074112 L34.9561133,84.7074112 L33.7425885,87.8894632 L34.2982317,87.8894632 Z M35.7606847,86.6638829 L34.7427463,86.6638829 L35.2450478,85.2689498 L35.2628284,85.2689498 L35.7606847,86.6638829 Z M37.5920849,87.8894632 L37.5920849,85.563089 L37.6098655,85.563089 L39.1967826,87.8894632 L39.7035292,87.8894632 L39.7035292,84.7074112 L39.179002,84.7074112 L39.179002,87.0025888 L39.1612214,87.0025888 L37.5920849,84.7074112 L37.0720028,84.7074112 L37.0720028,87.8894632 L37.5920849,87.8894632 Z" id="LAN" fill="#999999" fill-rule="nonzero"></path>
            <path d="M28.6773447,242.461131 L28.6773447,241.240008 L29.4641355,241.240008 C30.2375909,241.240008 30.6243186,240.910215 30.6243186,240.255087 C30.6243186,239.604415 30.2375909,239.279079 29.4730258,239.279079 L28.1572626,239.279079 L28.1572626,242.461131 L28.6773447,242.461131 Z M29.4330195,240.794342 L28.6773447,240.794342 L28.6773447,239.724745 L29.4330195,239.724745 C29.659722,239.724745 29.8286375,239.764855 29.935321,239.849531 C30.0420045,239.929751 30.0997914,240.06345 30.0997914,240.255087 C30.0997914,240.446723 30.0464497,240.584879 29.9397662,240.669556 C29.8330827,240.749775 29.6641671,240.794342 29.4330195,240.794342 Z M32.4779445,242.523524 C32.9624654,242.523524 33.3447479,242.367541 33.6247921,242.055575 C33.8915009,241.75698 34.0248553,241.364794 34.0248553,240.874562 C34.0248553,240.38433 33.8915009,239.987687 33.6247921,239.689091 C33.3447479,239.372669 32.9624654,239.216686 32.4779445,239.216686 C31.9889784,239.216686 31.6066959,239.372669 31.3310968,239.693548 C31.0643881,239.996601 30.9354788,240.388786 30.9354788,240.874562 C30.9354788,241.355881 31.0643881,241.748066 31.3310968,242.051119 C31.6066959,242.363085 31.9889784,242.523524 32.4779445,242.523524 Z M32.4779445,242.064489 C32.1490037,242.064489 31.8911852,241.953072 31.7133794,241.734696 C31.5400187,241.520777 31.4555609,241.235551 31.4555609,240.874562 C31.4555609,240.509116 31.5400187,240.22389 31.7133794,240.009971 C31.8956304,239.787138 32.1490037,239.675721 32.4779445,239.675721 C32.8068853,239.675721 33.0602586,239.778225 33.2380644,239.992144 C33.4114251,240.206063 33.500328,240.500203 33.500328,240.874562 C33.500328,241.248921 33.4114251,241.538603 33.2380644,241.748066 C33.0602586,241.957529 32.8068853,242.064489 32.4779445,242.064489 Z M35.691785,242.461131 L36.3141054,240.067907 L36.331886,240.067907 L36.9497613,242.461131 L37.5009594,242.461131 L38.4166594,239.279079 L37.8299002,239.279079 L37.2342506,241.699043 L37.21647,241.699043 L36.5897045,239.279079 L36.0518418,239.279079 L35.4250762,241.699043 L35.4072956,241.699043 L34.8116461,239.279079 L34.2248868,239.279079 L35.1361417,242.461131 L35.691785,242.461131 Z M41.114863,242.461131 L41.114863,242.015466 L39.2701275,242.015466 L39.2701275,241.052828 L40.932612,241.052828 L40.932612,240.607162 L39.2701275,240.607162 L39.2701275,239.724745 L41.0392955,239.724745 L41.0392955,239.279079 L38.7500454,239.279079 L38.7500454,242.461131 L41.114863,242.461131 Z M42.1239111,242.461131 L42.1239111,241.164244 L42.9462631,241.164244 C43.124069,241.164244 43.2618685,241.199898 43.3552166,241.280117 C43.4441195,241.355881 43.4974612,241.480667 43.5152418,241.654476 L43.5552481,242.046662 C43.5730287,242.224928 43.6174802,242.363085 43.6930477,242.461131 L44.2575812,242.461131 C44.1508977,242.345258 44.0842205,242.189275 44.0664399,241.993182 L44.0130982,241.480667 C43.977537,241.168701 43.8219569,240.985978 43.5463578,240.923585 L43.5463578,240.914672 C43.7152734,240.870105 43.8530729,240.776515 43.9508661,240.633902 C44.039769,240.504659 44.0842205,240.35759 44.0842205,240.192693 C44.0842205,239.889641 43.9819821,239.657895 43.7863957,239.497455 C43.5996996,239.350386 43.3418811,239.279079 43.0173855,239.279079 L41.6038291,239.279079 L41.6038291,242.461131 L42.1239111,242.461131 Z M42.9462631,240.718579 L42.1239111,240.718579 L42.1239111,239.724745 L42.9462631,239.724745 C43.1596301,239.724745 43.3152103,239.760398 43.4130035,239.840618 C43.5107967,239.916381 43.5596933,240.041167 43.5596933,240.214977 C43.5596933,240.375416 43.5107967,240.500203 43.4130035,240.589336 C43.30632,240.674012 43.1507399,240.718579 42.9462631,240.718579 Z" id="POWER" fill="#999999" fill-rule="nonzero"></path>
            <path d="M28.6217804,34.6324301 L28.6217804,33.3355434 L29.4441324,33.3355434 C29.6219382,33.3355434 29.7597377,33.3711966 29.8530858,33.4514164 C29.9419887,33.5271795 29.9953305,33.6519659 30.0131111,33.8257755 L30.0531174,34.2179611 C30.070898,34.3962274 30.1153494,34.5343837 30.1909169,34.6324301 L30.7554504,34.6324301 C30.6487669,34.5165571 30.5820897,34.3605741 30.5643092,34.1644813 L30.5109674,33.6519659 C30.4754062,33.34 30.3198261,33.1572771 30.0442271,33.094884 L30.0442271,33.0859707 C30.2131426,33.0414041 30.3509422,32.9478143 30.4487354,32.8052014 C30.5376383,32.6759583 30.5820897,32.5288887 30.5820897,32.3639925 C30.5820897,32.0609399 30.4798514,31.8291938 30.284265,31.6687542 C30.0975688,31.5216846 29.8397504,31.4503781 29.5152547,31.4503781 L28.1016983,31.4503781 L28.1016983,34.6324301 L28.6217804,34.6324301 Z M29.4441324,32.8898778 L28.6217804,32.8898778 L28.6217804,31.8960436 L29.4441324,31.8960436 C29.6574994,31.8960436 29.8130795,31.9316969 29.9108727,32.0119167 C30.0086659,32.0876798 30.0575625,32.2124662 30.0575625,32.3862757 C30.0575625,32.5467153 30.0086659,32.6715017 29.9108727,32.7606348 C29.8041892,32.8453113 29.6486091,32.8898778 29.4441324,32.8898778 Z M33.5647827,34.6324301 L33.5647827,34.1867646 L31.7200471,34.1867646 L31.7200471,33.224127 L33.3825317,33.224127 L33.3825317,32.7784614 L31.7200471,32.7784614 L31.7200471,31.8960436 L33.4892152,31.8960436 L33.4892152,31.4503781 L31.199965,31.4503781 L31.199965,34.6324301 L33.5647827,34.6324301 Z M35.2272672,34.6948233 C35.6317755,34.6948233 35.9473809,34.6101468 36.1696382,34.4497072 C36.3918955,34.284811 36.5030241,34.0575215 36.5030241,33.7722956 C36.5030241,33.4781563 36.3652246,33.2508669 36.0896255,33.0859707 C35.9651615,33.0146642 35.6895624,32.9077044 35.2583833,32.7740048 C34.9650036,32.680415 34.7827526,32.6135652 34.7160755,32.5779119 C34.5649405,32.4976921 34.4938182,32.3862757 34.4938182,32.2525761 C34.4938182,32.1010498 34.5560502,31.9896334 34.6894046,31.9227836 C34.7960881,31.864847 34.947223,31.8381071 35.1472546,31.8381071 C35.3784022,31.8381071 35.556208,31.878217 35.6717818,31.9673501 C35.7873556,32.0520266 35.8718134,32.1946396 35.9162649,32.3907324 L36.4319018,32.3907324 C36.4007858,32.0431133 36.2718765,31.7846272 36.0496192,31.619731 C35.8406974,31.4637481 35.5473177,31.3879849 35.1739255,31.3879849 C34.8316493,31.3879849 34.5516051,31.4637481 34.3293478,31.619731 C34.0893099,31.7801706 33.9737361,32.0030034 33.9737361,32.2837727 C33.9737361,32.564542 34.093755,32.7784614 34.3382381,32.9255311 C34.4315861,32.9790109 34.6760691,33.068144 35.067242,33.1929304 C35.4184085,33.2998901 35.6228852,33.3711966 35.6851173,33.4023932 C35.8807037,33.5004396 35.982942,33.6341393 35.982942,33.8034922 C35.982942,33.9371919 35.9118197,34.0396949 35.7784653,34.1199147 C35.645111,34.1956779 35.4584148,34.2357878 35.2272672,34.2357878 C34.9650036,34.2357878 34.7738624,34.1867646 34.6493983,34.0976314 C34.5115987,33.9951284 34.427141,33.8213188 34.3915798,33.5806594 L33.8759429,33.5806594 C33.8981686,33.9862151 34.0448584,34.2803543 34.3115672,34.4675339 C34.5293793,34.6190601 34.8360944,34.6948233 35.2272672,34.6948233 Z M39.3123563,34.6324301 L39.3123563,34.1867646 L37.4676208,34.1867646 L37.4676208,33.224127 L39.1301054,33.224127 L39.1301054,32.7784614 L37.4676208,32.7784614 L37.4676208,31.8960436 L39.2367889,31.8960436 L39.2367889,31.4503781 L36.9475387,31.4503781 L36.9475387,34.6324301 L39.3123563,34.6324301 Z M41.1170856,34.6324301 L41.1170856,31.8960436 L42.1572497,31.8960436 L42.1572497,31.4503781 L39.5568394,31.4503781 L39.5568394,31.8960436 L40.5970035,31.8960436 L40.5970035,34.6324301 L41.1170856,34.6324301 Z" id="RESET" fill="#999999" fill-rule="nonzero"></path>
            <ellipse id="椭圆形备份-2" fill-opacity="0.5" fill="#999999" cx="35.5628758" cy="39.3490572" rx="1.66692972" ry="1.67124581"></ellipse>
            <ellipse id="椭圆形备份-3" fill-opacity="0.5" fill="#999999" cx="32.7846596" cy="229.908218" rx="5.55643241" ry="5.57081936"></ellipse>
            <path d="M35.5628758,163.172992 L35.5631092,165.192992 L38.6109758,165.193343 L38.6111092,169.233992 L40.6430425,169.234044 L40.6431092,170.243992 L42.6751092,170.244219 L42.6751092,176.30527 L40.6431092,176.304992 L40.6430425,177.315446 L38.6111092,177.314992 L38.6109758,181.356147 L35.5631092,181.355992 L35.5628758,183.376497 L30.482709,183.376497 L30.4831092,181.355992 L28.4506423,181.356147 L28.4506423,165.193343 L30.4831092,165.192992 L30.482709,163.172992 L35.5628758,163.172992 Z M35.0887269,177.997642 L30.3472379,177.997642 L30.3472379,179.047175 L35.0887269,179.047175 L35.0887269,177.997642 Z M35.0887269,175.898577 L30.3472379,175.898577 L30.3472379,176.948109 L35.0887269,176.948109 L35.0887269,175.898577 Z M35.0887269,173.799511 L30.3472379,173.799511 L30.3472379,174.849044 L35.0887269,174.849044 L35.0887269,173.799511 Z M35.0887269,171.700446 L30.3472379,171.700446 L30.3472379,172.749978 L35.0887269,172.749978 L35.0887269,171.700446 Z M35.0887269,169.60138 L30.3472379,169.60138 L30.3472379,170.650913 L35.0887269,170.650913 L35.0887269,169.60138 Z M35.0887269,167.502315 L30.3472379,167.502315 L30.3472379,168.551847 L35.0887269,168.551847 L35.0887269,167.502315 Z" id="形状结合备份-2" fill-opacity="0.5" fill="#999999"></path>
            <path d="M35.5628758,139.404163 L35.5631092,141.424163 L38.6109758,141.424514 L38.6111092,145.465163 L40.6430425,145.465214 L40.6431092,146.475163 L42.6751092,146.47539 L42.6751092,152.536441 L40.6431092,152.536163 L40.6430425,153.546616 L38.6111092,153.546163 L38.6109758,157.587317 L35.5631092,157.587163 L35.5628758,159.607668 L30.482709,159.607668 L30.4831092,157.587163 L28.4506423,157.587317 L28.4506423,141.424514 L30.4831092,141.424163 L30.482709,139.404163 L35.5628758,139.404163 Z M35.0887269,154.228813 L30.3472379,154.228813 L30.3472379,155.278345 L35.0887269,155.278345 L35.0887269,154.228813 Z M35.0887269,152.129747 L30.3472379,152.129747 L30.3472379,153.17928 L35.0887269,153.17928 L35.0887269,152.129747 Z M35.0887269,150.030682 L30.3472379,150.030682 L30.3472379,151.080215 L35.0887269,151.080215 L35.0887269,150.030682 Z M35.0887269,147.931616 L30.3472379,147.931616 L30.3472379,148.981149 L35.0887269,148.981149 L35.0887269,147.931616 Z M35.0887269,145.832551 L30.3472379,145.832551 L30.3472379,146.882084 L35.0887269,146.882084 L35.0887269,145.832551 Z M35.0887269,143.733485 L30.3472379,143.733485 L30.3472379,144.783018 L35.0887269,144.783018 L35.0887269,143.733485 Z" id="形状结合备份" fill-opacity="0.5" fill="#999999"></path>
            <path d="M35.5628758,115.635334 L35.5631092,117.655334 L38.6109758,117.655684 L38.6111092,121.696334 L40.6430425,121.696385 L40.6431092,122.706334 L42.6751092,122.70656 L42.6751092,128.767612 L40.6431092,128.767334 L40.6430425,129.777787 L38.6111092,129.777334 L38.6109758,133.818488 L35.5631092,133.818334 L35.5628758,135.838839 L30.482709,135.838839 L30.4831092,133.818334 L28.4506423,133.818488 L28.4506423,117.655684 L30.4831092,117.655334 L30.482709,115.635334 L35.5628758,115.635334 Z M35.0887269,130.459983 L30.3472379,130.459983 L30.3472379,131.509516 L35.0887269,131.509516 L35.0887269,130.459983 Z M35.0887269,128.360918 L30.3472379,128.360918 L30.3472379,129.410451 L35.0887269,129.410451 L35.0887269,128.360918 Z M35.0887269,126.261853 L30.3472379,126.261853 L30.3472379,127.311385 L35.0887269,127.311385 L35.0887269,126.261853 Z M35.0887269,124.162787 L30.3472379,124.162787 L30.3472379,125.21232 L35.0887269,125.21232 L35.0887269,124.162787 Z M35.0887269,122.063722 L30.3472379,122.063722 L30.3472379,123.113254 L35.0887269,123.113254 L35.0887269,122.063722 Z M35.0887269,119.964656 L30.3472379,119.964656 L30.3472379,121.014189 L35.0887269,121.014189 L35.0887269,119.964656 Z" id="形状结合" fill-opacity="0.5" fill="#999999"></path>
            <path d="M35.5628758,91.8665045 L35.5631092,93.8865045 L38.6109758,93.8868549 L38.6111092,97.9275045 L40.6430425,97.9275559 L40.6431092,98.9375045 L42.6751092,98.9377312 L42.6751092,104.998783 L40.6431092,104.998504 L40.6430425,106.008958 L38.6111092,106.008504 L38.6109758,110.049659 L35.5631092,110.049504 L35.5628758,112.070009 L30.482709,112.070009 L30.4831092,110.049504 L28.4506423,110.049659 L28.4506423,93.8868549 L30.4831092,93.8865045 L30.482709,91.8665045 L35.5628758,91.8665045 Z M35.0887269,106.691154 L30.3472379,106.691154 L30.3472379,107.740687 L35.0887269,107.740687 L35.0887269,106.691154 Z M35.0887269,104.592089 L30.3472379,104.592089 L30.3472379,105.641621 L35.0887269,105.641621 L35.0887269,104.592089 Z M35.0887269,102.493023 L30.3472379,102.493023 L30.3472379,103.542556 L35.0887269,103.542556 L35.0887269,102.493023 Z M35.0887269,100.393958 L30.3472379,100.393958 L30.3472379,101.443491 L35.0887269,101.443491 L35.0887269,100.393958 Z M35.0887269,98.2948924 L30.3472379,98.2948924 L30.3472379,99.3444251 L35.0887269,99.3444251 L35.0887269,98.2948924 Z M35.0887269,96.1958269 L30.3472379,96.1958269 L30.3472379,97.2453597 L35.0887269,97.2453597 L35.0887269,96.1958269 Z" id="形状结合" fill-opacity="0.5" fill="#999999"></path>
            <path d="M35.5628758,185.75338 L35.5631092,187.77338 L38.6109758,187.773731 L38.6111092,191.81438 L40.6430425,191.814432 L40.6431092,192.82438 L42.6751092,192.824607 L42.6751092,198.885658 L40.6431092,198.88538 L40.6430425,199.895834 L38.6111092,199.89538 L38.6109758,203.936535 L35.5631092,203.93638 L35.5628758,205.956885 L30.482709,205.956885 L30.4831092,203.93638 L28.4506423,203.936535 L28.4506423,187.773731 L30.4831092,187.77338 L30.482709,185.75338 L35.5628758,185.75338 Z M35.0887269,200.57803 L30.3472379,200.57803 L30.3472379,201.627563 L35.0887269,201.627563 L35.0887269,200.57803 Z M35.0887269,198.478964 L30.3472379,198.478964 L30.3472379,199.528497 L35.0887269,199.528497 L35.0887269,198.478964 Z M35.0887269,196.379899 L30.3472379,196.379899 L30.3472379,197.429432 L35.0887269,197.429432 L35.0887269,196.379899 Z M35.0887269,194.280833 L30.3472379,194.280833 L30.3472379,195.330366 L35.0887269,195.330366 L35.0887269,194.280833 Z M35.0887269,192.181768 L30.3472379,192.181768 L30.3472379,193.231301 L35.0887269,193.231301 L35.0887269,192.181768 Z M35.0887269,190.082703 L30.3472379,190.082703 L30.3472379,191.132235 L35.0887269,191.132235 L35.0887269,190.082703 Z" id="形状结合" fill-opacity="0.5" fill="#FF5B5B"></path>
            <polygon id="直线-15" fill="#999999" fill-rule="nonzero" points="25.5612974 185.155969 25.5612974 186.270133 23.3381318 186.269164 23.3381318 209.852596 28.3395136 209.853268 28.3395136 210.967432 22.227438 210.967432 22.227438 185.155969"></polygon>
            <polygon id="直线-15备份" fill="#999999" fill-rule="nonzero" points="47.7870271 185.155969 47.7870271 210.967432 42.2305946 210.967432 42.2305946 209.853268 46.6757406 209.852596 46.6757406 186.269164 44.4531676 186.270133 44.4531676 185.155969"></polygon>
            <polygon id="直线-15" fill="#999999" fill-rule="nonzero" transform="translate(25.283476, 134.424374) scale(1, -1) translate(-25.283476, -134.424374) " points="25.5612974 85.921107 25.5612974 87.0352709 23.3381318 87.0343015 23.3381318 181.812508 28.3395136 181.813478 28.3395136 182.927642 22.227438 182.927642 22.227438 85.921107"></polygon>
            <polygon id="直线-15备份" fill="#999999" fill-rule="nonzero" transform="translate(45.008811, 134.424374) scale(1, -1) translate(-45.008811, -134.424374) " points="47.7870271 85.921107 47.7870271 182.927642 42.2305946 182.927642 42.2305946 181.813478 46.6757406 181.812508 46.6757406 87.0343015 44.4531676 87.0352709 44.4531676 85.921107"></polygon>
        </g>
        <g id="编组-3" transform="translate(55.000000, 28.000000)" fill="#999999">
            <g id="编组-2" transform="translate(14.000000, 20.121597)">
                <text id="RESET备份" font-family="PingFangSC-Semibold, PingFang SC" font-size="11.4285714" font-weight="500">
                    <tspan x="1.44571429" y="12">RESET</tspan>
                </text>
                <ellipse id="椭圆形备份-2" fill-opacity="0.5" cx="21.4285714" cy="24.5286995" rx="4.28571429" ry="4.34970302"></ellipse>
            </g>
            <path d="M34,0 C48.5527032,0 60.9699664,9.14290505 65.8210043,21.9979297 L83.5,24 L67.9394756,31.9543706 C67.9796349,32.6311099 68,33.3131767 68,34 C68,52.7776815 52.7776815,68 34,68 C15.2223185,68 0,52.7776815 0,34 C0,15.2223185 15.2223185,0 34,0 Z M34,2 C16.326888,2 2,16.326888 2,34 C2,51.673112 16.326888,66 34,66 C51.673112,66 66,51.673112 66,34 C66,33.5700243 65.9915311,33.1411169 65.9746386,32.7134338 L65.9429878,32.0728469 L65.8655765,30.7683602 L76.679,25.24 L64.3813695,23.8476809 L63.949805,22.704055 C59.2869689,10.3477566 47.4282538,2 34,2 Z" id="形状结合" fill-rule="nonzero" opacity="0.6"></path>
        </g>
        <path d="M158,250.498739 C158,259.612016 165.387984,267 174.498739,267 C183.612016,267 191,259.612016 191,250.498739 C191,241.387984 183.612016,234 174.498739,234 C165.387984,234 158,241.387984 158,250.498739" id="Fill-20备份-2" stroke="#F84343" stroke-width="2" stroke-linejoin="round"></path>
        <path d="M158,51.4987388 C158,60.6120156 165.387984,68 174.498739,68 C183.612016,68 191,60.6120156 191,51.4987388 C191,42.3879844 183.612016,35 174.498739,35 C165.387984,35 158,42.3879844 158,51.4987388" id="Fill-20备份-3" stroke="#F84343" stroke-width="2" stroke-linejoin="round"></path>
        <path d="M98.5,141.596923 L98.5,176.286024 L92.5357464,176.499361 L92.5357133,176.477751 C91.3146605,178.351521 89.0590573,179.596923 86.5,179.596923 C83.9513878,179.596923 81.7037577,178.361667 80.4792901,176.500663 L74.5,176.5 L74.5,141.596923 L98.5,141.596923 Z M86.5,160.596923 C83.713541,160.596923 81.5,162.564522 81.5,164.930276 L81.5,164.930276 L81.5,173.26357 C81.5,175.629324 83.713541,177.596923 86.5,177.596923 C89.286459,177.596923 91.5,175.629324 91.5,173.26357 L91.5,173.26357 L91.5,164.930276 C91.5,162.564522 89.286459,160.596923 86.5,160.596923 Z M96.499,143.596 L76.499,143.596 L76.499,174.5 L79.6326558,174.500659 C79.545652,174.101111 79.5,173.687538 79.5,173.26357 L79.5,173.26357 L79.5,164.930276 C79.5,161.404052 82.658008,158.596923 86.5,158.596923 C90.341992,158.596923 93.5,161.404052 93.5,164.930276 L93.5,164.930276 L93.5,173.26357 C93.5,173.676213 93.4567543,174.079009 93.3742275,174.468612 L96.499,174.356 L96.499,143.596 Z M91.67,148.773462 L91.67,152.424231 L90.2819231,152.424231 L90.2819231,148.773462 L91.67,148.773462 Z M83.3426923,148.773462 L83.3426923,152.424231 L81.9546154,152.424231 L81.9546154,148.773462 L83.3426923,148.773462 Z" id="形状结合" fill="#999999" fill-rule="nonzero"></path>
        <path d="M86.5,179.5 L86.5,226.5 C86.5,238.650264 96.3497355,248.5 108.5,248.5 L120,248.5 L120,248.5" id="直线" stroke="#979797" stroke-width="2" stroke-linecap="square"></path>
        <path d="M141.597346,225 C142.544423,225 143.320719,225.728942 143.395981,226.656573 L143.401962,226.804615 L143.400308,236.775 L143.997462,236.775115 C144.918231,236.775115 145.673426,237.485313 145.746644,238.386338 L145.752462,238.530115 L145.752462,253.077808 C145.752462,253.999673 145.043305,254.754923 144.141395,254.828143 L143.997462,254.833962 L143.780308,254.833 L143.780654,264.003462 C143.780654,264.665481 143.277649,265.209862 142.632921,265.275323 L142.502192,265.281923 L141.961308,265.281 L141.961846,272.001229 C141.961846,272.18581 141.690692,272.335385 141.354923,272.335385 L137.109923,272.335385 C136.775308,272.335385 136.504154,272.18581 136.504154,272.001229 L136.503308,265.281 L136.405269,265.281923 C135.74325,265.281923 135.198869,264.778918 135.133407,264.13419 L135.126808,264.003462 L135.126308,254.833 L134.862462,254.833962 C133.940596,254.833962 133.185346,254.124805 133.112126,253.221906 L133.106308,253.077808 L133.106308,238.530115 C133.106308,237.610442 133.815464,236.854261 134.718364,236.780942 L134.862462,236.775115 L135.510308,236.775 L135.511962,226.804615 C135.511962,225.857538 136.240904,225.081242 137.169524,225.00598 L137.317731,225 L141.597346,225 Z M142.473308,254.833 L136.404308,254.833 L136.407308,255.803 L138.273115,255.803769 C138.584654,255.803769 138.836192,256.054154 138.836192,256.365692 C138.836192,256.677231 138.584654,256.927615 138.273115,256.927615 L136.411308,256.927 L136.416191,258.36266 C136.432737,258.361205 136.449492,258.360462 136.466423,258.360462 L138.357577,258.360462 C138.667962,258.360462 138.9195,258.612 138.9195,258.923538 C138.9195,259.233923 138.667962,259.485462 138.357577,259.485462 L136.466423,259.485462 L136.419308,259.481 L136.424149,260.919855 C136.438103,260.91883 136.452201,260.918308 136.466423,260.918308 L138.357577,260.918308 C138.667962,260.918308 138.9195,261.168692 138.9195,261.480231 C138.9195,261.791769 138.667962,262.043308 138.357577,262.043308 L136.466423,262.043308 L136.428308,262.04 L136.435269,264.003462 L142.502192,263.973462 L142.495308,262.043 L140.615885,262.043308 C140.304346,262.043308 140.052808,261.791769 140.052808,261.480231 C140.052808,261.168692 140.304346,260.918308 140.615885,260.918308 L142.491308,260.918 L142.487308,259.485 L140.615885,259.485462 C140.304346,259.485462 140.052808,259.233923 140.052808,258.923538 C140.052808,258.612 140.304346,258.360462 140.615885,258.360462 L142.484308,258.36 L142.480308,256.927 L140.760115,256.927615 C140.448577,256.927615 140.197038,256.677231 140.197038,256.365692 C140.197038,256.054154 140.448577,255.803769 140.760115,255.803769 L142.476308,255.803 L142.473308,254.833 Z M143.997462,238.410115 L134.862462,238.410115 C134.808923,238.410115 134.763508,238.444823 134.747483,238.49238 L134.741308,238.530115 L134.741308,253.077808 C134.741308,253.131346 134.776015,253.176023 134.824163,253.191752 L134.862462,253.197808 L143.997462,253.197808 C144.051,253.197808 144.095677,253.163838 144.111406,253.115986 L144.117462,253.077808 L144.117462,238.530115 C144.117462,238.464346 144.064385,238.410115 143.997462,238.410115 Z M141.597346,226.635 L137.317731,226.635 C137.242038,226.635 137.178162,226.683738 137.155638,226.751086 L137.146962,226.804615 L137.145308,236.775 L141.765308,236.775 L141.766962,226.804615 C141.766962,226.729846 141.718223,226.666154 141.650875,226.643668 L141.597346,226.635 Z" id="形状结合" fill="#999999" fill-rule="nonzero" transform="translate(139.429385, 248.667692) rotate(-270.000000) translate(-139.429385, -248.667692) "></path>
    </g>
</svg>